<svg xmlns="http://www.w3.org/2000/svg" xmlns:xlink="http://www.w3.org/1999/xlink" width="109" height="109" viewBox="0 0 109 109">
  <defs>
    <clipPath id="clip-path">
      <rect id="Rectángulo_101916" data-name="Rectángulo 101916" width="66.637" height="66.59" fill="none"/>
    </clipPath>
  </defs>
  <g id="Grupo_130820" data-name="Grupo 130820" transform="translate(-260.667 -914)">
    <circle id="Elipse_4743" data-name="Elipse 4743" cx="54.5" cy="54.5" r="54.5" transform="translate(260.667 914)" fill="#8c6df2"/>
    <g id="Grupo_177878" data-name="Grupo 177878" transform="translate(277.929 935.205)">
      <g id="Grupo_177877" data-name="Grupo 177877" clip-path="url(#clip-path)">
        <path id="Trazado_238954" data-name="Trazado 238954" d="M56.652,43.282c1.247-.787,2.385-1.527,3.546-2.23a8.212,8.212,0,0,1,1.835-.946,3.653,3.653,0,0,1,3.249,6.359c-2.144,1.69-4.336,3.32-6.51,4.972Q49.686,58.34,40.6,65.246a5.87,5.87,0,0,1-5.741,1q-10.8-3.519-21.63-6.961a8.321,8.321,0,0,0-2.292-.358c-2.449-.061-4.9-.051-7.349-.071A3.339,3.339,0,0,1,0,55.227Q0,51.065,0,46.9A3.327,3.327,0,0,1,3.617,43.31q3.317-.007,6.634,0A6.13,6.13,0,0,0,13.3,42.55c.984-.547,1.982-1.069,2.958-1.631a.767.767,0,0,0,.377-.508c.023-2.989.017-5.979.017-9-.353-.115-.68-.214-1-.328a3.35,3.35,0,0,1-1.945-4.712q1.454-2.867,3.045-5.663a2.005,2.005,0,0,1,1.11-.777c3.821-1.122,7.655-2.2,11.486-3.291.226-.064.448-.141.749-.236-.142-.212-.247-.387-.369-.549q-2.273-3.009-4.55-6.015a2.564,2.564,0,0,1-.2-3.4c.978-1.662,1.966-3.317,2.925-4.988A2.672,2.672,0,0,1,30.4,0q6.244.011,12.489,0a2.641,2.641,0,0,1,2.46,1.4c1,1.723,2.016,3.438,3.027,5.154a2.523,2.523,0,0,1-.186,3.186Q45.9,12.78,43.6,15.809c-.13.172-.252.349-.428.593.621.182,1.192.353,1.766.516q5.277,1.5,10.555,3a1.753,1.753,0,0,1,1.16.943c.9,1.728,1.843,3.434,2.757,5.155a3.409,3.409,0,0,1-2.074,5.173l-.689.227ZM36.459,48.845c3.556,0,7.113.008,10.669,0a1.873,1.873,0,1,0,.332-3.73c-1.236-.221-2.479-.408-3.719-.6Q33.28,42.851,22.819,41.191a5.093,5.093,0,0,0-3.445.575c-1.584.894-3.2,1.732-4.785,2.625a8.75,8.75,0,0,1-4.475,1.145c-2.168-.021-4.337-.008-6.505,0-1,0-1.384.383-1.386,1.371q-.006,4.162,0,8.325c0,1.024.38,1.392,1.424,1.4,1.5.011,2.993-.013,4.488.032,1.982.059,3.969-.121,5.925.522,7.114,2.338,14.255,4.594,21.374,6.919a3.917,3.917,0,0,0,3.888-.667Q51.368,54.242,63.446,45.1a4.406,4.406,0,0,0,.548-.457,1.438,1.438,0,0,0-1.676-2.283,6.416,6.416,0,0,0-.613.368Q51.215,49.361,40.725,56a2.814,2.814,0,0,1-3.708-.146C35.1,54.4,33.2,52.931,31.259,51.5A2.283,2.283,0,0,0,30.09,51.1c-1.038-.056-2.081-.015-3.122-.021a14.064,14.064,0,0,1-1.622-.049,1.085,1.085,0,0,1-.007-2.136,4.1,4.1,0,0,1,.777-.045q5.171,0,10.343,0m14.992-2.269c.847-.534,1.637-1.066,2.46-1.538a.92.92,0,0,0,.5-.935c-.016-3.769-.008-7.538-.01-11.308,0-.2-.019-.41-.032-.66-.264.079-.47.137-.674.2q-4.7,1.476-9.409,2.952a3.343,3.343,0,0,1-4.251-1.521c-.637-.955-1.269-1.911-1.909-2.864-.085-.127-.2-.234-.377-.445,0,3.583-.006,7.026.02,10.468,0,.152.273.41.448.439,3.01.5,6.023.989,9.04,1.442,2.478.373,3.526,1.273,4.193,3.77M34.824,27.33a1.98,1.98,0,0,0-.262-.125q-7.875-2.327-15.749-4.656c-.394-.117-.572,0-.753.349-.735,1.423-1.508,2.826-2.257,4.242a1.177,1.177,0,0,0,.772,1.907q6.591,2.083,13.189,4.147a1.152,1.152,0,0,0,1.59-.591q1.627-2.429,3.239-4.869c.08-.12.144-.251.23-.4m3.583-.029c1.278,1.918,2.479,3.744,3.708,5.55a1.15,1.15,0,0,0,1.457.339c4.371-1.387,8.747-2.758,13.119-4.141,1.055-.333,1.3-.955.778-1.941-.739-1.4-1.508-2.777-2.221-4.186-.22-.434-.445-.456-.864-.331-3.523,1.055-7.053,2.087-10.58,3.125-1.759.518-3.519,1.033-5.4,1.585m-19.5,4.817V39.51a6.789,6.789,0,0,1,3.784-.583c1.48.2,2.953.46,4.429.694l8.357,1.327V30.427c-.814,1.222-1.541,2.322-2.277,3.414A3.331,3.331,0,0,1,29.032,35.3c-1.633-.507-3.262-1.027-4.893-1.539-1.73-.543-3.461-1.085-5.23-1.639M22,21.055l-.018.122c4.669,1.375,9.336,2.759,14.011,4.11a2.488,2.488,0,0,0,1.3.007c3.1-.88,6.19-1.8,9.283-2.714,1.579-.465,3.157-.935,4.8-1.423A1.376,1.376,0,0,0,51.137,21c-3.017-.863-6.033-1.732-9.058-2.566a.814.814,0,0,0-.661.285c-.887,1.121-1.727,2.279-2.6,3.41a2.569,2.569,0,0,1-4.37-.036c-.853-1.121-1.709-2.239-2.544-3.373a.615.615,0,0,0-.806-.276c-1.113.353-2.246.644-3.37.965Q24.863,20.23,22,21.055M37.8,8.909v10.88l8.228-10.88Zm-10.543.005,8.213,10.852V8.914Zm7.42,42.209-.06.12c1.339,1.013,2.667,2.041,4.029,3.021a.889.889,0,0,0,.758-.077c.859-.5,1.689-1.05,2.528-1.583l2.155-1.366-.047-.115ZM34.231,6.617C33,5.145,31.857,3.743,30.673,2.375c-.3-.342-.625-.17-.836.189q-.593,1.008-1.183,2.017c-.388.663-.774,1.327-1.187,2.036Zm11.607.013c-.845-1.44-1.619-2.784-2.42-4.112-.27-.448-.587-.424-.972.035q-1.519,1.813-3.026,3.637c-.1.122-.182.262-.3.439Zm-9.192-.593L39.8,2.256H33.5l3.149,3.782" transform="translate(0 0)" fill="#fff"/>
      </g>
    </g>
  </g>
</svg>
