<svg xmlns="http://www.w3.org/2000/svg" xmlns:xlink="http://www.w3.org/1999/xlink" width="209.998" height="185.641" viewBox="0 0 209.998 185.641">
  <defs>
    <clipPath id="clip-path">
      <rect id="Rectángulo_102337" data-name="Rectángulo 102337" width="209.998" height="185.641" fill="none"/>
    </clipPath>
    <clipPath id="clip-path-2">
      <path id="Trazado_241447" data-name="Trazado 241447" d="M94.654,18.729c-.549.057-1.175.12-2.014.23C58.322,23.444,36.845,55.28,34.295,59.177c-21.51,32.863-22.878,85.917,5.271,111.349,12.388,11.192,26.807,13.435,43.887,16.614,10.587,1.969,44.83,7.735,74.786-12.267a65.8,65.8,0,0,0,11.566-9.389c26.647-27.466,26.581-77.583,5.628-109.942a80.045,80.045,0,0,0-15.749-17.87c-20.048-16.8-43.488-19.382-56.268-19.382a82.5,82.5,0,0,0-8.763.438" transform="translate(-18.279 -18.291)" fill="none"/>
    </clipPath>
    <linearGradient id="linear-gradient" x1="0.108" y1="0.824" x2="0.112" y2="0.824" gradientUnits="objectBoundingBox">
      <stop offset="0" stop-color="#dae3fe"/>
      <stop offset="1" stop-color="#e9effd"/>
    </linearGradient>
    <clipPath id="clip-path-4">
      <rect id="Rectángulo_102333" data-name="Rectángulo 102333" width="206.165" height="170.017" fill="none"/>
    </clipPath>
    <clipPath id="clip-path-5">
      <rect id="Rectángulo_102334" data-name="Rectángulo 102334" width="36.078" height="36.078" fill="none"/>
    </clipPath>
    <clipPath id="clip-path-6">
      <rect id="Rectángulo_102335" data-name="Rectángulo 102335" width="32.921" height="32.921" fill="none"/>
    </clipPath>
    <clipPath id="clip-path-7">
      <rect id="Rectángulo_101724" data-name="Rectángulo 101724" width="191.739" height="157.963" fill="none"/>
    </clipPath>
    <clipPath id="clip-path-9">
      <rect id="Rectángulo_101719" data-name="Rectángulo 101719" width="12.538" height="11.466" fill="none"/>
    </clipPath>
    <clipPath id="clip-path-10">
      <rect id="Rectángulo_101720" data-name="Rectángulo 101720" width="4.616" height="13.375" fill="none"/>
    </clipPath>
    <clipPath id="clip-path-11">
      <rect id="Rectángulo_101721" data-name="Rectángulo 101721" width="20.912" height="18.172" fill="none"/>
    </clipPath>
    <clipPath id="clip-path-12">
      <rect id="Rectángulo_101722" data-name="Rectángulo 101722" width="3.396" height="1.079" fill="none"/>
    </clipPath>
  </defs>
  <g id="Grupo_178720" data-name="Grupo 178720" transform="translate(-202.667 -2895)">
    <g id="Grupo_178719" data-name="Grupo 178719" transform="translate(202.667 2895)">
      <g id="Grupo_178718" data-name="Grupo 178718" transform="translate(0)">
        <g id="Grupo_178717" data-name="Grupo 178717" clip-path="url(#clip-path)">
          <g id="Grupo_178705" data-name="Grupo 178705" transform="translate(14.482 14.491)">
            <g id="Grupo_178704" data-name="Grupo 178704" clip-path="url(#clip-path-2)">
              <rect id="Rectángulo_102332" data-name="Rectángulo 102332" width="255.765" height="255.392" transform="translate(-94.983 82.78) rotate(-43.21)" fill="url(#linear-gradient)"/>
            </g>
          </g>
          <g id="Grupo_178716" data-name="Grupo 178716">
            <g id="Grupo_178715" data-name="Grupo 178715" clip-path="url(#clip-path)">
              <g id="Grupo_178708" data-name="Grupo 178708" opacity="0.61">
                <g id="Grupo_178707" data-name="Grupo 178707">
                  <g id="Grupo_178706" data-name="Grupo 178706" clip-path="url(#clip-path-4)">
                    <path id="Trazado_241448" data-name="Trazado 241448" d="M205.869,166.724a2.933,2.933,0,0,1,.134.307A2.14,2.14,0,0,1,204.054,170a3.93,3.93,0,0,1-3.924-2.367,73.461,73.461,0,0,0-7.742-14.948,87.208,87.208,0,0,0-11.231-13.637l-.795-.794-.819-.772c-.543-.517-1.1-1.02-1.664-1.519q-1.676-1.508-3.445-2.911c-.584-.474-1.192-.92-1.783-1.38s-1.213-.887-1.816-1.331c-.623-.421-1.228-.857-1.863-1.262s-1.253-.82-1.893-1.2-1.269-.775-1.917-1.135c-.323-.181-.642-.368-.967-.542l-.976-.516c-.646-.355-1.31-.655-1.961-.983-.658-.306-1.316-.61-1.975-.894s-1.319-.563-1.983-.8c-.332-.122-.66-.254-.991-.371l-.99-.336c-.166-.055-.327-.116-.5-.166l-.51-.15-1.017-.3c-.684-.174-1.362-.363-2.046-.516a68.142,68.142,0,0,0-16.528-1.622c-5.55.071-11.126.6-16.914,1.159-2.9.277-5.841.578-8.886.82-1.516.129-3.068.226-4.635.316-.793.036-1.579.082-2.384.107l-2.348.076c-6.01.181-12.23.292-18.74.029a131.835,131.835,0,0,1-20.562-2.343,93.369,93.369,0,0,1-11.151-2.94,80.8,80.8,0,0,1-11.54-4.837c-1.924-.993-3.834-2.085-5.707-3.27-.939-.591-1.863-1.212-2.781-1.849-.456-.321-.9-.63-1.362-.976s-.928-.69-1.379-1.047a65.708,65.708,0,0,1-9.81-9.407c-.718-.852-1.417-1.714-2.08-2.594-.355-.463-.61-.822-.906-1.214l-.857-1.165c-.569-.78-1.113-1.581-1.651-2.386S9.98,86.4,9.458,85.577A69.1,69.1,0,0,1,4.2,75.177,58.291,58.291,0,0,1,.959,64.188,53.73,53.73,0,0,1,4.181,33.3a68.589,68.589,0,0,1,9.651-16.382A82.762,82.762,0,0,1,20.07,9.851c1.121-1.128,2.283-2.232,3.515-3.327.62-.548,1.251-1.1,1.927-1.65.339-.279.684-.557,1.062-.847l.593-.448.34-.244.208-.144.318-.2C38.807-3.227,55.352.567,64.982,11.459s8.7,24.76-2.072,30.973l.106-.08c.024-.021.007-.017.007-.017l-.01,0c-.008-.008-.051.006-.078.01-.079.02-.158.044-.235.071-.173.055-.372.137-.57.216-.4.164-.83.353-1.257.555-.858.41-1.733.86-2.593,1.336a49.256,49.256,0,0,0-4.975,3.147,41.963,41.963,0,0,0-8.1,7.46,26.258,26.258,0,0,0-4.726,8.445,19.2,19.2,0,0,0-.906,4.533,21.155,21.155,0,0,0,.172,4.852,27.094,27.094,0,0,0,1.324,5.253c.18.455.337.913.526,1.376.2.462.384.929.6,1.4l.635,1.359c.158.359.341.717.521,1.072a21.261,21.261,0,0,0,2.814,4.059c.137.162.281.317.425.475l.486.5c.334.334.673.665,1.034.989.716.65,1.484,1.287,2.313,1.908a49.3,49.3,0,0,0,12.508,6.492q1.835.687,3.768,1.28t3.942,1.121c2.675.7,5.438,1.32,8.259,1.867,5.645,1.1,11.5,1.914,17.532,2.668l2.164.268c.7.087,1.406.158,2.115.238,1.426.142,2.862.277,4.325.39,2.915.231,5.9.413,8.94.584,6.078.353,12.4.708,18.943,1.605a90.071,90.071,0,0,1,19.923,4.859c.823.306,1.641.652,2.455.981.813.36,1.611.7,2.427,1.081l1.217.566c.4.195.8.4,1.193.6.8.391,1.565.828,2.338,1.249a76.769,76.769,0,0,1,8.631,5.7,102.893,102.893,0,0,1,14.368,13.381,128.525,128.525,0,0,1,11.369,14.808,158.844,158.844,0,0,1,9.018,15.631Z" transform="translate(0 0)" fill="#fdb74d"/>
                  </g>
                </g>
              </g>
              <g id="Grupo_178711" data-name="Grupo 178711" transform="translate(173.921 18.684)" opacity="0.7" style="isolation: isolate">
                <g id="Grupo_178710" data-name="Grupo 178710">
                  <g id="Grupo_178709" data-name="Grupo 178709" clip-path="url(#clip-path-5)">
                    <path id="Trazado_241449" data-name="Trazado 241449" d="M229.109,25.7a18.035,18.035,0,1,1-7.464,24.389A18.035,18.035,0,0,1,229.109,25.7" transform="translate(-219.532 -23.584)" fill="#5038a1"/>
                  </g>
                </g>
              </g>
              <path id="Trazado_241450" data-name="Trazado 241450" d="M240,32.284a6.012,6.012,0,1,1-2.488,8.13A6.013,6.013,0,0,1,240,32.284Z" transform="translate(-49.201 -6.561)" fill="none" stroke="#fff" stroke-width="1.98"/>
              <path id="Trazado_241451" data-name="Trazado 241451" d="M179.477,24.713a3.659,3.659,0,1,1-1.515,4.948,3.659,3.659,0,0,1,1.515-4.948" transform="translate(-36.886 -5.045)" fill="#fdb74d"/>
              <path id="Trazado_241452" data-name="Trazado 241452" d="M180.051,25.611a2.875,2.875,0,1,1-1.19,3.888,2.876,2.876,0,0,1,1.19-3.888" transform="translate(-37.091 -5.251)" fill="#fdb74d"/>
              <path id="Trazado_241453" data-name="Trazado 241453" d="M180.051,25.611a2.875,2.875,0,1,1-1.19,3.888A2.876,2.876,0,0,1,180.051,25.611Z" transform="translate(-37.091 -5.251)" fill="none" stroke="#8c6df2" stroke-width="1.98"/>
              <path id="Trazado_241454" data-name="Trazado 241454" d="M211.2,46.849a2.352,2.352,0,1,1-.974,3.181,2.352,2.352,0,0,1,.974-3.181" transform="translate(-43.621 -9.676)" fill="#fdb74d"/>
              <g id="Grupo_178714" data-name="Grupo 178714" transform="translate(4.779 139.092)" opacity="0.5">
                <g id="Grupo_178713" data-name="Grupo 178713">
                  <g id="Grupo_178712" data-name="Grupo 178712" clip-path="url(#clip-path-6)">
                    <path id="Trazado_241455" data-name="Trazado 241455" d="M38.867,190.363A16.459,16.459,0,1,0,24.159,208.4a16.459,16.459,0,0,0,14.708-18.042" transform="translate(-6.032 -175.569)" fill="#fdb74d"/>
                  </g>
                </g>
              </g>
              <path id="Trazado_241456" data-name="Trazado 241456" d="M21.579,178.257A14.389,14.389,0,1,1,8.721,194.029,14.389,14.389,0,0,1,21.579,178.257Z" transform="translate(-1.796 -37.02)" fill="none" stroke="#fff" stroke-linecap="round" stroke-width="2.046" stroke-dasharray="1.535 4.093"/>
            </g>
          </g>
        </g>
      </g>
    </g>
    <g id="Grupo_177430" data-name="Grupo 177430" transform="translate(211.797 2908.696)">
      <g id="Grupo_177428" data-name="Grupo 177428" clip-path="url(#clip-path-7)">
        <rect id="Rectángulo_101708" data-name="Rectángulo 101708" width="21.137" height="30.638" transform="translate(121.791 33.337)" fill="#e1e1e1"/>
        <rect id="Rectángulo_101709" data-name="Rectángulo 101709" width="21.137" height="30.638" transform="translate(120.732 33.337)" fill="#f5f5f5"/>
        <rect id="Rectángulo_101710" data-name="Rectángulo 101710" width="15.885" height="24.001" transform="translate(123.358 36.656)" fill="#fff"/>
        <g id="Grupo_177427" data-name="Grupo 177427">
          <g id="Grupo_177426" data-name="Grupo 177426" clip-path="url(#clip-path-7)">
            <path id="Trazado_238108" data-name="Trazado 238108" d="M308.484,110.891s0-.04,0-.117,0-.193,0-.341c0-.3,0-.743-.006-1.316,0-1.151-.008-2.827-.014-4.944-.006-4.232-.015-10.225-.026-17.283l.053.053-15.883,0h0l.057-.057c0,9.054-.008,17.4-.011,24l-.046-.046,11.562.024,3.194.012.839.005c.189,0,.29.005.29.005s-.093,0-.28.005l-.83.005-3.184.011-11.591.024h-.046v-.046c0-6.6-.007-14.947-.011-24v-.057h.06l15.883,0h.053v.053c-.01,7.072-.019,13.077-.026,17.317-.005,2.112-.011,3.785-.014,4.932,0,.569-.005,1.007-.006,1.306,0,.145,0,.256,0,.334s0,.111,0,.111" transform="translate(-169.242 -50.235)" fill="#e1e1e1"/>
            <path id="Trazado_238109" data-name="Trazado 238109" d="M332.787,79.1a3.649,3.649,0,0,1-.377.548c-.246.328-.594.775-.992,1.258s-.77.911-1.045,1.215a3.649,3.649,0,0,1-.465.475,3.956,3.956,0,0,1,.4-.528l1.018-1.235,1.017-1.235a3.977,3.977,0,0,1,.44-.5" transform="translate(-190.859 -45.758)" fill="#e1e1e1"/>
            <path id="Trazado_238110" data-name="Trazado 238110" d="M330.559,143.731a19.671,19.671,0,0,0,2.771,3.465" transform="translate(-191.235 -83.151)" fill="#fff"/>
            <path id="Trazado_238111" data-name="Trazado 238111" d="M333.329,147.2a3.151,3.151,0,0,1-.483-.44,15.448,15.448,0,0,1-1.965-2.458,3.2,3.2,0,0,1-.322-.568,4.358,4.358,0,0,1,.39.522c.233.327.561.775.942,1.253s.747.9,1.015,1.195a4.424,4.424,0,0,1,.424.5" transform="translate(-191.234 -83.151)" fill="#e1e1e1"/>
            <path id="Trazado_238112" data-name="Trazado 238112" d="M286.441,147.04l2.769-3.416" transform="translate(-165.712 -83.089)" fill="#fff"/>
            <path id="Trazado_238113" data-name="Trazado 238113" d="M289.208,143.624a42.005,42.005,0,0,1-2.769,3.416,42.072,42.072,0,0,1,2.769-3.416" transform="translate(-165.71 -83.089)" fill="#e1e1e1"/>
            <path id="Trazado_238114" data-name="Trazado 238114" d="M286.447,79.1a38.315,38.315,0,0,1,2.6,3.285,19.26,19.26,0,0,1-1.344-1.607,19.17,19.17,0,0,1-1.253-1.678" transform="translate(-165.715 -45.758)" fill="#e1e1e1"/>
            <rect id="Rectángulo_101711" data-name="Rectángulo 101711" width="5.319" height="15.102" transform="translate(128.975 41.529)" fill="#e1e1e1"/>
            <path id="Trazado_238115" data-name="Trazado 238115" d="M231.538,282.5a7.519,7.519,0,0,0-4.423,3.888,13.274,13.274,0,0,0-1.268,5.867c-.054,3.905,1.64,8.07,3.6,11.447,3.6-2.417,4.976-7.258,5.518-9.758.858-3.951.008-11.612-3.431-11.444" transform="translate(-130.656 -163.431)" fill="#f5f5f5"/>
            <path id="Trazado_238116" data-name="Trazado 238116" d="M208.776,334.308A6.416,6.416,0,0,0,207.489,328a8.52,8.52,0,0,0-5.987-2.74,3.589,3.589,0,0,0-2.893.881,2.745,2.745,0,0,0-.393,2.754A5.566,5.566,0,0,0,200,331.16c2.585,2.12,5.476,3.7,8.774,3.148" transform="translate(-114.558 -188.161)" fill="#f5f5f5"/>
            <path id="Trazado_238117" data-name="Trazado 238117" d="M218.418,349.248a12.581,12.581,0,0,0-.117-2.579,11.985,11.985,0,0,0-.643-2.748,26.351,26.351,0,0,0-1.292-3.193,12.843,12.843,0,0,0-4.012-4.78,9.3,9.3,0,0,0-1.671-.912,2.055,2.055,0,0,0-.671-.2c-.032.073.905.41,2.159,1.358a13.768,13.768,0,0,1,3.8,4.729,30.9,30.9,0,0,1,1.3,3.128,13.193,13.193,0,0,1,.716,2.657,18.572,18.572,0,0,0,.423,2.537" transform="translate(-121.496 -193.708)" fill="#e1e1e1"/>
            <path id="Trazado_238118" data-name="Trazado 238118" d="M233.749,296.481a7.548,7.548,0,0,0-.293,1.273c-.161.825-.376,2.021-.63,3.5-.507,2.96-1.163,7.057-1.777,11.6s-1.05,8.672-1.3,11.666c-.127,1.5-.216,2.709-.26,3.548a7.556,7.556,0,0,0-.028,1.306,7.42,7.42,0,0,0,.2-1.291c.1-.912.237-2.1.4-3.532.333-2.982.818-7.1,1.43-11.638l1.648-11.609.493-3.521a7.384,7.384,0,0,0,.125-1.3" transform="translate(-132.736 -171.52)" fill="#e1e1e1"/>
            <path id="Trazado_238119" data-name="Trazado 238119" d="M234.691,339.958a15.011,15.011,0,0,1,10.784-8.472c1.191-.219,2.657-.177,3.311.842s.079,2.377-.641,3.353a12.824,12.824,0,0,1-13.464,4.6" transform="translate(-135.768 -191.709)" fill="#f5f5f5"/>
            <path id="Trazado_238120" data-name="Trazado 238120" d="M241.161,339.069a2.092,2.092,0,0,0-.672.145c-.427.115-1.03.321-1.77.6a16.927,16.927,0,0,0-5.318,3.135,10.618,10.618,0,0,0-2.117,2.7,10.356,10.356,0,0,0-1.2,4.488,2.078,2.078,0,0,0,.024.688c.088.007.123-.973.513-2.475a11.118,11.118,0,0,1,1.019-2.505,10.932,10.932,0,0,1,2.06-2.573,19.051,19.051,0,0,1,5.14-3.171,21.909,21.909,0,0,0,2.324-1.027" transform="translate(-133.104 -196.154)" fill="#e1e1e1"/>
            <path id="Trazado_238121" data-name="Trazado 238121" d="M387.715,107.167s-4.418-1.3-6.205,8.857a119.405,119.405,0,0,0-1.932,15.749s-.62,2.2-2.253,1.388-4.412-3.7-6.373-2.426c-2.035,1.32-2.006,4.034-.461,7.56s4.647,11.377,4.925,12.088.186,1.876-1.016,1.5-8.863-4.99-10.834-1.224,3.948,12.883,4.576,13.892.557,1.544.118,1.976-2.867-1.361-5.1-2.584-5.036-2.248-5.991.02.859,9.914,11.725,19.906l5.338,4.3,6.461-2.378c13.517-5.932,17.711-12.577,17.542-15.032s-3.153-2.393-5.661-1.96-5.387,1.342-5.663.792-.169-1.079.752-1.83,9.475-7.458,8.831-11.66-9.386-2.321-10.646-2.353-.96-1.175-.475-1.747,5.971-7,8.576-9.839,3.51-5.393,2.013-7.3c-1.443-1.84-5.006-.012-6.816.23s-1.682-2.043-1.682-2.043a119.42,119.42,0,0,0,3.276-15.525c1.6-10.191-3.118-10.371-3.118-10.371" transform="translate(-206.502 -61.967)" fill="#f5f5f5"/>
            <path id="Trazado_238122" data-name="Trazado 238122" d="M407.159,128.825s0,.074-.022.215-.05.36-.087.628c-.083.562-.2,1.374-.359,2.413-.314,2.1-.79,5.124-1.394,8.864-1.2,7.48-2.956,17.8-4.928,29.188s-3.75,21.708-5,29.181l-1.467,8.851c-.173,1.036-.308,1.845-.4,2.406-.047.267-.083.474-.11.625s-.046.212-.046.212,0-.073.022-.215l.088-.628.358-2.413c.314-2.1.79-5.124,1.394-8.863,1.2-7.48,2.956-17.8,4.929-29.193s3.749-21.7,4.995-29.176l1.467-8.852c.173-1.037.308-1.846.4-2.406.047-.267.083-.475.11-.625s.046-.212.046-.212" transform="translate(-227.561 -74.528)" fill="#e1e1e1"/>
            <path id="Trazado_238123" data-name="Trazado 238123" d="M399.009,173.1a2.026,2.026,0,0,1,.3.392c.185.26.44.644.751,1.121.619.956,1.44,2.3,2.318,3.8l2.23,3.846.681,1.162a2.049,2.049,0,0,1,.231.439,2.033,2.033,0,0,1-.308-.389c-.184-.261-.44-.645-.745-1.126-.61-.962-1.413-2.315-2.29-3.814l-2.257-3.829-.687-1.159a2.041,2.041,0,0,1-.228-.44" transform="translate(-230.834 -100.141)" fill="#e1e1e1"/>
            <path id="Trazado_238124" data-name="Trazado 238124" d="M415.983,187.6c-.035-.054,2.658-1.869,6.014-4.055s6.106-3.913,6.141-3.86-2.657,1.869-6.015,4.055-6.106,3.913-6.141,3.86" transform="translate(-240.654 -103.949)" fill="#e1e1e1"/>
            <path id="Trazado_238125" data-name="Trazado 238125" d="M406.924,233.852a2.133,2.133,0,0,1,.476-.174l1.316-.4c1.11-.339,2.642-.813,4.313-1.4s3.169-1.157,4.249-1.583l1.281-.5a2.16,2.16,0,0,1,.481-.16,2.125,2.125,0,0,1-.445.243c-.293.142-.72.339-1.254.57-1.066.465-2.558,1.068-4.236,1.65s-3.221,1.036-4.345,1.336c-.563.148-1.02.261-1.337.33a2.11,2.11,0,0,1-.5.087" transform="translate(-235.414 -132.847)" fill="#e1e1e1"/>
            <path id="Trazado_238126" data-name="Trazado 238126" d="M386.523,220.08a1.823,1.823,0,0,1,.372.285c.228.195.555.482.954.841.8.718,1.891,1.721,3.088,2.839s2.272,2.141,3.042,2.89c.385.374.694.68.9.895a1.834,1.834,0,0,1,.31.351,1.793,1.793,0,0,1-.371-.285c-.229-.195-.555-.482-.954-.841-.8-.718-1.891-1.721-3.089-2.84s-2.271-2.141-3.041-2.889c-.385-.374-.694-.68-.9-.895a1.822,1.822,0,0,1-.31-.352" transform="translate(-223.611 -127.32)" fill="#e1e1e1"/>
            <path id="Trazado_238127" data-name="Trazado 238127" d="M373.907,255.419a2.949,2.949,0,0,1,.471.37l1.227,1.074c1.028.914,2.438,2.189,3.986,3.608s2.94,2.714,3.94,3.659l1.176,1.128a2.985,2.985,0,0,1,.41.437,2.949,2.949,0,0,1-.471-.37l-1.226-1.074c-1.028-.915-2.439-2.19-3.987-3.609s-2.94-2.713-3.94-3.658l-1.176-1.129a2.954,2.954,0,0,1-.41-.437" transform="translate(-216.313 -147.765)" fill="#e1e1e1"/>
            <path id="Trazado_238128" data-name="Trazado 238128" d="M400.033,271.125a3.4,3.4,0,0,1,.6-.235l1.65-.568c1.393-.48,3.315-1.15,5.415-1.948s3.987-1.564,5.347-2.129l1.613-.667a3.376,3.376,0,0,1,.6-.22,3.441,3.441,0,0,1-.566.3c-.37.181-.911.435-1.584.735-1.346.6-3.224,1.4-5.33,2.2s-4.039,1.446-5.446,1.887c-.7.219-1.276.39-1.675.5a3.423,3.423,0,0,1-.624.148" transform="translate(-231.427 -153.514)" fill="#e1e1e1"/>
            <path id="Trazado_238129" data-name="Trazado 238129" d="M32.959,230.106c9.73-5.551,12.891-17.22,13.506-27.913.1-1.785.47-3.643-.233-5.282s-2.581-2.887-4.243-2.283c-1.379.5-2.1,1.985-2.951,3.189a10.452,10.452,0,0,1-4.538,3.6,3.982,3.982,0,0,1-3.684,0c-1.457-.988-1.444-3.125-1.271-4.894l.969-9.89a16.562,16.562,0,0,0-.053-5.305,5.512,5.512,0,0,0-3.11-4.028,3.344,3.344,0,0,0-4.326,1.854,16.4,16.4,0,0,0-.252,2.2,1.869,1.869,0,0,1-1.25,1.652,2.149,2.149,0,0,1-1.869-.99,23.642,23.642,0,0,1-3.64-6.765,32.811,32.811,0,0,0-3.337-6.943,9.613,9.613,0,0,0-6.151-4.231,5.754,5.754,0,0,0-6.234,3.371c-.871,2.436.353,5.1,1.752,7.265a39.661,39.661,0,0,0,7.507,8.594,3.263,3.263,0,0,1,1.24,1.605c.276,1.215-.949,2.284-2.15,2.566a20.534,20.534,0,0,1-4.173.086,4,4,0,0,0-3.587,1.764c-.891,1.742.448,3.777,1.823,5.155a33.974,33.974,0,0,0,9.486,6.7,11.469,11.469,0,0,1,3.556,2.15,3.289,3.289,0,0,1,.705,3.848,3.349,3.349,0,0,1-3.754,1.061A23.7,23.7,0,0,1,8.95,206.4c-2.348-1.141-5.5-1.261-7.255.7A5.624,5.624,0,0,0,.646,212a12.962,12.962,0,0,0,2.282,4.619,34.171,34.171,0,0,0,13.594,11.543c5.462,2.473,10.642,3.481,16.436,1.945" transform="translate(0 -94.885)" fill="#f5f5f5"/>
            <path id="Trazado_238130" data-name="Trazado 238130" d="M36.59,239.725a78.007,78.007,0,0,0-1.555-14.851,159.149,159.149,0,0,0-4.731-17.65l-1.477-4.563c-.488-1.5-.973-2.981-1.536-4.4a79.538,79.538,0,0,0-3.706-7.987c-1.3-2.484-2.627-4.793-3.882-6.943s-2.473-4.129-3.655-5.886a63.076,63.076,0,0,0-6.19-7.872c-.8-.869-1.444-1.522-1.886-1.959l-.506-.494a1.337,1.337,0,0,0-.18-.16,1.272,1.272,0,0,0,.156.184l.483.517c.426.452,1.054,1.119,1.839,2a66.745,66.745,0,0,1,6.091,7.915c1.167,1.761,2.365,3.744,3.613,5.895s2.559,4.466,3.85,6.946a80.421,80.421,0,0,1,3.674,7.964c.558,1.415,1.036,2.887,1.525,4.387l1.476,4.561a163.216,163.216,0,0,1,4.747,17.609,79.377,79.377,0,0,1,1.619,14.792" transform="translate(-4.215 -96.588)" fill="#e1e1e1"/>
            <path id="Trazado_238131" data-name="Trazado 238131" d="M54.522,214.773a3.634,3.634,0,0,0,.242-.739c.138-.48.314-1.182.519-2.052.412-1.739.9-4.16,1.425-6.831s1.046-5.08,1.483-6.808c.216-.864.4-1.563.53-2.044a3.535,3.535,0,0,0,.169-.759,3.537,3.537,0,0,0-.29.721c-.169.47-.386,1.161-.631,2.021-.5,1.719-1.054,4.128-1.581,6.8-.513,2.637-.976,5.024-1.331,6.846-.165.823-.3,1.516-.417,2.072a3.534,3.534,0,0,0-.118.769" transform="translate(-31.539 -113.123)" fill="#e1e1e1"/>
            <path id="Trazado_238132" data-name="Trazado 238132" d="M1.469,226.126a4.957,4.957,0,0,0,.9.192c.579.106,1.418.254,2.448.47,2.063.416,4.893,1.09,7.983,1.97s5.851,1.808,7.829,2.532c.993.355,1.787.664,2.338.874a4.9,4.9,0,0,0,.868.3,4.855,4.855,0,0,0-.819-.419c-.537-.247-1.321-.59-2.305-.974-1.963-.782-4.723-1.741-7.821-2.631a80.6,80.6,0,0,0-8.03-1.881c-1.039-.188-1.886-.3-2.473-.367a4.871,4.871,0,0,0-.916-.065" transform="translate(-0.85 -130.813)" fill="#e1e1e1"/>
            <path id="Trazado_238133" data-name="Trazado 238133" d="M72.547,264.869a1.167,1.167,0,0,0,.181-.263l.465-.788c.4-.686.954-1.693,1.621-2.946,1.337-2.506,3.074-6.026,4.938-9.936s3.568-7.443,4.85-9.973l1.527-2.992.411-.817a1.185,1.185,0,0,0,.124-.3,1.206,1.206,0,0,0-.182.264l-.464.787c-.4.686-.954,1.693-1.621,2.947-1.337,2.506-3.074,6.026-4.939,9.937s-3.567,7.441-4.85,9.972c-.628,1.229-1.144,2.241-1.527,2.992l-.411.817a1.172,1.172,0,0,0-.124.3" transform="translate(-41.969 -137.027)" fill="#e1e1e1"/>
            <path id="Trazado_238134" data-name="Trazado 238134" d="M2.93,273.621a1.224,1.224,0,0,0,.289.151l.851.375,3.142,1.346c2.652,1.137,6.3,2.75,10.324,4.537s7.691,3.369,10.368,4.451c1.338.542,2.425.969,3.183,1.249l.874.317a1.166,1.166,0,0,0,.313.089,1.254,1.254,0,0,0-.289-.152l-.851-.374-3.141-1.346c-2.653-1.137-6.3-2.75-10.325-4.538s-7.689-3.368-10.366-4.45c-1.339-.542-2.426-.969-3.183-1.249l-.874-.317a1.2,1.2,0,0,0-.313-.089" transform="translate(-1.695 -158.294)" fill="#e1e1e1"/>
            <path id="Trazado_238135" data-name="Trazado 238135" d="M78.144,19.184V53.97H28.181l-1.8-34.544Z" transform="translate(-15.262 -11.098)" fill="#e1e1e1"/>
            <rect id="Rectángulo_101712" data-name="Rectángulo 101712" width="49.963" height="34.47" transform="translate(11.119 8.329)" fill="#fff"/>
            <path id="Trazado_238136" data-name="Trazado 238136" d="M76.255,54.143H25.818V19.2H76.255Zm-49.963-.474H75.781v-34H26.292Z" transform="translate(-14.936 -11.107)" fill="#e1e1e1"/>
            <rect id="Rectángulo_101713" data-name="Rectángulo 101713" width="39.14" height="25.905" transform="translate(16.53 12.612)" fill="#fff"/>
            <path id="Trazado_238137" data-name="Trazado 238137" d="M78.191,29.766s-.067,0-.193.007l-.556.007-2.15.013-8.065.03L39.05,29.88l.113-.113c0,7.915.007,16.684.01,25.9v0l-.123-.123,39.14.025-.1.1c.021-7.883.039-14.347.051-18.848.011-2.249.019-4.007.025-5.212,0-.6.008-1.052.011-1.369s.011-.475.011-.475.007.151.011.455.006.764.011,1.351c.006,1.2.014,2.95.025,5.19.012,4.516.03,11,.051,18.909v.1h-.1l-39.14.025h-.123v-.127c0-9.217.007-17.987.01-25.9v-.113h.113l28.25.056,8.04.031,2.127.013.544.007c.121,0,.18.007.18.007" transform="translate(-22.52 -17.155)" fill="#e1e1e1"/>
            <path id="Trazado_238138" data-name="Trazado 238138" d="M26.378,19.528a4.212,4.212,0,0,1,.859.556c.511.369,1.207.893,1.959,1.494s1.413,1.17,1.878,1.6a4.068,4.068,0,0,1,.716.733c-.046.052-1.248-.939-2.748-2.136a27.289,27.289,0,0,1-2.663-2.243" transform="translate(-15.26 -11.296)" fill="#e1e1e1"/>
            <path id="Trazado_238139" data-name="Trazado 238139" d="M137.493,19.758A24.286,24.286,0,0,1,134.865,22a24.22,24.22,0,0,1-2.783,2.045,24.251,24.251,0,0,1,2.63-2.238,24.174,24.174,0,0,1,2.782-2.045" transform="translate(-76.411 -11.429)" fill="#e1e1e1"/>
            <path id="Trazado_238140" data-name="Trazado 238140" d="M137.183,95.36l-5.571-4.515" transform="translate(-76.14 -52.556)" fill="#fff"/>
            <path id="Trazado_238141" data-name="Trazado 238141" d="M131.61,90.841A26.17,26.17,0,0,1,134.474,93a26.2,26.2,0,0,1,2.708,2.354,26.078,26.078,0,0,1-2.863-2.162,26.1,26.1,0,0,1-2.708-2.353" transform="translate(-76.139 -52.552)" fill="#e1e1e1"/>
            <path id="Trazado_238142" data-name="Trazado 238142" d="M26.378,95.727a23.709,23.709,0,0,1,2.6-2.215,23.747,23.747,0,0,1,2.755-2.021,23.72,23.72,0,0,1-2.6,2.215,23.69,23.69,0,0,1-2.754,2.021" transform="translate(-15.26 -52.928)" fill="#e1e1e1"/>
            <rect id="Rectángulo_101714" data-name="Rectángulo 101714" width="24.628" height="8.674" transform="translate(24.477 20.682)" fill="#e1e1e1"/>
            <rect id="Rectángulo_101715" data-name="Rectángulo 101715" width="26.714" height="38.721" transform="translate(151.539 0.001)" fill="#e1e1e1"/>
            <rect id="Rectángulo_101716" data-name="Rectángulo 101716" width="26.714" height="38.721" transform="translate(150.201 0.001)" fill="#f5f5f5"/>
            <rect id="Rectángulo_101717" data-name="Rectángulo 101717" width="20.076" height="30.333" transform="translate(153.52 4.194)" fill="#fff"/>
            <path id="Trazado_238143" data-name="Trazado 238143" d="M384.216,40.186s0-.052,0-.148,0-.243,0-.43c0-.381,0-.939-.008-1.664,0-1.454-.01-3.572-.018-6.248-.008-5.349-.019-12.923-.033-21.843l.067.066-20.074.006h0l.073-.072c-.005,11.443-.011,21.994-.015,30.333l-.058-.058,14.613.03,4.037.015,1.06.006c.24,0,.366.007.366.007s-.118,0-.354.006l-1.049.006-4.024.015-14.649.03h-.058v-.058c0-8.34-.009-18.89-.015-30.333V9.78h.075l20.074.005h.067v.067c-.013,8.937-.025,16.527-.033,21.886-.008,2.67-.013,4.783-.018,6.233,0,.719-.006,1.273-.008,1.651,0,.184,0,.324,0,.422s0,.141,0,.141" transform="translate(-210.62 -5.658)" fill="#e1e1e1"/>
            <path id="Trazado_238144" data-name="Trazado 238144" d="M414.931,0a4.587,4.587,0,0,1-.476.692c-.31.415-.751.98-1.253,1.59s-.973,1.151-1.32,1.535a4.656,4.656,0,0,1-.588.6,5.03,5.03,0,0,1,.51-.667l1.286-1.561L414.374.629A4.954,4.954,0,0,1,414.931,0" transform="translate(-237.941 0)" fill="#e1e1e1"/>
            <path id="Trazado_238145" data-name="Trazado 238145" d="M412.115,81.689a24.866,24.866,0,0,0,3.5,4.379" transform="translate(-238.417 -47.259)" fill="#fff"/>
            <path id="Trazado_238146" data-name="Trazado 238146" d="M415.615,86.068a3.974,3.974,0,0,1-.61-.556,19.562,19.562,0,0,1-2.484-3.106,3.991,3.991,0,0,1-.408-.718,5.523,5.523,0,0,1,.493.66c.294.413.708.979,1.191,1.584s.944,1.132,1.282,1.51a5.51,5.51,0,0,1,.536.626" transform="translate(-238.415 -47.258)" fill="#e1e1e1"/>
            <path id="Trazado_238147" data-name="Trazado 238147" d="M356.356,85.872l3.5-4.317" transform="translate(-206.159 -47.181)" fill="#fff"/>
            <path id="Trazado_238148" data-name="Trazado 238148" d="M359.854,81.554a26.636,26.636,0,0,1-1.693,2.2,26.614,26.614,0,0,1-1.806,2.113,26.611,26.611,0,0,1,1.693-2.2,26.711,26.711,0,0,1,1.806-2.113" transform="translate(-206.158 -47.181)" fill="#e1e1e1"/>
            <path id="Trazado_238149" data-name="Trazado 238149" d="M356.364,0a24.109,24.109,0,0,1,1.7,2.03,24.082,24.082,0,0,1,1.585,2.12,24.1,24.1,0,0,1-1.7-2.03A24.156,24.156,0,0,1,356.364,0" transform="translate(-206.163 0)" fill="#e1e1e1"/>
            <rect id="Rectángulo_101718" data-name="Rectángulo 101718" width="6.722" height="19.086" transform="translate(160.619 10.353)" fill="#e1e1e1"/>
            <path id="Trazado_238150" data-name="Trazado 238150" d="M184.559,374.372c0,.061-41.057.11-91.691.11-50.652,0-91.7-.049-91.7-.11s41.048-.11,91.7-.11c50.634,0,91.691.049,91.691.11" transform="translate(-0.676 -216.518)" fill="#1a2e35"/>
            <path id="Trazado_238151" data-name="Trazado 238151" d="M303.236,201.482a7.282,7.282,0,0,1-2.173,7.121c-1.284,1.137-2.959,1.8-4.13,3.048a6.406,6.406,0,0,0-1.282,6.186,8.168,8.168,0,0,0,4.31,4.78,9.565,9.565,0,0,0,8.68-.3c3.26-1.842,5.157-5.536,5.638-9.249a28.644,28.644,0,0,0-1.255-11.087" transform="translate(-170.867 -116.561)" fill="#1a2e35"/>
            <path id="Trazado_238152" data-name="Trazado 238152" d="M411.547,346.921c3.374-.552,6.534.478,9.872,1.217a5.948,5.948,0,0,0,2.733.145,3.921,3.921,0,0,0,2.7-3.253,5.334,5.334,0,0,0-.853-3.695,3.519,3.519,0,0,0-1.154-1.147,4.016,4.016,0,0,0-1.613-.438,11.529,11.529,0,0,0-5.945,1.121,17.659,17.659,0,0,0-4.932,3.576c-.706.707-.494,1.524-.807,2.472" transform="translate(-238.088 -196.527)" fill="#1a2e35"/>
            <path id="Trazado_238153" data-name="Trazado 238153" d="M248.822,206.625a26.125,26.125,0,0,1,.2-9.677,12.749,12.749,0,0,1,1.666-4.406,2.839,2.839,0,0,1,1.237-1.161,2.161,2.161,0,0,1,2.2.518,3.694,3.694,0,0,1,1.041,2.83,9.11,9.11,0,0,1-.751,3,34.772,34.772,0,0,1-5.586,8.893" transform="translate(-143.741 -110.648)" fill="#1a2e35"/>
            <path id="Trazado_238154" data-name="Trazado 238154" d="M389.514,256.616c.768.544,17.725,37.043,17.725,37.043a7.167,7.167,0,0,0-4.319-.426l-.919.245a15.268,15.268,0,0,0-4.617,2.105l-4.832,3.269a1.373,1.373,0,0,1-.689-1.065l-.013-.14L378.714,275.1Z" transform="translate(-219.094 -148.458)" fill="#5038a1"/>
            <path id="Trazado_238155" data-name="Trazado 238155" d="M242.347,118.8l4.516,25.682c1.456,3.455,18.414,24.4,18.414,24.4l-5.609,18.014L237.4,156.439a11.645,11.645,0,0,1-3.137-8.17l.87-27.438Z" transform="translate(-135.524 -68.728)" fill="#ffc09d"/>
            <path id="Trazado_238156" data-name="Trazado 238156" d="M301.308,228.062l11.629.879,10.141,1.573s17.784,4.675,17.784,6.622c0,.648-4.858,16.113-7.566,25.378a64.421,64.421,0,0,0-1.637,6.843l9.2,20.435H297.108V271.054s-2.937-24.583-2.431-27.94,6.632-15.052,6.632-15.052" transform="translate(-170.443 -131.939)" fill="#5038a1"/>
            <path id="Trazado_238157" data-name="Trazado 238157" d="M240.39,82.293a51.363,51.363,0,0,1,.8-7.8c.066-.365.215-.809.582-.857.455-.06.686.525.746.98a27.556,27.556,0,0,1-.382,9.318" transform="translate(-139.071 -42.598)" fill="#ff9b6c"/>
            <path id="Trazado_238158" data-name="Trazado 238158" d="M250.723,195.673c4.989-4.46,5.159-12.186,4.732-18.333a2.032,2.032,0,0,1,.2-1.321c.475-.68,1.635-.428,2.1.26a3.9,3.9,0,0,1,.4,2.41c.255-.7,1.353-.7,1.867-.156a3.347,3.347,0,0,1,.661,2.1q.083,1.03.166,2.059l14.576,13.892a.923.923,0,0,1,1.471-.534,6.145,6.145,0,0,1,1.762,2.265l-10.272,22.421-19.063-23.194a7.722,7.722,0,0,1,1.411-1.865" transform="translate(-144.232 -101.599)" fill="#5038a1"/>
            <path id="Trazado_238159" data-name="Trazado 238159" d="M294.367,260.007a19.44,19.44,0,0,0-3.345,6.528,11.877,11.877,0,0,0,.217,7.257,10.057,10.057,0,0,0,7.722,6.236" transform="translate(-168.095 -150.419)" fill="#5038a1"/>
            <path id="Trazado_238160" data-name="Trazado 238160" d="M410.787,348.952l-.554,7.459h10.8l2.533-13.173a13.607,13.607,0,0,0-9.134,2.863Z" transform="translate(-237.328 -198.558)" fill="#ffc09d"/>
            <path id="Trazado_238161" data-name="Trazado 238161" d="M264.7,197.677a3.567,3.567,0,0,1,.237-.592c.169-.372.4-.919.653-1.6s.53-1.509.787-2.438a26.157,26.157,0,0,0,.9-6.194c.019-.964,0-1.833-.058-2.561s-.113-1.317-.169-1.722a3.6,3.6,0,0,1-.058-.634,3.507,3.507,0,0,1,.143.621c.082.4.167.991.239,1.722a23.483,23.483,0,0,1,.106,2.578,24.186,24.186,0,0,1-.91,6.243,23.534,23.534,0,0,1-.837,2.441c-.278.679-.527,1.22-.721,1.582a3.521,3.521,0,0,1-.314.555" transform="translate(-153.135 -105.253)" fill="#1a2e35"/>
            <path id="Trazado_238162" data-name="Trazado 238162" d="M272.236,199.537a9.949,9.949,0,0,1,.451-1.07,15.843,15.843,0,0,0,1.247-5.4,9.806,9.806,0,0,1,.064-1.159,4.463,4.463,0,0,1,.091,1.163,12.735,12.735,0,0,1-1.261,5.457,4.427,4.427,0,0,1-.592,1.006" transform="translate(-157.492 -111.024)" fill="#1a2e35"/>
            <path id="Trazado_238163" data-name="Trazado 238163" d="M311.633,230.249c-.033-.019.142-.293.244-.789a4.2,4.2,0,0,0-.109-1.952,14.427,14.427,0,0,0-.733-1.864,2.959,2.959,0,0,1-.291-.79,3.541,3.541,0,0,1,.431.722,9.639,9.639,0,0,1,.8,1.873,3.834,3.834,0,0,1,.048,2.048,1.493,1.493,0,0,1-.395.752" transform="translate(-179.769 -130.082)" fill="#1a2e35"/>
            <path id="Trazado_238164" data-name="Trazado 238164" d="M297.263,284.046a.744.744,0,0,1-.183-.1l-.5-.329c-.429-.293-1.049-.72-1.781-1.3a15.257,15.257,0,0,1-2.366-2.263,9.074,9.074,0,0,1-1.831-3.562,11.219,11.219,0,0,1-.242-4,15.682,15.682,0,0,1,.721-3.193,21.765,21.765,0,0,1,.8-2.052c.108-.237.194-.419.257-.541a.765.765,0,0,1,.1-.182,6.65,6.65,0,0,1-.283.756c-.188.483-.461,1.182-.735,2.066a16.511,16.511,0,0,0-.668,3.167,11.3,11.3,0,0,0,.253,3.927,9.041,9.041,0,0,0,1.775,3.489,16.038,16.038,0,0,0,2.306,2.27c.715.588,1.319,1.033,1.733,1.347l.475.363a.766.766,0,0,1,.158.138" transform="translate(-167.935 -154.189)" fill="#1a2e35"/>
            <path id="Trazado_238165" data-name="Trazado 238165" d="M343.488,305.338a.682.682,0,0,1-.186.067c-.125.033-.306.1-.547.142a10.675,10.675,0,0,1-2.066.248,11.594,11.594,0,0,1-10.987-6.95,10.715,10.715,0,0,1-.661-1.973c-.061-.238-.082-.428-.106-.555a.66.66,0,0,1-.019-.2,6.792,6.792,0,0,1,.208.731,12.474,12.474,0,0,0,.719,1.93,11.76,11.76,0,0,0,10.844,6.859,12.367,12.367,0,0,0,2.052-.177,6.813,6.813,0,0,1,.749-.125" transform="translate(-190.283 -171.311)" fill="#1a2e35"/>
            <path id="Trazado_238166" data-name="Trazado 238166" d="M379.4,323.217c-.059-.015.5-2.345,1.245-5.2s1.4-5.164,1.457-5.148-.5,2.345-1.245,5.2-1.4,5.163-1.457,5.148" transform="translate(-219.488 -180.999)" fill="#1a2e35"/>
            <path id="Trazado_238167" data-name="Trazado 238167" d="M383.27,308.549c-.052.031-1.747-2.739-3.784-6.186s-3.648-6.268-3.6-6.3,1.746,2.739,3.784,6.187,3.647,6.267,3.595,6.3" transform="translate(-217.46 -171.279)" fill="#1a2e35"/>
            <path id="Trazado_238168" data-name="Trazado 238168" d="M419.411,341.866c0,.041-.613.093-1.575.336a12.456,12.456,0,0,0-1.65.547,12.257,12.257,0,0,0-3.578,2.262,12.46,12.46,0,0,0-1.2,1.256c-.632.765-.944,1.3-.979,1.278a1.666,1.666,0,0,1,.194-.39,8.236,8.236,0,0,1,.663-.985,10.912,10.912,0,0,1,1.186-1.307,11.431,11.431,0,0,1,3.64-2.3,10.882,10.882,0,0,1,1.689-.51,8.227,8.227,0,0,1,1.175-.176,1.659,1.659,0,0,1,.436-.008" transform="translate(-237.44 -197.771)" fill="#1a2e35"/>
            <path id="Trazado_238169" data-name="Trazado 238169" d="M422.582,335.7c0,.045-.679-.036-1.759.056a11.2,11.2,0,0,0-1.871.328,11.316,11.316,0,0,0-4.131,2.07,11.248,11.248,0,0,0-1.382,1.3c-.721.811-1.06,1.4-1.1,1.376a1.99,1.99,0,0,1,.223-.421,4.128,4.128,0,0,1,.306-.468,6.863,6.863,0,0,1,.452-.588A10.158,10.158,0,0,1,414.7,338a10.775,10.775,0,0,1,4.207-2.108,10.149,10.149,0,0,1,1.91-.287,6.77,6.77,0,0,1,.742-.01,4.113,4.113,0,0,1,.558.035,1.987,1.987,0,0,1,.471.074" transform="translate(-238.547 -194.144)" fill="#1a2e35"/>
            <g id="Grupo_177416" data-name="Grupo 177416" transform="translate(138.633 125.706)" opacity="0.3">
              <g id="Grupo_177415" data-name="Grupo 177415">
                <g id="Grupo_177414" data-name="Grupo 177414" clip-path="url(#clip-path-9)">
                  <path id="Trazado_238170" data-name="Trazado 238170" d="M329.37,298.25c-.994,1.881-.165,4.174.742,6.1a11.106,11.106,0,0,0,2.766,4.048,5.911,5.911,0,0,0,8.578-1.211,13.311,13.311,0,0,1-12.291-8.7" transform="translate(-328.919 -298.25)"/>
                </g>
              </g>
            </g>
            <g id="Grupo_177419" data-name="Grupo 177419" transform="translate(158.076 124.785)" opacity="0.3">
              <g id="Grupo_177418" data-name="Grupo 177418">
                <g id="Grupo_177417" data-name="Grupo 177417" clip-path="url(#clip-path-10)">
                  <path id="Trazado_238171" data-name="Trazado 238171" d="M375.406,296.065c-.755,1.81-.186,4.285.609,6.077s1.633,3.8,1,5.65a2.455,2.455,0,0,0-.247,1.061c.044.364.438.711.764.543a.84.84,0,0,0,.339-.52l1.8-5.409" transform="translate(-375.052 -296.065)"/>
                </g>
              </g>
            </g>
            <path id="Trazado_238172" data-name="Trazado 238172" d="M281.284,230.417a52.038,52.038,0,0,1,1.079-6.674,52.188,52.188,0,0,1-1.079,6.674" transform="translate(-162.722 -129.44)" fill="#fafafa"/>
            <path id="Trazado_238173" data-name="Trazado 238173" d="M265.783,231.566c-.054.036-.78-.977-1.78-2.139s-1.889-2.037-1.845-2.084a14.927,14.927,0,0,1,3.625,4.223" transform="translate(-151.663 -131.522)" fill="#fafafa"/>
            <path id="Trazado_238174" data-name="Trazado 238174" d="M274.4,211.61a3.4,3.4,0,0,1-.476.758c-.32.449-.785,1.054-1.33,1.7s-1.067,1.2-1.458,1.587a3.412,3.412,0,0,1-.671.592c-.045-.044.878-1.043,1.962-2.322s1.922-2.348,1.973-2.311" transform="translate(-156.468 -122.42)" fill="#fafafa"/>
            <path id="Trazado_238175" data-name="Trazado 238175" d="M273.947,196.33c-.061.024-.3-.513-.767-1.046s-.958-.853-.925-.91a2.741,2.741,0,0,1,1.691,1.956" transform="translate(-157.505 -112.446)" fill="#fafafa"/>
            <path id="Trazado_238176" data-name="Trazado 238176" d="M264.1,206.735a5.851,5.851,0,0,1-2.226.353,5.834,5.834,0,0,1,2.226-.353" transform="translate(-151.499 -119.583)" fill="#fafafa"/>
            <path id="Trazado_238177" data-name="Trazado 238177" d="M289.025,212.667a6.93,6.93,0,0,0-.825-3.8,4.049,4.049,0,0,1,.825,3.8" transform="translate(-166.727 -120.83)" fill="#fafafa"/>
            <path id="Trazado_238178" data-name="Trazado 238178" d="M298.258,226.872a9.8,9.8,0,0,0-3.058-3.081,5.321,5.321,0,0,1,3.058,3.081" transform="translate(-170.779 -129.465)" fill="#fafafa"/>
            <path id="Trazado_238179" data-name="Trazado 238179" d="M277.421,253.856a5.029,5.029,0,0,1-3.865-.133c.02-.064.859.2,1.927.234s1.922-.166,1.938-.1" transform="translate(-158.258 -146.779)" fill="#fafafa"/>
            <path id="Trazado_238180" data-name="Trazado 238180" d="M291.977,252.664c-.06-.023.268-.995.542-2.225s.4-2.248.461-2.243a10.15,10.15,0,0,1-1,4.467" transform="translate(-168.911 -143.587)" fill="#fafafa"/>
            <path id="Trazado_238181" data-name="Trazado 238181" d="M307.379,254.268a31.149,31.149,0,0,1-3.518-3.863,31.127,31.127,0,0,1,3.518,3.863" transform="translate(-175.789 -144.864)" fill="#fafafa"/>
            <path id="Trazado_238182" data-name="Trazado 238182" d="M318.082,279.256a15.918,15.918,0,0,1-2.59-2.682,15.87,15.87,0,0,1,2.59,2.682" transform="translate(-182.517 -160.002)" fill="#fafafa"/>
            <path id="Trazado_238183" data-name="Trazado 238183" d="M299.139,285.164a8.513,8.513,0,0,1-3.632,2.109c-.023-.06.84-.434,1.838-1.017s1.753-1.142,1.794-1.092" transform="translate(-170.957 -164.971)" fill="#fafafa"/>
            <path id="Trazado_238184" data-name="Trazado 238184" d="M312.171,300.489c-.064-.016.189-1.123.314-2.511s.089-2.522.154-2.526a10.795,10.795,0,0,1-.469,5.038" transform="translate(-180.592 -170.925)" fill="#fafafa"/>
            <path id="Trazado_238185" data-name="Trazado 238185" d="M338.137,284.348a9.325,9.325,0,0,1-3.17-3.625c.056-.035.636.879,1.512,1.876s1.7,1.7,1.658,1.749" transform="translate(-193.784 -162.404)" fill="#fafafa"/>
            <path id="Trazado_238186" data-name="Trazado 238186" d="M353.564,293.157c-.05-.039.588-.915,1.3-2.04s1.243-2.072,1.3-2.043a13.337,13.337,0,0,1-2.6,4.083" transform="translate(-204.543 -167.235)" fill="#fafafa"/>
            <path id="Trazado_238187" data-name="Trazado 238187" d="M346.141,274.106a21.885,21.885,0,0,1-4.227-1.135,21.865,21.865,0,0,1,4.227,1.135" transform="translate(-197.804 -157.913)" fill="#fafafa"/>
            <path id="Trazado_238188" data-name="Trazado 238188" d="M343.814,310.831a18.191,18.191,0,0,1,.234-3.983,18.182,18.182,0,0,1-.234,3.983" transform="translate(-198.878 -177.518)" fill="#fafafa"/>
            <path id="Trazado_238189" data-name="Trazado 238189" d="M350.844,324.415a9.177,9.177,0,0,0,.568-4.223,5.063,5.063,0,0,1-.568,4.223" transform="translate(-202.967 -185.237)" fill="#fafafa"/>
            <path id="Trazado_238190" data-name="Trazado 238190" d="M332.645,321.345a6.522,6.522,0,0,1,.811-4.22c.061.027-.328.918-.547,2.083s-.2,2.135-.263,2.137" transform="translate(-192.392 -183.463)" fill="#fafafa"/>
            <path id="Trazado_238191" data-name="Trazado 238191" d="M310.869,329.914a134.745,134.745,0,0,1-3.93-3.11,16.064,16.064,0,0,1,3.93,3.11" transform="translate(-177.57 -189.061)" fill="#fafafa"/>
            <path id="Trazado_238192" data-name="Trazado 238192" d="M320.513,314.564a37.195,37.195,0,0,1-5.046,2.678,37.258,37.258,0,0,1,5.046-2.678" transform="translate(-182.503 -181.98)" fill="#fafafa"/>
            <path id="Trazado_238193" data-name="Trazado 238193" d="M332.9,340.335a1.329,1.329,0,0,1-.273.07c-.181.034-.446.1-.794.147a17.035,17.035,0,0,1-2.963.19A18.231,18.231,0,0,1,313,330.83a17.008,17.008,0,0,1-1.13-2.746c-.112-.332-.167-.6-.216-.777a1.369,1.369,0,0,1-.057-.276,1.324,1.324,0,0,1,.1.263c.063.173.131.436.255.763a19.106,19.106,0,0,0,1.186,2.7,18.823,18.823,0,0,0,2.483,3.587,18.5,18.5,0,0,0,13.255,6.241,19.049,19.049,0,0,0,2.947-.119c.348-.032.614-.086.8-.106a1.336,1.336,0,0,1,.281-.026" transform="translate(-180.266 -189.195)" fill="#1a2e35"/>
            <path id="Trazado_238194" data-name="Trazado 238194" d="M332.169,348.444a3.9,3.9,0,0,1,1.358-3.624,6.5,6.5,0,0,0-1.358,3.624" transform="translate(-192.124 -199.484)" fill="#fafafa"/>
            <path id="Trazado_238195" data-name="Trazado 238195" d="M321.555,349.97a4.5,4.5,0,0,0-1.786,2.389,2.585,2.585,0,0,1,1.786-2.389" transform="translate(-184.981 -202.461)" fill="#fafafa"/>
            <path id="Trazado_238196" data-name="Trazado 238196" d="M351.053,365.932a4.319,4.319,0,0,1-3.37-2.1,7.6,7.6,0,0,0,3.37,2.1" transform="translate(-201.139 -210.482)" fill="#fafafa"/>
            <path id="Trazado_238197" data-name="Trazado 238197" d="M357.461,341.117a3.313,3.313,0,0,1-2.291,2.7,5.5,5.5,0,0,0,2.291-2.7" transform="translate(-205.472 -197.343)" fill="#fafafa"/>
            <path id="Trazado_238198" data-name="Trazado 238198" d="M374.591,356.938c-.051-.042.507-.746,1.018-1.717s.79-1.823.853-1.8a6.505,6.505,0,0,1-1.871,3.521" transform="translate(-216.706 -204.459)" fill="#fafafa"/>
            <path id="Trazado_238199" data-name="Trazado 238199" d="M389.234,364.489c.025.062-.743.366-1.514,1s-1.231,1.318-1.287,1.281a4.286,4.286,0,0,1,2.8-2.283" transform="translate(-223.556 -210.86)" fill="#fafafa"/>
            <path id="Trazado_238200" data-name="Trazado 238200" d="M375.156,334.021c-.065.021-.432-1.212-1.208-2.577s-1.63-2.324-1.578-2.37a2.653,2.653,0,0,1,.6.59,10.611,10.611,0,0,1,1.991,3.534,2.65,2.65,0,0,1,.192.822" transform="translate(-215.422 -190.376)" fill="#fafafa"/>
            <path id="Trazado_238201" data-name="Trazado 238201" d="M376.195,311.018a19.674,19.674,0,0,1-4.047.934,19.693,19.693,0,0,1,4.047-.934" transform="translate(-215.295 -179.923)" fill="#fafafa"/>
            <path id="Trazado_238202" data-name="Trazado 238202" d="M369.931,297.883a17.6,17.6,0,0,1-2.407-3.1,17.548,17.548,0,0,1,2.407,3.1" transform="translate(-212.618 -170.539)" fill="#fafafa"/>
            <path id="Trazado_238203" data-name="Trazado 238203" d="M388.9,295.5a9.8,9.8,0,0,1-3.943-.934,260.506,260.506,0,0,1,3.943.934" transform="translate(-222.707 -170.408)" fill="#fafafa"/>
            <path id="Trazado_238204" data-name="Trazado 238204" d="M409.3,291.709a3940.36,3940.36,0,0,0,1.289-3.515,8.071,8.071,0,0,1-1.289,3.515" transform="translate(-236.784 -166.726)" fill="#fafafa"/>
            <path id="Trazado_238205" data-name="Trazado 238205" d="M401.32,314.1a6.332,6.332,0,0,1-3.359-2c.044-.048.708.529,1.634,1.076s1.747.86,1.725.922" transform="translate(-230.227 -180.557)" fill="#fafafa"/>
            <path id="Trazado_238206" data-name="Trazado 238206" d="M415.666,309.427a29.457,29.457,0,0,1,1.14-4.957,29.531,29.531,0,0,1-1.14,4.957" transform="translate(-240.466 -176.142)" fill="#fafafa"/>
            <path id="Trazado_238207" data-name="Trazado 238207" d="M403.689,333.677a25.769,25.769,0,0,1-2.8-3.838,25.774,25.774,0,0,1,2.8,3.838" transform="translate(-231.919 -190.818)" fill="#fafafa"/>
            <path id="Trazado_238208" data-name="Trazado 238208" d="M418.41,326c-.059.027-.444-.734-1.05-1.585s-1.192-1.47-1.147-1.517a6.616,6.616,0,0,1,2.2,3.1" transform="translate(-240.786 -186.803)" fill="#fafafa"/>
            <path id="Trazado_238209" data-name="Trazado 238209" d="M430.741,323.464c-.054.033-.605-.794-1.349-1.764a22.168,22.168,0,0,1-1.349-1.764,11.375,11.375,0,0,1,2.7,3.528" transform="translate(-247.63 -185.088)" fill="#fafafa"/>
            <path id="Trazado_238210" data-name="Trazado 238210" d="M429.154,333.54a3.114,3.114,0,0,0-1.626-2.465c.007-.024.192,0,.457.132a2.34,2.34,0,0,1,1.228,1.861c.019.3-.034.475-.059.473" transform="translate(-247.333 -191.529)" fill="#fafafa"/>
            <path id="Trazado_238211" data-name="Trazado 238211" d="M419.652,347.273c-.032-.008-.022-.113-.055-.262a.782.782,0,0,0-.828-.646c-.153,0-.251.039-.268.01s.063-.113.244-.164a.8.8,0,0,1,1.006.786c0,.187-.074.285-.1.276" transform="translate(-242.111 -200.276)" fill="#fafafa"/>
            <path id="Trazado_238212" data-name="Trazado 238212" d="M312.424,362.908a6.054,6.054,0,0,1-3.473-3.473,10.162,10.162,0,0,0,3.473,3.473" transform="translate(-178.731 -207.94)" fill="#fafafa"/>
            <path id="Trazado_238213" data-name="Trazado 238213" d="M242.714,92.418c-.676-6.409-1.9-12.44-2.236-18.727a1.143,1.143,0,0,0-.3-.867.788.788,0,0,0-1.092.317,2.408,2.408,0,0,0-.213,1.255,29.048,29.048,0,0,1-1.67,9.811c-.725,2.041-1.68,4-2.227,6.1s.475,2.806,1.417,4.756" transform="translate(-135.851 -42.06)" fill="#ffc09d"/>
            <path id="Trazado_238214" data-name="Trazado 238214" d="M188.137,47.187c-.039.046-2.41-1.882-5.294-4.307s-5.192-4.429-5.153-4.475,2.409,1.882,5.295,4.308,5.191,4.428,5.153,4.475" transform="translate(-102.797 -22.218)" fill="#1a2e35"/>
            <path id="Trazado_238215" data-name="Trazado 238215" d="M229.816,29.408c-.061,0-.3-3.743-.532-8.367s-.374-8.375-.313-8.379.3,3.743.532,8.368.373,8.375.313,8.378" transform="translate(-132.456 -7.326)" fill="#1a2e35"/>
            <path id="Trazado_238216" data-name="Trazado 238216" d="M208.583,32.841c-.058.019-.8-2.119-1.651-4.774s-1.5-4.823-1.442-4.842.8,2.118,1.65,4.775,1.5,4.823,1.442,4.841" transform="translate(-118.879 -13.437)" fill="#1a2e35"/>
            <path id="Trazado_238217" data-name="Trazado 238217" d="M187.844,64.577a28.387,28.387,0,0,1-3.252-1.37,28.418,28.418,0,0,1-3.161-1.57,56.687,56.687,0,0,1,6.413,2.94" transform="translate(-104.962 -35.656)" fill="#1a2e35"/>
            <path id="Trazado_238218" data-name="Trazado 238218" d="M168.22,56.8c-.008.06-.358.066-.783.013s-.764-.145-.756-.2.358-.066.783-.013.764.145.756.205" transform="translate(-96.428 -32.72)" fill="#1a2e35"/>
            <path id="Trazado_238219" data-name="Trazado 238219" d="M205.993,14.66c-.061,0-.11-.344-.11-.769s.049-.77.11-.77.11.345.11.77-.049.769-.11.769" transform="translate(-119.108 -7.591)" fill="#1a2e35"/>
            <path id="Trazado_238220" data-name="Trazado 238220" d="M254.221,30.892c.045.04-1.9,2.271-4.342,4.981s-4.46,4.876-4.5,4.835,1.9-2.271,4.342-4.982,4.46-4.875,4.5-4.834" transform="translate(-141.954 -17.871)" fill="#1a2e35"/>
            <path id="Trazado_238221" data-name="Trazado 238221" d="M272.113,23.614c.043.043-.181.336-.5.655s-.612.542-.655.5.181-.336.5-.655.612-.542.655-.5" transform="translate(-156.752 -13.658)" fill="#1a2e35"/>
            <path id="Trazado_238222" data-name="Trazado 238222" d="M270.1,49.22a3.841,3.841,0,0,1-.573.341c-.375.208-.924.5-1.608.84-1.368.69-3.285,1.592-5.445,2.488s-4.153,1.616-5.608,2.1c-.727.241-1.319.427-1.731.545a3.818,3.818,0,0,1-.645.164,3.874,3.874,0,0,1,.619-.246l1.706-.61c1.439-.518,3.419-1.259,5.575-2.153s4.077-1.772,5.461-2.425l1.637-.776a3.869,3.869,0,0,1,.612-.265" transform="translate(-147.23 -28.474)" fill="#1a2e35"/>
            <path id="Trazado_238223" data-name="Trazado 238223" d="M266.073,73.828a5.541,5.541,0,0,1-1.118.37c-.7.193-1.68.421-2.774.609s-2.094.3-2.819.346a5.5,5.5,0,0,1-1.178.021A7.268,7.268,0,0,1,259.346,75c.719-.09,1.71-.223,2.8-.408s2.066-.389,2.774-.543a7.251,7.251,0,0,1,1.155-.219" transform="translate(-149.365 -42.708)" fill="#1a2e35"/>
            <path id="Trazado_238224" data-name="Trazado 238224" d="M286.859,71.227a6.777,6.777,0,0,1-2.428,0,6.777,6.777,0,0,1,2.428,0" transform="translate(-164.549 -41.143)" fill="#1a2e35"/>
            <path id="Trazado_238225" data-name="Trazado 238225" d="M235.394,104.658a5.861,5.861,0,0,1-2.226-5.548,16.509,16.509,0,0,1,1.338-3.594,6.064,6.064,0,0,0,.577-3.734,6.284,6.284,0,0,1-.335-1.427c0-.491.313-1.039.8-1.061a1.209,1.209,0,0,1,.916.553c.819,1.016,1.48,3.986,1.065,6.2" transform="translate(-134.849 -51.658)" fill="#ffc09d"/>
            <path id="Trazado_238226" data-name="Trazado 238226" d="M237.411,95.907c-.021,0,.043-.341.068-.955a11.507,11.507,0,0,0-.217-2.588,9.2,9.2,0,0,0-.5-1.715,3.641,3.641,0,0,0-.472-.856,1.211,1.211,0,0,0-.791-.536.756.756,0,0,0-.7.59,1.774,1.774,0,0,0,.069,1.085,5.828,5.828,0,0,1,.293,1.194,4.765,4.765,0,0,1-.046,1.273c-.293,1.709-1.207,3.094-1.667,4.461a6.006,6.006,0,0,0-.377,2,5.883,5.883,0,0,0,.26,1.755,5.987,5.987,0,0,0,1.266,2.236c.414.454.7.652.681.671a1.034,1.034,0,0,1-.207-.139,4.186,4.186,0,0,1-.536-.474,5.813,5.813,0,0,1-1.352-2.247,5.926,5.926,0,0,1-.294-1.8,6.113,6.113,0,0,1,.367-2.064c.464-1.4,1.363-2.783,1.642-4.43a4.586,4.586,0,0,0,.046-1.215,5.694,5.694,0,0,0-.282-1.157,1.971,1.971,0,0,1-.062-1.212,1.186,1.186,0,0,1,.332-.517.8.8,0,0,1,.582-.208,1.388,1.388,0,0,1,.931.618,3.8,3.8,0,0,1,.488.907,9.1,9.1,0,0,1,.488,1.755,10.577,10.577,0,0,1,.15,2.622,6.038,6.038,0,0,1-.094.709,1.051,1.051,0,0,1-.06.242" transform="translate(-134.728 -51.519)" fill="#ff9b6c"/>
            <path id="Trazado_238227" data-name="Trazado 238227" d="M370.446,176.937a2.914,2.914,0,0,0,2.6,2.249,3.655,3.655,0,0,0,3.174-1.559,4.941,4.941,0,0,0,.787-3.524,4.847,4.847,0,0,0-3.132-4.01,3.486,3.486,0,0,0-4.313,2.14l-1.973,2.755Z" transform="translate(-212.66 -98.317)" fill="#1a2e35"/>
            <path id="Trazado_238228" data-name="Trazado 238228" d="M335.533,155.988a11.477,11.477,0,0,0-10.315-12.853,11.706,11.706,0,0,0-12.473,10.05,119.713,119.713,0,0,0-1.47,12.658c.075,5.89,3.521,8.183,4.918,8.871a7.623,7.623,0,0,0,1.55.386.039.039,0,0,1,.033.046l-1.308,6.761c-.593,4.43,1.88,8.381,6.3,9.026s7.906-2.756,8.583-7.189Z" transform="translate(-180.079 -82.777)" fill="#ffc09d"/>
            <path id="Trazado_238229" data-name="Trazado 238229" d="M326.234,217.252a16.048,16.048,0,0,0,9.04-1.315s-2.261,4.867-9.393,3.137Z" transform="translate(-188.529 -124.924)" fill="#ff9b6c"/>
            <path id="Trazado_238230" data-name="Trazado 238230" d="M311.606,147.1c1.219,1.86,5.087.711,7.424-.567a5.556,5.556,0,0,0,7.584-1.57c1.336,1.7,4.051,1.14,5.041-.779a6.058,6.058,0,0,0-.927-6.237,8.708,8.708,0,0,0-5.313-2.888,12.319,12.319,0,0,0-12.515,5.156,8.246,8.246,0,0,0-1.294,6.886" transform="translate(-180.096 -78.014)" fill="#1a2e35"/>
            <path id="Trazado_238231" data-name="Trazado 238231" d="M326.311,136.66a19.294,19.294,0,0,0-2.825.158,10.293,10.293,0,0,0-5.853,3.149,12.783,12.783,0,0,0-2.812,6.092,16.61,16.61,0,0,0-.144,2.824,2.545,2.545,0,0,1-.159-.756,8.977,8.977,0,0,1,.034-2.107,12.279,12.279,0,0,1,2.793-6.308,10.079,10.079,0,0,1,6.1-3.162,8.789,8.789,0,0,1,2.108-.035,2.451,2.451,0,0,1,.758.145" transform="translate(-181.929 -78.949)" fill="#375a64"/>
            <path id="Trazado_238232" data-name="Trazado 238232" d="M327.487,146.078a1.9,1.9,0,0,1-.093-.663,6.667,6.667,0,0,1,.19-1.818,7.479,7.479,0,0,1,9.392-5.532,6.651,6.651,0,0,1,1.682.716,1.9,1.9,0,0,1,.534.4,13.874,13.874,0,0,0-2.283-.855,7.467,7.467,0,0,0-9.062,5.338,13.936,13.936,0,0,0-.36,2.412" transform="translate(-189.4 -79.711)" fill="#375a64"/>
            <path id="Trazado_238233" data-name="Trazado 238233" d="M353.058,147.076a22.189,22.189,0,0,0-.786,5.043,7.46,7.46,0,0,0,1.515,4.779c1.627,1.962,4.341,2.558,6.845,3.035a19.779,19.779,0,0,0,1.167-10.552,8.727,8.727,0,0,0-2.058-4.74,5.727,5.727,0,0,0-6.952-.83" transform="translate(-203.797 -82.727)" fill="#1a2e35"/>
            <path id="Trazado_238234" data-name="Trazado 238234" d="M353.461,172.038a8.177,8.177,0,0,0-.383,4.627,30.306,30.306,0,0,1,.607,4.664,5.369,5.369,0,0,1-1.745,4.206,7.255,7.255,0,0,0-1.047.831,1.086,1.086,0,0,0-.217,1.232c.234.38.945.372,1.048-.063l-.064.11a.7.7,0,0,0,.592,1.052,3.169,3.169,0,0,0,2.249-1.1,6.9,6.9,0,0,0,1.336-3.4c.649-3.722.523-7.579,1.55-11.214" transform="translate(-202.808 -99.528)" fill="#1a2e35"/>
            <path id="Trazado_238235" data-name="Trazado 238235" d="M318.373,229.778a9.065,9.065,0,0,0,12.109,6.435,18.2,18.2,0,0,0,5.644-4.093,13.225,13.225,0,0,1-12.256,15.368c-2.792.167-5.795-.686-7.55-2.863a8.584,8.584,0,0,1-1.7-5.482,19.955,19.955,0,0,1,1.1-5.729c.5-1.594,1.286-3.381,2.9-3.817" transform="translate(-182.012 -132.827)" fill="#5038a1"/>
            <path id="Trazado_238236" data-name="Trazado 238236" d="M361.2,180.336a6.428,6.428,0,0,1,2.91,4.674,44,44,0,0,1,.241,5.688,8.968,8.968,0,0,0,1.642,5.353c1.274,1.565,3.266,2.306,5.043,3.264a16.79,16.79,0,0,1,8.344,10.009,12.719,12.719,0,0,1-3.114,12.37c-2.934,2.81-7.206,3.8-11.268,3.787-2.9-.008-6.08-.623-7.887-2.889-1.785-2.237-1.7-5.437-1.052-8.223s1.79-5.5,1.835-8.364a14.844,14.844,0,0,1-2.225,4.947c-.3.427-.807.888-1.266.643-.509-.271-.315-1.033-.079-1.559,3.492-7.769,2.276-23.426,4.345-32" transform="translate(-204.843 -102.995)" fill="#1a2e35"/>
            <path id="Trazado_238237" data-name="Trazado 238237" d="M363.053,181.284c.1-.034,4.179-.805,3.656,3.223s-4.46,2.673-4.452,2.556.8-5.78.8-5.78" transform="translate(-209.573 -104.83)" fill="#ffc09d"/>
            <path id="Trazado_238238" data-name="Trazado 238238" d="M365.639,187.618c.019-.011.064.058.175.128a.708.708,0,0,0,.523.079,1.751,1.751,0,0,0,1.006-1.454,2.334,2.334,0,0,0-.066-1.031.817.817,0,0,0-.458-.607.36.36,0,0,0-.439.139c-.069.106-.053.189-.076.193s-.078-.078-.024-.241a.452.452,0,0,1,.191-.232.534.534,0,0,1,.4-.052.994.994,0,0,1,.652.72,2.4,2.4,0,0,1,.1,1.154,1.838,1.838,0,0,1-1.25,1.607.76.76,0,0,1-.628-.19c-.112-.116-.121-.209-.106-.214" transform="translate(-211.527 -106.751)" fill="#ff9b6c"/>
            <path id="Trazado_238239" data-name="Trazado 238239" d="M313.639,238.246a10.41,10.41,0,0,1,.685-1.245,16.925,16.925,0,0,0,1.454-3.073,7.587,7.587,0,0,0,.364-3.336,12.353,12.353,0,0,0-.322-1.37,1.137,1.137,0,0,1,.183.338,4.633,4.633,0,0,1,.293,1.008,7.115,7.115,0,0,1-.309,3.427,14.117,14.117,0,0,1-1.53,3.085c-.236.371-.436.666-.578.866a1.291,1.291,0,0,1-.24.3" transform="translate(-181.446 -132.609)" fill="#1a2e35"/>
            <path id="Trazado_238240" data-name="Trazado 238240" d="M316.774,238.274c-.061.014-.175-.344-.536-.586s-.728-.239-.735-.3c0-.027.089-.075.255-.078a1.1,1.1,0,0,1,1,.7c.054.156.043.261.016.266" transform="translate(-182.525 -137.289)" fill="#fafafa"/>
            <path id="Trazado_238241" data-name="Trazado 238241" d="M321.479,237.425a4.179,4.179,0,0,0-2.341-1.542,2.358,2.358,0,0,1,2.341,1.542" transform="translate(-184.628 -136.445)" fill="#fafafa"/>
            <path id="Trazado_238242" data-name="Trazado 238242" d="M328.557,255.208a13.791,13.791,0,0,1,.7-3.4,13.791,13.791,0,0,1-.7,3.4" transform="translate(-190.067 -145.678)" fill="#fafafa"/>
            <path id="Trazado_238243" data-name="Trazado 238243" d="M344.088,257.947a15.111,15.111,0,0,1,.113-3.632,15.105,15.105,0,0,1-.113,3.632" transform="translate(-199.023 -147.126)" fill="#fafafa"/>
            <path id="Trazado_238244" data-name="Trazado 238244" d="M16.742,307.366l-6.5,28.3,13.745.042,6.35-24.89Z" transform="translate(-5.926 -177.818)" fill="#c78976"/>
            <path id="Trazado_238245" data-name="Trazado 238245" d="M167.427,209.7c-1.306-1.752-2.807-3.434-3.5-5.508-.333-1-.463-2.064-.817-3.058a3.717,3.717,0,0,0-1.985-2.339,2.027,2.027,0,0,0-2.378.706l-4.717,13.8,2.72,10.6a48.4,48.4,0,0,0,8.647-2.479c2.535-1.143,4.233-2.971,4.391-5.747.124-2.182-1.059-4.216-2.365-5.968" transform="translate(-89.112 -114.924)" fill="#1a2e35"/>
            <path id="Trazado_238246" data-name="Trazado 238246" d="M46.6,217.677s-16.4,7.138-18.446,10.358-8.781,26.177-8.781,26.177l17.262,5.079-.284,23.9h42.36l-.35-42.136L73.05,217.762s-9.353-.6-10.218-1.029-16.228.944-16.228.944" transform="translate(-11.21 -125.337)" fill="#8c6df2"/>
            <path id="Trazado_238247" data-name="Trazado 238247" d="M221.892,75.04c.135-.967-.541-2.029-.056-2.875a2.406,2.406,0,0,1,1.313-.888,2.1,2.1,0,0,1,.807-.193.713.713,0,0,1,.663.421.9.9,0,0,1-.322.87,2.479,2.479,0,0,0-.636.734,4.4,4.4,0,0,0,.154,2.075,36.114,36.114,0,0,1,1.394,4.51" transform="translate(-128.234 -41.123)" fill="#c78976"/>
            <path id="Trazado_238248" data-name="Trazado 238248" d="M214,69.335c.06-1.463,1.246-7.227,1.307-8.69a2.915,2.915,0,0,1,1.75,2.377c.186,1.018.09,2.072.266,3.092a11.263,11.263,0,0,0,1.666,3.795,13.535,13.535,0,0,1,1.788,3.747c.322,1.352,1.547,4.854.594,5.867" transform="translate(-123.806 -35.084)" fill="#c78976"/>
            <path id="Trazado_238249" data-name="Trazado 238249" d="M174.8,104.662l-5.86,27.852c-.207,1.258-22.223,20.46-22.223,20.46l4.348,17.37L179.752,142.3a11.646,11.646,0,0,0,3.137-8.17L182.4,108Z" transform="translate(-84.881 -60.549)" fill="#c78976"/>
            <path id="Trazado_238250" data-name="Trazado 238250" d="M210.616,68.25l1,9.686,7.6,3.337s.093-.688.419-4.044c.36-3.7-3.62-5.293-5.393-8.025-.759-1.17-.56-3.32-1.146-5.983-.067-.307-.491-2.168-.719-3.168a2.23,2.23,0,0,0-.91-1.369c-.342-.23-.731-.344-1.016,0s.167,9.568.167,9.568" transform="translate(-121.693 -33.824)" fill="#c78976"/>
            <path id="Trazado_238251" data-name="Trazado 238251" d="M214.45,91.578a3.007,3.007,0,0,0,.728-3.12,7.956,7.956,0,0,0-1.79-2.848,11.355,11.355,0,0,1-1.977-2.738c-.321-.728-.47-1.526-.824-2.239a2.281,2.281,0,0,0-1.793-1.4c.636,4.008.62,6.314,1.921,10.717" transform="translate(-120.792 -45.84)" fill="#c78976"/>
            <path id="Trazado_238252" data-name="Trazado 238252" d="M209.292,83.851c0,.015-.03-.11-.078-.322l-.2-.918-.668-3.153-.025-.118.123-.01a1.984,1.984,0,0,1,1.417.53,4.294,4.294,0,0,1,1.186,2.029,10.651,10.651,0,0,0,.667,1.759,5.423,5.423,0,0,0,.741,1.022,1.494,1.494,0,0,1,.252.4,2.832,2.832,0,0,1-.318-.345,4.629,4.629,0,0,1-.811-1,9.668,9.668,0,0,1-.722-1.768,4.212,4.212,0,0,0-1.138-1.929,1.791,1.791,0,0,0-1.26-.484l.1-.127a32.86,32.86,0,0,1,.741,4.435" transform="translate(-120.516 -45.892)" fill="#8a503f"/>
            <path id="Trazado_238253" data-name="Trazado 238253" d="M217.077,73.313a36.9,36.9,0,0,1-.7-3.955,36.852,36.852,0,0,1-.482-3.987,36.811,36.811,0,0,1,.7,3.955,36.8,36.8,0,0,1,.483,3.987" transform="translate(-124.894 -37.818)" fill="#8a503f"/>
            <path id="Trazado_238254" data-name="Trazado 238254" d="M222.724,77.337c.011,0,.03.046.056.149l-.065.013a22.27,22.27,0,0,1-.765-2.755c-.181-.813-.314-1.556-.393-2.1a3.393,3.393,0,0,1-.077-.883c.062-.01.321,1.311.684,2.931.29,1.309.559,2.413.615,2.785l-.065.014c-.005-.106,0-.157.011-.158" transform="translate(-128.124 -41.518)" fill="#8a503f"/>
            <path id="Trazado_238255" data-name="Trazado 238255" d="M222.126,94.674c-.031.019-.184-.218-.489-.543a4.731,4.731,0,0,0-3.055-1.474,5.38,5.38,0,0,1-.73-.045,1.638,1.638,0,0,1,.736-.11,4.143,4.143,0,0,1,3.166,1.527,1.642,1.642,0,0,1,.372.645" transform="translate(-126.032 -53.514)" fill="#8a503f"/>
            <path id="Trazado_238256" data-name="Trazado 238256" d="M212.255,95.149a5.9,5.9,0,0,1-.5-1.146,25.855,25.855,0,0,1-1.4-5.858,5.89,5.89,0,0,1-.074-1.248,8.69,8.69,0,0,1,.227,1.226c.126.758.318,1.8.59,2.941s.574,2.156.8,2.889a8.713,8.713,0,0,1,.352,1.2" transform="translate(-121.645 -50.272)" fill="#8a503f"/>
            <path id="Trazado_238257" data-name="Trazado 238257" d="M134.519,209.014a2.673,2.673,0,0,1,3.59-.839c3.094-2.516,6.258-4.983,9.352-7.5-1.01,5.043-1.675,12.112.577,16.736,0,0,2.853,5.3,7.4,4.493l-4.05,3.985-6.407,5.922" transform="translate(-77.822 -116.095)" fill="#8c6df2"/>
            <path id="Trazado_238258" data-name="Trazado 238258" d="M132.111,221.535a4.152,4.152,0,0,1,2.011-3.307,7.354,7.354,0,0,0-2.011,3.307" transform="translate(-76.42 -126.247)" fill="#1a2e35"/>
            <path id="Trazado_238259" data-name="Trazado 238259" d="M139.365,224.833a2.653,2.653,0,0,1-.352-.921,5.925,5.925,0,0,1,.815-4.6,2.636,2.636,0,0,1,.647-.744c.029.025-.215.311-.515.826a6.618,6.618,0,0,0-.795,4.484c.1.588.236.94.2.953" transform="translate(-80.332 -126.446)" fill="#1a2e35"/>
            <path id="Trazado_238260" data-name="Trazado 238260" d="M162.741,230.462a3.411,3.411,0,0,1-1.009.405,5.578,5.578,0,0,1-2.952-.089,7.072,7.072,0,0,1-3.551-2.546,11.928,11.928,0,0,1-2.116-4.936,37.12,37.12,0,0,1-.505-9.742c.1-1.247.238-2.25.352-2.939.055-.345.107-.612.144-.792a1.366,1.366,0,0,1,.068-.273,1.34,1.34,0,0,1-.024.28c-.027.2-.062.469-.1.8-.087.692-.2,1.694-.282,2.938a39.192,39.192,0,0,0,.565,9.686,11.881,11.881,0,0,0,2.063,4.858,6.984,6.984,0,0,0,3.435,2.52,5.654,5.654,0,0,0,2.888.154,8.969,8.969,0,0,0,1.029-.322" transform="translate(-88.219 -121.23)" fill="#fafafa"/>
            <path id="Trazado_238261" data-name="Trazado 238261" d="M60.4,297.914c-.061,0-.11-5.991-.11-13.38s.049-13.382.11-13.382.11,5.99.11,13.382-.049,13.38-.11,13.38" transform="translate(-34.878 -156.867)" fill="#1a2e35"/>
            <path id="Trazado_238262" data-name="Trazado 238262" d="M51.466,249.34c-.045,0-.032-.6-.239-1.531a8.505,8.505,0,0,0-.526-1.584A8.77,8.77,0,0,0,48.241,243a8.53,8.53,0,0,0-1.39-.925c-.844-.445-1.427-.591-1.414-.634a1.528,1.528,0,0,1,.412.086,3.114,3.114,0,0,1,.47.153,5.2,5.2,0,0,1,.6.257,7.8,7.8,0,0,1,1.447.906,8.408,8.408,0,0,1,2.518,3.3,7.811,7.811,0,0,1,.493,1.634,5.235,5.235,0,0,1,.089.649,3.111,3.111,0,0,1,.024.493,1.535,1.535,0,0,1-.025.42" transform="translate(-26.287 -139.678)" fill="#1a2e35"/>
            <path id="Trazado_238263" data-name="Trazado 238263" d="M99.082,218.654a2.194,2.194,0,0,1,.07.355,8.251,8.251,0,0,1,.109,1.033,10.761,10.761,0,0,1-.526,3.773,11.045,11.045,0,0,1-3.054,4.729,10.873,10.873,0,0,1-12.983.973,11.047,11.047,0,0,1-3.725-4.222,10.757,10.757,0,0,1-1.082-3.652,8.28,8.28,0,0,1-.046-1.037,2.245,2.245,0,0,1,.016-.361,2.2,2.2,0,0,1,.028.36c0,.236.034.583.086,1.028a11.044,11.044,0,0,0,4.834,7.714,10.74,10.74,0,0,0,12.737-.955,11.017,11.017,0,0,0,3.042-4.627,11.136,11.136,0,0,0,.588-3.721c-.014-.448-.035-.795-.068-1.029a2.231,2.231,0,0,1-.026-.361" transform="translate(-45.032 -126.496)" fill="#1a2e35"/>
            <path id="Trazado_238264" data-name="Trazado 238264" d="M38.436,298.386c-.019.058-3.5-1.041-7.774-2.453s-7.725-2.6-7.706-2.662,3.5,1.041,7.775,2.453,7.724,2.6,7.705,2.662" transform="translate(-13.28 -169.662)" fill="#fafafa"/>
            <path id="Trazado_238265" data-name="Trazado 238265" d="M101.365,291.46c0,.061-9.3.149-20.76.2s-20.762.038-20.762-.022,9.293-.149,20.762-.2,20.76-.038,20.76.023" transform="translate(-34.62 -168.585)" fill="#fafafa"/>
            <path id="Trazado_238266" data-name="Trazado 238266" d="M101.576,300.087c0,.061-9.342.11-20.865.11s-20.867-.049-20.867-.11,9.341-.11,20.867-.11,20.865.049,20.865.11" transform="translate(-34.621 -173.543)" fill="#fafafa"/>
            <path id="Trazado_238267" data-name="Trazado 238267" d="M111.585,310.821a2.2,2.2,0,0,1-.118.34l-.378.962-.279.693c-.108.251-.24.517-.374.805-.277.574-.565,1.242-.966,1.939l-.6,1.106c-.212.384-.465.763-.71,1.167-.479.815-1.071,1.633-1.678,2.5a41.533,41.533,0,0,1-9.826,9.635c-.883.59-1.712,1.166-2.537,1.629-.408.236-.794.482-1.181.687l-1.118.582c-.7.386-1.378.661-1.957.927-.292.129-.56.255-.813.358l-.7.265-.969.359a2.174,2.174,0,0,1-.343.111,2.248,2.248,0,0,1,.327-.153l.952-.4.69-.282c.25-.109.515-.241.8-.374.573-.276,1.24-.559,1.937-.953l1.107-.592c.384-.207.765-.456,1.169-.7.817-.467,1.639-1.047,2.515-1.638a42.6,42.6,0,0,0,9.779-9.589c.608-.864,1.2-1.675,1.687-2.482.247-.4.5-.776.718-1.156l.614-1.1c.407-.689.7-1.35.991-1.917.139-.286.276-.548.39-.8l.3-.684.416-.944a2.243,2.243,0,0,1,.159-.324" transform="translate(-50.354 -179.816)" fill="#1a2e35"/>
            <g id="Grupo_177422" data-name="Grupo 177422" transform="translate(38.607 134.671)" opacity="0.3">
              <g id="Grupo_177421" data-name="Grupo 177421">
                <g id="Grupo_177420" data-name="Grupo 177420" clip-path="url(#clip-path-11)">
                  <path id="Trazado_238268" data-name="Trazado 238268" d="M112.51,319.519a23.4,23.4,0,0,1-9.961,7.557c-1.991.77-4.079,1.295-6.01,2.208a9.1,9.1,0,0,0-4.614,4.245c-.67,1.508-.344,3.78,1.27,4.121a3.4,3.4,0,0,0,1.833-.282c8.24-2.987,13.654-10.521,17.481-17.849" transform="translate(-91.598 -319.519)"/>
                </g>
              </g>
            </g>
            <path id="Trazado_238269" data-name="Trazado 238269" d="M61.032,141.558c-1.779,1.4-1.9,4-1.81,6.264s.115,4.829-1.522,6.389c-1.35,1.286-3.709,1.763-4.1,3.586a2.119,2.119,0,0,0,3.407,2.088,3.667,3.667,0,0,0,.9,4.2,2.518,2.518,0,0,0,3.811-.965,1.865,1.865,0,1,0,3.627.842" transform="translate(-30.986 -81.894)" fill="#1a2e35"/>
            <path id="Trazado_238270" data-name="Trazado 238270" d="M114.451,151.956a2.245,2.245,0,1,0,4.219-1.529c-.35-.874-1.245-1.536-1.289-2.477-.052-1.139,1.142-1.891,2.193-2.336s2.281-1.029,2.447-2.158c.16-1.089-.777-1.988-1.562-2.76s-1.538-1.942-.985-2.894c.283-.487.835-.749,1.2-1.174a2.472,2.472,0,0,0-.454-3.334,4.506,4.506,0,0,0-3.534-.827,33.771,33.771,0,0,0-3.624.911,14.907,14.907,0,0,1-11.785-2.126" transform="translate(-58.593 -75.933)" fill="#1a2e35"/>
            <path id="Trazado_238271" data-name="Trazado 238271" d="M73.875,142.926l4.339,25.137a8.09,8.09,0,0,0,16.029-2.1c-.2-2.229-.369-4.074-.369-4.074s6.3-1.618,5.753-8.018c-.263-3.093-1.323-9.419-2.349-15.132a11.964,11.964,0,0,0-12.94-9.786l-.617.06a11.887,11.887,0,0,0-9.847,13.909" transform="translate(-42.622 -74.571)" fill="#c78976"/>
            <path id="Trazado_238272" data-name="Trazado 238272" d="M77.5,139.189l-.032.031a5.053,5.053,0,0,0-1.552,3.434c0,.046,0,.09-.005.131-.072,1.848.154,3.7.064,5.545a8.3,8.3,0,0,1-1.765,5.147c-.5.57-1.448,1.021-1.962.46a1.563,1.563,0,0,1-.309-.813c-.77-4.369-2.353-8.158-2.794-12.762a3.9,3.9,0,0,1,1.3-3.316c.9-.784,2-1.616,3.124-1.213s2.7,2.273,3.617,3.042" transform="translate(-39.992 -78.521)" fill="#1a2e35"/>
            <path id="Trazado_238273" data-name="Trazado 238273" d="M74.438,168.422c-.114-.037-4.519-.871-3.953,3.486s4.823,2.891,4.815,2.764-.861-6.25-.861-6.25" transform="translate(-40.748 -97.385)" fill="#c78976"/>
            <path id="Trazado_238274" data-name="Trazado 238274" d="M75.32,175.272c-.021-.011-.069.063-.19.139a.765.765,0,0,1-.566.085,1.893,1.893,0,0,1-1.088-1.572,2.525,2.525,0,0,1,.071-1.114.885.885,0,0,1,.5-.657.39.39,0,0,1,.475.15c.074.114.058.2.082.209s.084-.085.026-.26a.488.488,0,0,0-.207-.251.581.581,0,0,0-.434-.056,1.077,1.077,0,0,0-.705.779,2.6,2.6,0,0,0-.105,1.248,1.987,1.987,0,0,0,1.351,1.738.82.82,0,0,0,.679-.206c.121-.125.131-.225.115-.231" transform="translate(-42.314 -99.463)" fill="#8a503f"/>
            <path id="Trazado_238275" data-name="Trazado 238275" d="M79.046,129.2c-1.246-1.643,1.457-4.442,3.548-5.332s5.035-.116,7.251.387a11.973,11.973,0,0,0,4.229.615,9.69,9.69,0,0,0,2.7-.976,7.1,7.1,0,0,1,2.742-.824,2.649,2.649,0,0,1,2.442,1.234,1.66,1.66,0,0,1-.887,2.339,2.156,2.156,0,1,1,.96,3.921c.575-.531,1.6.154,1.6.937a2.271,2.271,0,0,1-1.333,1.8,8.218,8.218,0,0,1-5.843.479c-1.949-.451-3.795-1.27-5.731-1.769s-5.188-1.417-7-.572c-1.334.622-2.134,2.381-2.95,2.089a2.684,2.684,0,0,1-1.575-1.83,7.765,7.765,0,0,1-.157-2.5" transform="translate(-45.547 -71.196)" fill="#1a2e35"/>
            <path id="Trazado_238276" data-name="Trazado 238276" d="M80.061,166.931a38.435,38.435,0,0,0,.792,6.883,12.885,12.885,0,0,0,3.139,6.092c2.125,2.161,4.873,4.233,7.864,4.725a13.772,13.772,0,0,0,9.921-2.115,4.75,4.75,0,0,0,1.788-4.476,3.331,3.331,0,0,0,1.9-2.785c.064-1.178-.653-2.653-1.587-2.812.7-.115.9-1.227.638-1.857-.274-.657-1.189-.817-1.889-.682a4.847,4.847,0,0,0-1.883.969,6.736,6.736,0,0,1-1.826,1.088c-2.259.734-4.549-1.258-6.922-1.166-2.146.083-4.055,1.865-6.182,1.566a4.281,4.281,0,0,1-2.866-1.995c-.656-1.005-.37-4.727-.628-5.9" transform="translate(-46.317 -95.147)" fill="#1a2e35"/>
            <g id="Grupo_177425" data-name="Grupo 177425" transform="translate(47.567 81.353)" opacity="0.6">
              <g id="Grupo_177424" data-name="Grupo 177424">
                <g id="Grupo_177423" data-name="Grupo 177423" clip-path="url(#clip-path-12)">
                  <path id="Trazado_238277" data-name="Trazado 238277" d="M116.254,193.48a3.4,3.4,0,0,1-.523-.157,2.79,2.79,0,0,0-2.435.44c-.269.194-.411.351-.435.33s.083-.207.344-.443a2.51,2.51,0,0,1,2.572-.465c.326.129.491.274.477.295" transform="translate(-112.858 -193.017)" fill="#375a64"/>
                </g>
              </g>
            </g>
            <path id="Trazado_238278" data-name="Trazado 238278" d="M102.446,191.3a1.492,1.492,0,0,1,.275.1c.179.067.445.162.8.258a14.161,14.161,0,0,0,3.033.476,13.466,13.466,0,0,0,2.118-.043,11.512,11.512,0,0,0,2.38-.464,9.539,9.539,0,0,0,2.429-1.107,7.331,7.331,0,0,0,2.1-1.913,4.345,4.345,0,0,0,.833-3.159l-.016-.09.078-.033a3.373,3.373,0,0,0,1.317-1.086,3.711,3.711,0,0,0,.424-.707,2.519,2.519,0,0,0,.19-.762,3.02,3.02,0,0,0-1.015-2.551l-.061-.051.05-.061a1.779,1.779,0,0,0,.259-1.734,1.676,1.676,0,0,0-.97-.95,1.863,1.863,0,0,0-.879-.122c-.2.024-.309.061-.312.05a1.057,1.057,0,0,1,.306-.1,1.8,1.8,0,0,1,.916.085,1.76,1.76,0,0,1,1.057.985,1.909,1.909,0,0,1-.252,1.882l-.011-.112a3.176,3.176,0,0,1,1.1,2.692,2.7,2.7,0,0,1-.2.824,3.893,3.893,0,0,1-.443.751,3.563,3.563,0,0,1-1.4,1.159l.063-.124a4.527,4.527,0,0,1-.861,3.336,7.488,7.488,0,0,1-2.167,1.969,9.657,9.657,0,0,1-2.485,1.119,11.572,11.572,0,0,1-2.422.452,14.133,14.133,0,0,1-5.192-.533,6.774,6.774,0,0,1-.789-.3,1.476,1.476,0,0,1-.258-.142" transform="translate(-59.267 -102.534)" fill="#375a64"/>
            <path id="Trazado_238279" data-name="Trazado 238279" d="M56.015,158.846a.665.665,0,0,1-.222-.109,1.27,1.27,0,0,1-.443-.557,1.876,1.876,0,0,1-.088-1.123,2.268,2.268,0,0,1,.838-1.232,5.6,5.6,0,0,1,1.6-.832,10.347,10.347,0,0,0,1.863-.792,3.648,3.648,0,0,0,1.4-1.652,6.01,6.01,0,0,0,.5-2.318c.035-1.65-.346-3.211-.388-4.667a5.988,5.988,0,0,1,.874-3.721,3.5,3.5,0,0,1,2.125-1.444,2.479,2.479,0,0,1,.709-.036,1.03,1.03,0,0,1,.242.049,3.65,3.65,0,0,0-.933.07,3.479,3.479,0,0,0-2.016,1.449,5.9,5.9,0,0,0-.8,3.624c.051,1.43.44,2.99.405,4.682a6.163,6.163,0,0,1-.52,2.4,3.832,3.832,0,0,1-1.495,1.734,10.238,10.238,0,0,1-1.907.791,5.547,5.547,0,0,0-1.566.782,2.157,2.157,0,0,0-.815,1.139,1.818,1.818,0,0,0,.048,1.063,1.417,1.417,0,0,0,.585.7" transform="translate(-31.943 -81.197)" fill="#375a64"/>
            <path id="Trazado_238280" data-name="Trazado 238280" d="M101.919,130.978a.982.982,0,0,1,.193-.09,1.276,1.276,0,0,1,.246-.083,1.8,1.8,0,0,1,.352-.072,2.6,2.6,0,0,1,2.147.772h0l0,0a3.488,3.488,0,0,1,.652,2.612,4.3,4.3,0,0,1-1.728,2.854,6.631,6.631,0,0,1-3.664,1.272,14.667,14.667,0,0,1-4.256-.468,19.3,19.3,0,0,1-6.175-2.734,19.555,19.555,0,0,0-2.532-1.474,6.993,6.993,0,0,0-2.445-.624,7.358,7.358,0,0,0-3.586.666,12.685,12.685,0,0,0-1.181.669,5.09,5.09,0,0,1,1.144-.746,7.245,7.245,0,0,1,3.632-.744,7.076,7.076,0,0,1,2.509.612,19.311,19.311,0,0,1,2.566,1.47,19.384,19.384,0,0,0,6.118,2.692,14.635,14.635,0,0,0,4.191.469,6.468,6.468,0,0,0,3.56-1.215,4.14,4.14,0,0,0,1.683-2.722,3.368,3.368,0,0,0-.588-2.513l0,0a2.566,2.566,0,0,0-2.046-.789,5.023,5.023,0,0,0-.8.178" transform="translate(-46.25 -75.619)" fill="#375a64"/>
            <path id="Trazado_238281" data-name="Trazado 238281" d="M98.976,122.534a2.466,2.466,0,0,1-.2.965,4.085,4.085,0,0,1-1.8,1.966,5.124,5.124,0,0,1-1.758.631,7.346,7.346,0,0,1-2.141.008,28.6,28.6,0,0,1-4.7-1.289,9.576,9.576,0,0,0-4.73-.5,6.223,6.223,0,0,0-3.325,1.937,6.472,6.472,0,0,0-1.347,2.26c-.195.6-.231.948-.257.943a1.1,1.1,0,0,1,.024-.254,4.974,4.974,0,0,1,.152-.715,6.462,6.462,0,0,1,4.711-4.37,9.645,9.645,0,0,1,4.836.488,29.736,29.736,0,0,0,4.659,1.3,7.248,7.248,0,0,0,2.086.012,5.037,5.037,0,0,0,1.71-.586,4.1,4.1,0,0,0,1.8-1.865,5.652,5.652,0,0,0,.277-.931" transform="translate(-45.54 -70.888)" fill="#375a64"/>
            <path id="Trazado_238282" data-name="Trazado 238282" d="M212.842,319.508A4.478,4.478,0,0,1,215.8,321.4a7.911,7.911,0,0,1,1.278,3.34,13.956,13.956,0,0,1-1.087,7.065c-2.339-1.1-3.586-3.823-4.131-5.246-.862-2.249-1.055-6.836.985-7.048" transform="translate(-122.207 -184.842)" fill="#ff4f5b"/>
            <path id="Trazado_238283" data-name="Trazado 238283" d="M229.916,347.614a3.822,3.822,0,0,1-.09-3.837,5.077,5.077,0,0,1,3.113-2.386,2.14,2.14,0,0,1,1.8.128,1.635,1.635,0,0,1,.593,1.547,3.313,3.313,0,0,1-.736,1.556c-1.22,1.574-2.689,2.874-4.677,2.992" transform="translate(-132.686 -197.425)" fill="#ff4f5b"/>
            <path id="Trazado_238284" data-name="Trazado 238284" d="M228.984,358.251a1.786,1.786,0,0,1-.078-.483c-.033-.312-.072-.764-.1-1.324a16.406,16.406,0,0,1,.267-4.385,8.225,8.225,0,0,1,1.993-3.905,5.391,5.391,0,0,1,1.036-.85,1.5,1.5,0,0,1,.438-.22,11.438,11.438,0,0,0-1.338,1.2,8.624,8.624,0,0,0-1.874,3.837,19,19,0,0,0-.338,4.322,14.826,14.826,0,0,1,0,1.814" transform="translate(-132.345 -200.794)" fill="#1a2e35"/>
            <path id="Trazado_238285" data-name="Trazado 238285" d="M216.329,327.766a4.73,4.73,0,0,1,.3.75c.175.488.415,1.2.7,2.08.576,1.762,1.331,4.209,2.1,6.932s1.4,5.206,1.829,7.009c.215.9.381,1.633.487,2.141a4.756,4.756,0,0,1,.14.794,4.732,4.732,0,0,1-.239-.77l-.567-2.12c-.474-1.791-1.135-4.263-1.9-6.984s-1.493-5.173-2.023-6.948l-.623-2.1a4.738,4.738,0,0,1-.2-.781" transform="translate(-125.149 -189.619)" fill="#1a2e35"/>
            <path id="Trazado_238286" data-name="Trazado 238286" d="M211.573,354.434a8.942,8.942,0,0,0-6.39-5.09,1.886,1.886,0,0,0-1.975.488,1.851,1.851,0,0,0,.368,2,7.639,7.639,0,0,0,8,2.8" transform="translate(-117.459 -202.063)" fill="#ff4f5b"/>
            <path id="Trazado_238287" data-name="Trazado 238287" d="M209.98,354.265a1.6,1.6,0,0,1,.466.047,3.757,3.757,0,0,1,.537.115,6.313,6.313,0,0,1,.7.209,9.4,9.4,0,0,1,1.72.8,10.053,10.053,0,0,1,3.32,3.215,9.4,9.4,0,0,1,.857,1.693,6.305,6.305,0,0,1,.232.691,3.715,3.715,0,0,1,.131.533,1.6,1.6,0,0,1,.062.464c-.05.011-.177-.643-.6-1.618a10.489,10.489,0,0,0-.888-1.632,10.609,10.609,0,0,0-3.245-3.141,10.5,10.5,0,0,0-1.659-.835c-.988-.387-1.647-.494-1.637-.544" transform="translate(-121.478 -204.945)" fill="#1a2e35"/>
          </g>
        </g>
      </g>
    </g>
  </g>
</svg>
