<svg xmlns="http://www.w3.org/2000/svg" xmlns:xlink="http://www.w3.org/1999/xlink" width="109" height="109" viewBox="0 0 109 109">
  <defs>
    <clipPath id="clip-path">
      <rect id="Rectángulo_101918" data-name="Rectángulo 101918" width="56.43" height="65.502" transform="translate(0 0)" fill="none"/>
    </clipPath>
  </defs>
  <g id="Grupo_130818" data-name="Grupo 130818" transform="translate(-260.667 -1264)">
    <path id="Trazado_238960" data-name="Trazado 238960" d="M54.5,0A54.5,54.5,0,1,1,0,54.5,54.5,54.5,0,0,1,54.5,0Z" transform="translate(260.667 1264)" fill="#8c6df2"/>
    <g id="Grupo_177882" data-name="Grupo 177882" transform="translate(286.952 1285.75)">
      <g id="Grupo_177881" data-name="Grupo 177881" clip-path="url(#clip-path)">
        <path id="Trazado_238961" data-name="Trazado 238961" d="M13.517,19.137c0-1.357-.055-2.7.018-4.033a11.826,11.826,0,0,1,.449-2.947,7.733,7.733,0,0,1,4.9-4.951,4.69,4.69,0,0,1-.623-4.086A4.395,4.395,0,0,1,19.99.8a4.5,4.5,0,0,1,5.365.17c1.822,1.437,2.1,3.313.934,6.212.561.3,1.119.6,1.688.878a.519.519,0,0,0,.4.034c.586-.29,1.158-.608,1.734-.916-1.2-2.911-.846-4.9,1.12-6.315a4.517,4.517,0,0,1,5.516.217c1.777,1.507,2.059,3.6.794,6.118.126.061.251.124.379.18a7.8,7.8,0,0,1,4.957,7.33c.058,1.465.01,2.934.01,4.368,1.583.388,3.129.692,4.625,1.158a16.7,16.7,0,0,1,3.02,1.34,2.587,2.587,0,0,1,1.386,2.54c-.062,1.981-.017,3.964-.017,5.947,0,.3-.032.543.369.69a6.176,6.176,0,0,1,4.017,5.118,7.064,7.064,0,0,1-1.808,6.451,8.837,8.837,0,0,1-2.214,1.45c-.317.172-.492.3-.533.67a23.683,23.683,0,0,1-46.8,1.831,1.227,1.227,0,0,1-.028-.19,2.931,2.931,0,0,0-1.823-2.879C.788,42.021,0,39.725,0,37.213a6.869,6.869,0,0,1,2.713-5.73,2.386,2.386,0,0,1,.879-.506c.817-.172.955-.652.931-1.41-.058-1.831.024-3.667-.035-5.5A2.66,2.66,0,0,1,5.8,21.611,15.011,15.011,0,0,1,10.845,19.7c.865-.2,1.741-.367,2.672-.562M6.79,26.452c-.015.239-.035.4-.035.568q0,7.32,0,14.641A22.379,22.379,0,0,0,7.6,47.779a21.455,21.455,0,0,0,42.05-6.218c.015-4.817,0-9.634,0-14.45,0-.2-.022-.4-.035-.64-.754.273-1.439.559-2.146.771A57.8,57.8,0,0,1,34.548,29.16a99.158,99.158,0,0,1-16.156-.267,38.642,38.642,0,0,1-11.6-2.441m20.364-3.9H40.6c0-2.69.024-5.332-.007-7.973a5.454,5.454,0,0,0-4.5-5.372,19.44,19.44,0,0,0-3.631-.125A5.381,5.381,0,0,0,27.184,13.9c-.189,2.842-.074,5.7-.09,8.559,0,.017.021.034.06.1m-.6-12.781A8.339,8.339,0,0,0,24.9,9.224a31,31,0,0,0-3.311-.148,5.612,5.612,0,0,0-5.8,5.806c-.009,2.365,0,4.73,0,7.095,0,.186.019.372.031.582h9.007v-.734c0-2.046.044-4.092-.012-6.136a8.671,8.671,0,0,1,1.743-5.913M42.978,21.454c-.046.1-.078.142-.078.18-.008.575-.012,1.15-.015,1.725-.007,1.12-.371,1.489-1.5,1.489q-13.2,0-26.4,0c-1.089,0-1.456-.37-1.466-1.458-.006-.628,0-1.256,0-1.966-1.157.261-2.2.455-3.224.741a22.9,22.9,0,0,0-2.52.9,6.64,6.64,0,0,0-1.026.66c0,.086,0,.172,0,.258a21.834,21.834,0,0,0,2.12.93,44.414,44.414,0,0,0,9.972,1.79,95.807,95.807,0,0,0,23.577-.638,55.038,55.038,0,0,0,5.98-1.535,7.063,7.063,0,0,0,1.411-.82c-2.222-1.405-4.55-1.764-6.828-2.257M22.527,6.787A2.245,2.245,0,1,0,20.3,4.545a2.253,2.253,0,0,0,2.231,2.242m11.29,0a2.245,2.245,0,1,0,.056-4.49A2.222,2.222,0,0,0,31.6,4.546a2.221,2.221,0,0,0,2.215,2.241M51.946,41.481a4.805,4.805,0,0,0,2.212-4.661,4.641,4.641,0,0,0-2.212-3.759ZM4.5,33.028A4.825,4.825,0,0,0,2.235,37.71a4.548,4.548,0,0,0,2.244,3.768c.012-.224.024-.344.024-.464,0-2.607,0-5.215,0-7.986" fill="#fff"/>
        <path id="Trazado_238962" data-name="Trazado 238962" d="M38.569,42.907a4.9,4.9,0,0,1-3.931-1.756,8.954,8.954,0,0,1-1.832-3.4,1.147,1.147,0,0,1,.707-1.55c.661-.187,1.141.162,1.467.881a11.75,11.75,0,0,0,1.382,2.555,2.425,2.425,0,0,0,4-.006,11.183,11.183,0,0,0,1.357-2.5c.343-.77.817-1.128,1.493-.928a1.166,1.166,0,0,1,.675,1.619,8.582,8.582,0,0,1-2.266,3.792,4.534,4.534,0,0,1-3.055,1.292" fill="#fff"/>
        <path id="Trazado_238963" data-name="Trazado 238963" d="M18.354,42.907a4.983,4.983,0,0,1-4.05-1.774,9.034,9.034,0,0,1-1.8-3.344,1.161,1.161,0,0,1,.658-1.578c.674-.218,1.168.136,1.507.9a11.445,11.445,0,0,0,1.352,2.5,2.42,2.42,0,0,0,4,.047,10.654,10.654,0,0,0,1.372-2.487c.361-.81.847-1.181,1.535-.958a1.177,1.177,0,0,1,.639,1.635,8.557,8.557,0,0,1-2.275,3.784,4.482,4.482,0,0,1-2.934,1.277" fill="#fff"/>
        <path id="Trazado_238964" data-name="Trazado 238964" d="M27.538,46.987c.873-.214,1.67-.41,2.467-.6s1.381.086,1.567.768c.177.651-.212,1.214-1.019,1.422-1.38.356-2.76.709-4.147,1.034-1.093.257-1.78-.42-1.515-1.5q1.068-4.368,2.181-8.724a1.143,1.143,0,1,1,2.18.6q-.815,3.279-1.635,6.559c-.029.116-.043.237-.079.447" fill="#fff"/>
      </g>
    </g>
  </g>
</svg>
