<svg id="Grupo_180209" data-name="Grupo 180209" xmlns="http://www.w3.org/2000/svg" xmlns:xlink="http://www.w3.org/1999/xlink" width="136" height="136" viewBox="0 0 136 136">
  <defs>
    <clipPath id="clip-path">
      <rect id="Rectángulo_103184" data-name="Rectángulo 103184" width="136" height="136" fill="none"/>
    </clipPath>
  </defs>
  <g id="Grupo_180209-2" data-name="Grupo 180209" clip-path="url(#clip-path)">
    <path id="Trazado_243004" data-name="Trazado 243004" d="M136,68A68,68,0,1,1,68,0a68,68,0,0,1,68,68" fill="#5038a1"/>
    <path id="Trazado_243005" data-name="Trazado 243005" d="M64.359,27.556a11.525,11.525,0,0,1,1.179,1.32c1.122,1.71,2.207,3.444,3.28,5.185a1.565,1.565,0,0,1-.563,2.352,1.5,1.5,0,0,1-2-.549c-1.269-1.958-2.523-3.927-3.735-5.921-.556-.914-.228-1.677.894-2.387Z" fill="#fff"/>
    <path id="Trazado_243006" data-name="Trazado 243006" d="M83.791,80.738c-8.209.616-14.481-2.131-18.252-9.656A17.731,17.731,0,0,1,52.187,74.4l-.667,2.5c-.788,2.945-1.591,5.885-2.341,8.84a1.52,1.52,0,0,0,.217,1.124c1.982,2.723,4.014,5.409,6.013,8.119a4.518,4.518,0,0,1,.355,5.177,4.268,4.268,0,0,1-4.741,1.884q-7.332-1.874-14.622-3.908A4.282,4.282,0,0,1,33.173,94.1a4.516,4.516,0,0,1,2.883-4.311c3.038-1.316,6.075-2.637,9.126-3.921a1.468,1.468,0,0,0,.975-1.091c.943-3.637,1.922-7.265,2.888-10.9a2.932,2.932,0,0,0,.043-.311c-.236-.109-.492-.225-.746-.345-5.508-2.6-9.032-6.772-10.1-12.837a13.329,13.329,0,0,1,.963-7.8c2.286-5.195,4.61-10.374,6.928-15.556.406-.909.994-1.291,1.863-1.081q2.757.667,5.479,1.473A1.479,1.479,0,0,1,54.489,39.1a1.5,1.5,0,0,1-1.355,1.336,2.732,2.732,0,0,1-1.006-.129c-1.018-.261-2.023-.575-3.047-.805a.809.809,0,0,0-.708.292C46.46,44,44.58,48.223,42.668,52.5A9.362,9.362,0,0,0,46.3,53.754a12.985,12.985,0,0,0,8.8-1.644c4.175-2.413,8.6-2.488,13.1-.936.247.085.491.183.737.273a.925.925,0,0,0,.167.01c.151-1.4.305-2.8.456-4.2.059-.549.087-1.1.174-1.648.075-.469-.115-.651-.552-.755-.92-.22-1.829-.485-2.74-.736-1.1-.305-1.654-1.089-1.419-2.006a1.629,1.629,0,0,1,2.208-1.059q2.209.591,4.409,1.212a1.665,1.665,0,0,1,1.4,2.039c-.046.621-.116,1.24-.184,1.952,2.222-.59,4.327-1.146,6.43-1.709q4.112-1.1,8.22-2.215a1.714,1.714,0,0,1,2.444,1.156C92.057,48.214,94.056,53,96.3,57.659c3.789,7.87.416,15.828-5.5,20.016a27.551,27.551,0,0,1-3.433,1.917c-.381.2-.5.371-.388.778.992,3.652,1.961,7.309,2.971,10.956a1.234,1.234,0,0,0,.637.678c3.15,1.389,6.323,2.724,9.47,4.119a4.413,4.413,0,0,1,2.509,5.548,4.273,4.273,0,0,1-2.974,2.727c-4.863,1.342-9.734,2.654-14.622,3.9a4.224,4.224,0,0,1-4.7-1.79,4.461,4.461,0,0,1,.247-5.176q2.99-4.073,6.038-8.1a1.4,1.4,0,0,0,.254-1.366c-.97-3.521-1.9-7.053-2.849-10.58-.053-.2-.123-.392-.171-.545M41.526,55.685a10.124,10.124,0,0,0-.15,4.345A13.863,13.863,0,0,0,58.791,70.892c4.949-1.4,8.289-4.479,9.271-9.686.345-1.83.381-3.716.636-5.565a.853.853,0,0,0-.6-1.071c-3.957-1.7-7.883-1.789-11.67.408A15.378,15.378,0,0,1,45.4,56.795c-1.3-.254-2.557-.725-3.876-1.11m52.952,6.143c-.227.084-.348.124-.465.173a15.531,15.531,0,0,1-14.669-.894,12.037,12.037,0,0,0-7.234-1.444c-.583.041-.732.328-.774.841a14.686,14.686,0,0,1-2.884,7.648,1.067,1.067,0,0,0-.142.9,20.023,20.023,0,0,0,1.857,3.537A13.8,13.8,0,0,0,90,74.288a12.648,12.648,0,0,0,4.477-12.46m-22.7-5.36c.877,0,1.638-.03,2.4.005a13.509,13.509,0,0,1,6.614,1.835,12.453,12.453,0,0,0,8.454,1.78,10.089,10.089,0,0,0,4.072-1.311c-1.906-4.272-3.784-8.464-5.642-12.666-.183-.413-.41-.455-.8-.35-4.637,1.255-9.278,2.495-13.913,3.759-.2.055-.488.288-.508.464-.248,2.135-.453,4.275-.677,6.484M46.754,88.652c-.214.078-.387.133-.552.2-2.893,1.245-5.783,2.5-8.681,3.733-.646.275-1.2.623-1.178,1.4.023.82.679,1.058,1.331,1.234q6.843,1.847,13.69,3.672c.615.163,1.294.252,1.7-.414a1.452,1.452,0,0,0-.274-1.743q-2.526-3.378-5.042-6.764c-.328-.439-.66-.875-1-1.323m37.365,16.622c.2-.045.563-.11.917-.205q4.828-1.3,9.656-2.605c1.342-.363,2.7-.682,4.011-1.138a1.481,1.481,0,0,0,.88-1.023c.007-.416-.449-.85-.737-1.253-.08-.111-.275-.142-.419-.205-2.845-1.226-5.7-2.438-8.529-3.69a.743.743,0,0,0-1.092.295c-1.83,2.505-3.7,4.983-5.543,7.474a3.035,3.035,0,0,0-.437.74c-.32.872.205,1.6,1.293,1.61" fill="#fff"/>
    <path id="Trazado_243007" data-name="Trazado 243007" d="M88.046,34.272c-.282.412-.476.957-.861,1.214-1.939,1.3-3.918,2.538-5.9,3.762a1.566,1.566,0,1,1-1.627-2.675c1.916-1.239,3.84-2.467,5.787-3.658a1.7,1.7,0,0,1,2.606,1.357" fill="#fff"/>
    <path id="Trazado_243008" data-name="Trazado 243008" d="M73.978,38.019a1.519,1.519,0,0,1-1.518-1.794q.73-3.5,1.576-6.981a1.51,1.51,0,0,1,1.917-1.067A1.526,1.526,0,0,1,77.063,30q-.731,3.423-1.528,6.83a1.493,1.493,0,0,1-1.557,1.189" fill="#fff"/>
    <path id="Trazado_243009" data-name="Trazado 243009" d="M59.551,39.09a1.575,1.575,0,1,1,.039,3.149,1.575,1.575,0,0,1-.039-3.149" fill="#fff"/>
  </g>
</svg>
