<svg id="Grupo_180207" data-name="Grupo 180207" xmlns="http://www.w3.org/2000/svg" xmlns:xlink="http://www.w3.org/1999/xlink" width="136" height="136" viewBox="0 0 136 136">
  <defs>
    <clipPath id="clip-path">
      <rect id="Rectángulo_103176" data-name="Rectángulo 103176" width="136" height="136" fill="none"/>
    </clipPath>
  </defs>
  <g id="Grupo_180207-2" data-name="Grupo 180207" clip-path="url(#clip-path)">
    <path id="Trazado_242978" data-name="Trazado 242978" d="M136,68A68,68,0,1,1,68,0a68,68,0,0,1,68,68" fill="#5038a1"/>
    <path id="Trazado_242979" data-name="Trazado 242979" d="M27.39,53.071a3.5,3.5,0,0,1,2.725-2.132c1.977-.456,3.923-1.042,5.887-1.554a2.535,2.535,0,0,1,3.474,2.426q.408,4.457.834,8.908a2.77,2.77,0,0,1-2.235,3.3c-.938.265-1.882.514-2.824.764-1.849.494-2.943-.017-3.766-1.789-1.112-2.39-2.207-4.789-3.312-7.183-.253-.547-.522-1.086-.783-1.631Zm2.35.452c1.368,2.971,2.679,5.842,4.031,8.692a.853.853,0,0,0,.746.271c.9-.185,1.78-.483,2.681-.676.6-.131.821-.381.741-1.029-.183-1.467-.272-2.942-.411-4.413-.148-1.569-.308-3.139-.473-4.808L29.74,53.523" fill="#fff"/>
    <path id="Trazado_242980" data-name="Trazado 242980" d="M27.39,53.071a3.5,3.5,0,0,1,2.725-2.132c1.977-.456,3.923-1.042,5.887-1.554a2.535,2.535,0,0,1,3.474,2.426q.408,4.457.834,8.908a2.77,2.77,0,0,1-2.235,3.3c-.938.265-1.882.514-2.824.764-1.849.494-2.943-.017-3.766-1.789-1.112-2.39-2.207-4.789-3.312-7.183-.253-.547-.522-1.086-.783-1.631Zm2.35.452c1.368,2.971,2.679,5.842,4.031,8.692a.853.853,0,0,0,.746.271c.9-.185,1.78-.483,2.681-.676.6-.131.821-.381.741-1.029-.183-1.467-.272-2.942-.411-4.413-.148-1.569-.308-3.139-.473-4.808Z" fill="none" stroke="#fff" stroke-miterlimit="10" stroke-width="1"/>
    <path id="Trazado_242981" data-name="Trazado 242981" d="M81.213,79.848a12.375,12.375,0,0,1,.992,5.3,5.107,5.107,0,0,1-3.441,4.621c-2.486.962-5,1.855-7.51,2.75-10.718,3.818-21.434,7.646-32.172,11.408a10.3,10.3,0,0,1-3.937.645c-2.653-.168-4.321-2.679-3.69-5.487a47.252,47.252,0,0,1,1.712-5.346Q39.312,76.422,45.49,59.117c.239-.671.5-1.338.783-1.99a5.213,5.213,0,0,1,5.578-3.311c1.584.179,3.139.63,4.828.984.065-.8.164-1.764.217-2.727A37.529,37.529,0,0,0,55.4,40.09a6.367,6.367,0,0,1,.184-4.57,5.463,5.463,0,0,1,9.157-.819A10.441,10.441,0,0,1,66.5,39.233,28.08,28.08,0,0,1,65.93,55.4c-.5,1.384-1.156,2.711-1.758,4.1l3.3,2.637,4.469-5.368c.186-.223.362-.458.568-.662A1.2,1.2,0,0,1,74.157,56a1.178,1.178,0,0,1,.145,1.643c-.769.976-1.579,1.919-2.373,2.875-.876,1.055-1.754,2.11-2.564,3.084l2.942,2.994c2.469-2.047,4.992-4.137,7.512-6.23q4.15-3.445,8.3-6.895c.769-.639.776-.709.078-1.408-1.457-1.459-2.936-2.9-4.368-4.384-.528-.548-.855-.492-1.314.081-1.323,1.65-2.693,3.263-4.046,4.889-.186.224-.365.455-.57.66a1.167,1.167,0,0,1-1.639.136,1.112,1.112,0,0,1-.173-1.628c1.688-2.069,3.372-4.144,5.136-6.148a2.635,2.635,0,0,1,3.791-.113c1.836,1.754,3.638,3.545,5.386,5.385a2.743,2.743,0,0,1-.421,4.069C87,57.5,84,59.979,81.01,62.463l-7.2,5.986,2.765,3.485c2.059-.644,4.012-1.4,6.031-1.856a28.46,28.46,0,0,1,14.559.854,15.985,15.985,0,0,1,2.819,1.023,5.7,5.7,0,0,1,3.072,6.01A5.155,5.155,0,0,1,96.7,82.179c-2.137-.473-4.223-1.168-6.352-1.676a31.011,31.011,0,0,0-8.271-.733c-.257.009-.513.046-.86.078M46.868,62.278a33.362,33.362,0,0,1,9.378,5.235c1.579,1.2,3.084,2.491,4.6,3.766.722.606.808,1.3.308,1.859s-1.156.528-1.888-.082c-.243-.2-.475-.421-.716-.627a43.458,43.458,0,0,0-11.038-7.362c-.451-.193-.922-.338-1.43-.523-.546,1.535-1.034,2.984-1.582,4.408-.2.524-.121.761.384,1.048A56.326,56.326,0,0,1,65.516,90.184c.3.49.564,1,.868,1.54l5.22-1.86a36.752,36.752,0,0,0-2.231-4.452c-1.881-2.773-3.937-5.426-5.933-8.121a1.249,1.249,0,0,1-.012-1.776,1.146,1.146,0,0,1,1.748.152,47.906,47.906,0,0,1,7.58,11c.368.781.665,1.6,1.024,2.465,1.489-.571,2.953-1.091,4.383-1.694a2.385,2.385,0,0,0,1.61-2.26,12.541,12.541,0,0,0-.447-3.417,28.3,28.3,0,0,0-4.685-8.408A53.866,53.866,0,0,0,57.476,58.067a13.961,13.961,0,0,0-5.509-1.889,3.089,3.089,0,0,0-3.616,2.146c-.507,1.274-.965,2.567-1.483,3.954M64.134,92.522a55.124,55.124,0,0,0-20.663-20.64c-1.007,2.832-1.966,5.531-2.931,8.246A58.173,58.173,0,0,1,55.882,95.46l8.252-2.938M62.181,58.081c.477-1.069.967-2.034,1.346-3.04,2.2-5.852,1.747-11.724.052-17.587A3.382,3.382,0,0,0,61.714,35.3a2.865,2.865,0,0,0-4.228,2.911,9.586,9.586,0,0,0,.316,1.629A38.963,38.963,0,0,1,59.278,52.06c-.063,1.16-.22,2.315-.284,3.476a1,1,0,0,0,.3.774c.9.6,1.838,1.137,2.889,1.771M78.1,74.074c.568.952,1.14,1.81,1.6,2.724a1.06,1.06,0,0,0,1.22.681,31.628,31.628,0,0,1,9.683.655c2.132.483,4.221,1.149,6.344,1.677a2.888,2.888,0,0,0,3.428-1.305,3.179,3.179,0,0,0-.744-3.894,4.684,4.684,0,0,0-1.554-.9,32.174,32.174,0,0,0-9.688-1.8A22.841,22.841,0,0,0,78.1,74.074M53.552,96.283A55.52,55.52,0,0,0,39.71,82.463c-.677,1.9-1.329,3.675-1.932,5.471a.827.827,0,0,0,.27.7,57.5,57.5,0,0,1,9.334,9.338.766.766,0,0,0,.631.265c1.816-.612,3.618-1.268,5.539-1.953m-8.237,2.979a48.874,48.874,0,0,0-8.536-8.548c-.32.885-.625,1.7-.908,2.516-.688,1.993-1.41,3.976-2.028,5.99a2.283,2.283,0,0,0,.487,2.5,2.245,2.245,0,0,0,2.372.438c2.856-.92,5.69-1.91,8.613-2.9" fill="#fff"/>
    <path id="Trazado_242982" data-name="Trazado 242982" d="M81.213,79.848a12.375,12.375,0,0,1,.992,5.3,5.107,5.107,0,0,1-3.441,4.621c-2.486.962-5,1.855-7.51,2.75-10.718,3.818-21.434,7.646-32.172,11.408a10.3,10.3,0,0,1-3.937.645c-2.653-.168-4.321-2.679-3.69-5.487a47.252,47.252,0,0,1,1.712-5.346Q39.312,76.422,45.49,59.117c.239-.671.5-1.338.783-1.99a5.213,5.213,0,0,1,5.578-3.311c1.584.179,3.139.63,4.828.984.065-.8.164-1.764.217-2.727A37.529,37.529,0,0,0,55.4,40.09a6.367,6.367,0,0,1,.184-4.57,5.463,5.463,0,0,1,9.157-.819A10.441,10.441,0,0,1,66.5,39.233,28.08,28.08,0,0,1,65.93,55.4c-.5,1.384-1.156,2.711-1.758,4.1l3.3,2.637,4.469-5.368c.186-.223.362-.458.568-.662A1.2,1.2,0,0,1,74.157,56a1.178,1.178,0,0,1,.145,1.643c-.769.976-1.579,1.919-2.373,2.875-.876,1.055-1.754,2.11-2.564,3.084l2.942,2.994c2.469-2.047,4.992-4.137,7.512-6.23q4.15-3.445,8.3-6.895c.769-.639.776-.709.078-1.408-1.457-1.459-2.936-2.9-4.368-4.384-.528-.548-.855-.492-1.314.081-1.323,1.65-2.693,3.263-4.046,4.889-.186.224-.365.455-.57.66a1.167,1.167,0,0,1-1.639.136,1.112,1.112,0,0,1-.173-1.628c1.688-2.069,3.372-4.144,5.136-6.148a2.635,2.635,0,0,1,3.791-.113c1.836,1.754,3.638,3.545,5.386,5.385a2.743,2.743,0,0,1-.421,4.069C87,57.5,84,59.979,81.01,62.463l-7.2,5.986,2.765,3.485c2.059-.644,4.012-1.4,6.031-1.856a28.46,28.46,0,0,1,14.559.854,15.985,15.985,0,0,1,2.819,1.023,5.7,5.7,0,0,1,3.072,6.01A5.155,5.155,0,0,1,96.7,82.179c-2.137-.473-4.223-1.168-6.352-1.676a31.011,31.011,0,0,0-8.271-.733C81.816,79.779,81.56,79.816,81.213,79.848ZM46.868,62.278a33.362,33.362,0,0,1,9.378,5.235c1.579,1.2,3.084,2.491,4.6,3.766.722.606.808,1.3.308,1.859s-1.156.528-1.888-.082c-.243-.2-.475-.421-.716-.627a43.458,43.458,0,0,0-11.038-7.362c-.451-.193-.922-.338-1.43-.523-.546,1.535-1.034,2.984-1.582,4.408-.2.524-.121.761.384,1.048A56.326,56.326,0,0,1,65.516,90.184c.3.49.564,1,.868,1.54l5.22-1.86a36.752,36.752,0,0,0-2.231-4.452c-1.881-2.773-3.937-5.426-5.933-8.121a1.249,1.249,0,0,1-.012-1.776,1.146,1.146,0,0,1,1.748.152,47.906,47.906,0,0,1,7.58,11c.368.781.665,1.6,1.024,2.465,1.489-.571,2.953-1.091,4.383-1.694a2.385,2.385,0,0,0,1.61-2.26,12.541,12.541,0,0,0-.447-3.417,28.3,28.3,0,0,0-4.685-8.408A53.866,53.866,0,0,0,57.476,58.067a13.961,13.961,0,0,0-5.509-1.889,3.089,3.089,0,0,0-3.616,2.146C47.844,59.6,47.386,60.891,46.868,62.278ZM64.134,92.522a55.124,55.124,0,0,0-20.663-20.64c-1.007,2.832-1.966,5.531-2.931,8.246A58.173,58.173,0,0,1,55.882,95.46ZM62.181,58.081c.477-1.069.967-2.034,1.346-3.04,2.2-5.852,1.747-11.724.052-17.587A3.382,3.382,0,0,0,61.714,35.3a2.865,2.865,0,0,0-4.228,2.911,9.586,9.586,0,0,0,.316,1.629A38.963,38.963,0,0,1,59.278,52.06c-.063,1.16-.22,2.315-.284,3.476a1,1,0,0,0,.3.774C60.188,56.913,61.13,57.447,62.181,58.081ZM78.1,74.074c.568.952,1.14,1.81,1.6,2.724a1.06,1.06,0,0,0,1.22.681,31.628,31.628,0,0,1,9.683.655c2.132.483,4.221,1.149,6.344,1.677a2.888,2.888,0,0,0,3.428-1.305,3.179,3.179,0,0,0-.744-3.894,4.684,4.684,0,0,0-1.554-.9,32.174,32.174,0,0,0-9.688-1.8A22.841,22.841,0,0,0,78.1,74.074ZM53.552,96.283A55.52,55.52,0,0,0,39.71,82.463c-.677,1.9-1.329,3.675-1.932,5.471a.827.827,0,0,0,.27.7,57.5,57.5,0,0,1,9.334,9.338.766.766,0,0,0,.631.265C49.829,97.624,51.631,96.968,53.552,96.283Zm-8.237,2.979a48.874,48.874,0,0,0-8.536-8.548c-.32.885-.625,1.7-.908,2.516-.688,1.993-1.41,3.976-2.028,5.99a2.283,2.283,0,0,0,.487,2.5,2.245,2.245,0,0,0,2.372.438C39.558,101.242,42.392,100.252,45.315,99.262Z" fill="none" stroke="#fff" stroke-miterlimit="10" stroke-width="1"/>
    <path id="Trazado_242983" data-name="Trazado 242983" d="M93.269,99.724c.088-1.033.224-2.19.266-3.351a1.923,1.923,0,0,0-.355-1.133c-.7-.929-1.477-1.8-2.213-2.7-1.078-1.323-.717-2.428.949-2.873,1.12-.3,2.259-.538,3.372-.864a1.614,1.614,0,0,0,.826-.619c.611-.924,1.151-1.895,1.73-2.841,1.011-1.647,2.245-1.635,3.261.03.565.925,1.087,1.876,1.688,2.775a1.749,1.749,0,0,0,.886.654c1.135.341,2.3.583,3.445.9,1.55.433,1.889,1.55.867,2.807-.734.9-1.524,1.763-2.209,2.7a2.2,2.2,0,0,0-.373,1.273c.029,1.187.193,2.37.247,3.557.069,1.519-.869,2.187-2.306,1.645-1.085-.41-2.135-.919-3.23-1.3a2.062,2.062,0,0,0-1.267-.009c-1.046.361-2.05.842-3.081,1.249-1.65.653-2.584-.015-2.5-1.9m9.916-.54a12.9,12.9,0,0,0-.122-1.921,4.2,4.2,0,0,1,1.38-4.219,12.866,12.866,0,0,0,1.046-1.3c-1.008-.253-1.87-.508-2.747-.678a2.54,2.54,0,0,1-1.831-1.366c-.438-.79-.925-1.553-1.447-2.421-.568.942-1.074,1.743-1.541,2.567a2.317,2.317,0,0,1-1.6,1.182c-.936.211-1.862.47-2.908.738a18.674,18.674,0,0,0,1.3,1.556,3.953,3.953,0,0,1,1.156,3.833,19.714,19.714,0,0,0-.138,2.088,5.894,5.894,0,0,1,7.445-.056" fill="#fff"/>
    <path id="Trazado_242984" data-name="Trazado 242984" d="M93.269,99.724c.088-1.033.224-2.19.266-3.351a1.923,1.923,0,0,0-.355-1.133c-.7-.929-1.477-1.8-2.213-2.7-1.078-1.323-.717-2.428.949-2.873,1.12-.3,2.259-.538,3.372-.864a1.614,1.614,0,0,0,.826-.619c.611-.924,1.151-1.895,1.73-2.841,1.011-1.647,2.245-1.635,3.261.03.565.925,1.087,1.876,1.688,2.775a1.749,1.749,0,0,0,.886.654c1.135.341,2.3.583,3.445.9,1.55.433,1.889,1.55.867,2.807-.734.9-1.524,1.763-2.209,2.7a2.2,2.2,0,0,0-.373,1.273c.029,1.187.193,2.37.247,3.557.069,1.519-.869,2.187-2.306,1.645-1.085-.41-2.135-.919-3.23-1.3a2.062,2.062,0,0,0-1.267-.009c-1.046.361-2.05.842-3.081,1.249C94.122,102.278,93.188,101.61,93.269,99.724Zm9.916-.54a12.9,12.9,0,0,0-.122-1.921,4.2,4.2,0,0,1,1.38-4.219,12.866,12.866,0,0,0,1.046-1.3c-1.008-.253-1.87-.508-2.747-.678a2.54,2.54,0,0,1-1.831-1.366c-.438-.79-.925-1.553-1.447-2.421-.568.942-1.074,1.743-1.541,2.567a2.317,2.317,0,0,1-1.6,1.182c-.936.211-1.862.47-2.908.738a18.674,18.674,0,0,0,1.3,1.556,3.953,3.953,0,0,1,1.156,3.833,19.714,19.714,0,0,0-.138,2.088A5.894,5.894,0,0,1,103.185,99.184Z" fill="none" stroke="#fff" stroke-miterlimit="10" stroke-width="1"/>
    <path id="Trazado_242985" data-name="Trazado 242985" d="M36.982,31.331c1.536.531,2.777-.3,3.863-1.6a10.416,10.416,0,0,1,1.432-1.368,1.523,1.523,0,0,1,2.591.708c.409,1.169.677,2.387,1.084,3.557a2.017,2.017,0,0,0,.78.975c.96.6,1.984,1.1,2.966,1.674,1.413.821,1.477,1.971.167,2.933-.937.687-1.924,1.31-2.83,2.036a2.219,2.219,0,0,0-.712,1.129c-.279,1.153-.433,2.335-.672,3.5-.3,1.48-1.4,1.915-2.647,1.029-.924-.659-1.828-1.352-2.7-2.081a1.757,1.757,0,0,0-1.538-.38c-1.121.175-2.247.348-3.378.43-1.485.107-2.162-.8-1.693-2.215.366-1.1.749-2.2,1.169-3.281a1.7,1.7,0,0,0-.051-1.5c-.523-1.036-1-2.1-1.468-3.159-.6-1.381.043-2.355,1.563-2.382.608-.01,1.216,0,2.073,0m6.04-.177-.314-.233c-.588.671-1.182,1.336-1.763,2.015a2.511,2.511,0,0,1-2.2.853c-.881-.047-1.766-.01-2.661-.01.132.472.444,6.9.391,7.349a14.2,14.2,0,0,1,3.8.074,15.35,15.35,0,0,1,3.41,2.064c-.174-3.052,1.207-5.12,4.1-6.328-1.055-.585-1.845-1.054-2.662-1.466a2.528,2.528,0,0,1-1.376-1.734c-.222-.867-.484-1.723-.728-2.584" fill="#fff"/>
    <path id="Trazado_242986" data-name="Trazado 242986" d="M36.982,31.331c1.536.531,2.777-.3,3.863-1.6a10.416,10.416,0,0,1,1.432-1.368,1.523,1.523,0,0,1,2.591.708c.409,1.169.677,2.387,1.084,3.557a2.017,2.017,0,0,0,.78.975c.96.6,1.984,1.1,2.966,1.674,1.413.821,1.477,1.971.167,2.933-.937.687-1.924,1.31-2.83,2.036a2.219,2.219,0,0,0-.712,1.129c-.279,1.153-.433,2.335-.672,3.5-.3,1.48-1.4,1.915-2.647,1.029-.924-.659-1.828-1.352-2.7-2.081a1.757,1.757,0,0,0-1.538-.38c-1.121.175-2.247.348-3.378.43-1.485.107-2.162-.8-1.693-2.215.366-1.1.749-2.2,1.169-3.281a1.7,1.7,0,0,0-.051-1.5c-.523-1.036-1-2.1-1.468-3.159-.6-1.381.043-2.355,1.563-2.382C35.517,31.323,36.125,31.331,36.982,31.331Zm6.04-.177-.314-.233c-.588.671-1.182,1.336-1.763,2.015a2.511,2.511,0,0,1-2.2.853c-.881-.047-1.766-.01-2.661-.01.132.472.444,6.9.391,7.349a14.2,14.2,0,0,1,3.8.074,15.35,15.35,0,0,1,3.41,2.064c-.174-3.052,1.207-5.12,4.1-6.328-1.055-.585-1.845-1.054-2.662-1.466a2.528,2.528,0,0,1-1.376-1.734C43.528,32.871,43.266,32.015,43.022,31.154Z" fill="none" stroke="#fff" stroke-miterlimit="10" stroke-width="1"/>
    <path id="Trazado_242987" data-name="Trazado 242987" d="M102.255,42.693c-1.083-.139-2.207-.323-3.339-.405a1.944,1.944,0,0,0-1.144.334c-.851.579-1.631,1.262-2.47,1.86-1.281.914-2.371.458-2.666-1.087a8.591,8.591,0,0,1-.262-1.48,3.9,3.9,0,0,0-2.366-3.667,8.687,8.687,0,0,1-1.234-.863,1.518,1.518,0,0,1,.166-2.791c.91-.536,1.869-.992,2.762-1.554a1.914,1.914,0,0,0,.729-.927c.337-.971.555-1.983.864-2.965.472-1.5,1.688-1.822,2.856-.754.742.679,1.474,1.369,2.167,2.1A1.534,1.534,0,0,0,99.645,31c.95-.063,1.9-.081,2.855-.083,1.686,0,2.3.956,1.612,2.5-.4.892-.777,1.8-1.231,2.659a1.671,1.671,0,0,0-.055,1.5c.39,1.009.759,2.028,1.081,3.061a1.49,1.49,0,0,1-1.652,2.056m-11.13-6.7a13.381,13.381,0,0,1,2.762,2.436A13.148,13.148,0,0,1,94.9,41.95a5.244,5.244,0,0,1,6.249-1.718,12.825,12.825,0,0,1-.863-3.483,13.844,13.844,0,0,1,1.155-3.514,5.4,5.4,0,0,1-6.174-2.372,5.305,5.305,0,0,1-4.142,5.13" fill="#fff"/>
    <path id="Trazado_242988" data-name="Trazado 242988" d="M102.255,42.693c-1.083-.139-2.207-.323-3.339-.405a1.944,1.944,0,0,0-1.144.334c-.851.579-1.631,1.262-2.47,1.86-1.281.914-2.371.458-2.666-1.087a8.591,8.591,0,0,1-.262-1.48,3.9,3.9,0,0,0-2.366-3.667,8.687,8.687,0,0,1-1.234-.863,1.518,1.518,0,0,1,.166-2.791c.91-.536,1.869-.992,2.762-1.554a1.914,1.914,0,0,0,.729-.927c.337-.971.555-1.983.864-2.965.472-1.5,1.688-1.822,2.856-.754.742.679,1.474,1.369,2.167,2.1A1.534,1.534,0,0,0,99.645,31c.95-.063,1.9-.081,2.855-.083,1.686,0,2.3.956,1.612,2.5-.4.892-.777,1.8-1.231,2.659a1.671,1.671,0,0,0-.055,1.5c.39,1.009.759,2.028,1.081,3.061A1.49,1.49,0,0,1,102.255,42.693Zm-11.13-6.7a13.381,13.381,0,0,1,2.762,2.436A13.148,13.148,0,0,1,94.9,41.95a5.244,5.244,0,0,1,6.249-1.718,12.825,12.825,0,0,1-.863-3.483,13.844,13.844,0,0,1,1.155-3.514,5.4,5.4,0,0,1-6.174-2.372A5.305,5.305,0,0,1,91.125,35.993Z" fill="none" stroke="#fff" stroke-miterlimit="10" stroke-width="1"/>
    <path id="Trazado_242989" data-name="Trazado 242989" d="M102.5,48.749c1.164,0,2.329-.023,3.492.005a2.518,2.518,0,0,1,2.563,3.183q-.756,4.373-1.487,8.751c-.32,1.906-1.253,2.716-3.161,2.72-1.058,0-2.117.011-3.174,0a2.55,2.55,0,0,1-2.681-2.124q-.932-4.945-1.711-9.919a2.441,2.441,0,0,1,2.431-2.591c1.24-.052,2.486-.011,3.728-.011v-.011m-3.792,2.428c.539,3.169,1.055,6.262,1.615,9.348a.85.85,0,0,0,.639.479c1,.053,2.007,0,3.01.031a.613.613,0,0,0,.729-.616c.169-1.095.375-2.184.561-3.276.334-1.968.664-3.937,1-5.966Z" fill="#fff"/>
    <path id="Trazado_242990" data-name="Trazado 242990" d="M102.5,48.749c1.164,0,2.329-.023,3.492.005a2.518,2.518,0,0,1,2.563,3.183q-.756,4.373-1.487,8.751c-.32,1.906-1.253,2.716-3.161,2.72-1.058,0-2.117.011-3.174,0a2.55,2.55,0,0,1-2.681-2.124q-.932-4.945-1.711-9.919a2.441,2.441,0,0,1,2.431-2.591c1.24-.052,2.486-.011,3.728-.011Zm-3.792,2.428c.539,3.169,1.055,6.262,1.615,9.348a.85.85,0,0,0,.639.479c1,.053,2.007,0,3.01.031a.613.613,0,0,0,.729-.616c.169-1.095.375-2.184.561-3.276.334-1.968.664-3.937,1-5.966Z" fill="none" stroke="#fff" stroke-miterlimit="10" stroke-width="1"/>
    <path id="Trazado_242991" data-name="Trazado 242991" d="M88.608,101.047a8.855,8.855,0,0,1-1.02,1.853c-1.445,1.544-2.958,3.026-4.476,4.5a2.436,2.436,0,0,1-3.938-.372q-2.346-3.3-4.677-6.6c-1.172-1.663-1.084-2.712.331-4.13.654-.655,1.3-1.316,1.968-1.96a2.379,2.379,0,0,1,3.18-.409q3.876,2.619,7.635,5.407c.465.346.643,1.078,1,1.711m-2.665-.036-7.351-5.2c-.749.78-1.425,1.523-2.146,2.218a.6.6,0,0,0-.082.936c.845,1.149,1.656,2.325,2.483,3.489.793,1.117,1.588,2.232,2.35,3.3l4.746-4.748" fill="#fff"/>
    <path id="Trazado_242992" data-name="Trazado 242992" d="M88.608,101.047a8.855,8.855,0,0,1-1.02,1.853c-1.445,1.544-2.958,3.026-4.476,4.5a2.436,2.436,0,0,1-3.938-.372q-2.346-3.3-4.677-6.6c-1.172-1.663-1.084-2.712.331-4.13.654-.655,1.3-1.316,1.968-1.96a2.379,2.379,0,0,1,3.18-.409q3.876,2.619,7.635,5.407C88.076,99.682,88.254,100.414,88.608,101.047Zm-2.665-.036-7.351-5.2c-.749.78-1.425,1.523-2.146,2.218a.6.6,0,0,0-.082.936c.845,1.149,1.656,2.325,2.483,3.489.793,1.117,1.588,2.232,2.35,3.3Z" fill="none" stroke="#fff" stroke-miterlimit="10" stroke-width="1"/>
    <path id="Trazado_242993" data-name="Trazado 242993" d="M70.95,37.267c.106-.4.181-.821.324-1.213q1.149-3.157,2.33-6.306a2.2,2.2,0,0,1,3.324-1.259q2.323,1.276,4.592,2.654a2.176,2.176,0,0,1,.6,3.5q-2.162,2.633-4.35,5.244a2.432,2.432,0,0,1-3.555.62c-.709-.408-1.421-.811-2.119-1.238a2.334,2.334,0,0,1-1.146-2m9.315-4.115L75.831,30.6c-.845,2.283-1.647,4.45-2.465,6.663l2.361,1.358,4.538-5.466" fill="#fff"/>
    <path id="Trazado_242994" data-name="Trazado 242994" d="M70.95,37.267c.106-.4.181-.821.324-1.213q1.149-3.157,2.33-6.306a2.2,2.2,0,0,1,3.324-1.259q2.323,1.276,4.592,2.654a2.176,2.176,0,0,1,.6,3.5q-2.162,2.633-4.35,5.244a2.432,2.432,0,0,1-3.555.62c-.709-.408-1.421-.811-2.119-1.238A2.334,2.334,0,0,1,70.95,37.267Zm9.315-4.115L75.831,30.6c-.845,2.283-1.647,4.45-2.465,6.663l2.361,1.358Z" fill="none" stroke="#fff" stroke-miterlimit="10" stroke-width="1"/>
  </g>
</svg>
