<svg xmlns="http://www.w3.org/2000/svg" xmlns:xlink="http://www.w3.org/1999/xlink" width="109" height="109" viewBox="0 0 109 109">
  <defs>
    <clipPath id="clip-path">
      <rect id="Rectángulo_101917" data-name="Rectángulo 101917" width="65.521" height="64.611" transform="translate(0 0)" fill="none"/>
    </clipPath>
  </defs>
  <g id="Grupo_130819" data-name="Grupo 130819" transform="translate(-260.667 -1089)">
    <circle id="Elipse_4744" data-name="Elipse 4744" cx="54.5" cy="54.5" r="54.5" transform="translate(260.667 1089)" fill="#5038a1"/>
    <g id="Grupo_177880" data-name="Grupo 177880" transform="translate(282 1111.194)">
      <g id="Grupo_177879" data-name="Grupo 177879" clip-path="url(#clip-path)">
        <path id="Trazado_238955" data-name="Trazado 238955" d="M50.819,50.3a4.71,4.71,0,0,1-4.6,4.643,4.708,4.708,0,0,1-4.592,4.595,4.678,4.678,0,0,1-8.1,3.076,4.7,4.7,0,0,1-4.9,1.859,4.519,4.519,0,0,1-3.512-3.937,10.128,10.128,0,0,1-1.195-.006,4.459,4.459,0,0,1-3.984-4.019c-.035-.3-.029-.546-.465-.6a4.443,4.443,0,0,1-4.135-4.844c0-.085,0-.17,0-.293-.136-.041-.27-.091-.409-.12a4.515,4.515,0,0,1-2.765-7.1.637.637,0,0,0,.008-.925c-1.721-2.278-3.4-4.589-5.124-6.862a9.43,9.43,0,0,0-1.377-1.322C4.03,33.014,2.375,31.6.729,30.186c-.9-.778-.959-1.365-.213-2.291q5.86-7.263,11.728-14.52a1.333,1.333,0,0,1,2.1-.349c2.017,1.274,4.016,2.575,6.049,3.822a8.307,8.307,0,0,0,1.957.878c1.959.577,3.935,1.1,5.913,1.609a2.125,2.125,0,0,0,1.048-.014c2.012-.55,4.01-1.148,6.021-1.7a6.187,6.187,0,0,1,1.563-.231c2.665-.023,5.329,0,7.994-.025a2.272,2.272,0,0,0,1.118-.331c2.1-1.3,4.176-2.642,6.262-3.965,1-.63,1.517-.541,2.234.389q5.268,6.834,10.529,13.674c.722.939.657,1.506-.256,2.293-1.856,1.6-3.721,3.191-5.567,4.8a2.569,2.569,0,0,0-.609.795c-1.253,2.585-2.48,5.182-3.729,7.77a.872.872,0,0,0-.01.877,4.514,4.514,0,0,1-3.745,6.6c-.083.006-.165.017-.295.031m-18.9,3.68c3.244,1,4.424,3.2,3.449,6.336a.545.545,0,0,0,.048.449,2.021,2.021,0,0,0,2.068.7,1.848,1.848,0,0,0,1.443-1.536,1.988,1.988,0,0,0-.618-1.857c-.96-.97-1.931-1.929-2.878-2.911a1.281,1.281,0,0,1,.232-2.107,1.322,1.322,0,0,1,1.621.333c.982.978,1.942,1.977,2.931,2.948a1.883,1.883,0,0,0,2.122.445,1.847,1.847,0,0,0,1.228-1.649,2.122,2.122,0,0,0-.737-1.761q-2.621-2.626-5.223-5.269a1.307,1.307,0,1,1,1.832-1.8c1.219,1.223,2.429,2.455,3.645,3.682.6.6,1.185,1.227,1.81,1.806a1.845,1.845,0,0,0,2.076.381,1.868,1.868,0,0,0,1.209-1.667,2.163,2.163,0,0,0-.762-1.751Q43.4,44.71,39.407,40.655a1.293,1.293,0,0,1-.141-1.925,1.326,1.326,0,0,1,1.975.127c.4.388.781.786,1.171,1.18q3.441,3.479,6.881,6.957a2,2,0,0,0,2.025.645,1.972,1.972,0,0,0,.761-3.436q-7.389-7.4-14.8-14.776a1.526,1.526,0,0,0-.885-.375c-1.464-.132-2.937-.178-4.4-.33a.974.974,0,0,0-1.152.58c-.9,1.689-1.858,3.352-2.824,5.007a4.536,4.536,0,1,1-7.864-4.521c1.478-2.662,3-5.3,4.5-7.949.122-.214.232-.435.37-.694-1.119-.312-2.167-.59-3.206-.9a.746.746,0,0,0-.92.292Q15.464,27.2,9.994,33.837c-.2.243-.393.491-.6.748,1.668,2.244,3.3,4.444,4.949,6.662a4.581,4.581,0,0,1,7.545,2.68,4.577,4.577,0,0,1,5.545,4.511,4.606,4.606,0,0,1,4.489,5.54M52.752,41.214c.122-.233.224-.411.312-.6.973-2.036,1.926-4.081,2.929-6.1a.9.9,0,0,0-.139-1.126Q50.715,26.9,45.614,20.38a1.01,1.01,0,0,0-.9-.443c-2.537.019-5.074,0-7.611.017a4.789,4.789,0,0,0-1.255.17q-4.115,1.168-8.213,2.389a1.347,1.347,0,0,0-.7.554c-.671,1.112-1.3,2.251-1.937,3.381-.87,1.538-1.755,3.068-2.6,4.618a1.943,1.943,0,0,0,.96,2.863,1.965,1.965,0,0,0,2.489-.987c1.131-1.978,2.261-3.956,3.363-5.949a1.573,1.573,0,0,1,1.654-.923c2.124.17,4.251.309,6.378.441a2.216,2.216,0,0,1,1.508.713q6.7,6.729,13.425,13.434c.178.177.363.347.583.556M13.7,15.659,3.078,28.816,7.6,32.7,18.885,18.958l-5.183-3.3M62.467,28.016l-9.5-12.339-5.185,3.3L57.945,31.905l4.522-3.889M20.046,53.373A2.39,2.39,0,0,0,20.962,53c1.193-1.122,2.378-2.261,3.474-3.477a1.935,1.935,0,0,0-2.794-2.648q-1.7,1.593-3.3,3.3a1.788,1.788,0,0,0-.249,2.092,1.993,1.993,0,0,0,1.95,1.108m2.313,2.617a2.217,2.217,0,0,0,1.285,1.829,1.793,1.793,0,0,0,2.081-.319c1.081-1.026,2.143-2.075,3.163-3.161a1.952,1.952,0,1,0-2.825-2.695c-1.025.993-2.049,1.989-3.015,3.038a5.627,5.627,0,0,0-.689,1.308m10.8,2.2a1.755,1.755,0,0,0-1.028-1.427,1.71,1.71,0,0,0-1.985.13,17.208,17.208,0,0,0-2.08,2.067,1.758,1.758,0,0,0-.12,2.048,1.852,1.852,0,0,0,1.79,1.014c1.228-.034,3.428-2.32,3.423-3.832M17.34,42.586a4.812,4.812,0,0,0-1.181.55A18.079,18.079,0,0,0,14.3,44.982a1.949,1.949,0,0,0,2.753,2.733,18.67,18.67,0,0,0,1.807-1.806,1.879,1.879,0,0,0,.273-2.153,2.1,2.1,0,0,0-1.8-1.17" fill="#fff"/>
        <path id="Trazado_238956" data-name="Trazado 238956" d="M16.942,3.466a5.194,5.194,0,0,1,1.066.6q4.361,4.318,8.683,8.673a1.239,1.239,0,0,1,.011,1.874,1.257,1.257,0,0,1-1.831-.076Q20.519,10.209,16.19,5.86a1.125,1.125,0,0,1-.284-1.451,5.359,5.359,0,0,1,1.036-.943" fill="#fff"/>
        <path id="Trazado_238957" data-name="Trazado 238957" d="M39.654,15.149a6.031,6.031,0,0,1-1.062-.858,1.071,1.071,0,0,1,.045-1.315,3.994,3.994,0,0,1,.469-.522q4.067-4.07,8.136-8.135a4.259,4.259,0,0,1,.471-.431,1.261,1.261,0,0,1,1.639.1,1.247,1.247,0,0,1,.172,1.631,2.9,2.9,0,0,1-.376.432q-4.158,4.16-8.325,8.309a8.135,8.135,0,0,1-1.169.789" fill="#fff"/>
        <path id="Trazado_238958" data-name="Trazado 238958" d="M34.045,10.048c0,1.15.006,2.3,0,3.451a1.3,1.3,0,0,1-1.262,1.461c-.781.012-1.3-.568-1.3-1.485q-.007-3.419,0-6.837a1.334,1.334,0,0,1,1.293-1.5c.762.008,1.267.608,1.271,1.525.005,1.129,0,2.258,0,3.387" fill="#fff"/>
        <path id="Trazado_238959" data-name="Trazado 238959" d="M34.04,1.312a1.279,1.279,0,0,1-2.557-.068,1.279,1.279,0,0,1,2.557.068" fill="#fff"/>
      </g>
    </g>
  </g>
</svg>
