<svg id="Grupo_180208" data-name="Grupo 180208" xmlns="http://www.w3.org/2000/svg" xmlns:xlink="http://www.w3.org/1999/xlink" width="136" height="136" viewBox="0 0 136 136">
  <defs>
    <clipPath id="clip-path">
      <rect id="Rectángulo_103183" data-name="Rectángulo 103183" width="136" height="136" fill="none"/>
    </clipPath>
  </defs>
  <g id="Grupo_180208-2" data-name="Grupo 180208" clip-path="url(#clip-path)">
    <path id="Trazado_242995" data-name="Trazado 242995" d="M136,68A68,68,0,1,1,68,0a68,68,0,0,1,68,68" fill="#5038a1"/>
    <path id="Trazado_242996" data-name="Trazado 242996" d="M68.007,53.032H45.477c-1.561,0-1.955-.394-1.955-1.957v-23.3c0-1.563.392-1.954,1.956-1.954h45.06c1.561,0,1.956.394,1.956,1.956q0,11.651,0,23.3c0,1.56-.4,1.956-1.957,1.956H68.007m1.207-10.885q1.908,0,3.818,0a4.112,4.112,0,0,1,4.5,4.476c0,1.208,0,2.416,0,3.629h12.18V28.566H68.978c.428.149.657.226.884.31a5.421,5.421,0,0,1,3.581,5c.019.764.007,1.529.006,2.294,0,3.084-1.31,4.9-4.235,5.98m-2.429,0c-2.209-.767-3.77-2.171-4.1-4.53a16.993,16.993,0,0,1,.005-4.567c.317-2.322,1.863-3.708,4.191-4.44h-20.6V50.256h12.2c0-1.325-.008-2.6,0-3.866a4.077,4.077,0,0,1,4.222-4.241c1.358-.011,2.717,0,4.075,0m6.665,8.128H74.8c0-1.413.043-2.8-.018-4.171a1.216,1.216,0,0,0-1.288-1.219q-5.478-.036-10.956,0a1.219,1.219,0,0,0-1.3,1.206c-.064,1.378-.018,2.76-.018,4.173h1.375v-2.6h2.731v2.594h5.449V47.59H73.45v2.685ZM70.724,35.31c0-.482.022-.964,0-1.444a2.713,2.713,0,0,0-5.422.023c-.036.962-.034,1.927,0,2.889a2.714,2.714,0,0,0,5.426-.024c.02-.48,0-.962,0-1.444" fill="#fff"/>
    <path id="Trazado_242997" data-name="Trazado 242997" d="M62.056,83.1a8.516,8.516,0,0,1-2.208-6.424,22.744,22.744,0,0,1,.265-3.8,8.1,8.1,0,0,1,8.665-6.208,8.2,8.2,0,0,1,7.386,7.976c.014.623-.019,1.248.011,1.87a8.673,8.673,0,0,1-2.21,6.573c.266.091.461.169.662.226A9.535,9.535,0,0,1,81.6,92.339c.03,1.784.017,3.57.005,5.354-.007,1.1-.508,1.6-1.627,1.6q-11.982.009-23.963,0c-1.111,0-1.616-.5-1.607-1.614a50.886,50.886,0,0,1,.152-6.53c.569-4.1,3.047-6.692,7.008-7.867.133-.039.261-.1.485-.182M78.884,96.532c0-1.45.033-2.859-.006-4.267A6.761,6.761,0,0,0,72.263,85.7c-2.833-.047-5.668-.077-8.5.009a6.52,6.52,0,0,0-6.027,4c-1.04,2.2-.467,4.543-.625,6.814H59.87V91.2H62.6v5.314H73.5V91.181H76.17v5.351ZM73.445,76.178c0-.509.013-1.019,0-1.528a5.468,5.468,0,0,0-4.932-5.272,5.325,5.325,0,0,0-5.775,4.282,20.852,20.852,0,0,0-.152,4.056,5.432,5.432,0,0,0,10.858-.01c.017-.509,0-1.019,0-1.528" fill="#fff"/>
    <path id="Trazado_242998" data-name="Trazado 242998" d="M33.488,93.982a8.516,8.516,0,0,1-2.207-6.426,22.744,22.744,0,0,1,.265-3.8,8.106,8.106,0,0,1,8.668-6.205,8.2,8.2,0,0,1,7.382,7.98c.015.623-.019,1.248.011,1.87a8.67,8.67,0,0,1-2.21,6.571c.267.091.464.168.666.225a9.539,9.539,0,0,1,6.973,9.028c.03,1.784.017,3.569,0,5.354-.007,1.1-.509,1.594-1.63,1.6q-11.982.007-23.963,0c-.97,0-1.583-.445-1.586-1.278a49.915,49.915,0,0,1,.138-6.87c.556-4.1,3.047-6.69,7.008-7.864.133-.039.26-.1.481-.183M50.32,107.423c0-1.454.023-2.813-.005-4.172a6.772,6.772,0,0,0-6.688-6.667q-4.208-.057-8.415,0a6.745,6.745,0,0,0-6.265,4.544c-.708,2.063-.268,4.188-.4,6.287h2.746V102.08h2.733V107.4H44.882v-5.344H47.6v5.362ZM34,87.013c0,.481-.008.962,0,1.443a5.473,5.473,0,0,0,4.916,5.376,5.321,5.321,0,0,0,5.8-4.347,17.692,17.692,0,0,0,.1-4.394,5.378,5.378,0,0,0-5.669-4.838A5.458,5.458,0,0,0,34,85.57c-.012.481,0,.962,0,1.443" fill="#fff"/>
    <path id="Trazado_242999" data-name="Trazado 242999" d="M102.531,93.991l1.04.337a9.488,9.488,0,0,1,6.6,8.87c.032,1.785.017,3.57.007,5.355-.007,1.117-.5,1.623-1.6,1.624q-12.024.009-24.048,0c-.914,0-1.522-.449-1.528-1.247a49.517,49.517,0,0,1,.112-6.787c.548-4.172,3.042-6.818,7.086-7.989.106-.031.207-.084.378-.155-.144-.195-.264-.365-.39-.529a8,8,0,0,1-1.761-5.033,28.387,28.387,0,0,1,.156-4.15,8.081,8.081,0,0,1,8.57-6.743,8.177,8.177,0,0,1,7.574,7.877,36.082,36.082,0,0,1-.04,3.822,8.024,8.024,0,0,1-2.152,4.749m4.923,13.45c0-1.453.025-2.835-.005-4.217a6.767,6.767,0,0,0-6.63-6.637q-4.248-.069-8.5,0a6.554,6.554,0,0,0-6.439,5.477,38.179,38.179,0,0,0-.045,5.343h2.609V102.06h2.7V107.4h10.893v-5.325h2.733v5.37ZM91.136,87.022c0,.481-.008.962,0,1.443a5.471,5.471,0,0,0,4.924,5.368,5.319,5.319,0,0,0,5.8-4.356,17.645,17.645,0,0,0,.1-4.394,5.377,5.377,0,0,0-5.677-4.829,5.458,5.458,0,0,0-5.144,5.325c-.012.481,0,.962,0,1.443" fill="#fff"/>
    <path id="Trazado_243000" data-name="Trazado 243000" d="M42.161,39.517c0,3.909-.018,7.818.013,11.727A1.754,1.754,0,0,1,40.916,53.1c-4.313,1.7-8.61,3.441-12.917,5.156-1.322.526-2.158-.059-2.159-1.5q-.008-11.9-.012-23.794A1.654,1.654,0,0,1,27,31.228c4.311-1.7,8.609-3.443,12.914-5.162,1.432-.572,2.239-.01,2.241,1.554q.006,5.949,0,11.9M28.558,55.06c.294-.1.533-.171.762-.262,3.126-1.249,6.246-2.513,9.381-3.739a.985.985,0,0,0,.756-1.089c-.029-4.989-.016-9.977-.016-14.966v-5.77c-.348.124-.639.217-.922.33-3.073,1.23-6.139,2.477-9.222,3.681a.979.979,0,0,0-.755,1.084c.027,5.981.016,11.962.016,17.942V55.06" fill="#fff"/>
    <path id="Trazado_243001" data-name="Trazado 243001" d="M110.179,44.957q0,5.822,0,11.642c0,1.672-.782,2.2-2.326,1.588q-6.34-2.531-12.678-5.067c-1.149-.459-1.319-.715-1.319-1.97q0-11.726,0-23.453,0-2.516,2.325-1.59,6.3,2.51,12.605,5.027c1.243.5,1.392.733,1.393,2.1V44.957m-2.78,10.1a1.562,1.562,0,0,0,.051-.243q.006-10.374.019-20.749c0-.472-.221-.621-.593-.768-2.737-1.08-5.467-2.176-8.2-3.267l-2.04-.813a1.627,1.627,0,0,0-.053.251q-.006,10.374-.021,20.748c0,.475.224.621.593.766,2.552,1.01,5.1,2.035,7.646,3.052.86.344,1.724.679,2.6,1.023" fill="#fff"/>
    <path id="Trazado_243002" data-name="Trazado 243002" d="M54.4,69.36A16.781,16.781,0,0,1,54.37,71.9a2,2,0,0,1-.783,1.336,1.691,1.691,0,0,1-1.456-.185c-1.517-1.039-2.948-2.2-4.445-3.273a2.365,2.365,0,0,0-1.227-.4c-1.358-.05-2.719-.012-4.079-.02a4.084,4.084,0,0,1-4.3-4.252c-.011-1.728-.015-3.457,0-5.185a4.052,4.052,0,0,1,4.125-4.162q6.756-.028,13.512,0a4.048,4.048,0,0,1,4.121,4.165c.017,1.729.013,3.457,0,5.185a4.086,4.086,0,0,1-4.218,4.249c-.365,0-.731,0-1.221,0m-2.72-.009c0-.46,0-.74,0-1.02.014-1.218.48-1.681,1.707-1.691.708,0,1.417.008,2.125,0,1.105-.017,1.6-.509,1.605-1.623q.016-2.466,0-4.931c-.009-1.106-.507-1.6-1.622-1.6q-6.544-.01-13.09,0c-1.107,0-1.6.5-1.606,1.619q-.017,2.465,0,4.931c.008,1.107.5,1.6,1.618,1.607,1.615.011,3.231-.032,4.844.025a2.834,2.834,0,0,1,1.4.464c.985.654,1.911,1.4,3.02,2.226" fill="#fff"/>
    <path id="Trazado_243003" data-name="Trazado 243003" d="M81.612,59.836a17.075,17.075,0,0,1,.031-2.487,2.477,2.477,0,0,1,.724-1.4c.513-.448,1.115-.161,1.624.223,1.4,1.058,2.785,2.141,4.226,3.143a3.1,3.1,0,0,0,1.534.5c1.327.069,2.661.012,3.993.025a4.068,4.068,0,0,1,4.188,4.189q.024,2.635,0,5.27a4.055,4.055,0,0,1-4.151,4.139q-6.714.029-13.427,0a4.062,4.062,0,0,1-4.18-4.2c-.014-1.7-.01-3.4,0-5.1a4.09,4.09,0,0,1,4.33-4.305c.335,0,.67,0,1.11,0m2.72.006c0,.46,0,.738,0,1.016-.015,1.219-.483,1.687-1.7,1.7-.708.006-1.417-.007-2.125,0-1.109.017-1.6.5-1.609,1.617q-.016,2.464,0,4.931c.008,1.108.5,1.609,1.614,1.611q6.544.01,13.09,0c1.109,0,1.605-.5,1.613-1.613q.018-2.466,0-4.931c-.008-1.111-.5-1.606-1.613-1.614-1.615-.011-3.231.031-4.844-.024a2.841,2.841,0,0,1-1.4-.461c-.986-.654-1.911-1.4-3.025-2.233" fill="#fff"/>
    <rect id="Rectángulo_103177" data-name="Rectángulo 103177" width="2.618" height="2.616" transform="translate(43.566 61.263)" fill="#fff"/>
    <rect id="Rectángulo_103178" data-name="Rectángulo 103178" width="2.641" height="2.597" transform="translate(47.62 61.266)" fill="#fff"/>
    <rect id="Rectángulo_103179" data-name="Rectángulo 103179" width="2.615" height="2.618" transform="translate(51.723 61.24)" fill="#fff"/>
    <rect id="Rectángulo_103180" data-name="Rectángulo 103180" width="2.621" height="2.607" transform="translate(81.669 65.328)" fill="#fff"/>
    <rect id="Rectángulo_103181" data-name="Rectángulo 103181" width="2.622" height="2.616" transform="translate(85.734 65.343)" fill="#fff"/>
    <rect id="Rectángulo_103182" data-name="Rectángulo 103182" width="2.596" height="2.642" transform="translate(89.844 65.34)" fill="#fff"/>
  </g>
</svg>
