<svg id="Grupo_179945" data-name="Grupo 179945" xmlns="http://www.w3.org/2000/svg" xmlns:xlink="http://www.w3.org/1999/xlink" width="315" height="222" viewBox="0 0 315 222">
  <defs>
    <clipPath id="clip-path">
      <rect id="Rectángulo_103093" data-name="Rectángulo 103093" width="315" height="222" fill="none"/>
    </clipPath>
    <clipPath id="clip-path-2">
      <path id="Trazado_242326" data-name="Trazado 242326" d="M26.5,53.974C8.578,70.861.041,90.677,0,110.177v.287c.059,27.5,17.015,54.343,48.361,71.413,27.884,15.185,59.378,18.4,70.867,19.484,70.6,6.64,152.007-17.976,182.568-61.919,19.918-28.637,17.623-64.159-9.076-89.654a126.26,126.26,0,0,0-29.707-20.582C224.07,9.6,179.757,8.479,168.194,8.3q-1.928-.03-3.855-.03C111.827,8.268,57.265,25,26.5,53.974" fill="none"/>
    </clipPath>
    <linearGradient id="linear-gradient" x1="0.056" y1="0.805" x2="0.059" y2="0.805" gradientUnits="objectBoundingBox">
      <stop offset="0" stop-color="#dae3fe"/>
      <stop offset="1" stop-color="#e9effd"/>
    </linearGradient>
    <clipPath id="clip-path-4">
      <rect id="Rectángulo_103033" data-name="Rectángulo 103033" width="298.908" height="184.875" transform="translate(7.315 6.734)" fill="none"/>
    </clipPath>
    <clipPath id="clip-path-5">
      <path id="Trazado_242343" data-name="Trazado 242343" d="M140.683,51.464c-2.179.953-6.315,2.549-6.866,6.992a5.1,5.1,0,0,1-4.266,4.481c-5.689.872-14.458,3.826-15.861,13.706-1.071,7.54,2.773,10.4,6.807,11.389a5.714,5.714,0,0,1,4.333,6.6c-.575,2.869.283,6.187,5.253,8.809,11.14,5.878,22.264-13.925,22.264-13.925l2.279-34.576-8.037-9.057s-2.28,3.993-5.906,5.581" fill="none"/>
    </clipPath>
    <linearGradient id="linear-gradient-2" x1="-1.257" y1="2.538" x2="-1.244" y2="2.538" gradientUnits="objectBoundingBox">
      <stop offset="0" stop-color="#09005d"/>
      <stop offset="1" stop-color="#1a0f91"/>
    </linearGradient>
    <clipPath id="clip-path-6">
      <path id="Trazado_242344" data-name="Trazado 242344" d="M143.055,153.82l-2.368,4.449a9.026,9.026,0,0,0-1.027,4.989l2.455,29.4-1.874,2.576.228,1.4,11.448,6.756-4.5-7.315A8.216,8.216,0,0,1,146.2,191.4c.461-10.5,3.051-36.738,3.051-36.738l-.773-4.551Z" fill="none"/>
    </clipPath>
    <linearGradient id="linear-gradient-3" x1="-8.022" y1="1.335" x2="-7.964" y2="1.335" gradientUnits="objectBoundingBox">
      <stop offset="0" stop-color="#ff928e"/>
      <stop offset="1" stop-color="#feb3b1"/>
    </linearGradient>
    <clipPath id="clip-path-7">
      <path id="Trazado_242345" data-name="Trazado 242345" d="M139.39,197.733l1.079,6.711h.852s-.195-5.4,1.325-5.3c1.127.075,3.487,2.963,4.626,4.443a2.2,2.2,0,0,0,1.746.856h3.654a.966.966,0,0,0,.18-1.915,5.206,5.206,0,0,0-1.485-.04s-5.779-4.068-7.662-5.2a5.614,5.614,0,0,1-2.23-3.7,3.972,3.972,0,0,0-2.085,4.151" fill="none"/>
    </clipPath>
    <linearGradient id="linear-gradient-4" x1="-11.405" y1="1.945" x2="-11.324" y2="1.945" xlink:href="#linear-gradient-2"/>
    <clipPath id="clip-path-8">
      <path id="Trazado_242346" data-name="Trazado 242346" d="M122.09,152.86a9.02,9.02,0,0,0-4.052,3.087l-17.461,23.776-3.106.711-.746,1.2,4.193,12.614,1.409-8.475a8.23,8.23,0,0,1,2.154-4.324c7.243-7.61,26.436-25.693,26.436-25.693l2.4-3.938-6.525-.76Z" fill="none"/>
    </clipPath>
    <linearGradient id="linear-gradient-5" x1="-1.556" y1="1.371" x2="-1.538" y2="1.371" xlink:href="#linear-gradient-3"/>
    <clipPath id="clip-path-9">
      <path id="Trazado_242347" data-name="Trazado 242347" d="M95.186,181.762l-3.6,5.768.643.559s3.4-4.2,4.479-3.125c.8.8.683,4.525.57,6.389a2.2,2.2,0,0,0,.754,1.793l2.754,2.4a.966.966,0,0,0,1.394-1.325,5.226,5.226,0,0,0-1.093-1.007s-1.685-6.862-2.358-8.956A5.616,5.616,0,0,1,99.485,180a3.972,3.972,0,0,0-4.3,1.761" fill="none"/>
    </clipPath>
    <linearGradient id="linear-gradient-6" x1="-4.386" y1="2.369" x2="-4.335" y2="2.369" xlink:href="#linear-gradient-2"/>
    <clipPath id="clip-path-10">
      <path id="Trazado_242348" data-name="Trazado 242348" d="M138.034,76.114A39.432,39.432,0,0,1,142.38,105.1a15.143,15.143,0,0,0,13.6,1.325s6.89-18.208,7.647-21.856c.983-4.742-4.45-9.809-7.1-11.956a5.307,5.307,0,0,0-3.139-1.188c-.344-.013-.729-.022-1.15-.022-3.66,0-9.981.66-14.206,4.716" fill="none"/>
    </clipPath>
    <linearGradient id="linear-gradient-7" x1="-2.877" y1="3.347" x2="-2.855" y2="3.347" gradientUnits="objectBoundingBox">
      <stop offset="0" stop-color="#fe7062"/>
      <stop offset="1" stop-color="#ff928e"/>
    </linearGradient>
    <clipPath id="clip-path-11">
      <path id="Trazado_242349" data-name="Trazado 242349" d="M133.7,113.308c-1.537,4.63-2.889,26.694-8.558,38.145a1.1,1.1,0,0,0,.737,1.552c3.924.914,15.4,3.266,23.368,1.652,0,0,6.188-32.623,7.175-37.7a27.3,27.3,0,0,0-.443-10.538,15.143,15.143,0,0,1-13.6-1.325s-7.087,3.413-8.68,8.213" fill="none"/>
    </clipPath>
    <linearGradient id="linear-gradient-8" x1="-2.078" y1="2.005" x2="-2.059" y2="2.005" xlink:href="#linear-gradient-2"/>
    <clipPath id="clip-path-12">
      <path id="Trazado_242350" data-name="Trazado 242350" d="M149.776,59.42l-3.187,13.271c-.3,1.259.839,1.652,2.121,1.84,3.013.441,5.294-.7,5.671-2.826.033-.185.136-.351.163-.538l1.367-9.914a1.779,1.779,0,0,0-1.043-1.871l-2.638-1.17a1.78,1.78,0,0,0-2.454,1.208" fill="none"/>
    </clipPath>
    <linearGradient id="linear-gradient-9" x1="-7.389" y1="11.072" x2="-7.337" y2="11.072" xlink:href="#linear-gradient-3"/>
    <clipPath id="clip-path-13">
      <path id="Trazado_242351" data-name="Trazado 242351" d="M148.392,57.262a11.256,11.256,0,0,0,8.989,5.069c2.427.129,4.793-1.966,3.336-7.808s-4.844-8.136-4.844-8.136a3.186,3.186,0,0,0-1.725-.509c-4.1,0-8.422,7.718-5.756,11.384" fill="none"/>
    </clipPath>
    <linearGradient id="linear-gradient-10" x1="-6.614" y1="8.23" x2="-6.568" y2="8.23" xlink:href="#linear-gradient-3"/>
    <clipPath id="clip-path-14">
      <path id="Trazado_242352" data-name="Trazado 242352" d="M146.337,45.67c-2.89,5.271-3.939,8.976-1.516,12.252s4.732,1.007,4.732,1.007-1.6-3.376-.677-4.593,2.059,1.169,2.059,1.169l.53-.6s-1.241-8.37,5.708-7.09l1.4,1.463s3.4-3.831-.363-6.726a7.735,7.735,0,0,0-4.719-1.677c-2.681,0-5.368,1.527-7.159,4.794" fill="none"/>
    </clipPath>
    <linearGradient id="linear-gradient-11" x1="-4.958" y1="6.672" x2="-4.922" y2="6.672" xlink:href="#linear-gradient-2"/>
    <clipPath id="clip-path-15">
      <path id="Trazado_242353" data-name="Trazado 242353" d="M147.7,52.547c-2.2,1.231.792,4.023,1.992,4.973l.82-1.9s-.469-3.3-2.06-3.3a1.54,1.54,0,0,0-.752.221" fill="none"/>
    </clipPath>
    <linearGradient id="linear-gradient-12" x1="-21.76" y1="25.268" x2="-21.609" y2="25.268" xlink:href="#linear-gradient-3"/>
    <clipPath id="clip-path-17">
      <path id="Trazado_242357" data-name="Trazado 242357" d="M133.163,79.5l-6.69,1.086a.464.464,0,0,0-.383.379l-.961,5.564a24.659,24.659,0,0,0-6.783,4.195l-5.41-1.629a.467.467,0,0,0-.511.174l-3.962,5.5a.464.464,0,0,0,0,.539l3.256,4.618a24.649,24.649,0,0,0-1.834,7.761l-4.974,2.672a.463.463,0,0,0-.239.483l1.086,6.691a.465.465,0,0,0,.379.383l5.564.961a24.615,24.615,0,0,0,4.2,6.783l-1.629,5.411a.464.464,0,0,0,.173.51l5.5,3.963a.463.463,0,0,0,.538,0l4.618-3.257a24.6,24.6,0,0,0,7.761,1.835l2.673,4.975a.463.463,0,0,0,.483.238l6.69-1.086a.464.464,0,0,0,.383-.379l.962-5.565a24.606,24.606,0,0,0,6.782-4.195l5.41,1.629a.466.466,0,0,0,.511-.172l3.962-5.5a.466.466,0,0,0,0-.54l-3.256-4.616a24.628,24.628,0,0,0,1.834-7.762l4.974-2.672a.464.464,0,0,0,.239-.484l-1.086-6.69a.464.464,0,0,0-.379-.383l-5.564-.962a24.6,24.6,0,0,0-4.2-6.781l1.629-5.411a.461.461,0,0,0-.173-.51l-5.5-3.964a.468.468,0,0,0-.539,0l-4.618,3.258a24.569,24.569,0,0,0-7.761-1.835l-2.673-4.975a.462.462,0,0,0-.408-.244.474.474,0,0,0-.075.006" fill="none"/>
    </clipPath>
    <linearGradient id="linear-gradient-13" x1="-1.747" y1="2.38" x2="-1.73" y2="2.38" gradientUnits="objectBoundingBox">
      <stop offset="0" stop-color="#4042e2"/>
      <stop offset="1" stop-color="#4f52ff"/>
    </linearGradient>
    <clipPath id="clip-path-19">
      <path id="Trazado_242360" data-name="Trazado 242360" d="M123.086,112.2c2.047-2.047,5.025-1.478,6.262-1.118.7-8.157,4.123-17.854,13.249-26.409,1.245-4.451.06-7.5-4.563-8.555,0,0-19.392,17.11-14.948,36.082" fill="none"/>
    </clipPath>
    <linearGradient id="linear-gradient-14" x1="-2.588" y1="3.416" x2="-2.565" y2="3.416" xlink:href="#linear-gradient-7"/>
    <clipPath id="clip-path-20">
      <path id="Trazado_242361" data-name="Trazado 242361" d="M123.086,112.2a23.779,23.779,0,0,0,3.756,9.869s3.292,5.257,8.279.559l-3.035-.861a.338.338,0,0,1-.078-.618,5.783,5.783,0,0,0,2.145-1.916.327.327,0,0,0-.481-.413,3.667,3.667,0,0,1-2.089.807c-.667-.039-1.412-.089-1.961-.127a.993.993,0,0,1-.918-.89,22.655,22.655,0,0,1,.644-7.528,8.8,8.8,0,0,0-2.406-.356,5.3,5.3,0,0,0-3.856,1.474" fill="none"/>
    </clipPath>
    <linearGradient id="linear-gradient-15" x1="-6.068" y1="5.527" x2="-6.017" y2="5.527" xlink:href="#linear-gradient-3"/>
    <clipPath id="clip-path-21">
      <path id="Trazado_242362" data-name="Trazado 242362" d="M230.351,116.311l4.346,5.209,1.356-3.044a49.8,49.8,0,0,0,10.964-9.749,25.785,25.785,0,0,1-6-4.386c-2.87,8.09-10.668,11.97-10.668,11.97" fill="none"/>
    </clipPath>
    <linearGradient id="linear-gradient-16" x1="-13.822" y1="6.849" x2="-13.762" y2="6.849" xlink:href="#linear-gradient-3"/>
    <clipPath id="clip-path-22">
      <path id="Trazado_242363" data-name="Trazado 242363" d="M217.793,202.837a1.048,1.048,0,0,0-.029.282,65.633,65.633,0,0,0,12.293.267.987.987,0,0,0,.028-.11c.256-1.343.461-4.359-1.131-9.278l-2.769-.217s-6.985,3.476-8.392,9.056" fill="none"/>
    </clipPath>
    <linearGradient id="linear-gradient-17" x1="-21.784" y1="2.306" x2="-21.685" y2="2.306" xlink:href="#linear-gradient-2"/>
    <clipPath id="clip-path-23">
      <path id="Trazado_242364" data-name="Trazado 242364" d="M218.6,204.123c2.167.284,7.33.834,10.579.151a1.2,1.2,0,0,0,.878-.888,65.633,65.633,0,0,1-12.293-.267,1.007,1.007,0,0,0,.836,1" fill="none"/>
    </clipPath>
    <linearGradient id="linear-gradient-18" x1="-24.276" y1="2.163" x2="-24.165" y2="2.163" gradientUnits="objectBoundingBox">
      <stop offset="0" stop-color="#4f52ff"/>
      <stop offset="1" stop-color="#4042e2"/>
    </linearGradient>
    <clipPath id="clip-path-24">
      <path id="Trazado_242365" data-name="Trazado 242365" d="M226.186,189.875l-.815,5.012a1.161,1.161,0,0,0,.919,1.363,7.839,7.839,0,0,0,1.816.029.921.921,0,0,0,.788-.76l1.173-5.644Z" fill="none"/>
    </clipPath>
    <linearGradient id="linear-gradient-19" x1="-40.828" y1="4.64" x2="-40.646" y2="4.64" xlink:href="#linear-gradient-3"/>
    <clipPath id="clip-path-25">
      <path id="Trazado_242366" data-name="Trazado 242366" d="M205.776,203.329c-4.726.133-10.332-.274-12.533-.456a.767.767,0,0,0,.617,1.116l16.786.108a.6.6,0,0,0,.576-.614c.01-.32.012-.63.01-.933a16.531,16.531,0,0,1-5.456.779" fill="none"/>
    </clipPath>
    <linearGradient id="linear-gradient-20" x1="-15.705" y1="1.722" x2="-15.624" y2="1.722" xlink:href="#linear-gradient-18"/>
    <clipPath id="clip-path-26">
      <path id="Trazado_242367" data-name="Trazado 242367" d="M206.029,194.762c-7.461,1.789-11.237,5.913-12.719,7.984a.818.818,0,0,0-.067.127c2.2.182,7.807.589,12.533.456a16.531,16.531,0,0,0,5.456-.779,17.186,17.186,0,0,0-1.624-7.9Z" fill="none"/>
    </clipPath>
    <linearGradient id="linear-gradient-21" x1="-22.03" y1="1.77" x2="-21.919" y2="1.77" xlink:href="#linear-gradient-2"/>
    <clipPath id="clip-path-27">
      <path id="Trazado_242368" data-name="Trazado 242368" d="M205.634,194.721a1.059,1.059,0,0,0,.8,1.063,8.223,8.223,0,0,0,2.459.038.778.778,0,0,0,.656-.7c.19-1.572.681-5.627.72-5.893l-4.637-.869Z" fill="none"/>
    </clipPath>
    <linearGradient id="linear-gradient-22" x1="-37.5" y1="4.192" x2="-37.317" y2="4.192" xlink:href="#linear-gradient-3"/>
    <clipPath id="clip-path-29">
      <path id="Trazado_242371" data-name="Trazado 242371" d="M218.381,64.432c4.69,3.31,11.14,1.368,11.14,1.368L228.4,54.335l-6.72-.322Z" fill="none"/>
    </clipPath>
    <linearGradient id="linear-gradient-23" x1="-15.556" y1="10.641" x2="-15.484" y2="10.641" xlink:href="#linear-gradient-3"/>
    <clipPath id="clip-path-30">
      <path id="Trazado_242372" data-name="Trazado 242372" d="M220.915,41.268c-.155.147-6.55,12.707-6.55,12.707l7.248,3.5,7.83-11s-4.407-5.684-7.288-5.684a1.746,1.746,0,0,0-1.24.482" fill="none"/>
    </clipPath>
    <linearGradient id="linear-gradient-24" x1="-11.193" y1="10.289" x2="-11.14" y2="10.289" xlink:href="#linear-gradient-3"/>
    <clipPath id="clip-path-32">
      <path id="Trazado_242374" data-name="Trazado 242374" d="M225.047,55.7s1.4,2.477,4.146,0c2.206-1.994.806-3.767-.975-3.916-.032,0-.064,0-.1,0-1.734,0-3.075,3.923-3.075,3.923" fill="none"/>
    </clipPath>
    <linearGradient id="linear-gradient-25" x1="-33.731" y1="25.729" x2="-33.581" y2="25.729" xlink:href="#linear-gradient-3"/>
    <clipPath id="clip-path-33">
      <path id="Trazado_242375" data-name="Trazado 242375" d="M240.893,72.514c.008.076.842,7.682-1.452,13.956l.612.224c2.347-6.422,1.5-14.177,1.486-14.254Z" fill="none"/>
    </clipPath>
    <linearGradient id="linear-gradient-26" x1="-23.99" y1="10.851" x2="-23.889" y2="10.851" xlink:href="#linear-gradient-13"/>
    <clipPath id="clip-path-34">
      <path id="Trazado_242376" data-name="Trazado 242376" d="M229.908,129.048c-.231.129-5.657,3.2-6.443,6.23a.327.327,0,0,0,.234.4.334.334,0,0,0,.082.01.326.326,0,0,0,.315-.243c.716-2.762,6.076-5.8,6.13-5.826a.325.325,0,1,0-.318-.568" fill="none"/>
    </clipPath>
    <linearGradient id="linear-gradient-27" x1="-23.667" y1="10.181" x2="-23.56" y2="10.181" gradientUnits="objectBoundingBox">
      <stop offset="0" stop-color="#020039"/>
      <stop offset="1" stop-color="#090056"/>
    </linearGradient>
    <clipPath id="clip-path-35">
      <path id="Trazado_242377" data-name="Trazado 242377" d="M184.334,139.807a50.626,50.626,0,0,0,.362,13.026,2.709,2.709,0,0,0,2.7,2.306l27.642-.163a3.755,3.755,0,0,0,3.739-3.626l.371-11.543Z" fill="none"/>
    </clipPath>
    <linearGradient id="linear-gradient-28" x1="-9.161" y1="2.49" x2="-9.113" y2="2.49" xlink:href="#linear-gradient-7"/>
    <clipPath id="clip-path-37">
      <path id="Trazado_242379" data-name="Trazado 242379" d="M206.421,130.528l-.154,1.035,4.781-.135-.083-.891a.684.684,0,0,0-.519-.4,11.466,11.466,0,0,0-1.749-.147,3.969,3.969,0,0,0-2.276.537" fill="none"/>
    </clipPath>
    <linearGradient id="linear-gradient-29" x1="-117.542" y1="19.34" x2="-116.976" y2="19.34" gradientUnits="objectBoundingBox">
      <stop offset="0" stop-color="#e1473d"/>
      <stop offset="1" stop-color="#e9605a"/>
    </linearGradient>
    <clipPath id="clip-path-38">
      <path id="Trazado_242380" data-name="Trazado 242380" d="M207.947,127.261v2.786a.541.541,0,0,0,.412.524,1.251,1.251,0,0,0,.6,0,.54.54,0,0,0,.41-.522v-2.788Z" fill="none"/>
    </clipPath>
    <linearGradient id="linear-gradient-30" x1="-59.961" y1="56.718" x2="-59.671" y2="56.718" xlink:href="#linear-gradient-29"/>
    <clipPath id="clip-path-39">
      <path id="Trazado_242381" data-name="Trazado 242381" d="M192.681,130.528l-.153,1.035,4.781-.135-.083-.891a.686.686,0,0,0-.519-.4,11.469,11.469,0,0,0-1.75-.147,3.969,3.969,0,0,0-2.276.537" fill="none"/>
    </clipPath>
    <linearGradient id="linear-gradient-31" x1="-109.77" y1="19.34" x2="-109.204" y2="19.34" xlink:href="#linear-gradient-29"/>
    <clipPath id="clip-path-40">
      <path id="Trazado_242382" data-name="Trazado 242382" d="M194.206,126.968v3.079a.542.542,0,0,0,.413.524,1.251,1.251,0,0,0,.6,0,.539.539,0,0,0,.41-.522v-3.081Z" fill="none"/>
    </clipPath>
    <linearGradient id="linear-gradient-32" x1="-51.569" y1="56.068" x2="-51.302" y2="56.068" xlink:href="#linear-gradient-29"/>
    <clipPath id="clip-path-41">
      <path id="Trazado_242383" data-name="Trazado 242383" d="M195.209,125.236c-.856.012-1.58.387-1.705.891a2.254,2.254,0,0,0,.046,1.155.724.724,0,0,0,.7.361l15.256.3a.694.694,0,0,0,.664-.3,1.245,1.245,0,0,0-.037-.926,1.158,1.158,0,0,0-.843-.579c-3.311-.783-8.856-.917-12.277-.917-.705,0-1.321.006-1.807.012" fill="none"/>
    </clipPath>
    <linearGradient id="linear-gradient-33" x1="-11.287" y1="19.631" x2="-11.228" y2="19.631" xlink:href="#linear-gradient-29"/>
    <clipPath id="clip-path-42">
      <path id="Trazado_242384" data-name="Trazado 242384" d="M205,125.836c0,.027.035.05.081.051a26.967,26.967,0,0,1,3.762.42,1.012,1.012,0,0,1,.764.464,1.263,1.263,0,0,1,.086.655c0,.027.029.051.075.054h.008c.042,0,.079-.02.083-.045a1.323,1.323,0,0,0-.092-.691,1.157,1.157,0,0,0-.877-.533,27.218,27.218,0,0,0-3.8-.425c-.048,0-.085.021-.085.049" fill="none"/>
    </clipPath>
    <linearGradient id="linear-gradient-34" x1="-42.426" y1="21.724" x2="-42.219" y2="21.724" xlink:href="#linear-gradient-3"/>
    <clipPath id="clip-path-43">
      <path id="Trazado_242385" data-name="Trazado 242385" d="M185.684,131.541a1.261,1.261,0,0,0-1.084.976,41.608,41.608,0,0,0-1.015,9.308,1.1,1.1,0,0,0,.9,1.053l14.137,2.674h5.022l15.064-2.994a1.177,1.177,0,0,0,.949-1.094,48.976,48.976,0,0,0-.267-9.308,1.3,1.3,0,0,0-1.267-1.075c-2.059-.026-6.98-.081-12.462-.081-7.642,0-16.375.106-19.981.541" fill="none"/>
    </clipPath>
    <linearGradient id="linear-gradient-35" x1="-4.966" y1="5.795" x2="-4.939" y2="5.795" xlink:href="#linear-gradient-7"/>
    <clipPath id="clip-path-45">
      <path id="Trazado_242387" data-name="Trazado 242387" d="M198.722,141.161a1.135,1.135,0,0,0-1.134,1.233l.377,4.234a1.136,1.136,0,0,0,1.134,1.033h4.4a1.137,1.137,0,0,0,1.131-1l.508-4.234a1.135,1.135,0,0,0-1.13-1.267Z" fill="none"/>
    </clipPath>
    <linearGradient id="linear-gradient-36" x1="-23.35" y1="10.97" x2="-23.231" y2="10.97" xlink:href="#linear-gradient-29"/>
    <clipPath id="clip-path-46">
      <path id="Trazado_242388" data-name="Trazado 242388" d="M199.353,141.935a.864.864,0,0,0-.863.939l.287,3.222a.864.864,0,0,0,.863.786h3.349a.865.865,0,0,0,.86-.76l.387-3.222a.864.864,0,0,0-.86-.965Z" fill="none"/>
    </clipPath>
    <linearGradient id="linear-gradient-37" x1="-33.911" y1="16.185" x2="-33.74" y2="16.185" xlink:href="#linear-gradient-7"/>
    <clipPath id="clip-path-48">
      <path id="Trazado_242390" data-name="Trazado 242390" d="M201.176,106.964c-.266,7.156-.376,12.765-.376,12.765s-1.832,6.105-1.832,7.326,4.4,1.481,4.946.741-.061-7.456-.061-7.456l3.556-12.311a12.814,12.814,0,0,0-5.319-1.093q-.444,0-.914.028" fill="none"/>
    </clipPath>
    <linearGradient id="linear-gradient-38" x1="-18.683" y1="5.166" x2="-18.589" y2="5.166" xlink:href="#linear-gradient-3"/>
    <clipPath id="clip-path-50">
      <path id="Trazado_242392" data-name="Trazado 242392" d="M292.439,197.162a1.441,1.441,0,0,0-1.432,1.615l.513,4.22a1.744,1.744,0,0,0,1.529,1.525,26.922,26.922,0,0,0,5.647.088,1.492,1.492,0,0,0,1.253-1.936,15.36,15.36,0,0,0-2.83-5.512Z" fill="none"/>
    </clipPath>
    <linearGradient id="linear-gradient-39" x1="-31.173" y1="3.236" x2="-31.065" y2="3.236" xlink:href="#linear-gradient-2"/>
    <clipPath id="clip-path-51">
      <path id="Trazado_242393" data-name="Trazado 242393" d="M253.557,154s2.645,26.8,3.116,37.516a8.4,8.4,0,0,1-1.243,4.774l-4.6,7.471,11.691-6.9.233-1.426L260.84,192.8l2.507-30.02a9.215,9.215,0,0,0-1.048-5.094l-2.419-4.543-5.533-3.794Z" fill="none"/>
    </clipPath>
    <linearGradient id="linear-gradient-40" x1="-4.151" y1="3.134" x2="-4.133" y2="3.134" gradientUnits="objectBoundingBox">
      <stop offset="0" stop-color="#a22b25"/>
      <stop offset="1" stop-color="#c0423c"/>
    </linearGradient>
    <clipPath id="clip-path-52">
      <path id="Trazado_242394" data-name="Trazado 242394" d="M259.217,197.53c-1.923,1.16-7.824,5.314-7.824,5.314a5.325,5.325,0,0,0-1.517.041.987.987,0,0,0,.184,1.956h3.731a2.248,2.248,0,0,0,1.783-.874c1.163-1.511,3.573-4.461,4.725-4.537,1.551-.1,1.353,5.411,1.353,5.411h.869l1.1-6.853a4.057,4.057,0,0,0-2.129-4.24,5.735,5.735,0,0,1-2.277,3.782" fill="none"/>
    </clipPath>
    <linearGradient id="linear-gradient-41" x1="-16.361" y1="2.547" x2="-16.295" y2="2.547" xlink:href="#linear-gradient-2"/>
    <clipPath id="clip-path-53">
      <path id="Trazado_242395" data-name="Trazado 242395" d="M270.36,151.558s15.5,29.4,17.963,36.111a64.54,64.54,0,0,1,3.36,12.843c.051.828,1.082,1.623,3.923,1.623a2.724,2.724,0,0,0,2.535-1.156,1.658,1.658,0,0,0,.063-1.6c-.9-1.814-3.742-7.613-4.8-10.243-1.257-3.14-3.963-17.369-5.448-22.317s-3.161-10.314-9.624-15.257A7.13,7.13,0,0,0,274,149.626a4.6,4.6,0,0,0-3.641,1.932" fill="none"/>
    </clipPath>
    <linearGradient id="linear-gradient-42" x1="-4.698" y1="1.92" x2="-4.68" y2="1.92" xlink:href="#linear-gradient-40"/>
    <clipPath id="clip-path-55">
      <path id="Trazado_242397" data-name="Trazado 242397" d="M246.683,104.737a27.849,27.849,0,0,0-.453,10.762c1.007,5.184,7.327,38.5,7.327,38.5,9.957,2.017,25.27-2.031,25.27-2.031-6.342-11.26-7.767-35.294-9.393-40.195s-8.864-8.388-8.864-8.388a15.46,15.46,0,0,1-13.887,1.353" fill="none"/>
    </clipPath>
    <linearGradient id="linear-gradient-43" x1="-3.696" y1="2.137" x2="-3.68" y2="2.137" xlink:href="#linear-gradient-2"/>
    <clipPath id="clip-path-56">
      <path id="Trazado_242398" data-name="Trazado 242398" d="M253.424,55.506l-2.7,1.195a1.82,1.82,0,0,0-1.064,1.911l1.4,10.124a1.574,1.574,0,0,0,.167.551c.917,1.657,3.662,2.483,5.791,2.885,1.3.245,2.473.456,2.161-.83l-3.25-14.6a1.817,1.817,0,0,0-2.505-1.235" fill="none"/>
    </clipPath>
    <linearGradient id="linear-gradient-44" x1="-23.057" y1="9.396" x2="-22.965" y2="9.396" xlink:href="#linear-gradient-40"/>
    <clipPath id="clip-path-57">
      <path id="Trazado_242399" data-name="Trazado 242399" d="M261.643,82.4a1.281,1.281,0,0,0,.285,1.557c11.82,10.352,8.932,19.514,7.4,22.629a1.068,1.068,0,0,1-1.62.367,2.166,2.166,0,0,0-2.814.122l-2.809,5.939a1.054,1.054,0,0,0,.06,1.008.769.769,0,0,0,1.126.2,24.724,24.724,0,0,1,4.089-2.774,5.116,5.116,0,0,0,2.239-1.3c19.785-17.055-2.9-33.286-2.9-33.286-2.327.771-4.226,3.939-5.057,5.534" fill="none"/>
    </clipPath>
    <linearGradient id="linear-gradient-45" x1="-9.33" y1="3.856" x2="-9.294" y2="3.856" xlink:href="#linear-gradient-40"/>
    <clipPath id="clip-path-58">
      <path id="Trazado_242400" data-name="Trazado 242400" d="M249.7,43.432s-3.46,2.342-4.947,8.307.929,8.105,3.406,7.975a11.5,11.5,0,0,0,9.18-5.177c2.722-3.743-1.694-11.625-5.877-11.625a3.241,3.241,0,0,0-1.762.52" fill="none"/>
    </clipPath>
    <linearGradient id="linear-gradient-46" x1="-14.431" y1="10.543" x2="-14.372" y2="10.543" xlink:href="#linear-gradient-40"/>
    <clipPath id="clip-path-60">
      <path id="Trazado_242402" data-name="Trazado 242402" d="M255.174,52.863l.837,1.937c1.226-.97,4.282-3.821,2.035-5.078a1.576,1.576,0,0,0-.768-.226c-1.624,0-2.1,3.367-2.1,3.367" fill="none"/>
    </clipPath>
    <linearGradient id="linear-gradient-47" x1="-49.666" y1="32.421" x2="-49.472" y2="32.421" xlink:href="#linear-gradient-40"/>
    <clipPath id="clip-path-62">
      <rect id="Rectángulo_103091" data-name="Rectángulo 103091" width="45.541" height="45.541" transform="translate(7.315 12.966)" fill="none"/>
    </clipPath>
  </defs>
  <g id="Grupo_180069" data-name="Grupo 180069" clip-path="url(#clip-path)">
    <g id="Grupo_179946" data-name="Grupo 179946">
      <g id="Grupo_179945-2" data-name="Grupo 179945" clip-path="url(#clip-path-2)">
        <rect id="Rectángulo_103032" data-name="Rectángulo 103032" width="362.165" height="373.64" transform="translate(-98.983 121.391) rotate(-48.814)" fill="url(#linear-gradient)"/>
      </g>
    </g>
    <g id="Grupo_179951" data-name="Grupo 179951">
      <g id="Grupo_179950" data-name="Grupo 179950" clip-path="url(#clip-path)">
        <g id="Grupo_179949" data-name="Grupo 179949" opacity="0.35">
          <g id="Grupo_179948" data-name="Grupo 179948">
            <g id="Grupo_179947" data-name="Grupo 179947" clip-path="url(#clip-path-4)">
              <path id="Trazado_242327" data-name="Trazado 242327" d="M305.508,186.7a3.885,3.885,0,0,1,.249.372,2.855,2.855,0,0,1-1.85,4.366,5.243,5.243,0,0,1-5.714-2.172,98,98,0,0,0-13.723-17.776,116.364,116.364,0,0,0-17.989-15.224l-1.232-.853-1.259-.818c-.836-.55-1.69-1.076-2.545-1.6q-2.559-1.58-5.215-3c-.879-.483-1.783-.924-2.669-1.387s-1.8-.876-2.7-1.314c-.917-.405-1.816-.833-2.745-1.214s-1.839-.777-2.771-1.124-1.851-.715-2.787-1.033c-.468-.161-.931-.331-1.4-.482l-1.4-.444c-.931-.312-1.875-.547-2.807-.823-.937-.244-1.873-.487-2.806-.7-.935-.2-1.865-.424-2.794-.58-.464-.082-.926-.176-1.389-.252l-1.378-.205c-.231-.032-.458-.073-.691-.1l-.705-.076-1.406-.148c-.94-.065-1.875-.152-2.809-.19a90.863,90.863,0,0,0-22.079,1.808c-7.269,1.415-14.462,3.437-21.926,5.55-3.735,1.053-7.528,2.149-11.466,3.192-1.96.531-3.974,1.027-6.01,1.519-1.031.237-2.052.483-3.1.709l-3.064.658c-7.845,1.67-15.983,3.3-24.591,4.5a175.807,175.807,0,0,1-27.546,1.823,124.345,124.345,0,0,1-15.335-1.2,107.757,107.757,0,0,1-16.3-3.6c-2.761-.845-5.53-1.823-8.27-2.932-1.372-.552-2.733-1.148-4.09-1.765-.675-.312-1.331-.612-2.02-.956s-1.383-.685-2.06-1.045a87.658,87.658,0,0,1-15.116-10.011c-1.146-.947-2.268-1.911-3.349-2.909-.576-.523-1-.932-1.479-1.378l-1.4-1.325c-.932-.887-1.838-1.809-2.736-2.739s-1.765-1.892-2.644-2.845a92.244,92.244,0,0,1-9.375-12.4,77.828,77.828,0,0,1-6.875-13.652A71.68,71.68,0,0,1,9,59.61a91.5,91.5,0,0,1,8.766-23.8,109.99,109.99,0,0,1,6.5-10.76c1.2-1.747,2.464-3.473,3.821-5.2.682-.866,1.381-1.735,2.136-2.625.378-.446.765-.893,1.191-1.364l.672-.73.387-.4.24-.238.368-.345C45.752,3.421,68.371,4.46,83.606,16.462s17.32,30.424,4.658,41.146l.121-.131c.026-.033,0-.023,0-.023l-.015,0c-.012-.009-.065.02-.1.03a3.181,3.181,0,0,0-.29.15c-.214.113-.457.267-.7.419-.49.31-1.006.66-1.518,1.027-1.03.742-2.071,1.541-3.086,2.372a65.621,65.621,0,0,0-5.78,5.316,55.942,55.942,0,0,0-8.852,11.719A35.008,35.008,0,0,0,63.86,90.695a25.639,25.639,0,0,0-.109,6.165,28.2,28.2,0,0,0,1.382,6.327,36.112,36.112,0,0,0,2.989,6.58c.343.555.66,1.119,1.018,1.681.378.558.726,1.128,1.122,1.691l1.159,1.633c.292.433.618.859.939,1.283a28.35,28.35,0,0,0,4.66,4.656c.218.18.445.35.671.523l.757.541c.516.359,1.042.714,1.592,1.052,1.1.683,2.254,1.337,3.489,1.954a65.827,65.827,0,0,0,17.964,5.542q2.573.464,5.25.782t5.442.533c3.678.285,7.452.436,11.285.483,7.671.1,15.555-.228,23.647-.673l2.9-.164c.937-.052,1.884-.128,2.834-.191,1.9-.154,3.822-.318,5.769-.519,3.882-.39,7.845-.864,11.873-1.363,8.061-.985,16.442-2.024,25.245-2.4a120.1,120.1,0,0,1,27.307,1.632c1.154.205,2.309.464,3.457.7,1.153.279,2.281.532,3.444.839l1.731.453c.574.16,1.14.335,1.709.5,1.14.323,2.252.713,3.366,1.082a102.5,102.5,0,0,1,12.686,5.421,137.3,137.3,0,0,1,22.045,14.141,171.305,171.305,0,0,1,18.45,16.728,211.722,211.722,0,0,1,15.56,18.368Z" fill="#fdb74d"/>
            </g>
          </g>
        </g>
        <path id="Trazado_242328" data-name="Trazado 242328" d="M267.725,33.567a.289.289,0,0,1-.05,0,.3.3,0,0,1-.25-.35c.027-.164.052-.329.075-.493a.3.3,0,1,1,.6.083c-.023.17-.049.34-.077.51a.3.3,0,0,1-.3.254" fill="#91b3fa"/>
        <path id="Trazado_242329" data-name="Trazado 242329" d="M248.712,49.441h0c-.337-.005-.678-.019-1.015-.042a.3.3,0,1,1,.041-.607c.327.022.657.036.983.041a.3.3,0,0,1,0,.608m1-.011a.3.3,0,0,1-.011-.608c.325-.013.654-.034.98-.063a.3.3,0,1,1,.055.606c-.336.03-.677.052-1.013.065h-.011m-2.991-.125-.038,0c-.336-.042-.674-.092-1-.15a.3.3,0,1,1,.106-.6c.319.056.646.1.972.145a.3.3,0,0,1-.036.606m4.979-.056a.3.3,0,0,1-.043-.6c.322-.047.648-.1.969-.166a.3.3,0,0,1,.118.6c-.331.065-.668.123-1,.171l-.044,0m-6.947-.291a.271.271,0,0,1-.069-.008c-.328-.076-.659-.161-.982-.255a.3.3,0,1,1,.168-.584c.313.09.633.173.951.247a.3.3,0,0,1-.068.6m8.906-.1a.3.3,0,0,1-.074-.6c.316-.081.635-.17.946-.267a.3.3,0,0,1,.18.581c-.321.1-.65.192-.977.275a.276.276,0,0,1-.075.01M242.832,48.4a.306.306,0,0,1-.1-.016c-.318-.11-.638-.23-.951-.357a.3.3,0,0,1,.228-.564c.3.123.613.239.921.345a.3.3,0,0,1-.1.592m12.734-.136a.3.3,0,0,1-.1-.59c.306-.112.613-.235.913-.364a.3.3,0,0,1,.24.56c-.31.133-.627.259-.943.375a.3.3,0,0,1-.105.019m-14.586-.614a.3.3,0,0,1-.128-.028c-.306-.143-.612-.295-.91-.454a.3.3,0,0,1,.286-.537c.288.153.584.3.881.44a.3.3,0,0,1-.129.579m16.422-.174a.3.3,0,0,1-.135-.577c.293-.144.586-.3.87-.458a.3.3,0,1,1,.3.531c-.294.165-.6.324-.9.473a.305.305,0,0,1-.134.031m-18.187-.764a.3.3,0,0,1-.156-.044c-.289-.173-.577-.357-.857-.546a.3.3,0,1,1,.341-.5c.271.183.55.361.829.529a.3.3,0,0,1-.157.565m19.93-.212a.3.3,0,0,1-.162-.562c.275-.174.55-.357.817-.546a.3.3,0,0,1,.352.5c-.276.2-.561.385-.845.565a.308.308,0,0,1-.162.047M237.559,45.6a.3.3,0,0,1-.183-.062c-.269-.2-.536-.416-.794-.633a.3.3,0,0,1,.392-.466c.25.211.509.417.769.614a.3.3,0,0,1-.184.547m23.218-.247a.3.3,0,0,1-.189-.543c.253-.2.508-.412.756-.63a.3.3,0,1,1,.4.457c-.256.225-.519.444-.78.651a.3.3,0,0,1-.188.065M236.031,44.31a.3.3,0,0,1-.208-.082c-.245-.231-.488-.471-.722-.714a.3.3,0,1,1,.439-.421c.226.235.462.468.7.691a.3.3,0,0,1-.208.526m26.247-.279a.3.3,0,0,1-.213-.522c.233-.227.463-.464.685-.706a.3.3,0,0,1,.448.412c-.229.25-.468.495-.708.73a.306.306,0,0,1-.212.086m-27.629-1.163a.3.3,0,0,1-.231-.106c-.22-.255-.436-.52-.643-.787a.3.3,0,0,1,.482-.372c.2.258.409.515.622.762a.3.3,0,0,1-.23.5m28.982-.309a.3.3,0,0,1-.193-.07.3.3,0,0,1-.041-.428c.208-.251.411-.512.606-.775a.3.3,0,1,1,.489.362c-.2.272-.412.541-.626.8a.306.306,0,0,1-.235.11m1.189-1.606a.3.3,0,0,1-.253-.472c.18-.274.355-.554.52-.834a.3.3,0,1,1,.524.308c-.169.289-.35.579-.537.861a.3.3,0,0,1-.254.137m1.012-1.722a.307.307,0,0,1-.14-.034.3.3,0,0,1-.129-.41c.15-.291.3-.588.43-.885a.3.3,0,1,1,.554.252c-.139.306-.289.613-.445.913a.3.3,0,0,1-.27.164m.828-1.819a.308.308,0,0,1-.111-.021.3.3,0,0,1-.172-.394c.119-.3.233-.615.336-.924a.3.3,0,0,1,.577.193c-.107.319-.224.64-.347.953a.3.3,0,0,1-.283.193m.634-1.894a.282.282,0,0,1-.081-.011.305.305,0,0,1-.213-.374c.088-.317.168-.638.238-.954a.3.3,0,1,1,.594.131c-.072.327-.155.658-.245.985a.3.3,0,0,1-.293.223" fill="#91b3fa"/>
        <path id="Trazado_242330" data-name="Trazado 242330" d="M233.424,41.283a.3.3,0,0,1-.25-.131c-.1-.141-.194-.284-.288-.427a.3.3,0,0,1,.51-.333c.091.139.183.277.278.414a.3.3,0,0,1-.25.477" fill="#91b3fa"/>
        <path id="Trazado_242331" data-name="Trazado 242331" d="M235.911,36.55a.227.227,0,0,0,.217.15l2.771-.04a12.05,12.05,0,0,0,2.633,2.891l-.3,2.753a.228.228,0,0,0,.13.23l3.008,1.412a.229.229,0,0,0,.26-.047l1.929-1.986a12.05,12.05,0,0,0,3.906.179l1.739,2.157a.227.227,0,0,0,.255.071l3.125-1.128a.229.229,0,0,0,.151-.218l-.04-2.77a12.065,12.065,0,0,0,2.89-2.633l2.753.3a.225.225,0,0,0,.23-.129l1.413-3.008a.227.227,0,0,0-.048-.26l-1.986-1.93a12.077,12.077,0,0,0,.18-3.906l2.157-1.739a.227.227,0,0,0,.071-.254l-1.129-3.126a.228.228,0,0,0-.217-.15l-2.77.04a12.069,12.069,0,0,0-2.633-2.89l.3-2.753a.229.229,0,0,0-.13-.231l-3.008-1.412a.228.228,0,0,0-.26.048l-1.929,1.985a12.078,12.078,0,0,0-3.906-.179l-1.739-2.157a.229.229,0,0,0-.255-.071l-3.125,1.129a.228.228,0,0,0-.151.217l.04,2.77a12.085,12.085,0,0,0-2.89,2.633l-2.753-.3a.228.228,0,0,0-.23.13l-1.412,3.008a.226.226,0,0,0,.047.26l1.986,1.929a12.079,12.079,0,0,0-.18,3.906l-2.156,1.739a.228.228,0,0,0-.072.254Z" fill="#91b3fa"/>
        <path id="Trazado_242332" data-name="Trazado 242332" d="M249.078,33.288a3.257,3.257,0,1,1,1.814-.558,3.249,3.249,0,0,1-1.814.558m-.008-5.9a2.64,2.64,0,1,0,.5.048,2.722,2.722,0,0,0-.5-.048" fill="#bdd0fb"/>
        <path id="Trazado_242333" data-name="Trazado 242333" d="M249.122,38.325a8.276,8.276,0,0,1-3.524-.788,8.376,8.376,0,0,1-1.317-.772l-.015-.011-.027-.019-.019-.014-.093-.069-.045-.033.369-.484a7.81,7.81,0,0,0,1.406.851c.174.082.35.156.527.224A7.71,7.71,0,1,0,241.419,30a7.625,7.625,0,0,0,.039.77l-.6.062a8.324,8.324,0,1,1,8.269,7.489" fill="#bdd0fb"/>
        <path id="Trazado_242334" data-name="Trazado 242334" d="M269.843,51.831a.3.3,0,0,1-.168-.051.3.3,0,0,1-.085-.421q.143-.216.294-.427a.3.3,0,0,1,.494.355q-.144.2-.281.408a.3.3,0,0,1-.254.136" fill="#91b3fa"/>
        <path id="Trazado_242335" data-name="Trazado 242335" d="M295.29,56.78a.3.3,0,0,1-.3-.243c-.066-.322-.145-.647-.234-.966a.3.3,0,1,1,.585-.165c.094.333.176.673.245,1.01a.3.3,0,0,1-.238.358.315.315,0,0,1-.061.006m-.55-1.955a.3.3,0,0,1-.286-.2c-.112-.311-.238-.621-.372-.922a.3.3,0,0,1,.555-.248c.141.314.272.638.389.963a.3.3,0,0,1-.182.39.312.312,0,0,1-.1.018m-.828-1.855a.3.3,0,0,1-.268-.16c-.156-.29-.325-.58-.5-.859a.3.3,0,1,1,.514-.325c.184.291.361.593.524.9a.3.3,0,0,1-.124.412.31.31,0,0,1-.144.036m-1.088-1.716a.3.3,0,0,1-.244-.123c-.2-.268-.406-.529-.62-.778a.3.3,0,0,1,.463-.4c.222.26.439.533.646.812a.3.3,0,0,1-.245.485m-22.071-.644a.3.3,0,0,1-.233-.5c.222-.265.455-.525.694-.772a.3.3,0,0,1,.438.423c-.229.236-.453.485-.665.739a.3.3,0,0,1-.234.109m20.75-.9a.306.306,0,0,1-.217-.091c-.23-.233-.474-.462-.724-.681a.3.3,0,1,1,.4-.458c.261.228.515.468.756.712a.3.3,0,0,1-.216.518m-19.338-.562a.308.308,0,0,1-.227-.1.3.3,0,0,1,.024-.43c.256-.23.525-.453.8-.664a.3.3,0,1,1,.372.481c-.262.2-.519.416-.764.636a.3.3,0,0,1-.2.078m17.809-.774a.3.3,0,0,1-.183-.061c-.263-.2-.537-.389-.815-.568a.3.3,0,0,1,.329-.512c.291.188.577.387.852.594a.3.3,0,0,1-.183.547m-16.2-.469a.3.3,0,0,1-.169-.558c.289-.192.586-.375.885-.544a.3.3,0,0,1,.3.53c-.287.162-.572.337-.848.521a.306.306,0,0,1-.168.051m14.495-.63a.3.3,0,0,1-.146-.037c-.29-.158-.589-.308-.889-.444a.3.3,0,1,1,.252-.554c.313.143.626.3.928.464a.3.3,0,0,1-.145.571m-12.727-.371a.3.3,0,0,1-.13-.579c.314-.149.635-.287.954-.411a.3.3,0,1,1,.219.568c-.3.118-.612.25-.913.393a.315.315,0,0,1-.13.029m10.878-.47a.3.3,0,0,1-.105-.019c-.308-.114-.625-.218-.944-.311a.3.3,0,1,1,.169-.584c.333.1.665.206.986.325a.3.3,0,0,1-.106.589m-8.984-.264a.3.3,0,0,1-.089-.6c.331-.1.669-.192,1-.268a.3.3,0,1,1,.134.593c-.32.073-.643.16-.96.256a.306.306,0,0,1-.089.014m7.034-.3a.347.347,0,0,1-.064-.006c-.322-.069-.652-.127-.979-.173a.3.3,0,0,1-.259-.343.306.306,0,0,1,.343-.259c.342.047.686.108,1.022.18a.3.3,0,0,1-.063.6m-5.053-.15a.3.3,0,0,1-.046-.6c.342-.052.689-.092,1.032-.119a.3.3,0,1,1,.047.606c-.328.026-.66.065-.987.114a.245.245,0,0,1-.046,0m3.041-.129h-.021c-.3-.02-.605-.03-.908-.03h-.087a.3.3,0,0,1,0-.608h.09c.317,0,.636.01.949.031a.3.3,0,0,1-.02.608" fill="#91b3fa"/>
        <path id="Trazado_242336" data-name="Trazado 242336" d="M295.515,58.3a.3.3,0,0,1-.3-.276c-.015-.165-.033-.329-.054-.493a.3.3,0,1,1,.6-.077c.021.171.04.342.056.514a.3.3,0,0,1-.275.331h-.028" fill="#91b3fa"/>
        <path id="Trazado_242337" data-name="Trazado 242337" d="M270.791,58.428a.17.17,0,0,0,.082.178l1.78,1.017a8.953,8.953,0,0,0,.589,2.833L272.018,64.1a.168.168,0,0,0,0,.2l1.385,2.032a.168.168,0,0,0,.183.068l1.977-.539a8.939,8.939,0,0,0,2.421,1.584l.3,2.029a.168.168,0,0,0,.135.141l2.416.458a.17.17,0,0,0,.178-.082l1.017-1.78a8.916,8.916,0,0,0,2.833-.59L286.5,68.84a.168.168,0,0,0,.2,0l2.033-1.385a.169.169,0,0,0,.067-.184l-.539-1.976a8.942,8.942,0,0,0,1.585-2.421l2.029-.3a.17.17,0,0,0,.141-.136l.457-2.416a.166.166,0,0,0-.082-.177l-1.78-1.018A8.943,8.943,0,0,0,290.015,56l1.224-1.643a.168.168,0,0,0,0-.2l-1.385-2.032a.168.168,0,0,0-.183-.067L287.7,52.6a8.9,8.9,0,0,0-2.421-1.585l-.3-2.029a.167.167,0,0,0-.135-.141l-2.416-.457a.168.168,0,0,0-.178.081l-1.017,1.78a8.916,8.916,0,0,0-2.833.59l-1.643-1.225a.17.17,0,0,0-.2,0L274.532,51a.168.168,0,0,0-.068.184L275,53.159a8.966,8.966,0,0,0-1.585,2.421l-2.028.3a.169.169,0,0,0-.141.136Z" fill="#91b3fa"/>
        <path id="Trazado_242338" data-name="Trazado 242338" d="M281.627,61.715a2.487,2.487,0,1,1,1.863-.836,2.479,2.479,0,0,1-1.863.836m0-4.366c-.039,0-.077,0-.115,0a1.894,1.894,0,1,0,.115,0" fill="#bdd0fb"/>
        <path id="Trazado_242339" data-name="Trazado 242339" d="M281.694,65.474a6.322,6.322,0,0,1-1.174-.111,6.247,6.247,0,0,1-4.574-3.672l-.013-.029h0l-.035-.084.564-.229a5.663,5.663,0,0,0,.567,1.057l.054.077a5.582,5.582,0,0,0,3.343,2.24c.069.016.138.03.207.044a5.631,5.631,0,0,0,6.579-4.484,5.7,5.7,0,0,0,.1-1.06,5.631,5.631,0,0,0-10.741-2.353l-.552-.255a6.24,6.24,0,0,1,11.9,2.606,6.332,6.332,0,0,1-.111,1.175,6.242,6.242,0,0,1-6.116,5.079" fill="#bdd0fb"/>
        <path id="Trazado_242340" data-name="Trazado 242340" d="M302.968,19.035a.312.312,0,0,0-.266-.247l-3.775-.49a16.59,16.59,0,0,0-3.013-4.448l.942-3.686a.312.312,0,0,0-.131-.338l-3.814-2.512a.313.313,0,0,0-.363.014l-3.014,2.321a16.555,16.555,0,0,0-5.276-1.01l-1.941-3.275a.313.313,0,0,0-.332-.147l-4.473.921a.312.312,0,0,0-.247.266l-.49,3.775a16.606,16.606,0,0,0-4.448,3.013l-3.685-.942a.313.313,0,0,0-.339.131l-2.511,3.814a.311.311,0,0,0,.013.363l2.322,3.013a16.567,16.567,0,0,0-1.011,5.277l-3.275,1.941a.313.313,0,0,0-.147.332l.921,4.473a.314.314,0,0,0,.266.247l3.775.489a16.555,16.555,0,0,0,3.014,4.448l-.943,3.686a.313.313,0,0,0,.131.339l3.814,2.511a.313.313,0,0,0,.363-.013l3.014-2.322a16.584,16.584,0,0,0,5.276,1.011l1.941,3.275a.313.313,0,0,0,.332.147l4.473-.921a.312.312,0,0,0,.247-.266l.49-3.775a16.594,16.594,0,0,0,4.448-3.014l3.686.943a.312.312,0,0,0,.338-.131l2.511-3.814a.313.313,0,0,0-.013-.363l-2.322-3.014a16.556,16.556,0,0,0,1.011-5.276l3.275-1.942a.312.312,0,0,0,.147-.332Z" fill="#91b3fa"/>
        <path id="Trazado_242341" data-name="Trazado 242341" d="M283.8,29.675a4.36,4.36,0,1,1,1.43-8.477,4.361,4.361,0,0,1-1.43,8.477m-.006-8.113a3.765,3.765,0,1,0,1.236.211,3.726,3.726,0,0,0-1.236-.211" fill="#bdd0fb"/>
        <path id="Trazado_242342" data-name="Trazado 242342" d="M283.675,36.668a11.324,11.324,0,1,1,6.25-20.782c.117.077.233.156.347.238a11.423,11.423,0,0,1,1.243,1.024l.008.009.005.005.083.079.016.016.047.046.113.114-.434.426a10.742,10.742,0,0,0-1.763-1.449,10.631,10.631,0,0,0-6.686-1.738,10.991,10.991,0,0,0-1.3.179l-.064.013A10.713,10.713,0,1,0,294.4,25.805l.608.026a11.327,11.327,0,0,1-9.03,10.6,11.432,11.432,0,0,1-2.306.236" fill="#bdd0fb"/>
      </g>
    </g>
    <g id="Grupo_179953" data-name="Grupo 179953">
      <g id="Grupo_179952" data-name="Grupo 179952" clip-path="url(#clip-path-5)">
        <rect id="Rectángulo_103035" data-name="Rectángulo 103035" width="76.055" height="70.839" transform="matrix(0.575, -0.818, 0.818, 0.575, 82.78, 88.356)" fill="url(#linear-gradient-2)"/>
      </g>
    </g>
    <g id="Grupo_179955" data-name="Grupo 179955">
      <g id="Grupo_179954" data-name="Grupo 179954" clip-path="url(#clip-path-6)">
        <rect id="Rectángulo_103036" data-name="Rectángulo 103036" width="17.099" height="54.171" transform="translate(134.788 150.529) rotate(-5.112)" fill="url(#linear-gradient-3)"/>
      </g>
    </g>
    <g id="Grupo_179957" data-name="Grupo 179957">
      <g id="Grupo_179956" data-name="Grupo 179956" clip-path="url(#clip-path-7)">
        <rect id="Rectángulo_103037" data-name="Rectángulo 103037" width="12.31" height="15.906" transform="translate(138.027 204.333) rotate(-84.201)" fill="url(#linear-gradient-4)"/>
      </g>
    </g>
    <g id="Grupo_179959" data-name="Grupo 179959">
      <g id="Grupo_179958" data-name="Grupo 179958" clip-path="url(#clip-path-8)">
        <rect id="Rectángulo_103038" data-name="Rectángulo 103038" width="55.946" height="56.606" transform="matrix(0.755, -0.655, 0.655, 0.755, 75.347, 169.605)" fill="url(#linear-gradient-5)"/>
      </g>
    </g>
    <g id="Grupo_179961" data-name="Grupo 179961">
      <g id="Grupo_179960" data-name="Grupo 179960" clip-path="url(#clip-path-9)">
        <rect id="Rectángulo_103039" data-name="Rectángulo 103039" width="19.906" height="18.124" transform="translate(84.381 192.037) rotate(-59.309)" fill="url(#linear-gradient-6)"/>
      </g>
    </g>
    <g id="Grupo_179963" data-name="Grupo 179963">
      <g id="Grupo_179962" data-name="Grupo 179962" clip-path="url(#clip-path-10)">
        <rect id="Rectángulo_103040" data-name="Rectángulo 103040" width="44.81" height="46.219" transform="matrix(0.766, -0.643, 0.643, 0.766, 119.303, 87.123)" fill="url(#linear-gradient-7)"/>
      </g>
    </g>
    <g id="Grupo_179965" data-name="Grupo 179965">
      <g id="Grupo_179964" data-name="Grupo 179964" clip-path="url(#clip-path-11)">
        <rect id="Rectángulo_103041" data-name="Rectángulo 103041" width="54.749" height="60.663" transform="matrix(0.848, -0.53, 0.53, 0.848, 101.829, 119.47)" fill="url(#linear-gradient-8)"/>
      </g>
    </g>
    <g id="Grupo_179967" data-name="Grupo 179967">
      <g id="Grupo_179966" data-name="Grupo 179966" clip-path="url(#clip-path-12)">
        <rect id="Rectángulo_103042" data-name="Rectángulo 103042" width="19.16" height="14.705" transform="translate(141.085 73.185) rotate(-71.03)" fill="url(#linear-gradient-9)"/>
      </g>
    </g>
    <g id="Grupo_179969" data-name="Grupo 179969">
      <g id="Grupo_179968" data-name="Grupo 179968" clip-path="url(#clip-path-13)">
        <rect id="Rectángulo_103043" data-name="Rectángulo 103043" width="21.639" height="21.71" transform="translate(139.737 48.436) rotate(-23.126)" fill="url(#linear-gradient-10)"/>
      </g>
    </g>
    <g id="Grupo_179971" data-name="Grupo 179971">
      <g id="Grupo_179970" data-name="Grupo 179970" clip-path="url(#clip-path-14)">
        <rect id="Rectángulo_103044" data-name="Rectángulo 103044" width="27.885" height="27.704" transform="matrix(0.575, -0.818, 0.818, 0.575, 132.839, 54.482)" fill="url(#linear-gradient-11)"/>
      </g>
    </g>
    <g id="Grupo_179973" data-name="Grupo 179973">
      <g id="Grupo_179972" data-name="Grupo 179972" clip-path="url(#clip-path-15)">
        <rect id="Rectángulo_103045" data-name="Rectángulo 103045" width="6.649" height="6.745" transform="matrix(0.92, -0.393, 0.393, 0.92, 143.627, 53.127)" fill="url(#linear-gradient-12)"/>
      </g>
    </g>
    <g id="Grupo_179975" data-name="Grupo 179975">
      <g id="Grupo_179974" data-name="Grupo 179974" clip-path="url(#clip-path)">
        <path id="Trazado_242354" data-name="Trazado 242354" d="M169.757,63.9l-.083-.082.114-.114.083.082Z" fill="#f0f0f0"/>
        <path id="Trazado_242355" data-name="Trazado 242355" d="M121.749,86.109a7.694,7.694,0,0,1-4.465-6.971,10.676,10.676,0,0,1,3.522-7.732,18.226,18.226,0,0,1,7.607-4.079c.327-.094.659-.185.993-.277,2.169-.594,4.411-1.209,5.745-2.942a10.025,10.025,0,0,0,1.544-4.649c.083-.514.169-1.046.276-1.556.433-2.075,1.743-4.562,4.008-4.746l.013.161c-2.177.176-3.442,2.6-3.864,4.617-.106.508-.191,1.038-.274,1.55a10.153,10.153,0,0,1-1.575,4.721c-1.367,1.776-3.636,2.4-5.831,3-.333.092-.664.183-.99.277a18.082,18.082,0,0,0-7.541,4.04,10.513,10.513,0,0,0-3.472,7.614,7.529,7.529,0,0,0,4.365,6.824Z" fill="#91b3fa"/>
        <path id="Trazado_242356" data-name="Trazado 242356" d="M125.573,85.086a6.614,6.614,0,0,1-3.931-6.93,10.378,10.378,0,0,1,4.451-7.011,25.352,25.352,0,0,1,7.718-3.485l.048.153a25.239,25.239,0,0,0-7.671,3.462,10.213,10.213,0,0,0-4.385,6.9,6.448,6.448,0,0,0,3.825,6.762Z" fill="#91b3fa"/>
      </g>
    </g>
    <g id="Grupo_179977" data-name="Grupo 179977">
      <g id="Grupo_179976" data-name="Grupo 179976" clip-path="url(#clip-path-17)">
        <rect id="Rectángulo_103047" data-name="Rectángulo 103047" width="59.899" height="59.873" transform="translate(104.637 79.492)" fill="url(#linear-gradient-13)"/>
      </g>
    </g>
    <g id="Grupo_179979" data-name="Grupo 179979">
      <g id="Grupo_179978" data-name="Grupo 179978" clip-path="url(#clip-path)">
        <path id="Trazado_242358" data-name="Trazado 242358" d="M134.587,115.79a6.378,6.378,0,1,1,2.528-.527,6.362,6.362,0,0,1-2.528.527m0-12.043a5.677,5.677,0,1,0,2.089.4,5.654,5.654,0,0,0-2.089-.4m2.391,11.192h0Z" fill="#91b3fa"/>
        <path id="Trazado_242359" data-name="Trazado 242359" d="M134.638,126h0q-.426,0-.852-.023l.037-.7a16,16,0,0,0,16.633-18.547,16,16,0,0,0-31.8,2.531,16.15,16.15,0,0,0,.211,2.6,15.973,15.973,0,0,0,3.555,7.748l-.539.455a16.682,16.682,0,0,1-3.713-8.089,17.019,17.019,0,0,1-.219-2.711,16.71,16.71,0,1,1,19.388,16.526,16.884,16.884,0,0,1-2.7.218" fill="#91b3fa"/>
      </g>
    </g>
    <g id="Grupo_179981" data-name="Grupo 179981">
      <g id="Grupo_179980" data-name="Grupo 179980" clip-path="url(#clip-path-19)">
        <rect id="Rectángulo_103049" data-name="Rectángulo 103049" width="42.5" height="43.838" transform="matrix(0.766, -0.643, 0.643, 0.766, 100.874, 91.031)" fill="url(#linear-gradient-14)"/>
      </g>
    </g>
    <g id="Grupo_179983" data-name="Grupo 179983">
      <g id="Grupo_179982" data-name="Grupo 179982" clip-path="url(#clip-path-20)">
        <rect id="Rectángulo_103050" data-name="Rectángulo 103050" width="19.655" height="20.496" transform="translate(115.067 116.879) rotate(-37.519)" fill="url(#linear-gradient-15)"/>
      </g>
    </g>
    <g id="Grupo_179985" data-name="Grupo 179985">
      <g id="Grupo_179984" data-name="Grupo 179984" clip-path="url(#clip-path-21)">
        <rect id="Rectángulo_103051" data-name="Rectángulo 103051" width="16.666" height="17.179" transform="translate(230.351 104.341)" fill="url(#linear-gradient-16)"/>
      </g>
    </g>
    <g id="Grupo_179987" data-name="Grupo 179987">
      <g id="Grupo_179986" data-name="Grupo 179986" clip-path="url(#clip-path-22)">
        <rect id="Rectángulo_103052" data-name="Rectángulo 103052" width="10.059" height="12.874" transform="translate(217.672 203.723) rotate(-89.479)" fill="url(#linear-gradient-17)"/>
      </g>
    </g>
    <g id="Grupo_179989" data-name="Grupo 179989">
      <g id="Grupo_179988" data-name="Grupo 179988" clip-path="url(#clip-path-23)">
        <rect id="Rectángulo_103053" data-name="Rectángulo 103053" width="9.037" height="10.804" transform="matrix(0.618, -0.787, 0.787, 0.618, 216.871, 204.256)" fill="url(#linear-gradient-18)"/>
      </g>
    </g>
    <g id="Grupo_179991" data-name="Grupo 179991">
      <g id="Grupo_179990" data-name="Grupo 179990" clip-path="url(#clip-path-24)">
        <rect id="Rectángulo_103054" data-name="Rectángulo 103054" width="5.509" height="6.979" transform="matrix(0.993, -0.114, 0.114, 0.993, 224.532, 189.959)" fill="url(#linear-gradient-19)"/>
      </g>
    </g>
    <g id="Grupo_179993" data-name="Grupo 179993">
      <g id="Grupo_179992" data-name="Grupo 179992" clip-path="url(#clip-path-25)">
        <rect id="Rectángulo_103055" data-name="Rectángulo 103055" width="12.473" height="15.29" transform="translate(192.258 203.509) rotate(-51.861)" fill="url(#linear-gradient-20)"/>
      </g>
    </g>
    <g id="Grupo_179995" data-name="Grupo 179995">
      <g id="Grupo_179994" data-name="Grupo 179994" clip-path="url(#clip-path-26)">
        <rect id="Rectángulo_103056" data-name="Rectángulo 103056" width="8.976" height="18.068" transform="translate(193.163 203.461) rotate(-89.479)" fill="url(#linear-gradient-21)"/>
      </g>
    </g>
    <g id="Grupo_179997" data-name="Grupo 179997">
      <g id="Grupo_179996" data-name="Grupo 179996" clip-path="url(#clip-path-27)">
        <rect id="Rectángulo_103057" data-name="Rectángulo 103057" width="5.472" height="8.082" transform="matrix(0.993, -0.114, 0.114, 0.993, 204.774, 188.455)" fill="url(#linear-gradient-22)"/>
      </g>
    </g>
    <g id="Grupo_179999" data-name="Grupo 179999">
      <g id="Grupo_179998" data-name="Grupo 179998" clip-path="url(#clip-path)">
        <path id="Trazado_242369" data-name="Trazado 242369" d="M213.143,115.227a318.666,318.666,0,0,0-8.477,74.092,1.6,1.6,0,0,0,1.268,1.557,18.667,18.667,0,0,0,4,.463,1.482,1.482,0,0,0,1.413-1.238c1.211-7.1,8.157-47.087,12.115-53.58,0,0,2.6,35.617,1.771,54.1a.876.876,0,0,0,.773.91,14.713,14.713,0,0,0,3.213-.009,1.171,1.171,0,0,0,1.044-.995c.862-6.007,5.825-41.766,5.614-67.527-.012-1.452-3.842-7.768-3.842-7.768Z"/>
        <path id="Trazado_242370" data-name="Trazado 242370" d="M207.139,79.047a12.454,12.454,0,0,1,10.928-14.908c8.178-.865,16.354.951,20.394,1.46a8.356,8.356,0,0,1,5.278,2.834c5.36,6.2,17.121,23.183,3.278,40.294a25.776,25.776,0,0,1-6-4.385c1.532-4.317,1.657-9.834-1.552-16.6a16.049,16.049,0,0,1-.41,1.59,98.429,98.429,0,0,0-4.65,28.361.88.88,0,0,1-.536.825c-5.816,2.345-17.046.953-20.812.392A1.266,1.266,0,0,1,212,117.474c1.254-9.085-2.466-26.944-4.86-38.427" fill="#8c6df2"/>
      </g>
    </g>
    <g id="Grupo_180001" data-name="Grupo 180001">
      <g id="Grupo_180000" data-name="Grupo 180000" clip-path="url(#clip-path-29)">
        <rect id="Rectángulo_103059" data-name="Rectángulo 103059" width="13.948" height="15.887" transform="translate(215.366 54.711) rotate(-13.029)" fill="url(#linear-gradient-23)"/>
      </g>
    </g>
    <g id="Grupo_180003" data-name="Grupo 180003">
      <g id="Grupo_180002" data-name="Grupo 180002" clip-path="url(#clip-path-30)">
        <rect id="Rectángulo_103060" data-name="Rectángulo 103060" width="18.978" height="17.661" transform="matrix(0.168, -0.986, 0.986, 0.168, 211.609, 57.006)" fill="url(#linear-gradient-24)"/>
      </g>
    </g>
    <g id="Grupo_180005" data-name="Grupo 180005">
      <g id="Grupo_180004" data-name="Grupo 180004" clip-path="url(#clip-path)">
        <path id="Trazado_242373" data-name="Trazado 242373" d="M226.236,46.775a1.162,1.162,0,0,1-.087,1.016l-3.615,6.026a1.13,1.13,0,0,1-.2.247c-.43.4-1.9,1.566-3.041-.021a10.189,10.189,0,0,0-2.856-3.088,1.156,1.156,0,0,0-1.56.514,43.232,43.232,0,0,0-2.474,5.869,1.15,1.15,0,0,0,.67,1.411,32.094,32.094,0,0,0,6.943,2.026,1.156,1.156,0,0,0,1.093-.465c1.108-1.517,4.229-5.757,5.295-6.819.989-.986,2.816-.614,3.639-.378a1.161,1.161,0,0,0,.924-.121,2.546,2.546,0,0,0,.959-3.876,1.158,1.158,0,0,1,.358-1.572,2.558,2.558,0,0,0,.98-3.629A3.6,3.6,0,0,0,229.36,42a1.2,1.2,0,0,1-1.26-.7.765.765,0,0,0-.6-.47,1.122,1.122,0,0,1-.909-1.317,2.961,2.961,0,0,0-1.653-3.394c-3.128-1.719-5.868,1.083-6.564,3.448s2.8,4.037,5,4.316c1.616.205,2.5,1.968,2.858,2.89" fill="#603813"/>
      </g>
    </g>
    <g id="Grupo_180007" data-name="Grupo 180007">
      <g id="Grupo_180006" data-name="Grupo 180006" clip-path="url(#clip-path-32)">
        <rect id="Rectángulo_103062" data-name="Rectángulo 103062" width="6.667" height="6.621" transform="translate(224.772 58.169) rotate(-87.535)" fill="url(#linear-gradient-25)"/>
      </g>
    </g>
    <g id="Grupo_180009" data-name="Grupo 180009">
      <g id="Grupo_180008" data-name="Grupo 180008" clip-path="url(#clip-path-33)">
        <rect id="Rectángulo_103063" data-name="Rectángulo 103063" width="9.837" height="13.76" transform="matrix(0.859, -0.512, 0.512, 0.859, 233.174, 76.174)" fill="url(#linear-gradient-26)"/>
      </g>
    </g>
    <g id="Grupo_180011" data-name="Grupo 180011">
      <g id="Grupo_180010" data-name="Grupo 180010" clip-path="url(#clip-path-34)">
        <rect id="Rectángulo_103064" data-name="Rectángulo 103064" width="9.39" height="9.261" transform="matrix(0.872, -0.49, 0.49, 0.872, 220.569, 130.609)" fill="url(#linear-gradient-27)"/>
      </g>
    </g>
    <g id="Grupo_180013" data-name="Grupo 180013">
      <g id="Grupo_180012" data-name="Grupo 180012" clip-path="url(#clip-path-35)">
        <rect id="Rectángulo_103065" data-name="Rectángulo 103065" width="20.849" height="37.445" transform="translate(181.274 154.749) rotate(-80.727)" fill="url(#linear-gradient-28)"/>
      </g>
    </g>
    <g id="Grupo_180015" data-name="Grupo 180015">
      <g id="Grupo_180014" data-name="Grupo 180014" clip-path="url(#clip-path)">
        <path id="Trazado_242378" data-name="Trazado 242378" d="M188.1,154.4a.042.042,0,0,1,.042-.042h.25a.042.042,0,1,1,0,.083h-.25a.042.042,0,0,1-.042-.041m.833,0a.042.042,0,0,1,.042-.042h.25a.041.041,0,0,1,0,.083h-.25a.041.041,0,0,1-.042-.041m.833-.005a.041.041,0,0,1,.041-.042h.25a.041.041,0,1,1,0,.083h-.25a.041.041,0,0,1-.042-.041m.833-.005a.041.041,0,0,1,.041-.042h.25a.041.041,0,0,1,.042.041.042.042,0,0,1-.042.042l-.25,0a.041.041,0,0,1-.041-.042m.832,0a.043.043,0,0,1,.042-.042h.25a.045.045,0,0,1,.041.041.041.041,0,0,1-.041.042l-.25,0a.043.043,0,0,1-.042-.042m.833-.005a.042.042,0,0,1,.041-.042h.25a.041.041,0,1,1,0,.083l-.25,0a.042.042,0,0,1-.042-.042m.833-.005a.041.041,0,0,1,.041-.041l.25,0a.042.042,0,0,1,.042.042.041.041,0,0,1-.042.041l-.249,0h0a.042.042,0,0,1-.041-.042m.833,0a.041.041,0,0,1,.041-.042l.25,0a.043.043,0,0,1,.042.042.041.041,0,0,1-.042.041l-.25,0a.041.041,0,0,1-.041-.041m.832-.005a.042.042,0,0,1,.042-.042l.249,0a.044.044,0,0,1,.042.042.042.042,0,0,1-.041.042h-.25a.041.041,0,0,1-.042-.041m.833,0a.041.041,0,0,1,.041-.042l.25,0a.042.042,0,0,1,.042.042.041.041,0,0,1-.041.042h-.25a.041.041,0,0,1-.042-.041m.833-.005a.041.041,0,0,1,.041-.042l.25,0a.042.042,0,0,1,0,.084h-.25a.041.041,0,0,1-.041-.041m-8.874.04c-.083-.016-.165-.037-.246-.061a.043.043,0,0,1-.028-.052.042.042,0,0,1,.052-.028c.078.023.158.043.239.059a.042.042,0,0,1-.008.083h-.009m9.706-.045a.042.042,0,0,1,.042-.042h.25a.042.042,0,0,1,0,.083h-.25a.042.042,0,0,1-.042-.041m.833,0a.042.042,0,0,1,.042-.042h.249a.04.04,0,0,1,.042.041.041.041,0,0,1-.041.042h-.25a.041.041,0,0,1-.042-.041m.833-.005a.041.041,0,0,1,.041-.042h.25a.041.041,0,0,1,0,.083l-.25,0a.042.042,0,0,1-.042-.042m.833-.005a.041.041,0,0,1,.041-.042h.25a.041.041,0,0,1,.042.041.042.042,0,0,1-.042.042l-.25,0a.041.041,0,0,1-.041-.042m.832,0a.043.043,0,0,1,.042-.042h.25a.041.041,0,0,1,0,.083l-.25,0a.042.042,0,0,1-.042-.042m.833-.005a.041.041,0,0,1,.041-.041l.25,0h0a.041.041,0,0,1,0,.083l-.25,0a.042.042,0,0,1-.042-.042m.833-.005a.041.041,0,0,1,.041-.041l.25,0a.042.042,0,0,1,.042.042.041.041,0,0,1-.042.041l-.249,0a.042.042,0,0,1-.042-.042m.833,0a.041.041,0,0,1,.041-.042l.25,0a.047.047,0,0,1,.042.042.043.043,0,0,1-.042.042h-.25a.041.041,0,0,1-.041-.041m.832-.005a.042.042,0,0,1,.042-.042l.25,0a.041.041,0,0,1,.041.042.042.042,0,0,1-.041.042h-.25a.041.041,0,0,1-.042-.041m.833,0a.041.041,0,0,1,.041-.042l.25,0a.042.042,0,0,1,.042.042.041.041,0,0,1-.041.042h-.25a.041.041,0,0,1-.042-.041m.833-.005a.041.041,0,0,1,.041-.042h.25a.041.041,0,0,1,.042.041.042.042,0,0,1-.042.042h-.25a.041.041,0,0,1-.041-.041m.832-.005a.042.042,0,0,1,.042-.042h.25a.043.043,0,0,1,.042.041.042.042,0,0,1-.042.042h-.25a.042.042,0,0,1-.042-.041m.833,0a.042.042,0,0,1,.042-.042h.25a.041.041,0,0,1,.041.041.041.041,0,0,1-.041.042h-.25a.041.041,0,0,1-.042-.041m.833-.005a.041.041,0,0,1,.041-.042h.25a.042.042,0,0,1,0,.083l-.25,0a.042.042,0,0,1-.042-.042m.833-.005a.041.041,0,0,1,.041-.042h.25a.041.041,0,0,1,.042.041.042.042,0,0,1-.042.042l-.249,0h0a.041.041,0,0,1-.041-.042m.832,0a.043.043,0,0,1,.042-.042h.25a.039.039,0,0,1,.041.041.041.041,0,0,1-.041.042l-.25,0a.043.043,0,0,1-.042-.042m.833-.005a.041.041,0,0,1,.042-.041l.249,0h0a.042.042,0,0,1,.041.041.041.041,0,0,1-.041.042l-.25,0a.042.042,0,0,1-.042-.042m.833-.005a.041.041,0,0,1,.041-.041l.25,0a.042.042,0,0,1,.042.042.041.041,0,0,1-.041.041l-.25,0h0a.042.042,0,0,1-.041-.042m.833,0a.041.041,0,0,1,.041-.042l.25,0a.042.042,0,0,1,.042.042.043.043,0,0,1-.042.042h-.25a.041.041,0,0,1-.041-.041m.832,0a.042.042,0,0,1,.042-.042l.25,0a.042.042,0,0,1,0,.084h-.25a.041.041,0,0,1-.042-.041m.833-.005a.041.041,0,0,1,.041-.042l.25,0a.042.042,0,0,1,.042.042.041.041,0,0,1-.041.042h-.25a.041.041,0,0,1-.042-.041m.832-.022a.041.041,0,0,1,.037-.046c.081-.01.163-.022.244-.037a.04.04,0,0,1,.048.033.042.042,0,0,1-.033.048c-.083.016-.167.029-.25.038h-.005a.041.041,0,0,1-.041-.037m-27.982-.129c-.073-.042-.145-.088-.214-.137a.042.042,0,1,1,.048-.068,2.342,2.342,0,0,0,.207.132.042.042,0,0,1,.016.057.043.043,0,0,1-.036.021.054.054,0,0,1-.021-.005m28.793-.053a.041.041,0,0,1,.024-.053c.077-.028.154-.059.229-.092a.042.042,0,1,1,.034.076c-.077.034-.156.066-.234.094l-.014,0a.042.042,0,0,1-.039-.028m.746-.363a.042.042,0,0,1,.012-.058c.069-.045.137-.093.2-.142a.042.042,0,1,1,.051.066c-.066.05-.136.1-.206.146a.039.039,0,0,1-.023.007.042.042,0,0,1-.035-.019m-30.194-.114a2.329,2.329,0,0,1-.16-.2.041.041,0,0,1,.009-.058.043.043,0,0,1,.058.009,2.346,2.346,0,0,0,.155.191.042.042,0,0,1,0,.059.039.039,0,0,1-.027.01.038.038,0,0,1-.031-.014m30.837-.412a.041.041,0,0,1,0-.058c.056-.06.111-.122.163-.185a.042.042,0,0,1,.059-.006.041.041,0,0,1,0,.058c-.053.065-.109.129-.167.19a.043.043,0,0,1-.03.013.042.042,0,0,1-.029-.012m-31.291-.3c-.033-.078-.063-.158-.088-.238a.041.041,0,1,1,.079-.025,2.358,2.358,0,0,0,.086.23.042.042,0,0,1-.022.055l-.017,0a.041.041,0,0,1-.038-.025m31.8-.362a.043.043,0,0,1-.016-.057c.042-.071.081-.145.117-.218a.041.041,0,0,1,.055-.019.042.042,0,0,1,.02.056c-.037.075-.077.15-.12.223a.04.04,0,0,1-.036.02.035.035,0,0,1-.02,0m-32-.453c-.011-.08-.023-.163-.035-.247a.042.042,0,0,1,.035-.047.04.04,0,0,1,.047.035c.012.084.024.167.036.247a.043.043,0,0,1-.035.048h-.006a.042.042,0,0,1-.042-.036m32.343-.306a.043.043,0,0,1-.028-.052c.024-.078.045-.159.062-.239a.042.042,0,0,1,.05-.031.041.041,0,0,1,.032.049c-.019.082-.04.165-.064.245a.042.042,0,0,1-.04.03l-.012,0m-32.456-.519c-.011-.082-.022-.164-.032-.248a.041.041,0,1,1,.082-.011c.011.084.022.167.032.248a.042.042,0,0,1-.036.047h-.005a.04.04,0,0,1-.041-.036m32.608-.3a.041.041,0,0,1-.039-.044c0-.027,0-.055,0-.083l.005-.165a.044.044,0,0,1,.043-.041.041.041,0,0,1,.04.043l0,.165c0,.029,0,.057,0,.086a.041.041,0,0,1-.041.039Zm-32.71-.53c-.01-.081-.019-.164-.029-.248a.042.042,0,1,1,.083-.009c.009.083.019.166.028.248a.042.042,0,0,1-.036.046h-.005a.04.04,0,0,1-.041-.037m32.739-.3a.041.041,0,0,1-.04-.043l.008-.249a.042.042,0,1,1,.083,0l-.008.25a.042.042,0,0,1-.042.04Zm-32.83-.526c-.008-.082-.017-.165-.025-.249a.042.042,0,0,1,.038-.045.041.041,0,0,1,.045.037c.008.084.017.166.025.248a.042.042,0,0,1-.037.046h0a.041.041,0,0,1-.041-.037M218,149.254a.041.041,0,0,1-.04-.043l.008-.25a.042.042,0,0,1,.043-.04.041.041,0,0,1,.04.043l-.008.249a.042.042,0,0,1-.042.041Zm-32.935-.524c-.008-.082-.015-.165-.022-.249a.042.042,0,1,1,.083-.007q.011.126.021.249a.04.04,0,0,1-.037.045h0a.041.041,0,0,1-.041-.038m32.962-.308a.043.043,0,0,1-.041-.043l.008-.25a.043.043,0,0,1,.043-.04.042.042,0,0,1,.041.043l-.008.249a.043.043,0,0,1-.042.041ZM185,147.9c-.006-.082-.012-.166-.017-.249a.04.04,0,0,1,.038-.044.041.041,0,0,1,.045.038c.006.084.011.167.017.249a.042.042,0,0,1-.038.045h0A.043.043,0,0,1,185,147.9m33.055-.31a.041.041,0,0,1-.04-.043l.008-.249a.042.042,0,0,1,.043-.041.041.041,0,0,1,.04.043l-.008.25a.041.041,0,0,1-.041.04Zm-33.109-.522c0-.082-.009-.166-.013-.249a.041.041,0,0,1,.039-.044.04.04,0,0,1,.044.039c0,.084.009.167.014.25a.043.043,0,0,1-.04.044h0a.043.043,0,0,1-.042-.04m33.136-.31a.041.041,0,0,1-.04-.043l.008-.25a.043.043,0,0,1,.043-.04.041.041,0,0,1,.04.043l-.008.25a.042.042,0,0,1-.042.04Zm-33.176-.522c0-.083-.007-.166-.01-.25a.042.042,0,0,1,.083,0c0,.084.007.167.01.25a.041.041,0,0,1-.04.043h0a.042.042,0,0,1-.041-.04m33.2-.31a.041.041,0,0,1-.04-.043l.008-.25a.042.042,0,0,1,.083,0l-.008.25a.042.042,0,0,1-.042.041Zm-33.23-.523c0-.083,0-.167-.005-.25a.042.042,0,0,1,.041-.043.041.041,0,0,1,.042.041c0,.084,0,.167,0,.25a.04.04,0,0,1-.04.042h0a.041.041,0,0,1-.042-.04m33.257-.31a.042.042,0,0,1-.041-.043l.008-.249a.044.044,0,0,1,.043-.041.043.043,0,0,1,.041.043l-.008.25a.043.043,0,0,1-.042.04Zm-33.269-.524c0-.083,0-.166,0-.25a.042.042,0,0,1,.083,0c0,.084,0,.167,0,.25a.042.042,0,0,1-.042.042.041.041,0,0,1-.041-.042m33.295-.308a.041.041,0,0,1-.04-.043l.008-.25a.043.043,0,0,1,.043-.04.041.041,0,0,1,.04.043l-.008.25a.041.041,0,0,1-.041.04Zm-33.251-.483a.041.041,0,0,1-.041-.042c0-.083,0-.167,0-.25a.043.043,0,0,1,.042-.041.041.041,0,0,1,.041.042c0,.084,0,.167,0,.25A.041.041,0,0,1,184.907,143.777Zm33.278-.349a.041.041,0,0,1-.04-.043l.008-.25a.042.042,0,0,1,.043-.04.041.041,0,0,1,.04.043l-.008.249a.042.042,0,0,1-.041.041Zm-33.259-.484a.041.041,0,0,1-.04-.043c0-.083.005-.166.009-.25a.042.042,0,1,1,.083,0l-.009.249a.042.042,0,0,1-.042.04Zm33.286-.349a.041.041,0,0,1-.04-.043l.008-.249a.042.042,0,1,1,.083,0l-.008.25a.041.041,0,0,1-.042.04Zm-33.25-.482a.042.042,0,0,1-.039-.044l.015-.25a.04.04,0,0,1,.044-.039.042.042,0,0,1,.039.044l-.015.249a.042.042,0,0,1-.041.04Zm33.277-.35a.043.043,0,0,1-.041-.043l.008-.25a.043.043,0,0,1,.043-.04.043.043,0,0,1,.041.043l-.008.25a.043.043,0,0,1-.042.04Zm-33.222-.481a.043.043,0,0,1-.038-.045l.021-.249a.042.042,0,1,1,.083.007l-.021.249a.041.041,0,0,1-.041.038Zm33.248-.351a.041.041,0,0,1-.04-.043l.008-.25a.043.043,0,0,1,.043-.04.041.041,0,0,1,.04.043l-.008.249a.041.041,0,0,1-.041.041Zm-33.172-.479a.042.042,0,0,1-.037-.045c.009-.083.018-.166.028-.249a.041.041,0,0,1,.046-.037.043.043,0,0,1,.037.046c-.01.083-.019.166-.028.248a.041.041,0,0,1-.041.038Zm33.2-.354a.041.041,0,0,1-.04-.043l.008-.249a.046.046,0,0,1,.043-.041.041.041,0,0,1,.04.043l-.008.25a.041.041,0,0,1-.041.04Zm-32.941-.291a.042.042,0,0,1,.042-.042h.25a.042.042,0,0,1,0,.084h-.25a.042.042,0,0,1-.042-.042m.833,0a.041.041,0,0,1,.041-.042h.25a.042.042,0,0,1,0,.084h-.25a.041.041,0,0,1-.041-.042m.833,0a.041.041,0,0,1,.041-.042h.25a.042.042,0,1,1,0,.084h-.25a.041.041,0,0,1-.041-.042m.832,0a.042.042,0,0,1,.042-.042h.25a.042.042,0,0,1,0,.084h-.25a.042.042,0,0,1-.042-.042m.833,0a.042.042,0,0,1,.042-.042h.249a.042.042,0,0,1,0,.084h-.249a.042.042,0,0,1-.042-.042m.833,0a.041.041,0,0,1,.041-.042h.25a.042.042,0,1,1,0,.084h-.25a.041.041,0,0,1-.041-.042m.833,0a.041.041,0,0,1,.041-.042h.25a.042.042,0,0,1,0,.084h-.25a.041.041,0,0,1-.041-.042m.832,0a.042.042,0,0,1,.042-.042h.25a.042.042,0,0,1,0,.084h-.25a.042.042,0,0,1-.042-.042m.833,0a.042.042,0,0,1,.042-.042h.249a.042.042,0,0,1,0,.084h-.249a.042.042,0,0,1-.042-.042m.833,0a.041.041,0,0,1,.041-.042h.25a.042.042,0,1,1,0,.084h-.25a.041.041,0,0,1-.041-.042m.833,0a.041.041,0,0,1,.041-.042h.25a.042.042,0,0,1,0,.084h-.25a.041.041,0,0,1-.041-.042m.832,0a.042.042,0,0,1,.042-.042h.25a.042.042,0,0,1,0,.084h-.25a.042.042,0,0,1-.042-.042m.833,0a.042.042,0,0,1,.042-.042h.249a.042.042,0,1,1,0,.084h-.249a.042.042,0,0,1-.042-.042m.833,0a.041.041,0,0,1,.041-.042h.25a.042.042,0,0,1,0,.084h-.25a.041.041,0,0,1-.041-.042m.832,0a.042.042,0,0,1,.042-.042h.25a.042.042,0,1,1,0,.084h-.25a.042.042,0,0,1-.042-.042m.833,0a.042.042,0,0,1,.042-.042h.25a.042.042,0,0,1,0,.084h-.25a.042.042,0,0,1-.042-.042m.833,0a.042.042,0,0,1,.042-.042h.249a.042.042,0,0,1,0,.084h-.249a.042.042,0,0,1-.042-.042m.833,0a.041.041,0,0,1,.041-.042h.25a.042.042,0,1,1,0,.084h-.25a.041.041,0,0,1-.041-.042m.832,0a.042.042,0,0,1,.042-.042h.25a.042.042,0,0,1,0,.084h-.25a.042.042,0,0,1-.042-.042m.833,0a.042.042,0,0,1,.042-.042h.25a.042.042,0,0,1,0,.084h-.25a.042.042,0,0,1-.042-.042m.833,0a.042.042,0,0,1,.042-.042h.249a.042.042,0,1,1,0,.084h-.249a.042.042,0,0,1-.042-.042m.833,0a.041.041,0,0,1,.041-.042h.25a.042.042,0,0,1,0,.084h-.25a.041.041,0,0,1-.041-.042m.832,0a.042.042,0,0,1,.042-.042h.25a.042.042,0,1,1,0,.084h-.25a.042.042,0,0,1-.042-.042m.833,0a.042.042,0,0,1,.042-.042h.25a.042.042,0,0,1,0,.084h-.25a.042.042,0,0,1-.042-.042m.833,0a.042.042,0,0,1,.042-.042h.249a.042.042,0,0,1,0,.084h-.249a.042.042,0,0,1-.042-.042m.833,0a.041.041,0,0,1,.041-.042h.25a.042.042,0,1,1,0,.084h-.25a.041.041,0,0,1-.041-.042m.832,0a.042.042,0,0,1,.042-.042h.25a.042.042,0,0,1,0,.084h-.25a.042.042,0,0,1-.042-.042m.833,0a.042.042,0,0,1,.042-.042h.25a.042.042,0,0,1,0,.084h-.25a.042.042,0,0,1-.042-.042m.833,0a.042.042,0,0,1,.042-.042h.249a.042.042,0,1,1,0,.084h-.249a.042.042,0,0,1-.042-.042m.833,0a.041.041,0,0,1,.041-.042h.25a.042.042,0,0,1,0,.084h-.25a.041.041,0,0,1-.041-.042m.832,0a.042.042,0,0,1,.042-.042h.25a.042.042,0,0,1,0,.084h-.25a.042.042,0,0,1-.042-.042m.833,0a.042.042,0,0,1,.042-.042h.25a.042.042,0,0,1,0,.084h-.25a.042.042,0,0,1-.042-.042m.833,0a.042.042,0,0,1,.042-.042h.249a.042.042,0,1,1,0,.084h-.249a.042.042,0,0,1-.042-.042m.833,0a.041.041,0,0,1,.041-.042h.25a.042.042,0,0,1,0,.084h-.25a.041.041,0,0,1-.041-.042m.832,0a.042.042,0,0,1,.042-.042h.25a.042.042,0,0,1,0,.084h-.25a.042.042,0,0,1-.042-.042m.833,0a.042.042,0,0,1,.042-.042h.25a.042.042,0,0,1,0,.084h-.25a.042.042,0,0,1-.042-.042m.833,0a.041.041,0,0,1,.041-.042h.25a.042.042,0,0,1,0,.084h-.25a.041.041,0,0,1-.041-.042m.833,0a.041.041,0,0,1,.041-.042h.25a.042.042,0,1,1,0,.084h-.25a.041.041,0,0,1-.041-.042m.832,0a.042.042,0,0,1,.042-.042h.25a.042.042,0,0,1,0,.084h-.25a.042.042,0,0,1-.042-.042m.833,0a.042.042,0,0,1,.042-.042h.249a.042.042,0,0,1,0,.084h-.249a.042.042,0,0,1-.042-.042" fill="#fff"/>
      </g>
    </g>
    <g id="Grupo_180017" data-name="Grupo 180017">
      <g id="Grupo_180016" data-name="Grupo 180016" clip-path="url(#clip-path-37)">
        <rect id="Rectángulo_103067" data-name="Rectángulo 103067" width="1.768" height="4.842" transform="translate(206.202 131.56) rotate(-87.639)" fill="url(#linear-gradient-29)"/>
      </g>
    </g>
    <g id="Grupo_180019" data-name="Grupo 180019">
      <g id="Grupo_180018" data-name="Grupo 180018" clip-path="url(#clip-path-38)">
        <rect id="Rectángulo_103068" data-name="Rectángulo 103068" width="3.451" height="1.655" transform="translate(207.707 130.602) rotate(-85.885)" fill="url(#linear-gradient-30)"/>
      </g>
    </g>
    <g id="Grupo_180021" data-name="Grupo 180021">
      <g id="Grupo_180020" data-name="Grupo 180020" clip-path="url(#clip-path-39)">
        <rect id="Rectángulo_103069" data-name="Rectángulo 103069" width="1.768" height="4.842" transform="translate(192.463 131.56) rotate(-87.639)" fill="url(#linear-gradient-31)"/>
      </g>
    </g>
    <g id="Grupo_180023" data-name="Grupo 180023">
      <g id="Grupo_180022" data-name="Grupo 180022" clip-path="url(#clip-path-40)">
        <rect id="Rectángulo_103070" data-name="Rectángulo 103070" width="3.743" height="1.677" transform="translate(193.945 130.6) rotate(-85.885)" fill="url(#linear-gradient-32)"/>
      </g>
    </g>
    <g id="Grupo_180025" data-name="Grupo 180025">
      <g id="Grupo_180024" data-name="Grupo 180024" clip-path="url(#clip-path-41)">
        <rect id="Rectángulo_103071" data-name="Rectángulo 103071" width="17.125" height="4.987" transform="translate(193.029 125.274) rotate(-7.765)" fill="url(#linear-gradient-33)"/>
      </g>
    </g>
    <g id="Grupo_180027" data-name="Grupo 180027">
      <g id="Grupo_180026" data-name="Grupo 180026" clip-path="url(#clip-path-42)">
        <rect id="Rectángulo_103072" data-name="Rectángulo 103072" width="4.833" height="4.493" transform="matrix(0.758, -0.653, 0.653, 0.758, 204.157, 126.508)" fill="url(#linear-gradient-34)"/>
      </g>
    </g>
    <g id="Grupo_180029" data-name="Grupo 180029">
      <g id="Grupo_180028" data-name="Grupo 180028" clip-path="url(#clip-path-43)">
        <rect id="Rectángulo_103073" data-name="Rectángulo 103073" width="36.9" height="15.813" transform="translate(182.99 131.018) rotate(-1.998)" fill="url(#linear-gradient-35)"/>
      </g>
    </g>
    <g id="Grupo_180031" data-name="Grupo 180031">
      <g id="Grupo_180030" data-name="Grupo 180030" clip-path="url(#clip-path)">
        <path id="Trazado_242386" data-name="Trazado 242386" d="M203.487,144.342a.042.042,0,0,1,.032-.049l.245-.048a.041.041,0,0,1,.017.081l-.245.049h-.009a.041.041,0,0,1-.04-.034m-4.708-.008a.041.041,0,0,1,.041-.041h.25a.041.041,0,0,1,.042.041.042.042,0,0,1-.042.042h-.25a.041.041,0,0,1-.041-.042m.832,0a.041.041,0,0,1,.042-.041h.25a.041.041,0,0,1,.041.041.041.041,0,0,1-.041.042h-.25a.042.042,0,0,1-.042-.042m.833,0a.041.041,0,0,1,.042-.041h.25a.041.041,0,0,1,.041.041.041.041,0,0,1-.041.042h-.25a.042.042,0,0,1-.042-.042m.833,0a.041.041,0,0,1,.041-.041h.25a.041.041,0,0,1,.042.041.042.042,0,0,1-.042.042h-.25a.041.041,0,0,1-.041-.042m.833,0a.041.041,0,0,1,.041-.041h.25a.041.041,0,0,1,.042.041.042.042,0,0,1-.042.042h-.25a.041.041,0,0,1-.041-.042m.832,0a.041.041,0,0,1,.042-.041h.25a.041.041,0,0,1,.041.041.041.041,0,0,1-.041.042h-.25a.042.042,0,0,1-.042-.042m-4.7-.052-.245-.047a.041.041,0,0,1-.033-.048.04.04,0,0,1,.048-.033l.246.046a.042.042,0,0,1,.033.049.042.042,0,0,1-.041.034h-.008m6.065-.1a.043.043,0,0,1,.033-.049l.245-.049a.042.042,0,0,1,.049.033.041.041,0,0,1-.033.049l-.245.049h-.008a.043.043,0,0,1-.041-.034m-6.883-.053-.245-.046a.042.042,0,0,1,.015-.082l.246.046a.042.042,0,0,1,.033.049.042.042,0,0,1-.041.034h-.008m7.7-.109a.041.041,0,0,1,.033-.049l.245-.049a.041.041,0,0,1,.049.033.042.042,0,0,1-.033.049l-.245.048h-.008a.042.042,0,0,1-.041-.033m-8.518-.046-.246-.046a.042.042,0,0,1,.016-.082l.245.046a.042.042,0,0,1-.007.083H196.6m9.336-.117a.04.04,0,0,1,.032-.049l.245-.048a.041.041,0,0,1,.049.032.042.042,0,0,1-.033.049l-.245.049h-.007a.04.04,0,0,1-.041-.034m-10.154-.038-.246-.046a.042.042,0,0,1,.016-.082l.245.047a.04.04,0,0,1,.033.048.041.041,0,0,1-.041.034h-.007m10.97-.124a.041.041,0,0,1,.032-.049l.245-.049a.042.042,0,0,1,.049.033.041.041,0,0,1-.032.049l-.245.049h-.009a.041.041,0,0,1-.04-.034m-11.788-.03-.246-.047a.04.04,0,0,1-.032-.048.041.041,0,0,1,.047-.034l.246.047a.041.041,0,0,1,.033.048.042.042,0,0,1-.041.034h-.007m12.6-.132a.042.042,0,0,1,.034-.049l.244-.049a.041.041,0,0,1,.049.033.042.042,0,0,1-.033.049l-.245.048h-.008a.043.043,0,0,1-.041-.033m-13.423-.023-.245-.047a.041.041,0,1,1,.015-.081l.246.046a.042.042,0,0,1-.008.083h-.008m14.24-.14a.042.042,0,0,1,.033-.049l.245-.048a.041.041,0,1,1,.016.081l-.245.049h-.008a.043.043,0,0,1-.041-.034m-15.058-.015-.245-.046a.043.043,0,0,1-.034-.049.042.042,0,0,1,.049-.033l.246.046a.042.042,0,0,1-.008.083h-.008m15.875-.147a.042.042,0,0,1,.033-.049l.245-.049a.041.041,0,0,1,.049.033.042.042,0,0,1-.033.049l-.245.049h-.008a.041.041,0,0,1-.041-.033m-16.693-.008-.246-.046a.042.042,0,1,1,.016-.082l.245.046a.041.041,0,0,1,.033.049.04.04,0,0,1-.039.034h-.009m17.51-.154a.041.041,0,0,1,.032-.049l.245-.049a.042.042,0,0,1,.017.082l-.245.048h-.007a.042.042,0,0,1-.042-.033m-18.328,0-.246-.046a.041.041,0,0,1-.033-.049.043.043,0,0,1,.05-.033l.244.047a.041.041,0,0,1,.033.048.041.041,0,0,1-.04.034h-.008m19.145-.162a.042.042,0,0,1,.032-.049l.245-.048a.041.041,0,0,1,.017.081l-.246.049h-.008a.041.041,0,0,1-.04-.034m-19.964.008-.245-.047a.04.04,0,0,1-.033-.048.042.042,0,0,1,.049-.034l.245.047a.041.041,0,0,1-.008.082h-.008m20.78-.17a.041.041,0,0,1,.034-.049l.244-.049a.042.042,0,1,1,.016.082l-.245.049H211.7a.042.042,0,0,1-.041-.033m-21.6.015-.245-.047a.042.042,0,0,1-.034-.048.041.041,0,0,1,.049-.033l.246.046a.042.042,0,0,1-.008.083h-.008m22.415-.177a.041.041,0,0,1,.033-.049l.245-.049a.041.041,0,0,1,.049.033.042.042,0,0,1-.033.049l-.245.048h-.008a.042.042,0,0,1-.041-.033m-23.233.022-.246-.046a.043.043,0,0,1-.033-.049.042.042,0,0,1,.049-.033l.245.046a.042.042,0,0,1-.007.083h-.008m24.05-.185a.042.042,0,0,1,.033-.049l.245-.048a.041.041,0,0,1,.049.032.042.042,0,0,1-.033.049l-.245.049h-.008a.042.042,0,0,1-.041-.034m-24.868.03-.246-.046a.042.042,0,0,1-.033-.049.041.041,0,0,1,.049-.033l.245.046a.042.042,0,0,1-.008.083h-.007m-.818-.155-.246-.046a.041.041,0,0,1-.033-.049.042.042,0,0,1,.048-.033l.246.047a.041.041,0,0,1-.008.082H187.6m26.5-.037a.041.041,0,0,1,.032-.049l.245-.049a.042.042,0,0,1,.017.082l-.245.049h-.009a.041.041,0,0,1-.04-.033m-27.322-.117-.245-.047a.04.04,0,0,1-.033-.048.041.041,0,0,1,.048-.034l.246.047a.041.041,0,0,1-.008.082h-.008m28.138-.045a.042.042,0,0,1,.033-.049l.245-.049a.041.041,0,0,1,.049.033.042.042,0,0,1-.033.049l-.245.048h-.008a.043.043,0,0,1-.041-.033m-28.956-.11-.246-.047a.042.042,0,0,1-.033-.048.041.041,0,0,1,.049-.033l.245.046a.042.042,0,0,1,.034.049.043.043,0,0,1-.041.034h-.008m29.773-.053a.042.042,0,0,1,.033-.049l.245-.049a.043.043,0,0,1,.049.033.041.041,0,0,1-.033.049l-.245.049h-.008a.042.042,0,0,1-.041-.034m-30.591-.1-.246-.046a.043.043,0,0,1-.033-.049.041.041,0,0,1,.049-.033l.245.046a.04.04,0,0,1,.033.049.041.041,0,0,1-.041.034h-.007m31.408-.06a.041.041,0,0,1,.034-.049l.244-.049a.042.042,0,0,1,.049.033.043.043,0,0,1-.033.049l-.245.049H216.6a.041.041,0,0,1-.041-.033m.817-.163a.042.042,0,0,1,.032-.049l.245-.048a.041.041,0,0,1,.049.033.042.042,0,0,1-.032.049l-.245.048h-.009a.041.041,0,0,1-.04-.034m.816-.162a.043.043,0,0,1,.033-.049l.185-.037a.04.04,0,0,1,.043-.036.042.042,0,0,1,.04.044l0,.061-.249.05h-.008a.043.043,0,0,1-.041-.034m-33.434-.195V141.2c0-.076,0-.151,0-.226a.045.045,0,0,1,.042-.042.043.043,0,0,1,.042.042c0,.076,0,.151,0,.226v.024a.042.042,0,0,1-.042.042.042.042,0,0,1-.041-.042m33.718-.426a.041.041,0,0,1-.039-.043c0-.081.006-.164.01-.25a.041.041,0,0,1,.043-.04.041.041,0,0,1,.04.043c0,.086-.006.17-.01.25a.042.042,0,0,1-.042.04Zm-33.666-.365a.043.043,0,0,1-.041-.043c0-.083.005-.166.008-.25a.043.043,0,0,1,.044-.04.042.042,0,0,1,.04.043c0,.083,0,.166-.008.249a.043.043,0,0,1-.042.041Zm33.7-.467a.042.042,0,0,1-.04-.043c0-.082,0-.165.007-.25a.042.042,0,0,1,.083,0c0,.085-.005.169-.007.25a.043.043,0,0,1-.042.041Zm-33.665-.365a.042.042,0,0,1-.039-.044c0-.083.009-.166.014-.249a.042.042,0,0,1,.044-.039.04.04,0,0,1,.039.044c-.005.083-.01.166-.014.249a.042.042,0,0,1-.042.039Zm33.687-.468a.041.041,0,0,1-.041-.042c0-.083,0-.166.005-.25a.042.042,0,0,1,.042-.041.041.041,0,0,1,.041.042c0,.085,0,.168,0,.25a.043.043,0,0,1-.042.041Zm-33.633-.363a.042.042,0,0,1-.038-.045c.006-.083.013-.166.02-.249a.042.042,0,1,1,.083.007c-.007.082-.014.165-.02.249a.042.042,0,0,1-.042.038h0m33.646-.47a.041.041,0,0,1-.041-.042c0-.082,0-.166,0-.25a.041.041,0,0,1,.041-.041.042.042,0,0,1,.042.042c0,.084,0,.167,0,.25A.041.041,0,0,1,218.539,138.3Zm-33.573-.36a.041.041,0,0,1-.037-.045c.009-.084.017-.167.025-.249a.042.042,0,0,1,.046-.037.041.041,0,0,1,.037.045c-.008.083-.017.166-.025.249a.043.043,0,0,1-.042.037h0m33.534-.514c0-.083,0-.166,0-.25a.042.042,0,0,1,.042-.042.043.043,0,0,1,.042.041c0,.084,0,.168,0,.251a.041.041,0,0,1-.041.041.042.042,0,0,1-.042-.041m-33.444-.314a.042.042,0,0,1-.036-.046c.01-.084.02-.167.031-.249a.041.041,0,1,1,.082.011c-.01.082-.02.164-.03.248a.042.042,0,0,1-.042.036h-.005m33.435-.518-.006-.25a.041.041,0,0,1,.041-.042.044.044,0,0,1,.043.04c0,.084,0,.167.005.25a.043.043,0,0,1-.041.043h0a.041.041,0,0,1-.041-.041m-33.328-.308a.041.041,0,0,1-.035-.047c.011-.084.023-.166.035-.248a.042.042,0,0,1,.047-.035.04.04,0,0,1,.035.047c-.012.082-.023.164-.035.247a.042.042,0,0,1-.041.036h-.006m33.305-.524c0-.083-.007-.166-.01-.25a.041.041,0,0,1,.04-.043.043.043,0,0,1,.043.04c0,.083.007.167.01.25a.041.041,0,0,1-.04.043h0a.041.041,0,0,1-.041-.04m-33.183-.3a.042.042,0,0,1-.035-.047c.014-.084.027-.166.04-.247a.041.041,0,0,1,.049-.034.04.04,0,0,1,.033.047c-.013.081-.026.164-.039.247a.042.042,0,0,1-.041.035h-.007m33.144-.531c-.005-.083-.01-.166-.016-.249a.042.042,0,0,1,.084-.005l.015.25a.041.041,0,0,1-.039.043h0a.042.042,0,0,1-.041-.04m-33.007-.29a.042.042,0,0,1-.034-.049c.015-.083.029-.166.044-.246a.042.042,0,0,1,.049-.033.041.041,0,0,1,.033.048c-.015.08-.029.162-.044.246a.042.042,0,0,1-.041.034h-.007m32.948-.539c-.007-.084-.015-.167-.022-.249a.04.04,0,0,1,.037-.045.043.043,0,0,1,.046.037c.007.083.015.166.022.25a.042.042,0,0,1-.038.045h0a.042.042,0,0,1-.041-.038m-32.8-.281a.042.042,0,0,1-.033-.048c.017-.085.033-.167.049-.246a.042.042,0,1,1,.082.017c-.016.078-.032.16-.049.244a.041.041,0,0,1-.041.034h-.008m32.713-.546c-.011-.084-.021-.166-.032-.248a.042.042,0,1,1,.083-.011c.011.082.021.165.031.249a.041.041,0,0,1-.036.046h-.005a.04.04,0,0,1-.041-.036m-32.546-.27a.042.042,0,0,1-.032-.05l.04-.184a.089.089,0,0,1,.075-.062h.01c.023,0,.037.013.04.036a.046.046,0,0,1-.043.045l-.041.184a.042.042,0,0,1-.04.033h-.009m.636-.314a.043.043,0,0,1,.037-.046l.249-.023a.042.042,0,1,1,.008.083l-.249.023h0a.041.041,0,0,1-.041-.037m.83-.072a.042.042,0,0,1,.038-.045l.249-.018a.04.04,0,0,1,.045.038.042.042,0,0,1-.039.045l-.249.018h0a.042.042,0,0,1-.041-.039m.83-.058a.042.042,0,0,1,.04-.044l.25-.015a.04.04,0,0,1,.043.039.042.042,0,0,1-.039.044l-.249.015h0a.043.043,0,0,1-.043-.039m.832-.048a.042.042,0,0,1,.04-.044l.25-.013a.043.043,0,0,1,.043.04.041.041,0,0,1-.04.043l-.249.013h0a.041.041,0,0,1-.041-.039m.833-.041a.04.04,0,0,1,.038-.044l.25-.011a.043.043,0,0,1,.043.04.04.04,0,0,1-.039.043l-.25.011h0a.039.039,0,0,1-.04-.039m28.465-.02-.013-.074a.043.043,0,0,0-.043-.037h-.054a.041.041,0,1,1,0-.083h.055a.127.127,0,0,1,.124.107l.013.074a.041.041,0,0,1-.034.048h-.007a.042.042,0,0,1-.041-.035m-27.634-.016a.041.041,0,0,1,.04-.043l.249-.01a.042.042,0,0,1,.044.04.041.041,0,0,1-.039.043l-.25.01h0a.041.041,0,0,1-.042-.04m.832-.031a.042.042,0,0,1,.04-.043l.25-.008a.043.043,0,0,1,.043.04.041.041,0,0,1-.04.043l-.25.008h0a.041.041,0,0,1-.042-.04m.832-.027a.043.043,0,0,1,.041-.043l.249-.007a.044.044,0,0,1,.043.04.041.041,0,0,1-.04.043l-.25.007h0a.041.041,0,0,1-.042-.04m.833-.024a.04.04,0,0,1,.04-.042l.25-.007h0a.042.042,0,0,1,0,.083l-.25.007a.041.041,0,0,1-.042-.041m.832-.021a.041.041,0,0,1,.041-.042l.25-.006h0a.041.041,0,0,1,.041.041.041.041,0,0,1-.04.042l-.25.006h0a.042.042,0,0,1-.042-.041m.833-.018a.042.042,0,0,1,.041-.043l.249-.005a.042.042,0,1,1,0,.083l-.25,0a.042.042,0,0,1-.042-.04m.833-.017a.04.04,0,0,1,.04-.042l.25,0a.042.042,0,0,1,.043.041.043.043,0,0,1-.041.043l-.25,0h0a.041.041,0,0,1-.041-.041m21.945.035-.25,0a.041.041,0,0,1-.041-.042.042.042,0,0,1,.042-.041l.25,0a.042.042,0,0,1,0,.084Zm-21.113-.049a.041.041,0,0,1,.041-.042l.25,0h0a.041.041,0,0,1,0,.083l-.25,0a.041.041,0,0,1-.042-.041m20.28.039-.25,0a.041.041,0,0,1-.041-.042.042.042,0,0,1,.042-.041l.25,0a.041.041,0,0,1,0,.083Zm-.833-.009-.25,0a.041.041,0,1,1,0-.083l.25,0a.041.041,0,1,1,0,.083Zm-18.614-.043a.041.041,0,0,1,.041-.042l.25,0a.041.041,0,0,1,.042.041.041.041,0,0,1-.041.042l-.25,0a.041.041,0,0,1-.042-.041m17.781.035-.25,0a.042.042,0,0,1,0-.084h0l.25,0a.041.041,0,1,1,0,.083Zm-16.948-.045a.042.042,0,0,1,.041-.043l.25,0a.043.043,0,0,1,.042.042.042.042,0,0,1-.041.042l-.25,0h0a.042.042,0,0,1-.041-.041m16.115.038-.25,0a.041.041,0,0,1-.041-.042.042.042,0,0,1,.041-.041h0l.25,0a.042.042,0,0,1,0,.084Zm-15.283-.048a.041.041,0,0,1,.041-.042l.25,0h0a.042.042,0,0,1,0,.084l-.25,0a.042.042,0,0,1-.042-.041m14.45.041-.25,0a.041.041,0,0,1-.041-.042.04.04,0,0,1,.042-.042l.25,0a.042.042,0,0,1,0,.084Zm-.833-.007h-.25a.042.042,0,0,1-.041-.042.041.041,0,0,1,.041-.042h0l.249,0a.042.042,0,0,1,.042.042A.041.041,0,0,1,212.474,132.285Zm-12.784-.042a.041.041,0,0,1,.041-.042l.25,0a.04.04,0,0,1,.042.041.041.041,0,0,1-.041.042l-.25,0a.041.041,0,0,1-.042-.041m11.951.037-.25,0a.041.041,0,0,1,0-.083l.25,0a.041.041,0,0,1,.042.041A.042.042,0,0,1,211.641,132.28Zm-11.118-.044a.041.041,0,0,1,.041-.042h.25a.04.04,0,0,1,.042.041.041.041,0,0,1-.041.042l-.25,0h0a.042.042,0,0,1-.041-.042m10.285.039-.25,0a.04.04,0,0,1-.041-.041.041.041,0,0,1,.041-.042l.25,0a.041.041,0,0,1,.042.041A.042.042,0,0,1,210.808,132.275Zm-9.452-.044a.041.041,0,0,1,.041-.042l.25,0a.042.042,0,0,1,.042.042.043.043,0,0,1-.042.042h-.25a.041.041,0,0,1-.041-.041m8.619.04-.25,0a.041.041,0,0,1-.041-.041.041.041,0,0,1,.041-.042h.25a.042.042,0,0,1,0,.084Zm-7.787-.045a.043.043,0,0,1,.042-.042h.25a.042.042,0,0,1,0,.084h-.25a.042.042,0,0,1-.042-.042m6.954.041h-.25a.041.041,0,0,1-.041-.042.041.041,0,0,1,.041-.041h.25a.041.041,0,0,1,.042.041A.042.042,0,0,1,209.142,132.267Zm-6.121-.044a.042.042,0,0,1,.042-.042h.25a.042.042,0,0,1,0,.084h-.25a.041.041,0,0,1-.042-.041m5.288.041h-.25a.041.041,0,0,1-.041-.041.041.041,0,0,1,.041-.042h.25a.042.042,0,0,1,.042.042A.041.041,0,0,1,208.309,132.264Zm-4.455-.044a.041.041,0,0,1,.041-.041h.25a.043.043,0,0,1,.043.042.042.042,0,0,1-.043.041H203.9a.042.042,0,0,1-.042-.042m3.622.042h-.25a.041.041,0,0,1-.041-.041.041.041,0,0,1,.041-.042h.25a.041.041,0,0,1,.042.041A.042.042,0,0,1,207.476,132.262Zm-2.788-.043a.041.041,0,0,1,.041-.042h.25a.042.042,0,0,1,.041.042.041.041,0,0,1-.041.041h-.25a.041.041,0,0,1-.041-.042m1.955.042h-.25a.041.041,0,0,1-.041-.041.041.041,0,0,1,.041-.042h.25a.042.042,0,0,1,0,.084m-1.082,0a.042.042,0,0,1-.042-.042.041.041,0,0,1,.042-.041h.25a.042.042,0,0,1,.043.041.043.043,0,0,1-.043.042Z" fill="#fff"/>
      </g>
    </g>
    <g id="Grupo_180033" data-name="Grupo 180033">
      <g id="Grupo_180032" data-name="Grupo 180032" clip-path="url(#clip-path-45)">
        <rect id="Rectángulo_103075" data-name="Rectángulo 103075" width="8.443" height="7.412" transform="matrix(0.992, -0.125, 0.125, 0.992, 196.72, 141.263)" fill="url(#linear-gradient-36)"/>
      </g>
    </g>
    <g id="Grupo_180035" data-name="Grupo 180035">
      <g id="Grupo_180034" data-name="Grupo 180034" clip-path="url(#clip-path-46)">
        <rect id="Rectángulo_103076" data-name="Rectángulo 103076" width="5.852" height="4.947" transform="translate(198.445 141.935)" fill="url(#linear-gradient-37)"/>
      </g>
    </g>
    <g id="Grupo_180037" data-name="Grupo 180037">
      <g id="Grupo_180036" data-name="Grupo 180036" clip-path="url(#clip-path)">
        <path id="Trazado_242389" data-name="Trazado 242389" d="M201.176,106.964c.362-9.706,1.011-22.258,2.065-27.529,1.832-9.158,8.307-12.621,8.307-12.621,13.8,2.031.241,26.052.241,26.052l-4.381,15.164a13.087,13.087,0,0,0-6.232-1.066" fill="#8c6df2"/>
      </g>
    </g>
    <g id="Grupo_180039" data-name="Grupo 180039">
      <g id="Grupo_180038" data-name="Grupo 180038" clip-path="url(#clip-path-48)">
        <rect id="Rectángulo_103078" data-name="Rectángulo 103078" width="10.592" height="22.346" transform="translate(196.785 107.159) rotate(-5.831)" fill="url(#linear-gradient-38)"/>
      </g>
    </g>
    <g id="Grupo_180041" data-name="Grupo 180041">
      <g id="Grupo_180040" data-name="Grupo 180040" clip-path="url(#clip-path)">
        <path id="Trazado_242391" data-name="Trazado 242391" d="M258.4,44.4s3.588,1.745,4.247,3.75c.529,1.608,4.5,1.815,4.888,4.979a3.629,3.629,0,0,0,3.038,3.19c4.051.621,10.295,2.725,11.294,9.759.762,5.37-1.975,7.4-4.847,8.11a4.069,4.069,0,0,0-3.085,4.7c.409,2.043-.2,4.4-3.741,6.272-7.931,4.185-15.852-9.915-15.852-9.915l-1.624-24.62Z"/>
      </g>
    </g>
    <g id="Grupo_180043" data-name="Grupo 180043">
      <g id="Grupo_180042" data-name="Grupo 180042" clip-path="url(#clip-path-50)">
        <rect id="Rectángulo_103080" data-name="Rectángulo 103080" width="9.332" height="7.673" transform="translate(290.902 197.162)" fill="url(#linear-gradient-39)"/>
      </g>
    </g>
    <g id="Grupo_180045" data-name="Grupo 180045">
      <g id="Grupo_180044" data-name="Grupo 180044" clip-path="url(#clip-path-51)">
        <rect id="Rectángulo_103081" data-name="Rectángulo 103081" width="55.291" height="17.256" transform="matrix(0.085, -0.996, 0.996, 0.085, 246.209, 203.364)" fill="url(#linear-gradient-40)"/>
      </g>
    </g>
    <g id="Grupo_180047" data-name="Grupo 180047">
      <g id="Grupo_180046" data-name="Grupo 180046" clip-path="url(#clip-path-52)">
        <rect id="Rectángulo_103082" data-name="Rectángulo 103082" width="15.201" height="11.093" transform="translate(248.699 193.748)" fill="url(#linear-gradient-41)"/>
      </g>
    </g>
    <g id="Grupo_180049" data-name="Grupo 180049">
      <g id="Grupo_180048" data-name="Grupo 180048" clip-path="url(#clip-path-53)">
        <rect id="Rectángulo_103083" data-name="Rectángulo 103083" width="54.713" height="32.47" transform="matrix(0.085, -0.996, 0.996, 0.085, 265.9, 201.753)" fill="url(#linear-gradient-42)"/>
      </g>
    </g>
    <g id="Grupo_180051" data-name="Grupo 180051">
      <g id="Grupo_180050" data-name="Grupo 180050" clip-path="url(#clip-path)">
        <path id="Trazado_242396" data-name="Trazado 242396" d="M260.569,103.385c-4-16.941,6.13-26.523,6.13-26.523-6.39-6.134-18.034-8.925-18.034-8.925s-11.111,8.123-9.793,14.48c.773,3.727,7.81,22.321,7.81,22.321a15.463,15.463,0,0,0,13.887-1.353" fill="#fdb74d"/>
      </g>
    </g>
    <g id="Grupo_180053" data-name="Grupo 180053">
      <g id="Grupo_180052" data-name="Grupo 180052" clip-path="url(#clip-path-55)">
        <rect id="Rectángulo_103085" data-name="Rectángulo 103085" width="62.441" height="56.391" transform="translate(221.569 141.231) rotate(-57.995)" fill="url(#linear-gradient-43)"/>
      </g>
    </g>
    <g id="Grupo_180055" data-name="Grupo 180055">
      <g id="Grupo_180054" data-name="Grupo 180054" clip-path="url(#clip-path-56)">
        <rect id="Rectángulo_103086" data-name="Rectángulo 103086" width="10.804" height="17.762" transform="matrix(0.999, -0.051, 0.051, 0.999, 248.675, 55.394)" fill="url(#linear-gradient-44)"/>
      </g>
    </g>
    <g id="Grupo_180057" data-name="Grupo 180057">
      <g id="Grupo_180056" data-name="Grupo 180056" clip-path="url(#clip-path-57)">
        <rect id="Rectángulo_103087" data-name="Rectángulo 103087" width="28.015" height="37.64" transform="translate(261.371 76.862)" fill="url(#linear-gradient-45)"/>
      </g>
    </g>
    <g id="Grupo_180059" data-name="Grupo 180059">
      <g id="Grupo_180058" data-name="Grupo 180058" clip-path="url(#clip-path-58)">
        <rect id="Rectángulo_103088" data-name="Rectángulo 103088" width="16.855" height="16.992" transform="matrix(1, -0.004, 0.004, 1, 243.209, 42.911)" fill="url(#linear-gradient-46)"/>
      </g>
    </g>
    <g id="Grupo_180061" data-name="Grupo 180061">
      <g id="Grupo_180060" data-name="Grupo 180060" clip-path="url(#clip-path)">
        <path id="Trazado_242401" data-name="Trazado 242401" d="M254.2,52.131s1.268-8.548-5.829-7.24l-1.435,1.494s-3.474-3.912.371-6.87,9.178-2.2,12.129,3.184,4.023,9.167,1.549,12.512-4.334.476-4.334.476,1.134-2.9.193-4.138-2.156.723-2.156.723Z"/>
      </g>
    </g>
    <g id="Grupo_180063" data-name="Grupo 180063">
      <g id="Grupo_180062" data-name="Grupo 180062" clip-path="url(#clip-path-60)">
        <rect id="Rectángulo_103090" data-name="Rectángulo 103090" width="5.138" height="5.322" transform="translate(255.155 49.496) rotate(-0.201)" fill="url(#linear-gradient-47)"/>
      </g>
    </g>
    <g id="Grupo_180068" data-name="Grupo 180068">
      <g id="Grupo_180067" data-name="Grupo 180067" clip-path="url(#clip-path)">
        <g id="Grupo_180066" data-name="Grupo 180066" opacity="0.7" style="isolation: isolate">
          <g id="Grupo_180065" data-name="Grupo 180065">
            <g id="Grupo_180064" data-name="Grupo 180064" clip-path="url(#clip-path-62)">
              <path id="Trazado_242403" data-name="Trazado 242403" d="M20.359,56.32A22.765,22.765,0,1,1,50.668,45.463,22.765,22.765,0,0,1,20.359,56.32" fill="#5038a1"/>
            </g>
          </g>
        </g>
        <path id="Trazado_242404" data-name="Trazado 242404" d="M19.832,45.212a7.588,7.588,0,1,1,10.1-3.619A7.588,7.588,0,0,1,19.832,45.212Z" fill="none" stroke="#fff" stroke-width="1.98"/>
        <path id="Trazado_242405" data-name="Trazado 242405" d="M50.092,98.556a4.619,4.619,0,1,1,6.15-2.2,4.62,4.62,0,0,1-6.15,2.2" fill="#fdb74d"/>
        <path id="Trazado_242406" data-name="Trazado 242406" d="M50.515,97.661a3.629,3.629,0,1,1,4.832-1.731,3.63,3.63,0,0,1-4.832,1.731" fill="#fdb74d"/>
        <path id="Trazado_242407" data-name="Trazado 242407" d="M50.515,97.661a3.629,3.629,0,1,1,4.832-1.731A3.63,3.63,0,0,1,50.515,97.661Z" fill="none" stroke="#8c6df2" stroke-width="1.98"/>
        <path id="Trazado_242408" data-name="Trazado 242408" d="M48.942,60.061A2.969,2.969,0,1,1,52.9,58.645a2.969,2.969,0,0,1-3.953,1.416" fill="#fdb74d"/>
      </g>
    </g>
  </g>
</svg>
