<svg id="Grupo_178745" data-name="Grupo 178745" xmlns="http://www.w3.org/2000/svg" xmlns:xlink="http://www.w3.org/1999/xlink" width="1240" height="381.327" viewBox="0 0 1240 381.327">
  <defs>
    <clipPath id="clip-path">
      <rect id="Rectángulo_102362" data-name="Rectángulo 102362" width="1240" height="381.327" fill="none"/>
    </clipPath>
    <clipPath id="clip-path-2">
      <rect id="Rectángulo_102361" data-name="Rectángulo 102361" width="1239.999" height="381.327" fill="none"/>
    </clipPath>
    <clipPath id="clip-path-3">
      <rect id="Rectángulo_102354" data-name="Rectángulo 102354" width="47.411" height="47.411" fill="none"/>
    </clipPath>
    <clipPath id="clip-path-4">
      <rect id="Rectángulo_102355" data-name="Rectángulo 102355" width="81.022" height="81.025" fill="none"/>
    </clipPath>
    <clipPath id="clip-path-5">
      <rect id="Rectángulo_102356" data-name="Rectángulo 102356" width="16.3" height="4.388" fill="none"/>
    </clipPath>
    <clipPath id="clip-path-6">
      <rect id="Rectángulo_102357" data-name="Rectángulo 102357" width="16.262" height="3.901" fill="none"/>
    </clipPath>
    <clipPath id="clip-path-7">
      <rect id="Rectángulo_102358" data-name="Rectángulo 102358" width="28.454" height="8.403" fill="none"/>
    </clipPath>
    <clipPath id="clip-path-8">
      <rect id="Rectángulo_102359" data-name="Rectángulo 102359" width="4.977" height="20.998" fill="none"/>
    </clipPath>
    <clipPath id="clip-path-9">
      <rect id="Rectángulo_102360" data-name="Rectángulo 102360" width="25.093" height="3.805" fill="none"/>
    </clipPath>
  </defs>
  <g id="Grupo_178795" data-name="Grupo 178795" clip-path="url(#clip-path)">
    <g id="Grupo_178794" data-name="Grupo 178794">
      <g id="Grupo_178793" data-name="Grupo 178793" clip-path="url(#clip-path-2)">
        <path id="Trazado_241546" data-name="Trazado 241546" d="M38.081,342.841c1.213,5.582,2.579,11.025,4.051,16.29.1.324.179.638.272.955H1187.588a324.99,324.99,0,0,0,16.357-48.721q1.135-4.531,2.143-9.11a298.457,298.457,0,0,0,7.186-61.523q.012-1.776,0-3.538c0-.58-.007-1.157-.015-1.738q-.143-10.7-1.206-21.152-.768-7.441-2.035-14.7-1.535-8.8-3.9-17.4c-5.26-19.059-13.6-36.594-25.557-51.5a119.5,119.5,0,0,0-17.989-18.1q-1.618-1.32-3.3-2.586c-34.753-26.229-88.376-37.05-166.7-20.756a124.046,124.046,0,0,1-38.548,1.779q-4.332-.456-8.665-1.185A180.279,180.279,0,0,1,901.74,76.859q-6.109-2.7-11.972-5.215a.047.047,0,0,0-.024-.008C695.323-11.583,692.862,62.111,587.735,56.86c-60.862-3.041-120.4-79.123-200.876-24.644-.334.227-.666.454-1,.687-27.066,18.647-55.427,41.251-85.205,68.383q-6.681,6.089-13.1,11.32c-64.138,52.385-109.516,44.343-152.932,53.058-15.641,3.14-31.027,8.454-46.94,19.56A128.041,128.041,0,0,0,54.6,218.217c-12.653,18.595-18.953,39.232-21.08,60.105-.244,2.362-.429,4.729-.572,7.1A203.081,203.081,0,0,0,35.679,330.4q1.06,6.318,2.4,12.439" transform="translate(-3.01 -1.162)" fill="#e5e1f1"/>
        <g id="Grupo_178774" data-name="Grupo 178774" transform="translate(11.366 274.458)" opacity="0.7" style="isolation: isolate">
          <g id="Grupo_178773" data-name="Grupo 178773">
            <g id="Grupo_178772" data-name="Grupo 178772" clip-path="url(#clip-path-3)">
              <path id="Trazado_241547" data-name="Trazado 241547" d="M29.566,348.748a23.7,23.7,0,1,1,29.4-16.085,23.7,23.7,0,0,1-29.4,16.085" transform="translate(-12.519 -302.298)" fill="#5038a1"/>
            </g>
          </g>
        </g>
        <path id="Trazado_241548" data-name="Trazado 241548" d="M28.136,339.4a7.9,7.9,0,1,1,9.8-5.362A7.9,7.9,0,0,1,28.136,339.4Z" transform="translate(-2.068 -29.831)" fill="none" stroke="#fff" stroke-width="2.27"/>
        <path id="Trazado_241549" data-name="Trazado 241549" d="M72.172,395.024a4.809,4.809,0,1,1,5.966-3.264,4.809,4.809,0,0,1-5.966,3.264" transform="translate(-6.328 -35.511)" fill="#fdb74d"/>
        <path id="Trazado_241550" data-name="Trazado 241550" d="M72.566,394.14a3.778,3.778,0,1,1,4.688-2.564,3.777,3.777,0,0,1-4.688,2.564" transform="translate(-6.433 -35.616)" fill="#fdb74d"/>
        <path id="Trazado_241551" data-name="Trazado 241551" d="M72.566,394.14a3.778,3.778,0,1,1,4.688-2.564A3.777,3.777,0,0,1,72.566,394.14Z" transform="translate(-6.433 -35.616)" fill="none" stroke="#8c6df2" stroke-width="2.27"/>
        <path id="Trazado_241552" data-name="Trazado 241552" d="M64.111,351.972a3.091,3.091,0,1,1,3.835-2.1,3.091,3.091,0,0,1-3.835,2.1" transform="translate(-5.7 -31.857)" fill="#fdb74d"/>
        <g id="Grupo_178777" data-name="Grupo 178777" transform="translate(1154.911 293.685)" opacity="0.5">
          <g id="Grupo_178776" data-name="Grupo 178776">
            <g id="Grupo_178775" data-name="Grupo 178775" clip-path="url(#clip-path-4)">
              <path id="Trazado_241553" data-name="Trazado 241553" d="M1353.083,363.988a40.513,40.513,0,1,0-40.513,40.513,40.513,40.513,0,0,0,40.513-40.513" transform="translate(-1272.06 -323.475)" fill="#fdb74d"/>
            </g>
          </g>
        </g>
        <circle id="Elipse_6218" data-name="Elipse 6218" cx="35.417" cy="35.417" r="35.417" transform="translate(1160.005 298.781)" fill="none" stroke="#fff" stroke-linecap="round" stroke-width="4.395" stroke-dasharray="3.297 8.791"/>
        <path id="Trazado_241554" data-name="Trazado 241554" d="M80.016,45.131A71.556,71.556,0,0,1,95.669,34.288l.165-17.657,28.549-6.185,7.459,16a71.563,71.563,0,0,1,18.739,3.39l12.6-12.363,24.561,15.814L181.7,49.87a71.521,71.521,0,0,1,10.843,15.658l17.654.165,6.186,28.548-16,7.46a71.556,71.556,0,0,1-3.39,18.737l12.361,12.6L193.543,157.6l-16.583-6.039A71.526,71.526,0,0,1,161.3,162.4l-.165,17.657-28.548,6.185-7.46-16a71.632,71.632,0,0,1-18.738-3.391l-12.6,12.363L69.234,163.4l6.038-16.582a71.471,71.471,0,0,1-10.844-15.656L46.773,131l-6.186-28.548,16-7.461a71.624,71.624,0,0,1,3.39-18.737l-12.362-12.6L63.43,39.091ZM95.96,77.4a38.684,38.684,0,1,0,53.466-11.587A38.683,38.683,0,0,0,95.96,77.4" transform="translate(-3.738 -0.962)" fill="#fedc72"/>
        <path id="Trazado_241555" data-name="Trazado 241555" d="M123,380.611l-2.8,29.644-16.024-1.19,2.744-29.707Z" transform="translate(-9.594 -34.937)" fill="#ff725e"/>
        <path id="Trazado_241556" data-name="Trazado 241556" d="M113.224,408.573c-.133-.015.452-6.507,1.308-14.5s1.658-14.464,1.791-14.45-.452,6.506-1.308,14.5-1.658,14.464-1.791,14.449" transform="translate(-10.426 -34.961)" fill="#263238"/>
        <path id="Trazado_241557" data-name="Trazado 241557" d="M120.4,411.011l-16.023-1.243-.193,2.1,16.024,1.19Z" transform="translate(-9.594 -37.737)" fill="#263238"/>
        <path id="Trazado_241558" data-name="Trazado 241558" d="M105.145,401.214c-.024-.021.137-.243.473-.607a11.2,11.2,0,0,1,1.574-1.384,10.918,10.918,0,0,1,2.754-1.478,8.554,8.554,0,0,1,9.778,2.828,7.358,7.358,0,0,1,1,1.854,2.161,2.161,0,0,1,.184.749,16.983,16.983,0,0,0-1.454-2.392,8.552,8.552,0,0,0-5.749-3.051,9.823,9.823,0,0,0-6.314,1.772c-1.446.96-2.183,1.771-2.244,1.709" transform="translate(-9.683 -36.58)" fill="#263238"/>
        <g id="Grupo_178780" data-name="Grupo 178780" transform="translate(96.245 352.876)" opacity="0.3">
          <g id="Grupo_178779" data-name="Grupo 178779">
            <g id="Grupo_178778" data-name="Grupo 178778" clip-path="url(#clip-path-5)">
              <path id="Trazado_241559" data-name="Trazado 241559" d="M106.309,388.671l-.3,3.267,16.067,1.121.232-2.46Z" transform="translate(-106.008 -388.671)"/>
            </g>
          </g>
        </g>
        <path id="Trazado_241560" data-name="Trazado 241560" d="M194.241,378.454l1.926,29.714-16.01,1.359-1.991-29.767Z" transform="translate(-16.408 -34.853)" fill="#ff725e"/>
        <path id="Trazado_241561" data-name="Trazado 241561" d="M189.044,407.738c-.134.007-.583-6.5-1-14.525s-.652-14.545-.518-14.552.583,6.5,1,14.527.651,14.543.518,14.55" transform="translate(-17.266 -34.872)" fill="#263238"/>
        <path id="Trazado_241562" data-name="Trazado 241562" d="M196.222,408.925,180.2,410.232l.14,2.1,16.01-1.359Z" transform="translate(-16.596 -37.659)" fill="#263238"/>
        <path id="Trazado_241563" data-name="Trazado 241563" d="M179.658,401.664a2.146,2.146,0,0,1,.37-.675,11.191,11.191,0,0,1,1.337-1.615,10.9,10.9,0,0,1,2.484-1.895,8.553,8.553,0,0,1,10.1,1.245,7.347,7.347,0,0,1,1.279,1.673,2.089,2.089,0,0,1,.3.71,16.81,16.81,0,0,0-1.814-2.133,8.557,8.557,0,0,0-6.159-2.1,9.833,9.833,0,0,0-5.955,2.749c-1.276,1.176-1.875,2.094-1.946,2.042" transform="translate(-16.545 -36.504)" fill="#263238"/>
        <g id="Grupo_178783" data-name="Grupo 178783" transform="translate(162.325 352.752)" opacity="0.3">
          <g id="Grupo_178782" data-name="Grupo 178782">
            <g id="Grupo_178781" data-name="Grupo 178781" clip-path="url(#clip-path-6)">
              <path id="Trazado_241564" data-name="Trazado 241564" d="M178.79,389.161l.219,3.273L195.051,391l-.16-2.466Z" transform="translate(-178.79 -388.533)"/>
            </g>
          </g>
        </g>
        <path id="Trazado_241565" data-name="Trazado 241565" d="M142.872,84.084l-22.065,3.292L119.774,68.5s-1.594-.068-3-8.123-4.014-21.707-4.014-21.707a30.3,30.3,0,0,1,29.768-1.184l1.388.721Z" transform="translate(-10.384 -3.144)" fill="#ffc09d"/>
        <path id="Trazado_241566" data-name="Trazado 241566" d="M145.957,49.953c.133-.083,5.478-2.57,6.189,2.978s-5.2,5.155-5.232,5-.957-7.975-.957-7.975" transform="translate(-13.442 -4.543)" fill="#ffc09d"/>
        <path id="Trazado_241567" data-name="Trazado 241567" d="M115.726,53.532c-.153-.036-5.462-.538-4.386,4.951s6.564,3.25,6.543,3.091-2.157-8.042-2.157-8.042" transform="translate(-10.24 -4.927)" fill="#ffc09d"/>
        <path id="Trazado_241568" data-name="Trazado 241568" d="M144.541,47.505c-.105,4.762.457,7.164.166,10.381-.458,5.09-2.366,9.243-6.531,12.423s-10.341,4.135-14.8,1.445c-3.091-1.866-5.439-4.159-6.405-7.566s-2.364-9.489-2.956-12.978c-1.066-6.294-2.479-12.246-2.479-12.246l18.116-6.275,11.595,4.372Z" transform="translate(-10.272 -3.011)" fill="#263238"/>
        <path id="Trazado_241569" data-name="Trazado 241569" d="M130.988,78.7a6.314,6.314,0,0,0,3.312-.251,6.247,6.247,0,0,0,2.97-1.465c-.076-.129-1.387.511-3.109.973s-3.176.593-3.173.743" transform="translate(-12.063 -7.088)" fill="#263238"/>
        <path id="Trazado_241570" data-name="Trazado 241570" d="M144.659,54.715c-.221-4.827-.744-10.3-.786-15.424-.015-1.921.239-4.736-.241-6.6a15.376,15.376,0,0,0-2.124-5.351,8.275,8.275,0,0,0-6.349-3.306,8.528,8.528,0,0,0-6.627,2.9,6.4,6.4,0,0,0-6.8-1.413,6.163,6.163,0,0,0-3.84,5.664,4.506,4.506,0,0,0-5.164.293,4.166,4.166,0,0,0-1.112,4.9,4.221,4.221,0,0,0-2.71,2.813,3.971,3.971,0,0,0,.922,3.707c1.072,1.145,2.744,1.6,3.895,2.669a4.531,4.531,0,0,1,1.092,4.935" transform="translate(-10.018 -2.213)" fill="#263238"/>
        <path id="Trazado_241571" data-name="Trazado 241571" d="M116.73,43a1.249,1.249,0,0,0,.291.485,3.743,3.743,0,0,0,1.274,1,4.05,4.05,0,0,0,2.546.349A4.276,4.276,0,0,0,123.609,43l-.411-.04a3.842,3.842,0,0,0,2.941,2.357,4.645,4.645,0,0,0,4.121-1.191,6.2,6.2,0,0,0,1.879-3.375l-.443.123a5.368,5.368,0,0,0,4.583,1.551,5,5,0,0,0,3.324-1.976,4.8,4.8,0,0,0,.945-2.319,1.975,1.975,0,0,0-.035-.892c-.039,0-.03.315-.141.868a5.045,5.045,0,0,1-1.03,2.154A4.733,4.733,0,0,1,136.224,42a4.949,4.949,0,0,1-4.145-1.459l-.344-.369-.1.491a5.779,5.779,0,0,1-1.735,3.091,4.139,4.139,0,0,1-3.652,1.08,3.412,3.412,0,0,1-2.618-2.022l-.158-.444-.252.4a3.915,3.915,0,0,1-2.454,1.709,3.86,3.86,0,0,1-2.355-.229A5.284,5.284,0,0,1,116.73,43" transform="translate(-10.75 -3.429)" fill="#455a64"/>
        <path id="Trazado_241572" data-name="Trazado 241572" d="M116.36,40.192a4.942,4.942,0,0,1,.471-2.137,3.447,3.447,0,0,1,1.754-1.591,3.7,3.7,0,0,1,2.928.064l.5.242-.135-.532a4.063,4.063,0,0,1-.065-1.617,4.437,4.437,0,0,1,1.876-2.948,4.585,4.585,0,0,1,2.866-.716,6.247,6.247,0,0,1,2.637.926c.02-.018-.149-.243-.564-.538A4.635,4.635,0,0,0,126.6,30.6a4.7,4.7,0,0,0-5.307,3.95,4.45,4.45,0,0,0,.085,1.821l.369-.291a4.113,4.113,0,0,0-3.342-.016,3.69,3.69,0,0,0-1.881,1.855,3.434,3.434,0,0,0-.314,1.681c.035.4.123.6.15.6" transform="translate(-10.701 -2.814)" fill="#455a64"/>
        <path id="Trazado_241573" data-name="Trazado 241573" d="M129.442,38.762c.067-.042-.066-.312-.107-.761a3.56,3.56,0,0,1,.319-1.725,17.652,17.652,0,0,1,.841-1.637c.241-.33.542-.176.577-.21.028-.014.011-.127-.159-.2a.667.667,0,0,0-.692.169,4.127,4.127,0,0,0-.542.734,6.538,6.538,0,0,0-.513.958,2.982,2.982,0,0,0-.2,1.985c.154.508.425.729.475.689" transform="translate(-11.869 -3.149)" fill="#455a64"/>
        <path id="Trazado_241574" data-name="Trazado 241574" d="M139.881,29.424c.055-.03-.067-.429-.511-.951a2.751,2.751,0,0,0-.991-.725,2.309,2.309,0,0,0-1.567-.076,3.689,3.689,0,0,0-2.041,1.736c-.335.577-.468.959-.409.993s.32-.29.719-.794a3.989,3.989,0,0,1,1.88-1.446,2.242,2.242,0,0,1,2.141.567c.469.409.71.738.779.7" transform="translate(-12.373 -2.539)" fill="#455a64"/>
        <path id="Trazado_241575" data-name="Trazado 241575" d="M141.416,55.1a9.016,9.016,0,0,0,1.4-3.839,8.8,8.8,0,0,0,.052-4.057c-.156.007-.166,1.8-.572,3.973s-1.024,3.868-.88,3.923" transform="translate(-13.022 -4.348)" fill="#455a64"/>
        <path id="Trazado_241576" data-name="Trazado 241576" d="M138.9,57.24a6.726,6.726,0,0,0,.977-2.731,6.574,6.574,0,0,0,.232-2.874,10.262,10.262,0,0,0-.749,2.775,10.18,10.18,0,0,0-.459,2.831" transform="translate(-12.788 -4.755)" fill="#455a64"/>
        <path id="Trazado_241577" data-name="Trazado 241577" d="M121.664,61.024a8.549,8.549,0,0,0,1.429,4.746,8.853,8.853,0,0,0,3.5,3.588,30.668,30.668,0,0,1-3.036-3.846,30,30,0,0,1-1.888-4.488" transform="translate(-11.201 -5.62)" fill="#455a64"/>
        <path id="Trazado_241578" data-name="Trazado 241578" d="M118.17,57.037a6.893,6.893,0,0,0,.343,4.428,7.05,7.05,0,0,0,2.578,3.652,24.241,24.241,0,0,1-2.079-3.825,23.937,23.937,0,0,1-.842-4.254" transform="translate(-10.864 -5.253)" fill="#455a64"/>
        <path id="Trazado_241579" data-name="Trazado 241579" d="M120.563,87.59l.2-4.734,23.063-4.872.815,3.9Z" transform="translate(-11.103 -7.182)" fill="#fff"/>
        <path id="Trazado_241580" data-name="Trazado 241580" d="M40.981,150.462s-1.139.585-.344,1.419,11.283,10.148,12.7,11.061A29.934,29.934,0,0,0,59,164.957l2.771-.516,1.622-6.68,1.957-3.214-.5-.738,1.842-7.142s-1.6-.648-2.331.5c-1.031,1.623-2.456,4.247-2.456,4.247s-2.884.439-3.934-.813-7.163-11.569-7.9-11.748-1.863.046-1.265,1.687,4.509,7.491,4.36,7.812-.743.76-1.03.477-6.525-8.522-7.513-8.662c-1.053-.151-1.809.7-.841,2.289s6.044,7.379,5.812,7.751-.908-.078-.908-.078-5.8-6.06-6.62-5.952c-.9.12-1.046,1.03-.587,1.782s6.34,6.438,6.443,6.891c.068.3-.182,1.465-.654,1.066s-5.823-3.841-6.285-3.455" transform="translate(-3.716 -12.783)" fill="#ffc09d"/>
        <path id="Trazado_241581" data-name="Trazado 241581" d="M105.955,216.542l-1.221,79.232-2.691,82.25,22.326,1.614,7.533-83.864,8.572-59.506,1.888-.116L159.228,298.1l10.512,79.5c1.306-.327,21.075-1.888,21.075-1.888L177.1,214.741l-2.285-13.388-58.775,1.306Z" transform="translate(-9.398 -18.543)" fill="#263238"/>
        <path id="Trazado_241582" data-name="Trazado 241582" d="M171.355,162.737l-1.7-45.827-2.827-31.647h-19.27l-4.92-4.8-24.717,4.8-2.288,6.9s-19.85,6.32-20.952,8.247c0,0,6.962,27.479,10.241,42.877,2.25,10.566,4.619,21.395,4.619,21.395l-6.27,50.694c-.249,0,38.184-1.691,38.184-1.691l37.13-4.017Z" transform="translate(-8.72 -7.41)" fill="#5038a1"/>
        <path id="Trazado_241583" data-name="Trazado 241583" d="M199.5,67.4s-5.656.443-5.991.443-6.157.536-6.157.536a2.984,2.984,0,0,1,1.606-2.008c1.339-.6,3.891-1.534,4.159-2s.861-1.143.325-1.878-10.29-10.639-10.624-11.174-.871-1.54,0-1.74,1.94.736,2.676,1.338,4.535,3.811,4.936,3.611.067-.536.067-.536-6.452-6.64-6.519-6.84-.826-2.158,1.01-1.837c.88.153,7.583,7,7.851,6.736s-5.623-7.831-5.087-8.434,1.138-1.2,2.209,0,5.683,7.363,6.021,7.429a.56.56,0,0,0,.6-.736c-.133-.468-2.874-5.24-2.874-5.776s.538-.667,1.074-.734,6.285,8.251,6.285,8.251,4.437,7.14,4.885,7.965a26.928,26.928,0,0,1,1.272,3.614Z" transform="translate(-16.793 -3.952)" fill="#ffc09d"/>
        <path id="Trazado_241584" data-name="Trazado 241584" d="M197.254,69.782l3.854,14.866-8.809,3.3-19-4.129V111.9l2.686,7.3s39.753-19.185,42.393-21.3c4.936-3.948-2.9-17.543-2.9-17.543l-7.216-15.538Z" transform="translate(-15.96 -5.97)" fill="#5038a1"/>
        <path id="Trazado_241585" data-name="Trazado 241585" d="M91.578,102.437l-4.446,8.9L75.9,148.531l-12.555,3.349-2.359,11.476s19.633,4.6,23.274,3.021c6.185-2.685,16.5-28.292,16.5-28.292l-1.4-21.891Z" transform="translate(-5.616 -9.434)" fill="#5038a1"/>
        <path id="Trazado_241586" data-name="Trazado 241586" d="M216.388,92.7a36.444,36.444,0,0,0-5.857-4.042,36.419,36.419,0,0,0-6.723-2.332,6.4,6.4,0,0,1,2.112.2,18.99,18.99,0,0,1,9.059,4.59,6.378,6.378,0,0,1,1.409,1.586" transform="translate(-18.769 -7.948)" fill="#263238"/>
        <path id="Trazado_241587" data-name="Trazado 241587" d="M212.572,86.478a27.594,27.594,0,0,0-4.793-.37,27.612,27.612,0,0,0-4.707.973,10.156,10.156,0,0,1,9.5-.6" transform="translate(-18.701 -7.881)" fill="#263238"/>
        <path id="Trazado_241588" data-name="Trazado 241588" d="M149.676,85.75a6.4,6.4,0,0,1-1.08.749c-.353.234-.8.5-1.328.782s-1.124.626-1.812.942a45.863,45.863,0,0,1-4.91,2.038,61.3,61.3,0,0,1-6.265,1.77,66.789,66.789,0,0,1-11.711,1.5c-1.511.057-2.734.061-3.578.027a6.423,6.423,0,0,1-1.31-.1,6.489,6.489,0,0,1,1.309-.1c.842-.028,2.059-.086,3.559-.19a79.369,79.369,0,0,0,11.62-1.636c2.235-.5,4.336-1.1,6.223-1.716,1.873-.653,3.549-1.283,4.909-1.92.693-.292,1.3-.6,1.832-.867s1-.494,1.362-.7a6.457,6.457,0,0,1,1.179-.577" transform="translate(-10.838 -7.897)" fill="#263238"/>
        <path id="Trazado_241589" data-name="Trazado 241589" d="M155.629,172.994a7.971,7.971,0,0,1-1.417.361c-.918.209-2.262.441-3.93.665a64.181,64.181,0,0,1-26.081-1.979c-1.616-.473-2.909-.906-3.785-1.25a8.1,8.1,0,0,1-1.346-.571,7.905,7.905,0,0,1,1.411.382c.893.286,2.2.665,3.817,1.09a71.7,71.7,0,0,0,25.943,1.968c1.665-.176,3.012-.353,3.938-.5a8.061,8.061,0,0,1,1.453-.165" transform="translate(-10.966 -15.676)" fill="#263238"/>
        <path id="Trazado_241590" data-name="Trazado 241590" d="M76.639,154.648c-.135-.04,1.243-5.175,3.079-11.469s3.434-11.366,3.57-11.327-1.243,5.174-3.079,11.47-3.435,11.365-3.57,11.325" transform="translate(-7.057 -12.143)" fill="#263238"/>
        <path id="Trazado_241591" data-name="Trazado 241591" d="M143.016,189.634c.142,0,.4,5.712.575,12.763s.2,12.774.063,12.777-.4-5.71-.575-12.764-.2-12.772-.063-12.776" transform="translate(-13.163 -17.464)" fill="#263238"/>
        <path id="Trazado_241592" data-name="Trazado 241592" d="M156.262,237.484c.025.139-4.968,1.17-11.152,2.3s-11.221,1.94-11.246,1.8,4.967-1.17,11.154-2.3,11.219-1.939,11.244-1.8" transform="translate(-12.328 -21.869)" fill="#455a64"/>
        <path id="Trazado_241593" data-name="Trazado 241593" d="M182.227,303.672a46.3,46.3,0,0,0-6.424.832,46.28,46.28,0,0,0-6.086,2.222,5.64,5.64,0,0,1,1.606-1.07,19.117,19.117,0,0,1,8.986-2.193,5.62,5.62,0,0,1,1.918.21" transform="translate(-15.63 -27.947)" fill="#455a64"/>
        <path id="Trazado_241594" data-name="Trazado 241594" d="M123.451,307.87c-.035.15-1.852-.225-4.108-.117-2.257.088-4.035.62-4.081.473a10.812,10.812,0,0,1,8.189-.356" transform="translate(-10.615 -28.294)" fill="#455a64"/>
        <path id="Trazado_241595" data-name="Trazado 241595" d="M109.9,168.116a2.017,2.017,0,0,1-.161-.5c-.1-.39-.219-.872-.365-1.461-.313-1.346-.737-3.169-1.254-5.391-1.039-4.626-2.445-10.892-4-17.816s-2.945-13.195-3.978-17.822l-1.208-5.4-.313-1.472a2.032,2.032,0,0,1-.075-.522,2.027,2.027,0,0,1,.175.5c.109.388.243.866.407,1.45.344,1.262.809,3.1,1.366,5.365,1.113,4.54,2.574,10.831,4.126,17.794s2.9,13.274,3.853,17.849l1.095,5.427c.109.6.2,1.085.271,1.481a2.038,2.038,0,0,1,.06.524" transform="translate(-9.075 -10.842)" fill="#263238"/>
        <path id="Trazado_241596" data-name="Trazado 241596" d="M176.212,103.237a1.137,1.137,0,0,1,.044.28c.02.214.045.486.077.823.063.725.149,1.794.236,3.172.187,2.756.406,6.747.655,11.678.491,9.864,1.069,23.495,1.634,38.552.089,2.426.176,4.815.26,7.082l0-.029c2.007,13.246,3.783,24.97,5.063,33.425.612,4.185,1.1,7.56,1.452,9.929l.368,2.682c.035.283.062.513.084.7a.121.121,0,1,1-.047.007c-.035-.182-.077-.409-.13-.689q-.166-.967-.457-2.668c-.382-2.363-.927-5.73-1.6-9.905-1.323-8.449-3.158-20.164-5.23-33.4l0-.015v-.015c-.084-2.267-.173-4.655-.263-7.081-1.164-29.727-2.026-51.74-2.134-54.525" transform="translate(-16.228 -9.507)" fill="#263238"/>
        <g id="Grupo_178786" data-name="Grupo 178786" transform="translate(107.849 79.588)" opacity="0.3">
          <g id="Grupo_178785" data-name="Grupo 178785">
            <g id="Grupo_178784" data-name="Grupo 178784" clip-path="url(#clip-path-7)">
              <path id="Trazado_241597" data-name="Trazado 241597" d="M147.226,87.661c-9.29,3.744-18.469,6.055-28.436,6.061a8.05,8.05,0,0,0,5.2,2.289,20.84,20.84,0,0,0,5.831-.5,88.1,88.1,0,0,0,14.187-3.986c1.582-.592,3.436-2.3,3.219-3.867" transform="translate(-118.789 -87.661)"/>
            </g>
          </g>
        </g>
        <g id="Grupo_178789" data-name="Grupo 178789" transform="translate(90.019 108.488)" opacity="0.3">
          <g id="Grupo_178788" data-name="Grupo 178788">
            <g id="Grupo_178787" data-name="Grupo 178787" clip-path="url(#clip-path-8)">
              <path id="Trazado_241598" data-name="Trazado 241598" d="M99.15,119.493c.153,3.578-.243,7.878.506,11.379a21.327,21.327,0,0,0,4.471,9.62c-1.732-6.741-3.195-14.127-4.977-21" transform="translate(-99.15 -119.493)"/>
            </g>
          </g>
        </g>
        <g id="Grupo_178792" data-name="Grupo 178792" transform="translate(118.532 162.367)" opacity="0.3">
          <g id="Grupo_178791" data-name="Grupo 178791">
            <g id="Grupo_178790" data-name="Grupo 178790" clip-path="url(#clip-path-9)">
              <path id="Trazado_241599" data-name="Trazado 241599" d="M130.859,178.884l-.3-.046c3.006,3.416,8,3.771,12.546,3.8s9.493-.261,12.546-3.636a61.587,61.587,0,0,1-24.789-.12" transform="translate(-130.555 -178.837)"/>
            </g>
          </g>
        </g>
        <path id="Trazado_241600" data-name="Trazado 241600" d="M1186.779,249.3a67.235,67.235,0,0,0-111.147-45.271,29.7,29.7,0,0,1-31.614,4.527h0a30.269,30.269,0,0,1-17.711-27.166q-.041-1.871-.186-3.764a67.276,67.276,0,0,0-134.345,5.285v.173a27.036,27.036,0,0,1-15.994,24.711l-3.574,1.6a26.335,26.335,0,0,1-28.492-4.249A67.5,67.5,0,0,0,826.724,193.8c-.065-.031-.13-.064-.2-.094-.692-.32-1.394-.625-2.1-.922-.266-.113-.531-.23-.8-.34-.551-.223-1.108-.434-1.665-.644-.434-.164-.866-.329-1.3-.483s-.868-.3-1.3-.439c-.573-.19-1.147-.375-1.726-.549-.337-.1-.676-.2-1.015-.291q-1.024-.29-2.057-.55c-.271-.066-.542-.13-.813-.193q-1.132-.267-2.275-.5c-.242-.047-.485-.093-.727-.138q-1.17-.219-2.352-.4c-.258-.038-.517-.075-.774-.111q-1.129-.155-2.268-.272-.49-.05-.983-.094c-.31-.027-.618-.067-.93-.09s-.638-.027-.959-.045q-.85-.052-1.7-.082c-.533-.018-1.065-.032-1.6-.038-.269,0-.536-.019-.805-.019-.361,0-.718.019-1.078.025-.464.007-.927.015-1.388.033-.685.025-1.365.064-2.044.11-.4.027-.807.05-1.207.084-.765.064-1.523.148-2.28.239-.312.037-.626.067-.937.109-.932.124-1.854.271-2.772.433-.133.024-.27.041-.4.065a66.683,66.683,0,0,0-9.571,2.5l-.034.013q-1.512.516-2.988,1.1l-.234.1q-1.38.553-2.727,1.164l-.3.141q-1.324.607-2.615,1.27l-.275.143q-1.317.682-2.6,1.421c-.064.036-.128.073-.191.11q-1.347.782-2.653,1.622l-.041.025a67.763,67.763,0,0,0-7.962,5.989c-.341.3-.7.575-1.05.855a29.744,29.744,0,0,1-30.331,3.491,30.269,30.269,0,0,1-17.711-27.166q-.042-1.871-.186-3.764a66.959,66.959,0,0,0-19.364-42l-.032-.032q-.942-.949-1.923-1.858c-.083-.077-.162-.156-.246-.232-.587-.541-1.187-1.069-1.793-1.59-.155-.134-.308-.271-.466-.4-.543-.458-1.1-.9-1.656-1.346-.229-.182-.456-.367-.687-.546-.5-.386-1.01-.76-1.522-1.131-.3-.219-.6-.44-.9-.654-.46-.323-.928-.635-1.4-.947-.366-.244-.729-.49-1.1-.727-.426-.271-.858-.532-1.29-.794s-.844-.516-1.273-.764c-.4-.23-.8-.45-1.2-.673-.471-.26-.942-.519-1.421-.768-.379-.2-.763-.385-1.146-.576-.511-.253-1.022-.507-1.541-.747-.366-.171-.736-.331-1.106-.495-.542-.241-1.085-.479-1.635-.706-.363-.149-.73-.29-1.1-.433-.562-.22-1.124-.437-1.692-.642-.372-.134-.749-.259-1.125-.387-.568-.193-1.137-.384-1.711-.563-.389-.12-.782-.232-1.174-.345-.566-.164-1.134-.327-1.707-.476-.417-.109-.836-.208-1.255-.308-.553-.133-1.106-.264-1.664-.383-.449-.1-.9-.182-1.357-.268-.533-.1-1.066-.2-1.6-.292-.49-.081-.984-.151-1.478-.222s-1.009-.143-1.516-.2c-.535-.064-1.074-.114-1.612-.165-.319-.03-.633-.073-.952-.1-.138-.011-.273-.011-.41-.021-.213-.015-.424-.042-.637-.055-.548-.035-1.09-.039-1.634-.061-.524-.022-1.05-.05-1.571-.059-.706-.012-1.4,0-2.1.01-.546.007-1.094.005-1.636.025-.65.025-1.295.074-1.94.117-.584.039-1.17.066-1.75.12-.555.052-1.1.128-1.654.193-.658.077-1.32.143-1.974.24-.267.04-.528.094-.794.138a66.653,66.653,0,0,0-9.067,2.1c-.11.034-.222.062-.332.1-.9.283-1.794.6-2.681.915-.2.074-.413.14-.617.215-.853.318-1.693.661-2.53,1.011-.226.1-.457.183-.682.281-.827.357-1.641.738-2.451,1.128-.222.106-.448.208-.668.317-.806.4-1.6.819-2.386,1.247-.215.117-.431.23-.645.35-.788.44-1.562.9-2.33,1.371-.2.123-.4.242-.6.367q-1.159.727-2.284,1.5c-.18.123-.36.245-.538.37q-1.141.8-2.245,1.643c-.156.119-.311.237-.465.357q-1.125.874-2.212,1.794-.191.161-.38.324-1.114.956-2.185,1.959l-.278.263q-1.107,1.05-2.167,2.146l-.159.167q-1.107,1.156-2.161,2.361a.259.259,0,0,1-.02.024,66.969,66.969,0,0,0-16.511,44.307,27.033,27.033,0,0,1-15.993,24.679l-3.574,1.6a26.334,26.334,0,0,1-28.491-4.249,67.139,67.139,0,0,0-89.645-.934,28.856,28.856,0,0,1-30.813,4.612l-.5-.222a30.3,30.3,0,0,1-17.809-27.207q-.037-1.671-.156-3.358a67.35,67.35,0,1,0-23.006,55.638,29.7,29.7,0,0,1,31.615-4.526,30.265,30.265,0,0,1,17.711,27.165,69.737,69.737,0,0,0,.519,7.068,67.28,67.28,0,0,0,134.011-8.588v-.173a27.03,27.03,0,0,1,15.993-24.71l3.574-1.6a26.334,26.334,0,0,1,28.491,4.249,67.532,67.532,0,0,0,16.982,11.333c.067.031.133.064.2.1.7.321,1.4.627,2.108.926.261.111.521.224.784.332.555.225,1.117.439,1.68.65.43.163.861.326,1.295.479s.873.3,1.312.442c.569.188,1.14.372,1.716.546.341.1.685.2,1.029.3q1.019.289,2.046.547c.273.068.548.132.823.2q1.126.266,2.265.493c.245.049.491.1.736.141q1.168.218,2.35.4c.257.038.513.074.771.111q1.128.155,2.267.271c.329.034.659.066.989.1.308.026.612.066.922.089s.637.026.958.045q.854.052,1.713.082c.53.019,1.058.032,1.585.038.272,0,.541.02.813.02.367,0,.73-.019,1.1-.025.447-.007.893-.015,1.338-.031.7-.025,1.4-.065,2.09-.112.384-.026.77-.047,1.152-.08.8-.067,1.59-.154,2.379-.249.274-.034.551-.058.824-.094a66.7,66.7,0,0,0,9.625-2.006l.152-.046q1.474-.426,2.918-.918c.125-.043.249-.089.374-.132q1.339-.464,2.653-.981c.141-.055.28-.113.419-.17q1.3-.522,2.569-1.095l.379-.173q1.31-.6,2.589-1.257c.085-.043.17-.085.253-.129q1.386-.718,2.736-1.5l.016-.009a67.641,67.641,0,0,0,10.248-7.261,29.916,29.916,0,0,1,49.583,22.393,69.737,69.737,0,0,0,.519,7.068c.072.577.2,1.135.289,1.708q.151.981.33,1.955.432,2.367,1.033,4.673c.042.158.081.315.124.472A67.578,67.578,0,0,0,772.366,316.8c.091.039.182.081.273.119q1.523.633,3.079,1.193c.878.317,1.764.619,2.658.9q1.094.34,2.2.645,1.828.505,3.694.91c.529.113,1.061.214,1.594.314,1.464.277,2.94.513,4.433.693.115.014.228.041.344.054.346.039.687.054,1.032.088.421.042.84.1,1.263.129.227.018.451.02.677.035.7.048,1.394.08,2.088.107.587.024,1.174.045,1.759.054.654.008,1.3,0,1.954-.009.615-.009,1.228-.019,1.839-.044s1.209-.067,1.811-.109c.646-.044,1.291-.089,1.931-.152.551-.054,1.1-.124,1.646-.192.681-.084,1.361-.167,2.036-.271.494-.076.982-.167,1.473-.254.716-.127,1.432-.254,2.14-.4.43-.091.855-.2,1.282-.3.758-.175,1.514-.351,2.262-.553.358-.1.71-.205,1.066-.308.8-.231,1.607-.464,2.4-.724.276-.091.546-.192.82-.286.862-.294,1.72-.6,2.565-.924.175-.068.346-.144.521-.214.934-.372,1.861-.756,2.775-1.168.051-.023.1-.048.151-.072a67.34,67.34,0,0,0,39.517-61.482A27.031,27.031,0,0,1,881.64,229.9l3.573-1.6a26.334,26.334,0,0,1,28.491,4.249,67.136,67.136,0,0,0,89.155,1.361,30.064,30.064,0,0,1,31.9-4.773h0a30.27,30.27,0,0,1,17.712,27.166q.041,1.879.187,3.781A67.278,67.278,0,1,0,1186.779,249.3" transform="translate(-22.94 -10.649)" fill="#8c6df2"/>
        <path id="Trazado_241601" data-name="Trazado 241601" d="M318.15,134.974a49.714,49.714,0,1,1-49.713,49.713,49.714,49.714,0,0,1,49.713-49.713" transform="translate(-24.721 -12.43)" fill="#fff"/>
        <line id="Línea_323" data-name="Línea 323" transform="translate(454.106 161.355)" fill="none" stroke="#8c6df2" stroke-linecap="round" stroke-miterlimit="10" stroke-width="3.195"/>
        <line id="Línea_324" data-name="Línea 324" y1="9.628" transform="translate(454.106 145.308)" fill="none" stroke="#8c6df2" stroke-linecap="round" stroke-miterlimit="10" stroke-width="3.195" stroke-dasharray="0 7.07"/>
        <line id="Línea_325" data-name="Línea 325" transform="translate(454.106 142.098)" fill="none" stroke="#8c6df2" stroke-linecap="round" stroke-miterlimit="10" stroke-width="3.195"/>
        <line id="Línea_326" data-name="Línea 326" transform="translate(775.459 161.355)" fill="none" stroke="#8c6df2" stroke-linecap="round" stroke-miterlimit="10" stroke-width="3.195"/>
        <line id="Línea_327" data-name="Línea 327" y1="9.628" transform="translate(775.459 145.308)" fill="none" stroke="#8c6df2" stroke-linecap="round" stroke-miterlimit="10" stroke-width="3.195" stroke-dasharray="0 7.07"/>
        <line id="Línea_328" data-name="Línea 328" transform="translate(775.459 142.098)" fill="none" stroke="#8c6df2" stroke-linecap="round" stroke-miterlimit="10" stroke-width="3.195"/>
        <line id="Línea_329" data-name="Línea 329" transform="translate(1096.811 161.355)" fill="none" stroke="#8c6df2" stroke-linecap="round" stroke-miterlimit="10" stroke-width="3.195"/>
        <line id="Línea_330" data-name="Línea 330" y1="9.628" transform="translate(1096.811 145.308)" fill="none" stroke="#8c6df2" stroke-linecap="round" stroke-miterlimit="10" stroke-width="3.195" stroke-dasharray="0 7.07"/>
        <line id="Línea_331" data-name="Línea 331" transform="translate(1096.811 142.098)" fill="none" stroke="#8c6df2" stroke-linecap="round" stroke-miterlimit="10" stroke-width="3.195"/>
        <line id="Línea_332" data-name="Línea 332" transform="translate(293.429 255.039)" fill="none" stroke="#8c6df2" stroke-linecap="round" stroke-miterlimit="10" stroke-width="3.195"/>
        <line id="Línea_333" data-name="Línea 333" y2="9.628" transform="translate(293.429 261.458)" fill="none" stroke="#8c6df2" stroke-linecap="round" stroke-miterlimit="10" stroke-width="3.195" stroke-dasharray="0 7.07"/>
        <line id="Línea_334" data-name="Línea 334" transform="translate(293.429 274.296)" fill="none" stroke="#8c6df2" stroke-linecap="round" stroke-miterlimit="10" stroke-width="3.195"/>
        <line id="Línea_335" data-name="Línea 335" transform="translate(614.782 255.039)" fill="none" stroke="#8c6df2" stroke-linecap="round" stroke-miterlimit="10" stroke-width="3.195"/>
        <line id="Línea_336" data-name="Línea 336" y2="9.628" transform="translate(614.782 261.458)" fill="none" stroke="#8c6df2" stroke-linecap="round" stroke-miterlimit="10" stroke-width="3.195" stroke-dasharray="0 7.07"/>
        <line id="Línea_337" data-name="Línea 337" transform="translate(614.782 274.296)" fill="none" stroke="#8c6df2" stroke-linecap="round" stroke-miterlimit="10" stroke-width="3.195"/>
        <line id="Línea_338" data-name="Línea 338" transform="translate(936.135 255.039)" fill="none" stroke="#8c6df2" stroke-linecap="round" stroke-miterlimit="10" stroke-width="3.195"/>
        <line id="Línea_339" data-name="Línea 339" y2="9.628" transform="translate(936.135 261.458)" fill="none" stroke="#8c6df2" stroke-linecap="round" stroke-miterlimit="10" stroke-width="3.195" stroke-dasharray="0 7.07"/>
        <line id="Línea_340" data-name="Línea 340" transform="translate(936.135 274.296)" fill="none" stroke="#8c6df2" stroke-linecap="round" stroke-miterlimit="10" stroke-width="3.195"/>
        <path id="Trazado_241602" data-name="Trazado 241602" d="M544.839,263.859a49.714,49.714,0,1,1-49.713-49.713,49.713,49.713,0,0,1,49.713,49.713" transform="translate(-41.02 -19.722)" fill="#fff"/>
        <path id="Trazado_241603" data-name="Trazado 241603" d="M721.813,184.687A49.714,49.714,0,1,1,672.1,134.974a49.713,49.713,0,0,1,49.713,49.713" transform="translate(-57.318 -12.43)" fill="#fff"/>
        <path id="Trazado_241604" data-name="Trazado 241604" d="M1075.749,184.687a49.714,49.714,0,1,1-49.713-49.713,49.713,49.713,0,0,1,49.713,49.713" transform="translate(-89.913 -12.43)" fill="#fff"/>
        <path id="Trazado_241605" data-name="Trazado 241605" d="M898.789,263.859a49.714,49.714,0,1,1-49.713-49.713,49.713,49.713,0,0,1,49.713,49.713" transform="translate(-73.616 -19.722)" fill="#fff"/>
        <path id="Trazado_241606" data-name="Trazado 241606" d="M1252.724,263.859a49.714,49.714,0,1,1-49.713-49.713,49.713,49.713,0,0,1,49.713,49.713" transform="translate(-106.212 -19.722)" fill="#fff"/>
        <path id="Trazado_241607" data-name="Trazado 241607" d="M355.232,197.546c-.273.169-.223.493-.344.736a3.947,3.947,0,0,1-3.861,2.3c-.97-.007-.971,0-.969-.924,0-.5-.162-1.1.051-1.491.234-.429.883-.089,1.344-.187a1.3,1.3,0,0,0,1.171-1.184,4.257,4.257,0,0,0,.033-.664q0-12.366,0-24.73c0-1.464-.407-1.875-1.856-1.875-5.2,0-10.406-.011-15.61.015-.556,0-.687-.155-.643-.67a13.809,13.809,0,0,0,.006-1.575c-.007-.261.084-.378.346-.35.02,0,.04,0,.061,0,5.485,0,10.971-.018,16.456.021a3.739,3.739,0,0,1,3.689,2.923c.025.091-.007.208.125.242Z" transform="translate(-30.809 -15.374)" fill="#5038a1"/>
        <path id="Trazado_241608" data-name="Trazado 241608" d="M308.4,156.963a19.322,19.322,0,0,1,18.171,12.732,18.859,18.859,0,0,1-2.795,18.437,14.913,14.913,0,0,0-2.877,5.592,15.087,15.087,0,0,0,.049,6.606,12.835,12.835,0,0,1-1.661,10.163,12.548,12.548,0,0,1-9.953,5.93A12.894,12.894,0,0,1,295.8,206.23a17.983,17.983,0,0,1-.281-2.342c-.02-.266.046-.358.319-.351.6.015,1.211.029,1.814,0,.382-.021.463.114.481.475a10.1,10.1,0,0,0,4.36,7.991,10.354,10.354,0,0,0,16.129-6.816,19.085,19.085,0,0,0-.425-5.642,15.306,15.306,0,0,1,2.591-11.675,22.335,22.335,0,0,0,3.29-5.469,16.47,16.47,0,0,0-2.012-15.769,15.893,15.893,0,0,0-10.151-6.689,16.3,16.3,0,0,0-14.53,3.8,16.479,16.479,0,0,0-5.372,9.114,14.181,14.181,0,0,0-.342,3.064c0,.37-.129.482-.5.46-.583-.035-1.17-.025-1.753,0-.294.01-.37-.081-.361-.374a19.479,19.479,0,0,1,15.326-18.6,19.867,19.867,0,0,1,4.021-.436" transform="translate(-26.62 -14.455)" fill="#5038a1"/>
        <path id="Trazado_241609" data-name="Trazado 241609" d="M307.589,190c-.867,0-1.737-.036-2.6.007a3.852,3.852,0,0,0-.331,7.662,3.769,3.769,0,0,0,4.312-3.063c.109-.642.321-.846.935-.754a7.05,7.05,0,0,0,1.028.009c.775,0,.8,0,.68.8a6.278,6.278,0,0,1-3.978,5.16,6.021,6.021,0,0,1-6.463-.97,6.1,6.1,0,0,1-2.219-6.5,6.256,6.256,0,0,1,4.9-4.821,8.157,8.157,0,0,1,1.8-.165,42.477,42.477,0,0,0,5.075-.134A10.334,10.334,0,1,0,298.9,175.4c-.032.22-.084.437-.1.657-.07.97-.066.971-1.014.971h-.242c-1.423,0-1.423,0-1.294-1.417a12.912,12.912,0,1,1,15.673,14.031,19.755,19.755,0,0,1-4.332.354" transform="translate(-27.278 -15.113)" fill="#5038a1"/>
        <path id="Trazado_241610" data-name="Trazado 241610" d="M344.254,206.918c0-1.73.018-3.46-.012-5.19-.008-.476.116-.63.593-.592a13.229,13.229,0,0,0,1.632,0c.3-.013.369.09.368.376-.01,2.868-.005,5.737-.007,8.606a1.294,1.294,0,0,1-2.194.986c-.214-.183-.407-.392-.606-.592-2.125-2.128-4.255-4.251-6.367-6.392a1.26,1.26,0,0,0-1-.408c-2.884.018-5.767,0-8.651.021-.439,0-.6-.082-.564-.552a12.758,12.758,0,0,0,.005-1.635c-.013-.306.065-.413.394-.412q4.9.019,9.8,0a1.793,1.793,0,0,1,1.319.628c1.577,1.592,3.163,3.173,4.742,4.764a4.445,4.445,0,0,1,.366.481l.182-.1" transform="translate(-30.155 -18.523)" fill="#5038a1"/>
        <path id="Trazado_241611" data-name="Trazado 241611" d="M341.035,183.784c-1.956,0-3.911-.019-5.867.013-.517.008-.657-.154-.618-.644a12.829,12.829,0,0,0,0-1.574c-.015-.33.114-.408.421-.408q6.048.012,12.1,0c.37,0,.433.136.42.458-.022.565-.029,1.132,0,1.7.021.375-.094.475-.469.471-2-.019-3.992-.009-5.988-.009" transform="translate(-30.809 -16.684)" fill="#5038a1"/>
        <path id="Trazado_241612" data-name="Trazado 241612" d="M341,178.076c-1.975,0-3.949-.014-5.924.011-.431.005-.554-.119-.525-.539a15.576,15.576,0,0,0,0-1.634c-.011-.307.074-.423.4-.423q6.075.015,12.15,0c.345,0,.392.132.384.421-.017.585-.029,1.172,0,1.756.02.368-.127.419-.448.417-2.015-.013-4.03-.006-6.045-.006" transform="translate(-30.81 -16.161)" fill="#5038a1"/>
        <path id="Trazado_241613" data-name="Trazado 241613" d="M341.011,189.467c-1.975,0-3.949-.012-5.924.009-.42.005-.567-.107-.537-.536a12.815,12.815,0,0,0,0-1.573c-.017-.35.052-.49.451-.489q6.045.025,12.09,0c.324,0,.409.1.4.406-.023.585-.027,1.172,0,1.756.016.347-.094.436-.435.433-2.015-.016-4.03-.008-6.045-.008" transform="translate(-30.81 -17.21)" fill="#5038a1"/>
        <path id="Trazado_241614" data-name="Trazado 241614" d="M337.163,193.917c0,1.262,0,1.262-1.284,1.262-1.318,0-1.318,0-1.318-1.347,0-1.234,0-1.234,1.253-1.234h.061c1.288,0,1.288,0,1.288,1.319" transform="translate(-30.811 -17.737)" fill="#5038a1"/>
        <path id="Trazado_241615" data-name="Trazado 241615" d="M341.59,192.6c1.246,0,1.246,0,1.246,1.246,0,1.334,0,1.334-1.334,1.334-1.241,0-1.241,0-1.241-1.241,0-1.338,0-1.338,1.329-1.338" transform="translate(-31.336 -17.737)" fill="#5038a1"/>
        <path id="Trazado_241616" data-name="Trazado 241616" d="M463.254,262.989q6.24-7.727,12.481-15.453c.735-.91,1.252-.994,2.243-.368,1.215.768,2.47,1.48,3.628,2.326a18.754,18.754,0,0,0,7.512,3.295,12.5,12.5,0,0,1,2.076.564,4.2,4.2,0,0,0,2.972-.013c1.858-.608,3.759-1.089,5.636-1.641a3.337,3.337,0,0,1,.967-.108c2.815,0,5.628-.008,8.443.007a1.907,1.907,0,0,0,1.091-.328q3.213-2.069,6.443-4.109a1.392,1.392,0,0,1,2.238.384q5.407,7.019,10.807,14.043a1.4,1.4,0,0,1-.238,2.3q-2.872,2.48-5.755,4.946a2.374,2.374,0,0,0-.618.821q-1.884,3.981-3.8,7.947a.863.863,0,0,0-.012.886,4.613,4.613,0,0,1-3.751,6.745c-.337.03-.409.125-.454.445a4.555,4.555,0,0,1-4.343,4.273c-.3.035-.325.149-.363.4-.412,2.639-1.759,3.982-4.372,4.313-.444.055-.318.334-.35.55a4.6,4.6,0,0,1-3.733,4.1,4.286,4.286,0,0,1-3.842-.994c-.495-.441-.729-.347-1.128.077a4.645,4.645,0,0,1-7.971-2.134c-.084-.347-.123-.5-.556-.478a4.573,4.573,0,0,1-4.86-4.2c-.043-.408-.168-.535-.581-.573a4.535,4.535,0,0,1-4.124-4.719c.014-.469-.094-.594-.559-.7a4.611,4.611,0,0,1-2.691-7.227.64.64,0,0,0,.011-.938c-1.761-2.329-3.458-4.707-5.241-7.019a24.859,24.859,0,0,0-3.34-3.019c-1.021-.919-2.085-1.789-3.119-2.693a10.7,10.7,0,0,1-.749-.794Zm25.6-7.554c-1.195-.327-2.349-.628-3.493-.964-.324-.1-.471.046-.647.262q-5.761,7.034-11.538,14.054a.536.536,0,0,0-.026.814q2.246,2.973,4.439,5.987c.277.381.433.361.794.107a4.584,4.584,0,0,1,7.106,2.569c.113.423.265.472.659.443a4.53,4.53,0,0,1,5.113,4.313c.029.32.131.373.421.4a4.559,4.559,0,0,1,4.225,5.306c-.031.29.038.364.3.439a4.579,4.579,0,0,1,3.237,6.308.5.5,0,0,0,.172.657,2.056,2.056,0,0,0,2.933.039,2.026,2.026,0,0,0-.091-2.926c-.937-.975-1.9-1.922-2.852-2.886-.687-.7-.755-1.439-.2-2.02a1.364,1.364,0,0,1,2.065.172c.956.956,1.9,1.922,2.855,2.883a1.97,1.97,0,0,0,2.026.586,2,2,0,0,0,.829-3.432c-1.73-1.788-3.495-3.539-5.243-5.308a4.672,4.672,0,0,1-.527-.579,1.3,1.3,0,0,1,1.276-2.033,1.592,1.592,0,0,1,.928.564q2.667,2.7,5.336,5.4a2.038,2.038,0,0,0,2.12.675,2.015,2.015,0,0,0,.777-3.482q-3.88-3.938-7.779-7.861a9.48,9.48,0,0,1-.723-.757,1.221,1.221,0,0,1-.084-1.517,1.264,1.264,0,0,1,1.42-.567,1.7,1.7,0,0,1,.85.578q4.049,4.1,8.1,8.188a2.033,2.033,0,1,0,2.867-2.84q-7.539-7.545-15.078-15.09a1.28,1.28,0,0,0-.909-.4c-1.568-.088-3.135-.187-4.7-.328a.787.787,0,0,0-.922.462q-1.45,2.665-2.986,5.284a4.639,4.639,0,1,1-8.064-4.588c1.513-2.743,3.084-5.454,4.629-8.18.127-.224.241-.456.382-.727m28.323,20.7c1.178-2.467,2.247-4.75,3.364-7.01a.917.917,0,0,0-.142-1.147q-5.255-6.64-10.472-13.311a1.087,1.087,0,0,0-.981-.458q-3.861.024-7.722,0a4.668,4.668,0,0,0-1.348.191c-2.8.815-5.594,1.63-8.4,2.425a1.036,1.036,0,0,0-.676.541q-2.272,4.039-4.563,8.067a2.607,2.607,0,0,0-.35.837,2.014,2.014,0,0,0,3.766,1.306c1.158-2.019,2.319-4.038,3.432-6.083a1.716,1.716,0,0,1,1.849-1.006c2.107.179,4.218.312,6.329.44a2.406,2.406,0,0,1,1.658.772q6.851,6.891,13.731,13.754a7.316,7.316,0,0,1,.521.68m-34.638-22.911c-.113-.086-.211-.171-.318-.239-1.54-.983-3.088-1.955-4.618-2.953-.31-.2-.44-.091-.626.146-.646.823-1.309,1.631-1.966,2.444q-4.147,5.133-8.3,10.262c-.258.317-.258.483.071.756q1.961,1.629,3.867,3.322c.313.279.451.236.7-.068q5.46-6.679,10.941-13.339c.083-.1.157-.207.25-.331m29.62-.018a1.942,1.942,0,0,0,.117.211q4.991,6.348,9.975,12.7c.254.324.39.26.649.033,1.279-1.12,2.566-2.233,3.871-3.323.318-.265.351-.428.085-.764-1.229-1.556-2.428-3.137-3.637-4.707q-2.733-3.549-5.469-7.094c-.138-.178-.207-.5-.587-.249-1.659,1.079-3.334,2.131-5,3.193m-28.6,35.213a1.6,1.6,0,0,0,1.157-.372,40.792,40.792,0,0,0,3.539-3.56,1.985,1.985,0,0,0-2.911-2.675c-1.138,1.075-2.25,2.181-3.321,3.322a1.841,1.841,0,0,0-.281,2.134,1.911,1.911,0,0,0,1.817,1.151m2.69,2.73a1.9,1.9,0,0,0,1.15,1.817,1.846,1.846,0,0,0,2.18-.324q1.633-1.55,3.188-3.18a2,2,0,1,0-2.9-2.768c-1.012.988-2,2-3,3a1.978,1.978,0,0,0-.616,1.46m7.345,6.144a1.474,1.474,0,0,0,.935-.24,9.137,9.137,0,0,0,2.407-2.446,1.948,1.948,0,0,0-.463-2.479,1.927,1.927,0,0,0-2.519-.012,19.592,19.592,0,0,0-1.934,1.939,1.85,1.85,0,0,0-.213,2.141,1.918,1.918,0,0,0,1.788,1.1m-12.568-19.806a1.662,1.662,0,0,0-1.207.414,27.573,27.573,0,0,0-1.981,1.983,1.968,1.968,0,0,0,.206,2.665,1.991,1.991,0,0,0,2.675.073,20.889,20.889,0,0,0,1.8-1.8,1.938,1.938,0,0,0,.3-2.25,1.866,1.866,0,0,0-1.789-1.085" transform="translate(-42.663 -22.725)" fill="#5038a1"/>
        <path id="Trazado_241617" data-name="Trazado 241617" d="M492.624,246.866a1.312,1.312,0,0,1-1.854,1.183,1.747,1.747,0,0,1-.475-.338q-4.4-4.391-8.791-8.79a1.315,1.315,0,0,1,1.591-2.093,3.209,3.209,0,0,1,.387.351q4.259,4.256,8.516,8.511a1.693,1.693,0,0,1,.626,1.176" transform="translate(-44.299 -21.787)" fill="#5038a1"/>
        <path id="Trazado_241618" data-name="Trazado 241618" d="M507.831,248.176a1.307,1.307,0,0,1-1.11-1.973,2.731,2.731,0,0,1,.423-.495q4.253-4.259,8.51-8.517a1.549,1.549,0,0,1,1.309-.6,1.3,1.3,0,0,1,.975,1.961,2.659,2.659,0,0,1-.418.5q-4.253,4.26-8.511,8.516a1.612,1.612,0,0,1-1.178.612" transform="translate(-46.649 -21.787)" fill="#5038a1"/>
        <path id="Trazado_241619" data-name="Trazado 241619" d="M501.342,243.343c0,1.178.007,2.356,0,3.534a1.315,1.315,0,1,1-2.618.027q-.012-3.6,0-7.2a1.317,1.317,0,1,1,2.619.038c.008,1.2,0,2.4,0,3.6" transform="translate(-45.929 -21.944)" fill="#5038a1"/>
        <path id="Trazado_241620" data-name="Trazado 241620" d="M500,235.1a1.309,1.309,0,1,1,1.338-1.247A1.312,1.312,0,0,1,500,235.1" transform="translate(-45.929 -21.41)" fill="#5038a1"/>
        <path id="Trazado_241621" data-name="Trazado 241621" d="M708.632,198.025c-.229.107-.186.35-.242.528a5.753,5.753,0,0,1-5.276,4.16c-.862.047-1.728.007-2.576.007-.1.315.122.434.221.589a5.819,5.819,0,0,1-4.439,8.994c-.363.031-.729.039-1.094.039-11.272,0-22.543.016-33.815-.015a13.675,13.675,0,0,0-4.287.648c-2.988.959-6,1.856-9,2.775-1.051.322-1.5.089-1.77-.939q-3.854-14.478-7.7-28.959c-.271-1.02-.078-1.372.914-1.677q5.118-1.574,10.242-3.133a1.264,1.264,0,0,0,.905-.8c1.026-2.479,2.088-4.943,3.138-7.412.044-.1.085-.211.134-.313a1.031,1.031,0,1,1,1.883.815c-.358.885-.747,1.759-1.12,2.637-.748,1.758-1.489,3.518-2.247,5.271a1.5,1.5,0,0,0-.069,1.05q3.663,13.681,7.287,27.373c.132.5.324.636.823.633,3.491-.022,6.982-.01,10.473-.015a1.057,1.057,0,0,0,.665-.08c-.115-.231-.357-.263-.538-.366-8.4-4.748-12.539-11.945-12.023-21.576a22.163,22.163,0,0,1,16.71-19.949,1.893,1.893,0,0,0,1.2-1.078,4.451,4.451,0,0,0-3.045-6.8,4.059,4.059,0,0,0-2.534.337c-2.938,1.394-5.88,2.779-8.8,4.207a12.086,12.086,0,0,0-4.833,4.327c-.075.114-.151.229-.234.337a1.04,1.04,0,0,1-1.44.308,1.008,1.008,0,0,1-.254-1.441,14.685,14.685,0,0,1,3.772-4.106,24.129,24.129,0,0,1,4.242-2.326c2.2-1.047,4.383-2.118,6.594-3.131a6.522,6.522,0,0,1,8.653,8.709c1.29-.054,2.507-.082,3.723-.039.328.012.779.254.965-.039a5.63,5.63,0,0,0,.528-1.464c.064-.218-.16-.228-.305-.28-.32-.114-.644-.225-.959-.356a4.04,4.04,0,0,1,2.53-7.657q5.939,1.69,11.747,3.8a3.975,3.975,0,0,1,2.428,5.008,4.026,4.026,0,0,1-4.953,2.655c-1.247-.324-1.223-.315-1.658.89-.177.492-.074.71.355,1.024a3.534,3.534,0,0,0,2.342.682,18.209,18.209,0,0,1,3.622.055,5.816,5.816,0,0,1,3.827,9.2c-.075.109-.153.217-.266.377a8.98,8.98,0,0,1,1.913.72,5.827,5.827,0,0,1,1.172,9.242c-.31.308-.391.419.033.716a5.622,5.622,0,0,1,2.209,3.117c.051.174-.025.428.223.526Zm-17.507,12.138a32.325,32.325,0,0,0,5.358.047,3.768,3.768,0,0,0,2.595-5.723c-.241-.37-.365-.34-.628-.032-.472.555-.972,1.089-1.494,1.6a1.026,1.026,0,1,1-1.464-1.431c.091-.1.193-.194.287-.292a19.846,19.846,0,0,0,5.437-18.857A20.31,20.31,0,1,0,692.2,207.19c.693-.429,1.269-.345,1.613.2s.163,1.117-.526,1.534c-.71.43-1.44.827-2.161,1.238m-42.814,3.369c.134-.03.225-.044.312-.071,2.934-.9,5.867-1.811,8.806-2.7.394-.119.4-.273.3-.628q-3.554-13.285-7.072-26.579c-.113-.424-.229-.589-.708-.438q-4.294,1.355-8.608,2.647c-.487.145-.509.317-.389.763q2.474,9.194,4.907,18.4c.713,2.682,1.417,5.367,2.144,8.046.053.194-.029.537.3.559m47.65-46.138a4.825,4.825,0,0,0,.607-.116,1.973,1.973,0,0,0,0-3.761q-2.954-1.04-5.931-2.015c-1.749-.569-3.509-1.1-5.272-1.625a2.007,2.007,0,0,0-2.626,1.184,1.984,1.984,0,0,0,1.344,2.594q5.552,1.971,11.209,3.623a5.859,5.859,0,0,0,.667.116m5.142,33.238c3.683.444,5.06-1.216,5.428-3.159a3.736,3.736,0,0,0-2.965-4.236,23.014,23.014,0,0,1-2.463,7.395m.406-20.533a3.71,3.71,0,0,0,.256-4.528,4.215,4.215,0,0,0-4.635-1.528,23.027,23.027,0,0,1,4.379,6.056m1.368,3.536a24.416,24.416,0,0,1,.941,7,3.731,3.731,0,0,0-.941-7m-16.4-16.98c-.236.082-.22.349-.286.537-.283.812-.273.808.534,1.015a24.216,24.216,0,0,1,3.6,1.22c.864.372.852.37,1.159-.537.136-.4.135-.6-.368-.744-1.416-.4-2.809-.891-4.211-1.346-.13-.042-.258-.087-.432-.146" transform="translate(-58.806 -14.52)" fill="#5038a1"/>
        <path id="Trazado_241622" data-name="Trazado 241622" d="M684.006,174.118a17.356,17.356,0,1,1-17.346,17.366,17.4,17.4,0,0,1,17.346-17.366m12.675,25.872c-.3-.176-.582-.324-.845-.5a1.022,1.022,0,0,1,1.021-1.77,3.714,3.714,0,0,1,.533.3c.239.166.374.141.5-.144a15.7,15.7,0,0,0,1.325-4.922c.038-.4-.105-.458-.442-.449-.616.018-1.233.028-1.848-.005a1,1,0,0,1-1.064-1.08c.024-.59.41-.941,1.1-.962.569-.017,1.141-.025,1.71,0,.431.022.6-.064.541-.563a15.506,15.506,0,0,0-1.095-4.284c-.354-.845-.352-.846-1.152-.442a1.042,1.042,0,0,1-1.493-.311c-.326-.543-.142-1.089.5-1.484a1.759,1.759,0,0,1,.3-.169c.439-.163.36-.377.126-.691a15.879,15.879,0,0,0-2.935-3.042c-.286-.223-.588-.571-.893-.582s-.364.509-.567.772a1.051,1.051,0,0,1-1.384.34,1,1,0,0,1-.38-1.362,3.224,3.224,0,0,1,.3-.535c.2-.281.118-.408-.183-.544a15.6,15.6,0,0,0-4.854-1.308c-.351-.036-.486.042-.469.421a18.956,18.956,0,0,1,0,1.916,1.033,1.033,0,0,1-1.052,1.036,1.011,1.011,0,0,1-.987-1.086c-.018-.593-.033-1.188,0-1.779.026-.428-.1-.557-.533-.508a15.445,15.445,0,0,0-4.033.985c-.373.148-.884.2-1.04.556-.086.2.277.572.4.881a.982.982,0,0,1-.384,1.312,1.02,1.02,0,0,1-1.385-.3,1.744,1.744,0,0,1-.248-.408c-.187-.5-.423-.429-.792-.151a16.076,16.076,0,0,0-2.945,2.841c-.695.873-.7.872.166,1.516a1.021,1.021,0,0,1,.325,1.382,1,1,0,0,1-1.314.4,2.525,2.525,0,0,1-.534-.3c-.27-.183-.428-.2-.594.162a16.354,16.354,0,0,0-1.308,4.786c-.049.4.025.588.488.554.567-.042,1.139-.018,1.71-.007.7.015,1.155.388,1.187.964a1.074,1.074,0,0,1-1.153,1.084c-.592.024-1.187.032-1.779,0-.416-.024-.5.137-.452.51a16.21,16.21,0,0,0,1.3,4.789c.149.331.26.382.588.2.968-.552,1.493-.517,1.85.059.372.6.132,1.131-.823,1.7-.3.182-.365.3-.137.6a16.424,16.424,0,0,0,2.972,3.1c.853.675.853.675,1.474-.181a1.021,1.021,0,0,1,1.772,1.011,5.11,5.11,0,0,1-.34.591c-.132.211-.133.338.136.459a15.224,15.224,0,0,0,4.984,1.341c.337.029.444-.069.432-.4-.021-.593-.014-1.187,0-1.779.013-.761.386-1.18,1.025-1.174s1.008.44,1.027,1.195a16.213,16.213,0,0,1-.007,1.642c-.039.483.144.557.577.51a15.363,15.363,0,0,0,3.967-.973c.375-.148.875-.209,1.045-.55.091-.182-.268-.577-.4-.885a.985.985,0,0,1,.433-1.345.969.969,0,0,1,1.323.33c.2.275.358.578.551.9a14.946,14.946,0,0,0,4.155-4.16" transform="translate(-61.395 -16.035)" fill="#5038a1"/>
        <path id="Trazado_241623" data-name="Trazado 241623" d="M688.556,189.765c0,.866.015,1.732,0,2.6a3.132,3.132,0,0,1-3.06,3.132,3.081,3.081,0,0,1-3.136-3.036q-.078-2.732,0-5.468a3.02,3.02,0,0,1,3.14-3.009,3.09,3.09,0,0,1,3.055,3.118c.017.888,0,1.777,0,2.666M686.5,189.7c0-.818.009-1.637,0-2.455-.01-.743-.393-1.183-1.016-1.2-.669-.022-1.075.4-1.082,1.195q-.022,2.489,0,4.979c.006.759.456,1.246,1.075,1.223s1.017-.509,1.024-1.285c.008-.818,0-1.637,0-2.455" transform="translate(-62.837 -16.944)" fill="#5038a1"/>
        <path id="Trazado_241624" data-name="Trazado 241624" d="M851.846,296.807c-10.1-.013-17.4-5.925-19.491-14.726-.22-.924-.466-1.842-.658-2.772-.093-.448-.218-.582-.716-.452a7.729,7.729,0,0,1-6.748-1.184,7.52,7.52,0,0,1-2.985-4.379c-.431-1.7-.856-3.4-1.176-5.127a7.621,7.621,0,0,1,2.866-7.738.707.707,0,0,0,.343-.773c-1.682-9.8,2.786-17.928,11.483-22.655a27.976,27.976,0,0,1,13.8-3.531,50.592,50.592,0,0,1,8.258.306c7.19,1.248,13.357,4.341,17.711,10.351a19.617,19.617,0,0,1,3.307,15.3,1,1,0,0,0,.38,1.112,7.593,7.593,0,0,1,2.713,7.786c-.321,1.575-.7,3.14-1.084,4.7a7.649,7.649,0,0,1-6.119,5.977.96.96,0,0,0-.772.634,12.7,12.7,0,0,1-5.19,6.065,1.6,1.6,0,0,0-.556.738c-3.543,6.7-9.16,10.065-15.364,10.365M830.32,264.274c.032.169.048.287.076.4,1.424,5.844,2.814,11.7,4.283,17.531a16.339,16.339,0,0,0,25.267,9.439,15.256,15.256,0,0,0,4.122-4.216c-.105-.025-.157-.056-.2-.045a29.076,29.076,0,0,1-7.24.922c-.352,0-.433.193-.547.452a3.413,3.413,0,0,1-3.341,2.163q-2.2.012-4.4,0a3.442,3.442,0,0,1-3.6-3.66,3.407,3.407,0,0,1,3.549-3.691c1.464-.018,2.93.005,4.4-.005a3.361,3.361,0,0,1,3.393,2.174.528.528,0,0,0,.6.374,26.771,26.771,0,0,0,7.7-1.2,2.473,2.473,0,0,0,1.839-1.968q1.775-7.463,3.67-14.9c.166-.654-.008-.775-.584-.837a72.945,72.945,0,0,1-8.224-1.348c-7.075-1.584-13.643-4.1-18.334-10.214-2.12,5.847-6.153,8.871-12.437,8.63m20.248-24.234c-.586,0-1.172,0-1.758,0a21.782,21.782,0,0,0-13.9,4.953,15.664,15.664,0,0,0-5.261,16.639c.067.232.077.439.429.458,3.694.2,6.855-.771,9.015-4.012a17.453,17.453,0,0,0,2.211-5.063,1.136,1.136,0,0,1,2.161-.309,20.661,20.661,0,0,0,9.4,8.182c5.493,2.54,11.386,3.467,17.316,4.244.37.048.465-.118.534-.409.19-.805.373-1.613.589-2.412a17.693,17.693,0,0,0,.4-8.462c-1.039-4.832-3.966-8.225-8.1-10.677a22.377,22.377,0,0,0-13.024-3.132m.137-4.344a28.175,28.175,0,0,0-8.435.728c-5.3,1.4-9.948,3.9-13.4,8.254a17.792,17.792,0,0,0-3.541,13.994c.022.16.019.437.205.415a3.8,3.8,0,0,0,1.267-.323c.241-.123.067-.5.058-.757a17.23,17.23,0,0,1,3.527-11.506,22.856,22.856,0,0,1,12.911-8.043c2.929-.75,5.91-.595,8.886-.621a23.64,23.64,0,0,1,12.718,3.556c6.118,3.733,9.433,9.106,9.316,16.384-.013.81.132,1.183.971,1.261.361.033.493.081.555-.347a17.943,17.943,0,0,0-3.08-13.413,21.933,21.933,0,0,0-8.622-6.961,26.492,26.492,0,0,0-13.339-2.621M822.1,266.75a5.474,5.474,0,0,0,.084.673c.349,1.592.711,3.183,1.067,4.775a5.649,5.649,0,0,0,7.3,4.512c.328-.083.484-.133.377-.567q-1.824-7.372-3.587-14.758c-.083-.346-.239-.4-.565-.34a5.744,5.744,0,0,0-4.671,5.705m56.84.107a5.767,5.767,0,0,0-4.609-5.811c-.459-.091-.518.129-.6.461q-.643,2.7-1.306,5.388-1.117,4.572-2.234,9.144c-.064.264-.2.527.259.669a5.7,5.7,0,0,0,7.134-3.692,17.949,17.949,0,0,0,.428-1.773c.312-1.548.8-3.061.927-4.387m-28.377,18.92c-.781,0-1.562-.016-2.341,0-.832.023-1.243.486-1.266,1.37-.025.984.379,1.544,1.23,1.563,1.561.033,3.122.029,4.683,0,.848-.015,1.306-.6,1.287-1.531a1.26,1.26,0,0,0-1.325-1.405c-.756-.018-1.513,0-2.269,0m18.206-3.945c.3.045.4-.182.531-.344a9.923,9.923,0,0,0,1.232-1.882c.086-.175.371-.416.144-.561a2.264,2.264,0,0,0-.971-.258c-.271-.027-.236.252-.281.428-.217.858-.43,1.718-.655,2.617" transform="translate(-75.509 -21.499)" fill="#5038a1"/>
        <path id="Trazado_241625" data-name="Trazado 241625" d="M1039.292,147.9c.252.238.6.167.892.237a9.011,9.011,0,0,1,6.9,8.6c.006.477.017.953,0,1.429a.971.971,0,1,1-1.939-.015,12.878,12.878,0,0,0-.241-3.03,7,7,0,0,0-6.622-5.257c-2.273-.038-4.549-.025-6.823,0a2.794,2.794,0,0,0-2.853,2.71q-.094,4.384,0,8.771a2.751,2.751,0,0,0,2.8,2.686c4.441.025,8.881.007,13.322.022.359,0,.439-.121.419-.444a10.073,10.073,0,0,1,0-1.169.969.969,0,1,1,1.938.009c.019.323.01.65,0,.974a5.784,5.784,0,0,0,.568,2.76,6.329,6.329,0,0,1,.061,5.054c-.632,1.6-2.116,2.148-3.735,2.233-.509.026-.568.171-.584.624a10.347,10.347,0,0,1-3.846,8.107.618.618,0,0,0-.242.552c.007,1.018.024,2.036-.007,3.053-.012.391.152.5.489.609q5.687,1.776,11.363,3.585a6.349,6.349,0,0,1,4.66,6.362c0,.91.009,1.82,0,2.729-.009.674-.371,1.069-.952,1.075a.962.962,0,0,1-.991-1.048c-.02-.974,0-1.95-.008-2.924a4.355,4.355,0,0,0-3.09-4.262c-3.946-1.271-7.906-2.494-11.854-3.756a.722.722,0,0,0-.755.157c-1.515,1.154-3.039,2.3-4.561,3.44-.856.642-1.065.639-1.94-.02-1.487-1.119-2.98-2.23-4.453-3.367a.837.837,0,0,0-.932-.126q-4.053,1.546-8.124,3.043a3.773,3.773,0,0,0-1.746,1.286q-3.338,4.355-6.7,8.691a1.416,1.416,0,0,0-.319.942c.008.9.231,1.919-.4,2.635a3.21,3.21,0,0,0-.613,2.4c-.005.715-.371,1.125-.971,1.122s-.955-.423-.978-1.132c-.028-.864-.028-.864-.893-.864-.606,0-1.214.008-1.819,0-.26,0-.4.046-.391.352.02,1.04-.044,2.084.033,3.118a2.6,2.6,0,0,0,3.564,2.448,3.815,3.815,0,0,0,1.983-1.277q3.185-3.857,6.383-7.7a.989.989,0,0,0,.232-.705q-.012-1.528,0-3.054c0-.744.393-1.2.991-1.194a.982.982,0,0,1,.94,1.217c-.068.71.222.782.826.781q13.387-.027,26.773,0c.532,0,.824-.042.769-.7a.939.939,0,0,1,.955-1.07c.584,0,.973.432.974,1.13,0,4.05.012,8.1-.009,12.151,0,.5.111.649.628.637,1.645-.036,3.292-.03,4.938,0,.442.007.579-.085.576-.557-.025-2.707-.014-5.415-.012-8.123a1.771,1.771,0,0,1,.074-.7.914.914,0,0,1,1.017-.628.883.883,0,0,1,.843.841,9.877,9.877,0,0,1,.016,1.039q0,4.387,0,8.772c0,1-.307,1.3-1.326,1.3h-37.625c-1.046,0-1.348-.3-1.349-1.35,0-2.269,0-4.537,0-6.963-.292.34-.5.567-.693.8-1.545,1.868-3.081,3.744-4.638,5.6a4.753,4.753,0,0,1-5.041,1.749,4.6,4.6,0,0,1-3.608-3.524,15.71,15.71,0,0,1-.146-3.82.955.955,0,0,0-.563-1,2.656,2.656,0,0,1-1.442-2.446c-.013-2.795-.018-5.588,0-8.383a2.53,2.53,0,0,1,2.557-2.762c.372-.032.462-.151.454-.5-.023-.931-.018-1.862-.005-2.794a2.992,2.992,0,1,1,5.981.007q.018,1.721,0,3.444a1.058,1.058,0,0,0,.286.815,2.821,2.821,0,0,1,.742,2.019c0,.987,0,1.974,0,3.142,1.109-1.434,2.106-2.723,3.1-4.014.806-1.046,1.617-2.088,2.411-3.142a5.406,5.406,0,0,1,2.527-1.847c2.675-.982,5.338-2,8.012-2.979a.649.649,0,0,0,.518-.739c-.034-.973-.026-1.949,0-2.923a.878.878,0,0,0-.372-.763,10.138,10.138,0,0,1-3.71-8.025c0-.433-.067-.567-.543-.578a3.915,3.915,0,0,1-4.131-4.287,10.164,10.164,0,0,1,.087-2.2,2.281,2.281,0,0,1,.425-1.074,2.618,2.618,0,0,0,.527-1.985c-.024-1.668-.017-3.336-.011-5a6.783,6.783,0,0,1,6.974-6.969c.956.005,1.557-.077,1.894-1.178a4.241,4.241,0,0,1,2.8-2.612c.19-.071.436-.035.551-.263Zm-7.63,54.4c-4.527,0-9.055.009-13.581-.013-.521,0-.639.146-.629.644.031,1.667.025,3.336,0,5-.005.414.091.544.527.539,2.187-.024,4.375-.013,6.563-.01.808,0,1.251.361,1.237.994-.014.6-.448.953-1.217.955q-2.826.005-5.654,0c-1.448,0-1.422,0-1.46,1.417-.015.53.105.676.658.676q13.094-.031,26.189-.015c1.5,0,1.48,0,1.511-1.494.01-.491-.121-.6-.6-.6-5.22.019-10.441.012-15.661.012a3.285,3.285,0,0,1-.584-.015.969.969,0,0,1,.014-1.927,3.906,3.906,0,0,1,.584-.01c5.2,0,10.4-.01,15.6.015.562,0,.664-.158.652-.678-.035-1.624-.033-3.249,0-4.874.01-.5-.107-.642-.626-.64-4.506.023-9.011.014-13.517.014m9.737-31.409h.055c0-1.364-.046-2.73.019-4.091.034-.715-.217-.833-.863-.826-2.965.033-5.932,0-8.9.02a4.828,4.828,0,0,1-3.814-1.61c-.281-.312-.394-.226-.626.029a4.564,4.564,0,0,1-3.052,1.536c-.381.033-.393.2-.392.492.008,2.75-.051,5.5.026,8.248a7.06,7.06,0,0,0,3.7,6.3,9.89,9.89,0,0,0,9.8.211,7,7,0,0,0,4.022-6.088c.094-1.4.016-2.813.016-4.219m-14.782-13.085v-2.274c0-1.7,0-1.7-1.677-1.645a4.874,4.874,0,0,0-4.748,4.8c-.022,1.624.012,3.249-.017,4.873-.007.424.135.5.514.486.931-.026,1.863,0,2.794-.01a2.909,2.909,0,0,0,3.132-3.111c.014-1.04,0-2.079,0-3.119m-25.291,41.512c0,1.3,0,2.6,0,3.895,0,.875.339,1.209,1.218,1.215,1.1.006,2.208,0,3.311,0,1.4,0,1.6-.224,1.6-1.618,0-.441-.168-.482-.527-.473-.844.02-1.688.025-2.531,0a.969.969,0,1,1,.024-1.937c.476-.015.952,0,1.428,0,1.658,0,1.645,0,1.6-1.665-.009-.348-.108-.436-.441-.427-.822.022-1.645.017-2.467,0-.713-.013-1.129-.385-1.133-.978s.41-.961,1.122-.967c.823-.008,1.645,0,2.468,0,.143,0,.39.064.4-.094a2.689,2.689,0,0,0-.088-1.467.913.913,0,0,0-.9-.524c-1.32,0-2.64,0-3.96,0-.806.005-1.131.334-1.136,1.147-.008,1.3,0,2.6,0,3.9m26.583-15.752c0,.942,0,1.824,0,2.706,0,.209.13.3.269.407,1.4,1.055,2.8,2.107,4.2,3.17a.385.385,0,0,0,.558-.011c1.374-1.052,2.76-2.089,4.142-3.13.156-.117.3-.223.294-.462-.014-.877-.005-1.753-.005-2.672a12.2,12.2,0,0,1-9.45-.007m-6.028-14.785c0-.8,0-1.6,0-2.4,0-.153.075-.369-.2-.393-1.209-.107-2.429.222-2.518,1.8-.029.517-.006,1.037-.005,1.555,0,1.544.672,2.188,2.22,2.188.381,0,.536-.07.516-.49-.036-.754-.01-1.512-.01-2.267m21.525-.085c0,.8,0,1.6,0,2.4,0,.157-.06.34.173.429a1.978,1.978,0,0,0,2.474-1.414,13.818,13.818,0,0,0,.065-1.941c0-1.572-.718-2.242-2.283-2.192-.342.011-.448.111-.439.446.02.756.006,1.513.006,2.271m-36.983,21.822h0c0-.5.014-.993,0-1.489a1.035,1.035,0,1,0-2.069-.042c-.027.991,0,1.986-.015,2.978,0,.291.112.349.38.366,1.71.109,1.71.116,1.71-1.554Z" transform="translate(-92.036 -13.621)" fill="#5038a1"/>
        <path id="Trazado_241626" data-name="Trazado 241626" d="M999.375,174.642c0-1.992-.006-3.985,0-5.977a2.862,2.862,0,0,1,2.971-3.068q4.06-.054,8.121,0a2.877,2.877,0,0,1,2.958,3.087c.006,1.71.011,3.422-.006,5.132a1,1,0,0,0,.323.793c1.061,1.052,2.109,2.118,3.159,3.181a3.944,3.944,0,0,1,.43.484c.5.715.238,1.356-.628,1.419a25.5,25.5,0,0,1-2.725.032c-.465-.016-.6.126-.557.574a3.111,3.111,0,0,1-.9,2.668,3.038,3.038,0,0,1-2.193.815c-2.62,0-5.241.019-7.862-.006a2.9,2.9,0,0,1-3.089-3.158c0-1.993,0-3.985,0-5.978m14.578,3.145.123-.2c-.637-.6-1.257-1.229-1.918-1.809a1.949,1.949,0,0,1-.7-1.649c.043-1.774.016-3.551.013-5.326,0-.928-.317-1.26-1.237-1.263q-3.831-.012-7.664,0c-.939,0-1.248.316-1.249,1.242q0,5.91,0,11.821c0,.887.318,1.214,1.207,1.226,1.06.013,2.122,0,3.182,0,1.516,0,3.031.009,4.547,0,.853-.006,1.2-.352,1.213-1.162.007-.563,0-1.126,0-1.689.009-.832.344-1.169,1.186-1.188.429-.01.859,0,1.288,0" transform="translate(-92.036 -15.248)" fill="#5038a1"/>
        <path id="Trazado_241627" data-name="Trazado 241627" d="M1035.646,181.24a3.4,3.4,0,0,1-3.362-3.058c-.07-.765.218-1.235.813-1.326.575-.088.99.305,1.123,1.062a1.456,1.456,0,0,0,2.3,1.1,1.512,1.512,0,0,0,.62-1.156,1,1,0,0,1,1.036-1.012c.577.04.926.5.9,1.193a3.419,3.419,0,0,1-3.431,3.2" transform="translate(-95.066 -16.286)" fill="#5038a1"/>
        <path id="Trazado_241628" data-name="Trazado 241628" d="M1039.6,171.223c0-.236-.016-.474,0-.709a.958.958,0,0,1,1.891-.131,4.346,4.346,0,0,1,0,1.667.958.958,0,0,1-1.892-.118c-.02-.235,0-.473,0-.709" transform="translate(-95.74 -15.621)" fill="#5038a1"/>
        <path id="Trazado_241629" data-name="Trazado 241629" d="M1032.263,171.224a6.157,6.157,0,0,1,0,.709.9.9,0,0,1-.933.879.886.886,0,0,1-.981-.826,7.284,7.284,0,0,1-.011-1.482.967.967,0,0,1,1.931.074c.014.214,0,.43,0,.646h0" transform="translate(-94.885 -15.621)" fill="#5038a1"/>
        <path id="Trazado_241630" data-name="Trazado 241630" d="M1005.663,178.286a1.215,1.215,0,0,1-.788-.406c-.593-.6-1.2-1.189-1.787-1.795a.977.977,0,1,1,1.355-1.387c.048.044.091.094.14.136.391.334.7,1.021,1.128.976.4-.043.755-.647,1.123-1.011.692-.685,1.375-1.381,2.069-2.064a1,1,0,0,1,1.488-.154c.456.431.426.987-.113,1.531-1.234,1.247-2.479,2.48-3.716,3.723a1.256,1.256,0,0,1-.9.451" transform="translate(-92.342 -15.869)" fill="#5038a1"/>
        <path id="Trazado_241631" data-name="Trazado 241631" d="M1194.568,252.258a13.9,13.9,0,0,1-1.426-1.5,8.848,8.848,0,0,1-1.8-7.376,4.156,4.156,0,0,1,2.955-3.5,5.258,5.258,0,0,1,3.581.44,15.45,15.45,0,0,1,7.253,6.528c.07.123.137.246.213.382.213-.131.255-.339.352-.5a15.411,15.411,0,0,1,7.16-6.4,5.243,5.243,0,0,1,3.632-.441,4.12,4.12,0,0,1,2.928,3.516,8.932,8.932,0,0,1-2.706,8.343c-.141.141-.288.273-.439.416.152.156.323.08.473.08,2.783.005,5.566-.015,8.348.009a6.639,6.639,0,0,1,6.641,6.953,6.386,6.386,0,0,1-2.692,5.048.828.828,0,0,0-.377.762q.016,8.54,0,17.081a10.591,10.591,0,0,1-10.62,10.582q-12.66,0-25.322,0a10.551,10.551,0,0,1-10.639-10.672q-.01-8.486.008-16.971a.873.873,0,0,0-.41-.8,6.648,6.648,0,0,1,3.789-11.971c2.819-.035,5.64-.012,8.458-.014h.633m5.63,25.168c0-3.752-.006-7.5.01-11.257,0-.449-.1-.579-.566-.577q-6.756.027-13.51,0c-.436,0-.538.115-.537.542.016,5.29.007,10.581.012,15.871a7.04,7.04,0,0,0,7.151,7.167c2.307.007,4.614-.013,6.919.014.458.005.53-.147.528-.556-.015-3.734-.008-7.469-.008-11.2m10.367-.04q0,5.657-.006,11.313c0,.321.028.488.429.485,2.416-.022,4.833.02,7.249-.021a7.023,7.023,0,0,0,6.916-7.065c.014-5.327,0-10.653.015-15.98,0-.46-.152-.524-.554-.523q-6.726.019-13.454,0c-.469,0-.614.09-.609.593.024,3.733.014,7.468.014,11.2m-17.94-15.3c2.361,0,4.721-.007,7.083.007.36,0,.507-.064.5-.47-.022-1.812-.015-3.623,0-5.435,0-.283-.033-.423-.377-.421-4.776.013-9.552,0-14.328.022a2.824,2.824,0,0,0-2.265,1.163,3.156,3.156,0,0,0,2.473,5.129c2.306.016,4.611,0,6.917.005m25.5,0c2.323,0,4.648.024,6.971-.008a3.149,3.149,0,1,0-.038-6.3c-4.683-.015-9.368,0-14.053-.015-.373,0-.449.117-.446.464q.023,2.69,0,5.379c0,.384.1.488.485.486,2.362-.017,4.722-.008,7.082-.009m-11.075,15.291c0-3.714-.014-7.429.015-11.143,0-.55-.154-.677-.667-.642a16.82,16.82,0,0,1-2.085,0c-.469-.028-.613.084-.609.588.026,3.586.014,7.172.014,10.759,0,3.879.008,7.758-.01,11.637,0,.453.063.65.582.61a16.313,16.313,0,0,1,2.138,0c.479.025.642-.085.637-.61-.026-3.732-.014-7.465-.014-11.2m8.994-32.155c0-.164.008-.33,0-.494-.079-1.545-.4-1.749-1.811-1.145a8.085,8.085,0,0,0-.836.409,12.236,12.236,0,0,0-5.825,7.116c-.368,1.142-.228,1.3.967,1.113.035-.006.07-.018.106-.025a10.442,10.442,0,0,0,6.015-3.45,4.779,4.779,0,0,0,1.385-3.524m-12.567,6.9a12.174,12.174,0,0,0-3.037-5.737,10.645,10.645,0,0,0-4.619-3.04c-.66-.2-.844-.067-.99.615a5.092,5.092,0,0,0,.987,4.441,10.717,10.717,0,0,0,5.486,3.627,3.274,3.274,0,0,0,2.172.094m.24,6.811c0,.933.011,1.866-.005,2.8-.005.291.081.372.369.367.877-.018,1.755-.015,2.634,0,.258,0,.343-.068.342-.336q-.016-2.826,0-5.652c0-.268-.082-.34-.341-.335-.859.015-1.72.021-2.578,0-.331-.009-.439.068-.429.418.028.914.009,1.829.009,2.744" transform="translate(-108.58 -22.079)" fill="#5038a1"/>
        <path id="Trazado_241632" data-name="Trazado 241632" d="M1194.568,252.258a13.9,13.9,0,0,1-1.426-1.5,8.848,8.848,0,0,1-1.8-7.376,4.156,4.156,0,0,1,2.955-3.5,5.258,5.258,0,0,1,3.581.44,15.45,15.45,0,0,1,7.253,6.528c.07.123.137.246.213.382.213-.131.255-.339.352-.5a15.411,15.411,0,0,1,7.16-6.4,5.243,5.243,0,0,1,3.632-.441,4.12,4.12,0,0,1,2.928,3.516,8.932,8.932,0,0,1-2.706,8.343c-.141.141-.288.273-.439.416.152.156.323.08.473.08,2.783.005,5.566-.015,8.348.009a6.639,6.639,0,0,1,6.641,6.953,6.386,6.386,0,0,1-2.692,5.048.828.828,0,0,0-.377.762q.016,8.54,0,17.081a10.591,10.591,0,0,1-10.62,10.582q-12.66,0-25.322,0a10.551,10.551,0,0,1-10.639-10.672q-.01-8.486.008-16.971a.873.873,0,0,0-.41-.8,6.648,6.648,0,0,1,3.789-11.971c2.819-.035,5.64-.012,8.458-.014Zm5.63,25.168c0-3.752-.006-7.5.01-11.257,0-.449-.1-.579-.566-.577q-6.756.027-13.51,0c-.436,0-.538.115-.537.542.016,5.29.007,10.581.012,15.871a7.04,7.04,0,0,0,7.151,7.167c2.307.007,4.614-.013,6.919.014.458.005.53-.147.528-.556C1200.191,284.9,1200.2,281.161,1200.2,277.426Zm10.367-.04q0,5.657-.006,11.313c0,.321.028.488.429.485,2.416-.022,4.833.02,7.249-.021a7.023,7.023,0,0,0,6.916-7.065c.014-5.327,0-10.653.015-15.98,0-.46-.152-.524-.554-.523q-6.726.019-13.454,0c-.469,0-.614.09-.609.593C1210.575,269.918,1210.565,273.652,1210.565,277.386Zm-17.94-15.3c2.361,0,4.721-.007,7.083.007.36,0,.507-.064.5-.47-.022-1.812-.015-3.623,0-5.435,0-.283-.033-.423-.377-.421-4.776.013-9.552,0-14.328.022a2.824,2.824,0,0,0-2.265,1.163,3.156,3.156,0,0,0,2.473,5.129C1188.013,262.1,1190.318,262.085,1192.625,262.086Zm25.5,0c2.323,0,4.648.024,6.971-.008a3.149,3.149,0,1,0-.038-6.3c-4.683-.015-9.368,0-14.053-.015-.373,0-.449.117-.446.464q.023,2.69,0,5.379c0,.384.1.488.485.486C1213.4,262.077,1215.763,262.086,1218.122,262.085Zm-11.075,15.291c0-3.714-.014-7.429.015-11.143,0-.55-.154-.677-.667-.642a16.82,16.82,0,0,1-2.085,0c-.469-.028-.613.084-.609.588.026,3.586.014,7.172.014,10.759,0,3.879.008,7.758-.01,11.637,0,.453.063.65.582.61a16.313,16.313,0,0,1,2.138,0c.479.025.642-.085.637-.61C1207.035,284.841,1207.048,281.109,1207.048,277.376Zm8.994-32.155c0-.164.008-.33,0-.494-.079-1.545-.4-1.749-1.811-1.145a8.085,8.085,0,0,0-.836.409,12.236,12.236,0,0,0-5.825,7.116c-.368,1.142-.228,1.3.967,1.113.035-.006.07-.018.106-.025a10.442,10.442,0,0,0,6.015-3.45A4.779,4.779,0,0,0,1216.041,245.221Zm-12.567,6.9a12.174,12.174,0,0,0-3.037-5.737,10.645,10.645,0,0,0-4.619-3.04c-.66-.2-.844-.067-.99.615a5.092,5.092,0,0,0,.987,4.441,10.717,10.717,0,0,0,5.486,3.627A3.274,3.274,0,0,0,1203.474,252.117Zm.24,6.811c0,.933.011,1.866-.005,2.8-.005.291.081.372.369.367.877-.018,1.755-.015,2.634,0,.258,0,.343-.068.342-.336q-.016-2.826,0-5.652c0-.268-.082-.34-.341-.335-.859.015-1.72.021-2.578,0-.331-.009-.439.068-.429.418C1203.733,257.1,1203.714,258.013,1203.714,258.928Z" transform="translate(-108.58 -22.079)" fill="none" stroke="#fff" stroke-miterlimit="10" stroke-width="1"/>
      </g>
    </g>
  </g>
</svg>
