<svg xmlns="http://www.w3.org/2000/svg" xmlns:xlink="http://www.w3.org/1999/xlink" width="315" height="296" viewBox="0 0 315 296">
  <defs>
    <clipPath id="clip-path">
      <rect id="Rectángulo_101748" data-name="Rectángulo 101748" width="315" height="296" fill="none"/>
    </clipPath>
    <clipPath id="clip-path-3">
      <rect id="Rectángulo_101725" data-name="Rectángulo 101725" width="13.867" height="10.583" fill="none"/>
    </clipPath>
    <clipPath id="clip-path-4">
      <rect id="Rectángulo_101726" data-name="Rectángulo 101726" width="20.274" height="13.623" fill="none"/>
    </clipPath>
    <clipPath id="clip-path-5">
      <rect id="Rectángulo_101727" data-name="Rectángulo 101727" width="7.38" height="18.34" fill="none"/>
    </clipPath>
    <clipPath id="clip-path-6">
      <rect id="Rectángulo_101728" data-name="Rectángulo 101728" width="8.271" height="17.833" fill="none"/>
    </clipPath>
    <clipPath id="clip-path-7">
      <rect id="Rectángulo_101729" data-name="Rectángulo 101729" width="8.82" height="14.458" fill="none"/>
    </clipPath>
    <clipPath id="clip-path-8">
      <rect id="Rectángulo_101730" data-name="Rectángulo 101730" width="54.449" height="46.241" fill="none"/>
    </clipPath>
    <clipPath id="clip-path-9">
      <rect id="Rectángulo_101731" data-name="Rectángulo 101731" width="25.147" height="21.693" fill="none"/>
    </clipPath>
    <clipPath id="clip-path-10">
      <rect id="Rectángulo_101732" data-name="Rectángulo 101732" width="25.995" height="31.46" fill="none"/>
    </clipPath>
    <clipPath id="clip-path-11">
      <rect id="Rectángulo_101733" data-name="Rectángulo 101733" width="11.678" height="35.927" fill="none"/>
    </clipPath>
    <clipPath id="clip-path-12">
      <rect id="Rectángulo_101734" data-name="Rectángulo 101734" width="2.808" height="48.82" fill="none"/>
    </clipPath>
    <clipPath id="clip-path-13">
      <rect id="Rectángulo_101735" data-name="Rectángulo 101735" width="76.928" height="20.477" fill="none"/>
    </clipPath>
    <clipPath id="clip-path-14">
      <rect id="Rectángulo_101736" data-name="Rectángulo 101736" width="26.702" height="24.418" fill="none"/>
    </clipPath>
    <clipPath id="clip-path-15">
      <rect id="Rectángulo_101737" data-name="Rectángulo 101737" width="147.509" height="99.977" fill="none"/>
    </clipPath>
    <clipPath id="clip-path-16">
      <rect id="Rectángulo_101738" data-name="Rectángulo 101738" width="10.222" height="14.924" fill="none"/>
    </clipPath>
    <clipPath id="clip-path-17">
      <rect id="Rectángulo_101739" data-name="Rectángulo 101739" width="169.137" height="60.635" fill="none"/>
    </clipPath>
    <clipPath id="clip-path-18">
      <rect id="Rectángulo_101740" data-name="Rectángulo 101740" width="4.761" height="15.233" fill="none"/>
    </clipPath>
    <clipPath id="clip-path-19">
      <rect id="Rectángulo_101741" data-name="Rectángulo 101741" width="3.623" height="15.342" fill="none"/>
    </clipPath>
    <clipPath id="clip-path-20">
      <rect id="Rectángulo_101742" data-name="Rectángulo 101742" width="10.527" height="28.014" fill="none"/>
    </clipPath>
    <clipPath id="clip-path-21">
      <rect id="Rectángulo_101743" data-name="Rectángulo 101743" width="7.349" height="16.156" fill="none"/>
    </clipPath>
    <clipPath id="clip-path-22">
      <rect id="Rectángulo_101744" data-name="Rectángulo 101744" width="6.089" height="12.834" fill="none"/>
    </clipPath>
    <clipPath id="clip-path-23">
      <rect id="Rectángulo_101745" data-name="Rectángulo 101745" width="11.861" height="8.675" fill="none"/>
    </clipPath>
    <clipPath id="clip-path-24">
      <rect id="Rectángulo_101746" data-name="Rectángulo 101746" width="14.263" height="8.461" fill="none"/>
    </clipPath>
  </defs>
  <g id="Grupo_177499" data-name="Grupo 177499" clip-path="url(#clip-path)">
    <path id="Trazado_238288" data-name="Trazado 238288" d="M161.591,6l6.118,17.953L178.9,0Z" transform="translate(-45.832 0)" fill="#8c6df2"/>
    <g id="Grupo_177498" data-name="Grupo 177498">
      <g id="Grupo_177497" data-name="Grupo 177497" clip-path="url(#clip-path)">
        <path id="Trazado_238289" data-name="Trazado 238289" d="M184.355,79.214l-5.642-11.179C189.754,61.922,195.4,52.96,194.6,42.8c-.858-10.922-9.189-20.971-20.731-25L177.687,5.8C194,11.5,205.361,25.618,206.629,41.763c1.2,15.3-6.917,28.948-22.274,37.451" transform="translate(-49.339 -1.461)" fill="#8c6df2"/>
        <g id="Grupo_177433" data-name="Grupo 177433" transform="translate(143.175 47.089)" opacity="0.3">
          <g id="Grupo_177432" data-name="Grupo 177432">
            <g id="Grupo_177431" data-name="Grupo 177431" clip-path="url(#clip-path-3)">
              <path id="Trazado_238290" data-name="Trazado 238290" d="M201.51,65.132s5.365,1.82,12.331-2.191l-.7,5.475-12.889,5.109-.281-4.112Z" transform="translate(-199.975 -62.941)"/>
            </g>
          </g>
        </g>
        <path id="Trazado_238291" data-name="Trazado 238291" d="M135.753,159.7C99.732,154.54,70.624,143.338,49.238,126.4,31.121,112.057,23.872,97.641,21.49,92.9a72.162,72.162,0,0,1-7.752-38.739c2.118-23.832,18.682-38.21,29.3-42.059C52,8.857,63.955,8.831,71.826,10.247a78.249,78.249,0,0,1,24.866,9.087L89.454,33.3a63.59,63.59,0,0,0-20.2-7.39C62.435,24.68,53.294,25.2,48,27.122c-5.6,2.031-17.66,11.675-19.156,28.515A55.7,55.7,0,0,0,34.911,85.5c1.993,3.962,8.055,16.018,23.474,28.228C77.673,129,104.394,139.17,137.807,143.954Z" transform="translate(-3.507 -2.356)" fill="#fdb74d"/>
        <g id="Grupo_177436" data-name="Grupo 177436" transform="translate(38.477 109.671)" opacity="0.3">
          <g id="Grupo_177435" data-name="Grupo 177435">
            <g id="Grupo_177434" data-name="Grupo 177434" clip-path="url(#clip-path-4)">
              <path id="Trazado_238292" data-name="Trazado 238292" d="M67.745,146.591l-14.356,8.123,6.269,5.5,14-8.958Z" transform="translate(-53.389 -146.591)"/>
            </g>
          </g>
        </g>
        <g id="Grupo_177439" data-name="Grupo 177439" transform="translate(101.484 134.652)" opacity="0.3">
          <g id="Grupo_177438" data-name="Grupo 177438">
            <g id="Grupo_177437" data-name="Grupo 177437" clip-path="url(#clip-path-5)">
              <path id="Trazado_238293" data-name="Trazado 238293" d="M141.6,179.982s.009,14.866,2.379,17.1l5,1.239-3.825-17.446Z" transform="translate(-141.604 -179.982)"/>
            </g>
          </g>
        </g>
        <path id="Trazado_238294" data-name="Trazado 238294" d="M114.267,39.3l18.949-5.393-5.575-19.684Z" transform="translate(-32.308 -3.583)" fill="#fdb74d"/>
        <path id="Trazado_238295" data-name="Trazado 238295" d="M317.565,356.741l-2.126-15.209c43.834-6.722,66.787-43.838,74.62-59.484l12.995,7.139c-8.877,17.731-34.977,59.807-85.488,67.554" transform="translate(-89.795 -71.037)" fill="#fdb74d"/>
        <path id="Trazado_238296" data-name="Trazado 238296" d="M430.931,297.276l-2.918-23.893-22.277,10.742Z" transform="translate(-115.598 -68.854)" fill="#ff735d"/>
        <g id="Grupo_177442" data-name="Grupo 177442" transform="translate(252.641 259.713)" opacity="0.3">
          <g id="Grupo_177441" data-name="Grupo 177441">
            <g id="Grupo_177440" data-name="Grupo 177440" clip-path="url(#clip-path-6)">
              <path id="Trazado_238297" data-name="Trazado 238297" d="M356.8,347.146l-3.558,1.952,2.261,15.881,6.011-3.023Z" transform="translate(-353.237 -347.146)"/>
            </g>
          </g>
        </g>
        <path id="Trazado_238298" data-name="Trazado 238298" d="M95.9,305.727c-19.845-3.493-48.034-12.374-69.629-34.842C6.093,249.9-3.523,220.5,1.173,194.176a83.046,83.046,0,0,1,18.175-38.183A99.913,99.913,0,0,1,51.956,130.42c20.826-10.237,46.241-14.589,77.7-13.306l-.47,12.635c-29.48-1.2-53.062,2.761-72.1,12.118C33.894,153.267,17.017,174.2,13.039,196.5c-3.971,22.268,4.358,47.333,21.737,65.415,19.345,20.126,45,28.153,63.123,31.343Z" transform="translate(0.344 -29.441)" fill="#8c6df2"/>
        <g id="Grupo_177445" data-name="Grupo 177445" transform="translate(83.1 261.286)" opacity="0.3">
          <g id="Grupo_177444" data-name="Grupo 177444">
            <g id="Grupo_177443" data-name="Grupo 177443" clip-path="url(#clip-path-7)">
              <path id="Trazado_238299" data-name="Trazado 238299" d="M119.43,349.247l-3.565,12.1,8.82,2.36-.33-13.259Z" transform="translate(-115.865 -349.247)"/>
            </g>
          </g>
        </g>
        <path id="Trazado_238300" data-name="Trazado 238300" d="M134.251,124.074c-3.558-19.939,8.107-39.391,26.794-44.709l1.857-.527c20.344-4.473,35.335,11.126,39.04,32.55l13.623,81.6L188.7,217.844l-14.979-8.974c-1.289-5.981-4.059-18.345-4.1-18.335,0,0-20.064,2.342-25.531-17.752-2.641-9.706-6.525-30.159-9.835-48.71" transform="translate(-37.837 -19.662)" fill="#c17560"/>
        <path id="Trazado_238301" data-name="Trazado 238301" d="M184.021,223.383s12.326-2.707,23.049-14.892c0,0-2.1,16.874-21.776,20.523Z" transform="translate(-52.241 -52.511)" fill="#7c4236"/>
        <path id="Trazado_238302" data-name="Trazado 238302" d="M143.431,148.274c.438.278,2.1-1.929,5.062-2.762,2.946-.877,5.53.1,5.752-.371.114-.212-.409-.792-1.541-1.244a7.584,7.584,0,0,0-8.633,2.5c-.719.99-.852,1.756-.64,1.877" transform="translate(-40.616 -36.124)" fill="#1a2e35"/>
        <path id="Trazado_238303" data-name="Trazado 238303" d="M139.9,136.025c.79.541,3.028-.84,5.928-1.653,2.876-.9,5.485-.963,5.872-1.854.161-.425-.4-1.029-1.638-1.41a9.246,9.246,0,0,0-5.114.136,9.44,9.44,0,0,0-4.393,2.69c-.85,1-1.01,1.819-.654,2.091" transform="translate(-39.582 -32.946)" fill="#1a2e35"/>
        <path id="Trazado_238304" data-name="Trazado 238304" d="M232.426,141.847c.289-.242,12.216-7.4,15.371,6.506s-12,14.812-12.118,14.419-3.253-20.925-3.253-20.925" transform="translate(-66.073 -35.208)" fill="#c17560"/>
        <path id="Trazado_238305" data-name="Trazado 238305" d="M242.113,157.568c.048-.059.269.111.7.2a2.286,2.286,0,0,0,1.737-.393c1.28-.888,1.931-3.514,1.427-6.036a8.406,8.406,0,0,0-1.433-3.307,2.731,2.731,0,0,0-2.161-1.426,1.227,1.227,0,0,0-1.214,1c-.089.432.058.689-.006.731-.029.044-.339-.162-.361-.763a1.639,1.639,0,0,1,.324-1,1.773,1.773,0,0,1,1.2-.673,3.3,3.3,0,0,1,2.9,1.555,8.607,8.607,0,0,1,1.679,3.676c.551,2.823-.223,5.785-2.011,6.843a2.44,2.44,0,0,1-2.2.159c-.489-.241-.63-.534-.589-.571" transform="translate(-68.467 -36.741)" fill="#7c4236"/>
        <path id="Trazado_238306" data-name="Trazado 238306" d="M90.195,107.529a3.453,3.453,0,0,1,1.036-2.294c1.3-1.321,3.084-1.636,4.769-2.09A28.3,28.3,0,0,0,107.408,96.9a13.845,13.845,0,0,1-4.17-1.728c-2.658-1.7-4.675-4.824-4.38-8.071a2.02,2.02,0,0,1,.736-1.591c.8-.494,1.756.2,2.518.756,2.5,1.816,4.558,2.351,7.434,1.3a11.982,11.982,0,0,0,4.685-2.829c.044-.077.079-.159.122-.236.52-.919,1.03-1.8,1.536-2.657l0-.007v0c3.8-6.438,7.274-11.11,11.266-14.083,5.853-4.358,16.431-8.185,23.61-8.026s14.558,4.377,17.155,11.388c3.02-4.306,8.713-5.705,13.771-4.921l.1-.082c5.576.628,9.8,5.58,12.569,10.688.151.279.293.565.44.848a20.785,20.785,0,0,0,8.532,5.336c.566.177,1.22.406,1.418.989a1.838,1.838,0,0,1-.554,1.653,10.564,10.564,0,0,1-3.743,2.854,24.622,24.622,0,0,0,2.568,3.354c.816.883,1.786,1.941,1.525,3.139a2.246,2.246,0,0,1-2.031,1.6,6.273,6.273,0,0,1-2.651-.533q1.354,1.939,2.706,3.879a11.989,11.989,0,0,1-5.677,1.013c.083,5.406,1.438,15.116.973,18.911-3.507.949-4.454.763-6.09,1.827-2.114,1.375-.263,5.415-3.53,4.956-1.663-.235-5.383-5.69-6.264-7.186A84.162,84.162,0,0,1,171.02,86.687a24.442,24.442,0,0,0-8.821-3.8l.279.159c-5.876-.61-12.456-1.011-16.993,2.948-3.519,3.073-4.873,8-7.065,12.213-4.155,7.983-9.757,13.095-18.1,15.593.644,6.326,2.716,16.416,3.739,22.212l-7.29-10.287.006.048c-.531-.577-1-1.176-1.453-1.778l-.151-.18,0-.026a36.265,36.265,0,0,0-2.283-2.871l-.041.062c-2.335,3.48-7.657.392-6.085-3.53a8.361,8.361,0,0,1,1.253-2.152,5.494,5.494,0,0,1-4.827,2.69,4.428,4.428,0,0,1-4-3.637,3.967,3.967,0,0,1,1.455-3.568,11.965,11.965,0,0,1-7.289.14c-1.554-.473-3.2-1.481-3.152-3.4" transform="translate(-25.429 -15.044)" fill="#1a2e35"/>
        <path id="Trazado_238307" data-name="Trazado 238307" d="M192.356,80.13a17.062,17.062,0,0,1,2.374,1.377,14.891,14.891,0,0,1,4.526,6,27.251,27.251,0,0,1,1.679,5.044c.436,1.871.752,3.913,1.1,6.061a57.42,57.42,0,0,0,1.381,6.706,24.871,24.871,0,0,0,1.243,3.408,7.536,7.536,0,0,0,2.151,3.069,2.9,2.9,0,0,0,2.961.277A4.569,4.569,0,0,0,211.9,110a11.311,11.311,0,0,0,.687-5.641l-.395.154a17.2,17.2,0,0,0,3.337,3.667,5.75,5.75,0,0,0,4.271,1.206,3.748,3.748,0,0,0,1.918-.869,3.51,3.51,0,0,0,1.038-1.745,3.747,3.747,0,0,0,0-1.906,2.6,2.6,0,0,0-.986-1.425l-.162.244a12.568,12.568,0,0,0,4.921,2.23,11.113,11.113,0,0,0,1.413.2,2.166,2.166,0,0,0,.491,0,2.306,2.306,0,0,0-.483-.086c-.317-.052-.788-.125-1.388-.275a13.013,13.013,0,0,1-4.788-2.315l-.161.243a2.76,2.76,0,0,1,.821,2.99,3.154,3.154,0,0,1-.946,1.551,3.4,3.4,0,0,1-1.743.765,5.39,5.39,0,0,1-3.975-1.167,16.97,16.97,0,0,1-3.229-3.6l-.429-.581.032.736a10.927,10.927,0,0,1-.651,5.388,4.111,4.111,0,0,1-1.907,1.859,2.445,2.445,0,0,1-2.517-.232,7.134,7.134,0,0,1-2-2.875,24.616,24.616,0,0,1-1.223-3.337,58.165,58.165,0,0,1-1.394-6.643c-.359-2.144-.689-4.192-1.148-6.083a27.039,27.039,0,0,0-1.758-5.1,14.635,14.635,0,0,0-4.72-6.011,7.916,7.916,0,0,0-2.478-1.22" transform="translate(-54.623 -20.182)" fill="#375a64"/>
        <path id="Trazado_238308" data-name="Trazado 238308" d="M114.6,112a.709.709,0,0,0,.188.1l.569.249a6.432,6.432,0,0,0,.949.346,10.256,10.256,0,0,0,1.331.355,16.948,16.948,0,0,0,8.669-.521,22.582,22.582,0,0,0,10.681-7.476,41.752,41.752,0,0,0,7.285-14.683c.849-2.817,1.421-5.631,2.156-8.281a28.468,28.468,0,0,1,2.922-7.281,13.958,13.958,0,0,1,4.78-4.962,9.466,9.466,0,0,1,2.869-1.1,10.253,10.253,0,0,1,2.826-.135,11.193,11.193,0,0,1,4.633,1.537,11.632,11.632,0,0,1,2.873,2.427,14.628,14.628,0,0,1,1.7,2.8.735.735,0,0,0-.064-.209l-.234-.6a10.6,10.6,0,0,0-1.264-2.112,11.523,11.523,0,0,0-2.881-2.541,11.329,11.329,0,0,0-4.732-1.644,10.515,10.515,0,0,0-2.922.108,9.8,9.8,0,0,0-2.991,1.114,14.283,14.283,0,0,0-4.956,5.075,28.634,28.634,0,0,0-3,7.39c-.747,2.67-1.322,5.478-2.163,8.269a41.789,41.789,0,0,1-7.167,14.536,22.462,22.462,0,0,1-10.451,7.438,17.191,17.191,0,0,1-8.538.664A27.294,27.294,0,0,1,114.6,112" transform="translate(-32.403 -17.181)" fill="#375a64"/>
        <path id="Trazado_238309" data-name="Trazado 238309" d="M109.26,113.883a2.987,2.987,0,0,0,.813.333,14.707,14.707,0,0,0,2.313.58,19.673,19.673,0,0,0,3.522.3,22.568,22.568,0,0,0,4.308-.468,22.916,22.916,0,0,0,4.135-1.355,20.432,20.432,0,0,0,3.12-1.737,15.544,15.544,0,0,0,1.906-1.49c.421-.39.641-.616.621-.642-.056-.071-1,.776-2.7,1.837a23.019,23.019,0,0,1-3.112,1.616,24.885,24.885,0,0,1-4.063,1.291,24.5,24.5,0,0,1-4.219.5,22.6,22.6,0,0,1-3.468-.195c-1.966-.271-3.15-.659-3.174-.571" transform="translate(-30.877 -27.554)" fill="#375a64"/>
        <path id="Trazado_238310" data-name="Trazado 238310" d="M177.31,126.455a1.758,1.758,0,0,1-1,.238,4.193,4.193,0,0,1-2.383-.705,4.483,4.483,0,0,1-1.647-1.937,1.993,1.993,0,0,1-.233-1.045,9.284,9.284,0,0,1,.453.928,4.983,4.983,0,0,0,1.612,1.744,4.7,4.7,0,0,0,2.2.757,8.133,8.133,0,0,1,.994.021" transform="translate(-48.816 -30.98)" fill="#7c4236"/>
        <path id="Trazado_238311" data-name="Trazado 238311" d="M89.575,169.722s15.645-33.235,16.715-34.572,6.767-15.234,6.767-15.234l7.97-9.977s3.738.587,1.364,5.654l-3.383,6.75,12.426-13.064s3.68.445,2.247,4.539c-1.065,3.042-4.86,7.754-4.86,7.754l11.152-10.14s4.64.75,2.414,5.847c-1.447,3.315-14.446,18.364-14.446,18.364s6.485-4.2,8.534-5.589,4.165-4.422,5.678-4.136,4.153,2.739.214,7.424-15.023,12.15-16.638,13.078l-1.614.927s-1.92,5.209-4.626,7.725c0,0-4.449,14.765-6.691,18.83a19.746,19.746,0,0,1-6.435,6.765l-6.843,19.362-19.546-14.14Z" transform="translate(-22.509 -27.523)" fill="#c17560"/>
        <path id="Trazado_238312" data-name="Trazado 238312" d="M89.544,169.669s-.2.369-.616,1.077l-1.839,3.136-7.082,12-.021-.108,19.565,14.111-.166.055,6.826-19.368a.132.132,0,0,1,.054-.068l0,0a20.073,20.073,0,0,0,4.933-4.525,15.955,15.955,0,0,0,1.853-3c.5-1.089.964-2.219,1.4-3.375,1.738-4.624,3.306-9.544,4.865-14.627a.161.161,0,0,1,.043-.068,15.354,15.354,0,0,0,2.6-3.472,31.444,31.444,0,0,0,1.986-4.195.16.16,0,0,1,.068-.082c.819-.479,1.658-.929,2.456-1.453s1.606-1.059,2.406-1.611q2.4-1.654,4.789-3.442c1.588-1.194,3.172-2.433,4.716-3.75a30.128,30.128,0,0,0,4.327-4.345,7.936,7.936,0,0,0,1.4-2.741,3.139,3.139,0,0,0-.55-2.879,2.817,2.817,0,0,0-1.209-.836,1.553,1.553,0,0,0-1.361.228,15.819,15.819,0,0,0-2.391,2.043,15.23,15.23,0,0,1-2.493,2.051l-2.688,1.76L128,135.734a.156.156,0,0,1-.221-.053.176.176,0,0,1,.018-.2l3-3.521c2.872-3.418,5.7-6.819,8.36-10.291.662-.87,1.311-1.746,1.928-2.639a10.012,10.012,0,0,0,1.485-2.842,3.815,3.815,0,0,0-.181-3.039,3.746,3.746,0,0,0-2.466-1.6l.127-.038-11.154,10.137a.151.151,0,0,1-.219-.016.171.171,0,0,1,0-.211,41.505,41.505,0,0,0,4.233-6.331,9.263,9.263,0,0,0,.706-1.727,3.992,3.992,0,0,0,.173-1.8,2.373,2.373,0,0,0-.838-1.49,3.406,3.406,0,0,0-1.56-.684l.123-.045L119.078,122.4a.136.136,0,0,1-.2,0,.153.153,0,0,1-.026-.174l3.3-6.582a10.67,10.67,0,0,0,.639-1.648,7.629,7.629,0,0,0,.184-.852,4.3,4.3,0,0,0,.011-.857,2.43,2.43,0,0,0-.634-1.5,2.636,2.636,0,0,0-1.38-.765l.121-.048-7.977,9.97.019-.031c-1.624,3.925-3.193,7.655-4.756,11.151-.4.872-.784,1.733-1.2,2.568-.2.419-.412.83-.649,1.231a13.371,13.371,0,0,0-.69,1.16c-.844,1.584-1.608,3.156-2.358,4.665-2.973,6.059-5.483,11.316-7.542,15.613l-4.735,9.913-1.237,2.58c-.28.581-.432.875-.432.875s.13-.305.4-.891.678-1.46,1.206-2.6l4.676-9.944c2.041-4.307,4.533-9.572,7.491-15.642.746-1.514,1.506-3.085,2.35-4.68.2-.391.467-.819.694-1.173.226-.385.435-.8.636-1.213.407-.831.794-1.691,1.187-2.562,1.553-3.5,3.116-7.229,4.731-11.154a.149.149,0,0,1,.019-.031L120.9,109.8l0,0a.121.121,0,0,1,.117-.043,2.892,2.892,0,0,1,1.531.842,2.725,2.725,0,0,1,.711,1.662,4.622,4.622,0,0,1-.011.922,7.738,7.738,0,0,1-.191.895,11,11,0,0,1-.655,1.7l-3.3,6.59-.225-.173L131.3,109.116l0,0a.135.135,0,0,1,.119-.04,3.68,3.68,0,0,1,1.711.747,2.689,2.689,0,0,1,.949,1.684,4.3,4.3,0,0,1-.179,1.944,9.629,9.629,0,0,1-.726,1.785,41.839,41.839,0,0,1-4.266,6.392l-.219-.227,11.149-10.143,0,0a.142.142,0,0,1,.124-.035,4.592,4.592,0,0,1,1.506.59,3.38,3.38,0,0,1,1.181,1.163,4.155,4.155,0,0,1,.216,3.314,7.984,7.984,0,0,1-.649,1.542c-.267.491-.579.938-.881,1.4-.623.9-1.274,1.781-1.938,2.653-2.666,3.481-5.5,6.884-8.37,10.3l-3,3.525-.2-.256,5.42-3.549a29.4,29.4,0,0,0,5.138-3.775,16,16,0,0,1,2.451-2.087,2.643,2.643,0,0,1,.768-.313,1.539,1.539,0,0,1,.844.06,3.127,3.127,0,0,1,1.348.932,3.483,3.483,0,0,1,.62,3.18,8.281,8.281,0,0,1-1.463,2.864,30.35,30.35,0,0,1-4.378,4.395c-1.552,1.323-3.14,2.565-4.733,3.761s-3.2,2.342-4.8,3.446q-1.2.829-2.415,1.615c-.81.531-1.651.982-2.468,1.459l.067-.082a31.635,31.635,0,0,1-2.011,4.242,15.639,15.639,0,0,1-2.658,3.541l.042-.068c-1.566,5.087-3.138,10.006-4.888,14.642-.436,1.158-.9,2.292-1.412,3.394a16.163,16.163,0,0,1-1.888,3.047,20.306,20.306,0,0,1-5.013,4.583l.057-.07-6.861,19.354a.109.109,0,0,1-.141.069.116.116,0,0,1-.025-.013L79.9,185.9a.082.082,0,0,1-.021-.108l7.141-11.954,1.873-3.115c.424-.7.651-1.057.651-1.057" transform="translate(-22.478 -27.47)" fill="#7c4236"/>
        <path id="Trazado_238313" data-name="Trazado 238313" d="M142.5,122.865a7.718,7.718,0,0,1-.684.908c-.458.569-1.131,1.381-1.98,2.371-1.7,1.974-4.105,4.656-6.935,7.435a78.422,78.422,0,0,1-6.257,5.57l-.02.016-.023.007a12.66,12.66,0,0,0-3.785,1.865c-.831.6-1.247,1.014-1.269.987a1.576,1.576,0,0,1,.28-.319,10.744,10.744,0,0,1,.9-.794,12.01,12.01,0,0,1,3.8-2l-.042.022c1.8-1.469,3.959-3.4,6.2-5.6,2.82-2.77,5.245-5.421,6.987-7.35l2.053-2.3a7.4,7.4,0,0,1,.776-.821" transform="translate(-34.388 -30.945)" fill="#7c4236"/>
        <path id="Trazado_238314" data-name="Trazado 238314" d="M131.989,125.686a10.759,10.759,0,0,1-1.171,1.543c-.759.919-1.841,2.161-3.064,3.5l-3.148,3.413a12.036,12.036,0,0,1-1.349,1.371,10.589,10.589,0,0,1,1.183-1.532c.766-.913,1.86-2.143,3.083-3.483l3.128-3.429a11.866,11.866,0,0,1,1.339-1.383" transform="translate(-34.877 -31.655)" fill="#7c4236"/>
        <path id="Trazado_238315" data-name="Trazado 238315" d="M142.194,144.264a2.125,2.125,0,0,1-.456.391c-.305.235-.759.557-1.328.94a45.826,45.826,0,0,1-4.615,2.7,45.2,45.2,0,0,1-4.878,2.137c-.639.233-1.161.409-1.526.515a2.04,2.04,0,0,1-.575.135,18.507,18.507,0,0,1,2.021-.872c1.253-.521,2.968-1.276,4.817-2.217s3.473-1.89,4.637-2.6a19.117,19.117,0,0,1,1.9-1.127" transform="translate(-36.466 -36.334)" fill="#7c4236"/>
        <path id="Trazado_238316" data-name="Trazado 238316" d="M71.8,193.532c-.684.954-20.954,32.922-20.954,32.922S31.7,257.695,28.906,266.483c-4.083,12.834-5,35.08,8.215,41.044s17.762,6.157,33.706-.284a109.542,109.542,0,0,0,27.563-16.5L95.259,232.6,82.4,239.51l11.064-31.115Z" transform="translate(-7.15 -48.743)" fill="#e1e1e1"/>
        <path id="Trazado_238317" data-name="Trazado 238317" d="M319.27,259.705s10.294,8.628,14.02,38.023c2.353,18.557,9.027,63.529,9.027,63.529l-38.91.091s-7.819-58.022-7.022-58.9,22.884-42.742,22.884-42.742" transform="translate(-84.334 -65.409)" fill="#e1e1e1"/>
        <path id="Trazado_238318" data-name="Trazado 238318" d="M118.461,240.594l43.805-5.893s8.266,13.864,24.442,11.157c22.71-3.8,22.123-20.578,22.123-20.578s37.8,13.594,45.116,17.023a32.866,32.866,0,0,1,11.339,8.732s-13.43,54.59-13.848,55.276-2.961,46.883-2.014,46.367c.407-.222-123.287.013-125.337,0l-3.706-55.136-12.965-47.012Z" transform="translate(-30.351 -56.739)" fill="#e1e1e1"/>
        <path id="Trazado_238319" data-name="Trazado 238319" d="M105.989,234.339a3.836,3.836,0,0,1-.175.539q-.208.563-.56,1.523c-.481,1.323-1.186,3.236-2.014,5.615-1.671,4.754-3.815,11.381-6.122,18.724-1.139,3.682-2.361,7.135-3.043,10.405-.374,1.627-.718,3.181-1.106,4.619a37.918,37.918,0,0,1-1.276,3.933c-.443,1.178-.811,2.253-1.118,3.207a21.314,21.314,0,0,1-.941,2.393c-.293.64-.531,1.131-.7,1.461a3.572,3.572,0,0,1-.266.5,3.8,3.8,0,0,1,.208-.526q.238-.55.641-1.487a22.853,22.853,0,0,0,.884-2.4c.291-.959.646-2.048,1.077-3.232a59.857,59.857,0,0,0,2.306-8.539c.671-3.29,1.89-6.767,3.026-10.439,2.308-7.344,4.488-13.965,6.215-18.7.856-2.372,1.594-4.272,2.111-5.582l.616-1.5a3.75,3.75,0,0,1,.235-.514" transform="translate(-24.994 -59.021)" fill="#1a2e35"/>
        <path id="Trazado_238320" data-name="Trazado 238320" d="M121.265,331.222a2.2,2.2,0,0,1-.049-.379c-.024-.275-.056-.64-.1-1.1-.075-.992-.181-2.393-.314-4.15-.249-3.583-.6-8.607-1-14.5l0,.022c-.772-3.66-1.676-7.669-2.745-11.836a126.769,126.769,0,0,0-7.261-21.528,47.907,47.907,0,0,0-3.288-6c-.449-.668-.834-1.16-1.074-1.51l-.276-.4a.084.084,0,1,1,.025-.022l.3.376c.257.337.66.817,1.126,1.476A44.118,44.118,0,0,1,110,277.646a120.642,120.642,0,0,1,7.367,21.546c1.071,4.174,1.968,8.191,2.726,11.857l0,.012v.011c.361,5.893.669,10.92.889,14.5.1,1.759.174,3.162.229,4.156.021.463.037.83.049,1.106a2.254,2.254,0,0,1,0,.382" transform="translate(-29.681 -67.928)" fill="#1a2e35"/>
        <path id="Trazado_238321" data-name="Trazado 238321" d="M306.22,367.858c-.006,0-.029.141-.033,0,0-.159-.006-.365-.01-.625,0-.571,0-1.376-.008-2.4.008-2.108.019-5.122.033-8.838.058-7.482.138-17.787.227-29.178v-.021c.007-.056.015-.117.022-.177,1.459-11.334,2.781-21.591,3.741-29.041.491-3.7.89-6.7,1.169-8.8.142-1.021.255-1.821.334-2.389.04-.258.071-.463.1-.62a1.121,1.121,0,0,1,.044-.21,1.042,1.042,0,0,1-.01.215c-.016.158-.037.364-.064.624-.065.57-.157,1.374-.274,2.4-.255,2.1-.619,5.106-1.068,8.809-.936,7.453-2.223,17.716-3.648,29.054-.007.061-.014.122-.022.178l0-.02c-.126,11.391-.239,21.7-.322,29.177-.056,3.715-.1,6.729-.134,8.837-.022,1.026-.04,1.831-.053,2.4-.009.26-.016.466-.021.625-.007.141.005,0,0,0" transform="translate(-87.146 -71.921)" fill="#1a2e35"/>
        <path id="Trazado_238322" data-name="Trazado 238322" d="M206.288,275.326l-10.094,89.718,29.535.147-12.744-89.865Z" transform="translate(-55.72 -69.344)" fill="#ff735d"/>
        <g id="Grupo_177448" data-name="Grupo 177448" transform="translate(20.292 210.404)" opacity="0.3">
          <g id="Grupo_177447" data-name="Grupo 177447">
            <g id="Grupo_177446" data-name="Grupo 177446" clip-path="url(#clip-path-8)">
              <path id="Trazado_238323" data-name="Trazado 238323" d="M27.929,294.289s17.923,32.48,47.659,33.189l6.791-4.214L31.841,281.236a104.715,104.715,0,0,0-3.912,13.053" transform="translate(-27.929 -281.236)"/>
            </g>
          </g>
        </g>
        <path id="Trazado_238324" data-name="Trazado 238324" d="M178.107,232.737l3.868-7.232s22.273,17.744,21.969,18.115c0,0,23.4-26.6,23.773-27l5.183,8.053s-20.68,27.894-20.958,28.141c-.339.3-13.019-2.412-13.019-2.412l-10.779-5.324Z" transform="translate(-50.551 -54.558)" fill="#e1e1e1"/>
        <path id="Trazado_238325" data-name="Trazado 238325" d="M205.6,264.8l3.732,7.7h6.7l2.635-8.9-4.948-6.1h-2.927Z" transform="translate(-58.406 -64.857)" fill="#ff735d"/>
        <path id="Trazado_238326" data-name="Trazado 238326" d="M204.4,251.277a.885.885,0,0,1-.121.218l-.395.6-1.524,2.224-5.4,7.7-.116.165-.134-.152-5.025-5.712c-3.739-4.293-7.083-8.219-9.446-11.114-1.185-1.444-2.118-2.637-2.748-3.474-.32-.414-.546-.756-.7-.981a1.862,1.862,0,0,1-.224-.358,1.858,1.858,0,0,1,.279.313c.177.211.419.536.755.935.66.809,1.621,1.974,2.828,3.4,2.408,2.849,5.78,6.746,9.518,11.038l5,5.728-.249.013,5.5-7.621,1.6-2.167.436-.567c.1-.127.158-.191.165-.185" transform="translate(-50.683 -60.546)" fill="#1a2e35"/>
        <path id="Trazado_238327" data-name="Trazado 238327" d="M243.7,229.615c.252.1-1.206,2.459-3.735,6.023-2.528,3.581-6.122,8.444-10.146,13.77-2.516,3.33-4.9,6.447-6.96,9.109l-.118.152-.119-.149-5.742-7.177-1.6-2.036-.412-.546a.877.877,0,0,1-.129-.2c.006-.005.063.051.166.165l.448.514,1.661,1.978,5.838,7.092-.236,0,6.926-9.133c4.023-5.325,7.645-10.161,10.222-13.7s4.095-5.8,3.933-5.868" transform="translate(-61.02 -57.831)" fill="#1a2e35"/>
        <path id="Trazado_238328" data-name="Trazado 238328" d="M210.1,272.5a11.432,11.432,0,0,1,.684-2c.474-1.213,1.178-2.869,2.041-4.655s1.722-3.361,2.375-4.48a11.127,11.127,0,0,1,1.134-1.76,13.783,13.783,0,0,1-.921,1.89c-.6,1.149-1.416,2.737-2.276,4.516s-1.6,3.41-2.128,4.594a13.83,13.83,0,0,1-.909,1.9" transform="translate(-59.693 -65.384)" fill="#1a2e35"/>
        <path id="Trazado_238329" data-name="Trazado 238329" d="M217.19,277.331a33.1,33.1,0,0,1-6.958,0,33.248,33.248,0,0,1,6.958,0" transform="translate(-59.731 -69.803)" fill="#1a2e35"/>
        <g id="Grupo_177451" data-name="Grupo 177451" transform="translate(130.134 182.732)" opacity="0.3">
          <g id="Grupo_177450" data-name="Grupo 177450">
            <g id="Grupo_177449" data-name="Grupo 177449" clip-path="url(#clip-path-9)">
              <path id="Trazado_238330" data-name="Trazado 238330" d="M181.717,244.249l17.031,21.693,8.116-11.917-1.559-1.777-7.57,10.642Z" transform="translate(-181.717 -244.249)"/>
            </g>
          </g>
        </g>
        <g id="Grupo_177454" data-name="Grupo 177454" transform="translate(155.281 174.251)" opacity="0.3">
          <g id="Grupo_177453" data-name="Grupo 177453">
            <g id="Grupo_177452" data-name="Grupo 177452" clip-path="url(#clip-path-10)">
              <path id="Trazado_238331" data-name="Trazado 238331" d="M216.926,251.17c.873,1.221,4.953,13.051,6.5,13.2s19.5-31.459,19.5-31.459l-19.559,26.334Z" transform="translate(-216.925 -232.912)"/>
            </g>
          </g>
        </g>
        <g id="Grupo_177457" data-name="Grupo 177457" transform="translate(62.112 196.454)" opacity="0.3">
          <g id="Grupo_177456" data-name="Grupo 177456">
            <g id="Grupo_177455" data-name="Grupo 177455" clip-path="url(#clip-path-11)">
              <path id="Trazado_238332" data-name="Trazado 238332" d="M88.253,293.845,86.48,298.51s6.895.718,9.258-13.312a157.117,157.117,0,0,0,2.42-22.609Z" transform="translate(-86.48 -262.59)"/>
            </g>
          </g>
        </g>
        <g id="Grupo_177460" data-name="Grupo 177460" transform="translate(219.05 247.129)" opacity="0.3">
          <g id="Grupo_177459" data-name="Grupo 177459">
            <g id="Grupo_177458" data-name="Grupo 177458" clip-path="url(#clip-path-12)">
              <path id="Trazado_238333" data-name="Trazado 238333" d="M309.013,379.144l-1.276-48.821-.979,7.747-.553,41.015Z" transform="translate(-306.206 -330.324)"/>
            </g>
          </g>
        </g>
        <g id="Grupo_177463" data-name="Grupo 177463" transform="translate(114.637 172.177)" opacity="0.3">
          <g id="Grupo_177462" data-name="Grupo 177462">
            <g id="Grupo_177461" data-name="Grupo 177461" clip-path="url(#clip-path-13)">
              <path id="Trazado_238334" data-name="Trazado 238334" d="M160.02,239.962s11.643,10.718,31.664,10.654,32.357-6.118,45.263-17.812l-7.313-2.664s-11.77,8.4-30.272,8.765-29.852-.658-29.852-.658Z" transform="translate(-160.02 -230.14)"/>
            </g>
          </g>
        </g>
        <g id="Grupo_177466" data-name="Grupo 177466" transform="translate(140.958 271.582)" opacity="0.3">
          <g id="Grupo_177465" data-name="Grupo 177465">
            <g id="Grupo_177464" data-name="Grupo 177464" clip-path="url(#clip-path-14)">
              <path id="Trazado_238335" data-name="Trazado 238335" d="M196.871,387.427s5.1-8.447,13.407-12.87c8.683-4.624,13.295-4.5,13.295-4.5l-1-7.043-12.3.345-10.956,8.976-1.5,5.835Z" transform="translate(-196.871 -363.009)"/>
            </g>
          </g>
        </g>
        <g id="Grupo_177469" data-name="Grupo 177469" transform="translate(91.946 194.221)" opacity="0.3">
          <g id="Grupo_177468" data-name="Grupo 177468">
            <g id="Grupo_177467" data-name="Grupo 177467" clip-path="url(#clip-path-15)">
              <path id="Trazado_238336" data-name="Trazado 238336" d="M130.066,359.583a85.616,85.616,0,0,1,13.921-15.5c9.293-8.314,59.241-39.14,59.241-39.14l72.531-39.924-4.164-5.409L156.26,318.248l-28.01,25.634Z" transform="translate(-128.25 -259.605)"/>
            </g>
          </g>
        </g>
        <path id="Trazado_238337" data-name="Trazado 238337" d="M124.314,348.606H112.222c.849-17.814,9.383-30.684,28.637-44.64,17.694-12.825,45.122-27.148,83.083-46.973,13.9-7.261,29.665-15.491,46.927-24.68a78.589,78.589,0,0,0,26.036-22.3l9.527,7.766a90.891,90.891,0,0,1-30.095,25.8c-17.3,9.211-33.086,17.453-47.01,24.724-73.406,38.335-103.755,53.6-105.014,80.3" transform="translate(-31.724 -52.894)" fill="#8c6df2"/>
        <path id="Trazado_238338" data-name="Trazado 238338" d="M94.394,309.548c-30.672,0-59.111-21.658-68.205-42.282-2.642-5.991-7.043-17.625-6.842-28.229.16-8.431,3.236-20.513,11.379-26.824A31.64,31.64,0,0,1,45.6,206.348c6.32-.829,12.091.225,16.257,2.974l-7.505,12.483c-3.048-2.011-11.314-.781-15.248,2.268-3.116,2.414-5.555,8.973-5.675,15.256-.106,5.587,1.916,13.515,5.548,21.751,3.583,8.126,11.645,16.773,21.567,23.13,11.18,7.165,23.759,10.93,35.408,10.561l.408,14.747c-.654.019-1.311.03-1.963.03" transform="translate(-5.182 -51.901)" fill="#fdb74d"/>
        <g id="Grupo_177472" data-name="Grupo 177472" transform="translate(46.278 154.803)" opacity="0.3">
          <g id="Grupo_177471" data-name="Grupo 177471">
            <g id="Grupo_177470" data-name="Grupo 177470" clip-path="url(#clip-path-16)">
              <path id="Trazado_238339" data-name="Trazado 238339" d="M64.311,221.118l4.1-14.2s4.65,1.276,6.12,2.657L67.1,221.841" transform="translate(-64.311 -206.917)"/>
            </g>
          </g>
        </g>
        <g id="Grupo_177475" data-name="Grupo 177475" transform="translate(80.616 182.058)" opacity="0.3">
          <g id="Grupo_177474" data-name="Grupo 177474">
            <g id="Grupo_177473" data-name="Grupo 177473" clip-path="url(#clip-path-17)">
              <path id="Trazado_238340" data-name="Trazado 238340" d="M112.387,249.289c.29-.156,44.292,37.28,76.5,45.893s58.846,10.112,69.215,7.864,23.42-6.1,23.42-6.1L280,286.506s-37.811,3.059-62.48,1.374-84.2-38.591-84.2-38.591L121.5,243.347Z" transform="translate(-112.387 -243.347)"/>
            </g>
          </g>
        </g>
        <path id="Trazado_238341" data-name="Trazado 238341" d="M238.095,275.222a143.361,143.361,0,0,1-30.882-3.565c-19.107-4.253-40.305-15.977-54.589-24.425-3.584-2.12-7.46-4.471-11.848-7.187-2.963-1.834-5.83-3.629-8.577-5.348-9.962-6.236-18.766-11.539-23.739-13.611,1.531-4.949,3.121-9.671,4.783-14.122,6.022,2.509,15.267,8.237,26.181,15.069,2.727,1.707,5.575,3.49,8.517,5.311,4.308,2.666,8.106,4.97,11.609,7.043,13.475,7.969,33.379,19.009,50.59,22.84,19.28,4.291,47.046,6.471,69.831-7.509,10.644-6.532,19.237-15.616,24.195-25.578,5.665-11.382,6.715-23.631,3.121-36.409-5.32-18.914-23.733-29.4-45.822-26.081-13.776,2.067-25.731,7.87-36.279,12.99-7.955,3.861-14.826,7.2-21.323,8.4l-2.452-14.527c4.69-.869,10.791-3.83,17.853-7.258,10.862-5.272,24.38-11.834,40.2-14.208,14.316-2.148,27.763.25,38.89,6.934a50.14,50.14,0,0,1,22.44,29.582,65.144,65.144,0,0,1-4.143,47.4c-6.255,12.569-16.479,23.456-29.564,31.487-15.656,9.607-32.974,12.775-49,12.775" transform="translate(-30.649 -36.843)" fill="#fdb74d"/>
        <g id="Grupo_177478" data-name="Grupo 177478" transform="translate(226.42 110.12)" opacity="0.3">
          <g id="Grupo_177477" data-name="Grupo 177477">
            <g id="Grupo_177476" data-name="Grupo 177476" clip-path="url(#clip-path-18)">
              <path id="Trazado_238342" data-name="Trazado 238342" d="M320.251,147.192c1.776,5.559.728,14.917.728,14.917l-3.172.316a51.218,51.218,0,0,0-1.282-14.715Z" transform="translate(-316.525 -147.192)"/>
            </g>
          </g>
        </g>
        <g id="Grupo_177481" data-name="Grupo 177481" transform="translate(243.578 109.552)" opacity="0.3">
          <g id="Grupo_177480" data-name="Grupo 177480">
            <g id="Grupo_177479" data-name="Grupo 177479" clip-path="url(#clip-path-19)">
              <path id="Trazado_238343" data-name="Trazado 238343" d="M343.693,146.831a57.384,57.384,0,0,1,0,14.943l-3.145-.6V146.431Z" transform="translate(-340.548 -146.432)"/>
            </g>
          </g>
        </g>
        <g id="Grupo_177484" data-name="Grupo 177484" transform="translate(278.5 136.806)" opacity="0.3">
          <g id="Grupo_177483" data-name="Grupo 177483">
            <g id="Grupo_177482" data-name="Grupo 177482" clip-path="url(#clip-path-20)">
              <path id="Trazado_238344" data-name="Trazado 238344" d="M389.442,206.254l.194,4.622s8.831-8.571,10.334-21.325a38.44,38.44,0,0,0-2.826-6.69Z" transform="translate(-389.442 -182.862)"/>
            </g>
          </g>
        </g>
        <g id="Grupo_177487" data-name="Grupo 177487" transform="translate(170.715 130.136)" opacity="0.3">
          <g id="Grupo_177486" data-name="Grupo 177486">
            <g id="Grupo_177485" data-name="Grupo 177485" clip-path="url(#clip-path-21)">
              <path id="Trazado_238345" data-name="Trazado 238345" d="M243.674,173.946c0,.245,2.208,14.683,2.208,14.683a31.782,31.782,0,0,1-5.144,1.472l-2.2-14.724a17.287,17.287,0,0,0,5.141-1.431" transform="translate(-238.533 -173.946)"/>
            </g>
          </g>
        </g>
        <path id="Trazado_238346" data-name="Trazado 238346" d="M180.5,217.72a54.423,54.423,0,0,1-20.413-3.767c-2.551-1.041-6.118-2.686-9.9-4.428-3.193-1.472-6.495-2.995-9.642-4.372-4.446-1.945-10.275-1.689-11.5.768l-10.687-5.9c4.723-9.483,17.521-10.609,26.841-6.532,3.253,1.424,6.609,2.971,9.854,4.468,3.653,1.685,7.1,3.276,9.412,4.218,7.892,3.221,18.335,3.786,27.933,1.514,12.291-2.909,27.738-13.042,35.932-23.571,8.7-11.178,11.564-24.182,7.859-35.679-3.5-10.861-20.945-18.114-30.466-17.1l-1.221-12.58c13.753-1.465,37.375,7.8,43.125,25.639,5.062,15.7,1.439,33.1-9.939,47.714-9.854,12.662-27.782,24.4-42.629,27.915a63.433,63.433,0,0,1-14.563,1.7" transform="translate(-33.479 -28.863)" fill="#8c6df2"/>
        <path id="Trazado_238347" data-name="Trazado 238347" d="M179.88,382.535c-.012-8.61,4.934-17.915,13.231-24.892,20.459-17.2,50.373-13.5,66.383-9.764l-2.626,12.342c-32.374-7.556-49.107,1.318-56.2,7.282-6.442,5.417-8.722,11.473-8.717,15.014Z" transform="translate(-51.058 -86.825)" fill="#8c6df2"/>
        <path id="Trazado_238348" data-name="Trazado 238348" d="M278.886,362.62l17.8-6.943L284.1,340.7Z" transform="translate(-79.35 -85.809)" fill="#375a64"/>
        <g id="Grupo_177490" data-name="Grupo 177490" transform="translate(171.209 85.595)" opacity="0.3">
          <g id="Grupo_177489" data-name="Grupo 177489">
            <g id="Grupo_177488" data-name="Grupo 177488" clip-path="url(#clip-path-22)">
              <path id="Trazado_238349" data-name="Trazado 238349" d="M245.314,114.665l-1.019,12.579h-3.929L239.224,114.6a20.545,20.545,0,0,1,6.09.064" transform="translate(-239.225 -114.41)"/>
            </g>
          </g>
        </g>
        <g id="Grupo_177493" data-name="Grupo 177493" transform="translate(84.886 168.384)" opacity="0.3">
          <g id="Grupo_177492" data-name="Grupo 177492">
            <g id="Grupo_177491" data-name="Grupo 177491" clip-path="url(#clip-path-23)">
              <path id="Trazado_238350" data-name="Trazado 238350" d="M120.148,225.07s10.214,7.455,10.076,7.5a2.463,2.463,0,0,0-1.172,1.172l-10.687-5.9a19.479,19.479,0,0,1,1.783-2.77" transform="translate(-118.365 -225.07)"/>
            </g>
          </g>
        </g>
        <path id="Trazado_238351" data-name="Trazado 238351" d="M254.329,43.814,239.938,64.742l23.021,7.691Z" transform="translate(-68.22 -11.035)" fill="#8c6df2"/>
        <path id="Trazado_238352" data-name="Trazado 238352" d="M328.2,195.565l-4.83-11.589-.074.034c.084-.041,8.481-4.3,16.834-19.39,8.421-15.213,8.347-38.345,8.331-39.886-1.4-28.6-13.5-48.451-35.964-59l-.379-.177a59.224,59.224,0,0,0-48.453-.605L258.4,67.228l-4.6-11.69,5.268-2.276A70.846,70.846,0,0,1,317.016,54l.411.192c26.6,12.492,41.495,36.7,43.1,70.019l.006.186c.022,1.127.43,27.8-9.956,46.567-10.352,18.7-21.174,24.053-22.374,24.6" transform="translate(-72.179 -11.945)" fill="#8c6df2"/>
        <path id="Trazado_238353" data-name="Trazado 238353" d="M308.337,214.791l-13-5.351A116.612,116.612,0,0,1,300.9,196.4a123.017,123.017,0,0,0,7.634-18.5c7.952-26.18,6.88-40.607,1.9-59.586l13.581-3.908c5.583,21.294,6.908,38.432-2.063,67.967a137.341,137.341,0,0,1-8.484,20.682,111.744,111.744,0,0,0-5.138,11.742" transform="translate(-84.05 -28.813)" fill="#ff735d"/>
        <path id="Trazado_238354" data-name="Trazado 238354" d="M332.411,109.188l-17.819-17.93-9.652,23.9Z" transform="translate(-86.795 -22.984)" fill="#ff735d"/>
        <g id="Grupo_177496" data-name="Grupo 177496" transform="translate(211.286 177.516)" opacity="0.3">
          <g id="Grupo_177495" data-name="Grupo 177495">
            <g id="Grupo_177494" data-name="Grupo 177494" clip-path="url(#clip-path-24)">
              <path id="Trazado_238355" data-name="Trazado 238355" d="M295.336,240.376l1.2-3.1,13.064,4.883-1.262,3.579Z" transform="translate(-295.336 -237.277)"/>
            </g>
          </g>
        </g>
      </g>
    </g>
  </g>
</svg>
