<svg id="Grupo_137419" data-name="Grupo 137419" xmlns="http://www.w3.org/2000/svg" xmlns:xlink="http://www.w3.org/1999/xlink" width="315" height="195" viewBox="0 0 315 195">
  <defs>
    <clipPath id="clip-path">
      <rect id="Rectángulo_45862" data-name="Rectángulo 45862" width="315" height="195" fill="none"/>
    </clipPath>
    <clipPath id="clip-path-3">
      <rect id="Rectángulo_45854" data-name="Rectángulo 45854" width="53.321" height="46.761" fill="none"/>
    </clipPath>
    <clipPath id="clip-path-4">
      <rect id="Rectángulo_45855" data-name="Rectángulo 45855" width="20.39" height="13.855" fill="none"/>
    </clipPath>
    <clipPath id="clip-path-5">
      <rect id="Rectángulo_45856" data-name="Rectángulo 45856" width="3.137" height="24.031" fill="none"/>
    </clipPath>
    <clipPath id="clip-path-6">
      <rect id="Rectángulo_45857" data-name="Rectángulo 45857" width="24.688" height="50.511" fill="none"/>
    </clipPath>
    <clipPath id="clip-path-7">
      <rect id="Rectángulo_45858" data-name="Rectángulo 45858" width="14.851" height="79.691" fill="none"/>
    </clipPath>
    <clipPath id="clip-path-8">
      <rect id="Rectángulo_45859" data-name="Rectángulo 45859" width="19.883" height="19.883" fill="none"/>
    </clipPath>
    <clipPath id="clip-path-9">
      <rect id="Rectángulo_45860" data-name="Rectángulo 45860" width="24.912" height="24.913" fill="none"/>
    </clipPath>
  </defs>
  <g id="Grupo_137442" data-name="Grupo 137442" clip-path="url(#clip-path)">
    <g id="Grupo_137441" data-name="Grupo 137441">
      <g id="Grupo_137440" data-name="Grupo 137440" clip-path="url(#clip-path)">
        <path id="Trazado_201893" data-name="Trazado 201893" d="M96.256,48.858A74.683,74.683,0,0,0,84.409,61.146c-24.831,31.367-14.387,64.176-10.908,74.3,5.619,16.334,9.76,30.169,25.891,41.069,36.652,24.769,161.82,14.8,178.907-6.551,17.1-21.372,21.437-40.438,22.583-61.379.084-.831.121-1.449.158-1.99.355-5.242,1.86-37.668-30.673-61.458a106.842,106.842,0,0,0-25.439-13.47C199.436,14.66,131.464,19.928,96.256,48.858" transform="translate(-27.365 -8.811)" fill="#e5e1f1"/>
        <path id="Trazado_201894" data-name="Trazado 201894" d="M105.351,127.453a3.148,3.148,0,0,0-.341.076A2.232,2.232,0,0,0,103.7,131a4.1,4.1,0,0,0,4.4,1.854,76.665,76.665,0,0,1,17.355-2.653,90.991,90.991,0,0,1,18.393,1.092l1.157.182,1.155.216c.769.14,1.536.3,2.3.469q2.3.487,4.569,1.117c.757.2,1.507.439,2.258.655s1.493.477,2.238.713c.737.266,1.477.508,2.208.8s1.46.552,2.174.859,1.433.594,2.134.919c.352.161.705.315,1.052.482l1.034.506c.7.326,1.356.7,2.033,1.049.662.368,1.322.735,1.967,1.116s1.284.766,1.894,1.179c.306.2.619.4.922.607l.89.627c.149.107.3.206.444.317l.44.338.876.675c.567.471,1.142.925,1.691,1.408a71.034,71.034,0,0,1,11.517,12.935c3.349,4.723,6.327,9.748,9.411,14.97,1.545,2.611,3.1,5.278,4.765,7.993.823,1.357,1.694,2.725,2.58,4.1.456.691.9,1.381,1.374,2.076l1.378,2.025c3.537,5.178,7.264,10.49,11.485,15.816a137.521,137.521,0,0,0,14.6,15.894,97.457,97.457,0,0,0,9.326,7.593,84.242,84.242,0,0,0,11.165,6.758c2.018,1.012,4.112,1.952,6.261,2.8,1.074.429,2.165.826,3.266,1.209.55.188,1.083.372,1.66.549s1.152.358,1.729.52a68.526,68.526,0,0,0,13.953,2.492c1.16.083,2.315.143,3.464.161.609.014,1.067.01,1.58.018l1.508.007c1.007,0,2.016-.032,3.026-.074s2.019-.118,3.031-.183a72.086,72.086,0,0,0,11.994-1.956,60.82,60.82,0,0,0,11.256-4.015,56.043,56.043,0,0,0,24.059-21.685,71.525,71.525,0,0,0,7.882-18.2,86.055,86.055,0,0,0,2.125-9.6c.263-1.638.48-3.3.646-5.006.082-.859.155-1.727.207-2.638.027-.456.049-.918.062-1.414l.014-.775,0-.436-.007-.264-.023-.394c-1.379-12.9-14.738-24.514-29.833-25.943s-26.216,7.869-24.837,20.767l0-.138c0-.033.01-.016.01-.016l.01.006c.011,0,.026.046.04.071a2.448,2.448,0,0,1,.085.241c.059.18.113.4.168.613.11.44.213.916.3,1.4.182.975.341,1.989.466,3.007a51.412,51.412,0,0,1,.4,6.126,43.77,43.77,0,0,1-1.314,11.407,27.382,27.382,0,0,1-4.217,9.17,20.028,20.028,0,0,1-3.265,3.548,22.08,22.08,0,0,1-4.2,2.834,28.225,28.225,0,0,1-5.241,2.11c-.494.128-.977.276-1.483.4s-1.019.246-1.547.351l-1.537.3c-.4.087-.813.153-1.223.219a22.181,22.181,0,0,1-5.149.12c-.221-.016-.441-.043-.662-.067l-.72-.1c-.486-.076-.975-.159-1.469-.264-.987-.2-2-.46-3.028-.778a51.414,51.414,0,0,1-13.154-6.557q-1.707-1.126-3.394-2.39t-3.366-2.635c-2.235-1.823-4.452-3.774-6.646-5.815-4.393-4.084-8.678-8.522-13.016-13.141L223.223,180c-.5-.535-1-1.089-1.5-1.637-1-1.115-1.991-2.242-2.985-3.405-1.986-2.316-3.973-4.722-5.982-7.178-4.03-4.906-8.211-10.017-12.986-14.982a93.911,93.911,0,0,0-16.331-13.811c-.763-.506-1.556-.983-2.335-1.467-.8-.464-1.578-.93-2.4-1.383l-1.224-.678c-.411-.219-.826-.426-1.238-.638-.819-.432-1.659-.812-2.488-1.2a80.126,80.126,0,0,0-10.1-3.777,107.334,107.334,0,0,0-20.1-3.895,134.047,134.047,0,0,0-19.465-.49,165.658,165.658,0,0,0-18.714,2Z" transform="translate(-41.369 -50.175)" fill="#fdb74d"/>
        <path id="Trazado_201895" data-name="Trazado 201895" d="M256.06,204.728a5.818,5.818,0,0,1,3.346-.572c1.568.344,7.265,4.058,7.265,4.058l4.59-.857,2.7,12.959-17.9,7.441Z" transform="translate(-102.537 -81.722)" fill="#ae7461"/>
        <path id="Trazado_201896" data-name="Trazado 201896" d="M232.817,209.3a26.361,26.361,0,0,0,5.587-1.261c1.486-.743,5.028-3.886,5.771-3.829s3.428.571,3.428.571l-1.085,3.257s5.371,3.257,6.971,4.457,6.629,6.571,6.857,7.885a4.063,4.063,0,0,1-.8,3.371c-.628.514-2.914-.514-2.914-.514a2.856,2.856,0,0,1-.514,2.343c-.857,1.143-2.857.743-2.857.743s-.171,1.886-1.086,2.229-2.971-.686-2.971-.686-.621,1.6-1.368,1.772-2.861-1.086-2.861-1.086-9.143-6.571-11.2-7.543a10.513,10.513,0,0,0-2.685-1.028Z" transform="translate(-92.538 -81.773)" fill="#ffc09d"/>
        <path id="Trazado_201897" data-name="Trazado 201897" d="M260.408,241.917c-.041,0-.067-.161-.164-.4a7.153,7.153,0,0,0-.459-.913,5.838,5.838,0,0,1-.707-1.3,3.215,3.215,0,0,1,.945,1.166,3.4,3.4,0,0,1,.408,1c.056.278.011.458-.023.455" transform="translate(-103.743 -95.825)" fill="#ff9b6c"/>
        <path id="Trazado_201898" data-name="Trazado 201898" d="M266.034,239.558a14.578,14.578,0,0,1-1.153-1.726c-.625-.952-1.294-1.586-1.247-1.646a4.034,4.034,0,0,1,1.474,1.492,5.529,5.529,0,0,1,.925,1.88" transform="translate(-105.569 -94.577)" fill="#ff9b6c"/>
        <path id="Trazado_201899" data-name="Trazado 201899" d="M272.239,233.722c-.081.02-.336-.969-.968-2.035s-1.359-1.779-1.3-1.839a5.611,5.611,0,0,1,2.269,3.874" transform="translate(-108.106 -92.039)" fill="#ff9b6c"/>
        <path id="Trazado_201900" data-name="Trazado 201900" d="M269.268,224.417a5.146,5.146,0,0,1,.137,3.085,31.039,31.039,0,0,1-.137-3.085" transform="translate(-107.812 -89.866)" fill="#ff9b6c"/>
        <path id="Trazado_201901" data-name="Trazado 201901" d="M247.1,211.18s1.429-4.572,1.943-5.144,5.293-1.829,5.293-1.829l1.482,3.829-1.06,1.121-2.286-.15a3.914,3.914,0,0,1-5.371,2.172" transform="translate(-98.95 -81.773)" fill="#ae7461"/>
        <path id="Trazado_201902" data-name="Trazado 201902" d="M232.284,230.913s-.654.5,0,1.7,2.425.343,3,0c0,0-.857,2,.229,2.628a4.267,4.267,0,0,0,2.4.457,2.333,2.333,0,0,0,1.486,2c1.543.8,1.943,0,1.943,0s.171,2,1.943,2.171a3.089,3.089,0,0,0,2.4-.437l-.8-1.181s1.029-2.1.228-3.01a2.74,2.74,0,0,0-2.114-.8s.35-1.857-.67-2.374a1.875,1.875,0,0,0-2.7.831s-.115-2.034-1.6-1.989a3.308,3.308,0,0,0-2.286.96Z" transform="translate(-92.9 -92.467)" fill="#ae7461"/>
        <path id="Trazado_201903" data-name="Trazado 201903" d="M243.59,234.23a7.5,7.5,0,0,1-1.682,2.86,15.376,15.376,0,0,1,1.682-2.86" transform="translate(-96.867 -93.795)" fill="#6f4439"/>
        <path id="Trazado_201904" data-name="Trazado 201904" d="M249.083,237.232a6.219,6.219,0,0,1-1.97,2.88,59.845,59.845,0,0,1,1.97-2.88" transform="translate(-98.952 -94.997)" fill="#6f4439"/>
        <path id="Trazado_201905" data-name="Trazado 201905" d="M184.1,273.2H175.43l-2.219,31.52H181.9c1.479-4.8,5.177-29.817,5.177-29.817Z" transform="translate(-69.361 -109.4)" fill="#263238"/>
        <path id="Trazado_201906" data-name="Trazado 201906" d="M106.13,273.2s-5.547,13.008-4.993,18.273,3.67,13.247,3.67,13.247h42.93a98.622,98.622,0,0,0,2.122-10.9c.925-6.5,3.421-20.618,3.421-20.618Z" transform="translate(-40.484 -109.4)" fill="#263238"/>
        <path id="Trazado_201907" data-name="Trazado 201907" d="M167.381,48.4c-1.45-1.83-3.242-3.592-3.613-5.9-.342-2.119.585-4.439-.365-6.364-1.169-2.368-4.529-2.831-5.987-5.033-.706-1.066-.873-2.417-1.569-3.49-1.187-1.827-3.623-2.416-5.8-2.29s-4.3.8-6.476.847c-2.989.062-6.015-1.059-8.918-.343-3.2.79-5.268,3.489-7.453,6.092l-2.829,3a11.828,11.828,0,0,1-1.854,1.36,21.242,21.242,0,0,0-3.488,1.994,5.278,5.278,0,0,0-.023,7.613,5.645,5.645,0,0,0-4.07,5.345,16.225,16.225,0,0,0,.835,3.877A5.636,5.636,0,0,1,115.69,59a2.48,2.48,0,0,1-3.3,1.24,5.938,5.938,0,0,0,3.043,4.109,3.553,3.553,0,0,1-2.437.944c2.143,5.791,8.572,9.089,14.738,9.416s12.181-1.73,18.011-3.759l16.812-3.527c1.474-.264,2.165-2.008,2.215-3.5s-.255-3.071.345-4.443c.823-1.881,3.1-2.792,3.955-4.658.974-2.121-.238-4.6-1.688-6.425" transform="translate(-45.004 -10.134)" fill="#263238"/>
        <path id="Trazado_201908" data-name="Trazado 201908" d="M135.7,67.733a68.48,68.48,0,0,1-2.387-11.575,23.928,23.928,0,0,1,1.536-11.611c.237-.549,2.2-4.213,2.8-4.124.423.064-.851,3.511-.655,3.891a20.287,20.287,0,0,1,1.671,11.932A53.423,53.423,0,0,1,135.7,67.733" transform="translate(-53.333 -16.186)" fill="#263238"/>
        <path id="Trazado_201909" data-name="Trazado 201909" d="M136.822,49.126c.188-9.892,6.1-18.027,15.984-17.565l.911.1a17.688,17.688,0,0,1,15.83,18.021c-.21,8.572-.553,18.042-1.09,22.6-1.112,9.428-10.709,9.9-10.709,9.9-.021,0-.258,15.574-.258,15.574L135.018,82.178Z" transform="translate(-54.067 -12.631)" fill="#ffc09d"/>
        <path id="Trazado_201910" data-name="Trazado 201910" d="M164.975,112.7a22.933,22.933,0,0,1-11.909-4.93s2.212,7.979,11.723,8.122Z" transform="translate(-61.294 -43.156)" fill="#ff9b6c"/>
        <path id="Trazado_201911" data-name="Trazado 201911" d="M133.554,72.3c-.153-.086-6.285-2.6-6.759,3.874s6.125,5.616,6.15,5.431.609-9.305.609-9.305" transform="translate(-50.764 -28.73)" fill="#ffc09d"/>
        <path id="Trazado_201912" data-name="Trazado 201912" d="M132.249,80.369c-.027-.023-.119.071-.315.144a1.129,1.129,0,0,1-.845-.044,2.8,2.8,0,0,1-1.109-2.6,3.738,3.738,0,0,1,.434-1.592,1.308,1.308,0,0,1,.912-.8.576.576,0,0,1,.643.358c.074.188.023.314.056.327.017.018.147-.1.115-.369a.723.723,0,0,0-.225-.424.854.854,0,0,0-.612-.211,1.59,1.59,0,0,0-1.252.918,3.845,3.845,0,0,0-.523,1.776,2.937,2.937,0,0,0,1.441,2.917,1.21,1.21,0,0,0,1.044-.1c.213-.146.257-.288.236-.3" transform="translate(-51.867 -30.094)" fill="#ff9b6c"/>
        <path id="Trazado_201913" data-name="Trazado 201913" d="M165.442,37.85c1.086-.511-1.843-4.11-4.345-5.445-3.781-2.018-9.659-3.489-13.316-2.7-4.4.948-8.134,2.868-10.557,6.663a25.535,25.535,0,0,0-3.7,12.829,7.753,7.753,0,0,0,.658,4.018c.813,1.491,2.492,2.506,2.289,4.477a2.718,2.718,0,0,0,.546,2.021c1.1,1.338,2.631.246,3.374-.9,1.588-2.446,1.942-5.466,2.254-8.366a18.971,18.971,0,0,0-.013-6.189c-.247-1.1-.691-2.154-.877-3.266a3.9,3.9,0,0,1,.667-3.205,4.011,4.011,0,0,1,.561-.5,6.772,6.772,0,0,1,6.787-.845c3.566,1.526,9.673,3.855,11.38,2.721a10,10,0,0,0,3.091-2.757Z" transform="translate(-53.463 -11.808)" fill="#263238"/>
        <path id="Trazado_201914" data-name="Trazado 201914" d="M151.6,28.066a14.264,14.264,0,0,1,10.91,1.305,7.424,7.424,0,0,1,3.629,4.554,4.255,4.255,0,0,1-2.449,4.894l-.133.072c-2.824.753-4.6.267-7.292-.865-2.268-.952-4.238-2.516-6.511-3.458a13.191,13.191,0,0,0-7.692-.72,21.534,21.534,0,0,1,9.539-5.783" transform="translate(-56.887 -11.029)" fill="#263238"/>
        <path id="Trazado_201915" data-name="Trazado 201915" d="M160.7,26.536a2.879,2.879,0,0,1,.659.065,10.634,10.634,0,0,1,1.744.475,11.091,11.091,0,0,1,2.386,1.23,9.237,9.237,0,0,1,2.378,2.277A8.811,8.811,0,0,1,169.18,33.6a15.8,15.8,0,0,1,.4,2.65c.054.76.056,1.377.047,1.8a2.807,2.807,0,0,1-.047.66,3.289,3.289,0,0,1-.06-.658c-.025-.423-.056-1.035-.134-1.787a17.549,17.549,0,0,0-.45-2.605,8.862,8.862,0,0,0-1.287-2.925,9.336,9.336,0,0,0-2.3-2.227,11.783,11.783,0,0,0-2.312-1.257,23.56,23.56,0,0,0-2.333-.721" transform="translate(-64.353 -10.624)" fill="#455a64"/>
        <path id="Trazado_201916" data-name="Trazado 201916" d="M170.651,25.938a2.367,2.367,0,0,1,.559.155,4.689,4.689,0,0,1,.64.24l.81.41a8.353,8.353,0,0,1,3.359,3.951,8.511,8.511,0,0,1,.688,2.807,9.512,9.512,0,0,1,.025,1.264,9.336,9.336,0,0,1-.148,1.092,5.659,5.659,0,0,1-.24.875,4,4,0,0,1-.261.633,2.318,2.318,0,0,1-.3.5,11.792,11.792,0,0,0,.61-2.042,8,8,0,0,0,.062-2.3,8.619,8.619,0,0,0-.689-2.724,8.586,8.586,0,0,0-3.208-3.892l-.774-.437a5.9,5.9,0,0,0-.612-.278,2.394,2.394,0,0,1-.521-.255" transform="translate(-68.336 -10.385)" fill="#455a64"/>
        <path id="Trazado_201917" data-name="Trazado 201917" d="M145.3,127.5c0,.889,4.455,20.455,6.16,25.261s7.1,53,6.394,56.436-2.558,3.3-2.558,3.3-43.62-2.746-48.309-2.334-6.678.275-7.815-5.081.034-33.187-.961-39.916-1-9.99-1.387-19.986c-.333-8.664,1.638-15.613,5.759-20.628s13.241-10.087,13.241-10.087l3.235-4.718,22.895,12.109.523-2.756,1.389,4.291Z" transform="translate(-38.757 -43.945)" fill="#5038a1"/>
        <g id="Grupo_137421" data-name="Grupo 137421" transform="translate(63.158 101.424)" opacity="0.3">
          <g id="Grupo_137420" data-name="Grupo 137420">
            <g id="Grupo_137419-2" data-name="Grupo 137419" clip-path="url(#clip-path-3)">
              <path id="Trazado_201918" data-name="Trazado 201918" d="M158.564,210.931c-.381-.972-1.618-1.216-2.655-1.332-9.7-1.076-19.8-3.5-26.883-10.21a50.291,50.291,0,0,1-7.064-8.984c-4.6-6.962-8.933-14.1-13.26-21.239l-3.361,1.27a135.806,135.806,0,0,0,7.445,25.635c3.36,8.27,5.962,16.276,14.469,18.981,5.5,1.749,15.941.408,21.694-.043a33.629,33.629,0,0,0,7.126-1.116,4.649,4.649,0,0,0,1.929-.981,1.9,1.9,0,0,0,.561-1.982" transform="translate(-105.341 -169.165)"/>
            </g>
          </g>
        </g>
        <path id="Trazado_201919" data-name="Trazado 201919" d="M103.027,152.578c.251.447,19.664,41.909,28.331,43.614s35.6,2.1,40.861,1.109,10.4-1.92,10.4-1.92,3.805-9.042.331-16.745l-7.235.228S155.6,177.779,152.756,177s-5.3-3.442-7.854-3.3l-15.3-35.616s-9.946-9.236-17.051-6.394-11.6,17.184-9.52,20.887" transform="translate(-41.052 -52.517)" fill="#5038a1"/>
        <path id="Trazado_201920" data-name="Trazado 201920" d="M225.041,228.853a3.557,3.557,0,0,1,.144-.7c.115-.441.258-1.086.408-1.886s.288-1.76.384-2.832a30.446,30.446,0,0,0,.076-3.495,28.554,28.554,0,0,0-.985-6.267c-.216-.784-.412-1.415-.563-1.845a3.577,3.577,0,0,1-.2-.683,3.47,3.47,0,0,1,.3.646,18.889,18.889,0,0,1,.65,1.829,25.525,25.525,0,0,1,1.073,6.31,27.635,27.635,0,0,1-.1,3.53,24.623,24.623,0,0,1-.446,2.847,18.819,18.819,0,0,1-.5,1.877,3.531,3.531,0,0,1-.247.668" transform="translate(-89.82 -84.552)" fill="#8c6df2"/>
        <path id="Trazado_201921" data-name="Trazado 201921" d="M129.939,142.719s.1.212.289.631l.817,1.861c.713,1.642,1.758,4.048,3.1,7.131l11.2,25.951-.106-.065a6.622,6.622,0,0,1,3.393,1.039c1.056.582,2.078,1.258,3.2,1.771a10.76,10.76,0,0,0,3.641.847c1.275.15,2.576.263,3.895.377,5.28.436,10.874.78,16.7,1.1h-.011l7.235-.231.091,0,.036.082a18.638,18.638,0,0,1,1.449,8.3,27.189,27.189,0,0,1-1.776,8.55l-.026.068-.076.014-4.6.85-5.036.929a33.538,33.538,0,0,1-5.041.519c-3.347.153-6.646.165-9.887.149s-6.423-.093-9.538-.208-6.164-.272-9.134-.5c-1.485-.106-2.95-.249-4.394-.406a30.62,30.62,0,0,1-4.254-.707,7.406,7.406,0,0,1-1.842-1.063,15.486,15.486,0,0,1-1.565-1.372,33.648,33.648,0,0,1-2.687-3.03,111.181,111.181,0,0,1-8.155-12.268c-4.55-7.775-7.834-14.287-10.089-18.788-1.121-2.254-1.97-4.015-2.54-5.212s-.854-1.832-.854-1.832.086.152.237.456l.667,1.352c.594,1.192,1.465,2.94,2.586,5.188,2.283,4.485,5.593,10.982,10.161,18.737a111.828,111.828,0,0,0,8.165,12.224,33.74,33.74,0,0,0,2.673,3,15.3,15.3,0,0,0,1.544,1.35,7.166,7.166,0,0,0,1.781,1.026,30.861,30.861,0,0,0,4.2.688c1.44.155,2.9.3,4.385.4q4.449.334,9.125.489c3.112.112,6.293.185,9.531.2s6.534,0,9.872-.153a33.253,33.253,0,0,0,5-.516l5.037-.93,4.6-.85-.1.082a26.946,26.946,0,0,0,1.757-8.454,18.382,18.382,0,0,0-1.421-8.183l.126.079-7.235.226h-.011c-5.827-.33-11.421-.68-16.706-1.125-1.32-.116-2.622-.23-3.9-.384-.64-.073-1.273-.155-1.9-.275a7.1,7.1,0,0,1-1.806-.6c-1.143-.525-2.167-1.207-3.212-1.785a6.421,6.421,0,0,0-3.272-1.019l-.077,0-.029-.069L134.028,152.39l-3.042-7.154-.788-1.873c-.176-.424-.259-.645-.259-.645" transform="translate(-41.393 -57.151)" fill="#8c6df2"/>
        <path id="Trazado_201922" data-name="Trazado 201922" d="M129.37,134.866c-.018.017-.27-.249-.753-.7a14.554,14.554,0,0,0-5.99-3.306,13.474,13.474,0,0,0-9.8.98,14.533,14.533,0,0,0-5.217,4.426c-.385.535-.579.845-.6.833a.958.958,0,0,1,.118-.239c.09-.149.2-.383.395-.654a12.794,12.794,0,0,1,1.8-2.161A13.834,13.834,0,0,1,126.5,132.33a12.813,12.813,0,0,1,2.191,1.762c.241.228.4.435.517.563a1,1,0,0,1,.162.212" transform="translate(-42.852 -52.094)" fill="#8c6df2"/>
        <path id="Trazado_201923" data-name="Trazado 201923" d="M171.628,202.175a36.352,36.352,0,0,1-2.216,5.919,36.35,36.35,0,0,1,2.216-5.919" transform="translate(-67.837 -80.959)" fill="#8c6df2"/>
        <path id="Trazado_201924" data-name="Trazado 201924" d="M231.061,213.53c0-.016.074-.037.2.008a.754.754,0,0,1,.389.381.832.832,0,0,1-.02.823.951.951,0,0,1-.919.424.89.89,0,0,1-.692-.738.851.851,0,0,1,.264-.78.7.7,0,0,1,.52-.17c.127.013.189.046.186.062.009.053-.308-.019-.572.248a.677.677,0,0,0-.15.592.657.657,0,0,0,.489.515.724.724,0,0,0,.661-.294.65.65,0,0,0,.052-.6c-.135-.378-.421-.431-.41-.466" transform="translate(-92.104 -85.484)" fill="#263238"/>
        <path id="Trazado_201925" data-name="Trazado 201925" d="M156.172,126.8a3.582,3.582,0,0,1-.522-.27l-1.444-.826.1-.044c-.285,1.444-.562,3.568-1.047,6.114l-.032.169-.148-.093c-2.125-1.339-4.676-2.871-7.4-4.515-2.029-1.215-3.925-2.441-5.672-3.5s-3.359-1.961-4.71-2.718l-3.206-1.783-.869-.489a1.624,1.624,0,0,1-.295-.186,1.662,1.662,0,0,1,.321.137l.894.443c.773.393,1.885.972,3.249,1.708s2.979,1.63,4.747,2.67l5.684,3.482c2.72,1.644,5.266,3.188,7.381,4.55l-.179.076c.505-2.527.818-4.653,1.145-6.094l.022-.094.08.05,1.411.881a3.551,3.551,0,0,1,.485.332" transform="translate(-52.431 -47.516)" fill="#263238"/>
        <g id="Grupo_137424" data-name="Grupo 137424" transform="translate(81.72 72.854)" opacity="0.3">
          <g id="Grupo_137423" data-name="Grupo 137423">
            <g id="Grupo_137422" data-name="Grupo 137422" clip-path="url(#clip-path-4)">
              <path id="Trazado_201926" data-name="Trazado 201926" d="M136.3,121.512l11.947,8.9c2.629,1.959,5.32,3.95,8.442,4.952q-.086-4.151-.173-8.3l-1.223,5.829Z" transform="translate(-136.3 -121.512)"/>
            </g>
          </g>
        </g>
        <path id="Trazado_201927" data-name="Trazado 201927" d="M338.27,37.575a4.283,4.283,0,0,1-1.973-8.29,4.455,4.455,0,0,1,3.738-7.585,5.332,5.332,0,0,1,7.954-4.522,6,6,0,0,1,7.377-.29,4.263,4.263,0,0,1,3.9,7.159" transform="translate(-133.52 -6.31)" fill="#263238"/>
        <path id="Trazado_201928" data-name="Trazado 201928" d="M339.9,41.753a18.169,18.169,0,0,1,17.768-17.074l.941-.019c10.155.386,15.5,9.226,14.834,19.367l.6,36.179-24.677,8.858-.215-13.03s-9.782-1.317-10.1-11.064c-.154-4.707.318-14.426.847-23.217" transform="translate(-135.759 -9.875)" fill="#ae7461"/>
        <path id="Trazado_201929" data-name="Trazado 201929" d="M355.784,107.656a23.653,23.653,0,0,0,12.7-4s-2.861,7.078-12.608,6.4Z" transform="translate(-142.471 -41.509)" fill="#6f4439"/>
        <path id="Trazado_201930" data-name="Trazado 201930" d="M341.878,36.487s2.447-6.157,5.362-7.643c3.529-1.8,5.143,2.083,8.52,1.065s6.746-2.743,10.27-.188c3.858,2.8,2.119,4.849,2.441,9.17,1.309,17.518,4.612,22.413,5.355,14.133.082-.907,2.579-1.678,2.873-5.509.381-4.968.45-10.992-.729-14.488-.993-2.947-2.726-4.961-5.8-7.159C365.308,22.4,358.732,22.457,354.276,23s-12.96,5.853-12.4,13.49" transform="translate(-136.892 -9.099)" fill="#263238"/>
        <path id="Trazado_201931" data-name="Trazado 201931" d="M394.046,71.1a2.646,2.646,0,0,1,2.805-2.608c1.821.135,3.866,1.127,3.823,4.886-.077,6.669-6.758,5.216-6.767,5.025-.007-.13.082-4.513.138-7.3" transform="translate(-157.737 -27.422)" fill="#ae7461"/>
        <path id="Trazado_201932" data-name="Trazado 201932" d="M396.372,77.352c.029-.021.116.083.311.175a1.16,1.16,0,0,0,.868.028,2.872,2.872,0,0,0,1.36-2.564,3.83,3.83,0,0,0-.306-1.667,1.342,1.342,0,0,0-.863-.9.591.591,0,0,0-.69.311c-.091.185-.05.319-.086.33-.019.017-.142-.114-.085-.389a.741.741,0,0,1,.267-.415.874.874,0,0,1,.644-.162,1.634,1.634,0,0,1,1.2,1.047,3.949,3.949,0,0,1,.381,1.864,3.016,3.016,0,0,1-1.729,2.86,1.245,1.245,0,0,1-1.061-.189c-.2-.167-.238-.317-.215-.329" transform="translate(-158.721 -28.868)" fill="#6f4439"/>
        <path id="Trazado_201933" data-name="Trazado 201933" d="M375.713,38.362a6.32,6.32,0,0,1-2.8,1.361,2.174,2.174,0,0,1-2.443-1.48c-.088-.463.014-1-.3-1.356-.373-.42-1.042-.273-1.6-.2a4.255,4.255,0,0,1-4.478-2.961,1.786,1.786,0,0,1-2.391.275,9.525,9.525,0,0,1-1.854-1.9,2.743,2.743,0,0,0-2.311-1.1,6.473,6.473,0,0,1-1.443.349c-.877-.06-1.325-1.076-1.475-1.942s-.274-1.878-1.025-2.334a3.485,3.485,0,0,0-2.384-.018c-.8.135-1.848-.033-2.07-.817a1.584,1.584,0,0,1,.274-1.215,4.317,4.317,0,0,1,5.062-1.738,5.852,5.852,0,0,1,10.727-1.353,5.938,5.938,0,0,1,9.536,1.972,4.3,4.3,0,0,1,4.98,6.161,4.088,4.088,0,0,1,2.315,3.209c.053,1.378-1.263,2.781-2.6,2.445a2.384,2.384,0,0,1-4.075,2.461" transform="translate(-139.797 -7.601)" fill="#263238"/>
        <path id="Trazado_201934" data-name="Trazado 201934" d="M357.308,29.444a.345.345,0,0,0,0,.122c.01.08.017.2.05.355a4.18,4.18,0,0,0,.51,1.274,4.767,4.767,0,0,0,1.51,1.546,4.445,4.445,0,0,0,2.746.723l-.116-.146a2.415,2.415,0,0,0,.171,1.838,6.9,6.9,0,0,0,1.175,1.616,4.966,4.966,0,0,0,.761.75,2.327,2.327,0,0,0,1.064.37,2.432,2.432,0,0,0,2.13-.812l-.251-.066a5,5,0,0,0,2.191,3.416,3.65,3.65,0,0,0,2.2.673,6.583,6.583,0,0,0,2.147-.517l-.179-.075a5.247,5.247,0,0,0,1.619,2.025,2.8,2.8,0,0,0,2.335.585,3.672,3.672,0,0,0,2.769-2.931l-.15.073a3.435,3.435,0,0,0,2.3.29,3.724,3.724,0,0,0,1.583-.745,3.212,3.212,0,0,0,.728-.83,1.536,1.536,0,0,0,.162-.348,3.981,3.981,0,0,1-.959,1.089,3.7,3.7,0,0,1-1.544.675,3.29,3.29,0,0,1-2.169-.311l-.127-.068-.023.141a3.463,3.463,0,0,1-2.621,2.717,2.539,2.539,0,0,1-2.12-.555,5,5,0,0,1-1.522-1.922l-.055-.122-.125.047a6.356,6.356,0,0,1-2.054.493,3.367,3.367,0,0,1-2.035-.627,4.729,4.729,0,0,1-2.072-3.219l-.048-.314-.2.248a2.165,2.165,0,0,1-1.881.717,2.062,2.062,0,0,1-.943-.321,4.8,4.8,0,0,1-.718-.7,6.7,6.7,0,0,1-1.147-1.546,2.186,2.186,0,0,1-.179-1.663l.052-.16-.167.014a4.287,4.287,0,0,1-2.631-.652,4.74,4.74,0,0,1-1.5-1.462,5.152,5.152,0,0,1-.67-1.685" transform="translate(-143.08 -11.79)" fill="#455a64"/>
        <path id="Trazado_201935" data-name="Trazado 201935" d="M277.791,198.242c.845-.338,28.76-3.692,28.76-3.692l11.326-9.589-1.063,27.758-35.643,3.437Z" transform="translate(-111.239 -74.066)" fill="#333"/>
        <g id="Grupo_137427" data-name="Grupo 137427" transform="translate(198.493 115.134)" opacity="0.3">
          <g id="Grupo_137426" data-name="Grupo 137426">
            <g id="Grupo_137425" data-name="Grupo 137425" clip-path="url(#clip-path-5)">
              <path id="Trazado_201936" data-name="Trazado 201936" d="M334.2,192.032c-.339.17-3.137,2.655-3.137,2.655l.853,21.375Z" transform="translate(-331.066 -192.032)"/>
            </g>
          </g>
        </g>
        <path id="Trazado_201937" data-name="Trazado 201937" d="M384.132,275.875h-47.15s2.5,13.3,3.421,19.435a78.614,78.614,0,0,0,2.275,10.481h42.7s3.188-7.728,3.743-12.692-4.993-17.223-4.993-17.223" transform="translate(-134.942 -110.472)" fill="#263238"/>
        <path id="Trazado_201938" data-name="Trazado 201938" d="M330.731,278.554s-1.317,15.165,0,28.309h16.333V294.752Z" transform="translate(-132.204 -111.545)" fill="#263238"/>
        <path id="Trazado_201939" data-name="Trazado 201939" d="M346.257,133.971l5.081-11.127.631-6.873s9.744-6.124,14.367-8.435a101.005,101.005,0,0,1,10.85-4.4v6.485Z" transform="translate(-138.656 -41.299)" fill="#ebebeb"/>
        <path id="Trazado_201940" data-name="Trazado 201940" d="M381.358,192.351s2.76-37.089,2.947-39.845c0,0,1.63-19.817-1.889-27.363s-11.393-14.179-11.393-14.179L370.3,107l-15.38,9.694-7.109,6.184a71.045,71.045,0,0,0-6.708,8.346,29.447,29.447,0,0,0-5.26,10.9c-.365,1.651-4.6,21.395-4.723,35.158,0,0-.651,12.006-1.344,18.807-.858,8.418-2.166,27.606-1.882,38.975l49.838-1.522c12.316-1.879,10.15-3.1,10.15-3.1Z" transform="translate(-131.286 -42.848)" fill="#333"/>
        <path id="Trazado_201941" data-name="Trazado 201941" d="M365.3,153.926l.6,49.491-7.536,48.2h19.868s9.029-36.6,11.133-44.289c2.042-7.468,5.1-45.059,5.373-46.905.106-.724,2.26-13.706-4.081-19.83" transform="translate(-143.504 -56.299)" fill="#333"/>
        <path id="Trazado_201942" data-name="Trazado 201942" d="M371.762,113.949s-.116.059-.345.158l-1.017.425c-.435.209-.963.485-1.583.807-.6.369-1.306.75-2.041,1.273a56.586,56.586,0,0,0-10.95,10.121l-.029.033-.041.008-4.782.88.1-.119c-.075,2.221-.154,4.553-.236,6.966l0,.055-.041.039a66.2,66.2,0,0,0-7.031,7.707,30.3,30.3,0,0,0-2.41,3.644l-.26.47-.2.49a8.426,8.426,0,0,0-.361.994c-.213.675-.423,1.345-.6,2.023-.738,2.693-1.347,5.322-1.917,7.827-1.135,5.011-2.08,9.543-2.863,13.349-1.564,7.615-2.446,12.341-2.446,12.341a7.529,7.529,0,0,1,.107-.867c.087-.566.232-1.4.422-2.468.386-2.139.969-5.231,1.726-9.044s1.685-8.349,2.807-13.367c.564-2.508,1.168-5.139,1.9-7.842.173-.678.384-1.354.6-2.036a8.7,8.7,0,0,1,.369-1.017l.207-.507.263-.477a30.482,30.482,0,0,1,2.431-3.678,65.687,65.687,0,0,1,7.07-7.737l-.043.094c.087-2.413.171-4.744.251-6.966l0-.1.1-.018,4.784-.863-.07.041A55.361,55.361,0,0,1,366.7,116.5c.743-.517,1.463-.892,2.066-1.252.629-.314,1.164-.581,1.605-.781l1.034-.393c.234-.088.358-.124.358-.124" transform="translate(-133.233 -45.63)" fill="#666"/>
        <path id="Trazado_201943" data-name="Trazado 201943" d="M390.55,140.593s.144.136.415.413a10.965,10.965,0,0,1,1.085,1.334,16.586,16.586,0,0,1,2.482,6.1,34.115,34.115,0,0,1,.378,10.443c-.3,2.027-.448,4.194-.667,6.5s-.431,4.745-.664,7.307c-.474,5.123-1.009,10.734-1.655,16.756-.332,3.01-.676,6.123-1.1,9.324a75.98,75.98,0,0,1-1.749,9.811c-3.319,13.221-6.972,27.77-10.814,43.068l-.026.1h-2.251l-17.725,0H358.1l.025-.157c2.788-17.777,5.362-34.187,7.559-48.2v.019c-.161-14.987-.294-27.357-.387-35.988-.039-4.309-.069-7.683-.09-9.986-.007-1.145-.011-2.023-.015-2.621s.006-.9.006-.9.016.3.028.9.027,1.475.049,2.62c.035,2.3.086,5.677.151,9.986.116,8.631.282,21,.483,35.987v.01l0,.01c-2.184,14.012-4.741,30.424-7.512,48.2l-.134-.157,17.725,0h2.143l-.134.1c3.849-15.3,7.511-29.848,10.838-43.068a76.13,76.13,0,0,0,1.754-9.776c.429-3.2.778-6.309,1.114-9.317.656-6.018,1.2-11.628,1.688-16.749q.361-3.841.684-7.3c.225-2.3.385-4.493.688-6.506a34.221,34.221,0,0,0-.329-10.4,16.777,16.777,0,0,0-2.423-6.09,11.9,11.9,0,0,0-1.061-1.346c-.265-.282-.4-.432-.4-.432" transform="translate(-143.398 -56.299)" fill="#666"/>
        <path id="Trazado_201944" data-name="Trazado 201944" d="M380.823,250.551a8.093,8.093,0,0,1-1.535-.445c-.934-.318-2.209-.8-3.587-1.415s-2.594-1.232-3.456-1.711a8.1,8.1,0,0,1-1.359-.841,10.621,10.621,0,0,1,1.449.668c.883.433,2.107,1.023,3.478,1.633s2.628,1.12,3.543,1.484a10.561,10.561,0,0,1,1.468.627" transform="translate(-148.518 -98.563)" fill="#666"/>
        <path id="Trazado_201945" data-name="Trazado 201945" d="M330.728,225.712a.472.472,0,0,1,0-.13c0-.1.008-.227.013-.38.019-.355.046-.841.079-1.456.082-1.287.2-3.109.341-5.35.3-4.516.74-10.755,1.348-17.636s1.313-13.1,1.886-17.591c.288-2.245.532-4.061.716-5.313q.137-.913.215-1.442l.063-.374a.484.484,0,0,1,.031-.126.466.466,0,0,1,0,.13c-.01.1-.022.225-.036.377q-.06.531-.164,1.449c-.151,1.281-.366,3.093-.629,5.323-.523,4.495-1.195,10.712-1.8,17.592s-1.074,13.114-1.429,17.626c-.179,2.239-.325,4.058-.428,5.344-.055.613-.1,1.1-.129,1.452-.017.152-.03.276-.041.377a.457.457,0,0,1-.023.128" transform="translate(-132.435 -70.444)" fill="#666"/>
        <path id="Trazado_201946" data-name="Trazado 201946" d="M394.76,125.278a25.545,25.545,0,0,0-1.869-3.942,25.541,25.541,0,0,0-2.742-3.394,4.44,4.44,0,0,1,1.007.814,13.192,13.192,0,0,1,3.307,5.261,4.433,4.433,0,0,1,.3,1.261" transform="translate(-156.231 -47.228)" fill="#666"/>
        <path id="Trazado_201947" data-name="Trazado 201947" d="M337.464,231.7c.014,0,.064.122.049.36a1.438,1.438,0,0,1-.432.9,1.369,1.369,0,0,1-1.433.326,1.589,1.589,0,0,1-.737-.527,1.46,1.46,0,0,1-.3-.928,1.923,1.923,0,0,1,.382-1.152,1.187,1.187,0,0,1,.463-.365c.191-.071.329-.1.486-.154l.02-.006h.017a1.666,1.666,0,0,1,.958.275,1.241,1.241,0,0,1,.444.63,1.259,1.259,0,0,1,.081.645c-.032.007-.062-.233-.213-.594a1.149,1.149,0,0,0-.424-.519,1.517,1.517,0,0,0-.846-.2l.037-.006c-.144.051-.326.106-.456.158a.945.945,0,0,0-.356.3,1.7,1.7,0,0,0-.318.99,1.261,1.261,0,0,0,.845,1.215,1.176,1.176,0,0,0,1.215-.229,1.441,1.441,0,0,0,.459-.77c.046-.213.035-.341.058-.344" transform="translate(-133.993 -92.161)" fill="#666"/>
        <path id="Trazado_201948" data-name="Trazado 201948" d="M336.231,260.887c.014,0,.064.121.049.359a1.439,1.439,0,0,1-.432.9,1.37,1.37,0,0,1-1.433.326,1.588,1.588,0,0,1-.737-.527,1.461,1.461,0,0,1-.3-.929,1.923,1.923,0,0,1,.382-1.151,1.181,1.181,0,0,1,.463-.365c.191-.071.329-.1.486-.155l.02-.005h.017a1.661,1.661,0,0,1,.958.275,1.242,1.242,0,0,1,.444.63,1.259,1.259,0,0,1,.081.645c-.032.007-.062-.233-.213-.594a1.151,1.151,0,0,0-.424-.519,1.512,1.512,0,0,0-.846-.2l.037-.006c-.144.051-.326.106-.456.158a.943.943,0,0,0-.356.295,1.7,1.7,0,0,0-.318.99,1.259,1.259,0,0,0,.845,1.214,1.175,1.175,0,0,0,1.215-.229,1.438,1.438,0,0,0,.459-.769c.046-.214.035-.342.058-.344" transform="translate(-133.499 -103.849)" fill="#666"/>
        <path id="Trazado_201949" data-name="Trazado 201949" d="M399.734,134.422c-.028.047-.684-.373-1.843-.817a12.807,12.807,0,0,0-2.09-.6,12.919,12.919,0,0,0-5.287.073,12.791,12.791,0,0,0-2.073.653c-1.147.476-1.79.914-1.82.868a2.064,2.064,0,0,1,.436-.329,4.69,4.69,0,0,1,.547-.333,7.788,7.788,0,0,1,.758-.384,11.545,11.545,0,0,1,2.094-.721,12.234,12.234,0,0,1,5.394-.074,11.512,11.512,0,0,1,2.113.663,7.88,7.88,0,0,1,.769.363,4.686,4.686,0,0,1,.556.318,2.057,2.057,0,0,1,.445.317" transform="translate(-154.819 -53.058)" fill="#263238"/>
        <g id="Grupo_137430" data-name="Grupo 137430" transform="translate(201.396 77.147)" opacity="0.3">
          <g id="Grupo_137429" data-name="Grupo 137429">
            <g id="Grupo_137428" data-name="Grupo 137428" clip-path="url(#clip-path-6)">
              <path id="Trazado_201950" data-name="Trazado 201950" d="M335.907,179.184c2.152-3.131,2.942-6.085,4.092-9.707,1.709-5.382,2.185-11.464,4.867-16.433,1.579-2.926,3.436-5.929,6.181-7.806,2.678-1.83,3.075-4.158,3.022-10.451a7.368,7.368,0,0,0,4.178-1.715,10.661,10.661,0,0,0,2.348-4.4c-1.343,1.461-3.582,3.882-3.582,3.882s-4.855.9-4.783.871c-.119,2.421-.124,4.545-.243,6.966,0,0-9.313,9.881-10.038,11.868s-6.042,26.924-6.042,26.924" transform="translate(-335.907 -128.673)"/>
            </g>
          </g>
        </g>
        <g id="Grupo_137433" data-name="Grupo 137433" transform="translate(235.973 109.657)" opacity="0.3">
          <g id="Grupo_137432" data-name="Grupo 137432">
            <g id="Grupo_137431" data-name="Grupo 137431" clip-path="url(#clip-path-7)">
              <path id="Trazado_201951" data-name="Trazado 201951" d="M393.578,262.588c11.8-22.339,15.471-51.712,14.768-79.691,0,0-3.388,34.008-4.53,39.845-1.134,5.8-10.239,39.845-10.239,39.845" transform="translate(-393.578 -182.896)"/>
            </g>
          </g>
        </g>
        <path id="Trazado_201952" data-name="Trazado 201952" d="M380.192,107.952a1.554,1.554,0,0,1-.264.2l-.787.534-2.92,1.919-9.688,6.244-4.181,2.666.01-.007-1.335,1.033a10.68,10.68,0,0,0-1.193,1.019c-.732.707-1.383,1.394-1.969,2.018l-.106.113-.061-.14-1.524-3.523-.4-.965a1.764,1.764,0,0,1-.122-.345,1.676,1.676,0,0,1,.175.321l.451.943,1.607,3.486-.167-.028c.577-.634,1.221-1.331,1.952-2.051a10.817,10.817,0,0,1,1.208-1.05L362.2,119.3l0,0,0,0,4.175-2.678,9.733-6.177,2.967-1.845.814-.49a1.538,1.538,0,0,1,.294-.155" transform="translate(-142.416 -43.228)" fill="#263238"/>
        <g id="Grupo_137436" data-name="Grupo 137436" transform="translate(14.994 41.959)" opacity="0.7" style="isolation: isolate">
          <g id="Grupo_137435" data-name="Grupo 137435">
            <g id="Grupo_137434" data-name="Grupo 137434" clip-path="url(#clip-path-8)">
              <path id="Trazado_201953" data-name="Trazado 201953" d="M38.7,70.721a9.939,9.939,0,1,0,5.453,12.955A9.939,9.939,0,0,0,38.7,70.721" transform="translate(-25.009 -69.984)" fill="#5038a1"/>
            </g>
          </g>
        </g>
        <path id="Trazado_201954" data-name="Trazado 201954" d="M38.579,76.236A3.313,3.313,0,1,0,40.4,80.554,3.313,3.313,0,0,0,38.579,76.236Z" transform="translate(-13.621 -30.43)" fill="none" stroke="#fff" stroke-width="1.441"/>
        <path id="Trazado_201955" data-name="Trazado 201955" d="M83.29,66.275A2.016,2.016,0,1,0,84.4,68.9a2.017,2.017,0,0,0-1.106-2.628" transform="translate(-32.24 -26.479)" fill="#fdb74d"/>
        <path id="Trazado_201956" data-name="Trazado 201956" d="M83.415,66.964a1.585,1.585,0,1,0,.869,2.065,1.584,1.584,0,0,0-.869-2.065" transform="translate(-32.529 -26.768)" fill="#fdb74d"/>
        <path id="Trazado_201957" data-name="Trazado 201957" d="M83.415,66.964a1.585,1.585,0,1,0,.869,2.065A1.584,1.584,0,0,0,83.415,66.964Z" transform="translate(-32.529 -26.768)" fill="none" stroke="#8c6df2" stroke-width="1.441"/>
        <path id="Trazado_201958" data-name="Trazado 201958" d="M62.732,84.644a1.3,1.3,0,1,0,.711,1.69,1.3,1.3,0,0,0-.711-1.69" transform="translate(-24.405 -33.856)" fill="#fdb74d"/>
        <g id="Grupo_137439" data-name="Grupo 137439" transform="translate(8.738 9.756)" opacity="0.5">
          <g id="Grupo_137438" data-name="Grupo 137438">
            <g id="Grupo_137437" data-name="Grupo 137437" clip-path="url(#clip-path-9)">
              <path id="Trazado_201959" data-name="Trazado 201959" d="M14.573,28.728A12.456,12.456,0,1,1,27.029,41.185,12.457,12.457,0,0,1,14.573,28.728" transform="translate(-14.573 -16.272)" fill="#fdb74d"/>
            </g>
          </g>
        </g>
        <circle id="Elipse_6213" data-name="Elipse 6213" cx="10.889" cy="10.889" r="10.889" transform="translate(10.022 11.613) rotate(-1.506)" fill="none" stroke="#fff" stroke-linecap="round" stroke-width="2.046" stroke-dasharray="1.535 4.093"/>
      </g>
    </g>
  </g>
</svg>
