<svg xmlns="http://www.w3.org/2000/svg" xmlns:xlink="http://www.w3.org/1999/xlink" width="277.952" height="548" viewBox="0 0 277.952 548">
  <defs>
    <clipPath id="clip-path">
      <rect id="Rectángulo_102341" data-name="Rectángulo 102341" width="276.266" height="548" fill="none"/>
    </clipPath>
    <clipPath id="clip-path-3">
      <rect id="Rectángulo_102339" data-name="Rectángulo 102339" width="208.735" height="457.735" fill="none"/>
    </clipPath>
    <clipPath id="clip-path-4">
      <rect id="Rectángulo_101698" data-name="Rectángulo 101698" width="63.419" height="63.419" transform="translate(51.449 344.834)" fill="none"/>
    </clipPath>
    <clipPath id="clip-path-5">
      <rect id="Rectángulo_101699" data-name="Rectángulo 101699" width="3.394" height="3.441" fill="none"/>
    </clipPath>
    <clipPath id="clip-path-6">
      <rect id="Rectángulo_101700" data-name="Rectángulo 101700" width="28.902" height="17.463" fill="none"/>
    </clipPath>
    <clipPath id="clip-path-7">
      <rect id="Rectángulo_101701" data-name="Rectángulo 101701" width="164.798" height="173.591" fill="none"/>
    </clipPath>
    <clipPath id="clip-path-8">
      <rect id="Rectángulo_101703" data-name="Rectángulo 101703" width="21.628" height="92.598" fill="none"/>
    </clipPath>
    <clipPath id="clip-path-9">
      <rect id="Rectángulo_101704" data-name="Rectángulo 101704" width="16.521" height="29.535" fill="none"/>
    </clipPath>
    <clipPath id="clip-path-10">
      <rect id="Rectángulo_101705" data-name="Rectángulo 101705" width="44.47" height="16.818" fill="none"/>
    </clipPath>
  </defs>
  <g id="Grupo_178744" data-name="Grupo 178744" transform="translate(-1037.048 -3200)">
    <g id="Grupo_178743" data-name="Grupo 178743" transform="translate(1037.048 3200)">
      <g id="Grupo_178742" data-name="Grupo 178742" clip-path="url(#clip-path)">
        <g id="Grupo_178741" data-name="Grupo 178741">
          <g id="Grupo_178740" data-name="Grupo 178740" clip-path="url(#clip-path)">
            <path id="Trazado_241457" data-name="Trazado 241457" d="M54.082,84.668A162.138,162.138,0,0,1,73.921,57.649C124.278.725,175.043,22.263,190.694,29.478c25.254,11.656,46.674,20.152,62.878,55.5,36.821,80.309,14.691,359.507-19.6,398.667-34.32,39.195-64.366,49.844-97.177,53.489-1.3.229-2.273.344-3.12.456-8.218,1.066-59.011,6.111-94.515-65.075-7.559-14.856-14.2-33.674-19.738-55.935C-4.8,316.181,6.994,164.569,54.082,84.668" transform="translate(3.661 9.918)" fill="#e5e1f1"/>
            <g id="Grupo_178739" data-name="Grupo 178739" opacity="0.61">
              <g id="Grupo_178738" data-name="Grupo 178738">
                <g id="Grupo_178737" data-name="Grupo 178737" clip-path="url(#clip-path-3)">
                  <path id="Trazado_241458" data-name="Trazado 241458" d="M203.563,454.1a5.814,5.814,0,0,1-.154.621c-.886,2.86-3.754,3.86-6.4,2.232a7.49,7.49,0,0,1-3.183-8.135,140.1,140.1,0,0,0,5.649-31.586,166.3,166.3,0,0,0-1.148-33.653l-.279-2.123-.341-2.119c-.22-1.413-.483-2.821-.752-4.228q-.784-4.224-1.829-8.4c-.332-1.394-.732-2.772-1.093-4.156-.384-1.38-.8-2.75-1.2-4.121-.451-1.359-.861-2.721-1.35-4.07s-.942-2.694-1.469-4.012-1.019-2.646-1.581-3.943c-.278-.649-.542-1.3-.832-1.942l-.877-1.913c-.563-1.287-1.22-2.51-1.823-3.763-.64-1.226-1.281-2.449-1.946-3.645-.687-1.181-1.341-2.381-2.067-3.514-.359-.569-.7-1.151-1.068-1.712l-1.105-1.655c-.187-.276-.361-.556-.557-.828l-.6-.82-1.193-1.631c-.834-1.057-1.637-2.129-2.495-3.154a129.869,129.869,0,0,0-23.1-21.639c-8.474-6.338-17.518-12.011-26.917-17.885-4.7-2.945-9.5-5.907-14.385-9.075-2.442-1.566-4.9-3.221-7.374-4.9-1.241-.865-2.481-1.709-3.728-2.6l-3.638-2.612c-9.3-6.7-18.829-13.757-28.363-21.713a251.246,251.246,0,0,1-28.365-27.412A177.809,177.809,0,0,1,24.563,196.6a153.883,153.883,0,0,1-11.831-20.712c-1.756-3.733-3.376-7.6-4.832-11.568-.732-1.983-1.407-3.994-2.057-6.022-.319-1.015-.63-2-.927-3.058s-.6-2.12-.87-3.183A125.181,125.181,0,0,1,.138,126.447c-.1-2.122-.154-4.236-.134-6.336,0-1.113.03-1.951.039-2.889L.1,114.466c.045-1.839.151-3.681.273-5.525s.311-3.683.476-5.53A131.66,131.66,0,0,1,4.977,81.589a111.032,111.032,0,0,1,7.854-20.38,102.415,102.415,0,0,1,40.73-42.955A130.78,130.78,0,0,1,87.169,4.693,157.616,157.616,0,0,1,104.8,1.255c3-.4,6.042-.725,9.175-.95C115.55.2,117.142.1,118.808.048,119.644.02,120.488,0,121.394,0l1.418.011.8.026.483.024.719.06c23.5,3.114,44.107,28.058,46.022,55.7s-15.588,47.533-39.089,44.418l.254,0c.06,0,.03-.017.03-.017l-.011-.018c0-.021-.085-.05-.128-.077-.143-.062-.288-.116-.438-.165-.326-.118-.72-.226-1.113-.335-.8-.22-1.664-.432-2.543-.622-1.774-.378-3.62-.713-5.474-.989A93.849,93.849,0,0,0,111.147,97a79.969,79.969,0,0,0-20.9,1.874A50.039,50.039,0,0,0,73.3,106.158a36.608,36.608,0,0,0-6.632,5.8,40.31,40.31,0,0,0-5.371,7.534,51.749,51.749,0,0,0-4.1,9.479c-.257.9-.55,1.773-.8,2.691-.228.936-.5,1.851-.713,2.812l-.618,2.794c-.178.725-.316,1.478-.456,2.224a40.5,40.5,0,0,0-.458,9.4c.02.4.057.808.091,1.213l.153,1.321c.116.891.245,1.788.414,2.7.328,1.814.749,3.668,1.282,5.568a93.917,93.917,0,0,0,11.371,24.334q1.977,3.171,4.21,6.31t4.659,6.271c3.228,4.168,6.689,8.308,10.318,12.411,7.259,8.213,15.168,16.248,23.406,24.387l2.96,2.916c.954.942,1.943,1.871,2.922,2.816,1.99,1.871,4,3.742,6.084,5.61,4.139,3.736,8.444,7.476,12.838,11.262,8.778,7.588,17.921,15.464,26.772,24.417A171.555,171.555,0,0,1,186.1,310.9c.889,1.418,1.723,2.89,2.573,4.332.811,1.49,1.626,2.926,2.416,4.452l1.182,2.268c.381.761.74,1.528,1.108,2.291.752,1.516,1.406,3.068,2.085,4.6a146.542,146.542,0,0,1,6.434,18.632,196.271,196.271,0,0,1,6.187,36.909,245.082,245.082,0,0,1,0,35.584,302.322,302.322,0,0,1-4.514,34.1Z" transform="translate(0)" fill="#fdb74d"/>
                </g>
              </g>
            </g>
          </g>
        </g>
      </g>
    </g>
    <g id="Grupo_178733" data-name="Grupo 178733">
      <g id="Grupo_178722" data-name="Grupo 178722" transform="translate(-63.026 -36.892)">
        <path id="Trazado_237945" data-name="Trazado 237945" d="M334.662,29.827l.392,1.989-3.941,21.321a12.712,12.712,0,0,1-9.831,2.251l-22.3-4.122s-3.544-.792-2.557-5.394c0,0,.175-2.428,2.256-2.59,0,0-4.323-1.756-3.845-5.085s2.931-3.285,2.931-3.285-4.048-1.022-3.628-4.771,2.607-3.756,2.607-3.756-4.709-1.144-3.531-5.3a4.278,4.278,0,0,1,5.227-3.134L314.3,20.879l13.9,2.57a8.076,8.076,0,0,1,6.455,6.378" transform="translate(1000 3265.188)" fill="#5038a1"/>
        <path id="Trazado_237946" data-name="Trazado 237946" d="M330.734,24.373s-4.884-4.419-6.6-9.225a23.706,23.706,0,0,1-1.161-7.422c.035-.189.321-1.869.555-3.243a2.131,2.131,0,0,0-1.657-2.437,6.968,6.968,0,0,0-7.717,5.112c-1.854,6.389-.269,10.743-.216,12.688l.053,1.945Z" transform="translate(1000 3265.188)" fill="#5038a1"/>
        <rect id="Rectángulo_101693" data-name="Rectángulo 101693" width="32.182" height="15.84" transform="translate(1327.673 3321.512) rotate(-79.528)" fill="#5038a1"/>
        <path id="Trazado_237947" data-name="Trazado 237947" d="M327.673,56.324c-.034-.006,1.248-7.1,2.864-15.833s2.952-15.819,2.985-15.813-1.248,7.1-2.863,15.835-2.952,15.817-2.986,15.811" transform="translate(1000 3265.188)" fill="#5038a1"/>
        <path id="Trazado_237948" data-name="Trazado 237948" d="M343.248,59.2c-.034-.006,1.248-7.1,2.864-15.833s2.952-15.819,2.985-15.813-1.248,7.1-2.863,15.835-2.952,15.817-2.986,15.811" transform="translate(1000 3265.188)" fill="#5038a1"/>
        <path id="Trazado_237949" data-name="Trazado 237949" d="M337.682,32.938a2.964,2.964,0,1,0,3.453-2.376,2.963,2.963,0,0,0-3.453,2.376" transform="translate(1000 3265.188)" fill="#5038a1"/>
        <path id="Trazado_237950" data-name="Trazado 237950" d="M310.654,20.2c.006-.034,1.71.253,3.8.64s3.788.728,3.782.762-1.71-.253-3.8-.64-3.787-.728-3.781-.762" transform="translate(1000 3265.188)" fill="#5038a1"/>
        <path id="Trazado_237951" data-name="Trazado 237951" d="M297.424,35a24.562,24.562,0,0,1,2.435.387c1.34.248,2.42.476,2.414.509a24.2,24.2,0,0,1-2.436-.387A24.3,24.3,0,0,1,297.424,35" transform="translate(1000 3265.188)" fill="#5038a1"/>
        <path id="Trazado_237952" data-name="Trazado 237952" d="M296.453,26.252c.006-.034,1.552.224,3.452.575s3.436.663,3.43.7-1.552-.224-3.452-.575-3.436-.663-3.43-.7" transform="translate(1000 3265.188)" fill="#5038a1"/>
        <path id="Trazado_237953" data-name="Trazado 237953" d="M297.7,43.142c.006-.034,1.552.224,3.452.575s3.436.663,3.43.7-1.552-.224-3.452-.575-3.436-.663-3.43-.7" transform="translate(1000 3265.188)" fill="#5038a1"/>
        <path id="Trazado_237954" data-name="Trazado 237954" d="M337.03,26.254c.006-.034,2.188.341,4.872.837s4.856.926,4.85.96-2.187-.341-4.873-.837-4.855-.926-4.849-.96" transform="translate(1000 3265.188)" fill="#5038a1"/>
        <path id="Trazado_237958" data-name="Trazado 237958" d="M298.57,48.92a1.27,1.27,0,0,1-.3-.426,2.782,2.782,0,0,1-.008-2.449,1.27,1.27,0,0,1,.3-.428c.018.013-.1.175-.217.464a3.06,3.06,0,0,0,.008,2.376c.123.289.238.45.22.463" transform="translate(1000 3265.188)" fill="#5038a1"/>
        <path id="Trazado_237959" data-name="Trazado 237959" d="M314.325,14.558a2.2,2.2,0,0,1-.109-.352c-.032-.114-.068-.255-.1-.421s-.077-.353-.1-.564a11.084,11.084,0,0,1-.125-1.487,12.429,12.429,0,0,1,.118-1.824,12.3,12.3,0,0,1,.408-1.783,10.971,10.971,0,0,1,.543-1.39c.085-.2.181-.362.259-.511s.151-.275.215-.375a2.051,2.051,0,0,1,.2-.307,2.2,2.2,0,0,1-.163.33c-.057.1-.125.231-.2.383s-.161.321-.24.516a12.425,12.425,0,0,0-.514,1.388,13.229,13.229,0,0,0-.394,1.766,13.124,13.124,0,0,0-.126,1.806,12.11,12.11,0,0,0,.1,1.476c.02.21.058.4.083.563s.053.308.078.423a2.1,2.1,0,0,1,.062.363" transform="translate(1000 3265.188)" fill="#5038a1"/>
      </g>
      <g id="Grupo_178723" data-name="Grupo 178723" transform="translate(-31 38.73)">
        <path id="Trazado_237960" data-name="Trazado 237960" d="M310.552,224.774l1.056,1.208,5.734,16.178a10.068,10.068,0,0,1-5.85,5.433l-16.92,6s-2.744.859-3.887-2.686c0,0-.841-1.734.521-2.669,0,0-3.658.507-4.647-1.965s.709-3.412.709-3.412-3.18.9-4.375-1.835.3-3.607.3-3.607-3.682,1.079-4.518-2.237a3.386,3.386,0,0,1,2.343-4.217l12.034-4.268,10.549-3.739a6.392,6.392,0,0,1,6.949,1.819" transform="translate(1000 3265.188)" fill="#fdb74d"/>
        <path id="Trazado_237961" data-name="Trazado 237961" d="M305.7,222.588s-5.1-1.1-8.177-3.712a18.783,18.783,0,0,1-3.733-4.63c-.051-.143-.519-1.408-.9-2.443a1.687,1.687,0,0,0-2.1-1.015,5.516,5.516,0,0,0-3.269,6.558c1.257,5.114,4.066,7.473,4.872,8.785l.806,1.313Z" transform="translate(1000 3265.188)" fill="#fdb74d"/>
        <rect id="Rectángulo_101694" data-name="Rectángulo 101694" width="12.538" height="25.474" transform="translate(1307.733 3486.883) rotate(-19.517)" fill="#fdb74d"/>
        <path id="Trazado_237962" data-name="Trazado 237962" d="M316.244,245.705c-.026.009-1.952-5.359-4.3-11.989s-4.235-12.013-4.209-12.022,1.951,5.358,4.3,11.99,4.234,12.012,4.209,12.021" transform="translate(1000 3265.188)" fill="#fdb74d"/>
        <path id="Trazado_237963" data-name="Trazado 237963" d="M328.062,241.516c-.026.009-1.952-5.359-4.3-11.989s-4.235-12.013-4.209-12.022,1.951,5.358,4.3,11.99,4.235,12.012,4.209,12.021" transform="translate(1000 3265.188)" fill="#fdb74d"/>
        <path id="Trazado_237964" data-name="Trazado 237964" d="M313.853,225.712a2.346,2.346,0,1,0,1.428-3,2.347,2.347,0,0,0-1.428,3" transform="translate(1000 3265.188)" fill="#fdb74d"/>
        <path id="Trazado_237965" data-name="Trazado 237965" d="M290.285,227.675c-.009-.026,1.272-.5,2.861-1.066s2.886-1,2.895-.974-1.272.5-2.862,1.066-2.885,1-2.894.974" transform="translate(1000 3265.188)" fill="#fdb74d"/>
        <path id="Trazado_237966" data-name="Trazado 237966" d="M287.069,243.057a38.986,38.986,0,0,1,3.679-1.3,39,39,0,0,1-3.679,1.3" transform="translate(1000 3265.188)" fill="#fdb74d"/>
        <path id="Trazado_237967" data-name="Trazado 237967" d="M282.941,237.44c-.009-.026,1.152-.461,2.594-.972s2.618-.9,2.628-.879-1.153.461-2.6.972-2.618.9-2.627.879" transform="translate(1000 3265.188)" fill="#fdb74d"/>
        <path id="Trazado_237968" data-name="Trazado 237968" d="M290.478,248.528c-.009-.026,1.153-.461,2.594-.972s2.619-.9,2.628-.879-1.153.461-2.6.972-2.618.9-2.627.879" transform="translate(1000 3265.188)" fill="#fdb74d"/>
        <path id="Trazado_237969" data-name="Trazado 237969" d="M310.762,221.387c-.009-.026,1.635-.632,3.672-1.353s3.7-1.287,3.705-1.262-1.635.632-3.673,1.354-3.7,1.286-3.7,1.261" transform="translate(1000 3265.188)" fill="#fdb74d"/>
        <path id="Trazado_237970" data-name="Trazado 237970" d="M284.547,241.529c-.005,0-.046-.029-.119-.1a2.268,2.268,0,0,1-.274-.311,2.978,2.978,0,0,1-.314-.531,3.446,3.446,0,0,1-.231-.721,3.558,3.558,0,0,1-.052-.754,2.976,2.976,0,0,1,.1-.61,2.258,2.258,0,0,1,.14-.39c.043-.088.069-.135.076-.132s-.074.2-.149.539a3.331,3.331,0,0,0-.073.6,3.375,3.375,0,0,0,.275,1.435,3.175,3.175,0,0,0,.288.527c.191.285.349.434.336.447" transform="translate(1000 3265.188)" fill="#fdb74d"/>
        <path id="Trazado_237971" data-name="Trazado 237971" d="M280.641,236.067a.906.906,0,0,1-.371-.152,1.941,1.941,0,0,1-.907-1.641.894.894,0,0,1,.069-.4c.017,0-.012.153,0,.393a2.1,2.1,0,0,0,.875,1.585c.2.138.339.194.333.21" transform="translate(1000 3265.188)" fill="#fdb74d"/>
        <path id="Trazado_237972" data-name="Trazado 237972" d="M288.936,247.295a.968.968,0,0,1-.451-.1,1.67,1.67,0,0,1-1.022-1.83.95.95,0,0,1,.156-.434c.016.006-.057.167-.087.443a1.711,1.711,0,0,0,.981,1.757c.25.12.426.142.423.159" transform="translate(1000 3265.188)" fill="#fdb74d"/>
        <path id="Trazado_237973" data-name="Trazado 237973" d="M293.362,252.144a1,1,0,0,1-.374-.173,2.2,2.2,0,0,1-.975-1.677,1,1,0,0,1,.035-.41c.017,0,0,.158.035.4a2.42,2.42,0,0,0,.944,1.626c.2.149.341.214.335.23" transform="translate(1000 3265.188)" fill="#fdb74d"/>
        <path id="Trazado_237974" data-name="Trazado 237974" d="M290.568,222.351a1.6,1.6,0,0,1-.214-.2c-.067-.066-.148-.148-.235-.25s-.192-.211-.293-.346a9,9,0,0,1-.674-.97,10,10,0,0,1-.641-1.3,9.674,9.674,0,0,1-.425-1.383,8.7,8.7,0,0,1-.178-1.168c-.019-.167-.019-.32-.025-.453s-.005-.248,0-.342a1.763,1.763,0,0,1,.019-.291,1.578,1.578,0,0,1,.02.29c0,.094.005.208.017.34s.016.284.039.449a9.775,9.775,0,0,0,.2,1.155,9.588,9.588,0,0,0,1.057,2.655,9.622,9.622,0,0,0,.65.973c.1.137.2.25.28.353s.158.19.221.259a1.635,1.635,0,0,1,.186.225" transform="translate(1000 3265.188)" fill="#fdb74d"/>
      </g>
      <g id="Grupo_178724" data-name="Grupo 178724" transform="translate(143.653 11)">
        <path id="Trazado_237978" data-name="Trazado 237978" d="M51.27,409.868H23.138A13.308,13.308,0,0,1,9.83,396.56V368.428A13.308,13.308,0,0,1,23.138,355.12H51.27a13.308,13.308,0,0,1,13.308,13.308V396.56A13.308,13.308,0,0,1,51.27,409.868" transform="translate(1027.933 3265.188)" fill="#e1e1e1"/>
        <path id="Trazado_237979" data-name="Trazado 237979" d="M41.44,409.868H13.308A13.308,13.308,0,0,1,0,396.56V368.428A13.308,13.308,0,0,1,13.308,355.12H41.44a13.308,13.308,0,0,1,13.308,13.308V396.56A13.308,13.308,0,0,1,41.44,409.868" transform="translate(1027.933 3265.188)" fill="#ececec"/>
        <path id="Trazado_237980" data-name="Trazado 237980" d="M8.471,383.282l5.515-5.515,10.636,9.454,17.76-17.829,5.121,5.515-23.669,22.95Z" transform="translate(1027.933 3265.188)" fill="#fff"/>
        <path id="Trazado_238003" data-name="Trazado 238003" d="M101.56,408.253h-36.8a13.308,13.308,0,0,1-13.307-13.308v-36.8a13.308,13.308,0,0,1,13.307-13.308h36.8a13.308,13.308,0,0,1,13.308,13.308v36.8a13.308,13.308,0,0,1-13.308,13.308" transform="translate(1027.933 3265.188)" fill="#ff735d"/>
        <g id="Grupo_177391" data-name="Grupo 177391" transform="translate(1027.933 3265.188)" opacity="0.3">
          <g id="Grupo_177390" data-name="Grupo 177390">
            <g id="Grupo_177389" data-name="Grupo 177389" clip-path="url(#clip-path-4)">
              <path id="Trazado_238004" data-name="Trazado 238004" d="M101.56,408.253h-36.8a13.308,13.308,0,0,1-13.307-13.308v-36.8a13.308,13.308,0,0,1,13.307-13.308h36.8a13.308,13.308,0,0,1,13.308,13.308v36.8a13.308,13.308,0,0,1-13.308,13.308"/>
            </g>
          </g>
        </g>
        <path id="Trazado_238005" data-name="Trazado 238005" d="M90.173,408.253h-36.8a13.308,13.308,0,0,1-13.307-13.308v-36.8a13.308,13.308,0,0,1,13.307-13.308h36.8a13.308,13.308,0,0,1,13.308,13.308v36.8a13.308,13.308,0,0,1-13.308,13.308" transform="translate(1027.933 3265.188)" fill="#8c6df2"/>
        <path id="Trazado_238006" data-name="Trazado 238006" d="M49.874,377.456l6.388-6.388,12.321,10.951,20.574-20.653,5.931,6.389L67.67,394.34Z" transform="translate(1027.933 3265.188)" fill="#fff"/>
        <path id="Trazado_238007" data-name="Trazado 238007" d="M135.188,408.253H111.074a8.226,8.226,0,0,1-8.227-8.226V375.912a8.226,8.226,0,0,1,8.226-8.226h24.115a8.226,8.226,0,0,1,8.226,8.226v24.115a8.226,8.226,0,0,1-8.226,8.226" transform="translate(1027.933 3265.188)" fill="#1a2e35"/>
        <path id="Trazado_238008" data-name="Trazado 238008" d="M127.9,408.253H103.79a8.226,8.226,0,0,1-8.227-8.226V375.912a8.226,8.226,0,0,1,8.226-8.226H127.9a8.226,8.226,0,0,1,8.226,8.226v24.115a8.226,8.226,0,0,1-8.226,8.226" transform="translate(1027.933 3265.188)" fill="#375a64"/>
        <path id="Trazado_238009" data-name="Trazado 238009" d="M101.84,388.553l4.086-4.086,7.881,7.005,13.161-13.211,3.794,4.086-17.538,17.006Z" transform="translate(1027.933 3265.188)" fill="#fff"/>
      </g>
      <g id="Grupo_178721" data-name="Grupo 178721" transform="translate(-2 38.169)">
        <path id="Trazado_238012" data-name="Trazado 238012" d="M204.156,97.835h-92.2a6.188,6.188,0,1,1,0-12.377h92.2a6.188,6.188,0,0,1,0,12.377" transform="translate(977.675 3265.188)" fill="#e1e1e1"/>
        <path id="Trazado_238013" data-name="Trazado 238013" d="M89.36,106.755H70.96a5.138,5.138,0,0,1-5.138-5.138v-18.4a5.138,5.138,0,0,1,5.138-5.138h18.4A5.138,5.138,0,0,1,94.5,83.217v18.4a5.138,5.138,0,0,1-5.138,5.138" transform="translate(977.675 3265.188)" fill="#5038a1"/>
        <path id="Trazado_238014" data-name="Trazado 238014" d="M70.259,92.83l2.889-2.888,5.57,4.951,9.3-9.338L90.7,88.443l-12.4,12.021Z" transform="translate(977.675 3265.188)" fill="#fff"/>
        <path id="Trazado_238015" data-name="Trazado 238015" d="M204.156,142.319h-92.2a6.188,6.188,0,1,1,0-12.377h92.2a6.188,6.188,0,0,1,0,12.377" transform="translate(977.675 3265.188)" fill="#e1e1e1"/>
        <path id="Trazado_238016" data-name="Trazado 238016" d="M89.36,151.239H70.96a5.139,5.139,0,0,1-5.138-5.138V127.7a5.138,5.138,0,0,1,5.138-5.138h18.4A5.138,5.138,0,0,1,94.5,127.7v18.4a5.138,5.138,0,0,1-5.138,5.138" transform="translate(977.675 3265.188)" fill="#5038a1"/>
        <path id="Trazado_238017" data-name="Trazado 238017" d="M70.259,137.314l2.889-2.889,5.57,4.952,9.3-9.338,2.682,2.888-12.4,12.021Z" transform="translate(977.675 3265.188)" fill="#fff"/>
        <path id="Trazado_238018" data-name="Trazado 238018" d="M204.156,186.8h-92.2a6.188,6.188,0,1,1,0-12.377h92.2a6.188,6.188,0,0,1,0,12.377" transform="translate(977.675 3265.188)" fill="#e1e1e1"/>
        <path id="Trazado_238019" data-name="Trazado 238019" d="M89.36,195.723H70.96a5.138,5.138,0,0,1-5.138-5.138v-18.4a5.138,5.138,0,0,1,5.138-5.138h18.4a5.138,5.138,0,0,1,5.138,5.138v18.4a5.138,5.138,0,0,1-5.138,5.138" transform="translate(977.675 3265.188)" fill="#5038a1"/>
        <path id="Trazado_238020" data-name="Trazado 238020" d="M70.259,181.8l2.889-2.889,5.57,4.952,9.3-9.338L90.7,177.41l-12.4,12.021Z" transform="translate(977.675 3265.188)" fill="#fff"/>
        <path id="Trazado_238021" data-name="Trazado 238021" d="M204.156,231.286h-92.2a6.188,6.188,0,1,1,0-12.377h92.2a6.188,6.188,0,0,1,0,12.377" transform="translate(977.675 3265.188)" fill="#e1e1e1"/>
        <path id="Trazado_238022" data-name="Trazado 238022" d="M89.36,240.206H70.96a5.138,5.138,0,0,1-5.138-5.138v-18.4a5.138,5.138,0,0,1,5.138-5.138h18.4a5.138,5.138,0,0,1,5.138,5.138v18.4a5.138,5.138,0,0,1-5.138,5.138" transform="translate(977.675 3265.188)" fill="#5038a1"/>
        <path id="Trazado_238023" data-name="Trazado 238023" d="M70.259,226.281l2.889-2.889,5.57,4.952,9.3-9.338,2.682,2.888-12.4,12.021Z" transform="translate(977.675 3265.188)" fill="#fff"/>
      </g>
      <g id="Grupo_178725" data-name="Grupo 178725" transform="translate(-55.718)">
        <path id="Trazado_237955" data-name="Trazado 237955" d="M295.658,32.389a.661.661,0,0,1-.081-.206,3.258,3.258,0,0,1-.119-.592,4.236,4.236,0,0,1-.01-.9,4.607,4.607,0,0,1,.717-2.062,4.348,4.348,0,0,1,.564-.7,3.122,3.122,0,0,1,.46-.389c.119-.081.185-.121.191-.113s-.241.2-.578.572a4.8,4.8,0,0,0-.526.7,5.281,5.281,0,0,0-.459.964,5.361,5.361,0,0,0-.238,1.042,4.859,4.859,0,0,0-.021.874c.036.5.125.8.1.807" transform="translate(1020.699 3266.904)" fill="#5038a1"/>
        <path id="Trazado_237956" data-name="Trazado 237956" d="M294.893,23.774a1.332,1.332,0,0,1-.357-.462,2.821,2.821,0,0,1,.051-2.725,1.31,1.31,0,0,1,.374-.448c.02.016-.127.184-.285.5a3.055,3.055,0,0,0-.048,2.632c.147.318.287.49.266.506" transform="translate(1020.515 3265.803)" fill="#5038a1"/>
        <path id="Trazado_237957" data-name="Trazado 237957" d="M296.923,41.335a1.405,1.405,0,0,1-.5-.449,2.426,2.426,0,0,1,.044-3.045,1.364,1.364,0,0,1,.512-.434c.016.02-.194.169-.432.495a2.486,2.486,0,0,0-.043,2.926c.229.333.434.488.418.508" transform="translate(1020.771 3268.408)" fill="#5038a1"/>
        <path id="Trazado_238034" data-name="Trazado 238034" d="M231.851,375.172l-.925,24.346s24.435,9.117,24.7,13.633l-47.27-.1-.115-37.994Z" transform="translate(1007.544 3319.352)" fill="#1a2e35"/>
        <path id="Trazado_238035" data-name="Trazado 238035" d="M215.436,394.515a1.934,1.934,0,0,0-1.341,2.2,1.856,1.856,0,0,0,2.169,1.347,2.035,2.035,0,0,0,1.406-2.337,1.925,1.925,0,0,0-2.411-1.151" transform="translate(1008.421 3322.275)" fill="#e1e1e1"/>
        <path id="Trazado_238036" data-name="Trazado 238036" d="M208.343,408.573l.138-3.83,45.271,1.527s2.1.921,1.861,2.4Z" transform="translate(1007.559 3323.83)" fill="#375a64"/>
        <path id="Trazado_238037" data-name="Trazado 238037" d="M229.183,396.132c-.008.231-1.162.333-2.3,1.073-1.157.71-1.745,1.709-1.956,1.617-.213-.045.135-1.425,1.527-2.3s2.779-.605,2.729-.394" transform="translate(1010.053 3322.499)" fill="#fff"/>
        <path id="Trazado_238038" data-name="Trazado 238038" d="M233.334,397.907c.052.223-.948.615-1.734,1.589-.815.951-1.015,2.006-1.244,2-.218.036-.374-1.317.626-2.509s2.348-1.3,2.352-1.076" transform="translate(1010.856 3322.785)" fill="#fff"/>
        <path id="Trazado_238039" data-name="Trazado 238039" d="M235.394,403.578c-.209.048-.528-1.1.067-2.367s1.676-1.764,1.773-1.572c.13.19-.572.867-1.045,1.912-.5,1.032-.566,2.006-.8,2.028" transform="translate(1011.599 3323.054)" fill="#fff"/>
        <path id="Trazado_238040" data-name="Trazado 238040" d="M228.91,391.372c-.1.211-1.155-.111-2.461-.024-1.306.059-2.322.495-2.442.3-.133-.168.86-1.02,2.4-1.1s2.619.646,2.505.826" transform="translate(1009.921 3321.687)" fill="#fff"/>
        <path id="Trazado_238041" data-name="Trazado 238041" d="M181.413,372.28l-2.56,29.365,4.673,23.81a3.02,3.02,0,0,1-5.182,2.63c-4.212-4.593-19.626-21.566-19.319-23.7.357-2.477.643-31.154.643-31.154Z" transform="translate(1000.118 3318.932)" fill="#1a2e35"/>
        <path id="Trazado_238042" data-name="Trazado 238042" d="M180.935,425.085l-21.788-26.638-.081,1.246a4.545,4.545,0,0,0,.887,3.011c1.727,2.314,6.636,8.6,18.3,21.429a3.017,3.017,0,0,0,2.686.952" transform="translate(1000.123 3322.88)" fill="#375a64"/>
        <g id="Grupo_177394" data-name="Grupo 177394" transform="translate(1163.176 3711.879)" opacity="0.6">
          <g id="Grupo_177393" data-name="Grupo 177393" transform="translate(0)">
            <g id="Grupo_177392" data-name="Grupo 177392" clip-path="url(#clip-path-5)">
              <path id="Trazado_238043" data-name="Trazado 238043" d="M165.268,390.583a1.827,1.827,0,0,1,.346,2.413,1.756,1.756,0,0,1-2.389.364,1.927,1.927,0,0,1-.353-2.557,1.822,1.822,0,0,1,2.527-.1" transform="translate(-162.529 -390.237)" fill="#fff"/>
            </g>
          </g>
        </g>
        <path id="Trazado_238044" data-name="Trazado 238044" d="M172.945,410.456c.161.092.923-1.406,2.726-2.122,1.78-.771,3.379-.252,3.427-.43.031-.071-.327-.323-1.009-.465a4.814,4.814,0,0,0-4.76,1.975c-.382.582-.456,1.014-.384,1.043" transform="translate(1002.215 3324.225)" fill="#fff"/>
        <path id="Trazado_238045" data-name="Trazado 238045" d="M174.544,413.833c.132.137,1.137-.76,2.687-1.1,1.542-.373,2.837-.006,2.9-.185.094-.145-1.281-.86-3.042-.445-1.764.4-2.688,1.64-2.541,1.729" transform="translate(1002.458 3324.922)" fill="#fff"/>
        <path id="Trazado_238046" data-name="Trazado 238046" d="M169.835,405.844c.129.148,1.669-1.237,4.032-1.974,2.352-.775,4.41-.542,4.429-.738.059-.154-2.1-.7-4.625.121-2.532.8-3.971,2.5-3.835,2.591" transform="translate(1001.748 3323.539)" fill="#fff"/>
        <path id="Trazado_238047" data-name="Trazado 238047" d="M169.862,397.762c.067.182,1.736-.394,3.855-.334,2.12.03,3.763.674,3.838.5.09-.139-1.546-1.106-3.824-1.144-2.279-.058-3.953.839-3.869.982" transform="translate(1001.753 3322.628)" fill="#fff"/>
        <path id="Trazado_238048" data-name="Trazado 238048" d="M170.325,390.275c.081.176,1.777-.7,4-.455,2.233.2,3.724,1.387,3.837,1.23.053-.059-.245-.449-.9-.884a6.577,6.577,0,0,0-5.889-.582c-.725.3-1.093.623-1.054.691" transform="translate(1001.823 3321.477)" fill="#fff"/>
        <path id="Trazado_238049" data-name="Trazado 238049" d="M174.361,389.081a2.512,2.512,0,0,0,.112-1.109,7.746,7.746,0,0,0-.7-2.972,3.437,3.437,0,0,0-1.365-1.731,1.213,1.213,0,0,0-1.382.182,1.98,1.98,0,0,0-.551,1.3,4.269,4.269,0,0,0,3.481,4.18,4.95,4.95,0,0,0,5.019-2.273,1.715,1.715,0,0,0,.173-1.421,1.19,1.19,0,0,0-1.2-.708,4.214,4.214,0,0,0-2,.883,8.635,8.635,0,0,0-2.154,2.157,2.62,2.62,0,0,0-.517.986,13.726,13.726,0,0,1,2.926-2.763,3.941,3.941,0,0,1,1.764-.726.631.631,0,0,1,.657.382,1.174,1.174,0,0,1-.168.928,4.419,4.419,0,0,1-4.374,1.921,3.707,3.707,0,0,1-3-3.507,1.428,1.428,0,0,1,.345-.923.659.659,0,0,1,.762-.112,3.119,3.119,0,0,1,1.183,1.444,11.445,11.445,0,0,1,1,3.883" transform="translate(1001.846 3320.57)" fill="#fff"/>
        <path id="Trazado_238050" data-name="Trazado 238050" d="M262.165,197.685a104.654,104.654,0,0,1,2.283,30.782c-.5,6.542-22.578,187.514-22.578,187.514H212.065l8.378-170.089-2.441.529s-16.27,72.543-17.6,84.289c-1.193,10.556-14.915,87.254-14.915,87.254l-27.252.313,8.7-101.448,10.128-97.342,3.811-28.336Z" transform="translate(1000 3291.605)" fill="#1a2e35"/>
        <path id="Trazado_238051" data-name="Trazado 238051" d="M211.346,231.64c-.013.015.052.084.193.2a2.04,2.04,0,0,0,.726.343,3.407,3.407,0,0,0,2.827-.669,5.6,5.6,0,0,0,1.93-3.852c.213-1.62.245-3.362.366-5.2.2-3.68.35-7.015.428-9.43a26.157,26.157,0,0,0,.008-3.914,26.043,26.043,0,0,0-.418,3.892c-.183,2.409-.4,5.739-.6,9.421-.12,1.835-.14,3.61-.316,5.162a5.3,5.3,0,0,1-1.652,3.6,3.3,3.3,0,0,1-2.528.773,5.71,5.71,0,0,1-.967-.326" transform="translate(1008.012 3294.315)" fill="#375a64"/>
        <path id="Trazado_238052" data-name="Trazado 238052" d="M173.248,214.5a2.438,2.438,0,0,0,.836.3,14.337,14.337,0,0,0,2.381.4,17.145,17.145,0,0,0,14.342-5.761,14.2,14.2,0,0,0,1.443-1.937,2.441,2.441,0,0,0,.395-.794c-.084-.056-.747,1.014-2.139,2.453a18.3,18.3,0,0,1-14.015,5.63c-2-.076-3.22-.389-3.242-.291" transform="translate(1002.264 3293.952)" fill="#375a64"/>
        <path id="Trazado_238053" data-name="Trazado 238053" d="M238.223,206.905a9.785,9.785,0,0,0,.452,2.992,22.4,22.4,0,0,0,7.984,12.013,9.809,9.809,0,0,0,2.583,1.577c.135-.153-3.98-2.5-7.085-7.245-3.171-4.7-3.74-9.4-3.934-9.337" transform="translate(1012.064 3293.981)" fill="#375a64"/>
        <path id="Trazado_238054" data-name="Trazado 238054" d="M317.774,163.029l6.84,2.162,12.426-6.867,7.051,19.633-16.91,4.023-12.808-1.409Z" transform="translate(1023.557 3286.652)" fill="#c27460"/>
        <path id="Trazado_238055" data-name="Trazado 238055" d="M248.2,93.92s6.987,4.195,12.775,18.449c11.37,28,18.511,43.116,18.511,43.116l52.194,16.485-4.17,20.923s-52.907-7.371-59.992-10.028c-9.693-3.634-16.882-22.752-16.882-22.752Z" transform="translate(1013.573 3276.935)" fill="#e1e1e1"/>
        <path id="Trazado_238056" data-name="Trazado 238056" d="M239.67,42.848a5.507,5.507,0,0,0,1.785-10.811,5.729,5.729,0,0,0-5.477-9.395,6.857,6.857,0,0,0-10.611-5.087,7.71,7.71,0,0,0-9.489.291,5.483,5.483,0,0,0-4.362,9.536" transform="translate(1007.764 3265.188)" fill="#1a2e35"/>
        <path id="Trazado_238057" data-name="Trazado 238057" d="M216.585,22.394l1.208-.06a23.365,23.365,0,0,1,24.329,20.3c1.469,11.23,2.949,23.656,3.174,29.709.467,12.532-11.962,15.1-11.962,15.1l1.807,14.995-30.444.569-5.4-54.439c-1.768-12.948,4.3-24.77,17.287-26.179" transform="translate(1006.149 3266.13)" fill="#c27460"/>
        <path id="Trazado_238058" data-name="Trazado 238058" d="M231.1,79.412a30.422,30.422,0,0,1-16.65-3.988s4.308,8.821,16.749,7.073Z" transform="translate(1008.482 3274.145)" fill="#7c4236"/>
        <path id="Trazado_238059" data-name="Trazado 238059" d="M241.035,37.165s-3.693-7.68-7.566-9.322c-4.689-1.988-6.41,3.136-10.834,2.133s-8.9-2.912-13.192.682c-4.7,3.935-2.282,6.412-2.306,11.983-.1,22.592-3.9,29.168-5.6,18.613-.186-1.157-3.458-1.921-4.181-6.809-.937-6.339-1.565-14.061-.368-18.652,1.009-3.869,3.05-6.609,6.8-9.706,5.921-4.887,14.363-5.4,20.129-5.112s17.151,6.344,17.117,16.191" transform="translate(1005.747 3265.919)" fill="#1a2e35"/>
        <path id="Trazado_238060" data-name="Trazado 238060" d="M202.626,56.044a3.4,3.4,0,0,0-3.834-3.094c-2.325.337-4.858,1.793-4.464,6.613.7,8.549,9.138,6.084,9.132,5.837,0-.168-.51-5.782-.834-9.357" transform="translate(1005.439 3270.749)" fill="#c27460"/>
        <path id="Trazado_238061" data-name="Trazado 238061" d="M200.951,61.971c-.04-.024-.14.116-.383.252a1.488,1.488,0,0,1-1.111.114c-.931-.257-1.808-1.628-1.976-3.166A4.935,4.935,0,0,1,197.724,57a1.725,1.725,0,0,1,1.027-1.235.76.76,0,0,1,.913.336c.133.23.093.405.14.415.025.02.171-.158.074-.505a.958.958,0,0,0-.38-.509,1.127,1.127,0,0,0-.841-.15,2.1,2.1,0,0,0-1.448,1.452,5.087,5.087,0,0,0-.321,2.425c.2,1.718,1.21,3.258,2.474,3.514a1.6,1.6,0,0,0,1.343-.337c.247-.232.277-.428.246-.441" transform="translate(1005.826 3271.114)" fill="#7c4236"/>
        <path id="Trazado_238062" data-name="Trazado 238062" d="M202.086,44.658a8.144,8.144,0,0,0,3.71,1.494,2.8,2.8,0,0,0,3-2.118c.071-.6-.108-1.286.26-1.765.441-.573,1.312-.444,2.034-.4,2.5.139,5.274-2.754,5.788-5.208a2.237,2.237,0,0,0,3.018.47,8.02,8.02,0,0,0,1.973-1.936,3.529,3.529,0,0,1,2.866-1.617,8.495,8.495,0,0,0,1.883.319c1.12-.157,1.6-1.5,1.717-2.625s.183-2.433,1.1-3.087c.855-.607,2.015-.338,3.058-.237s2.366-.208,2.581-1.234a2.035,2.035,0,0,0-.46-1.534,5.552,5.552,0,0,0-6.651-1.773,7.525,7.525,0,0,0-13.882-.771A7.637,7.637,0,0,0,202.03,26.02a5.536,5.536,0,0,0-5.835,8.353,5.258,5.258,0,0,0-2.682,4.324c.056,1.775,1.871,3.454,3.558,2.9a3.066,3.066,0,0,0,5.447,2.792" transform="translate(1005.322 3265.537)" fill="#1a2e35"/>
        <path id="Trazado_238063" data-name="Trazado 238063" d="M228.622,24.906a.442.442,0,0,1,.006.157,4.583,4.583,0,0,1-.032.46,5.384,5.384,0,0,1-.539,1.68,6.136,6.136,0,0,1-1.8,2.119A5.711,5.711,0,0,1,222.8,30.5l.136-.2a3.107,3.107,0,0,1-.055,2.373,8.852,8.852,0,0,1-1.36,2.177,6.421,6.421,0,0,1-.909,1.031,3,3,0,0,1-1.333.571,3.131,3.131,0,0,1-2.8-.85l.315-.108a6.431,6.431,0,0,1-2.5,4.579,4.694,4.694,0,0,1-2.766,1.061,8.481,8.481,0,0,1-2.8-.471l.223-.112a6.755,6.755,0,0,1-1.9,2.744,3.6,3.6,0,0,1-2.943.96,4.724,4.724,0,0,1-3.815-3.51l.2.081a4.427,4.427,0,0,1-2.921.579,4.819,4.819,0,0,1-2.1-.814,4.173,4.173,0,0,1-1.008-1,2.03,2.03,0,0,1-.239-.432,5.175,5.175,0,0,0,1.329,1.311,4.741,4.741,0,0,0,2.042.726,4.224,4.224,0,0,0,2.754-.594l.157-.1.043.18a4.453,4.453,0,0,0,3.607,3.249,3.265,3.265,0,0,0,2.669-.9,6.429,6.429,0,0,0,1.779-2.6l.06-.161.165.048a8.141,8.141,0,0,0,2.679.448,4.32,4.32,0,0,0,2.554-.986,6.088,6.088,0,0,0,2.369-4.316l.033-.407.282.3a2.781,2.781,0,0,0,2.477.75,2.652,2.652,0,0,0,1.182-.5,6.248,6.248,0,0,0,.857-.966,8.655,8.655,0,0,0,1.333-2.087,2.812,2.812,0,0,0,.079-2.149l-.079-.2.215,0a5.514,5.514,0,0,0,3.317-1.074,6.1,6.1,0,0,0,1.791-2.009,6.638,6.638,0,0,0,.708-2.222" transform="translate(1005.429 3266.522)" fill="#375a64"/>
        <path id="Trazado_238064" data-name="Trazado 238064" d="M284.934,139.669c-.191-.676-11.341-31.025-14.9-37.668-4.255-7.947-13.2-11.462-18.753-11.8S186.3,94.59,186.3,94.59s-17.75,3.976-20.013,19.243c-2.6,17.574-4.885,57.8-4.885,57.8l27.048-13.862,3.5-8.824,55.962,12.486,13.665-20.214Z" transform="translate(1000.478 3276.371)" fill="#e1e1e1"/>
        <path id="Trazado_238065" data-name="Trazado 238065" d="M180.19,98.17,203.4,87.936l2.6-10.01L233.1,90.735l5.676-6.271,2.375,7.068,5.937,1.94,13.877,24.407-.043,52.006,2.808,44.86-3.01,7.081-24.859,3.668a28.325,28.325,0,0,1-8.2.009L177.2,217.253l-1.3-14.821,5.39-40.851Z" transform="translate(1002.665 3274.522)" fill="#dee9f0"/>
        <path id="Trazado_238066" data-name="Trazado 238066" d="M202.371,77.926s3.029.877,10.809,5.028c7.622,4.067,16.285,7.781,16.285,7.781l-.658,12.235L199.973,88.494" transform="translate(1006.297 3274.522)" fill="#e1e1e1"/>
        <path id="Trazado_238067" data-name="Trazado 238067" d="M231.275,83.608l-5.675,6.27,3.033,13.115,5.055-11.854" transform="translate(1010.163 3275.379)" fill="#e1e1e1"/>
        <g id="Grupo_177397" data-name="Grupo 177397" transform="translate(1208.792 3364.282)" opacity="0.3">
          <g id="Grupo_177396" data-name="Grupo 177396" transform="translate(0 0)">
            <g id="Grupo_177395" data-name="Grupo 177395" clip-path="url(#clip-path-6)">
              <path id="Trazado_238068" data-name="Trazado 238068" d="M229.24,90.537c.251.188,1.826,15.135,1.826,15.135l-28.9-17.463,26.311,13.21Z" transform="translate(-202.165 -88.209)"/>
            </g>
          </g>
        </g>
        <path id="Trazado_238069" data-name="Trazado 238069" d="M225.53,144.107c-.434-11.433,1.368-40.6,1.368-40.6l3.767-.607a425.755,425.755,0,0,1,9.666,63.1c1.063,14.06,1.063,30.346,1.063,30.346l-7.568,16.243-8.365-16.138s.6-38.451.068-52.343" transform="translate(1010.142 3278.29)" fill="#375a64"/>
        <path id="Trazado_238070" data-name="Trazado 238070" d="M178.126,97.053c-.045.056.783.7,1.954,1.906a23.657,23.657,0,0,1,6.125,11.4c.359,1.641.441,2.686.512,2.68a2.538,2.538,0,0,0,.006-.739,15.013,15.013,0,0,0-.239-2,21.322,21.322,0,0,0-6.2-11.542,15.076,15.076,0,0,0-1.533-1.3,2.621,2.621,0,0,0-.62-.4" transform="translate(1003 3277.407)" fill="#1a2e35"/>
        <path id="Trazado_238071" data-name="Trazado 238071" d="M225.6,94.271l2.58-1.007,2.447,4.2.442,6.894-3.447.555-2.591-4.254Z" transform="translate(1010.077 3276.836)" fill="#375a64"/>
        <path id="Trazado_238072" data-name="Trazado 238072" d="M249.8,111.958c-.111,0-.2,14.922-.2,33.326s.091,33.328.2,33.328.2-14.919.2-33.328-.091-33.326-.2-33.326" transform="translate(1013.784 3279.656)" fill="#1a2e35"/>
        <path id="Trazado_238073" data-name="Trazado 238073" d="M225.363,88.964c-.049.035.556.961,1.472,2.493s2.126,3.682,3.281,6.146l.274.59.18.388.183-.384a47.958,47.958,0,0,0,2.413-6.11c.25-.8.429-1.443.54-1.893a2.521,2.521,0,0,0,.129-.709c-.055-.016-.364.954-.929,2.514s-1.4,3.7-2.515,6.026l.364,0-.276-.6a50.836,50.836,0,0,0-3.4-6.124c-.49-.752-.909-1.344-1.21-1.746a2.891,2.891,0,0,0-.5-.6" transform="translate(1010.127 3276.187)" fill="#1a2e35"/>
        <path id="Trazado_238074" data-name="Trazado 238074" d="M199.8,86.624a1.972,1.972,0,0,0,.4.238l1.169.611,4.308,2.232c3.634,1.89,8.611,4.583,14.126,7.529,3.358,1.79,6.539,3.448,9.307,4.833l.255.128,0-.283c.036-3.59.064-6.614.086-8.8,0-1.028,0-1.858,0-2.481a5.255,5.255,0,0,0-.04-.88,5.51,5.51,0,0,0-.071.879c-.023.623-.055,1.451-.094,2.479-.058,2.187-.137,5.21-.231,8.8l.259-.155c-2.752-1.409-5.922-3.08-9.279-4.869-5.513-2.945-10.516-5.6-14.186-7.428-1.833-.916-3.328-1.635-4.368-2.119l-1.2-.544a2.022,2.022,0,0,0-.432-.165" transform="translate(1006.27 3275.834)" fill="#1a2e35"/>
        <path id="Trazado_238075" data-name="Trazado 238075" d="M246.746,94.816c-.058.036.4.8.979,2.111a23.3,23.3,0,0,1,2,10.878c-.081,1.429-.23,2.309-.165,2.321a1.922,1.922,0,0,0,.181-.6,13.957,13.957,0,0,0,.267-1.7,20.192,20.192,0,0,0-2.027-11.021,13.97,13.97,0,0,0-.852-1.489c-.226-.337-.361-.516-.384-.5" transform="translate(1013.353 3277.07)" fill="#1a2e35"/>
        <path id="Trazado_238076" data-name="Trazado 238076" d="M227.827,104c.059.094.715-.214,1.464-.687s1.309-.932,1.249-1.027-.714.214-1.464.687-1.307.932-1.249,1.027" transform="translate(1010.498 3278.194)" fill="#1a2e35"/>
        <path id="Trazado_238077" data-name="Trazado 238077" d="M226.75,103.243a19.135,19.135,0,0,0,1.753-3.489,19.1,19.1,0,0,0,1.384-3.652,19.127,19.127,0,0,0-1.753,3.491,19.176,19.176,0,0,0-1.385,3.651" transform="translate(1010.335 3277.264)" fill="#1a2e35"/>
        <path id="Trazado_238078" data-name="Trazado 238078" d="M177.777,97.745s-8.943,6.437-10.061,9.993-5.869,61.351-6.708,68.227S159.33,195.7,164.64,199.89s16.769,7.337,16.769,7.337L192,185.358l-5.607-11.739L192,129.725Z" transform="translate(1000.324 3277.512)" fill="#dee9f0"/>
        <path id="Trazado_238079" data-name="Trazado 238079" d="M176.437,202.487a2.79,2.79,0,0,1,.572-.043,13.708,13.708,0,0,0,1.646-.1,12.194,12.194,0,0,0,5.721-2.07,15.662,15.662,0,0,0,5.457-7.469,34.279,34.279,0,0,0,2.07-11.764l.049.15c-2.543-3.522-5.322-7.366-8.214-11.371l-.064-.09.014-.109c.037-.292.077-.608.117-.924,1.58-12.31,3.011-23.45,4.055-31.579.519-4,.941-7.253,1.241-9.567q.216-1.633.342-2.6a6.123,6.123,0,0,1,.131-.906.7.7,0,0,1,.01.232c0,.153-.008.384-.03.685q-.086.972-.236,2.614c-.226,2.268-.592,5.545-1.065,9.591-.945,8.093-2.319,19.264-3.891,31.6-.04.316-.081.632-.117.924l-.051-.2,8.187,11.389.052.071v.079a34.255,34.255,0,0,1-2.182,11.937,15.861,15.861,0,0,1-5.691,7.577,11.048,11.048,0,0,1-3.26,1.509l-.732.2-.691.12a7.633,7.633,0,0,1-1.206.143,10.687,10.687,0,0,1-1.663.021,2.761,2.761,0,0,1-.571-.047" transform="translate(1002.746 3281.479)" fill="#1a2e35"/>
        <path id="Trazado_238080" data-name="Trazado 238080" d="M167.047,167.779a9.327,9.327,0,0,1,2.348-1.669,21.909,21.909,0,0,1,13.492-2.622,9.311,9.311,0,0,1,2.8.669c-.014.2-4.363-.956-9.651.108-5.3.992-8.9,3.69-8.989,3.514" transform="translate(1001.329 3287.404)" fill="#1a2e35"/>
        <path id="Trazado_238081" data-name="Trazado 238081" d="M233.995,126.42h0c.031,0,.51,1.919,1.327,5.306a23.886,23.886,0,0,1,6.894-6.6l-.035.007S255.99,111.421,260.4,97c3.2-10.47,2.4-22.066,2.4-22.066-.129-.554-1.206-5.471-2.085-9.495a6.3,6.3,0,0,1,4.554-7.423c6.856-1.847,25.418-5.46,29.675,7.007,6.352,18.6-3.918,38.692-3.807,44.441.022,1.085.038,1.966.052,2.68,5.441-1.259,9.663-2.166,9.683-2.075l-.006,0,35.739-8.338s11.809-3.575,15.859,8.531-9.69,16.13-9.69,16.13,6.459-.285,8.213,10.725S340.938,151.7,340.938,151.7s7.232-.465,9.1,9.293c1.822,9.5-9.984,15.225-10.615,15.523a22.992,22.992,0,0,1,2.847-.534,16.065,16.065,0,0,1-2.165.623c5.5.7,6.3,7.26,6.3,7.26,3.548,13.447-6.8,16.272-6.8,16.272l-65.251,15.239a37.564,37.564,0,0,1-19.672-.714c.625,2.779.963,4.346.937,4.354h0l-45.576,10.643c-.1.023-5.02-20.688-10.991-46.255s-10.733-46.32-10.634-46.343Z" transform="translate(1004.553 3271.224)" fill="#ff735d"/>
        <g id="Grupo_177400" data-name="Grupo 177400" transform="translate(1192.971 3327.294)" opacity="0.3">
          <g id="Grupo_177399" data-name="Grupo 177399" transform="translate(0 0)">
            <g id="Grupo_177398" data-name="Grupo 177398" clip-path="url(#clip-path-7)">
              <path id="Trazado_238082" data-name="Trazado 238082" d="M233.995,126.42h0c.031,0,.51,1.919,1.327,5.306a23.886,23.886,0,0,1,6.894-6.6l-.035.007S255.99,111.421,260.4,97c3.2-10.47,2.4-22.066,2.4-22.066-.129-.554-1.206-5.471-2.085-9.495a6.3,6.3,0,0,1,4.554-7.423c6.856-1.847,25.418-5.46,29.675,7.007,6.352,18.6-3.918,38.692-3.807,44.441.022,1.085.038,1.966.052,2.68,5.441-1.259,9.663-2.166,9.683-2.075l-.006,0,35.739-8.338s11.809-3.575,15.859,8.531-9.69,16.13-9.69,16.13,6.459-.285,8.213,10.725S340.938,151.7,340.938,151.7s7.232-.465,9.1,9.293c1.822,9.5-9.984,15.225-10.615,15.523a22.992,22.992,0,0,1,2.847-.534,16.065,16.065,0,0,1-2.165.623c5.5.7,6.3,7.26,6.3,7.26,3.548,13.447-6.8,16.272-6.8,16.272l-65.251,15.239a37.564,37.564,0,0,1-19.672-.714c.625,2.779.963,4.346.937,4.354h0l-45.576,10.643c-.1.023-5.02-20.688-10.991-46.255s-10.733-46.32-10.634-46.343Z" transform="translate(-188.418 -56.07)" fill="#ececec"/>
            </g>
          </g>
        </g>
        <path id="Trazado_238083" data-name="Trazado 238083" d="M235.792,133.794l-.884,5.925,14.57,62.387a37.569,37.569,0,0,0,29.328,5.289l65.252-15.24s10.352-2.825,6.8-16.271c0,0-.853-7.142-7.015-7.335,0,0,12.517-5.777,10.646-15.537s-9.1-9.293-9.1-9.293,11.808-3.573,10.053-14.583-8.215-10.725-8.215-10.725,13.743-4.025,9.692-16.131S341.06,93.75,341.06,93.75l-46.411,10.83-40.684,9.5a23.86,23.86,0,0,0-18.172,19.714" transform="translate(1011.567 3276.835)" fill="#fdb74d"/>
        <path id="Trazado_238084" data-name="Trazado 238084" d="M245.1,122.883s13.808-13.716,18.218-28.139c3.2-10.471,2.4-22.066,2.4-22.066-.129-.554-1.206-5.471-2.085-9.495a6.3,6.3,0,0,1,4.554-7.423c6.855-1.847,19.225,1.559,23.484,14.027,6.352,18.6,2.274,31.672,2.385,37.42l.111,5.749Z" transform="translate(1013.104 3271.107)" fill="#fdb74d"/>
        <rect id="Rectángulo_101702" data-name="Rectángulo 101702" width="46.803" height="95.089" transform="translate(1204.438 3405.917) rotate(-13.145)" fill="#fdb74d"/>
        <g id="Grupo_177403" data-name="Grupo 177403" transform="translate(1250.012 3395.273)" style="mix-blend-mode: soft-light;isolation: isolate">
          <g id="Grupo_177402" data-name="Grupo 177402" transform="translate(0 0)">
            <g id="Grupo_177401" data-name="Grupo 177401" clip-path="url(#clip-path-8)">
              <path id="Trazado_238085" data-name="Trazado 238085" d="M259.608,207.735c.1-.023-4.662-20.772-10.633-46.339s-10.893-46.282-10.992-46.259,4.661,20.768,10.634,46.343,10.892,46.278,10.991,46.255" transform="translate(-237.981 -115.137)" fill="#fff"/>
            </g>
          </g>
        </g>
        <path id="Trazado_238086" data-name="Trazado 238086" d="M220.007,216.983c.1-.023-4.662-20.772-10.633-46.339s-10.894-46.282-10.992-46.259,4.661,20.768,10.634,46.343,10.892,46.278,10.991,46.255" transform="translate(1006.056 3281.531)" fill="#1a2e35"/>
        <path id="Trazado_238087" data-name="Trazado 238087" d="M230.57,137.706a8.757,8.757,0,1,1-10.52-6.537,8.758,8.758,0,0,1,10.52,6.537" transform="translate(1008.305 3282.52)" fill="#fff"/>
        <path id="Trazado_238088" data-name="Trazado 238088" d="M299,100.929c-.023-.1-5.011.982-11.139,2.413s-11.079,2.671-11.056,2.77,5.01-.982,11.139-2.413,11.079-2.671,11.056-2.77" transform="translate(1017.889 3277.991)" fill="#1a2e35"/>
        <path id="Trazado_238089" data-name="Trazado 238089" d="M333.657,137.3a72.3,72.3,0,0,0-7.135,1.478,72.391,72.391,0,0,0-7.051,1.836,72.373,72.373,0,0,0,7.135-1.478,72.4,72.4,0,0,0,7.051-1.836" transform="translate(1024.326 3283.478)" fill="#1a2e35"/>
        <path id="Trazado_238090" data-name="Trazado 238090" d="M335.878,114.737c-.023-.1-4.549.875-10.109,2.173s-10.051,2.432-10.028,2.53,4.549-.874,10.11-2.173,10.049-2.431,10.026-2.53" transform="translate(1023.763 3280.075)" fill="#1a2e35"/>
        <path id="Trazado_238091" data-name="Trazado 238091" d="M334.707,158.2c-.023-.1-4.549.875-10.109,2.173s-10.051,2.432-10.028,2.53,4.549-.873,10.11-2.173,10.049-2.431,10.026-2.53" transform="translate(1023.586 3286.633)" fill="#1a2e35"/>
        <g id="Grupo_177406" data-name="Grupo 177406" transform="translate(1280.353 3329.701)" opacity="0.3">
          <g id="Grupo_177405" data-name="Grupo 177405" transform="translate(0 0)">
            <g id="Grupo_177404" data-name="Grupo 177404" clip-path="url(#clip-path-9)">
              <path id="Trazado_238092" data-name="Trazado 238092" d="M265.671,59.914c-1.418,1.324-1.581,3.563-1.044,5.426a34.7,34.7,0,0,0,2.49,5.248,19.732,19.732,0,0,1,1.525,12.542c-.271,1.282-.626,2.766.194,3.785,1.165,1.447,3.514.643,4.983-.49a18.633,18.633,0,0,0,6.53-18.835,13.1,13.1,0,0,0-4.6-7.4c-2.379-1.768-6.037-3.371-10.079-.272" transform="translate(-264.344 -58.161)" fill="#fff"/>
            </g>
          </g>
        </g>
        <g id="Grupo_177409" data-name="Grupo 177409" transform="translate(1315.688 3372.09)" opacity="0.3">
          <g id="Grupo_177408" data-name="Grupo 177408" transform="translate(0 0)">
            <g id="Grupo_177407" data-name="Grupo 177407" clip-path="url(#clip-path-10)">
              <path id="Trazado_238093" data-name="Trazado 238093" d="M336.256,95.1a11.214,11.214,0,0,0-4.82.5l-27.542,7c-3,.763-8.637,1.442-8.694,4.507-.608,1.673.666,3.564,2.31,4.249a9.722,9.722,0,0,0,5.266.2c3.684-.589,7.318-1.447,10.947-2.313,7.291-1.741,14.6-3.538,21.526-6.415a10.034,10.034,0,0,0,2.9-1.63,3.727,3.727,0,0,0,1.364-2.921,3.832,3.832,0,0,0-3.254-3.166" transform="translate(-295.047 -94.993)" fill="#fff"/>
            </g>
          </g>
        </g>
        <path id="Trazado_238094" data-name="Trazado 238094" d="M232.905,119.6c-.023-.1-6.41,1.309-14.265,3.143s-14.205,3.4-14.182,3.5,6.409-1.309,14.266-3.144,14.2-3.4,14.181-3.5" transform="translate(1006.973 3280.809)" fill="#fff"/>
        <path id="Trazado_238095" data-name="Trazado 238095" d="M336.669,130.349a1.716,1.716,0,0,0,.181-.539,8.091,8.091,0,0,0,.236-1.531,10.988,10.988,0,0,0-.083-2.3,11.772,11.772,0,0,0-2.085-5.2,11.07,11.07,0,0,0-1.53-1.722,8.179,8.179,0,0,0-1.228-.944,1.745,1.745,0,0,0-.5-.265c-.039.058.642.491,1.55,1.4a12.364,12.364,0,0,1,1.432,1.727,12.52,12.52,0,0,1,2.029,5.06,12.34,12.34,0,0,1,.157,2.238c-.031,1.282-.224,2.066-.157,2.081" transform="translate(1026.164 3280.544)" fill="#fff"/>
        <path id="Trazado_238096" data-name="Trazado 238096" d="M337.2,108.181a3.375,3.375,0,0,0,.859-1.226,7.239,7.239,0,0,0-.456-6.983,3.372,3.372,0,0,0-1.012-1.1c-.048.045.345.458.789,1.238a7.844,7.844,0,0,1,.441,6.744c-.338.832-.676,1.292-.621,1.33" transform="translate(1026.907 3277.681)" fill="#fff"/>
        <path id="Trazado_238097" data-name="Trazado 238097" d="M334.2,153.457a3.571,3.571,0,0,0,1.226-1.21,6.228,6.228,0,0,0-.475-7.806,3.561,3.561,0,0,0-1.365-1.052c-.038.053.518.412,1.167,1.22a6.381,6.381,0,0,1,.457,7.5c-.546.88-1.054,1.305-1.009,1.352" transform="translate(1026.455 3284.398)" fill="#fff"/>
        <path id="Trazado_238098" data-name="Trazado 238098" d="M330.579,174.4a3.747,3.747,0,0,0,.826-1.3,8.215,8.215,0,0,0-.314-7.232,3.7,3.7,0,0,0-.936-1.22c-.051.039.306.5.706,1.338a9.046,9.046,0,0,1,.3,7.015c-.326.868-.641,1.361-.587,1.4" transform="translate(1025.937 3287.607)" fill="#fff"/>
        <path id="Trazado_238099" data-name="Trazado 238099" d="M286.674,90.35a6.031,6.031,0,0,0,.273-1.054c.079-.342.167-.762.235-1.256s.177-1.053.224-1.679a32.6,32.6,0,0,0,.162-4.407,33.688,33.688,0,0,0-2.047-10.573,32.411,32.411,0,0,0-1.8-4.028c-.277-.564-.583-1.044-.834-1.474s-.484-.79-.687-1.076a6.2,6.2,0,0,0-.646-.877,6.074,6.074,0,0,0,.525.953c.183.3.4.664.631,1.1s.52.922.781,1.489A36.542,36.542,0,0,1,285.2,71.5a35.737,35.737,0,0,1,2.027,10.472,36.4,36.4,0,0,1-.082,4.371c-.031.623-.116,1.18-.169,1.672s-.115.915-.173,1.259a6.337,6.337,0,0,0-.132,1.081" transform="translate(1018.605 3272.41)" fill="#fff"/>
        <path id="Trazado_238100" data-name="Trazado 238100" d="M196.669,182.263s3.584-2.775,6.243-2.89,6.127.924,6.821.578,2.312-1.868,3.353-.587,2.312,5.905-3.237,7.177h-3.815s.463,3.815,1.387,5.318,13.874,17.8,13.874,17.8,1.618,1.618.809,3.237-4.278.694-4.278.694-2.427,2.2-5.2,1.155a19.5,19.5,0,0,1-3.931-1.849,5.142,5.142,0,0,1-6.242,0c-3.237-2.428-14.031-15.956-14.031-15.956l3.858-15.144Z" transform="translate(1004.553 3289.75)" fill="#c27460"/>
        <path id="Trazado_238101" data-name="Trazado 238101" d="M187.59,174.043l11.237,8.947-8.252,14.682L174.121,191.7s.473-17.34,13.469-17.654" transform="translate(1002.396 3289.023)" fill="#c27460"/>
        <path id="Trazado_238102" data-name="Trazado 238102" d="M338.872,157.108s-.356-4.023-2.6-3.2-3.2,5.563-3.2,5.563Z" transform="translate(1026.378 3285.969)" fill="#c27460"/>
        <path id="Trazado_238103" data-name="Trazado 238103" d="M331.227,160.652s3.9-4.379,9.35-4.023,2.012,4.971,2.012,4.971,4.028,2.485,1.067,6.035l-.475.947s3.432,1.3-.119,4.971a3.613,3.613,0,0,1-.473,4.142c-1.776,1.776-6.214-.592-6.214-.592s-4.083.947-4.438-.71a3.159,3.159,0,0,1,.947-3.077c.354-.236,2.485-1.065,2.485-1.065s-4.734.592-4.852-.592-.592-2.486,2.959-3.669l1.893-.508s-4.908.152-4.94-1.031-.268-1.657,1.508-2.486a27.036,27.036,0,0,0,3.195-1.775s-4.615.947-3.9-1.539" transform="translate(1025.975 3286.393)" fill="#c27460"/>
        <path id="Trazado_238104" data-name="Trazado 238104" d="M330.363,164.658a16.745,16.745,0,0,1,12.414-3.509,5.27,5.27,0,0,0-1.933-.415,13.383,13.383,0,0,0-9.051,2.558,5.312,5.312,0,0,0-1.431,1.366" transform="translate(1025.969 3287.008)" fill="#7c4236"/>
        <path id="Trazado_238105" data-name="Trazado 238105" d="M330.918,170.673c.028-.033-.115-.15-.228-.422a1.838,1.838,0,0,1,.01-1.23,2.783,2.783,0,0,1,1.071-1.486,6.194,6.194,0,0,1,2.165-.9,49.792,49.792,0,0,1,6.2-.747,5.446,5.446,0,0,0-1.849-.2,18.925,18.925,0,0,0-4.468.478,6.134,6.134,0,0,0-2.317,1.015,3,3,0,0,0-1.138,1.759,1.865,1.865,0,0,0,.154,1.406c.192.292.387.354.4.335" transform="translate(1025.96 3287.761)" fill="#7c4236"/>
        <path id="Trazado_238106" data-name="Trazado 238106" d="M332.749,175.212c.012-.038-.17-.106-.411-.333a2.009,2.009,0,0,1,.1-2.962,8.094,8.094,0,0,1,2.322-1.076,15.52,15.52,0,0,1,4.742-.25,5.877,5.877,0,0,0,2.02-.107,14.408,14.408,0,0,0-2-.236,13.063,13.063,0,0,0-4.9.124,7.758,7.758,0,0,0-2.476,1.2,2.166,2.166,0,0,0-.694,1.062,2.559,2.559,0,0,0-.051,1.088,1.973,1.973,0,0,0,.811,1.3c.31.2.525.211.529.184" transform="translate(1026.121 3288.424)" fill="#7c4236"/>
        <path id="Trazado_238107" data-name="Trazado 238107" d="M331.061,160.879c.036,0,.1-.15.348-.371a10.464,10.464,0,0,1,1.077-.875,15.388,15.388,0,0,1,4.011-2.157,10.342,10.342,0,0,1,4.471-.649,17.193,17.193,0,0,1,1.82.52,3.228,3.228,0,0,0-1.757-.859,9.323,9.323,0,0,0-4.676.521c-3.538,1.269-5.587,3.708-5.293,3.868" transform="translate(1026.07 3286.356)" fill="#7c4236"/>
      </g>
    </g>
  </g>
</svg>
