<svg id="Grupo_178389" data-name="Grupo 178389" xmlns="http://www.w3.org/2000/svg" xmlns:xlink="http://www.w3.org/1999/xlink" width="315.641" height="178" viewBox="0 0 315.641 178">
  <defs>
    <clipPath id="clip-path">
      <rect id="Rectángulo_102212" data-name="Rectángulo 102212" width="315.641" height="178" fill="none"/>
    </clipPath>
    <clipPath id="clip-path-3">
      <rect id="Rectángulo_102201" data-name="Rectángulo 102201" width="297.405" height="150.125" transform="translate(8.867 8.605)" fill="none"/>
    </clipPath>
    <clipPath id="clip-path-4">
      <rect id="Rectángulo_102202" data-name="Rectángulo 102202" width="45.138" height="45.138" transform="translate(14.028 121.581)" fill="none"/>
    </clipPath>
    <clipPath id="clip-path-5">
      <rect id="Rectángulo_102203" data-name="Rectángulo 102203" width="41.552" height="41.551" transform="translate(256.993 124.567)" fill="none"/>
    </clipPath>
    <clipPath id="clip-path-6">
      <rect id="Rectángulo_102204" data-name="Rectángulo 102204" width="8.469" height="7.308" transform="translate(166.083 144.803)" fill="none"/>
    </clipPath>
    <clipPath id="clip-path-7">
      <rect id="Rectángulo_102205" data-name="Rectángulo 102205" width="12.856" height="8.416" transform="translate(175.838 132.86)" fill="none"/>
    </clipPath>
    <clipPath id="clip-path-8">
      <rect id="Rectángulo_102206" data-name="Rectángulo 102206" width="12.067" height="8.667" transform="translate(184.927 122.176)" fill="none"/>
    </clipPath>
    <clipPath id="clip-path-9">
      <rect id="Rectángulo_102207" data-name="Rectángulo 102207" width="7.145" height="9.325" transform="translate(124.138 131.551)" fill="none"/>
    </clipPath>
    <clipPath id="clip-path-10">
      <rect id="Rectángulo_102208" data-name="Rectángulo 102208" width="7.214" height="10.157" transform="translate(134.999 138.3)" fill="none"/>
    </clipPath>
    <clipPath id="clip-path-11">
      <rect id="Rectángulo_102209" data-name="Rectángulo 102209" width="5.885" height="8.193" transform="translate(147.014 145.343)" fill="none"/>
    </clipPath>
    <clipPath id="clip-path-12">
      <rect id="Rectángulo_102210" data-name="Rectángulo 102210" width="108.267" height="104.46" fill="none"/>
    </clipPath>
  </defs>
  <g id="Grupo_178451" data-name="Grupo 178451" clip-path="url(#clip-path)">
    <g id="Grupo_178450" data-name="Grupo 178450">
      <g id="Grupo_178449" data-name="Grupo 178449" clip-path="url(#clip-path)">
        <path id="Trazado_241244" data-name="Trazado 241244" d="M49.742,141.924a88.856,88.856,0,0,1-14.876-11.941C3.56,99.625,15.7,68.683,19.764,59.141c6.562-15.4,11.357-28.449,31-38.447C95.387-2.024,249.889,10.235,271.427,30.907c21.556,20.689,27.324,38.9,29.2,58.826.122.792.181,1.38.24,1.895.555,4.988,3.132,35.833-36.437,57.713-8.257,4.656-18.706,8.772-31.056,12.232C177.684,176.719,93.784,170.2,49.742,141.924" fill="#e5e1f1"/>
        <g id="Grupo_178421" data-name="Grupo 178421" opacity="0.61">
          <g id="Grupo_178420" data-name="Grupo 178420">
            <g id="Grupo_178419" data-name="Grupo 178419" clip-path="url(#clip-path-3)">
              <path id="Trazado_241245" data-name="Trazado 241245" d="M303.7,10.083a3.772,3.772,0,0,1,.414.074,2.687,2.687,0,0,1,1.748,4.106,4.934,4.934,0,0,1-5.2,2.449,92.227,92.227,0,0,0-21-2.326,109.494,109.494,0,0,0-22.061,2.23l-1.383.276-1.377.318c-.918.206-1.832.441-2.745.679q-2.739.7-5.438,1.571c-.9.279-1.789.6-2.683.9s-1.771.649-2.655.97c-.873.356-1.75.685-2.615,1.065s-1.728.737-2.57,1.141-1.694.786-2.522,1.212c-.414.211-.832.414-1.24.632l-1.219.66c-.82.427-1.595.912-2.392,1.363-.777.475-1.553.949-2.308,1.439s-1.508.986-2.22,1.512c-.358.261-.724.513-1.078.777l-1.038.8c-.175.135-.35.262-.52.4l-.511.428-1.021.855c-.658.594-1.327,1.17-1.962,1.778A85.485,85.485,0,0,0,204.9,51.521c-3.793,5.846-7.122,12.036-10.57,18.47-1.729,3.217-3.466,6.5-5.332,9.849-.921,1.673-1.9,3.361-2.9,5.06-.514.853-1.014,1.705-1.548,2.564l-1.556,2.5c-4,6.4-8.213,12.975-13.023,19.589A165.408,165.408,0,0,1,153.2,129.4a117.317,117.317,0,0,1-10.836,9.6,101.37,101.37,0,0,1-13.088,8.682c-2.377,1.317-4.847,2.552-7.39,3.682-1.27.569-2.562,1.1-3.867,1.616-.652.253-1.284.5-1.967.743s-1.367.488-2.054.711a82.408,82.408,0,0,1-16.655,3.692c-1.39.157-2.776.287-4.157.366-.731.048-1.283.066-1.9.1l-1.813.084c-1.211.051-2.427.061-3.642.062s-2.435-.042-3.655-.07a86.7,86.7,0,0,1-14.52-1.755,73.268,73.268,0,0,1-13.734-4.266,67.458,67.458,0,0,1-30.011-24.878,86.123,86.123,0,0,1-10.384-21.486A103.323,103.323,0,0,1,10.5,94.841c-.4-1.956-.741-3.938-1.028-5.988-.139-1.028-.272-2.069-.381-3.161-.055-.548-.1-1.1-.145-1.7l-.054-.932-.019-.524-.005-.318.008-.475c1.016-15.577,16.5-30.211,34.581-32.682S75.37,57.219,74.354,72.8l-.01-.167c-.005-.04-.011-.019-.011-.019l-.013.008c-.013,0-.028.057-.043.087a2.777,2.777,0,0,0-.089.295c-.064.219-.118.483-.172.746-.11.534-.211,1.112-.3,1.7-.171,1.182-.311,2.409-.41,3.639a61.733,61.733,0,0,0-.179,7.387,52.586,52.586,0,0,0,2.149,13.651,32.9,32.9,0,0,0,5.528,10.816,24.057,24.057,0,0,0,4.1,4.1,26.564,26.564,0,0,0,5.186,3.2,34.061,34.061,0,0,0,6.409,2.277c.6.129,1.187.284,1.8.409.625.108,1.239.245,1.879.345l1.862.283c.485.085.987.143,1.483.2a26.7,26.7,0,0,0,6.2-.111c.265-.031.528-.074.793-.114l.862-.158c.58-.115,1.164-.239,1.752-.39,1.177-.295,2.377-.653,3.6-1.086a61.881,61.881,0,0,0,15.491-8.539q1.995-1.438,3.961-3.043t3.916-3.336c2.6-2.3,5.166-4.76,7.7-7.324,5.079-5.129,10.011-10.679,15-16.449l1.787-2.072c.576-.668,1.143-1.359,1.722-2.044,1.142-1.389,2.282-2.794,3.418-4.243,2.274-2.883,4.543-5.876,6.837-8.929,4.6-6.1,9.375-12.454,14.868-18.662a113.024,113.024,0,0,1,18.95-17.42c.893-.647,1.822-1.259,2.734-1.88.943-.6,1.85-1.2,2.819-1.784l1.437-.876c.483-.284.972-.553,1.456-.829.964-.56,1.956-1.058,2.932-1.571a96.422,96.422,0,0,1,11.96-5.045A129.23,129.23,0,0,1,257.7,10.167a161.554,161.554,0,0,1,23.382-1.559,199.488,199.488,0,0,1,22.6,1.47Z" fill="#fdb74d"/>
            </g>
          </g>
        </g>
        <g id="Grupo_178424" data-name="Grupo 178424" opacity="0.7" style="isolation: isolate">
          <g id="Grupo_178423" data-name="Grupo 178423">
            <g id="Grupo_178422" data-name="Grupo 178422" clip-path="url(#clip-path-4)">
              <path id="Trazado_241246" data-name="Trazado 241246" d="M44.9,165.128a22.563,22.563,0,1,1,12.674-29.284A22.564,22.564,0,0,1,44.9,165.128" fill="#5038a1"/>
            </g>
          </g>
        </g>
        <path id="Trazado_241247" data-name="Trazado 241247" d="M36.508,157.986a7.521,7.521,0,1,1,4.225-9.761A7.521,7.521,0,0,1,36.508,157.986Z" fill="none" stroke="#fff" stroke-width="1.962"/>
        <path id="Trazado_241248" data-name="Trazado 241248" d="M95.6,172.223a4.578,4.578,0,1,1,2.571-5.942,4.579,4.579,0,0,1-2.571,5.942" fill="#fdb74d"/>
        <path id="Trazado_241249" data-name="Trazado 241249" d="M95.24,171.311a3.6,3.6,0,1,1,2.02-4.668,3.6,3.6,0,0,1-2.02,4.668" fill="#fdb74d"/>
        <path id="Trazado_241250" data-name="Trazado 241250" d="M95.24,171.311a3.6,3.6,0,1,1,2.02-4.668A3.6,3.6,0,0,1,95.24,171.311Z" fill="none" stroke="#8c6df2" stroke-width="1.962"/>
        <path id="Trazado_241251" data-name="Trazado 241251" d="M66.969,146.982a2.943,2.943,0,1,1,1.653-3.82,2.944,2.944,0,0,1-1.653,3.82" fill="#fdb74d"/>
        <g id="Grupo_178427" data-name="Grupo 178427" opacity="0.5">
          <g id="Grupo_178426" data-name="Grupo 178426">
            <g id="Grupo_178425" data-name="Grupo 178425" clip-path="url(#clip-path-5)">
              <path id="Trazado_241252" data-name="Trazado 241252" d="M298.544,145.343a20.775,20.775,0,1,0-20.776,20.776,20.776,20.776,0,0,0,20.776-20.776" fill="#fdb74d"/>
            </g>
          </g>
        </g>
        <circle id="Elipse_6216" data-name="Elipse 6216" cx="18.162" cy="18.162" r="18.162" transform="translate(259.607 127.181)" fill="none" stroke="#fff" stroke-linecap="round" stroke-width="2.046" stroke-dasharray="1.535 4.093"/>
        <path id="Trazado_241253" data-name="Trazado 241253" d="M80.4,81.267,91.741,51.514l35.369,24.85c2.248,1.348,9.654-.658,13.748-.594a37.9,37.9,0,0,1,7.168.774c-5.184,2.7-9.873,7.133-11.328,10.28a98.547,98.547,0,0,1-3.187,13.661c-.714,2.169.593,4.284,2.63,5.289,3.913.808,7.73,3.759,12.913-12.478a29.083,29.083,0,0,1,4.165-5.03,4.694,4.694,0,0,1,6.01-.379l41.282,30.353c3.93,2.93,3.7,6.647,2.037,8.842a6.26,6.26,0,0,1-8.629,1.906c2.058,2,2.04,5.92.387,8.3a7.139,7.139,0,0,1-9.841,1.795c-.755-.493-.424-.338-.424-.338,2.7,1.879,2.778,6.683.869,9.2a7.34,7.34,0,0,1-9.805,2.222l-1.955-1.422c2.059,2,2.163,6.157-.738,9.057-2.489,2.489-6.232,2.638-9.333.667-.551-.493-43.17-30.531-43.17-30.531s-4.758-3.3-6.537-8.253c0,0-32.332-22.232-39.016-24.022S80.4,81.267,80.4,81.267" fill="#f4bb90"/>
        <path id="Trazado_241254" data-name="Trazado 241254" d="M154.206,72.282c2.648-1.384,5.962-1.529,8.939-1.774a43.248,43.248,0,0,1,15.148,1.613,15.545,15.545,0,0,0,10.466-.925L214,59.618l21.365,38.359-23.982,9.339a21.078,21.078,0,0,0-8.868,9.332l-1.192,2.187-42.1-31a3.533,3.533,0,0,0-4.806.572c-2.149,2.581-5.25,6.79-6.371,10.764-1.786,6.327-8.326,9.465-12.593,7a4.458,4.458,0,0,1-1.943-5.688s1.62-9.52,3.187-13.661c2.061-5.446,10.475-10.871,17.508-14.543" fill="#b2773d"/>
        <path id="Trazado_241255" data-name="Trazado 241255" d="M130.173,122.378c3.845,2.864,1.124,9.155,1.124,9.155s4.355-3.556,8.349-.649c4.426,3.222,2.581,7.4,2.581,7.4a6.121,6.121,0,0,1,8.206-.2c4.219,3.246,2.48,7.245,2.48,7.245s3.131-1.743,6.92,1.05c4.783,3.527,1.187,8.953.205,10.153l-2.209,2.7a6.217,6.217,0,0,1-8.539,1.482,6.343,6.343,0,0,1-2.153-7.342l-.191.287a6.786,6.786,0,0,1-8.156,2.583,6.552,6.552,0,0,1-3.731-7.917,6.668,6.668,0,0,1-8.706,1.052l-.144-.143a6.567,6.567,0,0,1-2.057-8.371,7.1,7.1,0,0,1-10.572-9.376l5.439-7.721c2.491-3.331,6.486-4.86,11.154-1.383" fill="#b2773d"/>
        <g id="Grupo_178430" data-name="Grupo 178430" opacity="0.1">
          <g id="Grupo_178429" data-name="Grupo 178429">
            <g id="Grupo_178428" data-name="Grupo 178428" clip-path="url(#clip-path-6)">
              <path id="Trazado_241256" data-name="Trazado 241256" d="M173.137,148.76s-5.345-3.957-5.982-3.957c-1.035,0-1.552,1.164-.474,1.935,1.012.724,4.964,3.514,4.964,3.514l2.906,1.86a5.3,5.3,0,0,0-1.414-3.352" fill="#1b1a1c"/>
            </g>
          </g>
        </g>
        <g id="Grupo_178433" data-name="Grupo 178433" opacity="0.1">
          <g id="Grupo_178432" data-name="Grupo 178432">
            <g id="Grupo_178431" data-name="Grupo 178431" clip-path="url(#clip-path-7)">
              <path id="Trazado_241257" data-name="Trazado 241257" d="M185.827,141.276l-8.338-5.447c-2.986-1.931-1.171-3.249-.353-2.918s10.8,6.9,11.558,7.4a8.3,8.3,0,0,1-4.243-1.208,5.208,5.208,0,0,1,1.376,2.176" fill="#1b1a1c"/>
            </g>
          </g>
        </g>
        <g id="Grupo_178436" data-name="Grupo 178436" opacity="0.1">
          <g id="Grupo_178435" data-name="Grupo 178435">
            <g id="Grupo_178434" data-name="Grupo 178434" clip-path="url(#clip-path-8)">
              <path id="Trazado_241258" data-name="Trazado 241258" d="M196.994,129.712s-10.654-7.314-10.663-7.319c-1.195-.7-1.912.428-.971,1.442.127.138,9.717,7.008,9.717,7.008a4.8,4.8,0,0,0-1.172-1.836,5.736,5.736,0,0,0,3.089.705" fill="#1b1a1c"/>
            </g>
          </g>
        </g>
        <g id="Grupo_178439" data-name="Grupo 178439" opacity="0.1">
          <g id="Grupo_178438" data-name="Grupo 178438">
            <g id="Grupo_178437" data-name="Grupo 178437" clip-path="url(#clip-path-9)">
              <path id="Trazado_241259" data-name="Trazado 241259" d="M124.138,140.876a24.669,24.669,0,0,1,7.145-9.325s-2.644,6.749-7.145,9.325" fill="#1b1a1c"/>
            </g>
          </g>
        </g>
        <g id="Grupo_178442" data-name="Grupo 178442" opacity="0.1">
          <g id="Grupo_178441" data-name="Grupo 178441">
            <g id="Grupo_178440" data-name="Grupo 178440" clip-path="url(#clip-path-10)">
              <path id="Trazado_241260" data-name="Trazado 241260" d="M135,148.457s2.432-6.3,7.214-10.157c0,0-3.032,7.4-7.214,10.157" fill="#1b1a1c"/>
            </g>
          </g>
        </g>
        <g id="Grupo_178445" data-name="Grupo 178445" opacity="0.1">
          <g id="Grupo_178444" data-name="Grupo 178444">
            <g id="Grupo_178443" data-name="Grupo 178443" clip-path="url(#clip-path-11)">
              <path id="Trazado_241261" data-name="Trazado 241261" d="M147.014,153.536a28.6,28.6,0,0,1,5.885-8.193s-1.907,5.287-5.885,8.193" fill="#1b1a1c"/>
            </g>
          </g>
        </g>
        <path id="Trazado_241262" data-name="Trazado 241262" d="M203.678,60.864l17.865,45.275,13.129-4.3-17.426-46.07Z" fill="#bdccd4"/>
        <path id="Trazado_241263" data-name="Trazado 241263" d="M216.23,53.376l19.68,51.583,79.731-28.867V11.818Z" fill="#5038a1"/>
        <path id="Trazado_241264" data-name="Trazado 241264" d="M227.749,97.833a2.675,2.675,0,1,1-2.675-2.675,2.675,2.675,0,0,1,2.675,2.675" fill="#fff"/>
        <path id="Trazado_241265" data-name="Trazado 241265" d="M118.9,68.393l-27.248,40.33-11.886-7.038,26.991-41.2Z" fill="#cde9ed"/>
        <g id="Grupo_178448" data-name="Grupo 178448" style="isolation: isolate">
          <g id="Grupo_178447" data-name="Grupo 178447">
            <g id="Grupo_178446" data-name="Grupo 178446" clip-path="url(#clip-path-12)">
              <path id="Trazado_241266" data-name="Trazado 241266" d="M108.267,58.364,77.88,104.46,0,63.841.139,0Z" fill="#8c6df2"/>
            </g>
          </g>
        </g>
        <path id="Trazado_241267" data-name="Trazado 241267" d="M87.392,99.27a2.676,2.676,0,1,0,3.191-2.032,2.675,2.675,0,0,0-3.191,2.032" fill="#fff"/>
      </g>
    </g>
  </g>
</svg>
