<svg id="Grupo_179359" data-name="Grupo 179359" xmlns="http://www.w3.org/2000/svg" xmlns:xlink="http://www.w3.org/1999/xlink" width="315" height="261" viewBox="0 0 315 261">
  <defs>
    <clipPath id="clip-path">
      <rect id="Rectángulo_102693" data-name="Rectángulo 102693" width="315" height="261" fill="none"/>
    </clipPath>
    <clipPath id="clip-path-3">
      <rect id="Rectángulo_102665" data-name="Rectángulo 102665" width="212.894" height="203.347" transform="translate(94.919 7.102)" fill="none"/>
    </clipPath>
    <clipPath id="clip-path-4">
      <rect id="Rectángulo_102666" data-name="Rectángulo 102666" width="20.284" height="20.284" transform="translate(9.413 204.873)" fill="none"/>
    </clipPath>
    <clipPath id="clip-path-5">
      <rect id="Rectángulo_102667" data-name="Rectángulo 102667" width="40.586" height="40.586" transform="translate(12.109 7.876)" fill="none"/>
    </clipPath>
    <clipPath id="clip-path-6">
      <rect id="Rectángulo_102668" data-name="Rectángulo 102668" width="80.304" height="73.284" transform="translate(196.638 100.517)" fill="none"/>
    </clipPath>
    <clipPath id="clip-path-7">
      <path id="Trazado_242023" data-name="Trazado 242023" d="M240.68,252.637a.584.584,0,0,0,.476.878,139.284,139.284,0,0,0,15.58-.016.82.82,0,0,0,.78-.774c0-.079.006-.163.007-.252a11.465,11.465,0,0,1-4.548.445c-3.967-.175-9-.581-11.9-.833a4.7,4.7,0,0,0-.4.552" fill="none"/>
    </clipPath>
    <linearGradient id="linear-gradient" x1="-14.089" y1="4.86" x2="-14.03" y2="4.86" gradientUnits="objectBoundingBox">
      <stop offset="0" stop-color="#09005d"/>
      <stop offset="1" stop-color="#1a0f91"/>
    </linearGradient>
    <clipPath id="clip-path-8">
      <path id="Trazado_242024" data-name="Trazado 242024" d="M252.975,246.231s-9.049,2.357-11.9,5.854c2.9.252,7.932.658,11.9.833a11.465,11.465,0,0,0,4.548-.445,10.714,10.714,0,0,0-1.993-6.242Z" fill="none"/>
    </clipPath>
    <linearGradient id="linear-gradient-2" x1="-16.89" y1="1.141" x2="-16.82" y2="1.141" gradientUnits="objectBoundingBox">
      <stop offset="0" stop-color="#4f52ff"/>
      <stop offset="1" stop-color="#4042e2"/>
    </linearGradient>
    <clipPath id="clip-path-9">
      <path id="Trazado_242025" data-name="Trazado 242025" d="M251.193,242.059l.826,4.607a1.279,1.279,0,0,0,.86.982,4.2,4.2,0,0,0,1.919.16,1.083,1.083,0,0,0,.924-1.017l.238-4.732Z" fill="none"/>
    </clipPath>
    <linearGradient id="linear-gradient-3" x1="-52.694" y1="3.248" x2="-52.484" y2="3.248" gradientUnits="objectBoundingBox">
      <stop offset="0" stop-color="#febbba"/>
      <stop offset="1" stop-color="#ff928e"/>
    </linearGradient>
    <clipPath id="clip-path-10">
      <path id="Trazado_242026" data-name="Trazado 242026" d="M289.153,252.882c-2.1.292-3.426.238-4.374-.231l.007.01a3.031,3.031,0,0,0,2.286,1.053,7.176,7.176,0,0,0,3.049-.476,1.636,1.636,0,0,0,1.1-1.864l-.005-.018a2.3,2.3,0,0,1-2.065,1.526" fill="none"/>
    </clipPath>
    <linearGradient id="linear-gradient-4" x1="-42.966" y1="4.026" x2="-42.815" y2="4.026" xlink:href="#linear-gradient"/>
    <clipPath id="clip-path-11">
      <path id="Trazado_242027" data-name="Trazado 242027" d="M285.332,242.028h-2.107a2.659,2.659,0,0,0-1.453,3.047,20.125,20.125,0,0,0,3.007,7.576c.948.469,2.277.523,4.374.231a2.3,2.3,0,0,0,2.065-1.526c-.657-2.61-2.656-9.329-5.84-9.328h-.046" fill="none"/>
    </clipPath>
    <linearGradient id="linear-gradient-5" x1="-20.007" y1="1.511" x2="-19.935" y2="1.511" xlink:href="#linear-gradient-2"/>
    <clipPath id="clip-path-12">
      <path id="Trazado_242028" data-name="Trazado 242028" d="M280.571,238.708l1.719,4.9a1.056,1.056,0,0,0,.861.7,4.486,4.486,0,0,0,2.423-.587,1.263,1.263,0,0,0,.658-1.431l-1.171-4.655Z" fill="none"/>
    </clipPath>
    <linearGradient id="linear-gradient-6" x1="-48.341" y1="3.447" x2="-48.169" y2="3.447" xlink:href="#linear-gradient-3"/>
    <clipPath id="clip-path-13">
      <path id="Trazado_242029" data-name="Trazado 242029" d="M241.47,178.591a263.732,263.732,0,0,1,8.711,64.759s3.629,1.242,6.444,0c0,0,2.066-34.213-.4-49.666,0,0,6.979,5.816,24.037,46.759,0,0,4.736-.17,6.192-1.462,0,0-15.714-50.683-25.324-66.178-2,1.584-8.134,5.529-19.663,5.788" fill="none"/>
    </clipPath>
    <linearGradient id="linear-gradient-7" x1="-2.704" y1="1.298" x2="-2.692" y2="1.298" xlink:href="#linear-gradient"/>
    <clipPath id="clip-path-14">
      <path id="Trazado_242030" data-name="Trazado 242030" d="M226,136.733s7.982,16.4,14.855,42.057a1.321,1.321,0,0,0,1.329.988,51.422,51.422,0,0,0,19.618-5.439.741.741,0,0,0,.3-1.042c-1.41-2.363-3.153-5.825-3.009-8.323.514-8.887,1.3-28.37-.886-39.256a46.031,46.031,0,0,0-5.385-.28c-7.451,0-20.678,1.486-26.821,11.295" fill="none"/>
    </clipPath>
    <linearGradient id="linear-gradient-8" x1="-3.31" y1="2.499" x2="-3.295" y2="2.499" gradientUnits="objectBoundingBox">
      <stop offset="0" stop-color="#e1473d"/>
      <stop offset="1" stop-color="#e9605a"/>
    </linearGradient>
    <clipPath id="clip-path-15">
      <path id="Trazado_242031" data-name="Trazado 242031" d="M248.037,186.267a.546.546,0,0,0,.255.729,16.34,16.34,0,0,1,6.3,5.456.547.547,0,0,0,.934-.568,17.148,17.148,0,0,0-6.765-5.872.54.54,0,0,0-.237-.054.546.546,0,0,0-.492.309" fill="none"/>
    </clipPath>
    <linearGradient id="linear-gradient-9" x1="-26.322" y1="7.745" x2="-26.216" y2="7.745" xlink:href="#linear-gradient-2"/>
    <clipPath id="clip-path-16">
      <path id="Trazado_242032" data-name="Trazado 242032" d="M264.188,156.406a48.651,48.651,0,0,1-.785,15.748l1.575,1.283a37.435,37.435,0,0,0,6.916-16.477,22.886,22.886,0,0,0-5.43-.757,11.912,11.912,0,0,0-2.276.2" fill="none"/>
    </clipPath>
    <linearGradient id="linear-gradient-10" x1="-23.261" y1="5.723" x2="-23.172" y2="5.723" xlink:href="#linear-gradient-3"/>
    <clipPath id="clip-path-17">
      <path id="Trazado_242033" data-name="Trazado 242033" d="M255.767,139.15c5.453,4.678,7.677,11.225,8.421,17.256a18.848,18.848,0,0,1,7.706.554c2.6-18.793-13.689-31.242-13.689-31.242Z" fill="none"/>
    </clipPath>
    <linearGradient id="linear-gradient-11" x1="-6.863" y1="4.602" x2="-6.835" y2="4.602" xlink:href="#linear-gradient-8"/>
    <clipPath id="clip-path-18">
      <path id="Trazado_242034" data-name="Trazado 242034" d="M224.315,155.547a28.71,28.71,0,0,1,4.206,8.031c4.259-2.474,7.65-6.976,6.634-15.15l-9.411-11.587s2.906,11.168-1.429,18.706" fill="none"/>
    </clipPath>
    <linearGradient id="linear-gradient-12" x1="-7.375" y1="5.75" x2="-7.341" y2="5.75" xlink:href="#linear-gradient-8"/>
    <clipPath id="clip-path-19">
      <path id="Trazado_242035" data-name="Trazado 242035" d="M214.189,162.081a3.034,3.034,0,0,0-2.24,2.945v1.55s5.525,4.847,16.572-3a28.71,28.71,0,0,0-4.206-8.031c-1.581,2.748-5.682,5.368-10.126,6.534" fill="none"/>
    </clipPath>
    <linearGradient id="linear-gradient-13" x1="-10.536" y1="5.509" x2="-10.486" y2="5.509" xlink:href="#linear-gradient-3"/>
    <clipPath id="clip-path-20">
      <path id="Trazado_242036" data-name="Trazado 242036" d="M231.791,120.019l3.035,11.156a2.169,2.169,0,0,0,2.9,1.444,43.849,43.849,0,0,0,4.374-2,2.924,2.924,0,0,0,1.031-4.2l-6.31-9.409Z" fill="none"/>
    </clipPath>
    <linearGradient id="linear-gradient-14" x1="-18.694" y1="8.91" x2="-18.613" y2="8.91" xlink:href="#linear-gradient-3"/>
    <clipPath id="clip-path-21">
      <path id="Trazado_242037" data-name="Trazado 242037" d="M225.151,111.542c-.028.191,2.531,12.732,2.531,12.732l7.13-1.614-.66-12.245a25.621,25.621,0,0,0-5.175-.663c-1.892,0-3.624.394-3.826,1.79" fill="none"/>
    </clipPath>
    <linearGradient id="linear-gradient-15" x1="-14.339" y1="8.779" x2="-14.275" y2="8.779" xlink:href="#linear-gradient-3"/>
    <clipPath id="clip-path-22">
      <path id="Trazado_242038" data-name="Trazado 242038" d="M225.1,105.608c-3.194.547-3.556,4.087-2.714,6.161s4.273,1.284,5.993.239c1.309-.8,3,.038,3.744.484a.9.9,0,0,1,.424.651l.853,6.419a.965.965,0,0,1,0,.246c-.072.5-.447,2.217-2.176,1.727-1.569-.445-3.007-.827-4-.523a.9.9,0,0,0-.622,1.045,38.994,38.994,0,0,0,1.641,5.844.9.9,0,0,0,1.1.533,29.134,29.134,0,0,0,6.284-2.572.9.9,0,0,0,.441-.813c-.069-1.621-.257-6.547-.1-7.928.149-1.3,1.74-2.072,2.431-2.35a.889.889,0,0,0,.495-.5,2.344,2.344,0,0,0-1.578-3.418.907.907,0,0,1-.573-1.172,2.349,2.349,0,0,0-1.317-3.246,3.312,3.312,0,0,0-3.954.952.907.907,0,0,1-1.153.137.714.714,0,0,0-.814.027.891.891,0,0,1-1.262-.382,2.65,2.65,0,0,0-2.482-1.623,3.885,3.885,0,0,0-.656.059" fill="none"/>
    </clipPath>
    <linearGradient id="linear-gradient-16" x1="-8.591" y1="7.288" x2="-8.551" y2="7.288" xlink:href="#linear-gradient"/>
    <clipPath id="clip-path-23">
      <path id="Trazado_242039" data-name="Trazado 242039" d="M236.287,114.883c-1.35.9-.036,4.579-.036,4.579s2.4.966,2.943-2.348c.307-1.86-.575-2.65-1.594-2.65a2.409,2.409,0,0,0-1.313.419" fill="none"/>
    </clipPath>
    <linearGradient id="linear-gradient-17" x1="-32.447" y1="19.618" x2="-32.308" y2="19.618" xlink:href="#linear-gradient-3"/>
    <clipPath id="clip-path-24">
      <path id="Trazado_242040" data-name="Trazado 242040" d="M289.081,142.038,169.188,181.384l5.723,17.667,120.583-38.388a5.539,5.539,0,0,0,3.809-6.013c-.362-2.737-1.594-6.5-4.948-10.961a4.752,4.752,0,0,0-5.274-1.651" fill="none"/>
    </clipPath>
    <linearGradient id="linear-gradient-18" x1="-1.275" y1="1.986" x2="-1.268" y2="1.986" xlink:href="#linear-gradient"/>
    <clipPath id="clip-path-25">
      <path id="Trazado_242041" data-name="Trazado 242041" d="M137.34,200.33a.826.826,0,0,0,.484,1.533l16.384-1.242a14.435,14.435,0,0,0-2.648-8.75Z" fill="none"/>
    </clipPath>
    <linearGradient id="linear-gradient-19" x1="-12.671" y1="4.03" x2="-12.58" y2="4.03" xlink:href="#linear-gradient"/>
    <clipPath id="clip-path-26">
      <path id="Trazado_242042" data-name="Trazado 242042" d="M151.56,191.871a14.435,14.435,0,0,1,2.648,8.75l20.7-1.57a22.884,22.884,0,0,0-5.723-17.667Z" fill="none"/>
    </clipPath>
    <linearGradient id="linear-gradient-20" x1="-6.78" y1="3.057" x2="-6.735" y2="3.057" xlink:href="#linear-gradient-3"/>
    <clipPath id="clip-path-28">
      <path id="Trazado_242045" data-name="Trazado 242045" d="M253.517,174.265s.754,1.041,3.108.443a33.65,33.65,0,0,1,5.581-.745s3.251,1.466,3.29-1.276l-1.443-.757-7.352-.6Z" fill="none"/>
    </clipPath>
    <linearGradient id="linear-gradient-21" x1="-20.265" y1="14.978" x2="-20.185" y2="14.978" xlink:href="#linear-gradient-3"/>
    <clipPath id="clip-path-29">
      <path id="Trazado_242046" data-name="Trazado 242046" d="M213.463,164.093c-.659.165-1.193,1.471-1.514,2.483a1.533,1.533,0,0,0,.741,1.811c1.333.718,3.512,1.754,4.147,1.258,2.53-1.976-1.952-5.566-3.248-5.566a.546.546,0,0,0-.126.014" fill="none"/>
    </clipPath>
    <linearGradient id="linear-gradient-22" x1="-27.709" y1="15.983" x2="-27.578" y2="15.983" xlink:href="#linear-gradient-3"/>
  </defs>
  <g id="Grupo_179419" data-name="Grupo 179419" clip-path="url(#clip-path)">
    <g id="Grupo_179372" data-name="Grupo 179372">
      <g id="Grupo_179371" data-name="Grupo 179371" clip-path="url(#clip-path)">
        <path id="Trazado_242000" data-name="Trazado 242000" d="M53.319,34.562A110.843,110.843,0,0,1,73.9,22.771c52.818-24.414,110-11.692,127.664-7.5,28.493,6.775,52.593,11.862,72.268,29.391,44.707,39.827,34.181,170.794-1.767,187.607-35.979,16.827-68.656,20.364-104.741,20.451-1.429.044-2.494.05-3.426.061-9.028.094-64.918-.055-107.715-35.5a124.435,124.435,0,0,1-24.607-27.445C-.207,141.138,5.261,70.008,53.319,34.562" fill="#e5e1f1"/>
        <g id="Grupo_179361" data-name="Grupo 179361" opacity="0.35">
          <g id="Grupo_179360" data-name="Grupo 179360">
            <g id="Grupo_179359-2" data-name="Grupo 179359" clip-path="url(#clip-path-3)">
              <path id="Trazado_242001" data-name="Trazado 242001" d="M98.147,210.3a3.129,3.129,0,0,1-.355.09,2.342,2.342,0,0,1-2.867-2.628,4.3,4.3,0,0,1,3.248-3.82,80.41,80.41,0,0,0,17.505-5.724,95.48,95.48,0,0,0,16.7-9.723l1-.718.978-.749c.655-.5,1.3-1.01,1.934-1.528q1.923-1.544,3.75-3.207c.614-.546,1.2-1.124,1.8-1.682s1.172-1.153,1.757-1.726c.565-.6,1.143-1.175,1.692-1.789s1.106-1.207,1.629-1.832,1.061-1.234,1.564-1.871c.253-.317.511-.628.756-.948l.729-.963c.5-.634.938-1.3,1.408-1.944.445-.657.89-1.313,1.313-1.975s.841-1.325,1.216-2c.19-.336.391-.668.576-1l.537-1.008c.088-.17.182-.334.266-.507l.252-.524.5-1.046c.308-.709.632-1.407.918-2.119a74.537,74.537,0,0,0,4.665-17.56c.9-6.006,1.314-12.12,1.73-18.468.212-3.176.407-6.409.681-9.739.129-1.66.3-3.352.477-5.061.1-.862.19-1.719.3-2.593l.333-2.548c.863-6.522,1.84-13.258,3.273-20.241a144.235,144.235,0,0,1,6.154-21.789,102.168,102.168,0,0,1,5.14-11.521,88.27,88.27,0,0,1,7.258-11.609c1.411-1.9,2.927-3.773,4.536-5.586.8-.909,1.638-1.8,2.487-2.677.427-.436.838-.86,1.294-1.3s.909-.881,1.373-1.305a71.863,71.863,0,0,1,11.887-8.934c1.047-.625,2.1-1.228,3.167-1.789.563-.3,1-.515,1.472-.765l1.408-.72c.943-.477,1.9-.923,2.869-1.362s1.946-.844,2.924-1.262a75.563,75.563,0,0,1,12.156-3.842,63.855,63.855,0,0,1,12.438-1.565,58.786,58.786,0,0,1,32.785,8.925,75.042,75.042,0,0,1,15.987,13.308,90.578,90.578,0,0,1,6.53,7.982c1.021,1.409,2.008,2.859,2.973,4.382.482.765.962,1.544,1.442,2.372.241.415.48.836.727,1.3l.38.719.2.41.119.25.165.38c4.81,12.729-2.2,29.925-15.662,38.4s-28.269,5.033-33.079-7.7l.068.129c.019.029.017.01.017.01l.007-.01c.009-.007,0-.056,0-.086a2.632,2.632,0,0,0-.035-.265c-.029-.2-.082-.426-.133-.654-.105-.464-.234-.959-.377-1.455-.291-1-.622-2.024-.986-3.036a53.8,53.8,0,0,0-2.521-5.927A45.885,45.885,0,0,0,246.972,56.5a28.689,28.689,0,0,0-8.286-6.591,20.964,20.964,0,0,0-4.735-1.778,23.153,23.153,0,0,0-5.268-.669,29.7,29.7,0,0,0-5.907.5c-.522.114-1.045.2-1.578.326-.535.139-1.071.251-1.615.4L218,49.14c-.415.107-.834.242-1.25.373a23.312,23.312,0,0,0-4.877,2.323c-.2.12-.393.249-.588.376l-.627.436c-.419.3-.838.609-1.25.941-.828.659-1.652,1.376-2.468,2.161a53.975,53.975,0,0,0-9.215,12.361q-1.065,1.861-2.046,3.843t-1.906,4.059c-1.23,2.764-2.383,5.639-3.472,8.588-2.181,5.9-4.1,12.085-5.972,18.461l-.67,2.289c-.218.738-.419,1.491-.631,2.242-.4,1.515-.8,3.041-1.183,4.6-.764,3.107-1.486,6.3-2.206,9.55-1.453,6.5-2.951,13.263-5.073,20.171a98.5,98.5,0,0,1-8.759,20.656c-.475.835-.993,1.656-1.492,2.478-.533.814-1.037,1.617-1.594,2.431l-.826,1.214c-.281.4-.571.789-.856,1.182-.563.793-1.17,1.545-1.761,2.3a83.961,83.961,0,0,1-7.673,8.315,112.6,112.6,0,0,1-16.981,13.156,140.694,140.694,0,0,1-17.993,9.665A173.608,173.608,0,0,1,98.166,210.3Z" fill="#fdb74d"/>
            </g>
          </g>
        </g>
        <g id="Grupo_179364" data-name="Grupo 179364" opacity="0.5">
          <g id="Grupo_179363" data-name="Grupo 179363">
            <g id="Grupo_179362" data-name="Grupo 179362" clip-path="url(#clip-path-4)">
              <path id="Trazado_242002" data-name="Trazado 242002" d="M29.644,213.988A10.141,10.141,0,1,0,20.582,225.1a10.141,10.141,0,0,0,9.062-11.116" fill="#fdb74d"/>
            </g>
          </g>
        </g>
        <path id="Trazado_242003" data-name="Trazado 242003" d="M18.657,206.2a8.866,8.866,0,1,1-7.922,9.718A8.866,8.866,0,0,1,18.657,206.2Z" fill="none" stroke="#fff" stroke-linecap="round" stroke-width="0.999" stroke-dasharray="0.749 1.998"/>
        <g id="Grupo_179367" data-name="Grupo 179367" opacity="0.7" style="isolation: isolate">
          <g id="Grupo_179366" data-name="Grupo 179366">
            <g id="Grupo_179365" data-name="Grupo 179365" clip-path="url(#clip-path-5)">
              <path id="Trazado_242004" data-name="Trazado 242004" d="M39.449,47.193A20.287,20.287,0,1,1,51.427,21.122,20.287,20.287,0,0,1,39.449,47.193" fill="#5038a1"/>
            </g>
          </g>
        </g>
        <path id="Trazado_242005" data-name="Trazado 242005" d="M32.046,40.6a6.763,6.763,0,1,1,3.993-8.69A6.762,6.762,0,0,1,32.046,40.6Z" fill="none" stroke="#fff" stroke-width="1.764"/>
        <path id="Trazado_242006" data-name="Trazado 242006" d="M84.882,54.585a4.116,4.116,0,1,1,2.43-5.29,4.117,4.117,0,0,1-2.43,5.29" fill="#fdb74d"/>
        <path id="Trazado_242007" data-name="Trazado 242007" d="M84.576,53.758a3.234,3.234,0,1,1,1.91-4.156,3.234,3.234,0,0,1-1.91,4.156" fill="#fdb74d"/>
        <path id="Trazado_242008" data-name="Trazado 242008" d="M84.576,53.758a3.234,3.234,0,1,1,1.91-4.156A3.234,3.234,0,0,1,84.576,53.758Z" fill="none" stroke="#8c6df2" stroke-width="1.764"/>
        <path id="Trazado_242009" data-name="Trazado 242009" d="M59.649,31.322a2.646,2.646,0,1,1,1.562-3.4,2.647,2.647,0,0,1-1.562,3.4" fill="#fdb74d"/>
        <path id="Trazado_242010" data-name="Trazado 242010" d="M41.651,235.791a4.328,4.328,0,0,0,4.317,4.313H279.4a4.327,4.327,0,0,0,4.317-4.313l1.942-134.145a7.518,7.518,0,0,0-7.915-6.655l-228.133-5.9a10.879,10.879,0,0,0-11.162,11.125Z" fill="#1a1a1a"/>
        <path id="Trazado_242011" data-name="Trazado 242011" d="M45.913,231.654A4.1,4.1,0,0,0,50,235.738h223.77a4.1,4.1,0,0,0,4.084-4.084l1.833-121.778c-.216-7.328-6.641-9.962-10.535-9.807L50.505,94.2a7.646,7.646,0,0,0-7.844,7.824Z" fill="#8c6df2"/>
        <g id="Grupo_179370" data-name="Grupo 179370" opacity="0.67">
          <g id="Grupo_179369" data-name="Grupo 179369">
            <g id="Grupo_179368" data-name="Grupo 179368" clip-path="url(#clip-path-6)">
              <path id="Trazado_242012" data-name="Trazado 242012" d="M275.433,173.8h-.009a.6.6,0,0,1-.59-.608l.145-9.876a.6.6,0,0,1,.6-.589h.009a.6.6,0,0,1,.59.607l-.145,9.876a.6.6,0,0,1-.6.59" fill="#91b3fa"/>
              <path id="Trazado_242013" data-name="Trazado 242013" d="M275.788,149.6h-.009a.6.6,0,0,1-.59-.608l.556-37.825a7.106,7.106,0,0,0-2.028-5.32c-2.491-2.387-6.447-2.265-6.614-2.257l-69.883-1.874a.6.6,0,0,1-.582-.614.572.572,0,0,1,.614-.582l69.842,1.874c.435-.026,4.646-.1,7.451,2.589a8.262,8.262,0,0,1,2.4,6.19l-.556,37.837a.6.6,0,0,1-.6.59" fill="#91b3fa"/>
            </g>
          </g>
        </g>
        <path id="Trazado_242014" data-name="Trazado 242014" d="M23.258,251.24H297.373a.546.546,0,0,0,.544-.544V240a.545.545,0,0,0-.544-.544H23.258a.545.545,0,0,0-.544.544v10.7a.546.546,0,0,0,.544.544" fill="#1a1a1a"/>
        <path id="Trazado_242015" data-name="Trazado 242015" d="M216.046,19.084l-147.517-.9a8.445,8.445,0,0,0-8.486,8.862l9.88,204.022a5.848,5.848,0,0,0,5.84,5.565H228.757a5.873,5.873,0,0,0,5.866-5.588l8.843-181.667Z" fill="#fff"/>
        <path id="Trazado_242016" data-name="Trazado 242016" d="M222.18,48.477a8.444,8.444,0,0,1-8.121-9.1L215.64,19.36l27.855,29.892Z" fill="#7d97f4"/>
        <path id="Trazado_242017" data-name="Trazado 242017" d="M93.458,56.793c20.444.574,98.927,2.694,118.745,3.229,2.5.068,4.487,1.672,4.391,3.541-.092,1.78-2.048,3.144-4.427,3.088l-118.691-2.8c-2.286-.054-4.194-1.4-4.4-3.115l-.053-.433c-.236-1.956,1.821-3.587,4.435-3.514" fill="#4d4d4d"/>
        <path id="Trazado_242018" data-name="Trazado 242018" d="M91.107,77.517h0a2.086,2.086,0,0,0,1.621.771l81.451,2.858a1.685,1.685,0,0,0,1.911-1.312l.207-4.015c.041-.8-.812-1.482-1.879-1.507L95.191,72.461c-3.529-.082-5.774,2.7-4.084,5.056" fill="#4d4d4d"/>
        <path id="Trazado_242019" data-name="Trazado 242019" d="M91.455,93.109c20.444.574,98.927,2.694,118.745,3.229,2.5.068,4.487,1.672,4.391,3.541-.092,1.78-2.048,3.144-4.427,3.088l-118.691-2.8c-2.286-.054-4.194-1.4-4.4-3.115l-.053-.433c-.236-1.956,1.821-3.587,4.435-3.514" fill="#4d4d4d"/>
        <path id="Trazado_242020" data-name="Trazado 242020" d="M89.1,113.833h0a2.086,2.086,0,0,0,1.621.771l81.451,2.858a1.687,1.687,0,0,0,1.912-1.312l.206-4.015c.041-.8-.812-1.482-1.879-1.507l-79.227-1.851c-3.529-.082-5.774,2.7-4.084,5.056" fill="#4d4d4d"/>
        <path id="Trazado_242021" data-name="Trazado 242021" d="M98.866,179.885a56.669,56.669,0,0,1,8.432-25.217,58.626,58.626,0,0,1,8.364-10.569c.819-.774,1.619-1.572,2.459-2.326.863-.727,1.707-1.48,2.591-2.184.9-.678,1.8-1.372,2.726-2.017l1.417-.935.709-.466.355-.234c.128-.08.3-.182.455-.264a7.121,7.121,0,0,1,8.477.986,6.357,6.357,0,0,1,1.3,1.97,7.526,7.526,0,0,1,.355,1.037,8.438,8.438,0,0,1,.217,1.019,14.351,14.351,0,0,1,.027,3.8c-.063.6-.161,1.2-.267,1.771l-.324,1.629c-.207,1.087-.449,2.167-.687,3.247-.478,2.162-1.018,4.308-1.586,6.447a149.485,149.485,0,0,1-9.154,24.886l-1.45,2.985c-.507.983-1,1.972-1.519,2.949l-.785,1.462-.393.73-.432.763a22.3,22.3,0,0,1-2.046,2.936,13.725,13.725,0,0,1-2.769,2.584,7.848,7.848,0,0,1-4,1.425,5.379,5.379,0,0,1-1.134-.042,6.109,6.109,0,0,1-1.1-.23,6.421,6.421,0,0,1-2.008-.97,7.728,7.728,0,0,1-2.62-3.329,10.352,10.352,0,0,1-.757-3.869,15.528,15.528,0,0,1,.44-3.66,31.943,31.943,0,0,1,.972-3.3l.544-1.6.612-1.572a60.25,60.25,0,0,1,15.158-21.976l.614-.572.641-.544,1.282-1.084c.437-.351.886-.686,1.327-1.03s.881-.691,1.346-1c.918-.641,1.826-1.295,2.784-1.875l.709-.448.355-.224c.063-.039.109-.071.187-.115l.233-.131a5.663,5.663,0,0,1,2.035-.629,5.177,5.177,0,0,1,4.057,1.262,4.208,4.208,0,0,1,1.232,1.959,5.4,5.4,0,0,1,.147,2.1,11.774,11.774,0,0,1-.353,1.794l-.445,1.591-.886,3.154c-1.171,4.208-2.39,8.4-3.584,12.6l0,.01-1.844-.33a9.663,9.663,0,0,1,1.3-4.123,6.794,6.794,0,0,1,1.493-1.717,5.876,5.876,0,0,1,2.064-1.068,5.434,5.434,0,0,1,2.355-.153,4.447,4.447,0,0,1,1.176.354,4.278,4.278,0,0,1,.549.3l.372.234a3.368,3.368,0,0,0,2.955.2,3.043,3.043,0,0,0,.653-.374,3.2,3.2,0,0,0,.287-.247l.14-.136.168-.18,1.344-1.433,2.688-2.867,2.687-2.867,1.344-1.434a2.6,2.6,0,0,1,1.331-.759,2.5,2.5,0,0,1,1.539.174,2.585,2.585,0,0,1,1.144,1.007,2.43,2.43,0,0,1,.333,1.53,1.7,1.7,0,0,1-.07.376c-.03.115-.073.265-.1.32l-.161.452-.3.911c-.4,1.218-.729,2.456-1.007,3.706s-.5,2.513-.654,3.783c-.018.157-.042.324-.054.471l-.012.388a1.433,1.433,0,0,0,.025.382,1.936,1.936,0,0,0,.061.373,3.106,3.106,0,0,0,.692,1.323,3.213,3.213,0,0,0,1.24.88,3.774,3.774,0,0,0,.735.222,3.586,3.586,0,0,0,.76.029,2.963,2.963,0,0,0,1.425-.455l.167-.093.149-.125.3-.247.694-.68q2.773-2.724,5.3-5.688a87.21,87.21,0,0,0,8.95-12.691l.952-1.694.46-.856.23-.428.057-.107c0-.012,0-.006,0-.006s-.005.009,0,.02c0,.072.028.086.021.08a.068.068,0,0,0,.043.006c.028-.006.066-.013.066-.019s0,0,0,0l-.083.084-.165.168c-.111.111-.219.226-.326.341-.217.227-.425.464-.632.7a23.59,23.59,0,0,0-2.227,3.047q-.492.807-.924,1.648c-.142.282-.281.565-.411.851l-.193.431-.1.217-.063.194a3.975,3.975,0,0,0,.085,3.1,4.168,4.168,0,0,0,2.283,2.133,4.052,4.052,0,0,0,1.549.277,4.189,4.189,0,0,0,1.539-.384l.37-.169.416-.242c.277-.164.558-.319.83-.491.55-.332,1.092-.677,1.63-1.03a48.894,48.894,0,0,0,11.328-10.369l0,0a.94.94,0,0,1,1.472,1.169,50.788,50.788,0,0,1-11.766,10.771c-.558.366-1.121.725-1.692,1.069-.282.178-.574.34-.862.51l-.433.251-.521.246a6.071,6.071,0,0,1-2.249.55,5.95,5.95,0,0,1-2.291-.4,6.048,6.048,0,0,1-3.312-3.1,5.866,5.866,0,0,1-.139-4.542l.093-.272.1-.233.208-.466c.141-.309.291-.614.444-.918q.465-.908,1-1.778a25.425,25.425,0,0,1,2.406-3.293c.224-.256.449-.511.684-.758.116-.125.233-.248.354-.369l.179-.182.09-.091c.057-.052.121-.107.185-.157a1.742,1.742,0,0,1,.969-.364,1.837,1.837,0,0,1,.984.232,1.813,1.813,0,0,1,.932,1.7,1.776,1.776,0,0,1-.113.5c-.029.073-.064.156-.1.218l-.058.109-.235.438-.47.875-.973,1.732a88.994,88.994,0,0,1-9.146,12.967q-2.572,3.027-5.412,5.812l-.709.695-.455.378-.232.185-.259.153a4.851,4.851,0,0,1-2.275.724,5.527,5.527,0,0,1-1.2-.051,5.669,5.669,0,0,1-1.143-.339,5.092,5.092,0,0,1-1.93-1.375,5,5,0,0,1-1.109-2.123,3.71,3.71,0,0,1-.1-.593,2.853,2.853,0,0,1-.038-.6l.022-.594.059-.5c.165-1.329.394-2.651.683-3.958s.641-2.6,1.053-3.876l.319-.953.169-.473a.975.975,0,0,0,.043-.151.246.246,0,0,0,.021-.1.542.542,0,0,0-.072-.356.7.7,0,0,0-.312-.268.6.6,0,0,0-.722.158l-1.344,1.434-2.688,2.867-2.688,2.867-1.344,1.433-.168.179-.211.208a4.637,4.637,0,0,1-.458.392,4.9,4.9,0,0,1-1.046.6,5.246,5.246,0,0,1-4.616-.289l-.461-.287a2.371,2.371,0,0,0-.315-.168,2.546,2.546,0,0,0-.7-.21,3.559,3.559,0,0,0-1.535.105,4.271,4.271,0,0,0-2.473,1.963,7.8,7.8,0,0,0-1.028,3.313l-1.844-.329,0-.01c1.057-4.238,2.089-8.483,3.168-12.715l.8-3.176.4-1.575a9.432,9.432,0,0,0,.246-1.423,2.953,2.953,0,0,0-.095-1.146,1.643,1.643,0,0,0-.515-.758,2.564,2.564,0,0,0-2.034-.55,2.96,2.96,0,0,0-1.065.363l-.122.073-.159.1-.332.223-.664.444c-.9.574-1.744,1.221-2.6,1.853-.435.307-.839.654-1.254.988s-.829.667-1.235,1.01l-1.192,1.063-.6.529-.575.554a56.558,56.558,0,0,0-8.2,9.738,55.782,55.782,0,0,0-5.822,11.289l-.554,1.488-.486,1.512a28.982,28.982,0,0,0-.836,2.995,8.777,8.777,0,0,0,.217,5.348,4.078,4.078,0,0,0,1.4,1.739,2.753,2.753,0,0,0,.934.427,2.857,2.857,0,0,0,1,.106,4.141,4.141,0,0,0,2.071-.8,10.018,10.018,0,0,0,1.98-1.9,18.49,18.49,0,0,0,1.673-2.449l.37-.665.377-.716.753-1.43c.5-.956.971-1.925,1.457-2.886l1.388-2.92a152.313,152.313,0,0,0,8.8-24.281c.547-2.083,1.067-4.174,1.526-6.279.228-1.052.462-2.1.661-3.163l.31-1.585c.09-.5.169-.984.218-1.467a10.433,10.433,0,0,0-.011-2.729,3.367,3.367,0,0,0-.78-1.843,2.114,2.114,0,0,0-.682-.479,3.159,3.159,0,0,0-.944-.239,3.712,3.712,0,0,0-2.047.447c-.087.046-.15.082-.253.146l-.331.215-.661.43-1.324.859c-.871.591-1.7,1.245-2.558,1.853-.837.639-1.637,1.328-2.459,1.988-.8.689-1.56,1.421-2.343,2.129a60.482,60.482,0,0,0-17.6,33.292.941.941,0,0,1-1.866-.23" fill="#4d4d4d"/>
        <path id="Trazado_242022" data-name="Trazado 242022" d="M196.671,151.308a.94.94,0,0,1-.5-1.737l9.39-5.882a.94.94,0,1,1,1,1.593l-9.39,5.882a.927.927,0,0,1-.5.144" fill="#4d4d4d"/>
      </g>
    </g>
    <g id="Grupo_179374" data-name="Grupo 179374">
      <g id="Grupo_179373" data-name="Grupo 179373" clip-path="url(#clip-path-7)">
        <rect id="Rectángulo_102670" data-name="Rectángulo 102670" width="17.067" height="1.833" transform="translate(240.456 252.085)" fill="url(#linear-gradient)"/>
      </g>
    </g>
    <g id="Grupo_179376" data-name="Grupo 179376">
      <g id="Grupo_179375" data-name="Grupo 179375" clip-path="url(#clip-path-8)">
        <rect id="Rectángulo_102671" data-name="Rectángulo 102671" width="14.337" height="17.604" transform="matrix(0.518, -0.855, 0.855, 0.518, 238.067, 251.202)" fill="url(#linear-gradient-2)"/>
      </g>
    </g>
    <g id="Grupo_179378" data-name="Grupo 179378">
      <g id="Grupo_179377" data-name="Grupo 179377" clip-path="url(#clip-path-9)">
        <rect id="Rectángulo_102672" data-name="Rectángulo 102672" width="4.767" height="5.831" transform="translate(251.193 242.059)" fill="url(#linear-gradient-3)"/>
      </g>
    </g>
    <g id="Grupo_179380" data-name="Grupo 179380">
      <g id="Grupo_179379" data-name="Grupo 179379" clip-path="url(#clip-path-10)">
        <rect id="Rectángulo_102673" data-name="Rectángulo 102673" width="6.628" height="2.395" transform="translate(284.779 251.356)" fill="url(#linear-gradient-4)"/>
      </g>
    </g>
    <g id="Grupo_179382" data-name="Grupo 179382">
      <g id="Grupo_179381" data-name="Grupo 179381" clip-path="url(#clip-path-11)">
        <rect id="Rectángulo_102674" data-name="Rectángulo 102674" width="13.959" height="13.251" transform="translate(277.574 251.744) rotate(-69.015)" fill="url(#linear-gradient-5)"/>
      </g>
    </g>
    <g id="Grupo_179384" data-name="Grupo 179384">
      <g id="Grupo_179383" data-name="Grupo 179383" clip-path="url(#clip-path-12)">
        <rect id="Rectángulo_102675" data-name="Rectángulo 102675" width="5.804" height="6.775" transform="translate(280.571 237.636)" fill="url(#linear-gradient-6)"/>
      </g>
    </g>
    <g id="Grupo_179386" data-name="Grupo 179386">
      <g id="Grupo_179385" data-name="Grupo 179385" clip-path="url(#clip-path-13)">
        <rect id="Rectángulo_102676" data-name="Rectángulo 102676" width="82.388" height="65.535" transform="matrix(0.319, -0.948, 0.948, 0.319, 219.768, 237.288)" fill="url(#linear-gradient-7)"/>
      </g>
    </g>
    <g id="Grupo_179388" data-name="Grupo 179388">
      <g id="Grupo_179387" data-name="Grupo 179387" clip-path="url(#clip-path-14)">
        <rect id="Rectángulo_102677" data-name="Rectángulo 102677" width="64.082" height="54.222" transform="matrix(0.379, -0.925, 0.925, 0.379, 206.927, 171.996)" fill="url(#linear-gradient-8)"/>
      </g>
    </g>
    <g id="Grupo_179390" data-name="Grupo 179390">
      <g id="Grupo_179389" data-name="Grupo 179389" clip-path="url(#clip-path-15)">
        <rect id="Rectángulo_102678" data-name="Rectángulo 102678" width="9.388" height="9.891" transform="translate(245.343 191.536) rotate(-65.323)" fill="url(#linear-gradient-9)"/>
      </g>
    </g>
    <g id="Grupo_179392" data-name="Grupo 179392">
      <g id="Grupo_179391" data-name="Grupo 179391" clip-path="url(#clip-path-16)">
        <rect id="Rectángulo_102679" data-name="Rectángulo 102679" width="11.264" height="18.415" transform="translate(260.55 156.689) rotate(-9.666)" fill="url(#linear-gradient-10)"/>
      </g>
    </g>
    <g id="Grupo_179394" data-name="Grupo 179394">
      <g id="Grupo_179393" data-name="Grupo 179393" clip-path="url(#clip-path-17)">
        <rect id="Rectángulo_102680" data-name="Rectángulo 102680" width="36.008" height="29.169" transform="translate(244.808 152.471) rotate(-67.724)" fill="url(#linear-gradient-11)"/>
      </g>
    </g>
    <g id="Grupo_179396" data-name="Grupo 179396">
      <g id="Grupo_179395" data-name="Grupo 179395" clip-path="url(#clip-path-18)">
        <rect id="Rectángulo_102681" data-name="Rectángulo 102681" width="29.236" height="21.106" transform="translate(214.936 159.736) rotate(-67.724)" fill="url(#linear-gradient-12)"/>
      </g>
    </g>
    <g id="Grupo_179398" data-name="Grupo 179398">
      <g id="Grupo_179397" data-name="Grupo 179397" clip-path="url(#clip-path-19)">
        <rect id="Rectángulo_102682" data-name="Rectángulo 102682" width="19.956" height="19.451" transform="translate(208.179 156.499) rotate(-14.177)" fill="url(#linear-gradient-13)"/>
      </g>
    </g>
    <g id="Grupo_179400" data-name="Grupo 179400">
      <g id="Grupo_179399" data-name="Grupo 179399" clip-path="url(#clip-path-20)">
        <rect id="Rectángulo_102683" data-name="Rectángulo 102683" width="12.397" height="16.164" transform="translate(231.697 117.011) rotate(-0.335)" fill="url(#linear-gradient-14)"/>
      </g>
    </g>
    <g id="Grupo_179402" data-name="Grupo 179402">
      <g id="Grupo_179401" data-name="Grupo 179401" clip-path="url(#clip-path-21)">
        <rect id="Rectángulo_102684" data-name="Rectángulo 102684" width="15.497" height="17.395" transform="translate(218.982 113.139) rotate(-28.875)" fill="url(#linear-gradient-15)"/>
      </g>
    </g>
    <g id="Grupo_179404" data-name="Grupo 179404">
      <g id="Grupo_179403" data-name="Grupo 179403" clip-path="url(#clip-path-22)">
        <rect id="Rectángulo_102685" data-name="Rectángulo 102685" width="25.366" height="21.207" transform="translate(218.292 128.096) rotate(-81.79)" fill="url(#linear-gradient-16)"/>
      </g>
    </g>
    <g id="Grupo_179406" data-name="Grupo 179406">
      <g id="Grupo_179405" data-name="Grupo 179405" clip-path="url(#clip-path-23)">
        <rect id="Rectángulo_102686" data-name="Rectángulo 102686" width="7.2" height="7.508" transform="matrix(0.808, -0.589, 0.589, 0.808, 232.099, 116.53)" fill="url(#linear-gradient-17)"/>
      </g>
    </g>
    <g id="Grupo_179408" data-name="Grupo 179408">
      <g id="Grupo_179407" data-name="Grupo 179407" clip-path="url(#clip-path-24)">
        <rect id="Rectángulo_102687" data-name="Rectángulo 102687" width="132.052" height="60.958" transform="translate(167.551 141.848) rotate(-1.639)" fill="url(#linear-gradient-18)"/>
      </g>
    </g>
    <g id="Grupo_179410" data-name="Grupo 179410">
      <g id="Grupo_179409" data-name="Grupo 179409" clip-path="url(#clip-path-25)">
        <rect id="Rectángulo_102688" data-name="Rectángulo 102688" width="11.039" height="18.16" transform="matrix(0.057, -0.998, 0.998, 0.057, 136.021, 201.896)" fill="url(#linear-gradient-19)"/>
      </g>
    </g>
    <g id="Grupo_179412" data-name="Grupo 179412">
      <g id="Grupo_179411" data-name="Grupo 179411" clip-path="url(#clip-path-26)">
        <rect id="Rectángulo_102689" data-name="Rectángulo 102689" width="22.532" height="27.37" transform="matrix(0.14, -0.99, 0.99, 0.14, 148.898, 200.245)" fill="url(#linear-gradient-20)"/>
      </g>
    </g>
    <g id="Grupo_179414" data-name="Grupo 179414">
      <g id="Grupo_179413" data-name="Grupo 179413" clip-path="url(#clip-path)">
        <path id="Trazado_242043" data-name="Trazado 242043" d="M291.2,147.178a.349.349,0,0,0-.324-.608L176.322,184.416a.349.349,0,0,0,.219.663l114.55-37.846a.345.345,0,0,0,.1-.055" fill="#91b3fa"/>
        <path id="Trazado_242044" data-name="Trazado 242044" d="M293.839,153.8a.349.349,0,0,0-.323-.608l-114.55,37.846a.349.349,0,0,0,.219.663l114.55-37.846a.334.334,0,0,0,.1-.055" fill="#91b3fa"/>
      </g>
    </g>
    <g id="Grupo_179416" data-name="Grupo 179416">
      <g id="Grupo_179415" data-name="Grupo 179415" clip-path="url(#clip-path-28)">
        <rect id="Rectángulo_102691" data-name="Rectángulo 102691" width="12.497" height="6.052" transform="translate(252.839 171.446) rotate(-9.666)" fill="url(#linear-gradient-21)"/>
      </g>
    </g>
    <g id="Grupo_179418" data-name="Grupo 179418">
      <g id="Grupo_179417" data-name="Grupo 179417" clip-path="url(#clip-path-29)">
        <rect id="Rectángulo_102692" data-name="Rectángulo 102692" width="7.641" height="6.062" transform="translate(211.726 164.079)" fill="url(#linear-gradient-22)"/>
      </g>
    </g>
  </g>
</svg>
