<svg id="Grupo_180206" data-name="Grupo 180206" xmlns="http://www.w3.org/2000/svg" xmlns:xlink="http://www.w3.org/1999/xlink" width="136" height="136" viewBox="0 0 136 136">
  <defs>
    <clipPath id="clip-path">
      <rect id="Rectángulo_103175" data-name="Rectángulo 103175" width="136" height="136" fill="none"/>
    </clipPath>
  </defs>
  <g id="Grupo_180206-2" data-name="Grupo 180206" clip-path="url(#clip-path)">
    <path id="Trazado_242969" data-name="Trazado 242969" d="M136,68A68,68,0,1,1,68,0a68,68,0,0,1,68,68" fill="#5038a1"/>
    <path id="Trazado_242970" data-name="Trazado 242970" d="M47.215,55.31c-.979-1.024-1.963-1.97-2.852-3a9.557,9.557,0,0,1-2.436-8.894,7.671,7.671,0,0,1,12.062-4.508c.117.083.236.161.4.273a7.6,7.6,0,0,1,4.448-1.812A7.97,7.97,0,0,1,67.1,45.1a9.566,9.566,0,0,1-2.3,6.7c-.991,1.211-2.111,2.317-3.086,3.373,1.969.883,3.987,1.807,6.031,2.672.238.1.651-.084.93-.232a26.838,26.838,0,0,1,30.79,3.548c8.3,7.508,11.247,16.961,8.2,27.733-3.072,10.862-10.578,17.372-21.688,19.466a25.833,25.833,0,0,1-17.328-2.877,1.25,1.25,0,0,0-1.356.007A27.192,27.192,0,1,1,46.458,55.549c.243-.074.484-.153.757-.239M71.69,103.18c9.266,4.647,22.609,2.2,29.7-8.492a23.787,23.787,0,0,0-37.713-28.82c-8.229,9.479-7,22.454-1.284,29.6,1.132-.884,2.265-1.77,3.416-2.667a19.323,19.323,0,0,1,19.11-30.247c7.986,1.47,13.282,6.334,15.315,14.157,2.056,7.905-.28,14.751-6.63,19.93-5.41,4.412-11.624,5.3-18.278,3.258-.277-.085-.752-.091-.9.077-.961,1.051-1.858,2.162-2.731,3.2M64.65,60.165a23.761,23.761,0,1,0,8.632,35.8c7.377-9.444,5.522-21.889.244-28.283l-3.377,2.642c.266.411.429.652.581.9a19.011,19.011,0,0,1,2.787,13.136A19.3,19.3,0,0,1,51.58,100.7C37.516,98.756,30.3,82.263,38.425,70.619a19.421,19.421,0,0,1,22.163-7.4,1.184,1.184,0,0,0,.974-.125c1.046-.923,2.031-1.915,3.088-2.931m-5.723,36.61c-6.162-10.158-6.071-20.319.023-30.474A15.932,15.932,0,0,0,42.273,91.939a15.662,15.662,0,0,0,16.654,4.836M77,66.335q9.19,15.221,0,30.455a15.908,15.908,0,1,0,0-30.455M53.652,54.314c1.046.057,1.947.124,2.848.145a1.372,1.372,0,0,0,.884-.187c1.614-1.508,3.245-3.005,4.759-4.612A5.89,5.89,0,0,0,63.7,45.943,4.9,4.9,0,0,0,60.931,41.1a4.183,4.183,0,0,0-4.943,1.328c-1.181,1.355-2.063,1.341-3.267-.053a4.21,4.21,0,0,0-7.286,1.237,5.471,5.471,0,0,0,.9,5.673c1.034,1.287,2.271,2.41,3.421,3.6,1.107,1.146,2.27,2.146,3.9,1.425M68,73.36c-3.193,4.527-3.1,12.09-.021,16.355,2.877-4.1,3.294-11.258.021-16.355" fill="#fff"/>
    <path id="Trazado_242971" data-name="Trazado 242971" d="M89.1,42.224a29.5,29.5,0,0,1-4.525-.708,5.48,5.48,0,0,1-3.529-6.991A4.943,4.943,0,0,1,84.227,31.4a1.251,1.251,0,0,0,.7-.626,4.962,4.962,0,0,1,4.507-3.556,5.384,5.384,0,0,1,5.413,3.225,8.015,8.015,0,0,1,.706,3.026c.017,2.06-.148,4.126-.325,6.182a2.373,2.373,0,0,1-2.347,2.072c-1.246.1-2.495.188-3.742.281l-.033.22M92.12,38.6c0-2.034.038-3.771-.014-5.505a2.487,2.487,0,0,0-1.535-2.347,1.68,1.68,0,0,0-2.439,1.573c-.045,1.807-.214,2.007-1.954,2.3-.957.162-2,1.023-2.035,1.677a2.383,2.383,0,0,0,1.785,2.117,3.826,3.826,0,0,0,1.025.176c1.62.018,3.241.008,5.167.008" fill="#fff"/>
    <path id="Trazado_242972" data-name="Trazado 242972" d="M97.269,45.332a18,18,0,0,1,.253-2.166,4.53,4.53,0,0,1,3.764-3.534c2-.23,3.391.585,4.4,2.547a1.213,1.213,0,0,0,.532.5,3.968,3.968,0,0,1,2.51,3.673,4.13,4.13,0,0,1-2.423,4.02,5.688,5.688,0,0,1-2.331.61,39.293,39.293,0,0,1-4.443-.187,2.141,2.141,0,0,1-2-2.067c-.1-1.043-.164-2.088-.264-3.393m3.564,2.119c.565.061,1.1.163,1.645.167a5.878,5.878,0,0,0,1.975-.159c.38-.136.6-.721.892-1.1a3.3,3.3,0,0,0-1.042-.528A1.765,1.765,0,0,1,102.5,44c-.033-.352-.362-.675-.556-1.011a4.17,4.17,0,0,0-1.043.776,1.945,1.945,0,0,0-.2,1.094c.01.841.079,1.682.128,2.593" fill="#fff"/>
    <path id="Trazado_242973" data-name="Trazado 242973" d="M42.557,35.88a8.441,8.441,0,0,1-1.4-.847c-1.079-1.016-2.121-2.072-3.153-3.137a1.681,1.681,0,0,1-.089-2.545,1.707,1.707,0,0,1,2.489.149q1.654,1.613,3.265,3.272a1.46,1.46,0,0,1,.3,1.911,7.051,7.051,0,0,1-1.416,1.2" fill="#fff"/>
    <path id="Trazado_242974" data-name="Trazado 242974" d="M66.1,35.805c-.412-.325-1.068-.6-1.254-1.055A2.044,2.044,0,0,1,64.96,33a47,47,0,0,1,3.73-3.78,1.619,1.619,0,0,1,2.155.132,1.639,1.639,0,0,1,.169,2.219c-1.207,1.3-2.48,2.531-3.759,3.755a4.173,4.173,0,0,1-1.152.48" fill="#fff"/>
    <path id="Trazado_242975" data-name="Trazado 242975" d="M56.074,30.643c0,.551.027,1.1-.006,1.654a1.709,1.709,0,0,1-1.675,1.669,1.64,1.64,0,0,1-1.683-1.639c-.048-1.187-.05-2.38.005-3.567A1.593,1.593,0,0,1,54.364,27.2a1.649,1.649,0,0,1,1.7,1.619c.04.607.008,1.219.008,1.828" fill="#fff"/>
    <path id="Trazado_242976" data-name="Trazado 242976" d="M73.081,42.444c-.609,0-1.22.031-1.827-.007A1.621,1.621,0,0,1,69.7,40.779a1.6,1.6,0,0,1,1.539-1.671c1.217-.044,2.438-.042,3.654,0a1.639,1.639,0,0,1,1.575,1.654,1.661,1.661,0,0,1-1.557,1.675c-.607.04-1.218.008-1.827.008" fill="#fff"/>
    <path id="Trazado_242977" data-name="Trazado 242977" d="M35.971,42.45c-.465,0-.931.02-1.394-.006A1.673,1.673,0,0,1,34.6,39.1c.929-.029,1.86-.028,2.788,0a1.674,1.674,0,0,1,1.693,1.641,1.7,1.7,0,0,1-1.717,1.71c-.464.02-.929,0-1.394,0" fill="#fff"/>
  </g>
</svg>
