<svg xmlns="http://www.w3.org/2000/svg" xmlns:xlink="http://www.w3.org/1999/xlink" width="209.999" height="126.938" viewBox="0 0 209.999 126.938">
  <defs>
    <clipPath id="clip-path">
      <path id="Trazado_236715" data-name="Trazado 236715" d="M106.612,196.214s-1.719-4.525-3.726-4.111a13.724,13.724,0,0,0-4.206,1.957l-3.225,4.362s9.055,3.567,12.239,1.523a69.672,69.672,0,0,0,20.928-.318,45.726,45.726,0,0,1-3.29-9.916c-5.916,3.348-12.288,5.849-18.721,6.5" transform="translate(-95.455 -189.711)" fill="none"/>
    </clipPath>
    <linearGradient id="linear-gradient" x1="-2.464" y1="4.052" x2="-2.438" y2="4.052" gradientUnits="objectBoundingBox">
      <stop offset="0" stop-color="#a22b25"/>
      <stop offset="1" stop-color="#c0423c"/>
    </linearGradient>
    <clipPath id="clip-path-2">
      <path id="Trazado_236717" data-name="Trazado 236717" d="M50.6,183.623a60.725,60.725,0,0,0,6.675,1.9c1.324-4.263,4.239-9.5,6.627-13.386-8.772-3.1-14.124-10.588-14.124-10.588Z" transform="translate(-49.782 -161.544)" fill="none"/>
    </clipPath>
    <linearGradient id="linear-gradient-2" x1="-1.339" y1="2.807" x2="-1.308" y2="2.807" gradientUnits="objectBoundingBox">
      <stop offset="0" stop-color="#4f52ff"/>
      <stop offset="1" stop-color="#4042e2"/>
    </linearGradient>
    <clipPath id="clip-path-3">
      <path id="Trazado_236718" data-name="Trazado 236718" d="M65.167,172.069c-2.387,3.891-5.3,9.123-6.627,13.386C90.673,192.54,98.241,163,98.241,163l-3.4-1.893C82.8,174.1,73.064,174.862,65.167,172.069" transform="translate(-58.54 -161.105)" fill="none"/>
    </clipPath>
    <linearGradient id="linear-gradient-3" x1="-0.912" y1="1.778" x2="-0.895" y2="1.778" gradientUnits="objectBoundingBox">
      <stop offset="0" stop-color="#febbba"/>
      <stop offset="1" stop-color="#ff928e"/>
    </linearGradient>
    <clipPath id="clip-path-4">
      <path id="Trazado_236719" data-name="Trazado 236719" d="M114.191,158.216c-1.6,1.359-3.882.467-6.447,0a4.408,4.408,0,0,0-3.951,1.02l7.772,3.083,4.786-3.639s-.3-.967-1.078-.967a1.732,1.732,0,0,0-1.082.5" transform="translate(-103.793 -157.713)" fill="none"/>
    </clipPath>
    <linearGradient id="linear-gradient-4" x1="-7.42" y1="6.613" x2="-7.348" y2="6.613" xlink:href="#linear-gradient-3"/>
    <clipPath id="clip-path-5">
      <path id="Trazado_236720" data-name="Trazado 236720" d="M100.448,161.88c3.269,3.087,15.38,4.3,15.38,4.3l8.277-4.658c-.856-1.763-5.831,1.106-5.831,1.106l1.936-2.405c-1.1-.55-3.239,1.008-4.915,1.658s-8.172-2.882-11.034-3.427a2.794,2.794,0,0,0-.526-.051c-2.453,0-3.285,3.478-3.285,3.478" transform="translate(-100.448 -158.402)" fill="none"/>
    </clipPath>
    <linearGradient id="linear-gradient-5" x1="-3.469" y1="4.655" x2="-3.434" y2="4.655" xlink:href="#linear-gradient-3"/>
    <clipPath id="clip-path-6">
      <path id="Trazado_236722" data-name="Trazado 236722" d="M37.259,152.989s1.789,3.523,10.329,6.384l7.373-15.158-7.727-6.082c-.008.7-9.975,14.856-9.975,14.856" transform="translate(-37.259 -138.133)" fill="none"/>
    </clipPath>
    <linearGradient id="linear-gradient-6" x1="-1.065" y1="3.982" x2="-1.032" y2="3.982" xlink:href="#linear-gradient-3"/>
    <clipPath id="clip-path-7">
      <path id="Trazado_236723" data-name="Trazado 236723" d="M44.332,192.906s18.91,15.837,39.329,8.927a4.86,4.86,0,0,1,3.834.289l5.87,3.1a5.241,5.241,0,0,0,6.945-1.944,11.028,11.028,0,0,0,1.65-4.415l-11.487-4.651.847-1.408s-5.608-.475-7.075,3.544c0,0-10.683,4.444-28.7-15.372,0,0-8.175,6.952-11.216,11.931" transform="translate(-44.332 -180.975)" fill="none"/>
    </clipPath>
    <linearGradient id="linear-gradient-7" x1="-0.562" y1="1.267" x2="-0.548" y2="1.267" xlink:href="#linear-gradient-3"/>
    <clipPath id="clip-path-8">
      <path id="Trazado_236724" data-name="Trazado 236724" d="M29.326,177.523a.419.419,0,0,0-.221.549,36.477,36.477,0,0,0,11.778,14.191.418.418,0,1,0,.468-.693,35.611,35.611,0,0,1-11.477-13.825.417.417,0,0,0-.385-.255.422.422,0,0,0-.164.033" transform="translate(-29.072 -177.49)" fill="none"/>
    </clipPath>
    <linearGradient id="linear-gradient-8" x1="-1.124" y1="3.38" x2="-1.08" y2="3.38" xlink:href="#linear-gradient-2"/>
    <clipPath id="clip-path-9">
      <path id="Trazado_236725" data-name="Trazado 236725" d="M32.774,160.885a.418.418,0,1,0,.413.727,10.767,10.767,0,0,1,7.341-.974,9.242,9.242,0,0,1,5.505,4.754c4.635,8.3,7.069,12.088,7.093,12.126a.418.418,0,1,0,.7-.453c-.023-.039-2.446-3.809-7.065-12.08a10.042,10.042,0,0,0-6.019-5.155,9.281,9.281,0,0,0-2.5-.334,12.094,12.094,0,0,0-5.47,1.389" transform="translate(-32.563 -159.496)" fill="none"/>
    </clipPath>
    <linearGradient id="linear-gradient-9" x1="-0.953" y1="2.902" x2="-0.921" y2="2.902" xlink:href="#linear-gradient-2"/>
    <clipPath id="clip-path-10">
      <path id="Trazado_236726" data-name="Trazado 236726" d="M41.578,133.879c-.794,2.688,2.742,9.251,2.742,9.251,2.257,4.259,6.422,6.722,11.366,5.86s4.023-3.636,3.785-7.912-3.785-12.422-3.785-12.422-13.315,2.535-14.108,5.222" transform="translate(-41.462 -128.657)" fill="none"/>
    </clipPath>
    <linearGradient id="linear-gradient-10" x1="-1.062" y1="3.664" x2="-1.032" y2="3.664" xlink:href="#linear-gradient-3"/>
    <clipPath id="clip-path-11">
      <path id="Trazado_236727" data-name="Trazado 236727" d="M55.7,118.446l-.206.39a.336.336,0,0,1-.62-.063.335.335,0,0,0-.605-.086c-.594.951-2.2,2.495-6.49,3.286-6.1,1.126-10.132,3.595-10.232,7.809a.337.337,0,0,1-.52.277c-.451-.275-1.171-.4-2.135.407-1.675,1.408-.99,5.063,2.683,8.068a.333.333,0,0,1-.015.538c-.666.433-1.659,1.465.913,2.839a8.654,8.654,0,0,0,5.411,1.179.334.334,0,0,0,.271-.4l-.816-3.7a.337.337,0,0,1,.329-.408H44.94l.281-.123a.679.679,0,0,0,.332-.932c-.7-1.348-2.057-4.434-.3-5.154,2.263-.929,11.226-2.756,13.161-5.937a5.918,5.918,0,0,0-2.263-8.125.35.35,0,0,0-.147-.033.335.335,0,0,0-.3.178" transform="translate(-34.029 -118.268)" fill="none"/>
    </clipPath>
    <linearGradient id="linear-gradient-11" x1="-0.639" y1="3.204" x2="-0.616" y2="3.204" gradientUnits="objectBoundingBox">
      <stop offset="0" stop-color="#09005d"/>
      <stop offset="1" stop-color="#1a0f91"/>
    </linearGradient>
    <clipPath id="clip-path-12">
      <path id="Trazado_236728" data-name="Trazado 236728" d="M42.519,138.482c-2.334,1.459,1.21,5.83,3.087,6.026l.6-2.281s-1.041-4-2.87-4a1.525,1.525,0,0,0-.816.258" transform="translate(-41.749 -138.224)" fill="none"/>
    </clipPath>
    <linearGradient id="linear-gradient-12" x1="-3.824" y1="10.986" x2="-3.725" y2="10.986" xlink:href="#linear-gradient-3"/>
    <clipPath id="clip-path-13">
      <path id="Trazado_236729" data-name="Trazado 236729" d="M96.573,202.054a5.943,5.943,0,0,0-1.819,2.988s4.8,4.7,5.733,4.015a16.884,16.884,0,0,0,1.97-2.111,2.065,2.065,0,0,0,.14-2.431l-1.133-1.749a3.3,3.3,0,0,0-2.77-1.506,3.211,3.211,0,0,0-2.12.794" transform="translate(-94.754 -201.26)" fill="none"/>
    </clipPath>
    <linearGradient id="linear-gradient-13" x1="-9.736" y1="4.699" x2="-9.634" y2="4.699" xlink:href="#linear-gradient"/>
    <clipPath id="clip-path-14">
      <path id="Trazado_236731" data-name="Trazado 236731" d="M169.069,145.544l4.369,10.5a2.093,2.093,0,0,0,1.58,1.257c2.519.432,8.612,1.108,12.614-1.524a1.017,1.017,0,0,0,.272-1.43l-8.072-11.59Z" transform="translate(-169.069 -142.755)" fill="none"/>
    </clipPath>
    <linearGradient id="linear-gradient-14" x1="-6.172" y1="4.429" x2="-6.135" y2="4.429" xlink:href="#linear-gradient"/>
    <clipPath id="clip-path-15">
      <path id="Trazado_236736" data-name="Trazado 236736" d="M196.642,175.7a.279.279,0,0,0-.042.392c7.038,8.774,11.739,17.9,13.971,27.117a.278.278,0,0,0,.271.214.3.3,0,0,0,.066-.008.28.28,0,0,0,.205-.337c-2.251-9.3-6.988-18.5-14.078-27.335a.279.279,0,0,0-.393-.043" transform="translate(-196.538 -175.642)" fill="none"/>
    </clipPath>
    <linearGradient id="linear-gradient-15" x1="-5.108" y1="2.255" x2="-5.081" y2="2.255" gradientUnits="objectBoundingBox">
      <stop offset="0" stop-color="#e1473d"/>
      <stop offset="1" stop-color="#e9605a"/>
    </linearGradient>
    <clipPath id="clip-path-16">
      <path id="Trazado_236737" data-name="Trazado 236737" d="M211.373,207.657a43.733,43.733,0,0,1,1.243,14.525,1.918,1.918,0,0,1-1.773,1.717c-1.057.074-2.5.171-3.781.245a7.059,7.059,0,0,1-4.03-1.558.631.631,0,0,0-.93.8c.783,1.531,2.77,2.894,4.139,3.7a.654.654,0,0,1-.15,1.194l-5.856,1.659c9.622,9.065,15.975-1.078,15.975-1.078a45.885,45.885,0,0,0,7.246-19.042,10.212,10.212,0,0,0-7.44-2.845,16.994,16.994,0,0,0-4.643.687" transform="translate(-200.235 -206.97)" fill="none"/>
    </clipPath>
    <linearGradient id="linear-gradient-16" x1="-4.836" y1="1.217" x2="-4.811" y2="1.217" xlink:href="#linear-gradient"/>
    <clipPath id="clip-path-17">
      <path id="Trazado_236738" data-name="Trazado 236738" d="M173.045,127.156c-.183.172-7.745,15.021-7.745,15.021l8.571,4.137,9.256-13.009s-5.21-6.719-8.615-6.72a2.065,2.065,0,0,0-1.467.571" transform="translate(-165.3 -126.585)" fill="none"/>
    </clipPath>
    <linearGradient id="linear-gradient-17" x1="-6.204" y1="5" x2="-6.166" y2="5" xlink:href="#linear-gradient"/>
    <clipPath id="clip-path-18">
      <path id="Trazado_236739" data-name="Trazado 236739" d="M169.645,124.113c-.824,2.8,3.311,4.773,5.912,5.1,1.91.242,2.958,2.327,3.38,3.417a1.37,1.37,0,0,1-.1,1.2l-4.274,7.125a1.33,1.33,0,0,1-.235.292c-.508.474-2.25,1.852-3.6-.025-1.147-1.6-2.224-3.052-3.377-3.651a1.367,1.367,0,0,0-1.844.607,51.125,51.125,0,0,0-2.925,6.94,1.36,1.36,0,0,0,.792,1.668,37.9,37.9,0,0,0,8.209,2.394,1.367,1.367,0,0,0,1.293-.549c1.309-1.794,5-6.807,6.259-8.062,1.17-1.166,3.33-.726,4.3-.447a1.372,1.372,0,0,0,1.091-.143,3.011,3.011,0,0,0,1.134-4.583,1.369,1.369,0,0,1,.423-1.858,3.024,3.024,0,0,0,1.16-4.29,4.263,4.263,0,0,0-4.617-2.26,1.42,1.42,0,0,1-1.49-.829.9.9,0,0,0-.705-.555,1.329,1.329,0,0,1-1.074-1.559,3.5,3.5,0,0,0-1.954-4.011,4.745,4.745,0,0,0-2.309-.628c-2.674,0-4.806,2.511-5.452,4.7" transform="translate(-162.519 -119.409)" fill="none"/>
    </clipPath>
    <linearGradient id="linear-gradient-18" x1="-3.357" y1="2.904" x2="-3.336" y2="2.904" xlink:href="#linear-gradient-11"/>
    <clipPath id="clip-path-19">
      <path id="Trazado_236740" data-name="Trazado 236740" d="M180.054,146.408s1.657,2.928,4.9,0c2.608-2.357.952-4.454-1.153-4.63q-.057-.005-.113-.005c-2.05,0-3.636,4.639-3.636,4.639" transform="translate(-180.054 -141.769)" fill="none"/>
    </clipPath>
    <linearGradient id="linear-gradient-19" x1="-19.528" y1="11.621" x2="-19.419" y2="11.621" xlink:href="#linear-gradient"/>
    <clipPath id="clip-path-20">
      <rect id="Rectángulo_100936" data-name="Rectángulo 100936" width="8.584" height="5.109" fill="none"/>
    </clipPath>
  </defs>
  <g id="Grupo_179533" data-name="Grupo 179533" transform="translate(9528.101 12054.664)">
    <g id="Grupo_175766" data-name="Grupo 175766" transform="translate(-9447.157 -11976.383)">
      <g id="Grupo_175765" data-name="Grupo 175765" transform="translate(0 0)" clip-path="url(#clip-path)">
        <rect id="Rectángulo_100913" data-name="Rectángulo 100913" width="33.167" height="12.279" fill="url(#linear-gradient)"/>
      </g>
    </g>
    <path id="Trazado_236716" data-name="Trazado 236716" d="M160.627,158.967s-13.242,16.678-30.27,26.317a45.763,45.763,0,0,0,3.29,9.917c8.833-1.449,19.058-4.909,27.725-12.6Z" transform="translate(-9547.637 -12161.669)" fill="#fedc72"/>
    <g id="Grupo_175770" data-name="Grupo 175770" transform="translate(-9486.255 -12000.495)">
      <g id="Grupo_175769" data-name="Grupo 175769" transform="translate(0 0)" clip-path="url(#clip-path-2)">
        <rect id="Rectángulo_100915" data-name="Rectángulo 100915" width="27.008" height="26.868" transform="matrix(0.7, -0.714, 0.714, 0.7, -11.985, 12.229)" fill="url(#linear-gradient-2)"/>
      </g>
    </g>
    <g id="Grupo_175772" data-name="Grupo 175772" transform="translate(-9478.758 -12000.871)">
      <g id="Grupo_175771" data-name="Grupo 175771" transform="translate(0 0)" clip-path="url(#clip-path-3)">
        <rect id="Rectángulo_100916" data-name="Rectángulo 100916" width="49.546" height="45.827" transform="matrix(0.895, -0.445, 0.445, 0.895, -12.535, 6.236)" fill="url(#linear-gradient-3)"/>
      </g>
    </g>
    <g id="Grupo_175774" data-name="Grupo 175774" transform="translate(-9440.02 -12003.774)">
      <g id="Grupo_175773" data-name="Grupo 175773" transform="translate(0 0)" clip-path="url(#clip-path-4)">
        <rect id="Rectángulo_100917" data-name="Rectángulo 100917" width="12.012" height="12.256" transform="matrix(0.692, -0.722, 0.722, 0.692, -2.301, 2.403)" fill="url(#linear-gradient-4)"/>
      </g>
    </g>
    <g id="Grupo_175776" data-name="Grupo 175776" transform="translate(-9442.883 -12003.185)">
      <g id="Grupo_175775" data-name="Grupo 175775" transform="translate(0 0)" clip-path="url(#clip-path-5)">
        <rect id="Rectángulo_100918" data-name="Rectángulo 100918" width="24.645" height="17.499" transform="matrix(0.895, -0.445, 0.445, 0.895, -3.101, 1.543)" fill="url(#linear-gradient-5)"/>
      </g>
    </g>
    <path id="Trazado_236721" data-name="Trazado 236721" d="M1.089,233.388s-4.106-58.617,25.825-76.843c0,0,8.368-5.524,18.8,5.175s7.069,21.813-1.681,32.23-17.663,29.023-15.542,39.439Z" transform="translate(-9529 -12161.114)" fill="#5038a1"/>
    <g id="Grupo_175780" data-name="Grupo 175780" transform="translate(-9496.976 -12020.536)">
      <g id="Grupo_175779" data-name="Grupo 175779" transform="translate(0 0)" clip-path="url(#clip-path-6)">
        <rect id="Rectángulo_100920" data-name="Rectángulo 100920" width="26.032" height="23.926" transform="translate(-6.858 18.729) rotate(-69.887)" fill="url(#linear-gradient-6)"/>
      </g>
    </g>
    <g id="Grupo_175782" data-name="Grupo 175782" transform="translate(-9490.921 -11983.861)">
      <g id="Grupo_175781" data-name="Grupo 175781" transform="translate(0 0)" clip-path="url(#clip-path-7)">
        <rect id="Rectángulo_100921" data-name="Rectángulo 100921" width="62.878" height="56.509" transform="matrix(0.806, -0.592, 0.592, 0.806, -13.252, 9.744)" fill="url(#linear-gradient-7)"/>
      </g>
    </g>
    <g id="Grupo_175784" data-name="Grupo 175784" transform="translate(-9503.984 -11986.845)">
      <g id="Grupo_175783" data-name="Grupo 175783" transform="translate(0 0)" clip-path="url(#clip-path-8)">
        <rect id="Rectángulo_100922" data-name="Rectángulo 100922" width="19.157" height="18.337" transform="matrix(0.503, -0.865, 0.865, 0.503, -6.508, 11.095)" fill="url(#linear-gradient-8)"/>
      </g>
    </g>
    <g id="Grupo_175786" data-name="Grupo 175786" transform="translate(-9500.995 -12002.249)">
      <g id="Grupo_175785" data-name="Grupo 175785" transform="translate(0 0)" clip-path="url(#clip-path-9)">
        <rect id="Rectángulo_100923" data-name="Rectángulo 100923" width="26.529" height="27.7" transform="matrix(0.503, -0.865, 0.865, 0.503, -7.974, 13.613)" fill="url(#linear-gradient-9)"/>
      </g>
    </g>
    <g id="Grupo_175788" data-name="Grupo 175788" transform="translate(-9493.377 -12028.647)">
      <g id="Grupo_175787" data-name="Grupo 175787" transform="translate(0 0)" clip-path="url(#clip-path-10)">
        <rect id="Rectángulo_100924" data-name="Rectángulo 100924" width="28.64" height="28.892" transform="matrix(0.794, -0.608, 0.608, 0.794, -10.906, 7.827)" fill="url(#linear-gradient-10)"/>
      </g>
    </g>
    <g id="Grupo_175790" data-name="Grupo 175790" transform="translate(-9499.74 -12037.541)">
      <g id="Grupo_175789" data-name="Grupo 175789" transform="translate(0 0)" clip-path="url(#clip-path-11)">
        <rect id="Rectángulo_100925" data-name="Rectángulo 100925" width="36.738" height="36.388" transform="translate(-12.952 9.431) rotate(-37.837)" fill="url(#linear-gradient-11)"/>
      </g>
    </g>
    <g id="Grupo_175792" data-name="Grupo 175792" transform="translate(-9493.131 -12020.458)">
      <g id="Grupo_175791" data-name="Grupo 175791" transform="translate(0 0)" clip-path="url(#clip-path-12)">
        <rect id="Rectángulo_100926" data-name="Rectángulo 100926" width="8.599" height="8.648" transform="matrix(0.794, -0.608, 0.608, 0.794, -4.597, 2.32)" fill="url(#linear-gradient-12)"/>
      </g>
    </g>
    <g id="Grupo_175794" data-name="Grupo 175794" transform="translate(-9447.757 -11966.496)">
      <g id="Grupo_175793" data-name="Grupo 175793" transform="translate(0 0)" clip-path="url(#clip-path-13)">
        <rect id="Rectángulo_100927" data-name="Rectángulo 100927" width="8.331" height="8.483" transform="translate(0 0)" fill="url(#linear-gradient-13)"/>
      </g>
    </g>
    <path id="Trazado_236730" data-name="Trazado 236730" d="M180.953,233.5a104.954,104.954,0,0,0-12.868-43.789,34.949,34.949,0,0,1-4.009-22.5l1.345-8.689a65.068,65.068,0,0,1,35.53-.24s25.9,20.538,8.59,75.214Z" transform="translate(-9552.431 -12161.229)" fill="#fedc72"/>
    <g id="Grupo_175798" data-name="Grupo 175798" transform="translate(-9384.141 -12016.579)">
      <g id="Grupo_175797" data-name="Grupo 175797" transform="translate(0 0)" clip-path="url(#clip-path-14)">
        <rect id="Rectángulo_100929" data-name="Rectángulo 100929" width="23.128" height="20.907" transform="translate(-4.695 1.565) rotate(-18.435)" fill="url(#linear-gradient-14)"/>
      </g>
    </g>
    <path id="Trazado_236732" data-name="Trazado 236732" d="M181.536,201.559a.97.97,0,0,0-.613,1.387l12.641,24.239a.97.97,0,0,0,1.129.484l41.35-11.938a.971.971,0,0,0,.663-1.2l-7.122-24.657a.97.97,0,0,0-1.18-.669Z" transform="translate(-9554.9 -12166.016)" fill="#7d97f4"/>
    <path id="Trazado_236733" data-name="Trazado 236733" d="M184.643,198.482a1.015,1.015,0,0,0-.717,1.339l10.118,27.487a1.016,1.016,0,0,0,1.235.624l41.224-11.9a1.015,1.015,0,0,0,.711-1.19L231.5,188.385a1.016,1.016,0,0,0-1.228-.774Z" transform="translate(-9555.34 -12165.788)" fill="#bdd0fb"/>
    <path id="Trazado_236734" data-name="Trazado 236734" d="M188.789,196.017a1.255,1.255,0,0,0-1.034,1.524l6.872,29.674a1.256,1.256,0,0,0,1.572.923l40.6-11.723a1.255,1.255,0,0,0,.867-1.52l-6.244-24.221a1.255,1.255,0,0,0-1.4-.928Z" transform="translate(-9555.896 -12166.097)" fill="#8c6df2"/>
    <path id="Trazado_236735" data-name="Trazado 236735" d="M222.971,203.212c3.151-23.8-15.193-42.107-15.193-42.107l-10.914,12.723c8.286,10.328,12.225,19.793,14.025,27.226,2.386-.7,8.131-1.793,12.082,2.157" transform="translate(-9557.211 -12161.976)" fill="#fedc72"/>
    <g id="Grupo_175802" data-name="Grupo 175802" transform="translate(-9360.627 -11988.427)">
      <g id="Grupo_175801" data-name="Grupo 175801" transform="translate(0 0)" clip-path="url(#clip-path-15)">
        <rect id="Rectángulo_100931" data-name="Rectángulo 100931" width="31.299" height="27.303" transform="translate(-12.643 19.727) rotate(-57.417)" fill="url(#linear-gradient-15)"/>
      </g>
    </g>
    <g id="Grupo_175804" data-name="Grupo 175804" transform="translate(-9357.461 -11961.608)">
      <g id="Grupo_175803" data-name="Grupo 175803" transform="translate(0 0)" clip-path="url(#clip-path-16)">
        <rect id="Rectángulo_100932" data-name="Rectángulo 100932" width="34.297" height="26.464" transform="translate(-3.354 31.675) rotate(-83.956)" fill="url(#linear-gradient-16)"/>
      </g>
    </g>
    <g id="Grupo_175806" data-name="Grupo 175806" transform="translate(-9387.367 -12030.421)">
      <g id="Grupo_175805" data-name="Grupo 175805" transform="translate(0 0)" clip-path="url(#clip-path-17)">
        <rect id="Rectángulo_100933" data-name="Rectángulo 100933" width="22.437" height="20.88" transform="translate(-3.259 19.175) rotate(-80.355)" fill="url(#linear-gradient-17)"/>
      </g>
    </g>
    <g id="Grupo_175808" data-name="Grupo 175808" transform="translate(-9389.748 -12036.564)">
      <g id="Grupo_175807" data-name="Grupo 175807" transform="translate(0 0)" clip-path="url(#clip-path-18)">
        <rect id="Rectángulo_100934" data-name="Rectángulo 100934" width="39.401" height="39.565" transform="matrix(0.728, -0.685, 0.685, 0.728, -15.046, 14.021)" fill="url(#linear-gradient-18)"/>
      </g>
    </g>
    <g id="Grupo_175810" data-name="Grupo 175810" transform="translate(-9374.737 -12017.424)">
      <g id="Grupo_175809" data-name="Grupo 175809" transform="translate(0 0)" clip-path="url(#clip-path-19)">
        <rect id="Rectángulo_100935" data-name="Rectángulo 100935" width="7.883" height="7.829" transform="translate(-0.325 7.553) rotate(-87.535)" fill="url(#linear-gradient-19)"/>
      </g>
    </g>
    <path id="Trazado_236741" data-name="Trazado 236741" d="M80.423,130.96l.633,19.68a6.4,6.4,0,0,0,6.376,6.183l47.128.277a4.619,4.619,0,0,0,4.605-3.931,86.434,86.434,0,0,0,.619-22.209Z" transform="translate(-9540.448 -12157.636)" fill="#8c6df2"/>
    <path id="Trazado_236742" data-name="Trazado 236742" d="M133.8,155.952a.141.141,0,0,1-.005-.282,4.208,4.208,0,0,0,.81-.108.141.141,0,0,1,.062.275,4.611,4.611,0,0,1-.861.115Zm-1.968-.008h0l-.845,0a.141.141,0,0,1,0-.282h0l.845.005a.14.14,0,0,1,0,.281m-2.812-.016h0l-.843-.005a.14.14,0,0,1,0-.281h0l.844.005a.14.14,0,0,1,0,.281m-2.813-.017h0l-.844,0a.141.141,0,0,1,0-.282h0l.845.005a.14.14,0,0,1,0,.281m-2.812-.016h0l-.843-.005a.141.141,0,0,1-.14-.141.149.149,0,0,1,.142-.14l.843.005a.14.14,0,1,1,0,.281m-2.813-.016h0l-.844-.005a.14.14,0,0,1,0-.281h0l.843,0a.141.141,0,0,1,0,.282m-2.812-.017h0l-.843,0a.141.141,0,0,1,0-.282h0l.843.005a.14.14,0,1,1,0,.281m-2.814-.016h0l-.844-.005a.14.14,0,0,1,0-.281h0l.843.005a.14.14,0,1,1,0,.281m-2.811-.016h0l-.844-.005a.14.14,0,0,1,0-.281h0l.843,0a.141.141,0,0,1,0,.282m-2.814-.017h0l-.844,0a.141.141,0,1,1,0-.282h0l.843.005a.14.14,0,1,1,0,.281m-2.812-.016h0l-.844-.005a.14.14,0,0,1,0-.281h0l.844.005a.14.14,0,0,1,0,.281m-2.812-.016h0l-.843-.005a.14.14,0,1,1,0-.281h0l.843,0a.141.141,0,1,1,0,.282m-2.813-.017h0l-.844,0a.141.141,0,0,1,0-.282h0l.844.005a.14.14,0,0,1,0,.281m-2.813-.016h0l-.843-.005a.14.14,0,1,1,0-.281h0l.843,0a.141.141,0,1,1,0,.282m-2.812-.016h0l-.844-.005a.14.14,0,0,1-.14-.141.156.156,0,0,1,.141-.14l.844.005a.141.141,0,0,1,0,.282m-2.813-.017h0l-.842-.005a.14.14,0,1,1,0-.281l.845.005a.14.14,0,0,1,0,.281m-2.812-.016h0l-.844-.005a.14.14,0,0,1,0-.281h0l.844,0a.142.142,0,0,1,.14.142.14.14,0,0,1-.14.14m-2.78-.314a.16.16,0,0,1-.044-.007,6.31,6.31,0,0,1-.8-.327.141.141,0,0,1,.125-.253,5.984,5.984,0,0,0,.762.312.14.14,0,0,1,.089.177.141.141,0,0,1-.134.1m49.529-.394a.141.141,0,0,1-.089-.25,4.279,4.279,0,0,0,.586-.568.139.139,0,0,1,.2-.016.141.141,0,0,1,.016.2,4.592,4.592,0,0,1-.625.605.132.132,0,0,1-.086.031m-51.9-1.062a.143.143,0,0,1-.1-.04,6.4,6.4,0,0,1-.57-.648.14.14,0,0,1,.223-.17,6,6,0,0,0,.545.618.141.141,0,0,1-.1.241M137.9,152.67a.178.178,0,0,1-.035,0,.141.141,0,0,1-.1-.171,4.092,4.092,0,0,0,.09-.443l.056-.373a.139.139,0,0,1,.158-.119.141.141,0,0,1,.12.159l-.056.375a4.459,4.459,0,0,1-.1.471.141.141,0,0,1-.136.105m-54.888-1.106a.139.139,0,0,1-.133-.1,6.04,6.04,0,0,1-.222-.834.141.141,0,0,1,.276-.053,6.252,6.252,0,0,0,.21.8.141.141,0,0,1-.086.179.178.178,0,0,1-.045.007m55.3-1.676h-.016a.141.141,0,0,1-.123-.157c.033-.272.068-.551.1-.837a.14.14,0,1,1,.278.033q-.049.429-.1.839a.141.141,0,0,1-.14.123m-55.65-1.1a.141.141,0,0,1-.14-.136l-.027-.844a.141.141,0,0,1,.136-.145.146.146,0,0,1,.146.136l.026.843a.14.14,0,0,1-.134.146Zm55.959-1.7H138.6a.142.142,0,0,1-.127-.153q.041-.413.077-.84a.143.143,0,0,1,.153-.128.14.14,0,0,1,.127.152c-.025.284-.05.565-.077.841a.14.14,0,0,1-.139.128m-56.049-1.115a.14.14,0,0,1-.14-.136L82.4,145a.141.141,0,0,1,.136-.145.142.142,0,0,1,.145.136l.027.843a.14.14,0,0,1-.136.146Zm56.276-1.69h-.01a.142.142,0,0,1-.131-.15c.02-.277.037-.557.053-.841a.138.138,0,0,1,.147-.133.141.141,0,0,1,.133.148q-.024.426-.051.844a.141.141,0,0,1-.14.131m-56.366-1.121a.142.142,0,0,1-.14-.136l-.027-.843a.141.141,0,0,1,.282-.009l.026.843a.141.141,0,0,1-.136.146Zm56.508-1.687h-.006a.143.143,0,0,1-.136-.146c.009-.279.019-.56.025-.842a.151.151,0,0,1,.144-.137.139.139,0,0,1,.137.144c-.007.283-.015.565-.025.845a.139.139,0,0,1-.139.136m-56.6-1.124a.141.141,0,0,1-.14-.136l-.027-.843a.141.141,0,0,1,.137-.146.147.147,0,0,1,.144.136l.027.844a.141.141,0,0,1-.136.145Zm56.645-1.689a.141.141,0,0,1-.141-.14c0-.28,0-.56-.006-.842a.142.142,0,0,1,.14-.142.149.149,0,0,1,.143.139c0,.283,0,.565.005.845A.141.141,0,0,1,139.03,138.666ZM82.3,137.543a.141.141,0,0,1-.14-.136l-.027-.843a.14.14,0,0,1,.135-.146.147.147,0,0,1,.145.136l.028.844a.141.141,0,0,1-.137.145Zm56.676-1.689a.141.141,0,0,1-.141-.135c-.011-.28-.025-.56-.039-.841a.14.14,0,1,1,.28-.015q.023.422.041.845a.141.141,0,0,1-.134.146ZM82.2,134.732a.141.141,0,0,1-.14-.136l-.027-.843a.141.141,0,0,1,.136-.146.146.146,0,0,1,.146.137l.026.842a.14.14,0,0,1-.134.146Zm56.586-1.685a.141.141,0,0,1-.14-.128c-.024-.279-.052-.559-.081-.838a.141.141,0,0,1,.281-.029c.028.281.056.562.08.842a.141.141,0,0,1-.127.152h-.013m-56.677-1.127a.139.139,0,0,1-.14-.136l-.027-.843a.141.141,0,0,1,.136-.146.149.149,0,0,1,.145.137l.027.843a.14.14,0,0,1-.136.145Zm55.634-.843H136.9a.141.141,0,0,1,0-.282h.844a.141.141,0,0,1,0,.282m-2.813,0h-.843a.141.141,0,0,1,0-.282h.843a.141.141,0,0,1,0,.282m-2.812,0h-.845a.141.141,0,0,1,0-.282h.845a.141.141,0,0,1,0,.282m-2.813,0h-.844a.141.141,0,0,1,0-.282h.844a.141.141,0,0,1,0,.282m-2.812,0h-.845a.141.141,0,0,1,0-.282h.845a.141.141,0,0,1,0,.282m-2.814,0h-.842a.141.141,0,1,1,0-.282h.842a.141.141,0,1,1,0,.282m-2.811,0h-.845a.141.141,0,0,1,0-.282h.845a.141.141,0,0,1,0,.282m-2.814,0h-.844a.141.141,0,0,1,0-.282h.844a.141.141,0,0,1,0,.282m-2.812,0H114.4a.141.141,0,0,1,0-.282h.844a.141.141,0,0,1,0,.282m-2.813,0h-.843a.141.141,0,1,1,0-.282h.843a.141.141,0,0,1,0,.282m-2.813,0h-.843a.141.141,0,1,1,0-.282h.843a.141.141,0,1,1,0,.282m-2.812,0h-.843a.141.141,0,1,1,0-.282h.843a.141.141,0,0,1,0,.282m-2.813,0h-.844a.141.141,0,0,1,0-.282H104a.141.141,0,0,1,0,.282m-2.812,0h-.843a.141.141,0,0,1,0-.282h.843a.141.141,0,0,1,0,.282m-2.813,0h-.844a.141.141,0,0,1,0-.282h.844a.141.141,0,1,1,0,.282m-2.813,0h-.843a.141.141,0,1,1,0-.282h.843a.141.141,0,1,1,0,.282m-2.811,0H91.9a.141.141,0,0,1,0-.282h.845a.141.141,0,0,1,0,.282m-2.814,0H89.09a.141.141,0,1,1,0-.282h.843a.141.141,0,0,1,0,.282m-2.811,0h-.844a.141.141,0,1,1,0-.282h.844a.141.141,0,0,1,0,.282m-2.814,0h-.844a.141.141,0,0,1,0-.282h.844a.141.141,0,0,1,0,.282" transform="translate(-9540.667 -12157.613)" fill="#fff"/>
    <path id="Trazado_236743" data-name="Trazado 236743" d="M96.557,113.859l.142-1.518a1.167,1.167,0,0,1,.885-.681c1.468-.234,5.109-.645,6.862.666l.262,1.763Z" transform="translate(-9542.771 -12154.821)" fill="#8c6df2"/>
    <path id="Trazado_236744" data-name="Trazado 236744" d="M101.625,111.616a2.114,2.114,0,0,1-1.016,0,.919.919,0,0,1-.7-.889v-4.753h2.419v4.749a.922.922,0,0,1-.7.894" transform="translate(-9543.254 -12154.039)" fill="#8c6df2"/>
    <path id="Trazado_236745" data-name="Trazado 236745" d="M123.922,113.859l.142-1.518a1.167,1.167,0,0,1,.884-.681c1.469-.234,5.11-.645,6.863.666l.262,1.763Z" transform="translate(-9546.711 -12154.821)" fill="#8c6df2"/>
    <path id="Trazado_236746" data-name="Trazado 236746" d="M128.991,111.532a2.114,2.114,0,0,1-1.016,0,.919.919,0,0,1-.7-.889v-5.254h2.419v5.25a.922.922,0,0,1-.7.894" transform="translate(-9547.192 -12153.955)" fill="#8c6df2"/>
    <path id="Trazado_236747" data-name="Trazado 236747" d="M99.412,106.029l26.011-.861a1.254,1.254,0,0,0,1.2-1.029,10.606,10.606,0,0,0,.081-3.3,3,3,0,0,0-2.909-2.539c-4.852-.116-17.2-.112-24.013,2.581a2.379,2.379,0,0,0-1.436,1.65,5.769,5.769,0,0,0-.062,2.641,1.119,1.119,0,0,0,1.131.854" transform="translate(-9543.001 -12152.93)" fill="#8c6df2"/>
    <g id="Grupo_175813" data-name="Grupo 175813" transform="translate(-9444.342 -12053.194)" opacity="0.7">
      <g id="Grupo_175812" data-name="Grupo 175812" transform="translate(0 0)">
        <g id="Grupo_175811" data-name="Grupo 175811" clip-path="url(#clip-path-20)">
          <path id="Trazado_236748" data-name="Trazado 236748" d="M99.045,105.091a.282.282,0,0,1-.28-.253,6.285,6.285,0,0,1,.161-2.02,2.337,2.337,0,0,1,1.591-1.617,28.714,28.714,0,0,1,6.522-1.218.281.281,0,0,1,.016.562,28.12,28.12,0,0,0-6.38,1.2,1.769,1.769,0,0,0-1.207,1.224,5.787,5.787,0,0,0-.144,1.817.281.281,0,0,1-.252.308l-.028,0" transform="translate(-98.745 -99.982)" fill="#fff"/>
        </g>
      </g>
    </g>
    <path id="Trazado_236749" data-name="Trazado 236749" d="M81.991,113.557c8.4-.108,44.755-.49,55.314.785a2.15,2.15,0,0,1,1.848,1.665,70.979,70.979,0,0,1,1.73,15.868,1.881,1.881,0,0,1-1.541,1.8l-24.1,4.56h-8.562l-25.682-5.105a2.008,2.008,0,0,1-1.62-1.864c-.167-3.267-.428-10.935.456-15.87a2.221,2.221,0,0,1,2.16-1.834" transform="translate(-9540.272 -12155.111)" fill="#8c6df2"/>
    <path id="Trazado_236750" data-name="Trazado 236750" d="M107.207,136.62l-.028,0-.827-.164a.14.14,0,0,1-.11-.165.139.139,0,0,1,.165-.11l.82.163h.863a.14.14,0,1,1,0,.281h-.883m6.508,0h-.844a.14.14,0,0,1,0-.281h.844a.14.14,0,1,1,0,.281m-2.813,0h-.843a.14.14,0,1,1,0-.281h.843a.14.14,0,1,1,0,.281m4.776-.058a.141.141,0,0,1-.026-.279l.829-.157a.141.141,0,1,1,.052.276l-.829.157-.027,0m-11.23-.49a.1.1,0,0,1-.027,0l-.828-.164a.141.141,0,0,1,.055-.276l.828.164a.141.141,0,0,1-.027.279m13.993-.033a.14.14,0,0,1-.026-.278l.83-.158a.141.141,0,1,1,.052.276l-.83.157-.027,0m-16.751-.515-.028,0-.827-.164a.141.141,0,0,1,.055-.277l.828.165a.14.14,0,0,1-.027.278m19.515-.007a.141.141,0,0,1-.027-.279l.83-.157a.141.141,0,1,1,.052.277l-.829.157-.026,0m2.763-.523a.141.141,0,0,1-.026-.279l.829-.157a.141.141,0,0,1,.052.277l-.829.157-.027,0m-25.037-.018a.1.1,0,0,1-.027,0l-.828-.164a.141.141,0,1,1,.055-.276l.828.164a.141.141,0,0,1-.027.279m27.8-.505a.141.141,0,0,1-.026-.279l.83-.157a.141.141,0,0,1,.052.277l-.83.157-.027,0m-30.559-.044-.028,0-.827-.164a.14.14,0,0,1-.11-.165.139.139,0,0,1,.165-.11l.827.164a.141.141,0,0,1-.027.279m33.323-.479a.14.14,0,0,1-.027-.278l.829-.158a.141.141,0,0,1,.052.277l-.829.157-.026,0m-36.082-.069-.027,0-.828-.164a.141.141,0,1,1,.055-.276l.828.164a.14.14,0,0,1-.027.278m38.845-.453a.141.141,0,0,1-.026-.279l.829-.157a.141.141,0,0,1,.052.277l-.829.157-.027,0m-41.6-.1-.027,0-.828-.165a.141.141,0,1,1,.056-.276l.827.165a.14.14,0,0,1-.027.278m44.368-.428a.141.141,0,0,1-.026-.279l.829-.157a.141.141,0,0,1,.052.277l-.83.157-.027,0M87.9,132.781l-.027,0-.828-.164a.141.141,0,0,1,.055-.276l.828.164a.14.14,0,0,1-.027.278m49.89-.4a.141.141,0,0,1-.027-.279l.83-.157a.141.141,0,0,1,.052.277l-.829.157-.026,0m-52.649-.146-.027,0-.828-.165a.141.141,0,1,1,.056-.276l.827.164a.141.141,0,0,1-.027.279m-2.758-.549-.027,0-.715-.142-.017-.335a.14.14,0,0,1,.134-.146.133.133,0,0,1,.147.134l.006.115.5.1a.14.14,0,0,1-.027.278m56.761-1a.141.141,0,0,1-.141-.139c0-.281-.009-.562-.017-.841a.141.141,0,0,1,.136-.146.147.147,0,0,1,.145.137c.009.281.015.563.018.846a.14.14,0,0,1-.139.142Zm-57.462-1.311a.141.141,0,0,1-.14-.136q-.013-.407-.026-.844a.141.141,0,0,1,.137-.145.148.148,0,0,1,.145.137c.008.29.016.572.026.842a.142.142,0,0,1-.136.146Zm57.35-1.5a.14.14,0,0,1-.14-.131q-.027-.424-.06-.841a.141.141,0,0,1,.129-.151.139.139,0,0,1,.152.128c.021.28.042.562.06.844a.141.141,0,0,1-.131.15h-.009M81.615,126.56a.14.14,0,0,1-.14-.139c0-.277-.005-.56-.007-.845a.141.141,0,1,1,.282,0c0,.284,0,.566.007.842a.141.141,0,0,1-.14.142Zm57.171-1.489a.141.141,0,0,1-.14-.125q-.046-.424-.1-.837a.142.142,0,0,1,.123-.157.14.14,0,0,1,.157.123c.033.276.065.556.1.84a.14.14,0,0,1-.125.155h-.015m-57.167-1.324h0a.14.14,0,0,1-.139-.142c0-.281.01-.563.017-.846a.144.144,0,0,1,.145-.137.141.141,0,0,1,.137.145c-.008.281-.013.562-.017.842a.141.141,0,0,1-.141.138m56.811-1.466a.14.14,0,0,1-.14-.12c-.042-.284-.084-.562-.127-.833a.14.14,0,0,1,.277-.045q.064.408.128.836a.142.142,0,0,1-.118.16h-.021m-56.719-1.345H81.7a.139.139,0,0,1-.133-.147q.022-.425.05-.844a.138.138,0,0,1,.15-.131.141.141,0,0,1,.131.149c-.019.278-.035.559-.05.841a.141.141,0,0,1-.14.134m56.26-1.431a.142.142,0,0,1-.139-.116c-.053-.29-.105-.567-.156-.828a.14.14,0,1,1,.276-.054q.077.394.158.831a.141.141,0,0,1-.113.163l-.026,0m-56.04-1.373h-.015a.14.14,0,0,1-.124-.155c.032-.286.066-.568.1-.841a.137.137,0,0,1,.158-.12.14.14,0,0,1,.121.158q-.055.408-.1.835a.14.14,0,0,1-.14.125m55.363-1.272h-.016c-.26-.03-.539-.061-.836-.09a.14.14,0,0,1-.126-.153.142.142,0,0,1,.153-.127c.3.03.58.06.841.091a.14.14,0,0,1-.016.28m-2.8-.253h-.01q-.406-.03-.841-.057a.141.141,0,0,1,.018-.281q.437.027.843.057a.141.141,0,0,1-.01.281m-2.808-.168h-.007l-.842-.04a.141.141,0,1,1,.013-.281l.843.04a.14.14,0,0,1-.007.281m-2.81-.122h-.006l-.842-.031a.141.141,0,0,1-.136-.146.147.147,0,0,1,.146-.136l.844.031a.141.141,0,0,1-.005.282m-2.812-.094h0l-.843-.024a.14.14,0,0,1-.136-.144.136.136,0,0,1,.144-.137l.844.024a.14.14,0,0,1,0,.281m-2.811-.073h0l-.843-.019a.14.14,0,0,1,0-.281h0l.843.019a.14.14,0,0,1,0,.281m-2.812-.056h0l-.844-.015a.14.14,0,0,1,0-.281h0l.844.015a.14.14,0,0,1,0,.281m-37.415,0a.14.14,0,0,1-.14-.139.142.142,0,0,1,.139-.143l.845-.01h0a.141.141,0,0,1,0,.282l-.845.01Zm2.814-.033a.14.14,0,0,1,0-.281l.844-.009h0a.14.14,0,0,1,0,.281l-.844.009Zm31.788-.012h0l-.844-.01a.141.141,0,0,1,0-.282h0l.843.011a.14.14,0,0,1,0,.281m-28.974-.015a.14.14,0,1,1,0-.281l.844-.008h0a.141.141,0,0,1,0,.282l-.844.007Zm26.161-.017h0l-.844-.009a.14.14,0,0,1,0-.281h0l.844.008a.141.141,0,0,1,0,.282m-23.349-.005a.141.141,0,0,1,0-.282l.844-.006h0a.141.141,0,0,1,0,.282l-.844.006ZM112,115.991h0l-.844-.006a.14.14,0,0,1,0-.281h0l.844.005a.141.141,0,0,1,0,.282m-17.722,0a.141.141,0,0,1,0-.282l.844,0h0a.14.14,0,0,1,0,.281l-.844.005Zm2.814-.015a.14.14,0,1,1,0-.281l.844,0a.141.141,0,0,1,0,.282Zm12.1,0h0l-.844,0a.141.141,0,0,1,0-.282h0l.844,0a.141.141,0,0,1,0,.282m-9.282-.008a.14.14,0,0,1,0-.281l.844,0a.141.141,0,0,1,0,.282l-.843,0Zm6.469,0h-.844a.141.141,0,0,1,0-.282l.844,0a.14.14,0,1,1,0,.281m-3.656,0a.141.141,0,0,1,0-.282h.841a.142.142,0,0,1,.142.141.139.139,0,0,1-.139.14Z" transform="translate(-9540.599 -12155.437)" fill="#fff"/>
    <path id="Trazado_236751" data-name="Trazado 236751" d="M118.623,144.738h-7.5a1.937,1.937,0,0,1-1.928-1.7l-.866-7.218a1.935,1.935,0,0,1,1.927-2.161h9.012a1.936,1.936,0,0,1,1.933,2.1l-.643,7.218a1.938,1.938,0,0,1-1.934,1.761" transform="translate(-9544.464 -12158.025)" fill="#fff"/>
    <path id="Trazado_236752" data-name="Trazado 236752" d="M118.274,144h-6.008a1.552,1.552,0,0,1-1.543-1.364l-.694-5.781a1.55,1.55,0,0,1,1.543-1.731h7.217a1.55,1.55,0,0,1,1.549,1.684l-.515,5.781A1.552,1.552,0,0,1,118.274,144" transform="translate(-9544.709 -12158.235)" fill="#8c6df2"/>
  </g>
</svg>
