<svg id="Grupo_178974" data-name="Grupo 178974" xmlns="http://www.w3.org/2000/svg" xmlns:xlink="http://www.w3.org/1999/xlink" width="295" height="285" viewBox="0 0 295 285">
  <defs>
    <clipPath id="clip-path">
      <rect id="Rectángulo_102477" data-name="Rectángulo 102477" width="295" height="285" fill="none"/>
    </clipPath>
    <clipPath id="clip-path-3">
      <rect id="Rectángulo_102470" data-name="Rectángulo 102470" width="277.014" height="264.592" transform="translate(4.523 14.789)" fill="none"/>
    </clipPath>
    <clipPath id="clip-path-4">
      <rect id="Rectángulo_102471" data-name="Rectángulo 102471" width="30.757" height="30.407" transform="translate(161.334 36.952)" fill="none"/>
    </clipPath>
    <clipPath id="clip-path-5">
      <rect id="Rectángulo_102472" data-name="Rectángulo 102472" width="84.126" height="84.126" transform="translate(207.09 72.05)" fill="none"/>
    </clipPath>
    <clipPath id="clip-path-6">
      <rect id="Rectángulo_102474" data-name="Rectángulo 102474" width="41.554" height="41.554" transform="translate(241.01 228.019)" fill="none"/>
    </clipPath>
    <clipPath id="clip-path-7">
      <rect id="Rectángulo_102475" data-name="Rectángulo 102475" width="45.543" height="45.543" transform="translate(7.375 2.472)" fill="none"/>
    </clipPath>
  </defs>
  <g id="Grupo_178991" data-name="Grupo 178991" clip-path="url(#clip-path)">
    <g id="Grupo_178990" data-name="Grupo 178990">
      <g id="Grupo_178989" data-name="Grupo 178989" clip-path="url(#clip-path)">
        <path id="Trazado_241723" data-name="Trazado 241723" d="M53.117,40.832a102.531,102.531,0,0,1,19.018-12.9C120.877,1.1,173.169,14.042,189.314,18.324c26.049,6.917,48.092,12.078,65.92,30.638,40.516,42.168,29.254,182.771-3.922,201.245C218.107,268.7,188.094,272.893,155,273.429c-1.313.064-2.289.084-3.145.107-8.28.211-59.538.738-98.354-36.757a124.242,124.242,0,0,1-22.233-29.134C2.718,155.8,8.6,79.441,53.117,40.832" fill="#e5e1f1"/>
        <g id="Grupo_178976" data-name="Grupo 178976" opacity="0.35">
          <g id="Grupo_178975" data-name="Grupo 178975">
            <g id="Grupo_178974-2" data-name="Grupo 178974" clip-path="url(#clip-path-3)">
              <path id="Trazado_241724" data-name="Trazado 241724" d="M277.337,14.978a4.3,4.3,0,0,1,.463-.118,3.047,3.047,0,0,1,3.73,3.421A5.594,5.594,0,0,1,277.3,23.25a104.615,104.615,0,0,0-22.778,7.45A124.136,124.136,0,0,0,232.79,43.351l-1.3.934-1.273.974c-.851.644-1.685,1.315-2.516,1.989q-2.5,2.009-4.879,4.172c-.8.711-1.566,1.463-2.348,2.189s-1.525,1.5-2.286,2.246c-.735.778-1.486,1.529-2.2,2.327s-1.439,1.571-2.12,2.384-1.38,1.606-2.035,2.434c-.329.413-.665.818-.984,1.235l-.949,1.253c-.646.825-1.22,1.69-1.831,2.529-.58.855-1.158,1.709-1.709,2.57-.535.87-1.094,1.724-1.582,2.6-.248.438-.508.869-.749,1.307l-.7,1.313c-.115.221-.237.434-.347.659l-.328.683-.651,1.36c-.4.922-.822,1.831-1.194,2.757a96.956,96.956,0,0,0-6.07,22.848c-1.175,7.816-1.71,15.771-2.252,24.032-.276,4.132-.529,8.338-.886,12.671-.167,2.16-.387,4.363-.62,6.586-.13,1.121-.247,2.236-.4,3.374l-.433,3.315c-1.123,8.486-2.394,17.251-4.258,26.337a187.763,187.763,0,0,1-8.008,28.352,133.1,133.1,0,0,1-6.688,14.991,115.077,115.077,0,0,1-9.444,15.1c-1.836,2.475-3.809,4.909-5.9,7.269-1.045,1.183-2.131,2.338-3.236,3.482-.555.568-1.091,1.12-1.683,1.69s-1.183,1.146-1.787,1.7a93.546,93.546,0,0,1-15.467,11.625c-1.362.813-2.733,1.6-4.122,2.328-.732.392-1.294.669-1.914.995l-1.833.937c-1.226.62-2.476,1.2-3.732,1.772s-2.533,1.1-3.806,1.642a98.321,98.321,0,0,1-15.817,5,82.97,82.97,0,0,1-16.184,2.036A76.489,76.489,0,0,1,43.613,267.74a97.657,97.657,0,0,1-20.8-17.317,117.719,117.719,0,0,1-8.5-10.386c-1.328-1.834-2.612-3.719-3.868-5.7-.627-1-1.252-2.009-1.877-3.087-.313-.539-.624-1.088-.946-1.684l-.494-.937-.264-.532-.155-.327-.215-.493c-6.258-16.563,2.868-38.938,20.38-49.97s36.783-6.548,43.041,10.015l-.088-.167c-.024-.039-.022-.014-.022-.014l-.009.013c-.013.009,0,.073,0,.112a3.075,3.075,0,0,0,.046.345c.038.256.106.555.172.851.138.6.305,1.248.49,1.893.379,1.3.81,2.634,1.284,3.951a70.1,70.1,0,0,0,3.28,7.711A59.715,59.715,0,0,0,83.688,215.1a37.359,37.359,0,0,0,10.781,8.577,27.351,27.351,0,0,0,6.161,2.313,30.188,30.188,0,0,0,6.856.871,38.609,38.609,0,0,0,7.685-.655c.68-.148,1.36-.264,2.054-.424.7-.181,1.393-.327,2.1-.524l2.056-.582c.541-.14,1.085-.315,1.626-.486a30.314,30.314,0,0,0,6.347-3.022c.259-.156.511-.324.765-.489l.815-.567c.545-.392,1.09-.794,1.627-1.225,1.078-.857,2.149-1.79,3.211-2.812A70.18,70.18,0,0,0,147.763,200q1.386-2.421,2.663-5t2.48-5.282c1.6-3.6,3.1-7.338,4.517-11.175,2.839-7.679,5.328-15.724,7.772-24.021l.872-2.978c.282-.96.544-1.94.82-2.918.527-1.97,1.046-3.956,1.54-5.986.994-4.043,1.934-8.2,2.87-12.427,1.89-8.457,3.839-17.257,6.6-26.245a128.236,128.236,0,0,1,11.4-26.877c.619-1.087,1.293-2.156,1.942-3.225.693-1.06,1.35-2.1,2.074-3.163l1.075-1.58c.365-.519.743-1.027,1.114-1.539.733-1.031,1.523-2.009,2.291-3a109.321,109.321,0,0,1,9.984-10.82,146.466,146.466,0,0,1,22.1-17.117,182.9,182.9,0,0,1,23.412-12.577,226.4,226.4,0,0,1,24.03-9.085Z" fill="#fdb74d"/>
            </g>
          </g>
        </g>
        <path id="Trazado_241725" data-name="Trazado 241725" d="M205.327,190.394c-55.732,29.664-67.325,4.42-67.195-9.729.087-8.061,4.4-28.083,6.479-50.163,1.539-16.295,1.885-33.738-1.581-48.3-.152-.628-.239-1-.239-1S132.607,41.27,161.946,21.9,226.5,11.8,241.99,44.629s19.069,116.1-36.663,145.765" fill="#ffb27d"/>
        <path id="Trazado_241726" data-name="Trazado 241726" d="M205.618,86.168a.344.344,0,0,1-.393-.047c-5.372-4.819-13.483-7.644-24.211-8.423a.308.308,0,0,1-.286-.33.316.316,0,0,1,.329-.283c10.949.793,19.222,3.708,24.7,8.683a.217.217,0,0,1-.043.35Z" fill="#d3784a"/>
        <path id="Trazado_241727" data-name="Trazado 241727" d="M212.963,108.364a.29.29,0,0,1,.3.321,39.368,39.368,0,0,1-2.866,10.894c-4.289,9.713-10.334,16.989-18.479,22.24q-.927.6-1.87,1.147a.389.389,0,0,1-.408.006.273.273,0,0,1-.131-.238.286.286,0,0,1,.142-.247q.972-.565,1.934-1.183c8.042-5.187,14.011-12.373,18.251-21.974a38.694,38.694,0,0,0,2.811-10.675.328.328,0,0,1,.309-.291Z" fill="#d3784a"/>
        <g id="Grupo_178979" data-name="Grupo 178979" opacity="0.5">
          <g id="Grupo_178978" data-name="Grupo 178978">
            <g id="Grupo_178977" data-name="Grupo 178977" clip-path="url(#clip-path-4)">
              <path id="Trazado_241728" data-name="Trazado 241728" d="M171.461,36.952s25.6,15.245,19.763,24.762-28.836,4.121-28.836,4.121-1.909-2.3-.589-6.289c1.559-4.706-.232-7.235,1.6-10.891a69.1,69.1,0,0,1,8.058-11.7" fill="#ed905d"/>
            </g>
          </g>
        </g>
        <path id="Trazado_241729" data-name="Trazado 241729" d="M169.621,138.335c-3.871,1.8-2.751,7.341-6.026,11.066s-12.241,2.583-14.857-2.325c-2.23-4.191,1.641-6.26,6.669-7.915.686-.225,1.391-.44,2.106-.656l.566-.168a6.784,6.784,0,0,0,3.2-1.866,4.9,4.9,0,0,0,.625-.856,5.207,5.207,0,0,0,.561-1.437c.036-.16.066-.326.091-.492.329-2.275-.565-4.962-2.036-7.345-.11-.179-.224-.356-.34-.53-.254-.383-.5-.791-.74-1.22a17.287,17.287,0,0,1-.98-2.091,12.3,12.3,0,0,1-.929-5.085c.181-2.942,1.883-5.535,6.41-6.451a18.813,18.813,0,0,1,7.7.052,23.023,23.023,0,0,1,5.284,1.829c.312.15.619.306.917.466a29.348,29.348,0,0,1,4.6,3.051c.514.415.973.815,1.375,1.184q.489.449.948.883.687.646,1.307,1.262c20.276,20.068-8.961,15.174-16.437,18.644" fill="#ed905d"/>
        <path id="Trazado_241730" data-name="Trazado 241730" d="M214.645,156.881c21.283-24.106,20.107-68.638,11.2-92.192s-27.477-33.156-45.713-31.662-20.572,22.3-19.4,34.977S171.194,85.485,175.406,93.1a20.891,20.891,0,0,0,12.11,9.567s10.562,3.946,12.632-.253,2.783-9.67-4.039-12.941-30.363-11.5-32.419-19.153-1.523-26.393,10.214-33,23.165,12.923,33.759,16.255,15.6,7.59,16.049,16.543,4.193,13.768,4.9,17.806,1.131,36.682-9.073,51.118-15.758,10.858-20.369,16.563.9,10.1,5.262,9.1,10.211-7.819,10.211-7.819" fill="#ed905d"/>
        <path id="Trazado_241731" data-name="Trazado 241731" d="M138.121,180.979a.307.307,0,0,1-.291-.307,23.187,23.187,0,0,1,7.573-17.386,25.1,25.1,0,0,1,7.528-4.859.308.308,0,0,1,.212.578,24.93,24.93,0,0,0-7.341,4.75,22.585,22.585,0,0,0-7.357,16.919.309.309,0,0,1-.309.306h-.015" fill="#d3784a"/>
        <path id="Trazado_241732" data-name="Trazado 241732" d="M150.462,118.541c.26,7.259-5.85,11.961-5.85,11.961,1.538-16.295,1.885-33.738-1.582-48.3.78,3.142,3.553,13.044,8.646,17.443,6.088,5.287-1.495,11.636-1.214,18.895" fill="#ed905d"/>
        <g id="Grupo_178982" data-name="Grupo 178982" opacity="0.8">
          <g id="Grupo_178981" data-name="Grupo 178981">
            <g id="Grupo_178980" data-name="Grupo 178980" clip-path="url(#clip-path-5)">
              <path id="Trazado_241733" data-name="Trazado 241733" d="M279.427,156.176H218.88a11.824,11.824,0,0,1-11.789-11.789V83.84A11.824,11.824,0,0,1,218.88,72.05h60.547a11.824,11.824,0,0,1,11.789,11.79v60.547a11.824,11.824,0,0,1-11.789,11.789" fill="#fff"/>
            </g>
          </g>
        </g>
        <rect id="Rectángulo_102473" data-name="Rectángulo 102473" width="28.657" height="28.657" transform="translate(219.869 99.221)" fill="#163560"/>
        <path id="Trazado_241734" data-name="Trazado 241734" d="M265.945,79.643,248.526,99.221v28.657l17.419,16.385Z" fill="#163560"/>
        <path id="Trazado_241735" data-name="Trazado 241735" d="M271.352,121.536a.5.5,0,0,1-.4-.8,8.617,8.617,0,0,0,1.514-7.5,10.6,10.6,0,0,0-1.514-3.419.5.5,0,1,1,.8-.6A11.478,11.478,0,0,1,273.436,113a9.7,9.7,0,0,1-1.682,8.331.5.5,0,0,1-.4.2" fill="#163560"/>
        <path id="Trazado_241736" data-name="Trazado 241736" d="M276.1,125.036a.5.5,0,0,1-.4-.8,14.143,14.143,0,0,0,2.495-12.273,17.518,17.518,0,0,0-2.495-5.643.5.5,0,1,1,.8-.594,18.111,18.111,0,0,1,2.654,5.962,15.31,15.31,0,0,1-2.654,13.143.5.5,0,0,1-.4.2" fill="#163560"/>
        <path id="Trazado_241737" data-name="Trazado 241737" d="M280.963,127.878a.5.5,0,0,1-.4-.8,19.227,19.227,0,0,0,3.683-8.638,19.489,19.489,0,0,0-.4-7.543,22.978,22.978,0,0,0-3.285-7.419.5.5,0,0,1,.8-.6,23.552,23.552,0,0,1,3.443,7.739,20.488,20.488,0,0,1,.429,7.942,20.193,20.193,0,0,1-3.872,9.109.5.5,0,0,1-.4.2" fill="#163560"/>
        <path id="Trazado_241738" data-name="Trazado 241738" d="M99.3,165.96s-.508,7.893-3.24,9.064a1.77,1.77,0,0,1-.655.143c-2.089.054-4.312-2.086-5.353-3.27-.223-.252-.39-.458-.493-.594-1.333-1.754-1.956-3.652,2.911-7.169,2.8-2.024,2.513-12.356,6.83-15.781,2.865-2.273,0,17.607,0,17.607" fill="#8c9df4"/>
        <path id="Trazado_241739" data-name="Trazado 241739" d="M82.527,150.189s-.193-4.189-1.3-4.988-2.112-2.337-2.458-1.99,1.743,2.689.771,2.869c-.461.086-3.487-5.106-4.395-4.87s-.7,4.007.178,5.528a37.027,37.027,0,0,0,3.569,4.4Z" fill="#ffb27d"/>
        <path id="Trazado_241740" data-name="Trazado 241740" d="M93.328,269.715h15.755c1.129-.765-.305-8.25-.305-8.25s-4.3-1.631-5.042,1.687-5.477,4.369-7.981,4.774a2.7,2.7,0,0,0-2.427,1.789" fill="#1c4b8e"/>
        <path id="Trazado_241741" data-name="Trazado 241741" d="M117.353,192.14s-.5,9.191-1.118,19.84c-.447,7.637-.957,16.024-1.393,22.306-.058.833-.116,1.63-.171,2.383-.015.233-.033.465-.051.7a140.015,140.015,0,0,1-4.9,26.424c-4.429.933-6.43-.774-6.43-.774s-3.052-35.77-4.182-50.2c-.832-10.62-1.541-26.082-1.541-26.082Z" fill="#ffa561"/>
        <path id="Trazado_241742" data-name="Trazado 241742" d="M116.235,211.98c-.448,7.636-.957,16.024-1.394,22.305-2.9-6.831-8.812-33.455-8.812-33.455Z" fill="#f4904d"/>
        <path id="Trazado_241743" data-name="Trazado 241743" d="M116.694,269.715h15.755c1.129-.765-.305-8.25-.305-8.25s-4.3-1.631-5.042,1.687-5.477,4.369-7.981,4.774a2.7,2.7,0,0,0-2.427,1.789" fill="#1c4b8e"/>
        <path id="Trazado_241744" data-name="Trazado 241744" d="M101.846,190.311s11.251,28,14.847,38.621c2.562,7.562,9.788,34.089,9.788,34.089a7.261,7.261,0,0,0,5.782-.892s2.688-27.1-2.742-34.744c-2.88-4.054-.715-42.146-12.4-42.472s-15.279,5.4-15.279,5.4" fill="#ffa561"/>
        <path id="Trazado_241745" data-name="Trazado 241745" d="M124.96,173.447c-.018,2.831-.048,5.525-.076,7.856-.018,1.578-.037,2.99-.051,4.165-.022,1.791-.036,3.034-.029,3.48.031,2.41-1.509,2.955-3.1,3.321,0,0-1.466.316-3.317.63a36.416,36.416,0,0,1-5.545.593A50,50,0,0,1,98.332,191.1c-1.487,0-2.164-2.3-2.407-5.508-.165-2.173.5-23.841.589-29.252a14.12,14.12,0,0,1,2.783-7.99c5.517-4.878,21.8-4.264,24.724-.9.725.831.935,8.854.96,17.641.007,2.776,0,5.627-.021,8.352" fill="#8c9df4"/>
        <path id="Trazado_241746" data-name="Trazado 241746" d="M115.11,145.524c-2.078,2.252-9.058,1.918-8.851-.047.028-.243.074-1.682.1-1.9.017-.179.035-.354.049-.519.047-.484.086-.913.118-1.283.093-1.078.122-1.662.122-1.662h.007c.2-.056,4.688-1.33,6.921-1.859a3.586,3.586,0,0,1,1.237-.2c-.685,5.014.981,6.741.3,7.48" fill="#ffb27d"/>
        <path id="Trazado_241747" data-name="Trazado 241747" d="M113.81,139.729s-1.874,1.9-7.288,2.041c.094-1.077.124-1.662.124-1.662h.007c.2-.056,4.687-1.33,6.92-1.858.392.161-.128,1.209.237,1.479" fill="#ed975d"/>
        <path id="Trazado_241748" data-name="Trazado 241748" d="M105.273,139.841a16.963,16.963,0,0,0,3.118.727c2.554.345,5.914.141,6.969-2.95,1.778-5.2,4.05-8.323-1.182-10.447-2.8-1.138-4.591-1.2-5.809-.764a4.213,4.213,0,0,0-2.153,1.863c-1.015,1.593-3.058,10.66-.943,11.571" fill="#ffb27d"/>
        <path id="Trazado_241749" data-name="Trazado 241749" d="M106.61,124.243a2.468,2.468,0,0,0,.943,4.491,18.079,18.079,0,0,1,3.067.564c1.3.578,2.419,1.19,2.112,3.209-.1.686-.439,1.522,1.328,1.108a.856.856,0,0,1,.642.037c.733.435-.2,2.543-.487,3,0,0-.406,1.509.5,2.244.109.088,1.882.862,6.153-5.673a6.072,6.072,0,0,0,.275-5.563c-1.035-2.226-3.924-5.04-9.365-5.04a10.375,10.375,0,0,0-5.164,1.623" fill="#233862"/>
        <path id="Trazado_241750" data-name="Trazado 241750" d="M105.234,136.482s-.11.674,1.456,1.211c0,0,1.315.452,1.555-.239a4.461,4.461,0,0,0-3.011-.972" fill="#fff"/>
        <path id="Trazado_241751" data-name="Trazado 241751" d="M124.02,147.454s8.007,11.964,8.908,25.845c0,0,.607,3.778-4.454,3.34s-8.668-8.744-8.835-15.782,4.381-13.4,4.381-13.4" fill="#8c9df4"/>
        <path id="Trazado_241752" data-name="Trazado 241752" d="M124.96,173.447c-.018,2.831-.048,5.525-.076,7.856-.018,1.578-.037,2.99-.051,4.165-2.441-.442-4.289-4.894-3.53-7.86.774-3.026-3.871-5.349-5.842-7.32s-1.414-3.018-1.414-3.018Z" fill="#6980e2"/>
        <path id="Trazado_241753" data-name="Trazado 241753" d="M123.462,165.622s-1.738-6.736-2.441-6.736.938,2.956.281,3.8-4.023-.946-4.334.184,6.878,4.169,6.494,2.751" fill="#6980e2"/>
        <path id="Trazado_241754" data-name="Trazado 241754" d="M113.445,161.6s-3.458-.963-3.69-2.174-.244-2.929-1.384-3.6-3.826-1.509-4.312-.923.524,2.1,1.524,3.109.552,3.175,1.588,3.967a36.488,36.488,0,0,0,4.7,2.35Z" fill="#ffb27d"/>
        <path id="Trazado_241755" data-name="Trazado 241755" d="M109.755,159.43s.241-1.772.393-2.362-.3-.342-.49-.119a1.818,1.818,0,0,0-.49,1.432,2.046,2.046,0,0,0,.587,1.049" fill="#ffb27d"/>
        <path id="Trazado_241756" data-name="Trazado 241756" d="M109.76,159.992s15.766,6.12,18.018,7.809a5.448,5.448,0,0,1,1.6,6.34c-.966,1.811-4.468,1.375-9.734-2.515-4.167-3.079-11.263-8.986-11.263-8.986Z" fill="#ffb27d"/>
        <path id="Trazado_241757" data-name="Trazado 241757" d="M96.057,175.022h0a1.775,1.775,0,0,1-.655.144c-2.089.053-4.312-2.086-5.353-3.27,1.209-.686,3.222-1.077,4.087-.529,1.407.891,1.266-.423,1.921-.423s0,4.077,0,4.077" fill="#6980e2"/>
        <path id="Trazado_241758" data-name="Trazado 241758" d="M78.894,151.135s9.806,22.236,13.331,22.529,2.168-6.069,1.417-8.175c-.844-2.369-4.717-5.691-7.17-8.787a42.751,42.751,0,0,1-3.945-6.513Z" fill="#ffb27d"/>
        <path id="Trazado_241759" data-name="Trazado 241759" d="M31.284,157.962c-.534-1.03,11.656-4.741,11.85,5.429,0,0,22.836-.562,11.932-13.29-3.775-4.407-3.386-8.05-3.273-11.442s-2.351-13.25-10.8-12.257a6.293,6.293,0,0,0-4.976.532c-6.283,3.26-20.357,34.778-4.729,31.028" fill="#163560"/>
        <path id="Trazado_241760" data-name="Trazado 241760" d="M68.619,167.3s1.486-2.263,2.685-2.307,3.416-.666,3.239-.222-1.553.488-1.686.754,2.041.666,2.662.71,2.085,0,2.041.311-2.639,1.6-4.47,1.42a12.409,12.409,0,0,0-4.094.532Z" fill="#ffb27d"/>
        <path id="Trazado_241761" data-name="Trazado 241761" d="M47.121,168.029a22.262,22.262,0,0,0,2.274,3.438c1.766,2.213,4.49,4.769,7.909,5.273a8.48,8.48,0,0,0,4.7-.763h.006a21.432,21.432,0,0,0,7.276-6.084,3.414,3.414,0,0,0-.466-3.35s-8.387,1.886-9.185,1.487-5.709-11.293-6.594-13.108a9.945,9.945,0,0,0-4.863-4.962Z" fill="#ffa561"/>
        <path id="Trazado_241762" data-name="Trazado 241762" d="M49.394,171.468c1.766,2.212,4.49,4.768,7.91,5.273a8.492,8.492,0,0,0,4.7-.763c-.163.021-4.311.534-5.964-2.424-1.686-3.018-3.51-7.81-6.015-6.212-1.081.689-1.033,2.4-.63,4.126" fill="#f4904d"/>
        <path id="Trazado_241763" data-name="Trazado 241763" d="M15.833,258.554s-2.559,2.335-2.06,4,2.809,2.765,3.121,4.793,1.56,3.134,2.684,3.134h5.356s.827-1.427-1.17-1.857-2.751-2.813-2.626-5.026a38.981,38.981,0,0,0-.187-5.162l-4.244-.983Z" fill="#1c4b8e"/>
        <path id="Trazado_241764" data-name="Trazado 241764" d="M37.492,259.546s-.921,9.893.2,10.446l14.377-.029s0-1.659-2.309-2.028S43.4,266.214,42.71,263.2s-5.218-3.657-5.218-3.657" fill="#1c4b8e"/>
        <path id="Trazado_241765" data-name="Trazado 241765" d="M26.432,161.356s2-2.375,2.21,1.25c.142,2.4.363,11.016.708,11.813.865,2,1.841,2.321,1.841,2.321l7.549,1.85,2.654.65,8.37-2.5s3.813-10.641,2.282-16.631a46.02,46.02,0,0,0-3.87-10.15s-5.674-2.24-15.723-.567Z" fill="#ffa561"/>
        <path id="Trazado_241766" data-name="Trazado 241766" d="M28.642,168.982a23.458,23.458,0,0,0,.708,5.436c.865,2,1.841,2.322,1.841,2.322l7.549,1.85,3.279-.963s-10.945-1.659-9.732-11.076Z" fill="#f4904d"/>
        <path id="Trazado_241767" data-name="Trazado 241767" d="M49.232,178.355s4.145,12.9,4.411,17.295-7.923,62.4-8.253,64.428c-.31,1.908-2.68,3.124-2.68,3.124a3.585,3.585,0,0,1-2.644.205,6.541,6.541,0,0,1-2.84-1.34S34,220.7,36,205.915a233.959,233.959,0,0,0,2.02-27.56Z" fill="#6980e2"/>
        <path id="Trazado_241768" data-name="Trazado 241768" d="M31.67,177.971s-6.323,8.484-6.913,14.219-.924,25.88-2.18,31.47-5.87,16.35-5.87,33.788a3.478,3.478,0,0,0,1.96,1.532,15.96,15.96,0,0,0,1.725.477,2.71,2.71,0,0,0,3.031-1.439c3.12-6.281,13.056-26.538,13.566-30.743.36-2.976,3.5-22.67,10.341-34.227,1.643-2.774-1.008-13.808-1.008-13.808Z" fill="#8c9df4"/>
        <path id="Trazado_241769" data-name="Trazado 241769" d="M49.894,176.364a8.692,8.692,0,0,1-4.97,1.383c-3.948.079-13.733-1.007-13.733-1.007a8.085,8.085,0,0,0-.417,2.5s11.95,3.015,18.874.441a4.377,4.377,0,0,0,.246-3.314" fill="#233862"/>
        <path id="Trazado_241770" data-name="Trazado 241770" d="M44.07,179.11a1.815,1.815,0,1,1,1.8,2.039,1.933,1.933,0,0,1-1.8-2.039m.6,0a1.224,1.224,0,1,0,1.205-1.442,1.341,1.341,0,0,0-1.205,1.442" fill="#fff"/>
        <path id="Trazado_241771" data-name="Trazado 241771" d="M36.529,148.843a16.7,16.7,0,0,0,.9-6.1l.379.074,6.372,1.262s-.145,2.006-.149,3.9v.047c-.008,1.641,1.108,3.287-1.524,3.938-.813.2-7.172-.207-5.973-3.114" fill="#ffb27d"/>
        <path id="Trazado_241772" data-name="Trazado 241772" d="M44.175,144.077s-.145,2.005-.149,3.9c-3.566-.1-5.451-3.354-6.224-5.157Z" fill="#e8945b"/>
        <path id="Trazado_241773" data-name="Trazado 241773" d="M45.366,145.866s-8.437.139-8.443-5.116-1.1-8.777,4.288-9.088,6.436,1.693,6.864,3.447-.514,10.585-2.709,10.757" fill="#ffb27d"/>
        <path id="Trazado_241774" data-name="Trazado 241774" d="M45.053,131.533s-2.31,6.166-5.855,7.077-5.083-.038-5.083-.038a10.038,10.038,0,0,0,3.283-5.931s5.913-4.043,7.655-1.108" fill="#163560"/>
        <path id="Trazado_241775" data-name="Trazado 241775" d="M44.481,132.033a5.23,5.23,0,0,1,2.418,1.89,8.491,8.491,0,0,1,1.14,4.824s1.741-4.19-.215-6.561c-2.074-2.514-3.343-.153-3.343-.153" fill="#163560"/>
        <path id="Trazado_241776" data-name="Trazado 241776" d="M32.453,149.392s-3.844.845-5.533,3.238-3.721,21.819-.488,22.875,6.893-.493,7.034-8.165a168.956,168.956,0,0,0-1.013-17.948" fill="#ffa561"/>
        <path id="Trazado_241777" data-name="Trazado 241777" d="M41.262,159.966a38.181,38.181,0,0,1-4.946,3.679c-3.135,1.926-6.873,3.622-7.714,4.846-1.571,2.284-2,5.855-.262,6.323s4.024-.11,7.569-4.032a94.364,94.364,0,0,0,6.614-8.362Z" fill="#ffb27d"/>
        <path id="Trazado_241778" data-name="Trazado 241778" d="M41.262,159.966a19.412,19.412,0,0,1-.081-4.072c.265-.762,4.294-2.791,4.358-2.111s-1.31,1.666-1.137,2.782c.195,1.254.426,2.776-.232,3.418a14.774,14.774,0,0,0-1.647,2.437Z" fill="#ffb27d"/>
        <path id="Trazado_241779" data-name="Trazado 241779" d="M41.262,159.966a13.069,13.069,0,0,0-.935-2.605c-.422-.619.735-.3,1.1.452a3.583,3.583,0,0,1-.162,2.153" fill="#ffb27d"/>
        <circle id="Elipse_6219" data-name="Elipse 6219" cx="4.158" cy="4.158" r="4.158" transform="translate(261.787 186.602)" fill="none" stroke="#8c6df2" stroke-width="2.268"/>
        <g id="Grupo_178985" data-name="Grupo 178985" opacity="0.5">
          <g id="Grupo_178984" data-name="Grupo 178984">
            <g id="Grupo_178983" data-name="Grupo 178983" clip-path="url(#clip-path-6)">
              <path id="Trazado_241780" data-name="Trazado 241780" d="M282.456,246.693a20.776,20.776,0,1,0-18.565,22.773,20.775,20.775,0,0,0,18.565-22.773" fill="#fdb74d"/>
            </g>
          </g>
        </g>
        <path id="Trazado_241781" data-name="Trazado 241781" d="M259.948,230.727a18.162,18.162,0,1,1-16.23,19.908A18.163,18.163,0,0,1,259.948,230.727Z" fill="none" stroke="#fff" stroke-linecap="round" stroke-width="2.046" stroke-dasharray="1.535 4.093"/>
        <g id="Grupo_178988" data-name="Grupo 178988" opacity="0.7" style="isolation: isolate">
          <g id="Grupo_178987" data-name="Grupo 178987">
            <g id="Grupo_178986" data-name="Grupo 178986" clip-path="url(#clip-path-7)">
              <path id="Trazado_241782" data-name="Trazado 241782" d="M38.053,46.592A22.765,22.765,0,1,1,51.494,17.337,22.765,22.765,0,0,1,38.053,46.592" fill="#5038a1"/>
            </g>
          </g>
        </g>
        <path id="Trazado_241783" data-name="Trazado 241783" d="M29.746,39.2a7.588,7.588,0,1,1,4.48-9.752A7.589,7.589,0,0,1,29.746,39.2Z" fill="none" stroke="#fff" stroke-width="1.98"/>
        <path id="Trazado_241784" data-name="Trazado 241784" d="M89.035,54.886a4.619,4.619,0,1,1,2.727-5.936,4.619,4.619,0,0,1-2.727,5.936" fill="#fdb74d"/>
        <path id="Trazado_241785" data-name="Trazado 241785" d="M88.691,53.958a3.629,3.629,0,1,1,2.143-4.664,3.629,3.629,0,0,1-2.143,4.664" fill="#fdb74d"/>
        <path id="Trazado_241786" data-name="Trazado 241786" d="M88.691,53.958a3.629,3.629,0,1,1,2.143-4.664A3.629,3.629,0,0,1,88.691,53.958Z" fill="none" stroke="#8c6df2" stroke-width="1.98"/>
        <path id="Trazado_241787" data-name="Trazado 241787" d="M60.72,28.783a2.969,2.969,0,1,1,1.753-3.817,2.969,2.969,0,0,1-1.753,3.817" fill="#fdb74d"/>
      </g>
    </g>
  </g>
</svg>
