<svg id="Grupo_180210" data-name="Grupo 180210" xmlns="http://www.w3.org/2000/svg" xmlns:xlink="http://www.w3.org/1999/xlink" width="136" height="136" viewBox="0 0 136 136">
  <defs>
    <clipPath id="clip-path">
      <rect id="Rectángulo_103185" data-name="Rectángulo 103185" width="136" height="136" fill="none"/>
    </clipPath>
  </defs>
  <g id="Grupo_180210-2" data-name="Grupo 180210" clip-path="url(#clip-path)">
    <path id="Trazado_243010" data-name="Trazado 243010" d="M136,68A68,68,0,1,1,68,0a68,68,0,0,1,68,68" fill="#5038a1"/>
    <path id="Trazado_243011" data-name="Trazado 243011" d="M109.649,61.012a6.384,6.384,0,0,1-1.684.779c-5.957.825-11.921,1.594-17.884,2.377-3.2.419-6.391.844-9.59,1.24a1.431,1.431,0,0,0-1.334.928c-1.206,2.752-2.476,5.476-3.756,8.195a1.366,1.366,0,0,0,.04,1.421c2.116,3.75,4.2,7.519,6.291,11.282.543.976.625.989,1.486.281a12.091,12.091,0,0,1,19.146,5.625,2.853,2.853,0,0,1,.168.707,1.194,1.194,0,0,1-2.236.656,3.786,3.786,0,0,1-.284-.757,9.666,9.666,0,0,0-15.263-4.32c-1.994,1.634-3.659,1.359-5.055-.832-.043-.067-.092-.131-.147-.21-.642.645-1.244,1.249-1.876,1.882,1,1.765,2.031,3.515,2.987,5.3a4.891,4.891,0,0,1,.553,1.824,9.675,9.675,0,0,0,18.913,2.264c.342-1.132,1.23-1.538,1.992-.952.6.459.535,1.051.34,1.692a12.088,12.088,0,0,1-22.888.73,8.985,8.985,0,0,1-.623-2.429,7.13,7.13,0,0,0-1.089-3.173c-1.6-2.734-3.2-5.471-4.7-8.264A3.776,3.776,0,0,0,70.34,85.21a11.283,11.283,0,0,0-4.994.036,3.516,3.516,0,0,0-2.371,1.8c-1.706,3.08-3.493,6.115-5.2,9.191a5.185,5.185,0,0,0-.62,1.889A12.092,12.092,0,0,1,33.063,96a11.563,11.563,0,0,1,7.251-10.193,11.624,11.624,0,0,1,12.391,1.654c.974.744,1.011.759,1.6-.3,2.056-3.691,4.1-7.389,6.178-11.067a1.581,1.581,0,0,0,.082-1.641q-4.112-8.835-8.14-17.709A31.035,31.035,0,0,1,51.119,53c-.122-.4-.248-.574-.676-.629Q41.819,51.255,33.2,50.107q-2.7-.354-5.4-.7c-.108-.014-.213-.04-.319-.062a1.214,1.214,0,1,1,.351-2.4c2.473.313,4.943.644,7.414.969l15.323,2.015c.39-2.149.771-4.269,1.159-6.387.107-.586.228-1.169.353-1.751a2.09,2.09,0,0,1,4.008-.629c1.733,3.126,3.488,6.241,5.2,9.378a1.174,1.174,0,0,0,1.176.743q5.607-.039,11.214-.009a.946.946,0,0,0,.938-.585q2.587-4.7,5.211-9.373c.624-1.119,1.381-1.577,2.314-1.415.984.17,1.553.808,1.792,2.043.507,2.626,1.006,5.253,1.526,7.977l4.15-.541q9.267-1.218,18.531-2.444a1.628,1.628,0,0,1,1.505.735v.813c-.35.747-1.032.869-1.751.963-7.624.991-15.255,1.93-22.867,3.005A113.273,113.273,0,0,1,63.74,53.81a5.482,5.482,0,0,0-.555.038c.155.3.268.539.4.768,1.407,2.531,2.908,5.015,4.187,7.609a2.55,2.55,0,0,0,2.869,1.608c7.742-.443,15.4-1.577,23.08-2.584q7.045-.926,14.086-1.886a1.783,1.783,0,0,1,1.847.673Zm-55.2-17.766-.19.035c-.228,1.108-.475,2.212-.68,3.323a13.238,13.238,0,0,0,.6,8.131q5.958,13.027,11.953,26.039a2.827,2.827,0,0,0,2.135,1.694c.795.153,1.607.226,2.415.3a5.246,5.246,0,0,1,4.252,2.746c.474.811.939,1.628,1.427,2.474l1.915-1.937Zm2.213,44.8a1.179,1.179,0,0,0-.189.231c-.908,2.361-3.443,2.724-5.429,1.058A8.865,8.865,0,0,0,41.2,88.081a9.234,9.234,0,0,0-5.7,8.166A9.627,9.627,0,0,0,54.666,98a7.608,7.608,0,0,1,1.021-3.112c.976-1.648,1.9-3.324,2.85-4.99L56.665,88.05m5.519-10.022-4.208,7.556,1.878,2.053c1.12-2.025,2.058-4.176,4.6-4.731l-2.269-4.878m7.9-11.726L73.6,72.621c1.054-2.3,2.05-4.469,3.076-6.708l-6.6.389m12.9-16.052c-.415-2.4-.81-4.7-1.206-7l-.228-.018-4.311,7.746,5.745-.732" fill="#fff"/>
    <path id="Trazado_243012" data-name="Trazado 243012" d="M90.842,103.69a6.824,6.824,0,0,1,.077-13.648,6.824,6.824,0,1,1-.077,13.648M86.5,96.849a4.342,4.342,0,0,0,4.351,4.4,4.384,4.384,0,1,0-4.351-4.4" fill="#fff"/>
    <path id="Trazado_243013" data-name="Trazado 243013" d="M28.256,59.377l12.968,1.707,9.343,1.231c.268.035.538.069.8.124a1.217,1.217,0,0,1,1.1,1.352,1.236,1.236,0,0,1-1.486,1.037c-2.069-.262-4.135-.542-6.2-.813l-16.754-2.2c-.134-.017-.269-.028-.4-.052-.882-.16-1.358-.685-1.267-1.392.092-.722.668-1.1,1.893-1" fill="#fff"/>
    <path id="Trazado_243014" data-name="Trazado 243014" d="M62.3,30c1.552,1.788,1.757,2.325,1.053,2.881-1.313,1.039-1.873-.374-2.854-1.033a11.337,11.337,0,0,1-.861,1.005,1.208,1.208,0,1,1-1.688-1.725c.3-.313.646-.577.966-.86-.58-.947-2.184-1.606-.971-2.826,1.19-1.2,1.837.359,2.933,1.057a7.336,7.336,0,0,1,.769-1.059,1.158,1.158,0,0,1,1.737-.021,1.172,1.172,0,0,1-.051,1.742A10.166,10.166,0,0,1,62.3,30" fill="#fff"/>
    <path id="Trazado_243015" data-name="Trazado 243015" d="M70.713,38.008a1.211,1.211,0,0,1,1.313-1.148,1.259,1.259,0,0,1,1.16,1.319,1.288,1.288,0,0,1-1.33,1.163,1.258,1.258,0,0,1-1.143-1.334" fill="#fff"/>
    <path id="Trazado_243016" data-name="Trazado 243016" d="M69.247,75.655a1.25,1.25,0,1,1-2.5.047,1.25,1.25,0,0,1,2.5-.047" fill="#fff"/>
    <path id="Trazado_243017" data-name="Trazado 243017" d="M51.933,96.873a6.828,6.828,0,0,1-13.656,0,6.828,6.828,0,1,1,13.656,0m-2.441-.012A4.377,4.377,0,0,0,45.1,92.482a4.384,4.384,0,1,0,.025,8.768,4.345,4.345,0,0,0,4.364-4.389" fill="#fff"/>
  </g>
</svg>
