<svg id="Grupo_134015" data-name="Grupo 134015" xmlns="http://www.w3.org/2000/svg" width="237" height="187" viewBox="0 0 237 187">
  <path id="Trazado_188103" data-name="Trazado 188103" d="M203.377,27a75.809,75.809,0,0,1,11.836,12.8c24.98,32.927,15.882,69,12.828,80.141-4.935,17.978-8.516,33.177-23.787,45.729-34.7,28.522-104.4,24.167-146.668-.487-5.012-2.923-45.931-27.487-50.317-64.2-.107-.9-.161-1.568-.214-2.152A82.4,82.4,0,0,1,34.843,30.764,102.686,102.686,0,0,1,59.038,15C102.522-5.491,168.434-2.821,203.377,27Z" transform="translate(-1.352 -0.344)" fill="#e5e1f1"/>
  <g id="Grupo_134015-2" data-name="Grupo 134015" transform="translate(185.504 68.362)">
    <circle id="Elipse_5247" data-name="Elipse 5247" cx="21.855" cy="21.855" r="21.855" transform="translate(0 41.429)" fill="#5038a1" opacity="0.7" style="isolation: isolate"/>
    <g id="Elipse_5249" data-name="Elipse 5249" transform="translate(20.653 53.59)">
      <circle id="Elipse_5410" data-name="Elipse 5410" cx="8.235" cy="8.235" r="8.235" fill="none"/>
      <circle id="Elipse_5411" data-name="Elipse 5411" cx="7.285" cy="7.285" r="7.285" transform="translate(0.95 0.95)" fill="none" stroke="#fff" stroke-width="2.372"/>
    </g>
    <g id="Elipse_5250" data-name="Elipse 5250" transform="translate(5.116)">
      <circle id="Elipse_5412" data-name="Elipse 5412" cx="4.434" cy="4.434" r="4.434" fill="#fdb74d"/>
      <circle id="Elipse_5413" data-name="Elipse 5413" cx="3.484" cy="3.484" r="3.484" transform="translate(0.95 0.95)" fill="#fdb74d" stroke="#8c6df2" stroke-width="2.372"/>
    </g>
    <circle id="Elipse_5251" data-name="Elipse 5251" cx="2.851" cy="2.851" r="2.851" transform="translate(3.064 36.965)" fill="#fdb74d"/>
  </g>
  <path id="Trazado_139920" data-name="Trazado 139920" d="M230.334,182.254a3.1,3.1,0,0,0,.355.031,2.274,2.274,0,0,0,2.343-2.962,4.174,4.174,0,0,0-3.7-3.161,78.114,78.114,0,0,1-17.669-2.789,92.7,92.7,0,0,1-17.519-6.746l-1.067-.534-1.053-.566c-.7-.374-1.4-.769-2.09-1.167q-2.082-1.184-4.09-2.5c-.674-.429-1.327-.892-1.99-1.334s-1.3-.925-1.951-1.384c-.634-.486-1.276-.95-1.9-1.454s-1.246-.988-1.845-1.506-1.208-1.02-1.789-1.553c-.292-.264-.586-.523-.872-.793l-.848-.811c-.574-.531-1.1-1.1-1.649-1.646-.529-.562-1.056-1.122-1.564-1.691s-1.01-1.142-1.474-1.73c-.235-.293-.477-.58-.707-.875l-.671-.884c-.111-.149-.226-.292-.333-.444l-.323-.465-.642-.925c-.4-.632-.823-1.252-1.207-1.891a72.391,72.391,0,0,1-7.182-16.118c-1.792-5.62-3.13-11.419-4.509-17.443-.693-3.013-1.378-6.082-2.156-9.232-.379-1.572-.8-3.169-1.237-4.78-.23-.811-.448-1.618-.692-2.439l-.712-2.392c-1.834-6.12-3.811-12.429-6.262-18.9a140.1,140.1,0,0,0-9.263-19.944,99.135,99.135,0,0,0-6.707-10.254,85.858,85.858,0,0,0-8.751-10.012c-1.646-1.606-3.389-3.166-5.212-4.657-.911-.747-1.847-1.47-2.8-2.183-.477-.352-.936-.7-1.441-1.045s-1.008-.7-1.518-1.039A69.825,69.825,0,0,0,94.862,15.3c-1.1-.438-2.2-.854-3.314-1.227-.586-.2-1.033-.34-1.528-.506L88.558,13.1c-.977-.312-1.967-.592-2.96-.864s-2-.509-3-.759A73.527,73.527,0,0,0,70.349,9.666a61.923,61.923,0,0,0-12.168.419A57.1,57.1,0,0,0,28.121,23.7,72.9,72.9,0,0,0,14.845,38.93a87.8,87.8,0,0,0-5.029,8.661c-.762,1.508-1.484,3.051-2.175,4.661-.344.808-.684,1.629-1.017,2.5-.167.435-.332.876-.5,1.354l-.252.749-.132.424-.075.259-.1.389C2.919,70.87,12.3,86.277,26.511,92.33s27.882.463,30.531-12.485L57,79.979c-.013.031-.014.013-.014.013l-.008-.009c-.01-.006-.01-.054-.016-.082a2.349,2.349,0,0,1-.007-.26c0-.193.012-.421.026-.647.03-.461.076-.956.136-1.453.125-1,.285-2.036.477-3.064a52.4,52.4,0,0,1,1.5-6.071,44.575,44.575,0,0,1,4.8-10.668,27.867,27.867,0,0,1,6.929-7.6A20.4,20.4,0,0,1,75.09,47.7a22.477,22.477,0,0,1,4.949-1.455,28.842,28.842,0,0,1,5.741-.429c.519.028,1.034.034,1.564.069.534.05,1.065.075,1.611.137l1.585.185c.414.038.836.1,1.255.165a22.648,22.648,0,0,1,5.036,1.475c.209.084.415.178.622.269l.668.322c.449.223.9.455,1.344.71.9.5,1.8,1.064,2.7,1.691a52.4,52.4,0,0,1,10.743,10.431q1.309,1.62,2.555,3.369t2.454,3.6c1.606,2.461,3.155,5.04,4.654,7.7,3,5.322,5.791,10.956,8.576,16.78l1,2.091c.322.675.631,1.365.95,2.053.622,1.39,1.241,2.792,1.845,4.229,1.212,2.861,2.4,5.812,3.59,8.817,2.4,6.009,4.875,12.262,7.976,18.558a95.719,95.719,0,0,0,11.585,18.456c.585.727,1.208,1.435,1.814,2.145.637.7,1.244,1.391,1.9,2.085l.98,1.037c.331.339.67.668,1,1,.662.673,1.359,1.3,2.044,1.938a81.563,81.563,0,0,0,8.64,6.79,109.42,109.42,0,0,0,18.313,9.994,136.659,136.659,0,0,0,18.745,6.492,168.744,168.744,0,0,0,18.786,3.844Z" transform="translate(-1.018 -1.898)" fill="#fdb74d"/>
  <g id="Grupo_134105" data-name="Grupo 134105" transform="translate(14.964 3.096)">
    <g id="Grupo_134022" data-name="Grupo 134022" transform="translate(0 11.617)">
      <g id="Grupo_134020" data-name="Grupo 134020" opacity="0.65">
        <g id="Grupo_134017" data-name="Grupo 134017">
          <path id="Trazado_191088" data-name="Trazado 191088" d="M78.57,41.916A13.206,13.206,0,0,0,74.75,26.13a13.206,13.206,0,0,0-16.228.682A7.967,7.967,0,0,0,55.076,20.6a12.426,12.426,0,0,0-6.948-2.115,17.532,17.532,0,0,0-12.74,5.122c-3.312,3.344-5.12,9.857-4.956,14.561-2.623-.412-6.448,2.112-8.071,4.213A17.429,17.429,0,0,0,39.007,70.236a15.394,15.394,0,0,0,27.77,2.675,8.911,8.911,0,0,1,2.13-2.921c1.126-.816,2.606-.874,3.978-1.1A14.781,14.781,0,0,0,78.57,41.916Z" transform="translate(-18.706 -18.389)" fill="#fff"/>
          <g id="Grupo_134016" data-name="Grupo 134016">
            <path id="Trazado_191089" data-name="Trazado 191089" d="M78.545,41.894s.111.074.32.217a9.677,9.677,0,0,1,.9.669,13.792,13.792,0,0,1,2.922,3.226,15.445,15.445,0,0,1,2.459,6.477A14.056,14.056,0,0,1,83.4,61.506a16.121,16.121,0,0,1-3.522,4.18,15.823,15.823,0,0,1-2.424,1.649c-.427.261-.9.449-1.356.672l-.718.275-.362.136-.373.109a18.1,18.1,0,0,1-3.1.62A5.3,5.3,0,0,0,68.6,70.313a12.6,12.6,0,0,0-1.867,2.772,14.683,14.683,0,0,1-2.159,2.751,17.565,17.565,0,0,1-1.326,1.2c-.481.361-.962.728-1.484,1.045a16.79,16.79,0,0,1-3.327,1.608,15.3,15.3,0,0,1-7.579.646,15.824,15.824,0,0,1-7.193-3.373,15.507,15.507,0,0,1-4.786-6.714l.119.07a17.5,17.5,0,0,1-6.319-.174,18.731,18.731,0,0,1-6.024-2.465,17.884,17.884,0,0,1-4.863-4.558A16.936,16.936,0,0,1,19.081,56.9a18.611,18.611,0,0,1-.227-6.363,18.357,18.357,0,0,1,1.922-5.96c.257-.451.518-.9.8-1.334l.449-.632.224-.316.248-.3A13.307,13.307,0,0,1,27.455,38.5a6.022,6.022,0,0,1,2.969-.459l-.125.111a23.159,23.159,0,0,1,.734-6.24,23.4,23.4,0,0,1,.933-2.939,19.032,19.032,0,0,1,1.306-2.744,13.858,13.858,0,0,1,3.957-4.389,17.774,17.774,0,0,1,5.088-2.613,16.639,16.639,0,0,1,2.713-.65,16.163,16.163,0,0,1,2.726-.207,13.837,13.837,0,0,1,5.188.956,9.392,9.392,0,0,1,4.023,3,7.532,7.532,0,0,1,1.612,4.466l-.139-.061a12.951,12.951,0,0,1,7-3.058,13.554,13.554,0,0,1,6.773.935,11.744,11.744,0,0,1,2.691,1.57,12.662,12.662,0,0,1,2.038,2.044,13.12,13.12,0,0,1,2.273,4.48,13.986,13.986,0,0,1,.552,3.984,13.178,13.178,0,0,1-.13,1.612,10.962,10.962,0,0,1-.253,1.315,10.533,10.533,0,0,1-.582,1.715c-.164.373-.255.569-.255.569s.074-.191.23-.57a11.845,11.845,0,0,0,.8-3.037,13.354,13.354,0,0,0,.119-1.6,13.994,13.994,0,0,0-.57-3.957,13.046,13.046,0,0,0-2.273-4.437,10.814,10.814,0,0,0-.934-1.045,10.994,10.994,0,0,0-1.09-.971,11.611,11.611,0,0,0-2.667-1.544,13.428,13.428,0,0,0-6.7-.908,12.805,12.805,0,0,0-6.9,3.032l-.137.122,0-.183a7.365,7.365,0,0,0-1.585-4.362,9.217,9.217,0,0,0-3.953-2.934,13.66,13.66,0,0,0-5.12-.936,15.966,15.966,0,0,0-2.695.208,16.421,16.421,0,0,0-2.683.645A17.607,17.607,0,0,0,37.351,22a13.653,13.653,0,0,0-3.9,4.33,18.943,18.943,0,0,0-1.291,2.717,24.466,24.466,0,0,0-1.647,9.095l0,.127-.128-.016a5.82,5.82,0,0,0-2.857.448,13.1,13.1,0,0,0-4.87,3.434l-.241.292-.22.311-.443.623c-.277.428-.535.872-.788,1.317a18.137,18.137,0,0,0-1.9,5.886A18.384,18.384,0,0,0,19.3,56.85a16.7,16.7,0,0,0,2.675,6.144,17.684,17.684,0,0,0,4.8,4.5,18.525,18.525,0,0,0,5.951,2.438,17.288,17.288,0,0,0,6.238.175l.089-.014.03.084A15.3,15.3,0,0,0,43.8,76.8a15.621,15.621,0,0,0,7.1,3.334,15.105,15.105,0,0,0,7.479-.63,16.636,16.636,0,0,0,3.289-1.585c.516-.312.992-.675,1.468-1.03.452-.385.905-.763,1.311-1.186a14.469,14.469,0,0,0,2.136-2.713,12.718,12.718,0,0,1,1.9-2.807,4.027,4.027,0,0,1,1.444-.843,9,9,0,0,1,1.595-.362A17.962,17.962,0,0,0,74.6,68.37l.369-.107.358-.135.71-.27c.453-.22.92-.4,1.343-.662a15.635,15.635,0,0,0,2.4-1.629,16,16,0,0,0,3.5-4.132A13.957,13.957,0,0,0,85.04,52.5a15.439,15.439,0,0,0-2.414-6.45,14.013,14.013,0,0,0-2.884-3.238,11.271,11.271,0,0,0-.9-.688C78.644,41.971,78.545,41.894,78.545,41.894Z" transform="translate(-18.68 -18.366)" fill="#fff"/>
          </g>
        </g>
        <g id="Grupo_134019" data-name="Grupo 134019" transform="translate(55.528 55.577)">
          <circle id="Elipse_5414" data-name="Elipse 5414" cx="4.202" cy="4.202" r="4.202" transform="translate(0.112 0.092)" fill="#fff"/>
          <g id="Grupo_134018" data-name="Grupo 134018">
            <path id="Trazado_191090" data-name="Trazado 191090" d="M96.514,92.039a10,10,0,0,0-.174-1.016,4.189,4.189,0,0,0-1.534-2.262,4.115,4.115,0,0,0-3.892-.572,4.114,4.114,0,0,0-1.9,1.431,4.08,4.08,0,0,0,0,4.838,4.114,4.114,0,0,0,1.9,1.431,4.112,4.112,0,0,0,3.892-.573,4.186,4.186,0,0,0,1.534-2.262,9.975,9.975,0,0,0,.174-1.015,3.216,3.216,0,0,1-.09,1.037A4.183,4.183,0,0,1,94.9,95.442a4.226,4.226,0,0,1-1.8.815,4.3,4.3,0,0,1-2.259-.175,4.293,4.293,0,0,1-2.006-1.5,4.278,4.278,0,0,1,0-5.1,4.309,4.309,0,0,1,2.006-1.495,4.3,4.3,0,0,1,2.259-.175,4.233,4.233,0,0,1,1.8.816A4.178,4.178,0,0,1,96.424,91,3.216,3.216,0,0,1,96.514,92.039Z" transform="translate(-87.997 -87.744)" fill="#fff"/>
          </g>
        </g>
      </g>
      <g id="Grupo_134021" data-name="Grupo 134021" transform="translate(24.206 30.05)">
        <circle id="Elipse_5415" data-name="Elipse 5415" cx="1.948" cy="1.948" r="1.948" transform="translate(0 0)" fill="#263238"/>
        <circle id="Elipse_5416" data-name="Elipse 5416" cx="1.948" cy="1.948" r="1.948" transform="translate(7.713 0)" fill="#263238"/>
        <path id="Trazado_191091" data-name="Trazado 191091" d="M72.049,57.827A1.948,1.948,0,1,1,70.1,55.879,1.948,1.948,0,0,1,72.049,57.827Z" transform="translate(-52.727 -55.879)" fill="#263238"/>
      </g>
    </g>
    <g id="Grupo_134029" data-name="Grupo 134029" transform="translate(138.561)">
      <g id="Grupo_134027" data-name="Grupo 134027">
        <g id="Grupo_134024" data-name="Grupo 134024">
          <path id="Trazado_191092" data-name="Trazado 191092" d="M195.594,17.56a7.651,7.651,0,0,1,2.213-9.147,7.652,7.652,0,0,1,9.4.395,4.621,4.621,0,0,1,2-3.6,7.21,7.21,0,0,1,4.026-1.226,10.165,10.165,0,0,1,7.382,2.968c1.919,1.938,2.967,5.712,2.872,8.438,1.52-.239,3.736,1.224,4.677,2.441a10.358,10.358,0,0,1,.679,11.358,10.359,10.359,0,0,1-10.324,4.782,8.92,8.92,0,0,1-16.091,1.55,5.171,5.171,0,0,0-1.234-1.693,5.243,5.243,0,0,0-2.305-.636,8.785,8.785,0,0,1-7-6.687A8.785,8.785,0,0,1,195.594,17.56Z" transform="translate(-191.662 -3.887)" fill="#8c6df2"/>
          <g id="Grupo_134023" data-name="Grupo 134023">
            <path id="Trazado_191093" data-name="Trazado 191093" d="M195.581,17.537s-.055.045-.172.133-.306.211-.517.4a8.174,8.174,0,0,0-1.663,1.879,8.946,8.946,0,0,0-1.389,3.732,8.089,8.089,0,0,0,1.02,5.163,9.234,9.234,0,0,0,2.024,2.384,8.634,8.634,0,0,0,2.993,1.615,10.391,10.391,0,0,0,1.782.35,3.2,3.2,0,0,1,1.781.707,7.373,7.373,0,0,1,1.109,1.633A8.37,8.37,0,0,0,203.78,37.1a9.227,9.227,0,0,0,3.5,2.191,8.71,8.71,0,0,0,4.312.362A9.08,9.08,0,0,0,218.4,33.91l.03-.085.089.014a9.975,9.975,0,0,0,3.6-.1,10.677,10.677,0,0,0,3.433-1.407,10.191,10.191,0,0,0,2.769-2.6,9.63,9.63,0,0,0,1.542-3.543,10.6,10.6,0,0,0,.13-3.626,10.466,10.466,0,0,0-1.093-3.395c-.147-.257-.295-.513-.455-.759-.175-.234-.328-.491-.521-.706a7.54,7.54,0,0,0-2.8-1.977,3.329,3.329,0,0,0-1.632-.257l-.128.016,0-.127a13.306,13.306,0,0,0-.417-3.569,12.7,12.7,0,0,0-1.278-3.252,7.867,7.867,0,0,0-2.245-2.5,10.151,10.151,0,0,0-2.9-1.495,9.8,9.8,0,0,0-3.1-.493,7.859,7.859,0,0,0-2.952.538,5.3,5.3,0,0,0-2.276,1.687,4.233,4.233,0,0,0-.912,2.5l0,.183-.136-.121a7.385,7.385,0,0,0-3.981-1.752,7.752,7.752,0,0,0-3.87.521,6.7,6.7,0,0,0-2.71,2.052,7.534,7.534,0,0,0-1.318,2.562,8.088,8.088,0,0,0-.334,2.287,7.727,7.727,0,0,0,.2,1.687,6.623,6.623,0,0,0,.32,1c.089.222.128.332.128.332s-.056-.115-.153-.329a5.933,5.933,0,0,1-.342-.993,7.584,7.584,0,0,1-.227-1.7,8.1,8.1,0,0,1,.316-2.314A7.63,7.63,0,0,1,196.491,9.6a6.821,6.821,0,0,1,2.749-2.1,7.886,7.886,0,0,1,3.939-.548,7.543,7.543,0,0,1,4.073,1.778l-.139.061a4.959,4.959,0,0,1,3.286-4.36,8.049,8.049,0,0,1,3.02-.558,10,10,0,0,1,3.165.5,10.353,10.353,0,0,1,2.961,1.52,8.071,8.071,0,0,1,2.305,2.555,12.884,12.884,0,0,1,1.3,3.3,13.472,13.472,0,0,1,.427,3.628l-.125-.111a3.53,3.53,0,0,1,1.744.268,7.749,7.749,0,0,1,2.892,2.037c.2.228.356.485.537.727.164.252.316.513.466.776a10.681,10.681,0,0,1,1.119,3.469,10.853,10.853,0,0,1-.132,3.7,9.853,9.853,0,0,1-1.58,3.626,10.414,10.414,0,0,1-2.831,2.653,10.918,10.918,0,0,1-3.505,1.434,10.2,10.2,0,0,1-3.679.1l.119-.07a9.283,9.283,0,0,1-6.977,5.871,8.9,8.9,0,0,1-4.412-.377,9.4,9.4,0,0,1-3.57-2.245,8.52,8.52,0,0,1-1.256-1.6,7.282,7.282,0,0,0-1.074-1.6,3.033,3.033,0,0,0-1.687-.667,10.525,10.525,0,0,1-1.8-.361,8.785,8.785,0,0,1-3.042-1.656,9.387,9.387,0,0,1-2.046-2.432,8.188,8.188,0,0,1-1.007-5.245,8.948,8.948,0,0,1,1.434-3.759,7.961,7.961,0,0,1,1.7-1.867,5.4,5.4,0,0,1,.525-.383C195.513,17.579,195.581,17.537,195.581,17.537Z" transform="translate(-191.648 -3.865)" fill="#8c6df2"/>
          </g>
        </g>
        <g id="Grupo_134026" data-name="Grupo 134026" transform="translate(1.494 32.201)">
          <path id="Trazado_191094" data-name="Trazado 191094" d="M193.533,46.615a2.435,2.435,0,1,0,2.435-2.435A2.435,2.435,0,0,0,193.533,46.615Z" transform="translate(-193.518 -44.085)" fill="#8c6df2"/>
          <g id="Grupo_134025" data-name="Grupo 134025">
            <path id="Trazado_191095" data-name="Trazado 191095" d="M193.529,46.592c-.008,0-.013-.054-.014-.156a1.811,1.811,0,0,1,.048-.449,2.42,2.42,0,0,1,.88-1.393,2.513,2.513,0,0,1,3.57.493,2.521,2.521,0,0,1,0,3.008,2.515,2.515,0,0,1-3.571.5,2.426,2.426,0,0,1-.88-1.394,1.809,1.809,0,0,1-.048-.448c0-.1.006-.157.014-.157s.017.217.118.584a2.432,2.432,0,0,0,.892,1.289,2.338,2.338,0,1,0,0-3.746,2.435,2.435,0,0,0-.892,1.289C193.546,46.375,193.552,46.593,193.529,46.592Z" transform="translate(-193.514 -44.062)" fill="#8c6df2"/>
          </g>
        </g>
      </g>
      <g id="Grupo_134028" data-name="Grupo 134028" transform="translate(14.346 16.885)">
        <path id="Trazado_191096" data-name="Trazado 191096" d="M211.9,26.112a1.17,1.17,0,1,1-1.17-1.17A1.17,1.17,0,0,1,211.9,26.112Z" transform="translate(-209.557 -24.942)" fill="#263238"/>
        <path id="Trazado_191097" data-name="Trazado 191097" d="M217.682,26.112a1.17,1.17,0,1,1-1.17-1.17A1.17,1.17,0,0,1,217.682,26.112Z" transform="translate(-210.708 -24.942)" fill="#263238"/>
        <path id="Trazado_191098" data-name="Trazado 191098" d="M223.467,26.112a1.17,1.17,0,1,1-1.17-1.17A1.17,1.17,0,0,1,223.467,26.112Z" transform="translate(-211.858 -24.942)" fill="#263238"/>
      </g>
    </g>
    <g id="Grupo_134104" data-name="Grupo 134104" transform="translate(55.133 29.893)">
      <g id="Grupo_134040" data-name="Grupo 134040" transform="translate(0 65.11)">
        <path id="Trazado_191099" data-name="Trazado 191099" d="M105.6,127.708s-10.5,2.981-12.454,11.115c-1.85,7.706-5.64,24.686-5.64,24.686s14.759-.751,20.544-2.732Z" transform="translate(-87.504 -123.502)" fill="#5038a1"/>
        <g id="Grupo_134035" data-name="Grupo 134035" transform="translate(9.389)">
          <g id="Grupo_134034" data-name="Grupo 134034">
            <g id="Grupo_134030" data-name="Grupo 134030" transform="translate(20.942)">
              <path id="Trazado_191100" data-name="Trazado 191100" d="M158.84,124.37c-.561-.361-8.018-1.912-8.018-1.912l-17.983.469-6.441,1.188s-1.193,19.981-1.014,20.342,8.5,7.217,8.847,7.578,17.532-5.413,17.532-5.413L163.1,126.294Z" transform="translate(-125.366 -122.458)" fill="#ffbe9d"/>
            </g>
            <g id="Grupo_134032" data-name="Grupo 134032" transform="translate(60.936 9.133)">
              <g id="Grupo_134031" data-name="Grupo 134031">
                <path id="Trazado_191101" data-name="Trazado 191101" d="M211.718,181.332a10.02,10.02,0,0,0,.3-9.888c-2.741-5.435-27.731-37.586-27.731-37.586s-9.5,7.775-8.977,16.793l4,10,16.225,15.658Z" transform="translate(-175.291 -133.859)" fill="#ffbe9d"/>
              </g>
            </g>
            <g id="Grupo_134033" data-name="Grupo 134033" transform="translate(0 0.928)">
              <path id="Trazado_191102" data-name="Trazado 191102" d="M151.534,123.805c.9,0,12.947,2.664,17.029,6.13,4.327,3.673,17.207,19.674,17.207,19.674l-18.958,13.457-2-2.68-3.2,20.109s8.257,22.267,9.339,30.747l-71.724-.152s6.212-18.579,8.789-24.6c.5-1.179-4.882-19.61-4.856-24.466.041-7.81,2.27-23.279,2.27-23.279l2.5-11.852,17.222-3.278s2.284,9.731,11.841,9.731A15.227,15.227,0,0,0,151.534,123.805Z" transform="translate(-99.224 -123.616)" fill="#8c6df2"/>
            </g>
          </g>
        </g>
        <g id="Grupo_134036" data-name="Grupo 134036" transform="translate(58.478 76.139)" opacity="0.3">
          <path id="Trazado_191103" data-name="Trazado 191103" d="M182.471,225.741q-.119-1.545-.239-3.091L170.04,217.5H160.5a2.43,2.43,0,0,0,1.32,1.931,7.263,7.263,0,0,0,2.333.694,6.962,6.962,0,0,1,2.326.713,6.1,6.1,0,0,0-1.691,1.149c1.281,1.122,3.236.757,4.9,1.139,2.676.618,4.477,3.176,7.023,4.2a6.681,6.681,0,0,0,4.62.126,1.686,1.686,0,0,0,1.057-.776A1.907,1.907,0,0,0,182.471,225.741Z" transform="translate(-160.503 -217.504)"/>
        </g>
        <g id="Grupo_134037" data-name="Grupo 134037" transform="translate(73.137 20.61)">
          <path id="Trazado_191104" data-name="Trazado 191104" d="M179.206,148.186a1.5,1.5,0,0,1,.089.28l.214.815c.094.354.2.789.3,1.3s.232,1.088.327,1.736l.163,1.015c.052.353.09.723.139,1.1.1.763.162,1.584.236,2.447.112,1.727.16,3.631.1,5.628a70.9,70.9,0,0,1-1.086,10.162c-.232,1.287-.444,2.325-.61,3.037l-.194.819a1.489,1.489,0,0,1-.082.282,1.407,1.407,0,0,1,.038-.292c.039-.211.09-.486.152-.827.14-.717.328-1.758.54-3.046a78.8,78.8,0,0,0,1.019-10.142c.054-1.99.013-3.887-.088-5.608-.068-.86-.118-1.678-.214-2.439-.045-.381-.078-.75-.127-1.1s-.1-.69-.148-1.013c-.083-.647-.2-1.226-.293-1.736s-.179-.948-.26-1.3l-.172-.824A1.434,1.434,0,0,1,179.206,148.186Z" transform="translate(-178.802 -148.186)" fill="#263238"/>
        </g>
        <g id="Grupo_134038" data-name="Grupo 134038" transform="translate(16.38 22.106)">
          <path id="Trazado_191105" data-name="Trazado 191105" d="M107.956,150.053a1.381,1.381,0,0,1,.05.288c.026.212.059.488.1.83.087.721.185,1.767.3,3.06.219,2.587.4,6.172.521,10.13s.276,7.538.455,10.126c.094,1.274.17,2.314.225,3.063.024.344.043.62.058.834a1.474,1.474,0,0,1,.006.292,1.407,1.407,0,0,1-.05-.288c-.026-.212-.058-.488-.1-.83-.087-.721-.185-1.766-.3-3.06-.219-2.587-.4-6.171-.521-10.13s-.276-7.537-.455-10.125c-.094-1.274-.17-2.314-.225-3.064-.024-.344-.043-.62-.058-.834A1.475,1.475,0,0,1,107.956,150.053Z" transform="translate(-107.952 -150.053)" fill="#263238"/>
        </g>
        <g id="Grupo_134039" data-name="Grupo 134039" transform="translate(32.214 60.836)">
          <path id="Trazado_191106" data-name="Trazado 191106" d="M155.189,198.4a1.357,1.357,0,0,1-.269.085l-.782.2c-.679.174-1.669.4-2.9.655a95.123,95.123,0,0,1-19.47,1.959c-1.254-.006-2.268-.03-2.969-.066L128,201.2a1.272,1.272,0,0,1-.28-.03,1.422,1.422,0,0,1,.282-.014h.807c.7.009,1.714.009,2.966-.006,2.5-.026,5.962-.161,9.765-.542s7.216-.941,9.675-1.414c1.23-.236,2.223-.437,2.907-.586l.791-.161A1.313,1.313,0,0,1,155.189,198.4Z" transform="translate(-127.717 -198.401)" fill="#263238"/>
        </g>
      </g>
      <g id="Grupo_134094" data-name="Grupo 134094" transform="translate(14.439)">
        <g id="Grupo_134093" data-name="Grupo 134093">
          <g id="Grupo_134042" data-name="Grupo 134042" transform="translate(0 1.556)">
            <g id="Grupo_134041" data-name="Grupo 134041">
              <path id="Trazado_191107" data-name="Trazado 191107" d="M156.516,52.643c3.118-2.365,9.425-.747,10.591,1.408a4.957,4.957,0,0,1,5.984,3.309l6.518,2.752a7.208,7.208,0,0,1,3.018,1.925,2.476,2.476,0,0,1-.018,3.28,3.757,3.757,0,0,1,.455,6.2,2.619,2.619,0,0,1-1.077,3.655,26.211,26.211,0,0,1,2.968,8.382,5.339,5.339,0,0,1-.328,3.644c-.64,1.069-2.3,1.58-3.159.677A3.067,3.067,0,0,1,181,91.155c1.144.242,1.155,2.083.21,2.772a4.266,4.266,0,0,1-3.389.3,5.632,5.632,0,0,0-3.445-.052,1.063,1.063,0,0,0,.239.8,4.808,4.808,0,0,1-.145,6.636c-.173.166-.334.32-.476.457a10.519,10.519,0,0,1-3.776,1.724c-2.853.871-4.352.326-7.332.205.443,2.019-5.042,5.285-9.677.207a105.808,105.808,0,0,1-30.41-1.508c-1.591-.292-3.461-.864-3.9-2.42a4.014,4.014,0,0,1-3.412-1.867,11.844,11.844,0,0,1-1.505-3.757,7.046,7.046,0,0,1-3.823-7.17,8.707,8.707,0,0,1-2.095-6.691,5.11,5.11,0,0,1-1.617-7.319A30.854,30.854,0,0,1,111.5,64.7c-1.75-.733-1.977-3.319-.909-4.887s2.93-2.357,4.69-3.066c-1.43.109-2.3-1.824-1.719-3.135a5.475,5.475,0,0,1,3.336-2.529,26.086,26.086,0,0,1,6.117-1.468c1.1-2.278,4.67-4.439,7.115-5.083,9.86-2.6,16.412-2.5,26.384,8.109" transform="translate(-105.529 -43.122)" fill="#263238"/>
            </g>
          </g>
          <g id="Grupo_134044" data-name="Grupo 134044" transform="translate(17.666 12.655)">
            <g id="Grupo_134043" data-name="Grupo 134043">
              <path id="Trazado_191108" data-name="Trazado 191108" d="M132.452,67.967c1.884-6.1,7.823-12.719,13.842-10.577l18.11,9.522a3.738,3.738,0,0,1,2.363,4.469l-10.61,41.163a11.657,11.657,0,0,1-11.88,8.732h0a11.658,11.658,0,0,1-10.847-13.881c.56-2.862.974-5.012.969-5s-7.6-3.223-6.751-13.95C128.07,83.111,130.358,74.748,132.452,67.967Z" transform="translate(-127.581 -56.978)" fill="#ffbe9d"/>
            </g>
          </g>
          <g id="Grupo_134059" data-name="Grupo 134059" transform="translate(24.035 57.717)">
            <g id="Grupo_134058" data-name="Grupo 134058">
              <g id="Grupo_134057" data-name="Grupo 134057">
                <g id="Grupo_134056" data-name="Grupo 134056">
                  <g id="Grupo_134055" data-name="Grupo 134055">
                    <g id="Grupo_134054" data-name="Grupo 134054">
                      <g id="Grupo_134053" data-name="Grupo 134053">
                        <g id="Grupo_134052" data-name="Grupo 134052">
                          <g id="Grupo_134051" data-name="Grupo 134051">
                            <g id="Grupo_134050" data-name="Grupo 134050">
                              <g id="Grupo_134049" data-name="Grupo 134049">
                                <g id="Grupo_134048" data-name="Grupo 134048">
                                  <g id="Grupo_134047" data-name="Grupo 134047">
                                    <g id="Grupo_134046" data-name="Grupo 134046">
                                      <g id="Grupo_134045" data-name="Grupo 134045">
                                        <path id="Trazado_191109" data-name="Trazado 191109" d="M135.981,113.585a27.038,27.038,0,0,0,14.727-.356s-5.068,6.288-15.176,2.829Z" transform="translate(-135.532 -113.229)" fill="#eb996e"/>
                                      </g>
                                    </g>
                                  </g>
                                </g>
                              </g>
                            </g>
                          </g>
                        </g>
                      </g>
                    </g>
                  </g>
                </g>
              </g>
            </g>
          </g>
          <g id="Grupo_134061" data-name="Grupo 134061" transform="translate(16.388 10.059)">
            <g id="Grupo_134060" data-name="Grupo 134060">
              <path id="Trazado_191110" data-name="Trazado 191110" d="M126.477,71.421a7.3,7.3,0,0,1,2.6-4.153,27.058,27.058,0,0,0,2.3-1.491c1.472-1.313,1.722-3.485,2.583-5.26a8.025,8.025,0,0,1,5.906-4.35c2.092-.318,4.289.207,6.313-.411,1.5-.457,2.771-1.505,4.291-1.872,2.961-.715,5.845,1.294,8.117,3.323.114,2.139-1.52,3.654-3.094,5.108a7.429,7.429,0,0,1-5.93,1.88c-1.648-.218-3.477-.956-4.848-.016-1.442.988-1.393,3.232-2.656,4.441-1.8,1.728-4.875.34-7.232,1.167-1.82.639-2.887,2.461-4.041,4.007s-2.923,3.048-4.8,2.591A21.721,21.721,0,0,1,126.477,71.421Z" transform="translate(-125.986 -53.737)" fill="#263238"/>
            </g>
          </g>
          <g id="Grupo_134063" data-name="Grupo 134063" transform="translate(44.155 16.454)">
            <g id="Grupo_134062" data-name="Grupo 134062">
              <path id="Trazado_191111" data-name="Trazado 191111" d="M160.695,61.72a37.665,37.665,0,0,1,13.472,5.231,6.862,6.862,0,0,1,2.98,3.042,6.727,6.727,0,0,1,.025,3.756c-.805,3.9-3.306,8.37-5.5,11.692l-5.444,1.971c-3.582-1.618-.6-7.766.215-10.981a7.816,7.816,0,0,1-3.165-7.646A8.651,8.651,0,0,1,160.695,61.72Z" transform="translate(-160.649 -61.72)" fill="#263238"/>
            </g>
          </g>
          <g id="Grupo_134070" data-name="Grupo 134070" transform="translate(48.561 39.062)">
            <g id="Grupo_134069" data-name="Grupo 134069">
              <g id="Grupo_134068" data-name="Grupo 134068">
                <g id="Grupo_134067" data-name="Grupo 134067">
                  <g id="Grupo_134066" data-name="Grupo 134066">
                    <g id="Grupo_134065" data-name="Grupo 134065">
                      <g id="Grupo_134064" data-name="Grupo 134064">
                        <path id="Trazado_191112" data-name="Trazado 191112" d="M167.665,91.636c.582-2.2,3.408-2.105,5.1-.581.93.836,1.481,2.24.884,4.584-1.592,6.252-7.54,3.365-7.505,3.183C166.17,98.709,166.984,94.217,167.665,91.636Z" transform="translate(-166.148 -89.942)" fill="#ffbe9d"/>
                      </g>
                    </g>
                  </g>
                </g>
              </g>
            </g>
          </g>
          <g id="Grupo_134078" data-name="Grupo 134078" transform="translate(51.061 41.383)">
            <g id="Grupo_134077" data-name="Grupo 134077">
              <g id="Grupo_134076" data-name="Grupo 134076">
                <g id="Grupo_134075" data-name="Grupo 134075">
                  <g id="Grupo_134074" data-name="Grupo 134074">
                    <g id="Grupo_134073" data-name="Grupo 134073">
                      <g id="Grupo_134072" data-name="Grupo 134072">
                        <g id="Grupo_134071" data-name="Grupo 134071">
                          <path id="Trazado_191113" data-name="Trazado 191113" d="M169.282,97.516c.032-.013.09.1.252.236a1.126,1.126,0,0,0,.81.223c.723-.074,1.545-.981,1.862-2.1a3.707,3.707,0,0,0,.092-1.637,1.3,1.3,0,0,0-.606-1.045.572.572,0,0,0-.719.135c-.128.154-.12.288-.156.291s-.107-.139.009-.385a.716.716,0,0,1,.345-.328.842.842,0,0,1,.642-.006,1.577,1.577,0,0,1,.892,1.258A3.814,3.814,0,0,1,172.638,96c-.36,1.25-1.306,2.265-2.276,2.3a1.2,1.2,0,0,1-.954-.418C169.254,97.67,169.257,97.521,169.282,97.516Z" transform="translate(-169.269 -92.839)" fill="#eb996e"/>
                        </g>
                      </g>
                    </g>
                  </g>
                </g>
              </g>
            </g>
          </g>
          <g id="Grupo_134080" data-name="Grupo 134080" transform="translate(44.675 16.372)">
            <g id="Grupo_134079" data-name="Grupo 134079">
              <path id="Trazado_191114" data-name="Trazado 191114" d="M170.028,95.874a5.362,5.362,0,0,0,1.027.131,3.805,3.805,0,0,0,1.172-.119l-.068-.053a3.2,3.2,0,0,0,4.619,2.971l-.1-.04a1.324,1.324,0,0,0,.721.715,1.834,1.834,0,0,0,1.041.114,1.687,1.687,0,0,0,.954-.509,2.244,2.244,0,0,0,.523-.979,3.289,3.289,0,0,0-.278-2.242,9.635,9.635,0,0,0-1.351-1.947l-.039.144a2.27,2.27,0,0,0,1.295-1.3,3.313,3.313,0,0,0,.183-1.9,5.1,5.1,0,0,0-.8-1.792,15.215,15.215,0,0,0-1.25-1.557l-.018.144a2.418,2.418,0,0,0,.98-1.713,3.488,3.488,0,0,0-.349-2.017,8.625,8.625,0,0,0-2.664-2.752l.029.119a4.276,4.276,0,0,0-3.552-6.07l.076.127a3.687,3.687,0,0,0-.256-3.243,3.64,3.64,0,0,0-2.416-1.832l.064.1a3.616,3.616,0,0,0-.9-3.035,3.535,3.535,0,0,0-2.5-1.244l.06.075a3.545,3.545,0,0,0-.2-1.722,4.53,4.53,0,0,0-.734-1.347,3.7,3.7,0,0,0-1.98-1.353l-.234-.062c-.078-.014-.154-.018-.227-.026a3.179,3.179,0,0,0-.409-.032,4.474,4.474,0,0,0-.637.053l-.382.083a.659.659,0,0,0-.127.034.8.8,0,0,0,.131-.016l.383-.065a4.628,4.628,0,0,1,.631-.035,3.286,3.286,0,0,1,.4.039c.071.01.147.015.222.03l.228.065a3.642,3.642,0,0,1,1.92,1.348,4.463,4.463,0,0,1,.7,1.323,3.436,3.436,0,0,1,.181,1.66l-.012.074.072,0a3.409,3.409,0,0,1,2.4,1.213,3.469,3.469,0,0,1,.85,2.908l-.016.079.079.015a3.476,3.476,0,0,1,2.3,1.758,3.513,3.513,0,0,1,.24,3.086l-.051.118.128.01a4.091,4.091,0,0,1,3.389,5.805l-.033.071.062.048a8.465,8.465,0,0,1,2.608,2.685,3.294,3.294,0,0,1,.33,1.9,2.224,2.224,0,0,1-.9,1.579l-.091.061.074.083a7.576,7.576,0,0,1,2.009,3.26,3.12,3.12,0,0,1-.168,1.79,2.084,2.084,0,0,1-1.184,1.2l-.123.044.084.1a9.568,9.568,0,0,1,1.332,1.907,3.121,3.121,0,0,1,.274,2.125,1.727,1.727,0,0,1-1.342,1.371,1.414,1.414,0,0,1-1.593-.726l-.03-.076-.074.036a3.119,3.119,0,0,1-3.244-.317,3.155,3.155,0,0,1-1.2-2.515l0-.074-.07.021a3.7,3.7,0,0,1-1.138.127,5.282,5.282,0,0,1-1.013-.117,3.94,3.94,0,0,1-1.484-.6,1.487,1.487,0,0,1-.61-.762c-.062-.215-.056-.338-.068-.336a.418.418,0,0,0,0,.087.891.891,0,0,0,.038.257,1.486,1.486,0,0,0,.606.8" transform="translate(-161.297 -61.617)" fill="#455a64"/>
            </g>
          </g>
          <g id="Grupo_134082" data-name="Grupo 134082" transform="translate(46.512 13.807)">
            <g id="Grupo_134081" data-name="Grupo 134081">
              <path id="Trazado_191115" data-name="Trazado 191115" d="M193.74,91.368a2.138,2.138,0,0,0,.312-.336,3.3,3.3,0,0,0,.578-1.186,3.239,3.239,0,0,0-.132-2.084,3.421,3.421,0,0,0-2.008-1.9l.039.086a4.417,4.417,0,0,0,.034-3.232,4.291,4.291,0,0,0-.982-1.555,10.253,10.253,0,0,0-1.571-1.15,3.536,3.536,0,0,1-.733-.653,2.183,2.183,0,0,1-.426-.89c-.163-.661-.115-1.395-.343-2.116a3.918,3.918,0,0,0-3.481-2.657l.088.128a5.161,5.161,0,0,0-4.5-6.831l.086.124a4.531,4.531,0,0,0-6.111-5.5l.1.03a6.2,6.2,0,0,0-1.947-1.777,9.277,9.277,0,0,0-2.168-.961,10.808,10.808,0,0,0-3.8-.474,7.671,7.671,0,0,0-2.406.493,4.378,4.378,0,0,0-.586.274c-.131.067-.194.107-.194.107.008.015.272-.135.8-.335a7.94,7.94,0,0,1,2.394-.445,10.857,10.857,0,0,1,3.754.507,9.182,9.182,0,0,1,2.129.962,6.053,6.053,0,0,1,1.89,1.741l.038.056.063-.026a4.356,4.356,0,0,1,5.862,5.293l-.035.116.121.009a4.972,4.972,0,0,1,4.329,6.575l-.042.123.131,0a3.733,3.733,0,0,1,3.311,2.521c.219.675.175,1.405.346,2.1a2.369,2.369,0,0,0,.463.957,3.691,3.691,0,0,0,.771.683,10.177,10.177,0,0,1,1.554,1.124,4.164,4.164,0,0,1,.955,1.495,4.292,4.292,0,0,1-.011,3.128l-.026.063.066.022A3.323,3.323,0,0,1,194.4,87.8a3.193,3.193,0,0,1,.159,2.028,3.415,3.415,0,0,1-.539,1.182C193.848,91.252,193.733,91.361,193.74,91.368Z" transform="translate(-163.591 -58.416)" fill="#455a64"/>
            </g>
          </g>
          <g id="Grupo_134084" data-name="Grupo 134084" transform="translate(13.438 11.96)">
            <g id="Grupo_134083" data-name="Grupo 134083">
              <path id="Trazado_191116" data-name="Trazado 191116" d="M124.715,80.906a.633.633,0,0,0,.125-.514,1.252,1.252,0,0,0-.268-.6,2.185,2.185,0,0,0-.7-.545,3.77,3.77,0,0,1-.908-.6,2,2,0,0,1-.515-1.153,3.919,3.919,0,0,1,.122-1.479c.123-.517.312-1.054.427-1.645a17.323,17.323,0,0,0-.08-3.895,5.345,5.345,0,0,1,.318-2.1,2.579,2.579,0,0,1,1.491-1.556,9.668,9.668,0,0,1,2.362-.322,3.9,3.9,0,0,0,1.235-.308,2.606,2.606,0,0,0,.994-.845,12.506,12.506,0,0,0,1.147-2.361,4.326,4.326,0,0,1,.671-1.114,1.968,1.968,0,0,1,1.091-.636,7.22,7.22,0,0,1,1.8.1,2.78,2.78,0,0,0,.93-.05,1.77,1.77,0,0,0,.813-.454,6.254,6.254,0,0,0,.975-1.488,3.972,3.972,0,0,1,1.07-1.273,3.885,3.885,0,0,1,3.01-.783,3.989,3.989,0,0,1,2.5,1.492l.069.091.067-.094a6.132,6.132,0,0,1,4.384-2.514,5.654,5.654,0,0,1,2.148.227,5.162,5.162,0,0,1,1.644.82,4.535,4.535,0,0,1,1.518,2.056,4.474,4.474,0,0,1,.2.655l.045.171a.183.183,0,0,0,.019.057.2.2,0,0,0-.006-.059c-.009-.046-.019-.1-.032-.174a3.949,3.949,0,0,0-.175-.667,4.5,4.5,0,0,0-1.508-2.116,5.213,5.213,0,0,0-1.669-.856,5.754,5.754,0,0,0-2.195-.251,6.267,6.267,0,0,0-4.509,2.554l.136,0a4.16,4.16,0,0,0-2.6-1.569,4.066,4.066,0,0,0-3.155.811,4.164,4.164,0,0,0-1.122,1.328,6.138,6.138,0,0,1-.942,1.441,1.884,1.884,0,0,1-1.593.451,7.282,7.282,0,0,0-1.847-.1,2.164,2.164,0,0,0-1.2.7,4.466,4.466,0,0,0-.7,1.164,12.433,12.433,0,0,1-1.124,2.326,2.4,2.4,0,0,1-.92.787,3.712,3.712,0,0,1-1.174.294,9.677,9.677,0,0,0-2.406.339,2.469,2.469,0,0,0-.989.67,3.266,3.266,0,0,0-.6.993,5.513,5.513,0,0,0-.32,2.164,17.5,17.5,0,0,1,.107,3.864c-.107.578-.292,1.117-.413,1.642a4.017,4.017,0,0,0-.108,1.522,2.084,2.084,0,0,0,.557,1.2,3.788,3.788,0,0,0,.937.606,2.156,2.156,0,0,1,.7.514,1.234,1.234,0,0,1,.275.565A.787.787,0,0,1,124.715,80.906Z" transform="translate(-122.304 -56.11)" fill="#455a64"/>
            </g>
          </g>
          <g id="Grupo_134086" data-name="Grupo 134086" transform="translate(5.472 7.135)">
            <g id="Grupo_134085" data-name="Grupo 134085">
              <path id="Trazado_191117" data-name="Trazado 191117" d="M112.36,67.534a.633.633,0,0,0,.088-.1l.243-.321.918-1.245c.4-.538.866-1.218,1.482-1.941a5.742,5.742,0,0,1,2.558-1.86c.565-.178,1.192-.247,1.836-.4a4.051,4.051,0,0,0,.962-.337,2.226,2.226,0,0,0,.805-.7c.427-.6.58-1.341.951-1.973a1.812,1.812,0,0,1,.776-.746,3.426,3.426,0,0,1,1.108-.274,6.587,6.587,0,0,0,1.2-.211,2.071,2.071,0,0,0,1.037-.727,9.413,9.413,0,0,0,1.017-2.348,3.087,3.087,0,0,1,.645-1.079,1.611,1.611,0,0,1,1.131-.466c.865-.012,1.7.452,2.657.485a2.267,2.267,0,0,0,1.342-.409,5.907,5.907,0,0,0,1-.936,12.27,12.27,0,0,1,.905-.956,2.5,2.5,0,0,1,1.085-.616,3.788,3.788,0,0,1,2.385.483,5.677,5.677,0,0,0,2.361.675,6.558,6.558,0,0,0,2.274-.547,11.031,11.031,0,0,1,2.061-.672,6.638,6.638,0,0,1,3.775.606,7.128,7.128,0,0,1,2.5,1.971A7.947,7.947,0,0,1,152.645,55a9.01,9.01,0,0,1,.393,1.488c.032.165.057.3.075.394a.725.725,0,0,0,.033.134.7.7,0,0,0-.013-.136c-.014-.1-.033-.232-.056-.4a8.268,8.268,0,0,0-.36-1.506,7.871,7.871,0,0,0-1.168-2.155,7.205,7.205,0,0,0-2.528-2.028,6.769,6.769,0,0,0-3.862-.642,11.127,11.127,0,0,0-2.1.672,6.4,6.4,0,0,1-2.213.527,5.521,5.521,0,0,1-2.285-.664,8.115,8.115,0,0,0-1.19-.453,2.46,2.46,0,0,0-2.483.612,12.247,12.247,0,0,0-.922.971,5.707,5.707,0,0,1-.964.9,2.07,2.07,0,0,1-1.227.375c-.89-.025-1.726-.489-2.665-.484a1.8,1.8,0,0,0-1.263.522,3.272,3.272,0,0,0-.687,1.147,9.425,9.425,0,0,1-.985,2.3,1.891,1.891,0,0,1-.946.666,6.5,6.5,0,0,1-1.168.207,3.631,3.631,0,0,0-1.162.294,2,2,0,0,0-.847.817c-.385.67-.534,1.405-.936,1.967a2.635,2.635,0,0,1-1.669.985c-.631.15-1.262.223-1.844.411a5.816,5.816,0,0,0-2.6,1.92c-.614.736-1.069,1.423-1.46,1.967l-.888,1.266-.227.332A.755.755,0,0,0,112.36,67.534Z" transform="translate(-112.36 -50.087)" fill="#455a64"/>
            </g>
          </g>
          <g id="Grupo_134088" data-name="Grupo 134088" transform="translate(7.781 19.21)">
            <g id="Grupo_134087" data-name="Grupo 134087">
              <path id="Trazado_191118" data-name="Trazado 191118" d="M120.946,65.22a.5.5,0,0,0-.111-.042.723.723,0,0,0-.352.01,1.38,1.38,0,0,0-.846,1,3.389,3.389,0,0,0-.048.972,4,4,0,0,1-.049,1.126,2.484,2.484,0,0,1-.672,1.082c-.319.333-.7.646-1.045,1.052a1.849,1.849,0,0,0-.466,1.561c.1.578.4,1.1.486,1.688a2.4,2.4,0,0,1-.509,1.707c-.358.53-.819,1.023-1.185,1.618a2.9,2.9,0,0,0-.4.987,2.611,2.611,0,0,0,.037,1.093,12.389,12.389,0,0,0,.853,2.036,2.963,2.963,0,0,1,.28,2.132,9.784,9.784,0,0,1-1.178,1.985,3.346,3.346,0,0,0-.461,1.117,2.656,2.656,0,0,0,.076,1.194,9.848,9.848,0,0,0,1.017,2.053,5.224,5.224,0,0,1,.759,2.005,15.641,15.641,0,0,0,.275,2.1,2.321,2.321,0,0,0,.487.924,2.964,2.964,0,0,0,.811.6,8.085,8.085,0,0,1,.816.482,3.214,3.214,0,0,1,.634.639,6.578,6.578,0,0,1,.774,1.554c.2.527.379,1.043.6,1.516a4.414,4.414,0,0,0,1.888,2.048,4.748,4.748,0,0,0,2.028.6,4.21,4.21,0,0,0,1.332-.124,3.176,3.176,0,0,0,.441-.151,4.9,4.9,0,0,1-1.767.2,4.719,4.719,0,0,1-1.979-.617,4.315,4.315,0,0,1-1.817-2.011c-.215-.467-.389-.979-.586-1.511a6.706,6.706,0,0,0-.784-1.6,3.336,3.336,0,0,0-.667-.678,7.941,7.941,0,0,0-.831-.5,2.814,2.814,0,0,1-.763-.571,2.15,2.15,0,0,1-.445-.857,15.8,15.8,0,0,1-.263-2.072,5.422,5.422,0,0,0-.777-2.074,9.753,9.753,0,0,1-1-2.011,2.481,2.481,0,0,1-.071-1.108,3.179,3.179,0,0,1,.435-1.049,9.751,9.751,0,0,0,1.2-2.03,2.457,2.457,0,0,0,.067-1.177,4.773,4.773,0,0,0-.357-1.091,12.509,12.509,0,0,1-.847-2,2.448,2.448,0,0,1-.038-1.016,2.716,2.716,0,0,1,.376-.928c.349-.574.807-1.068,1.173-1.615A2.561,2.561,0,0,0,118,73.643c-.1-.626-.406-1.148-.5-1.69a1.7,1.7,0,0,1,.425-1.448c.324-.393.7-.711,1.028-1.053a2.58,2.58,0,0,0,.687-1.142,3.989,3.989,0,0,0,.036-1.158,3.387,3.387,0,0,1,.029-.948,1.351,1.351,0,0,1,.784-.979A.828.828,0,0,1,120.946,65.22Z" transform="translate(-115.242 -65.16)" fill="#455a64"/>
            </g>
          </g>
          <g id="Grupo_134090" data-name="Grupo 134090" transform="translate(50.578 8.539)">
            <g id="Grupo_134089" data-name="Grupo 134089">
              <path id="Trazado_191119" data-name="Trazado 191119" d="M194.632,89.822a2.4,2.4,0,0,0,.51.048,3.515,3.515,0,0,0,1.444-.312,3.434,3.434,0,0,0,1.7-1.6,3.619,3.619,0,0,0,.066-3.086,9.077,9.077,0,0,0-1.011-1.545,4.332,4.332,0,0,1-.889-1.734,2.838,2.838,0,0,1,.489-1.99c.374-.63.873-1.219,1.252-1.925a6.32,6.32,0,0,0-3.13-8.807l.029.159a3.207,3.207,0,0,0,.817-1.275,4.038,4.038,0,0,0,.2-1.522,4.428,4.428,0,0,0-.363-1.514,5.247,5.247,0,0,0-.856-1.321,9.974,9.974,0,0,0-3.832-2.494,15.11,15.11,0,0,0-4.216-1.014l.084.109a4.577,4.577,0,0,0-1.781-4.384A4.668,4.668,0,0,0,183,54.75a7.533,7.533,0,0,0-2.181.143,4.243,4.243,0,0,1-1.019.034,2.6,2.6,0,0,1-.932-.285,7.914,7.914,0,0,1-1.514-1.142,6.911,6.911,0,0,0-1.456-1.043,5.6,5.6,0,0,0-1.556-.526,5.412,5.412,0,0,0-2.766.2,5.573,5.573,0,0,0-1.8,1.035,5.352,5.352,0,0,0-.876.958,2.988,2.988,0,0,0-.239.381c.008.006.086-.128.265-.361a5.688,5.688,0,0,1,.892-.929,5.618,5.618,0,0,1,1.788-1,5.351,5.351,0,0,1,2.714-.174,5.517,5.517,0,0,1,1.517.526,6.764,6.764,0,0,1,1.422,1.034,8.055,8.055,0,0,0,1.538,1.17,2.75,2.75,0,0,0,.985.306,4.372,4.372,0,0,0,1.057-.03,7.4,7.4,0,0,1,2.137-.135,4.505,4.505,0,0,1,2.056.836,4.4,4.4,0,0,1,1.7,4.211l-.016.1.1.01a14.925,14.925,0,0,1,4.161,1.006,9.811,9.811,0,0,1,3.755,2.442,5.073,5.073,0,0,1,.824,1.271,4.233,4.233,0,0,1,.348,1.447,3.846,3.846,0,0,1-.188,1.448,3,3,0,0,1-.765,1.2l-.108.1.137.058a6.146,6.146,0,0,1,3.054,8.55c-.364.686-.86,1.277-1.24,1.923a2.992,2.992,0,0,0-.5,2.1,4.47,4.47,0,0,0,.926,1.79,9.059,9.059,0,0,1,1.008,1.516,3.521,3.521,0,0,1-.041,2.99,3.376,3.376,0,0,1-1.635,1.585,3.6,3.6,0,0,1-1.416.339C194.808,89.842,194.633,89.812,194.632,89.822Z" transform="translate(-168.666 -51.84)" fill="#263238"/>
            </g>
          </g>
          <g id="Grupo_134092" data-name="Grupo 134092" transform="translate(12.104)">
            <g id="Grupo_134091" data-name="Grupo 134091">
              <path id="Trazado_191120" data-name="Trazado 191120" d="M120.639,55.67a.654.654,0,0,0,.042-.118c.026-.088.06-.2.1-.348.094-.319.225-.767.393-1.34s.4-1.287.723-2.084a12.479,12.479,0,0,1,1.367-2.566,8.271,8.271,0,0,1,2.555-2.378,6.1,6.1,0,0,1,1.817-.684,17.678,17.678,0,0,1,2.076-.183,5.829,5.829,0,0,0,2.167-.5,9.21,9.21,0,0,0,1.923-1.289c.606-.5,1.194-1.03,1.848-1.488a6.559,6.559,0,0,1,2.172-1.032,11.616,11.616,0,0,1,4.758-.082,30.214,30.214,0,0,1,4.362,1.035A22.956,22.956,0,0,1,153.7,46a16.265,16.265,0,0,1,3.575,3.636c.17.25.329.467.453.665l.3.509.187.312a.638.638,0,0,0,.07.1.54.54,0,0,0-.052-.113l-.17-.321-.283-.521c-.119-.2-.274-.423-.44-.679a15.888,15.888,0,0,0-3.554-3.7A22.836,22.836,0,0,0,147,42.444a30.1,30.1,0,0,0-4.388-1.053,11.752,11.752,0,0,0-4.839.083,6.739,6.739,0,0,0-2.233,1.061c-.667.469-1.257,1.006-1.858,1.5A9.06,9.06,0,0,1,131.8,45.3a5.667,5.667,0,0,1-2.1.485,17.555,17.555,0,0,0-2.1.195,6.259,6.259,0,0,0-1.864.712,8.352,8.352,0,0,0-2.587,2.438,12.355,12.355,0,0,0-1.356,2.605c-.314.806-.529,1.52-.695,2.1s-.28,1.041-.357,1.352l-.085.353A.574.574,0,0,0,120.639,55.67Z" transform="translate(-120.638 -41.18)" fill="#263238"/>
            </g>
          </g>
        </g>
      </g>
      <g id="Grupo_134099" data-name="Grupo 134099" transform="translate(4.695 50.423)">
        <g id="Grupo_134095" data-name="Grupo 134095" transform="translate(14.613 22.811)" opacity="0.3">
          <path id="Trazado_191121" data-name="Trazado 191121" d="M111.607,186.606c4.258.323,8.272-2.447,10.642-6s3.41-7.8,4.408-11.952q2.66-11.063,5.32-22.128c.826-3.436,1.925-7.249,5-8.994a15.667,15.667,0,0,0,2.92-1.6c.829-.743,1.209-2.188.383-2.934-.733-.662-1.886-.377-2.809-.023a19.47,19.47,0,0,0-7.668,4.79,9.344,9.344,0,0,0-2.417,8.413" transform="translate(-111.607 -132.6)"/>
        </g>
        <path id="Trazado_191122" data-name="Trazado 191122" d="M112.069,147.208s-4.752,9.417-9.129,18.635l-9.565,1.3s-.618,18.839,8.076,22.106c9.6,3.606,14.517-7.81,17.6-16.372,2.4-6.672,6.567-21.066,7.593-25.1Z" transform="translate(-93.365 -112.695)" fill="#ffbe9d"/>
        <g id="Grupo_134096" data-name="Grupo 134096" transform="translate(5.849 48.556)">
          <path id="Trazado_191123" data-name="Trazado 191123" d="M106.784,164.738a2.5,2.5,0,0,1-.223.493c-.156.311-.391.755-.685,1.3-.588,1.094-1.42,2.595-2.3,4.27s-1.626,3.22-2.116,4.359c-.248.568-.439,1.033-.566,1.355a2.555,2.555,0,0,1-.222.493,2.537,2.537,0,0,1,.14-.523c.1-.332.272-.808.5-1.386a46.262,46.262,0,0,1,2.064-4.4c.884-1.679,1.739-3.168,2.362-4.243l.747-1.267A2.57,2.57,0,0,1,106.784,164.738Z" transform="translate(-100.667 -164.738)" fill="#eb996e"/>
        </g>
        <g id="Grupo_134098" data-name="Grupo 134098" transform="translate(18.513)">
          <path id="Trazado_191124" data-name="Trazado 191124" d="M130.048,143.531c1.026-4.032,3.079-10.923,4.325-12.242s8.87-4.545,9.677-5.938a1.755,1.755,0,0,0-.219-2.271,11.783,11.783,0,0,0,.366-2.128,2.039,2.039,0,0,0-.953-2.273l.441-1.319c.586-2.492-1.686-2.126-1.467-2.639s8.651-2.933,9.237-3.226a1.609,1.609,0,0,0,.367-2.566c-1.027-1.1-8.725,1.173-11.51,2.126s-7.551,3.445-8.064,2.346-.219-5.5-.586-7.037-1.54-2.346-2.419-2.052-.293,2.785-.293,4.1a17.308,17.308,0,0,1-1.833,7.4,28.844,28.844,0,0,0-2.125,7.771l-8.515,15.389" transform="translate(-116.475 -104.15)" fill="#ffbe9d"/>
          <g id="Grupo_134097" data-name="Grupo 134097">
            <path id="Trazado_191125" data-name="Trazado 191125" d="M116.475,138.956s.044-.1.14-.277l.431-.8,1.675-3.072c1.468-2.668,3.584-6.521,6.2-11.278l-.01.029a32.331,32.331,0,0,1,.81-4.1,22.935,22.935,0,0,1,1.564-4.249,18.6,18.6,0,0,0,1.38-4.6,13.362,13.362,0,0,0,.175-2.5c-.045-.845-.191-1.7-.183-2.6a3.384,3.384,0,0,1,.07-.677.884.884,0,0,1,.4-.606,1.475,1.475,0,0,1,1.375.171,3.245,3.245,0,0,1,1.339,2.375c.213,1.842.1,3.723.293,5.608a5.578,5.578,0,0,0,.122.689,1.315,1.315,0,0,0,.115.3.365.365,0,0,0,.235.141,3.232,3.232,0,0,0,1.369-.166,27.843,27.843,0,0,0,2.739-1c.911-.373,1.822-.763,2.756-1.125s1.9-.657,2.866-.954a50.813,50.813,0,0,1,6.719-1.629,10.318,10.318,0,0,1,1.7-.131,2.483,2.483,0,0,1,.863.144.862.862,0,0,1,.366.286,2.018,2.018,0,0,1,.247.364,1.632,1.632,0,0,1-.11,1.684,1.7,1.7,0,0,1-.638.593c-.272.115-.524.188-.785.276-2.075.662-4.111,1.274-6.07,1.939-.489.167-.973.337-1.447.521-.234.095-.471.189-.687.3a1.117,1.117,0,0,0-.146.091c-.03.018-.027.026-.038.031a.067.067,0,0,0-.01.03c-.01.021.12.1.228.139a3.59,3.59,0,0,1,.693.338,1.425,1.425,0,0,1,.512.6,2.443,2.443,0,0,1,.042,1.513v0l0,0-.441,1.319-.054-.122a1.858,1.858,0,0,1,.851.953,2.631,2.631,0,0,1,.174,1.228c-.034.408-.1.792-.154,1.183a8.908,8.908,0,0,1-.237,1.161l-.026-.106a1.789,1.789,0,0,1,.552,1.436,2.039,2.039,0,0,1-.665,1.344,14.9,14.9,0,0,1-2.388,1.562c-1.613.9-3.179,1.681-4.615,2.472a18.28,18.28,0,0,0-2.024,1.231,2.568,2.568,0,0,0-.713.828,5.4,5.4,0,0,0-.26.477c-.085.159-.162.319-.232.481-.584,1.287-1.009,2.52-1.387,3.631-.743,2.228-1.248,4-1.592,5.209-.166.6-.294,1.061-.383,1.38s-.137.471-.137.471.032-.163.109-.478.2-.785.357-1.388c.326-1.213.815-2.991,1.544-5.228a38.277,38.277,0,0,1,1.37-3.651c.071-.163.147-.326.232-.487a5.311,5.311,0,0,1,.263-.486,2.713,2.713,0,0,1,.744-.87,18.346,18.346,0,0,1,2.036-1.253c1.436-.8,3-1.581,4.6-2.487a14.9,14.9,0,0,0,2.35-1.544,1.865,1.865,0,0,0,.6-1.228,1.608,1.608,0,0,0-.491-1.279l-.043-.041.017-.065a16.076,16.076,0,0,0,.372-2.289,2.449,2.449,0,0,0-.161-1.138,1.685,1.685,0,0,0-.751-.848l-.081-.042.026-.08c.144-.432.288-.868.439-1.319l0,.008a2.25,2.25,0,0,0-.034-1.383,1.216,1.216,0,0,0-.441-.518,3.394,3.394,0,0,0-.657-.316,1.57,1.57,0,0,1-.183-.087.316.316,0,0,1-.169-.212.257.257,0,0,1,.03-.151.347.347,0,0,1,.094-.1,1.291,1.291,0,0,1,.176-.11,7.468,7.468,0,0,1,.708-.313c.478-.187.964-.359,1.455-.527,1.963-.67,4-1.283,6.071-1.947.254-.085.525-.168.758-.266a1.486,1.486,0,0,0,.55-.517,1.412,1.412,0,0,0,.1-1.463,1.209,1.209,0,0,0-.5-.547,2.268,2.268,0,0,0-.783-.127,10.082,10.082,0,0,0-1.663.13,50.935,50.935,0,0,0-6.686,1.622c-.964.3-1.925.593-2.851.949s-1.84.749-2.752,1.122a27.716,27.716,0,0,1-2.764,1.01,7,7,0,0,1-.72.163,1.964,1.964,0,0,1-.762,0,.583.583,0,0,1-.361-.228.642.642,0,0,1-.087-.186c-.019-.061-.047-.121-.06-.181a6.021,6.021,0,0,1-.127-.721c-.2-1.912-.079-3.8-.287-5.605a3.038,3.038,0,0,0-1.239-2.226,1.28,1.28,0,0,0-1.17-.163.689.689,0,0,0-.3.469,3.241,3.241,0,0,0-.065.633c-.01.864.135,1.722.179,2.583a13.438,13.438,0,0,1-.182,2.539,18.755,18.755,0,0,1-1.405,4.641,22.792,22.792,0,0,0-1.566,4.218,32.261,32.261,0,0,0-.819,4.077l0,.017-.007.013L118.8,134.848l-1.713,3.051-.45.791C116.533,138.868,116.475,138.956,116.475,138.956Z" transform="translate(-116.475 -104.125)" fill="#eb996e"/>
          </g>
        </g>
      </g>
      <g id="Grupo_134103" data-name="Grupo 134103" transform="translate(58.196 112.188)">
        <g id="Grupo_134101" data-name="Grupo 134101">
          <path id="Trazado_191126" data-name="Trazado 191126" d="M179.293,206.746c.183,0-7.388-6.469-9.768-6.9s-6.651.732-6.651.732.489,2.163,2.136,2.271a35.006,35.006,0,0,0,3.6,0l2.685,1.939-1.614-.727a2.867,2.867,0,0,0-1.717-.2c-1.831.351-5.886,1.125-6.256,1.171-.481.062-2.311.366-1.091,2.99,0,0-1.83,2.2,1.77,2.745s7.122.855,7.122.855l2.763,1.4a67.513,67.513,0,0,0-7.444.244.918.918,0,0,0-.428,1.648c.489.488,7.262.183,8.421.976s5.064,3.723,7.2,3.478,4.82-2.2,5.186-2.38,23.5-26.24,23.5-26.24l-14.09-9.528s-12.64,23.482-13.54,24.857C180.129,207.534,179.293,206.746,179.293,206.746Z" transform="translate(-160.151 -181.227)" fill="#ffbe9d"/>
          <g id="Grupo_134100" data-name="Grupo 134100" transform="translate(0.465 25.411)">
            <path id="Trazado_191127" data-name="Trazado 191127" d="M174.906,215.374a2.956,2.956,0,0,1-.544-.2l-1.455-.614c-.614-.258-1.346-.566-2.167-.88-.41-.156-.844-.316-1.3-.441a5.025,5.025,0,0,0-1.44-.03c-2.016.193-3.829.546-5.141.772l-1.554.279a3.043,3.043,0,0,1-.575.079,2.694,2.694,0,0,1,.558-.163c.362-.09.888-.212,1.541-.348a47.51,47.51,0,0,1,5.153-.84,5.076,5.076,0,0,1,1.515.04,13.851,13.851,0,0,1,1.316.461c.822.327,1.548.651,2.156.928s1.093.512,1.428.679A2.856,2.856,0,0,1,174.906,215.374Z" transform="translate(-160.732 -212.948)" fill="#eb996e"/>
          </g>
        </g>
        <g id="Grupo_134102" data-name="Grupo 134102" transform="translate(31.651 1.789)">
          <path id="Trazado_191128" data-name="Trazado 191128" d="M209.519,183.786c-.009.042-.6-.095-1.571-.137a11.014,11.014,0,0,0-1.7.063,10.981,10.981,0,0,0-3.949,1.244,11.044,11.044,0,0,0-1.429.922c-.771.591-1.178,1.042-1.209,1.013a1.6,1.6,0,0,1,.267-.334,3.8,3.8,0,0,1,.348-.36,6.477,6.477,0,0,1,.5-.442,9.756,9.756,0,0,1,1.428-.979,10.293,10.293,0,0,1,4.025-1.268,9.7,9.7,0,0,1,1.731-.016,6.63,6.63,0,0,1,.659.078,4.1,4.1,0,0,1,.492.095A1.55,1.55,0,0,1,209.519,183.786Z" transform="translate(-199.662 -183.461)" fill="#eb996e"/>
        </g>
      </g>
    </g>
  </g>
  <g id="Elipse_4972" data-name="Elipse 4972" transform="translate(4.799 114.611)">
    <circle id="Elipse_5417" data-name="Elipse 5417" cx="30.04" cy="30.04" r="30.04" fill="none"/>
    <circle id="Elipse_5418" data-name="Elipse 5418" cx="28.438" cy="28.438" r="28.438" transform="translate(1.602 1.602)" fill="none" stroke="#fff" stroke-linecap="round" stroke-width="4" stroke-dasharray="3 8"/>
  </g>
  <rect id="Rectángulo_44372" data-name="Rectángulo 44372" width="237" height="187" fill="none"/>
</svg>
