<svg id="Grupo_178452" data-name="Grupo 178452" xmlns="http://www.w3.org/2000/svg" xmlns:xlink="http://www.w3.org/1999/xlink" width="110" height="110" viewBox="0 0 110 110">
  <defs>
    <clipPath id="clip-path">
      <rect id="Rectángulo_102213" data-name="Rectángulo 102213" width="110" height="110" fill="none"/>
    </clipPath>
  </defs>
  <g id="Grupo_178452-2" data-name="Grupo 178452" transform="translate(0 0)" clip-path="url(#clip-path)">
    <path id="Trazado_241268" data-name="Trazado 241268" d="M110,55a55,55,0,1,0-55,55,55,55,0,0,0,55-55" transform="translate(0 0)" fill="#382b77"/>
    <path id="Trazado_241269" data-name="Trazado 241269" d="M103.038,54.455a48.583,48.583,0,1,0-48.583,48.583,48.583,48.583,0,0,0,48.583-48.583" transform="translate(0.545 0.545)" fill="#5038a1"/>
    <path id="Trazado_241270" data-name="Trazado 241270" d="M22.382,39.838a3.193,3.193,0,0,0,.341-1.224A10.413,10.413,0,0,1,33.47,30.889a10.29,10.29,0,0,1,9.55,8.589,10.137,10.137,0,0,1-4.4,10.414c-.158.116-.32.226-.506.356a29.477,29.477,0,0,1,4.7,6.868c.4.819.765,1.655,1.1,2.5a.543.543,0,0,0,.607.407q8.378-.015,16.755,0a.584.584,0,0,0,.648-.438,28.394,28.394,0,0,1,5.518-8.9c.332-.365.178-.459-.132-.675A10.01,10.01,0,0,1,62.751,39.95a9.894,9.894,0,0,1,6.886-8.434A10.359,10.359,0,0,1,79.7,49.249c-.408.34-.45.5-.081.919A14.88,14.88,0,0,1,83.432,60c.058,4.57.019,9.142.015,13.713a1.4,1.4,0,0,1-1.586,1.568q-10.2.008-20.392,0c-1.1,0-1.617-.535-1.621-1.662s-.011-2.265,0-3.4c0-.326-.023-.487-.433-.485q-6.5.025-13,0c-.4,0-.448.137-.443.476.019,1.153.012,2.306.005,3.459a1.424,1.424,0,0,1-1.611,1.611c-6.8,0-13.595-.005-20.392.012a1.7,1.7,0,0,1-1.6-.987V58.563c.191-.058.119-.227.138-.349A15.343,15.343,0,0,1,26.4,49.966c.274-.3.117-.4-.1-.575a10.418,10.418,0,0,1-3.617-5.643c-.091-.351-.047-.741-.293-1.048ZM34.174,72.516c2.823,0,5.646-.013,8.468.012.484,0,.607-.139.576-.594a14.7,14.7,0,0,1,0-1.728c.019-.367-.1-.475-.466-.47-1.511.02-3.023-.03-4.532.022a2.065,2.065,0,0,1-2.041-1.114c-2.035-3.336-4.128-6.637-6.2-9.951a7.768,7.768,0,0,1-.521-.866,1.386,1.386,0,0,1,1.215-1.968,1.552,1.552,0,0,1,1.375.89c2.008,3.236,4.038,6.459,6.035,9.7a.943.943,0,0,0,.947.51c2.166-.023,4.333-.01,6.5-.01,1.75,0,3.5.008,5.248,0a2.07,2.07,0,1,0-.022-4.136c-2.405-.022-4.811,0-7.215-.007-1.149,0-1.464-.231-1.845-1.3a27.368,27.368,0,0,0-5.989-9.77c-.195-.2-.355-.395-.7-.313a9.812,9.812,0,0,1-5.569-.306.359.359,0,0,0-.461.08,12.9,12.9,0,0,0-3.819,9.217c-.014,3.856.005,7.712-.016,11.568,0,.468.139.546.567.543,2.823-.02,5.644-.01,8.467-.01M69.581,65.37c0-2.226-.01-4.452.005-6.678a1.354,1.354,0,0,1,1.346-1.439A1.4,1.4,0,0,1,72.351,58.7c.005.158,0,.318,0,.478,0,4.273.005,8.546-.01,12.819,0,.4.07.535.506.531q3.667-.034,7.334,0c.438,0,.511-.138.51-.538-.015-3.657-.043-7.314,0-10.971a13.141,13.141,0,0,0-3.713-9.678.542.542,0,0,0-.688-.191,9.739,9.739,0,0,1-5.4.3.634.634,0,0,0-.681.2,27.11,27.11,0,0,0-4.492,6.2,28.178,28.178,0,0,0-3.1,14.319c.012.367.183.355.437.355,2.008,0,4.015-.016,6.023.009.438.005.514-.139.51-.539-.019-2.205-.009-4.412-.008-6.618M65.42,41.3a7.631,7.631,0,1,0,7.638-7.648A7.615,7.615,0,0,0,65.42,41.3m-25.005,0a7.63,7.63,0,1,0-7.66,7.614,7.634,7.634,0,0,0,7.66-7.614M55.239,62.8a4.947,4.947,0,0,1,.084,3.883c-.126.3.128.26.294.26,1.372,0,2.743,0,4.115.007.24,0,.355-.057.388-.315a26.918,26.918,0,0,1,.666-3.5c.056-.21.024-.334-.243-.333-1.744.007-3.489,0-5.3,0" transform="translate(2.078 2.867)" fill="#fff"/>
    <path id="Trazado_241271" data-name="Trazado 241271" d="M41.449,30.366a1.391,1.391,0,0,1,2.269-1.227c1.391,1.023,2.8,2.029,4.16,3.087.4.309.614.267.972-.051q4.79-4.257,9.615-8.476a1.391,1.391,0,0,1,2.413.652,1.461,1.461,0,0,1-.614,1.455q-3.3,2.882-6.6,5.772-2.085,1.826-4.175,3.648a1.449,1.449,0,0,1-2.176.083q-2.575-1.928-5.149-3.858a1.443,1.443,0,0,1-.719-1.085" transform="translate(3.848 2.158)" fill="#fff"/>
  </g>
</svg>
