<svg id="Grupo_179535" data-name="Grupo 179535" xmlns="http://www.w3.org/2000/svg" xmlns:xlink="http://www.w3.org/1999/xlink" width="109" height="109" viewBox="0 0 109 109">
  <defs>
    <clipPath id="clip-path">
      <rect id="Rectángulo_102831" data-name="Rectángulo 102831" width="109" height="109" fill="none"/>
    </clipPath>
  </defs>
  <g id="Grupo_179535-2" data-name="Grupo 179535" clip-path="url(#clip-path)">
    <path id="Trazado_242100" data-name="Trazado 242100" d="M109,54.5A54.5,54.5,0,1,1,54.5,0,54.5,54.5,0,0,1,109,54.5" fill="#5038a1"/>
    <path id="Trazado_242101" data-name="Trazado 242101" d="M19.7,75.355V65.5c0-1.4.313-1.717,1.683-1.718,1.571,0,3.141-.012,4.711.009.408.005.584-.044.581-.532-.009-1.551.266-1.8,1.806-1.8q5.292,0,10.583,0c1.133,0,1.506.384,1.519,1.522.006.553-.178,1.327.107,1.6.312.3,1.032-.093,1.573-.19,2.9-.521,5.79-1.052,8.688-1.564a6.22,6.22,0,0,1,2.725.151q7.676,2.067,15.356,4.121A4.357,4.357,0,0,1,70.9,68c.323.293.538.233.871.039q5.122-2.985,10.265-5.936a4.639,4.639,0,1,1,5.015,7.8q-9.83,6.384-19.684,12.727c-1.357.877-2.768,1.681-4.06,2.646a8.042,8.042,0,0,1-6.227,1.383c-4.618-.6-9.256-1.059-13.886-1.577-.7-.078-1.393-.147-2.084-.256-.392-.061-.558,0-.54.453.036.892.02,1.787.008,2.681a1.181,1.181,0,0,1-1.343,1.33q-5.617.011-11.235,0c-.947,0-1.384-.449-1.322-1.478.043-.7-.142-.887-.85-.858-1.543.063-3.091.022-4.638.019-1.092,0-1.488-.394-1.489-1.477q0-5.073,0-10.147m20.88-.619c0,2.392.01,4.784-.008,7.175,0,.409.07.558.53.608,5.447.589,10.9,1.16,16.331,1.855a6.519,6.519,0,0,0,4.822-1.158c2.838-1.955,5.774-3.769,8.67-5.64q7.292-4.711,14.587-9.414a2.543,2.543,0,0,0,1.327-1.712,2.218,2.218,0,0,0-.941-2.345,2.258,2.258,0,0,0-2.587-.055c-3.254,1.883-6.5,3.785-9.775,5.624-.714.4-1.147.763-.84,1.634a1.81,1.81,0,0,1,0,.789,4.639,4.639,0,0,1-6.081,3.962c-3.562-.946-7.119-1.909-10.679-2.862-1.177-.315-1.632-.827-1.418-1.607.208-.761.848-.953,2.054-.63q5.375,1.438,10.751,2.875a2.525,2.525,0,0,0,1.493,0,2.3,2.3,0,0,0-.2-4.44q-7.882-2.132-15.772-4.233a3.746,3.746,0,0,0-1.652-.029c-3.346.606-6.688,1.23-10.037,1.819-.447.079-.59.217-.585.68.025,2.367.011,4.735.011,7.1m-11.6.605c0,3.672.011,7.345-.013,11.017,0,.5.113.639.627.634q4.023-.043,8.046,0c.505.006.633-.116.631-.628q-.027-10.981,0-21.962c0-.5-.112-.64-.626-.634q-4.023.042-8.046,0c-.506,0-.636.117-.632.628.024,3.649.013,7.3.013,10.946m-2.321.112c0-2.923-.011-5.847.011-8.77,0-.469-.111-.61-.59-.6-1.183.037-2.368.03-3.551,0-.41-.009-.519.109-.518.518q.02,8.771,0,17.54c0,.406.1.53.516.52,1.183-.028,2.368-.033,3.551,0,.473.014.6-.119.592-.592-.023-2.875-.011-5.75-.011-8.625" fill="#fff"/>
    <path id="Trazado_242102" data-name="Trazado 242102" d="M45.219,41.759c0-1.473-.005-2.947,0-4.421.005-.985.421-1.393,1.421-1.4,1.546-.006,3.092,0,4.638-.006.377,0,.787.149,1.008-.412s-.2-.738-.461-1c-1.08-1.1-2.185-2.188-3.272-3.287a1.2,1.2,0,0,1-.015-1.942q3.142-3.161,6.306-6.3a1.186,1.186,0,0,1,1.89.027q1.752,1.731,3.483,3.486a.7.7,0,0,0,.865.247c.413-.16.376-.433.376-.746,0-1.642-.007-3.285,0-4.928.005-.947.425-1.371,1.37-1.373q4.422-.01,8.842,0c.976,0,1.382.427,1.385,1.433q.008,2.464,0,4.929c0,.3,0,.533.37.671a.647.647,0,0,0,.815-.17c1.148-1.175,2.315-2.331,3.481-3.489a1.229,1.229,0,0,1,2.047,0q3.081,3.069,6.149,6.151a1.234,1.234,0,0,1,.005,2.049c-1.14,1.149-2.28,2.3-3.436,3.43a.686.686,0,0,0-.231.867c.165.423.448.363.751.363,1.619,0,3.238,0,4.856,0,1.032,0,1.432.41,1.434,1.459q.006,4.348,0,8.7c0,1.034-.411,1.439-1.451,1.442q-2.427.007-4.855,0c-.316,0-.581-.029-.742.381s0,.61.252.863q1.729,1.7,3.435,3.432a1.218,1.218,0,0,1,.021,2q-3.09,3.111-6.2,6.2a1.25,1.25,0,0,1-2.057-.029c-1.148-1.141-2.3-2.281-3.431-3.435a.642.642,0,0,0-.805-.223c-.384.149-.412.383-.41.72q.018,2.465,0,4.928c0,.988-.422,1.4-1.416,1.4q-4.384.008-8.769,0c-.994,0-1.408-.416-1.412-1.406-.007-1.643-.01-3.286,0-4.928,0-.342-.034-.578-.411-.725a.65.65,0,0,0-.806.231c-1.117,1.138-2.25,2.26-3.38,3.384-.81.807-1.362.817-2.15.032q-3.054-3.043-6.1-6.1c-.759-.761-.754-1.332.011-2.1q1.686-1.693,3.383-3.38c.253-.25.418-.447.263-.862-.172-.458-.484-.386-.809-.387-1.571,0-3.141,0-4.711,0-1.147,0-1.531-.379-1.534-1.505q0-2.137,0-4.276m2.321-.084c0,1.015.021,2.03-.01,3.044-.013.423.128.515.526.51,1.57-.022,3.141,0,4.711-.014a1.241,1.241,0,0,1,1.276.866c.229.581.435,1.175.706,1.737a1.406,1.406,0,0,1-.3,1.825c-1.078,1.04-2.111,2.126-3.19,3.164-.332.319-.355.5-.01.832,1.387,1.345,2.76,2.705,4.1,4.1.376.392.557.315.885-.026,1.055-1.1,2.149-2.156,3.217-3.24a1.272,1.272,0,0,1,1.578-.284,16.64,16.64,0,0,0,1.733.718,1.329,1.329,0,0,1,1.03,1.449c-.022,1.522,0,3.044-.014,4.566,0,.369.028.556.486.55,2-.027,4.011-.023,6.016,0,.4,0,.475-.13.471-.492-.018-1.522.013-3.045-.016-4.566A1.345,1.345,0,0,1,71.774,54.9a12.048,12.048,0,0,0,1.471-.6c.976-.44,1.252-.4,1.989.332,1.044,1.041,2.1,2.072,3.12,3.132.3.309.463.342.781.014q2.044-2.106,4.149-4.151c.36-.349.288-.526-.029-.832-1.093-1.058-2.151-2.153-3.239-3.218a1.3,1.3,0,0,1-.3-1.638c.243-.523.457-1.061.665-1.6.369-.954.6-1.123,1.6-1.125,1.5,0,3-.016,4.494.01.416.007.518-.12.513-.523q-.03-2.971,0-5.943c0-.418-.121-.519-.523-.513-1.5.023-3,.011-4.494.009-.976,0-1.217-.177-1.553-1.068-.187-.5-.395-.983-.611-1.466-.417-.939-.377-1.227.323-1.93,1.04-1.045,2.071-2.1,3.132-3.12.327-.315.364-.494.015-.832-1.387-1.345-2.759-2.707-4.1-4.1-.374-.39-.554-.318-.883.024-1.038,1.08-2.12,2.117-3.166,3.189a1.333,1.333,0,0,1-1.7.31c-.5-.238-1.015-.442-1.532-.639-1-.384-1.161-.594-1.162-1.642,0-1.474-.02-2.948.012-4.421.009-.453-.114-.56-.559-.554q-2.936.039-5.87,0c-.455-.006-.562.116-.554.56.029,1.545,0,3.092.016,4.638a1.268,1.268,0,0,1-.9,1.327c-.541.2-1.085.4-1.612.634-1.006.45-1.241.418-2.036-.377-1.025-1.024-2.062-2.038-3.067-3.082-.3-.312-.466-.336-.783-.011q-2.046,2.1-4.15,4.15c-.359.348-.289.526.028.832,1.094,1.057,2.153,2.151,3.239,3.217a1.3,1.3,0,0,1,.294,1.639,14.027,14.027,0,0,0-.689,1.667,1.364,1.364,0,0,1-1.5,1.066c-1.5-.028-3,.014-4.494-.021-.487-.011-.6.139-.585.6.036.941.011,1.884.011,2.826" fill="#fff"/>
    <path id="Trazado_242103" data-name="Trazado 242103" d="M37.1,82.342a3.477,3.477,0,1,1-3.437-3.479A3.491,3.491,0,0,1,37.1,82.342m-3.443-1.159a1.156,1.156,0,1,0,1.124,1.169,1.164,1.164,0,0,0-1.124-1.169" fill="#fff"/>
    <path id="Trazado_242104" data-name="Trazado 242104" d="M67.273,32.46a9.279,9.279,0,1,1-9.292,9.3,9.306,9.306,0,0,1,9.292-9.3M67.261,48.7A6.959,6.959,0,1,0,60.3,41.743,6.981,6.981,0,0,0,67.261,48.7" fill="#fff"/>
    <path id="Trazado_242105" data-name="Trazado 242105" d="M57.521,30.3c-.356.3-.649.509-.9.76-.85.833-.845.838-1.677.006-.805-.805-.805-.805.021-1.631s.815-.815,1.632,0c.266.264.547.514.929.87" fill="#fff"/>
    <path id="Trazado_242106" data-name="Trazado 242106" d="M78.8,31.925c-.2-.184-.353-.3-.48-.44-.382-.425-1.114-.764-1.091-1.253.018-.411.724-.768,1.073-1.192s.549-.329.886.017c1.191,1.22,1.2,1.2,0,2.408a5.981,5.981,0,0,0-.384.46" fill="#fff"/>
    <path id="Trazado_242107" data-name="Trazado 242107" d="M57.382,53.234c-.083.092-.16.174-.233.259-1.3,1.505-1.351,1.5-2.709.049-.226-.242-.26-.366-.019-.629,1.305-1.428,1.534-1.43,2.753.073.06.073.121.145.208.248" fill="#fff"/>
    <path id="Trazado_242108" data-name="Trazado 242108" d="M80.562,53.142c-.445.4-.707.606-.945.841-.888.879-.885.882-1.735.032-.788-.788-.788-.788,0-1.572.859-.859.85-.85,1.733,0a8.9,8.9,0,0,0,.95.695" fill="#fff"/>
    <path id="Trazado_242109" data-name="Trazado 242109" d="M68.419,25.439c0,1.222,0,1.222-1.244,1.222-1.077,0-1.077,0-1.077-1.1,0-1.222,0-1.222,1.244-1.222,1.077,0,1.077,0,1.077,1.1" fill="#fff"/>
    <path id="Trazado_242110" data-name="Trazado 242110" d="M52.18,41.746c0,1.154,0,1.154-1.166,1.154s-1.155,0-1.155-1.166,0-1.154,1.167-1.154,1.154,0,1.154,1.166" fill="#fff"/>
    <path id="Trazado_242111" data-name="Trazado 242111" d="M84.659,41.77c0,1.131,0,1.131-1.118,1.131-1.2,0-1.2,0-1.2-1.191,0-1.13,0-1.13,1.118-1.13,1.2,0,1.2,0,1.2,1.19" fill="#fff"/>
    <path id="Trazado_242112" data-name="Trazado 242112" d="M68.419,57.922c0,1.218,0,1.218-1.248,1.218-1.073,0-1.073,0-1.073-1.1,0-1.218,0-1.218,1.248-1.218,1.073,0,1.073,0,1.073,1.1" fill="#fff"/>
  </g>
</svg>
