<svg id="Grupo_178995" data-name="Grupo 178995" xmlns="http://www.w3.org/2000/svg" xmlns:xlink="http://www.w3.org/1999/xlink" width="144" height="144" viewBox="0 0 144 144">
  <defs>
    <clipPath id="clip-path">
      <rect id="Rectángulo_102482" data-name="Rectángulo 102482" width="144" height="144" fill="none"/>
    </clipPath>
    <clipPath id="clip-path-3">
      <rect id="Rectángulo_102478" data-name="Rectángulo 102478" width="135.22" height="129.156" transform="translate(2.208 9.66)" fill="none"/>
    </clipPath>
    <clipPath id="clip-path-4">
      <rect id="Rectángulo_102479" data-name="Rectángulo 102479" width="20.284" height="20.284" transform="translate(117.646 113.745)" fill="none"/>
    </clipPath>
    <clipPath id="clip-path-5">
      <rect id="Rectángulo_102480" data-name="Rectángulo 102480" width="22.231" height="22.231" transform="translate(3.6 3.648)" fill="none"/>
    </clipPath>
    <clipPath id="clip-path-6">
      <path id="Trazado_241814" data-name="Trazado 241814" d="M35.212,16.076a49.994,49.994,0,0,0-9.284,6.3C4.2,41.218,1.327,78.493,15.263,103.8a60.645,60.645,0,0,0,10.852,14.221c18.947,18.3,43.968,18.045,48.011,17.942.417-.011.894-.021,1.534-.052,16.155-.261,30.806-2.31,47.014-11.335s21.691-77.652,1.915-98.236c-8.7-9.059-19.82-21.413-32.535-24.79A23.026,23.026,0,0,0,86.41.989c-11.027,0-31.581,4.287-51.2,15.087" fill="none"/>
    </clipPath>
  </defs>
  <g id="Grupo_179008" data-name="Grupo 179008" clip-path="url(#clip-path)">
    <g id="Grupo_179005" data-name="Grupo 179005">
      <g id="Grupo_179004" data-name="Grupo 179004" clip-path="url(#clip-path)">
        <path id="Trazado_241788" data-name="Trazado 241788" d="M25.928,22.372a49.994,49.994,0,0,1,9.284-6.3C59,2.977,84.53,9.3,92.411,11.385c12.716,3.376,23.475,5.9,32.178,14.955,19.777,20.584,14.28,89.218-1.915,98.236S91.815,135.649,75.66,135.911c-.64.031-1.117.041-1.534.052-4.043.1-29.064.36-48.011-17.942A60.6,60.6,0,0,1,15.263,103.8C1.327,78.492,4.2,41.218,25.928,22.372" fill="#e5e1f1"/>
        <g id="Grupo_178997" data-name="Grupo 178997" opacity="0.35">
          <g id="Grupo_178996" data-name="Grupo 178996">
            <g id="Grupo_178995-2" data-name="Grupo 178995" clip-path="url(#clip-path-3)">
              <path id="Trazado_241789" data-name="Trazado 241789" d="M135.378,9.752a2.2,2.2,0,0,1,.226-.057,1.488,1.488,0,0,1,1.821,1.669,2.732,2.732,0,0,1-2.063,2.426,51.069,51.069,0,0,0-11.119,3.636,60.6,60.6,0,0,0-10.61,6.176l-.633.456-.622.475c-.416.315-.823.642-1.228.971q-1.221.981-2.382,2.037c-.39.347-.764.714-1.146,1.068s-.744.733-1.116,1.1c-.358.38-.725.747-1.074,1.137s-.7.766-1.035,1.163-.674.784-.993,1.188c-.161.2-.325.4-.481.6l-.463.612c-.315.4-.6.825-.894,1.234-.283.418-.565.834-.834,1.255s-.534.841-.772,1.27c-.121.213-.248.424-.366.638l-.341.641c-.056.108-.116.212-.169.321l-.16.334-.318.664c-.2.45-.4.893-.583,1.346A47.318,47.318,0,0,0,95.06,53.264c-.573,3.815-.835,7.7-1.1,11.73-.135,2.017-.258,4.07-.433,6.185-.081,1.055-.189,2.13-.3,3.215-.064.548-.121,1.092-.194,1.647l-.211,1.619c-.548,4.142-1.169,8.421-2.079,12.856a91.55,91.55,0,0,1-3.909,13.839,64.839,64.839,0,0,1-3.264,7.318,56.19,56.19,0,0,1-4.61,7.373c-.9,1.208-1.86,2.4-2.882,3.548-.51.578-1.04,1.142-1.579,1.7-.271.277-.533.547-.822.825s-.577.559-.872.829a45.668,45.668,0,0,1-7.55,5.674c-.665.4-1.334.78-2.012,1.137-.357.191-.632.326-.934.485l-.9.458c-.6.3-1.209.586-1.822.865s-1.236.536-1.858.8a47.994,47.994,0,0,1-7.72,2.439,40.588,40.588,0,0,1-7.9.995,37.342,37.342,0,0,1-20.823-5.669,47.627,47.627,0,0,1-10.154-8.453,57.393,57.393,0,0,1-4.148-5.07c-.648-.895-1.275-1.815-1.888-2.783-.306-.486-.611-.98-.916-1.506-.153-.264-.305-.531-.462-.823l-.241-.457-.129-.26-.076-.159-.1-.241C.116,105.3,4.57,94.375,13.118,88.99s17.955-3.2,21.01,4.889l-.043-.082c-.011-.019-.01-.007-.01-.007l-.005.007c-.006,0,0,.035,0,.054a1.6,1.6,0,0,0,.023.169c.018.125.051.271.084.415.067.3.148.609.239.924.185.635.4,1.286.627,1.929a34.311,34.311,0,0,0,1.6,3.764,29.124,29.124,0,0,0,4.209,6.389,18.218,18.218,0,0,0,5.263,4.187,13.35,13.35,0,0,0,3.007,1.129,14.756,14.756,0,0,0,3.347.425,18.8,18.8,0,0,0,3.751-.32c.332-.072.664-.129,1-.207s.68-.159,1.025-.256l1-.284c.264-.068.53-.153.794-.237a14.82,14.82,0,0,0,3.1-1.475c.126-.076.249-.158.373-.239l.4-.277c.266-.191.532-.387.794-.6.526-.418,1.049-.873,1.568-1.372a34.275,34.275,0,0,0,5.853-7.851q.677-1.182,1.3-2.441t1.211-2.578c.781-1.756,1.514-3.582,2.205-5.455,1.385-3.749,2.6-7.675,3.793-11.725l.426-1.454c.138-.469.266-.947.4-1.424.257-.962.511-1.932.752-2.922.485-1.974.944-4,1.4-6.066.923-4.129,1.874-8.424,3.222-12.812A62.6,62.6,0,0,1,92.4,40.069c.3-.53.631-1.052.948-1.574.339-.517.659-1.027,1.013-1.544l.524-.771c.179-.253.363-.5.544-.751.358-.5.743-.981,1.118-1.463a53.309,53.309,0,0,1,4.874-5.282,71.464,71.464,0,0,1,10.786-8.356,89.416,89.416,0,0,1,11.428-6.139,110.29,110.29,0,0,1,11.73-4.434Z" fill="#fdb74d"/>
            </g>
          </g>
        </g>
        <path id="Trazado_241790" data-name="Trazado 241790" d="M131.847,95.558a2.029,2.029,0,1,1-2.03-2.03A2.03,2.03,0,0,1,131.847,95.558Z" fill="none" stroke="#8c6df2" stroke-width="1.107"/>
        <g id="Grupo_179000" data-name="Grupo 179000" opacity="0.5">
          <g id="Grupo_178999" data-name="Grupo 178999">
            <g id="Grupo_178998" data-name="Grupo 178998" clip-path="url(#clip-path-4)">
              <path id="Trazado_241791" data-name="Trazado 241791" d="M137.877,122.86a10.141,10.141,0,1,0-9.062,11.116,10.141,10.141,0,0,0,9.062-11.116" fill="#fdb74d"/>
            </g>
          </g>
        </g>
        <path id="Trazado_241792" data-name="Trazado 241792" d="M126.89,115.067a8.866,8.866,0,1,1-7.922,9.718A8.866,8.866,0,0,1,126.89,115.067Z" fill="none" stroke="#fff" stroke-linecap="round" stroke-width="0.999" stroke-dasharray="0.749 1.998"/>
        <g id="Grupo_179003" data-name="Grupo 179003" opacity="0.7" style="isolation: isolate">
          <g id="Grupo_179002" data-name="Grupo 179002">
            <g id="Grupo_179001" data-name="Grupo 179001" clip-path="url(#clip-path-5)">
              <path id="Trazado_241793" data-name="Trazado 241793" d="M18.575,25.184A11.112,11.112,0,1,1,25.136,10.9a11.112,11.112,0,0,1-6.561,14.28" fill="#5038a1"/>
            </g>
          </g>
        </g>
        <path id="Trazado_241794" data-name="Trazado 241794" d="M14.52,21.575a3.7,3.7,0,1,1,2.187-4.76A3.7,3.7,0,0,1,14.52,21.575Z" fill="none" stroke="#fff" stroke-width="0.966"/>
        <path id="Trazado_241795" data-name="Trazado 241795" d="M43.461,29.232a2.255,2.255,0,1,1,1.331-2.9,2.255,2.255,0,0,1-1.331,2.9" fill="#fdb74d"/>
        <path id="Trazado_241796" data-name="Trazado 241796" d="M43.293,28.779A1.772,1.772,0,1,1,44.339,26.5a1.772,1.772,0,0,1-1.046,2.277" fill="#fdb74d"/>
        <path id="Trazado_241797" data-name="Trazado 241797" d="M43.293,28.779A1.772,1.772,0,1,1,44.339,26.5,1.772,1.772,0,0,1,43.293,28.779Z" fill="none" stroke="#8c6df2" stroke-width="0.966"/>
        <path id="Trazado_241798" data-name="Trazado 241798" d="M29.639,16.49a1.449,1.449,0,1,1,.856-1.863,1.45,1.45,0,0,1-.856,1.863" fill="#fdb74d"/>
      </g>
    </g>
    <g id="Grupo_179007" data-name="Grupo 179007">
      <g id="Grupo_179006" data-name="Grupo 179006" clip-path="url(#clip-path-6)">
        <path id="Trazado_241799" data-name="Trazado 241799" d="M110.391,138.817a3.194,3.194,0,0,1-2.3,3.3c-3.21.931-8.663-2.375-15.8-.9-6.7,1.392-13.959.093-25.039.161-17.623.112-20.505,1.229-20.505,1.229-3.54-2.572-1.233-3.762-1.233-3.762.354-5.941.7-13.47.943-22.988.222-8.563.372-18.736.386-30.805.019-14.519,22.491-30.138,22.906-30.138l0,.007c0,2.09,3.295,5.947,8.369,6.28,6.023.394,13.412-2.6,13.412-6.071,0-.036,10.888,17.417,14.755,36.013,1.953,9.36.044-9.046,4.106,47.672" fill="#5038a1"/>
        <path id="Trazado_241800" data-name="Trazado 241800" d="M69.745,54.917s-20.9-.177-25.926,6.876-16.055,45-10.3,57.621,16.521-5.223,22.5-12.957,13.731-51.54,13.731-51.54" fill="#5038a1"/>
        <path id="Trazado_241801" data-name="Trazado 241801" d="M69.532,51.728l.012,2.16s-.589,6.756,7.73,7.742,14.493-1.261,14.268-6.475a75.126,75.126,0,0,1-1.5-11.52,23.389,23.389,0,0,1,.3-4.046l-16.12-.322-4.748.776Z" fill="#ffb27d"/>
        <path id="Trazado_241802" data-name="Trazado 241802" d="M69.47,40.043l.062,11.685a13.632,13.632,0,0,0,5.81,1.282c7.408,0,12.2-5.434,14.7-9.375a23.6,23.6,0,0,1,.3-4.046l-16.119-.321Z" fill="#e2915a"/>
        <path id="Trazado_241803" data-name="Trazado 241803" d="M91.573,36.995C89.7,47.06,76.715,46.73,71.1,46.1c-1.579-.176-2.573-.377-2.573-.377-1.782-.476-2.775-3.281-3.236-6.956-.917-7.272.241-17.946,1.469-20.677,1.849-4.108,5.332-8.551,18.411-5.345s8.8,11.356,6.4,24.253" fill="#ffb27d"/>
        <path id="Trazado_241804" data-name="Trazado 241804" d="M48.377,83.194s-8.082,17.849-7.847,23.2a27.9,27.9,0,0,1,7.847,1.009c6.318,1.884,0-24.207,0-24.207" fill="#533eb7"/>
        <path id="Trazado_241805" data-name="Trazado 241805" d="M62.748,8.507A43.276,43.276,0,0,0,75.295,5.112c5.512-2.4,12.465.242,14.722,1.432a3.353,3.353,0,0,0-.551-1.358,3.026,3.026,0,0,1,1.163,1.723c.105.077.151.13.124.147a3.885,3.885,0,0,1,1.887.122s-.516-.073-.7.259a.3.3,0,0,1-.083.091c8.6,4.154,9.391,17.741,6.625,20.885-3.329,3.782-8.355,12.341-8.355,12.341a15.573,15.573,0,0,1,.185-5.382c.605-3.328-2.269-3.328-5.9-4.841s-.605-5.749-3.782-8.321S65.8,21.151,65.952,19.184c-4.324-1.575-3.2-10.234-3.2-10.677" fill="#233862"/>
        <path id="Trazado_241806" data-name="Trazado 241806" d="M94.206,116.628c-3.412,13.7-40.308,20.78-48.7,22.219.354-5.941.7-13.471.942-22.988Z" fill="#332a77"/>
        <path id="Trazado_241807" data-name="Trazado 241807" d="M86.107,121.08c.352,0,8.2-1.172,9.608-1.875s7.838-9.842,3.626-12.185-15.517,7.029-15.517,7.029Z" fill="#ffb27d"/>
        <path id="Trazado_241808" data-name="Trazado 241808" d="M38.357,123.8s30.364,1.647,50.74-2.716a8.757,8.757,0,0,0-5.889-8.5s-31.759-6.732-39.388-4.857S38.357,123.8,38.357,123.8" fill="#533eb7"/>
        <path id="Trazado_241809" data-name="Trazado 241809" d="M108.087,99.968c-6.3,7.6-14.539,13.8-23.621,15.254l0,0a16.931,16.931,0,0,1-2.247-10.141,20.3,20.3,0,0,1,3.307-9.308,20.609,20.609,0,0,0,1.785-3.6c4.959-12.653,4.221-37.039,4.221-37.039s21.059,2.205,27.621,11.579c4.019,5.742-1.106,21.244-11.064,33.257" fill="#5038a1"/>
        <path id="Trazado_241810" data-name="Trazado 241810" d="M71.1,46.1c-1.579-.176-2.573-.377-2.573-.377-1.781-.476-2.775-3.281-3.237-6.956a8.8,8.8,0,0,1,5.508,4.5,6.485,6.485,0,0,1,.3,2.831" fill="#e2915a"/>
        <path id="Trazado_241811" data-name="Trazado 241811" d="M62.617,51.79s-7.273-12-1.617-12.523a8.551,8.551,0,0,1,8.745,4.712c.817,1.4-.214,7.748-.214,7.748Z" fill="#ffb27d"/>
        <path id="Trazado_241812" data-name="Trazado 241812" d="M90.338,104.676a15.657,15.657,0,0,1-1.24,4.167,19.948,19.948,0,0,1-4.631,6.379l0,0c-18.889-8.526-22.711-37.8-23.351-53.89-.257-6.465,0-10.8,0-10.8C69.635,47.707,72.03,52.61,72.03,52.61S82.091,76.535,87.31,92.171c2,5.983,3.283,10.755,3.028,12.505" fill="#5038a1"/>
        <path id="Trazado_241813" data-name="Trazado 241813" d="M108.087,99.968c-6.3,7.6-14.539,13.8-23.621,15.254l0,0c-18.889-8.526-22.711-37.8-23.35-53.89,0,0,8.938,32.418,21.1,43.749a13.268,13.268,0,0,0,6.881,3.764s15.34-4.335,18.558-8.418a1.734,1.734,0,0,1,.431-.457" fill="#533eb7"/>
      </g>
    </g>
  </g>
</svg>
