<svg id="Grupo_179534" data-name="Grupo 179534" xmlns="http://www.w3.org/2000/svg" xmlns:xlink="http://www.w3.org/1999/xlink" width="109" height="109" viewBox="0 0 109 109">
  <defs>
    <clipPath id="clip-path">
      <rect id="Rectángulo_102830" data-name="Rectángulo 102830" width="109" height="109" fill="none"/>
    </clipPath>
  </defs>
  <g id="Grupo_179534-2" data-name="Grupo 179534" clip-path="url(#clip-path)">
    <path id="Trazado_242095" data-name="Trazado 242095" d="M109,54.5A54.5,54.5,0,1,1,54.5,0,54.5,54.5,0,0,1,109,54.5" fill="#8c6df2"/>
    <path id="Trazado_242096" data-name="Trazado 242096" d="M61.682,48.378a11.972,11.972,0,1,1-22.461-7.786,7.281,7.281,0,0,1-1.806-.29,4.879,4.879,0,0,1-3.261-4.4,4.72,4.72,0,0,1,2.735-4.668c5.9-2.491,11.849-4.862,18.176-6.12a21.2,21.2,0,0,1,6.2.113c2.9.27,5.795.617,8.695.893a14.98,14.98,0,0,1,5.108,1.418c.337.162.53.193.761-.188A2.5,2.5,0,0,1,78.1,26.191c3.294-.012,6.588-.026,9.882,0a2.673,2.673,0,0,1,2.788,2.9q.007,9.153,0,18.305a2.68,2.68,0,0,1-2.9,2.867q-3.928.012-7.857,0A4.369,4.369,0,0,1,75.725,47.3a.759.759,0,0,0-.807-.594,6.006,6.006,0,0,0-3.556.885,9.532,9.532,0,0,1-9.68.784M75.333,37.264c0-2.052-.012-4.1.01-6.157a.893.893,0,0,0-.543-.949,13.291,13.291,0,0,0-4.517-1.438q-4.386-.484-8.775-.925a20.62,20.62,0,0,0-7.235.043,116.5,116.5,0,0,0-15.709,5.414,2.458,2.458,0,0,0-1.645,3.271c.535,1.33,1.787,1.783,3.373,1.22q6.771-2.4,13.541-4.808a4.527,4.527,0,0,0,1.139-.593,11.035,11.035,0,0,1,4.9-1.976c.968-.139,1.579.266,1.7,1.056.116.745-.406,1.337-1.35,1.5a9.464,9.464,0,0,0-4.75,2.264c-1.788,1.564-3.588,3.115-5.371,4.684a11.246,11.246,0,0,0-1.073,1.1,1.221,1.221,0,0,0-.146,1.69,1.288,1.288,0,0,0,1.743.3A27.114,27.114,0,0,1,54.33,41.36c2.493-.781,4.122-.206,5.579,1.955,2.408,3.571,6.116,4.42,9.849,2.231a9.58,9.58,0,0,1,4.924-1.359c.566,0,.667-.178.661-.686-.024-2.079-.01-4.158-.01-6.237M52.285,45.031c.071.117.121.209.179.3a3.172,3.172,0,0,1-.878,4.816,1.142,1.142,0,0,0-.414.631,1.24,1.24,0,0,1-2.2.324,4.953,4.953,0,0,0-1.239-1.392,1.269,1.269,0,0,1-.169-1.748,1.289,1.289,0,0,1,1.739-.282c.115.069.214.165.326.238a.573.573,0,0,0,.681,0,.606.606,0,0,0,.273-.63.592.592,0,0,0-.519-.539c-.238-.044-.485-.04-.72-.093-1.35-.3-1.97-1.281-2.56-2.45-1.135-2.248-1.057-3.552.67-5.388a12.551,12.551,0,0,1,1.138-.963c-.064-.079-.127-.159-.191-.239-1.482.535-2.954,1.107-4.454,1.588a2.968,2.968,0,0,0-1.562,1.181,9.333,9.333,0,1,0,16.793,6.866c.041-.345.117-.671-.21-.961A9.807,9.807,0,0,1,57.585,44.5a1.685,1.685,0,0,0-2.161-.776,21.4,21.4,0,0,0-3.139,1.308m35.9-6.713c0-2.941-.011-5.883.011-8.824,0-.478-.086-.637-.609-.636q-4.491,0-8.983-.076c-.491-.008-.638.106-.637.617,0,5.369-.023,10.739-.03,16.109a1.926,1.926,0,0,0,2.2,2.174c2.455.01,4.911-.018,7.366.018.587.009.7-.172.695-.72-.028-2.887-.013-5.775-.013-8.662" fill="#fff"/>
    <path id="Trazado_242097" data-name="Trazado 242097" d="M62.46,71.473c1.9-.507,3.757-1.033,5.634-1.5,1.346-.333,2.653-.917,4.112-.618a4.946,4.946,0,0,1,4.065,4.692,4.863,4.863,0,0,1-3.561,4.923c-4.647,1.28-9.309,2.506-13.973,3.728-2.287.6-4.534,1.445-6.952,1.384-2.215-.056-4.4-.407-6.609-.608-2.31-.211-4.617-.463-6.922-.73a13.551,13.551,0,0,1-4.316-1.292c-.362-.173-.577-.23-.833.184A2.356,2.356,0,0,1,30.98,82.75c-3.348,0-6.7.024-10.046,0a2.619,2.619,0,0,1-2.7-2.808c-.025-1.836-.007-3.673-.007-5.509q0-6.279,0-12.559,0-3.129,3.137-3.126,3.726,0,7.453,0a4.384,4.384,0,0,1,4.423,3.007.723.723,0,0,0,.769.54A6.547,6.547,0,0,0,37.7,61.288c5.021-3.1,10.653-1.73,13.66,3.326.316.532.655,1.052.985,1.576a2.614,2.614,0,0,0,2.926,1.226c.663-.122,1.316-.293,1.973-.436a4.087,4.087,0,0,1,5.194,4.085c0,.107.011.213.021.408M33.618,71.6c0,2.079.013,4.159-.009,6.238a.83.83,0,0,0,.5.886A12.1,12.1,0,0,0,38.142,80.1c3.589.421,7.19.755,10.782,1.156a14.359,14.359,0,0,0,6.171-.186c.946-.308,1.919-.537,2.881-.793q6.753-1.8,13.5-3.588c.1-.027.206-.067.308-.1a2.366,2.366,0,1,0-1.276-4.523q-5.736,1.53-11.466,3.08c-1.483.4-2.962.807-4.445,1.2-.989.261-1.711-.056-1.91-.813-.21-.8.213-1.406,1.188-1.7.078-.023.158-.034.237-.055,1.555-.436,3.117-.849,4.662-1.316a1.517,1.517,0,0,0-.784-2.931c-.448.086-.893.2-1.341.293-3.39.712-5.131-.034-6.942-2.974q-.339-.55-.676-1.1a6.762,6.762,0,0,0-9.185-2.631,11,11,0,0,1-5.51,1.627c-.664-.028-.742.214-.734.779.031,2.025.012,4.05.012,6.075m-12.847-.972c0,2.943.014,5.887-.014,8.83,0,.529.135.665.663.663,2.942-.01,5.886,0,8.829.055.626.012.743-.169.74-.758-.024-5.265-.012-10.531-.016-15.8,0-1.555-.713-2.263-2.283-2.267-2.4-.006-4.808.016-7.211-.015-.553-.007-.729.119-.722.7.031,2.862.014,5.725.014,8.587" fill="#fff"/>
    <path id="Trazado_242098" data-name="Trazado 242098" d="M86.08,43.487a3.648,3.648,0,1,1-7.3.075,3.648,3.648,0,0,1,7.3-.075m-2.6-.092a.982.982,0,0,0-1.027-.907,1.045,1.045,0,1,0-.033,2.09,1.076,1.076,0,0,0,1.06-1.183" fill="#fff"/>
    <path id="Trazado_242099" data-name="Trazado 242099" d="M26.238,69.6a3.657,3.657,0,1,1,3.7-3.683,3.663,3.663,0,0,1-3.7,3.683m.171-2.579a1,1,0,0,0,.92-1.038,1.056,1.056,0,0,0-1.028-1.1,1.082,1.082,0,0,0-1.108,1.035,1.144,1.144,0,0,0,1.216,1.107" fill="#fff"/>
  </g>
</svg>
