<svg id="Grupo_179186" data-name="Grupo 179186" xmlns="http://www.w3.org/2000/svg" xmlns:xlink="http://www.w3.org/1999/xlink" width="210" height="210" viewBox="0 0 210 210">
  <defs>
    <clipPath id="clip-path">
      <rect id="Rectángulo_102619" data-name="Rectángulo 102619" width="210" height="210" fill="none"/>
    </clipPath>
    <clipPath id="clip-path-3">
      <rect id="Rectángulo_102574" data-name="Rectángulo 102574" width="198.213" height="189.325" transform="translate(5.526 14.744)" fill="none"/>
    </clipPath>
    <clipPath id="clip-path-4">
      <path id="Trazado_241947" data-name="Trazado 241947" d="M114.662,48.446l34.459,94.123L55.382,155.353ZM49.374,159.463l104.2-14.211L115.27,40.624Z" fill="none"/>
    </clipPath>
    <linearGradient id="linear-gradient" x1="-0.474" y1="1.425" x2="-0.464" y2="1.425" gradientUnits="objectBoundingBox">
      <stop offset="0" stop-color="#ff928e"/>
      <stop offset="1" stop-color="#fe7062"/>
    </linearGradient>
    <clipPath id="clip-path-6">
      <path id="Trazado_241949" data-name="Trazado 241949" d="M148.6,172.731a30.428,30.428,0,1,1,5,.412,30.459,30.459,0,0,1-5-.412m1.085-71.987-1.6,3.836a3.439,3.439,0,0,1-2.448,2.027,36.742,36.742,0,0,0-7.916,2.714,3.434,3.434,0,0,1-3.18-.1l-3.618-2.052a4.109,4.109,0,0,0-4.746.492l-3.926,3.461a4.109,4.109,0,0,0-1.082,4.647l1.583,3.847a3.437,3.437,0,0,1-.3,3.168,36.753,36.753,0,0,0-3.683,7.515,3.435,3.435,0,0,1-2.317,2.173l-4.006,1.106a4.109,4.109,0,0,0-3.008,3.7l-.328,5.224a4.11,4.11,0,0,0,2.521,4.051l3.836,1.6a3.439,3.439,0,0,1,2.026,2.448,36.7,36.7,0,0,0,2.715,7.917,3.44,3.44,0,0,1-.1,3.18l-2.053,3.618a4.108,4.108,0,0,0,.491,4.745l3.463,3.927a4.107,4.107,0,0,0,4.646,1.082l3.847-1.584a3.438,3.438,0,0,1,3.167.3,36.708,36.708,0,0,0,7.515,3.685,3.432,3.432,0,0,1,2.174,2.317l1.107,4.006a4.106,4.106,0,0,0,3.7,3.007l5.224.329a4.11,4.11,0,0,0,4.051-2.521l1.6-3.837a3.441,3.441,0,0,1,2.447-2.026,36.616,36.616,0,0,0,7.916-2.714,3.442,3.442,0,0,1,3.181.1l3.618,2.053a4.109,4.109,0,0,0,4.746-.492l3.925-3.462a4.111,4.111,0,0,0,1.083-4.647l-1.584-3.847a3.438,3.438,0,0,1,.3-3.167,36.73,36.73,0,0,0,3.684-7.515,3.435,3.435,0,0,1,2.316-2.174l4.006-1.106a4.11,4.11,0,0,0,3.008-3.7l.328-5.225a4.108,4.108,0,0,0-2.52-4.051l-3.836-1.6a3.438,3.438,0,0,1-2.026-2.447,36.63,36.63,0,0,0-2.716-7.917,3.44,3.44,0,0,1,.1-3.18l2.052-3.618a4.111,4.111,0,0,0-.491-4.747l-3.461-3.926a4.112,4.112,0,0,0-4.648-1.081l-3.847,1.584a3.441,3.441,0,0,1-3.167-.3,36.682,36.682,0,0,0-7.515-3.685,3.435,3.435,0,0,1-2.174-2.316l-1.105-4.006a4.113,4.113,0,0,0-3.705-3.008l-5.223-.328c-.087-.006-.173-.009-.259-.009a4.108,4.108,0,0,0-3.792,2.529" fill="none"/>
    </clipPath>
    <linearGradient id="linear-gradient-2" x1="-0.737" y1="1.042" x2="-0.729" y2="1.042" gradientUnits="objectBoundingBox">
      <stop offset="0" stop-color="#e1473d"/>
      <stop offset="1" stop-color="#e9605a"/>
    </linearGradient>
    <clipPath id="clip-path-7">
      <path id="Trazado_241950" data-name="Trazado 241950" d="M117.86,126.586c-2.293,6.152,4.847,8.038,4.847,8.038s-4.451,12.307,5.456,19.133,16.855.213,16.855.213L148,137.617s-8.338,14.444-16.012,10.769-6.636-10.157-6.013-15.036a3.153,3.153,0,0,0-1.114-3.437,3.278,3.278,0,0,1-1.323-1.961s-1.079,1.619-.245,2.6a1.155,1.155,0,0,1,.271,1.016c-.11-.037-.224-.074-.343-.11-2.374-.705-3.795-3.351-4.437-4.889a.5.5,0,0,0-.926.018" fill="none"/>
    </clipPath>
    <linearGradient id="linear-gradient-3" x1="-2.315" y1="1.915" x2="-2.293" y2="1.915" gradientUnits="objectBoundingBox">
      <stop offset="0" stop-color="#febbba"/>
      <stop offset="1" stop-color="#ff928e"/>
    </linearGradient>
    <clipPath id="clip-path-8">
      <path id="Trazado_241951" data-name="Trazado 241951" d="M154,106.5c-10.875-1.114-7.658,7.853-7.658,7.853s6.6,2.027,1.006,10.715,1.182,11.947,1.182,11.947c.926,9.547,14.17,6.074,14.17,6.074,5.313,4.013,12.989.335,14.1-3.654a4.14,4.14,0,0,0-2.448-5.246c3.971-1.753,7.311-6.988,1.946-15.063s-14.713-3.043-14.713-3.043c1.893-4.494-1.687-6.257-1.687-6.257a3.935,3.935,0,0,0-4.209-3.541A6.613,6.613,0,0,0,154,106.5" fill="none"/>
    </clipPath>
    <linearGradient id="linear-gradient-4" x1="-2.314" y1="1.953" x2="-2.296" y2="1.953" gradientUnits="objectBoundingBox">
      <stop offset="0" stop-color="#09005d"/>
      <stop offset="1" stop-color="#1a0f91"/>
    </linearGradient>
    <clipPath id="clip-path-9">
      <path id="Trazado_241952" data-name="Trazado 241952" d="M148.448,135.806a2.212,2.212,0,0,0-1.076,1.024c-1.522,3.007-7.476,15.408-4.1,19.213,3.772,4.255,7.539,13.174,9.062,17.022a32.164,32.164,0,0,0,7.916-.663c2.018-.428,3.9-.828,5.668-1.261-4.052-7.387-2.142-24.182-1.32-30.007a3.673,3.673,0,0,0-1.506-3.5,15.154,15.154,0,0,0-8.932-3.013,14.346,14.346,0,0,0-5.71,1.182" fill="none"/>
    </clipPath>
    <linearGradient id="linear-gradient-5" x1="-2.85" y1="1.936" x2="-2.828" y2="1.936" gradientUnits="objectBoundingBox">
      <stop offset="0" stop-color="#4f52ff"/>
      <stop offset="1" stop-color="#4042e2"/>
    </linearGradient>
    <clipPath id="clip-path-10">
      <path id="Trazado_241953" data-name="Trazado 241953" d="M148.812,125.3c.7,1.527,2.155,10.356,2.155,10.356a6.772,6.772,0,0,0,6.878.238c-.729-3.889-4.986-12.378-4.986-12.378Z" fill="none"/>
    </clipPath>
    <linearGradient id="linear-gradient-6" x1="-8.844" y1="6.665" x2="-8.783" y2="6.665" xlink:href="#linear-gradient-3"/>
    <clipPath id="clip-path-11">
      <path id="Trazado_241954" data-name="Trazado 241954" d="M146.974,111.951s-6.769,12.528-1.439,15.25,10.15-6.183,10.15-6.183,1.115-6.531-1.146-8.415a6.366,6.366,0,0,0-3.974-1.047,17.928,17.928,0,0,0-3.591.395" fill="none"/>
    </clipPath>
    <linearGradient id="linear-gradient-7" x1="-5.739" y1="4.161" x2="-5.697" y2="4.161" xlink:href="#linear-gradient-3"/>
    <clipPath id="clip-path-12">
      <path id="Trazado_241955" data-name="Trazado 241955" d="M150.43,108.727s-3.661,1.368-3.975,3.141,5.765,2.619,7.423,2.489l2.193,6.723s3.109-6.975,1.084-10.523a4.538,4.538,0,0,0-4.191-2.246,8.2,8.2,0,0,0-2.534.416" fill="none"/>
    </clipPath>
    <linearGradient id="linear-gradient-8" x1="-7.881" y1="5.74" x2="-7.826" y2="5.74" xlink:href="#linear-gradient-4"/>
    <clipPath id="clip-path-13">
      <path id="Trazado_241956" data-name="Trazado 241956" d="M153.986,120.373l.375,1.732c1.586,1,5.507-1.329,3.932-3.583a1.364,1.364,0,0,0-1.14-.676c-1.485,0-3.167,2.527-3.167,2.527" fill="none"/>
    </clipPath>
    <linearGradient id="linear-gradient-9" x1="-19.679" y1="12.313" x2="-19.55" y2="12.313" xlink:href="#linear-gradient-3"/>
    <clipPath id="clip-path-14">
      <path id="Trazado_241957" data-name="Trazado 241957" d="M161.38,146.006a5.184,5.184,0,0,0,1.759,1.857c12.56,8.034,10.591,14.623,6.388,17.2-2.728,1.674-3.261,1.191-4.1.711a3.246,3.246,0,0,0-2.272-.417c-3.236.391-5.1,6.177-2.451,4.9,2.252-1.084,4.51.424,5.134.9a34.4,34.4,0,0,0,7.851-2.745c3.893-2.209,7.411-5.868,5.393-11.567-3.922-11.08-15-18.157-15-18.157a5.071,5.071,0,0,0-1.95-.461c-2.682,0-3.155,3.4-.747,7.776" fill="none"/>
    </clipPath>
    <linearGradient id="linear-gradient-10" x1="-3.818" y1="1.871" x2="-3.793" y2="1.871" xlink:href="#linear-gradient-3"/>
    <clipPath id="clip-path-16">
      <path id="Trazado_241959" data-name="Trazado 241959" d="M57.07,186.171a31.455,31.455,0,1,1,5.169.426,31.49,31.49,0,0,1-5.169-.426m1.119-74.418-1.652,3.966a3.552,3.552,0,0,1-2.53,2.1,37.836,37.836,0,0,0-8.183,2.806,3.555,3.555,0,0,1-3.288-.1l-3.741-2.122a4.249,4.249,0,0,0-4.906.509l-4.058,3.579a4.246,4.246,0,0,0-1.119,4.8l1.638,3.977a3.556,3.556,0,0,1-.311,3.275,37.993,37.993,0,0,0-3.808,7.768,3.55,3.55,0,0,1-2.394,2.248L19.695,145.7a4.248,4.248,0,0,0-3.11,3.828l-.339,5.4a4.249,4.249,0,0,0,2.606,4.188l3.966,1.652a3.55,3.55,0,0,1,2.094,2.53,37.947,37.947,0,0,0,2.807,8.185,3.556,3.556,0,0,1-.1,3.287l-2.123,3.74A4.248,4.248,0,0,0,26,183.414l3.578,4.059a4.25,4.25,0,0,0,4.8,1.119l3.977-1.637a3.551,3.551,0,0,1,3.274.309,37.979,37.979,0,0,0,7.769,3.809,3.552,3.552,0,0,1,2.248,2.4l1.143,4.141a4.246,4.246,0,0,0,3.828,3.109l5.4.34a4.251,4.251,0,0,0,4.189-2.607l1.652-3.965a3.554,3.554,0,0,1,2.53-2.095,37.973,37.973,0,0,0,8.184-2.806,3.558,3.558,0,0,1,3.288.1l3.739,2.121a4.25,4.25,0,0,0,4.907-.508l4.058-3.579a4.248,4.248,0,0,0,1.119-4.8l-1.637-3.976a3.556,3.556,0,0,1,.309-3.274,37.876,37.876,0,0,0,3.809-7.769,3.551,3.551,0,0,1,2.4-2.247l4.141-1.143a4.248,4.248,0,0,0,3.109-3.83l.34-5.4a4.248,4.248,0,0,0-2.606-4.188l-3.965-1.652a3.552,3.552,0,0,1-2.1-2.53,37.856,37.856,0,0,0-2.807-8.185,3.559,3.559,0,0,1,.1-3.287l2.122-3.74a4.248,4.248,0,0,0-.508-4.907l-3.579-4.058a4.246,4.246,0,0,0-4.8-1.118l-3.976,1.637a3.557,3.557,0,0,1-3.274-.31A37.978,37.978,0,0,0,75,119.132a3.55,3.55,0,0,1-2.248-2.4l-1.143-4.14a4.248,4.248,0,0,0-3.829-3.11l-5.4-.34c-.089-.006-.178-.008-.267-.008a4.249,4.249,0,0,0-3.921,2.614" fill="none"/>
    </clipPath>
    <linearGradient id="linear-gradient-11" x1="-0.002" y1="0.943" x2="0.006" y2="0.943" xlink:href="#linear-gradient"/>
    <clipPath id="clip-path-17">
      <path id="Trazado_241960" data-name="Trazado 241960" d="M80.809,181.29a7.078,7.078,0,0,0,1.73.065c5.881-.531,7.055-6.393,7.055-6.393l-1.169-2.65a5.657,5.657,0,0,1-6.611-.709c-1.709,1.915-3.732,5.435-1.005,9.687" fill="none"/>
    </clipPath>
    <linearGradient id="linear-gradient-12" x1="-6.783" y1="3.916" x2="-6.696" y2="3.916" gradientUnits="objectBoundingBox">
      <stop offset="0" stop-color="#a22b25"/>
      <stop offset="1" stop-color="#c0423c"/>
    </linearGradient>
    <clipPath id="clip-path-18">
      <path id="Trazado_241961" data-name="Trazado 241961" d="M72.131,175.43s3.922,5.122,8.678,5.86c-2.727-4.252-.7-7.772,1.005-9.687-4.49-3.618-6.764-12.727-6.875-12.9Z" fill="none"/>
    </clipPath>
    <linearGradient id="linear-gradient-13" x1="-2.635" y1="2.664" x2="-2.594" y2="2.664" xlink:href="#linear-gradient-5"/>
    <clipPath id="clip-path-19">
      <path id="Trazado_241962" data-name="Trazado 241962" d="M50.39,150.244,48.811,183.9a36.952,36.952,0,0,0,7.262,2.091c3.953.139,8.757.213,12.43-.033.2-.039.407-.08.61-.123,1.209-.257,2.434-.5,3.661-.741.81-2.155,4.942-15.323,5.776-23.441.538-5.223-3.068-12.742-4.463-12.942a57.829,57.829,0,0,0-8.192-.577,53.812,53.812,0,0,0-15.5,2.114" fill="none"/>
    </clipPath>
    <linearGradient id="linear-gradient-14" x1="-0.845" y1="1.472" x2="-0.824" y2="1.472" xlink:href="#linear-gradient-5"/>
    <clipPath id="clip-path-20">
      <path id="Trazado_241963" data-name="Trazado 241963" d="M60.586,139.381l.577,8.963a1.948,1.948,0,0,0,1.35,1.765,12.854,12.854,0,0,0,8.26-.162,1.283,1.283,0,0,0,.695-1.575L67.2,134.665Z" fill="none"/>
    </clipPath>
    <linearGradient id="linear-gradient-15" x1="-5.34" y1="4.504" x2="-5.251" y2="4.504" xlink:href="#linear-gradient-12"/>
    <clipPath id="clip-path-21">
      <path id="Trazado_241964" data-name="Trazado 241964" d="M57.885,133.273c.18,2.147,4.539,5.865,4.539,5.865a8.078,8.078,0,0,0,9.774,1.037c3.3-1.992,1.87-3.724.51-6.721s-6.168-7.847-6.168-7.847-8.834,5.52-8.655,7.666" fill="none"/>
    </clipPath>
    <linearGradient id="linear-gradient-16" x1="-2.308" y1="3.666" x2="-2.266" y2="3.666" xlink:href="#linear-gradient-12"/>
    <clipPath id="clip-path-22">
      <path id="Trazado_241965" data-name="Trazado 241965" d="M64.895,119.06l-.04.337a.258.258,0,0,1-.462.127.256.256,0,0,0-.456.1c-.159.846-.878,2.4-3.738,4.165-4.057,2.5-6.259,5.394-5.158,8.443a.258.258,0,0,1-.3.342c-.4-.072-.951.037-1.417.884-.808,1.476.7,3.9,4.168,5.034a.257.257,0,0,1,.137.391c-.355.5-.78,1.51,1.445,1.779,2.276.275,3.349-.267,3.728-.538a.26.26,0,0,0,.085-.32l-1.2-2.612a.26.26,0,0,1,.141-.35l.954-.37.448-.174s-3.314-3.068-1.952-4.362,7.277-5.1,7.777-7.915a4.546,4.546,0,0,0-3.9-5.192h-.012a.255.255,0,0,0-.248.229" fill="none"/>
    </clipPath>
    <linearGradient id="linear-gradient-17" x1="-1.702" y1="3.585" x2="-1.666" y2="3.585" xlink:href="#linear-gradient-4"/>
    <clipPath id="clip-path-23">
      <path id="Trazado_241966" data-name="Trazado 241966" d="M59.427,135.334c-1.265,1.7,2.489,3.84,3.888,3.458l-.2-1.8s-1.54-2.135-2.806-2.135a1.061,1.061,0,0,0-.877.478" fill="none"/>
    </clipPath>
    <linearGradient id="linear-gradient-18" x1="-8.882" y1="11.404" x2="-8.727" y2="11.404" xlink:href="#linear-gradient-12"/>
    <clipPath id="clip-path-24">
      <path id="Trazado_241967" data-name="Trazado 241967" d="M40.2,178.417q.12.421.266.817.865.642,1.769,1.234c1.339-3.443,5.836-4.263,8.231-4.452-.559-3.953,3.534-9.763,5.228-11.967a3.663,3.663,0,0,0,.761-2.2c.05-5.6-2.3-9.194-6.067-11.608,0,0-13.668,15.925-10.188,28.173" fill="none"/>
    </clipPath>
    <linearGradient id="linear-gradient-19" x1="-0.8" y1="1.934" x2="-0.772" y2="1.934" xlink:href="#linear-gradient-5"/>
    <clipPath id="clip-path-25">
      <path id="Trazado_241969" data-name="Trazado 241969" d="M57.193,114.145c-18.586,3.941-41.358,17.526-37.416,36.112,1.139,5.375,11.033,18.716,14.229,22.748,7.858,9.911,21.9,15.627,35.107,12.826,10.293-2.183,21.688-3.344,26.318-11.935,3.728-6.92,6.83-24.1,5.07-32.394-3.455-16.3-19.854-28.077-36.371-28.076a33.417,33.417,0,0,0-6.937.719" fill="none"/>
    </clipPath>
    <clipPath id="clip-path-26">
      <path id="Trazado_241970" data-name="Trazado 241970" d="M42.237,180.468a36.572,36.572,0,0,0,22.573,5.978v-2.578s-12.912-2.4-14.234-7.3a4.642,4.642,0,0,1-.108-.547c-2.395.189-6.892,1.009-8.231,4.452" fill="none"/>
    </clipPath>
    <linearGradient id="linear-gradient-20" x1="-1.639" y1="2.054" x2="-1.599" y2="2.054" xlink:href="#linear-gradient-12"/>
    <clipPath id="clip-path-27">
      <path id="Trazado_241971" data-name="Trazado 241971" d="M63.292,186.526a32.882,32.882,0,0,0,5.821-.7c1.339-.284,2.7-.551,4.055-.819a11.2,11.2,0,0,0-3.117-1.8,6.668,6.668,0,0,0-2.558-.584c-2.919,0-3.916,2.772-4.2,3.9" fill="none"/>
    </clipPath>
    <linearGradient id="linear-gradient-21" x1="-5.927" y1="4.057" x2="-5.833" y2="4.057" xlink:href="#linear-gradient-12"/>
    <clipPath id="clip-path-29">
      <rect id="Rectángulo_102603" data-name="Rectángulo 102603" width="11.747" height="7.406" transform="translate(78.336 164.133)" fill="none"/>
    </clipPath>
    <clipPath id="clip-path-30">
      <path id="Trazado_241978" data-name="Trazado 241978" d="M87.107,167.458c-1.593,1.122,1.006,7.9,1.942,8.558s4.133-4.6,2.262-8.18a5.97,5.97,0,0,0-2.7-.819,2.557,2.557,0,0,0-1.5.441" fill="none"/>
    </clipPath>
    <linearGradient id="linear-gradient-22" x1="-11.152" y1="4.444" x2="-11.022" y2="4.444" xlink:href="#linear-gradient-12"/>
    <clipPath id="clip-path-32">
      <path id="Trazado_241981" data-name="Trazado 241981" d="M105.282,59.279c12.968,20.854,38.283,15.91,38.283,15.91l-.979-2.762c-18.371-1.678-31.194-24.865-31.194-24.865Z" fill="none"/>
    </clipPath>
    <linearGradient id="linear-gradient-23" x1="-1.996" y1="3.533" x2="-1.976" y2="3.533" xlink:href="#linear-gradient"/>
    <clipPath id="clip-path-33">
      <path id="Trazado_241982" data-name="Trazado 241982" d="M149.1,70.658c-.81.553-3,.886-5.162.806-.068,0-.133,0-.2,0a1.777,1.777,0,0,0-1.525,2.574l.234.474a2.372,2.372,0,0,0,1.245,1.158c6,2.383,10.256.691,12.25-1,1.6-1.359,1.742-2.718.157-1.965-3.65,1.735-8.184-.032-8.184-.032,2.049-.893,2.226-1.506,2-1.868a.545.545,0,0,0-.47-.252.621.621,0,0,0-.351.109" fill="none"/>
    </clipPath>
    <linearGradient id="linear-gradient-24" x1="-8.488" y1="15.721" x2="-8.428" y2="15.721" xlink:href="#linear-gradient-3"/>
    <clipPath id="clip-path-34">
      <path id="Trazado_241983" data-name="Trazado 241983" d="M85.464,46.983l1.164,29.863a22.421,22.421,0,0,0,3.939,4.78,132.664,132.664,0,0,0,17.447,1.212c2.55-7.766,9.454-31.31,1.674-37.46a65.914,65.914,0,0,0-9.435-.658,43.113,43.113,0,0,0-14.789,2.263" fill="none"/>
    </clipPath>
    <linearGradient id="linear-gradient-25" x1="-1.631" y1="3.46" x2="-1.61" y2="3.46" xlink:href="#linear-gradient"/>
    <clipPath id="clip-path-35">
      <path id="Trazado_241984" data-name="Trazado 241984" d="M94.267,45.188a1.64,1.64,0,0,0,.431,1.763c2.2,2.005,5.806,1.8,7.984,1.441a2.338,2.338,0,0,0,1.942-1.994,39.2,39.2,0,0,1,2.286-7.9l-4.473-8c-2.562,1.616-7.266,12.16-8.17,14.693" fill="none"/>
    </clipPath>
    <linearGradient id="linear-gradient-26" x1="-7.311" y1="9.723" x2="-7.233" y2="9.723" xlink:href="#linear-gradient-3"/>
    <clipPath id="clip-path-36">
      <path id="Trazado_241985" data-name="Trazado 241985" d="M81.6,77.474a12.753,12.753,0,0,0,5.682,3.5c.629.138,1.313.278,2.058.425,6.106.77,11.752-2.616,11.752-2.616l6.065-.972s-3.793-4.451-6.526-4.336-4.863,3.657-4.863,3.657-7.448-.527-7.41-6.034c0-.019,0-.039,0-.058-2.019.185-5.359,1.306-6.76,6.438" fill="none"/>
    </clipPath>
    <linearGradient id="linear-gradient-27" x1="-3.193" y1="12.486" x2="-3.154" y2="12.486" xlink:href="#linear-gradient-3"/>
    <clipPath id="clip-path-37">
      <path id="Trazado_241986" data-name="Trazado 241986" d="M81.043,76.865c.184.213.371.414.559.609,1.4-5.132,4.741-6.253,6.76-6.438.061-5.519,3.529-15.487,3.529-15.487s1.088-5.9-6.427-8.566c0,0-13.895,18.9-4.421,29.882" fill="none"/>
    </clipPath>
    <linearGradient id="linear-gradient-28" x1="-1.879" y1="4.468" x2="-1.85" y2="4.468" xlink:href="#linear-gradient"/>
    <clipPath id="clip-path-38">
      <path id="Trazado_241987" data-name="Trazado 241987" d="M91.2,56.688c-.926,2.855-3.085,9.97-3.134,14.345a.292.292,0,0,0,.289.3h0a.293.293,0,0,0,.293-.289c.047-4.295,2.187-11.341,3.105-14.17a.292.292,0,1,0-.556-.181" fill="none"/>
    </clipPath>
    <linearGradient id="linear-gradient-29" x1="-11.359" y1="10.047" x2="-11.227" y2="10.047" xlink:href="#linear-gradient-2"/>
    <clipPath id="clip-path-39">
      <path id="Trazado_241988" data-name="Trazado 241988" d="M105.17,24.6l-2.733,13.688,7.768,2.975s4.921-13.71,4.921-13.93c0-2.43-4.321-2.845-7.27-2.845-1.527,0-2.686.112-2.686.112" fill="none"/>
    </clipPath>
    <linearGradient id="linear-gradient-30" x1="-4.672" y1="9.253" x2="-4.624" y2="9.253" xlink:href="#linear-gradient-3"/>
    <clipPath id="clip-path-40">
      <path id="Trazado_241989" data-name="Trazado 241989" d="M103.836,20.115a2.658,2.658,0,0,0-1.461,3.246,1.03,1.03,0,0,1-.836,1.226,2.668,2.668,0,0,0-2.333,3.594,1.014,1.014,0,0,0,.476.64c.734.426,2.4,1.559,2.357,3.044-.045,1.581-1.058,7.1-1.4,8.913a1.032,1.032,0,0,0,.364.989,33.188,33.188,0,0,0,6.661,3.918,1.028,1.028,0,0,0,1.321-.423,44.6,44.6,0,0,0,2.8-6.315,1.028,1.028,0,0,0-.53-1.279c-1.071-.5-2.754-.307-4.593-.061-2.028.27-2.171-1.72-2.17-2.3a1,1,0,0,1,.039-.277l2-7.093a1.023,1.023,0,0,1,.584-.665c.905-.382,2.951-1.044,4.3.064,1.768,1.458,5.5,2.905,6.789.7,1.074-1.834,1.368-4.952-.6-6.6-.693-.185-1.4-.354-2.116-.506q-.8-.17-1.593-.307a3.3,3.3,0,0,0-1.537,1.279,1.013,1.013,0,0,1-1.483.226.814.814,0,0,0-.913-.164,1.031,1.031,0,0,1-1.277-.34,4.484,4.484,0,0,0-1.893-1.622h-.068q-1.455,0-2.888.1" fill="none"/>
    </clipPath>
    <linearGradient id="linear-gradient-31" x1="-3.774" y1="6.497" x2="-3.735" y2="6.497" xlink:href="#linear-gradient-4"/>
    <clipPath id="clip-path-41">
      <path id="Trazado_241990" data-name="Trazado 241990" d="M98.812,31.553c.078,3.822,2.916,2.952,2.916,2.952s1.685-3.98.311-5.214a2.277,2.277,0,0,0-1.481-.645c-.961,0-1.787.873-1.746,2.907" fill="none"/>
    </clipPath>
    <linearGradient id="linear-gradient-32" x1="-12.044" y1="22.687" x2="-11.92" y2="22.687" xlink:href="#linear-gradient-3"/>
    <clipPath id="clip-path-43">
      <rect id="Rectángulo_102616" data-name="Rectángulo 102616" width="29.733" height="29.734" transform="translate(174.741 174.335)" fill="none"/>
    </clipPath>
    <clipPath id="clip-path-44">
      <rect id="Rectángulo_102617" data-name="Rectángulo 102617" width="32.587" height="32.587" transform="translate(4.983 64.026)" fill="none"/>
    </clipPath>
  </defs>
  <g id="Grupo_179276" data-name="Grupo 179276" clip-path="url(#clip-path)">
    <g id="Grupo_179190" data-name="Grupo 179190">
      <g id="Grupo_179189" data-name="Grupo 179189" clip-path="url(#clip-path)">
        <path id="Trazado_241942" data-name="Trazado 241942" d="M40.3,33.379A73.35,73.35,0,0,1,53.9,24.149c34.876-19.2,72.293-9.939,83.845-6.875,18.639,4.949,34.411,8.642,47.168,21.922,28.99,30.173,20.932,130.779-2.806,144-23.759,13.23-45.235,16.232-68.916,16.616-.939.046-1.638.06-2.249.076-5.926.152-42.6.528-70.377-26.3a88.876,88.876,0,0,1-15.908-20.847C4.234,115.643,8.447,61.005,40.3,33.379" fill="#e5e1f1"/>
        <g id="Grupo_179188" data-name="Grupo 179188" opacity="0.35">
          <g id="Grupo_179187" data-name="Grupo 179187">
            <g id="Grupo_179186-2" data-name="Grupo 179186" clip-path="url(#clip-path-3)">
              <path id="Trazado_241943" data-name="Trazado 241943" d="M200.734,14.879a3.146,3.146,0,0,1,.331-.084,2.18,2.18,0,0,1,2.669,2.447A4,4,0,0,1,200.71,20.8a74.893,74.893,0,0,0-16.3,5.33,88.926,88.926,0,0,0-15.553,9.053l-.928.668-.911.7c-.61.461-1.206.941-1.8,1.423q-1.789,1.437-3.491,2.986c-.572.508-1.12,1.046-1.68,1.566s-1.091,1.073-1.636,1.607c-.525.556-1.063,1.094-1.575,1.665s-1.029,1.124-1.517,1.706-.987,1.149-1.456,1.742c-.235.295-.475.585-.7.883l-.678.9c-.463.591-.873,1.21-1.311,1.81-.415.612-.828,1.223-1.223,1.839s-.782,1.234-1.132,1.862c-.177.313-.363.622-.536.935l-.5.94c-.082.158-.169.31-.248.471l-.235.489-.466.973c-.287.66-.588,1.31-.854,1.973a69.406,69.406,0,0,0-4.344,16.349c-.84,5.592-1.223,11.284-1.611,17.195-.2,2.957-.378,5.966-.634,9.067-.119,1.545-.277,3.121-.443,4.712-.094.8-.177,1.6-.284,2.414l-.309,2.372c-.8,6.072-1.714,12.344-3.047,18.845a134.436,134.436,0,0,1-5.73,20.287,95.132,95.132,0,0,1-4.786,10.727,82.409,82.409,0,0,1-6.757,10.808c-1.314,1.771-2.726,3.512-4.224,5.2-.748.846-1.524,1.673-2.315,2.492-.4.406-.781.8-1.2,1.209s-.846.819-1.278,1.215a66.942,66.942,0,0,1-11.068,8.317c-.974.583-1.955,1.144-2.949,1.666-.523.281-.926.479-1.369.712l-1.312.671c-.877.444-1.772.86-2.67,1.268s-1.813.786-2.724,1.175A70.426,70.426,0,0,1,75.6,202.591a59.506,59.506,0,0,1-11.581,1.457A54.743,54.743,0,0,1,33.5,195.739a69.876,69.876,0,0,1-14.884-12.391,84.2,84.2,0,0,1-6.08-7.432c-.95-1.312-1.869-2.661-2.768-4.079-.448-.713-.895-1.438-1.342-2.208-.225-.387-.447-.779-.678-1.206l-.353-.67-.189-.381-.111-.234-.153-.353C2.46,154.934,8.99,138.924,21.52,131.03s26.319-4.685,30.8,7.167l-.063-.121c-.017-.027-.015-.009-.015-.009l-.007.009c-.009.007,0,.052,0,.08.007.083.018.166.033.247.027.183.076.4.123.609.1.432.218.893.351,1.355.271.93.58,1.884.919,2.827A50.018,50.018,0,0,0,56,148.711a42.706,42.706,0,0,0,6.169,9.366,26.741,26.741,0,0,0,7.715,6.137,19.565,19.565,0,0,0,4.408,1.655,21.578,21.578,0,0,0,4.906.623,27.561,27.561,0,0,0,5.5-.469c.487-.106.973-.189,1.469-.3s1-.234,1.5-.375l1.471-.416c.387-.1.777-.225,1.163-.348a21.652,21.652,0,0,0,4.542-2.163c.185-.111.365-.231.547-.349l.584-.406c.39-.28.78-.568,1.164-.877.771-.613,1.537-1.281,2.3-2.012a50.217,50.217,0,0,0,8.58-11.508q.992-1.733,1.905-3.578t1.774-3.779c1.145-2.574,2.219-5.251,3.233-8,2.031-5.494,3.812-11.251,5.56-17.187l.624-2.131c.2-.687.39-1.388.587-2.088.377-1.41.749-2.831,1.1-4.283.712-2.893,1.384-5.866,2.054-8.892,1.352-6.052,2.747-12.348,4.723-18.779a91.691,91.691,0,0,1,8.155-19.232c.442-.778.924-1.542,1.389-2.307.5-.759.966-1.506,1.484-2.264l.769-1.13c.261-.372.532-.735.8-1.1.524-.738,1.09-1.438,1.64-2.146a78.213,78.213,0,0,1,7.144-7.742,104.807,104.807,0,0,1,15.81-12.248,130.89,130.89,0,0,1,16.752-9,161.752,161.752,0,0,1,17.194-6.5Z" fill="#fdb74d"/>
            </g>
          </g>
        </g>
        <rect id="Rectángulo_102575" data-name="Rectángulo 102575" width="15.471" height="1.864" transform="translate(166.61 109.655) rotate(-66.297)" fill="#bdd0fb"/>
        <path id="Trazado_241944" data-name="Trazado 241944" d="M159.246,82.364l.387,2.269a1.81,1.81,0,0,0,1.488,1.479l1.8.3a1.51,1.51,0,0,1,1.115.843A16.117,16.117,0,0,0,166,90.365a1.514,1.514,0,0,1,.278,1.371l-.513,1.755a1.807,1.807,0,0,0,.69,1.981l1.878,1.331a1.807,1.807,0,0,0,2.1-.006l1.486-1.066a1.512,1.512,0,0,1,1.386-.192,16.138,16.138,0,0,0,3.588.818,1.51,1.51,0,0,1,1.164.771l.878,1.6a1.807,1.807,0,0,0,1.889.913l2.268-.387a1.806,1.806,0,0,0,1.479-1.488l.3-1.8a1.51,1.51,0,0,1,.843-1.114,16.111,16.111,0,0,0,3.113-1.961,1.512,1.512,0,0,1,1.371-.279l1.756.513a1.8,1.8,0,0,0,1.981-.689l1.331-1.878a1.807,1.807,0,0,0-.007-2.1l-1.066-1.487A1.51,1.51,0,0,1,194,85.588,16.149,16.149,0,0,0,194.814,82a1.514,1.514,0,0,1,.772-1.165l1.6-.877a1.807,1.807,0,0,0,.913-1.889l-.387-2.269a1.807,1.807,0,0,0-1.488-1.479l-1.8-.3a1.515,1.515,0,0,1-1.114-.843,16.166,16.166,0,0,0-1.961-3.114,1.511,1.511,0,0,1-.279-1.371l.513-1.755a1.809,1.809,0,0,0-.69-1.982l-1.878-1.33a1.807,1.807,0,0,0-2.1.006L185.431,64.7a1.51,1.51,0,0,1-1.385.192,16.164,16.164,0,0,0-3.588-.818,1.509,1.509,0,0,1-1.165-.772l-.878-1.6a1.805,1.805,0,0,0-1.888-.913l-2.269.387a1.806,1.806,0,0,0-1.479,1.487l-.3,1.8a1.511,1.511,0,0,1-.842,1.115,16.088,16.088,0,0,0-3.114,1.961,1.511,1.511,0,0,1-1.371.279l-1.756-.513a1.806,1.806,0,0,0-1.981.689l-1.33,1.878a1.806,1.806,0,0,0,.006,2.1l1.066,1.486a1.512,1.512,0,0,1,.192,1.386,16.1,16.1,0,0,0-.818,3.588,1.508,1.508,0,0,1-.772,1.164l-1.6.878a1.807,1.807,0,0,0-.914,1.889m6.066-1.237a13.393,13.393,0,1,1,14.273,12.452,13.393,13.393,0,0,1-14.273-12.452" fill="#91b3fa"/>
        <rect id="Rectángulo_102576" data-name="Rectángulo 102576" width="1.864" height="25.287" transform="matrix(0.976, -0.217, 0.217, 0.976, 166.097, 39.981)" fill="#bdd0fb"/>
        <rect id="Rectángulo_102577" data-name="Rectángulo 102577" width="18.223" height="1.863" transform="translate(137.609 32.942) rotate(-6.347)" fill="#bdd0fb"/>
        <path id="Trazado_241945" data-name="Trazado 241945" d="M153.1,28.866l.286,1.677a1.334,1.334,0,0,0,1.1,1.093l1.332.219a1.119,1.119,0,0,1,.824.623,11.919,11.919,0,0,0,1.449,2.3,1.116,1.116,0,0,1,.206,1.013l-.379,1.3a1.336,1.336,0,0,0,.51,1.465l1.388.983a1.334,1.334,0,0,0,1.55,0l1.1-.789a1.119,1.119,0,0,1,1.024-.141,11.893,11.893,0,0,0,2.652.6,1.117,1.117,0,0,1,.861.571l.648,1.184a1.336,1.336,0,0,0,1.4.675l1.677-.286a1.334,1.334,0,0,0,1.093-1.1l.219-1.332a1.119,1.119,0,0,1,.623-.824,11.918,11.918,0,0,0,2.3-1.449,1.116,1.116,0,0,1,1.013-.206l1.3.379a1.336,1.336,0,0,0,1.465-.51l.983-1.388a1.334,1.334,0,0,0,0-1.55l-.788-1.1a1.116,1.116,0,0,1-.142-1.024,11.881,11.881,0,0,0,.6-2.652,1.114,1.114,0,0,1,.571-.86l1.184-.649a1.335,1.335,0,0,0,.675-1.4l-.286-1.677a1.334,1.334,0,0,0-1.1-1.093L179.1,22.7a1.119,1.119,0,0,1-.824-.623,11.918,11.918,0,0,0-1.449-2.3,1.116,1.116,0,0,1-.206-1.013l.379-1.3a1.336,1.336,0,0,0-.51-1.465l-1.388-.983a1.334,1.334,0,0,0-1.55,0l-1.1.789a1.119,1.119,0,0,1-1.024.141,11.881,11.881,0,0,0-2.652-.6,1.114,1.114,0,0,1-.86-.571l-.649-1.184a1.336,1.336,0,0,0-1.4-.675l-1.677.286a1.334,1.334,0,0,0-1.093,1.1l-.219,1.332a1.119,1.119,0,0,1-.623.824,11.949,11.949,0,0,0-2.3,1.449,1.116,1.116,0,0,1-1.013.206l-1.3-.379a1.336,1.336,0,0,0-1.465.51l-.983,1.388a1.334,1.334,0,0,0,0,1.55l.789,1.1a1.116,1.116,0,0,1,.141,1.024,11.879,11.879,0,0,0-.6,2.652,1.114,1.114,0,0,1-.571.86l-1.184.649a1.336,1.336,0,0,0-.675,1.4m4.483-.914a9.9,9.9,0,1,1,10.549,9.2,9.9,9.9,0,0,1-10.549-9.2" fill="#91b3fa"/>
        <rect id="Rectángulo_102578" data-name="Rectángulo 102578" width="1.864" height="23.566" transform="translate(54.107 38.014) rotate(-73.267)" fill="#bdd0fb"/>
        <path id="Trazado_241946" data-name="Trazado 241946" d="M12.749,24.305l-.788,2.7a2.212,2.212,0,0,0,.846,2.424l1.825,1.291a1.847,1.847,0,0,1,.775,1.523,19.818,19.818,0,0,0,.492,4.477,1.85,1.85,0,0,1-.427,1.657l-1.5,1.658a2.21,2.21,0,0,0-.3,2.549l1.354,2.469a2.213,2.213,0,0,0,2.312,1.116l2.206-.378a1.851,1.851,0,0,1,1.628.531,19.755,19.755,0,0,0,3.51,2.82,1.849,1.849,0,0,1,.869,1.472l.108,2.233a2.211,2.211,0,0,0,1.59,2.016l2.7.788a2.21,2.21,0,0,0,2.424-.846l1.292-1.825a1.85,1.85,0,0,1,1.523-.775,19.7,19.7,0,0,0,4.476-.492,1.852,1.852,0,0,1,1.658.427l1.657,1.5a2.212,2.212,0,0,0,2.55.3L48,52.6a2.212,2.212,0,0,0,1.116-2.312l-.378-2.206a1.848,1.848,0,0,1,.53-1.627,19.717,19.717,0,0,0,2.82-3.511,1.849,1.849,0,0,1,1.473-.868l2.233-.109a2.211,2.211,0,0,0,2.016-1.589l.788-2.7a2.212,2.212,0,0,0-.846-2.424l-1.825-1.291a1.848,1.848,0,0,1-.775-1.524,19.809,19.809,0,0,0-.492-4.476,1.852,1.852,0,0,1,.427-1.658l1.5-1.657a2.21,2.21,0,0,0,.3-2.549l-1.354-2.469A2.21,2.21,0,0,0,53.222,18.5l-2.206.378a1.854,1.854,0,0,1-1.628-.531,19.719,19.719,0,0,0-3.51-2.82,1.848,1.848,0,0,1-.869-1.473L44.9,11.826a2.212,2.212,0,0,0-1.59-2.016l-2.7-.788a2.212,2.212,0,0,0-2.424.846l-1.292,1.825a1.847,1.847,0,0,1-1.523.776,19.751,19.751,0,0,0-4.476.491,1.848,1.848,0,0,1-1.658-.426l-1.657-1.505a2.212,2.212,0,0,0-2.55-.3l-2.469,1.355A2.211,2.211,0,0,0,21.443,14.4l.378,2.206a1.849,1.849,0,0,1-.53,1.627,19.717,19.717,0,0,0-2.82,3.511A1.851,1.851,0,0,1,17,22.607l-2.233.108a2.212,2.212,0,0,0-2.016,1.59m7.337,1.885a16.389,16.389,0,1,1,9.043,21.34,16.388,16.388,0,0,1-9.043-21.34" fill="#bdd0fb"/>
      </g>
    </g>
    <g id="Grupo_179192" data-name="Grupo 179192">
      <g id="Grupo_179191" data-name="Grupo 179191" clip-path="url(#clip-path-4)">
        <rect id="Rectángulo_102580" data-name="Rectángulo 102580" width="104.202" height="118.839" transform="translate(49.374 40.624)" fill="url(#linear-gradient)"/>
      </g>
    </g>
    <g id="Grupo_179194" data-name="Grupo 179194">
      <g id="Grupo_179193" data-name="Grupo 179193" clip-path="url(#clip-path)">
        <path id="Trazado_241948" data-name="Trazado 241948" d="M189.581,142.438a34.789,34.789,0,1,1-34.79-34.79,34.79,34.79,0,0,1,34.79,34.79" fill="#fff"/>
      </g>
    </g>
    <g id="Grupo_179196" data-name="Grupo 179196">
      <g id="Grupo_179195" data-name="Grupo 179195" clip-path="url(#clip-path-6)">
        <rect id="Rectángulo_102582" data-name="Rectángulo 102582" width="124.121" height="124.145" transform="matrix(0.576, -0.817, 0.817, 0.576, 67.067, 157.67)" fill="url(#linear-gradient-2)"/>
      </g>
    </g>
    <g id="Grupo_179198" data-name="Grupo 179198">
      <g id="Grupo_179197" data-name="Grupo 179197" clip-path="url(#clip-path-7)">
        <rect id="Rectángulo_102583" data-name="Rectángulo 102583" width="46.82" height="47.093" transform="translate(98.765 139.93) rotate(-39.126)" fill="url(#linear-gradient-3)"/>
      </g>
    </g>
    <g id="Grupo_179200" data-name="Grupo 179200">
      <g id="Grupo_179199" data-name="Grupo 179199" clip-path="url(#clip-path-8)">
        <rect id="Rectángulo_102584" data-name="Rectángulo 102584" width="57.469" height="57.654" transform="translate(121.114 123.236) rotate(-40.86)" fill="url(#linear-gradient-4)"/>
      </g>
    </g>
    <g id="Grupo_179202" data-name="Grupo 179202">
      <g id="Grupo_179201" data-name="Grupo 179201" clip-path="url(#clip-path-9)">
        <rect id="Rectángulo_102585" data-name="Rectángulo 102585" width="45.65" height="39.023" transform="translate(126.021 167.27) rotate(-66.974)" fill="url(#linear-gradient-5)"/>
      </g>
    </g>
    <g id="Grupo_179204" data-name="Grupo 179204">
      <g id="Grupo_179203" data-name="Grupo 179203" clip-path="url(#clip-path-10)">
        <rect id="Rectángulo_102586" data-name="Rectángulo 102586" width="16.41" height="12.86" transform="translate(144.773 136.665) rotate(-72.927)" fill="url(#linear-gradient-6)"/>
      </g>
    </g>
    <g id="Grupo_179206" data-name="Grupo 179206">
      <g id="Grupo_179205" data-name="Grupo 179205" clip-path="url(#clip-path-11)">
        <rect id="Rectángulo_102587" data-name="Rectángulo 102587" width="23.802" height="24.367" transform="matrix(0.848, -0.529, 0.529, 0.848, 131.957, 116.702)" fill="url(#linear-gradient-7)"/>
      </g>
    </g>
    <g id="Grupo_179208" data-name="Grupo 179208">
      <g id="Grupo_179207" data-name="Grupo 179207" clip-path="url(#clip-path-12)">
        <rect id="Rectángulo_102588" data-name="Rectángulo 102588" width="18.215" height="18.188" transform="translate(139.823 113.776) rotate(-40.86)" fill="url(#linear-gradient-8)"/>
      </g>
    </g>
    <g id="Grupo_179210" data-name="Grupo 179210">
      <g id="Grupo_179209" data-name="Grupo 179209" clip-path="url(#clip-path-13)">
        <rect id="Rectángulo_102589" data-name="Rectángulo 102589" width="7.777" height="7.58" transform="matrix(0.848, -0.529, 0.529, 0.848, 151.622, 119.321)" fill="url(#linear-gradient-9)"/>
      </g>
    </g>
    <g id="Grupo_179212" data-name="Grupo 179212">
      <g id="Grupo_179211" data-name="Grupo 179211" clip-path="url(#clip-path-14)">
        <rect id="Rectángulo_102590" data-name="Rectángulo 102590" width="39.271" height="40.243" transform="matrix(0.753, -0.658, 0.658, 0.753, 141.55, 152.659)" fill="url(#linear-gradient-10)"/>
      </g>
    </g>
    <g id="Grupo_179214" data-name="Grupo 179214">
      <g id="Grupo_179213" data-name="Grupo 179213" clip-path="url(#clip-path)">
        <path id="Trazado_241958" data-name="Trazado 241958" d="M99.453,154.5A37.252,37.252,0,1,1,62.2,117.244,37.252,37.252,0,0,1,99.453,154.5" fill="#fff"/>
      </g>
    </g>
    <g id="Grupo_179216" data-name="Grupo 179216">
      <g id="Grupo_179215" data-name="Grupo 179215" clip-path="url(#clip-path-16)">
        <rect id="Rectángulo_102592" data-name="Rectángulo 102592" width="123.949" height="123.904" transform="translate(-21.192 128.241) rotate(-27.103)" fill="url(#linear-gradient-11)"/>
      </g>
    </g>
    <g id="Grupo_179218" data-name="Grupo 179218">
      <g id="Grupo_179217" data-name="Grupo 179217" clip-path="url(#clip-path-17)">
        <rect id="Rectángulo_102593" data-name="Rectángulo 102593" width="11.512" height="9.805" transform="translate(78.082 171.603)" fill="url(#linear-gradient-12)"/>
      </g>
    </g>
    <g id="Grupo_179220" data-name="Grupo 179220">
      <g id="Grupo_179219" data-name="Grupo 179219" clip-path="url(#clip-path-18)">
        <rect id="Rectángulo_102594" data-name="Rectángulo 102594" width="24.556" height="18.463" transform="matrix(0.43, -0.903, 0.903, 0.43, 63.355, 177.104)" fill="url(#linear-gradient-13)"/>
      </g>
    </g>
    <g id="Grupo_179222" data-name="Grupo 179222">
      <g id="Grupo_179221" data-name="Grupo 179221" clip-path="url(#clip-path-19)">
        <rect id="Rectángulo_102595" data-name="Rectángulo 102595" width="47.559" height="44.04" transform="matrix(0.444, -0.896, 0.896, 0.444, 33.657, 178.683)" fill="url(#linear-gradient-14)"/>
      </g>
    </g>
    <g id="Grupo_179224" data-name="Grupo 179224">
      <g id="Grupo_179223" data-name="Grupo 179223" clip-path="url(#clip-path-20)">
        <rect id="Rectángulo_102596" data-name="Rectángulo 102596" width="11.324" height="16.742" transform="translate(60.342 134.669) rotate(-0.842)" fill="url(#linear-gradient-15)"/>
      </g>
    </g>
    <g id="Grupo_179226" data-name="Grupo 179226">
      <g id="Grupo_179225" data-name="Grupo 179225" clip-path="url(#clip-path-21)">
        <rect id="Rectángulo_102597" data-name="Rectángulo 102597" width="23.717" height="24.038" transform="matrix(0.565, -0.825, 0.825, 0.565, 49.986, 136.883)" fill="url(#linear-gradient-16)"/>
      </g>
    </g>
    <g id="Grupo_179228" data-name="Grupo 179228">
      <g id="Grupo_179227" data-name="Grupo 179227" clip-path="url(#clip-path-22)">
        <rect id="Rectángulo_102598" data-name="Rectángulo 102598" width="27.711" height="25.962" transform="translate(42.772 135.095) rotate(-59.059)" fill="url(#linear-gradient-17)"/>
      </g>
    </g>
    <g id="Grupo_179230" data-name="Grupo 179230">
      <g id="Grupo_179229" data-name="Grupo 179229" clip-path="url(#clip-path-23)">
        <rect id="Rectángulo_102599" data-name="Rectángulo 102599" width="6.474" height="6.691" transform="matrix(0.565, -0.825, 0.825, 0.565, 56.149, 137.796)" fill="url(#linear-gradient-18)"/>
      </g>
    </g>
    <g id="Grupo_179232" data-name="Grupo 179232">
      <g id="Grupo_179231" data-name="Grupo 179231" clip-path="url(#clip-path-24)">
        <rect id="Rectángulo_102600" data-name="Rectángulo 102600" width="35.868" height="31.154" transform="translate(24.691 174.501) rotate(-63.619)" fill="url(#linear-gradient-19)"/>
      </g>
    </g>
    <g id="Grupo_179234" data-name="Grupo 179234">
      <g id="Grupo_179233" data-name="Grupo 179233" clip-path="url(#clip-path-25)">
        <path id="Trazado_241968" data-name="Trazado 241968" d="M50.724,174.487l-.521-.059c.442-3.877,3.843-8.662,5.285-10.539l.416.319c-1.416,1.843-4.753,6.533-5.18,10.279" fill="#7d97f4"/>
      </g>
    </g>
    <g id="Grupo_179236" data-name="Grupo 179236">
      <g id="Grupo_179235" data-name="Grupo 179235" clip-path="url(#clip-path-26)">
        <rect id="Rectángulo_102601" data-name="Rectángulo 102601" width="25.022" height="18.336" transform="translate(38.572 177.409) rotate(-20.807)" fill="url(#linear-gradient-20)"/>
      </g>
    </g>
    <g id="Grupo_179238" data-name="Grupo 179238">
      <g id="Grupo_179237" data-name="Grupo 179237" clip-path="url(#clip-path-27)">
        <rect id="Rectángulo_102602" data-name="Rectángulo 102602" width="10.616" height="7.151" transform="translate(61.998 183.121) rotate(-20.807)" fill="url(#linear-gradient-21)"/>
      </g>
    </g>
    <g id="Grupo_179243" data-name="Grupo 179243">
      <g id="Grupo_179242" data-name="Grupo 179242" clip-path="url(#clip-path-25)">
        <path id="Trazado_241972" data-name="Trazado 241972" d="M91.681,159.083,88.69,177.317a.829.829,0,0,1-.59.666,12.039,12.039,0,0,1-6.852-.034,1.133,1.133,0,0,1-.743-.885l-3.169-18.376Z" fill="#91b3fa"/>
        <path id="Trazado_241973" data-name="Trazado 241973" d="M91.681,157.856,91,156.334a.446.446,0,0,0-.368-.263,62.79,62.79,0,0,0-11.451-.035.686.686,0,0,0-.54.418l-.531,1.278Z" fill="#7d97f4"/>
        <path id="Trazado_241974" data-name="Trazado 241974" d="M92.22,157.9l.127,1.256a.545.545,0,0,1-.5.6c-2.315.159-11.188.674-14.791-.477a.516.516,0,0,1-.337-.624l.169-.646a.813.813,0,0,1,.788-.611l14.05.045a.5.5,0,0,1,.5.454" fill="#91b3fa"/>
        <path id="Trazado_241975" data-name="Trazado 241975" d="M90.946,163.564s-8.21,1.316-12.769,0l-.069-.4-.243.255a.531.531,0,0,0-.138.464l1.335,7.278A26.422,26.422,0,0,0,90,171.247l1.3-7.364a.717.717,0,0,0-.132-.577l-.145-.192Z" fill="#7d97f4"/>
        <g id="Grupo_179241" data-name="Grupo 179241" style="mix-blend-mode: soft-light;isolation: isolate">
          <g id="Grupo_179240" data-name="Grupo 179240">
            <g id="Grupo_179239" data-name="Grupo 179239" clip-path="url(#clip-path-29)">
              <path id="Trazado_241976" data-name="Trazado 241976" d="M85.615,171.538a.155.155,0,0,1-.153-.158l.123-6.655a.154.154,0,0,1,.159-.153.155.155,0,0,1,.153.158l-.123,6.655a.156.156,0,0,1-.156.153Zm-1.573-.019a.156.156,0,0,1-.153-.159l.122-6.58a.156.156,0,0,1,.312.006l-.122,6.58a.156.156,0,0,1-.156.153Zm3.147-.072a.157.157,0,0,1-.153-.159l.124-6.669a.148.148,0,0,1,.159-.154.157.157,0,0,1,.153.159l-.124,6.67a.156.156,0,0,1-.156.153Zm-5.016-.044a.156.156,0,0,1-.153-.159l.12-6.48a.169.169,0,0,1,.159-.153.157.157,0,0,1,.153.159l-.12,6.48a.156.156,0,0,1-.156.153Zm6.254-.1a.157.157,0,0,1-.153-.159l.147-6.639a.151.151,0,0,1,.159-.152.156.156,0,0,1,.153.159l-.147,6.638a.156.156,0,0,1-.156.153Zm-8.056-.269L79.9,164.6a.155.155,0,0,1,.144-.167.152.152,0,0,1,.167.144l.47,6.434a.156.156,0,0,1-.144.167h-.011a.156.156,0,0,1-.156-.145m8.979.1a.156.156,0,0,1-.142-.168l.565-6.638a.156.156,0,1,1,.31.026l-.564,6.638a.156.156,0,0,1-.155.143H89.35m-10.2-.316-.81-6.506a.156.156,0,0,1,.135-.174.154.154,0,0,1,.174.136l.81,6.506a.156.156,0,0,1-.135.174H79.3a.156.156,0,0,1-.155-.137" fill="#fff"/>
            </g>
          </g>
        </g>
      </g>
    </g>
    <g id="Grupo_179245" data-name="Grupo 179245">
      <g id="Grupo_179244" data-name="Grupo 179244" clip-path="url(#clip-path-30)">
        <rect id="Rectángulo_102604" data-name="Rectángulo 102604" width="7.668" height="9.66" transform="translate(85.514 167.017)" fill="url(#linear-gradient-22)"/>
      </g>
    </g>
    <g id="Grupo_179247" data-name="Grupo 179247">
      <g id="Grupo_179246" data-name="Grupo 179246" clip-path="url(#clip-path)">
        <path id="Trazado_241979" data-name="Trazado 241979" d="M142.2,53.4a34.79,34.79,0,1,1-34.79-34.79A34.79,34.79,0,0,1,142.2,53.4" fill="#fff"/>
        <path id="Trazado_241980" data-name="Trazado 241980" d="M147.458,44.38l-3.9-1.077a3.342,3.342,0,0,1-2.256-2.118,35.769,35.769,0,0,0-3.589-7.319,3.353,3.353,0,0,1-.293-3.085l1.543-3.747a4,4,0,0,0-1.054-4.526l-3.823-3.372a4,4,0,0,0-4.623-.479l-3.524,2a3.352,3.352,0,0,1-3.1.1,35.707,35.707,0,0,0-7.71-2.644,3.35,3.35,0,0,1-2.385-1.974L111.188,12.4a4,4,0,0,0-3.945-2.455l-5.089.319a4,4,0,0,0-3.606,2.93l-1.078,3.9a3.345,3.345,0,0,1-2.117,2.256,35.694,35.694,0,0,0-7.319,3.589,3.353,3.353,0,0,1-3.085.292L81.2,21.689a4,4,0,0,0-4.526,1.054L73.3,26.567a4,4,0,0,0-.478,4.623l2,3.524a3.353,3.353,0,0,1,.1,3.1,35.662,35.662,0,0,0-2.644,7.711A3.35,3.35,0,0,1,70.3,47.906l-3.736,1.557a4,4,0,0,0-2.455,3.945L64.43,58.5A4,4,0,0,0,67.361,62.1l3.9,1.077A3.342,3.342,0,0,1,73.518,65.3a35.719,35.719,0,0,0,3.589,7.319A3.35,3.35,0,0,1,77.4,75.7L75.856,79.45a4,4,0,0,0,1.054,4.526l3.824,3.372a4,4,0,0,0,4.623.479l3.524-2a3.352,3.352,0,0,1,3.1-.1,35.689,35.689,0,0,0,7.71,2.644,3.354,3.354,0,0,1,2.385,1.974l1.556,3.736a4,4,0,0,0,3.946,2.455l5.087-.319a4,4,0,0,0,3.608-2.93l1.077-3.9a3.346,3.346,0,0,1,2.118-2.256,35.694,35.694,0,0,0,7.319-3.589,3.353,3.353,0,0,1,3.085-.292l3.747,1.543a4,4,0,0,0,4.526-1.054l3.373-3.824a4,4,0,0,0,.479-4.622l-2-3.524a3.355,3.355,0,0,1-.1-3.1,35.716,35.716,0,0,0,2.644-7.711,3.347,3.347,0,0,1,1.974-2.383l3.737-1.557a4.005,4.005,0,0,0,2.455-3.946l-.319-5.088a4.006,4.006,0,0,0-2.931-3.608M112.244,82.514a29.669,29.669,0,1,1,24.438-34.107,29.669,29.669,0,0,1-24.438,34.107" fill="#7d97f4"/>
      </g>
    </g>
    <g id="Grupo_179249" data-name="Grupo 179249">
      <g id="Grupo_179248" data-name="Grupo 179248" clip-path="url(#clip-path-32)">
        <rect id="Rectángulo_102606" data-name="Rectángulo 102606" width="49.857" height="48.19" transform="translate(90.383 57.271) rotate(-33.092)" fill="url(#linear-gradient-23)"/>
      </g>
    </g>
    <g id="Grupo_179251" data-name="Grupo 179251">
      <g id="Grupo_179250" data-name="Grupo 179250" clip-path="url(#clip-path-33)">
        <rect id="Rectángulo_102607" data-name="Rectángulo 102607" width="16.651" height="8.913" transform="translate(140.975 70.61) rotate(-5.158)" fill="url(#linear-gradient-24)"/>
      </g>
    </g>
    <g id="Grupo_179253" data-name="Grupo 179253">
      <g id="Grupo_179252" data-name="Grupo 179252" clip-path="url(#clip-path-34)">
        <rect id="Rectángulo_102608" data-name="Rectángulo 102608" width="47.625" height="49.409" transform="matrix(0.838, -0.546, 0.546, 0.838, 68.028, 56.083)" fill="url(#linear-gradient-25)"/>
      </g>
    </g>
    <g id="Grupo_179255" data-name="Grupo 179255">
      <g id="Grupo_179254" data-name="Grupo 179254" clip-path="url(#clip-path-35)">
        <rect id="Rectángulo_102609" data-name="Rectángulo 102609" width="12.864" height="18.461" transform="translate(94.046 30.495)" fill="url(#linear-gradient-26)"/>
      </g>
    </g>
    <g id="Grupo_179257" data-name="Grupo 179257">
      <g id="Grupo_179256" data-name="Grupo 179256" clip-path="url(#clip-path-36)">
        <rect id="Rectángulo_102610" data-name="Rectángulo 102610" width="25.557" height="11.129" transform="translate(81.602 71.036)" fill="url(#linear-gradient-27)"/>
      </g>
    </g>
    <g id="Grupo_179259" data-name="Grupo 179259">
      <g id="Grupo_179258" data-name="Grupo 179258" clip-path="url(#clip-path-37)">
        <rect id="Rectángulo_102611" data-name="Rectángulo 102611" width="34.585" height="37.235" transform="translate(57.622 56.072) rotate(-33.092)" fill="url(#linear-gradient-28)"/>
      </g>
    </g>
    <g id="Grupo_179261" data-name="Grupo 179261">
      <g id="Grupo_179260" data-name="Grupo 179260" clip-path="url(#clip-path-38)">
        <rect id="Rectángulo_102612" data-name="Rectángulo 102612" width="7.584" height="15.302" transform="translate(84.235 57.553) rotate(-15.55)" fill="url(#linear-gradient-29)"/>
      </g>
    </g>
    <g id="Grupo_179263" data-name="Grupo 179263">
      <g id="Grupo_179262" data-name="Grupo 179262" clip-path="url(#clip-path-39)">
        <rect id="Rectángulo_102613" data-name="Rectángulo 102613" width="21.034" height="20.238" transform="matrix(0.603, -0.798, 0.798, 0.603, 94.368, 35.167)" fill="url(#linear-gradient-30)"/>
      </g>
    </g>
    <g id="Grupo_179265" data-name="Grupo 179265">
      <g id="Grupo_179264" data-name="Grupo 179264" clip-path="url(#clip-path-40)">
        <rect id="Rectángulo_102614" data-name="Rectángulo 102614" width="25.542" height="29.523" transform="translate(93.713 21.045) rotate(-11.52)" fill="url(#linear-gradient-31)"/>
      </g>
    </g>
    <g id="Grupo_179267" data-name="Grupo 179267">
      <g id="Grupo_179266" data-name="Grupo 179266" clip-path="url(#clip-path-41)">
        <rect id="Rectángulo_102615" data-name="Rectángulo 102615" width="8.059" height="8.021" transform="translate(95.408 32.097) rotate(-45.734)" fill="url(#linear-gradient-32)"/>
      </g>
    </g>
    <g id="Grupo_179275" data-name="Grupo 179275">
      <g id="Grupo_179274" data-name="Grupo 179274" clip-path="url(#clip-path)">
        <g id="Grupo_179270" data-name="Grupo 179270" opacity="0.5">
          <g id="Grupo_179269" data-name="Grupo 179269">
            <g id="Grupo_179268" data-name="Grupo 179268" clip-path="url(#clip-path-43)">
              <path id="Trazado_241991" data-name="Trazado 241991" d="M204.4,187.7a14.865,14.865,0,1,0-13.284,16.295A14.866,14.866,0,0,0,204.4,187.7" fill="#fdb74d"/>
            </g>
          </g>
        </g>
        <path id="Trazado_241992" data-name="Trazado 241992" d="M188.291,176.273a13,13,0,1,1-11.613,14.245A13,13,0,0,1,188.291,176.273Z" fill="none" stroke="#fff" stroke-linecap="round" stroke-width="1.464" stroke-dasharray="1.098 2.929"/>
        <g id="Grupo_179273" data-name="Grupo 179273" opacity="0.7" style="isolation: isolate">
          <g id="Grupo_179272" data-name="Grupo 179272">
            <g id="Grupo_179271" data-name="Grupo 179271" clip-path="url(#clip-path-44)">
              <path id="Trazado_241993" data-name="Trazado 241993" d="M26.934,95.6a16.289,16.289,0,1,1,9.618-20.933A16.289,16.289,0,0,1,26.934,95.6" fill="#5038a1"/>
            </g>
          </g>
        </g>
        <path id="Trazado_241994" data-name="Trazado 241994" d="M20.99,90.305A5.429,5.429,0,1,1,24.2,83.327,5.43,5.43,0,0,1,20.99,90.305Z" fill="none" stroke="#fff" stroke-width="1.416"/>
        <path id="Trazado_241995" data-name="Trazado 241995" d="M63.414,101.53a3.305,3.305,0,1,1,1.951-4.247,3.305,3.305,0,0,1-1.951,4.247" fill="#fdb74d"/>
        <path id="Trazado_241996" data-name="Trazado 241996" d="M63.168,100.866A2.6,2.6,0,1,1,64.7,97.529a2.6,2.6,0,0,1-1.533,3.337" fill="#fdb74d"/>
        <path id="Trazado_241997" data-name="Trazado 241997" d="M63.168,100.866A2.6,2.6,0,1,1,64.7,97.529,2.6,2.6,0,0,1,63.168,100.866Z" fill="none" stroke="#8c6df2" stroke-width="1.416"/>
        <path id="Trazado_241998" data-name="Trazado 241998" d="M43.153,82.852a2.125,2.125,0,1,1,1.254-2.73,2.124,2.124,0,0,1-1.254,2.73" fill="#fdb74d"/>
      </g>
    </g>
  </g>
</svg>
