<svg id="Grupo_178453" data-name="Grupo 178453" xmlns="http://www.w3.org/2000/svg" xmlns:xlink="http://www.w3.org/1999/xlink" width="110" height="110" viewBox="0 0 110 110">
  <defs>
    <clipPath id="clip-path">
      <rect id="Rectángulo_102214" data-name="Rectángulo 102214" width="110" height="110" fill="none"/>
    </clipPath>
  </defs>
  <g id="Grupo_178453-2" data-name="Grupo 178453" transform="translate(0 0)" clip-path="url(#clip-path)">
    <path id="Trazado_241272" data-name="Trazado 241272" d="M110,55a55,55,0,1,0-55,55,55,55,0,0,0,55-55" transform="translate(0 0)" fill="#382b77"/>
    <path id="Trazado_241273" data-name="Trazado 241273" d="M103.038,54.455a48.583,48.583,0,1,0-48.583,48.583,48.583,48.583,0,0,0,48.583-48.583" transform="translate(0.545 0.545)" fill="#5038a1"/>
    <path id="Trazado_241274" data-name="Trazado 241274" d="M92.252,46.629a5.319,5.319,0,0,0-.767-2.458A1.035,1.035,0,0,1,91.391,44a.06.06,0,0,0-.015-.047A9.733,9.733,0,0,0,88.057,40.7a2.8,2.8,0,0,0-.282-.173c0-.015-.016-.015-.016-.015a5.859,5.859,0,0,0-.72-.282c-.517-.156-.626-.329-.407-.892a6.877,6.877,0,0,0-4.76-9.113,6.915,6.915,0,0,0-8.126,9.332c.22.549.173.737-.423.908-3.351.97-3.693,1.322-7.028,2.34-.454.141-.688.126-.923-.391-2.239-4.854-6.075-7.468-11.384-7.485-5.355-.015-9.175,2.694-11.477,7.5-.188.376-.313.564-.767.423-3.492-1.08-4.618-1.461-8.11-2.51a2.05,2.05,0,0,1-.329-.156,7.1,7.1,0,0,0,.595-4.9,6.924,6.924,0,1,0-13.262,3.93c.235.643.125.878-.5,1.049a3.048,3.048,0,0,0-1.1.5.047.047,0,0,0-.031.015,1.1,1.1,0,0,1-.376.22,8.772,8.772,0,0,0-3.21,4.039c0,.016-.016.016-.016.032a7.471,7.471,0,0,0-.423,2.364c-.015,1.848-.109,3.68-.172,5.528,0,.156.094.391-.157.47V54.9c.251.266-.046.548,0,.814v2.442a1.7,1.7,0,0,0,1.848,1,6.74,6.74,0,0,1,.972-.015c1.346,0,1.346,0,1.221,1.315-.407,4.04-.814,8.079-1.252,12.1a1.765,1.765,0,0,0,.955,1.88h6.342a2.106,2.106,0,0,0,1.143-1.863c.36-2.348.767-4.682,1.189-7.2a14.65,14.65,0,0,1,.737,3.429c.282,1.409.485,2.818.7,4.243a2.027,2.027,0,0,0,.955,1.393h6.513a1.8,1.8,0,0,0,.846-1.989c-.11-.7-.157-1.409-.22-2.114v-.079l-.47-4.541-.188-1.769c-.313-2.928-.626-5.855-.939-8.8-.2-1.832-.392-3.664-.58-5.5-.047-.376-.078-.735-.109-1.205,2.036.438,1.6.209,3.554.647,1.1.235,2.208.517,3.32.735a.676.676,0,0,1,.658.579,13.194,13.194,0,0,0,2.9,5.465A9.459,9.459,0,0,1,47,62.153c-.031,1.472.423,1.895,1.88,1.895H59.138c1.3,0,1.8-.47,1.769-1.769a9.585,9.585,0,0,1,2.38-6.56,12.731,12.731,0,0,0,2.771-5.262c.062-.25.094-.516.455-.595,3.116-.673,3.238-.7,6.464-1.416-.126,1.252-.235,2.427-.361,3.6-.469,4.447-.955,8.893-1.409,13.34l-.579,5.622-.016.156c-.031.438-.078.876-.141,1.3a1.8,1.8,0,0,0,.846,1.989h6.514a2.214,2.214,0,0,0,1-1.722c.36-2.427.8-4.823,1.268-7.235a14.212,14.212,0,0,1,.641,3.006c.267,1.44.5,2.881.7,4.337a2.364,2.364,0,0,0,.94,1.613H88.9a1.89,1.89,0,0,0,.925-2.115c-.455-4.18-.846-8.377-1.284-12.541-.047-.5.047-.69.579-.643.673.047,1.346.016,2.035,0A1.338,1.338,0,0,0,92.628,57.7c-.094-3.695-.219-7.374-.376-11.07M41.383,46.9c-.188.188-.455.032-.673-.015-3.226-.72-4.071-.788-7.3-1.509-1.472-.328-2.176.3-2.02,1.8Q32.615,58.8,33.836,70.4c.126,1.269.141,1.269-1.1,1.269-1.6,0-1.613,0-1.895-1.6-.735-4.368-1.456-8.752-2.192-13.137-.031-.25-.078-.485-.125-.72a1.4,1.4,0,0,0-2.771.047c-.235,1.393-.455,2.788-.69,4.181Q24.175,65.8,23.3,71.183c-.062.375-.2.5-.579.485-.611-.016-1.237-.032-1.863,0-.5.047-.5-.188-.454-.579q1.267-12.448,2.536-24.927c.062-.658-.141-.893-.752-.846-.658.047-1.5-.485-1.926-.015-.344.407-.188,1.252-.25,1.895-.282,2.834-.6,5.667-.831,8.5-.078,1.049-.8.627-1.284.658-.735.063-.36-.517-.376-.8-.015-1.362,0-2.708,0-4.071h.251c0-1.346-.032-2.708.015-4.071a5.135,5.135,0,0,1,4.823-4.9c.282-.016.548,0,.814-.016a1.425,1.425,0,0,0,1.393-.94,1.391,1.391,0,0,0-.423-1.55,4.019,4.019,0,0,1-1.315-3.9,4.155,4.155,0,1,1,7.171,3.57c-.141.156-.314.3-.455.455a1.371,1.371,0,0,0,.7,2.3c3.32.688,4.1,1.226,7.359,2.134,1.049.3,2.083.611,3.116.925.391.125.69,1.127.408,1.409M61.55,53.4a13.491,13.491,0,0,0-3.367,7.5c-.031.423-.282.361-.548.361H53.971c-1.221,0-2.442,0-3.663.015-.392,0-.564-.079-.6-.517A12.008,12.008,0,0,0,46.8,54.011a10.358,10.358,0,0,1-2.5-5.528,9.721,9.721,0,0,1,19.1-3.413A9.292,9.292,0,0,1,61.55,53.4M89.4,56.368c-.438-.094-1.16.438-1.252-.5-.188-1.863-.361-3.727-.549-5.59-.156-1.566-.344-3.132-.47-4.7-.031-.36-.156-.47-.5-.423-.72.11-1.628-.047-2.115.329-.516.408-.047,1.316.016,1.989.548,5.7,1.127,11.4,1.706,17.083.22,2.223.439,4.43.674,6.639.047.438-.11.469-.47.485-2.333.094-2.333.109-2.724-2.177-.72-4.353-1.44-8.721-2.161-13.075-.141-.908-.627-1.409-1.394-1.409-.767-.015-1.268.423-1.424,1.378-.8,4.744-1.613,9.5-2.365,14.264-.126.784-.344,1.066-1.175,1.034-1.863-.079-1.847-.015-1.659-1.863.688-6.436,1.346-12.887,2.02-19.338.126-1.127.25-2.255.361-3.4.14-1.362-.611-2.02-1.974-1.722l-6.684,1.494c-.234.047-.469.079-.751.126-.079-1.346-.079-1.346,1.049-1.691,3.569-1.081,4.163-1.479,7.732-2.544a4.395,4.395,0,0,1,1.19-.266,1.318,1.318,0,0,0,1.316-.925,1.406,1.406,0,0,0-.423-1.55A4.147,4.147,0,0,1,79.617,32.8,4.213,4.213,0,0,1,83.828,35a4.081,4.081,0,0,1-.595,4.682c-.126.141-.267.266-.392.407a1.343,1.343,0,0,0-.36,1.487A1.378,1.378,0,0,0,83.8,42.5a9.364,9.364,0,0,1,1.863.188,5.158,5.158,0,0,1,3.868,4.838c.079,2.74.173,5.481.267,8.22.015.3.156.752-.391.626M55.349,70.311c.094-.594-.173-.782-.72-.7a5.535,5.535,0,0,1-.893,0c-.735-.062-1.378-.062-1.19.987.047.3-.125.344-.329.344l3.523-.015c-.376-.016-.438-.22-.391-.611" transform="translate(1.36 2.783)" fill="#fff"/>
    <path id="Trazado_241275" data-name="Trazado 241275" d="M51.024,62.452c1.137,0,2.274.025,3.409-.011.535-.017.747.09.744.693-.014,2.1.012,2.1-2.091,2.1-1.868,0-3.735-.016-5.6.011-.5.007-.758-.087-.693-.656.08-.691-.3-1.615.16-2.016.389-.341,1.288-.107,1.963-.115.7-.009,1.406,0,2.11,0" transform="translate(4.337 5.791)" fill="#fff"/>
    <path id="Trazado_241276" data-name="Trazado 241276" d="M51.209,40.953a1.511,1.511,0,0,0,0,.244c.119.769-.058,1.159-.977,1.291a3.856,3.856,0,0,0-3.107,3.335c-.076.528-.234.782-.8.692a4.66,4.66,0,0,0-.731-.007c-1.5,0-1.5,0-1.2-1.435a7.05,7.05,0,0,1,6.26-5.513c.416-.034.6.051.554.5a8.706,8.706,0,0,0-.005.894" transform="translate(4.107 3.672)" fill="#fff"/>
    <path id="Trazado_241277" data-name="Trazado 241277" d="M52.251,67.444h.361a.444.444,0,0,1-.141.015.986.986,0,0,1-.22-.015" transform="translate(4.851 6.261)" fill="#fff"/>
  </g>
</svg>
