<svg id="Grupo_178454" data-name="Grupo 178454" xmlns="http://www.w3.org/2000/svg" xmlns:xlink="http://www.w3.org/1999/xlink" width="110" height="110" viewBox="0 0 110 110">
  <defs>
    <clipPath id="clip-path">
      <rect id="Rectángulo_102215" data-name="Rectángulo 102215" width="110" height="110" fill="none"/>
    </clipPath>
  </defs>
  <g id="Grupo_178454-2" data-name="Grupo 178454" transform="translate(0 0)" clip-path="url(#clip-path)">
    <path id="Trazado_241278" data-name="Trazado 241278" d="M110,55a55,55,0,1,0-55,55,55,55,0,0,0,55-55" transform="translate(0 0)" fill="#382b77"/>
    <path id="Trazado_241279" data-name="Trazado 241279" d="M103.038,54.455a48.583,48.583,0,1,0-48.583,48.583,48.583,48.583,0,0,0,48.583-48.583" transform="translate(0.545 0.545)" fill="#5038a1"/>
    <path id="Trazado_241280" data-name="Trazado 241280" d="M58.023,49.018c.672.008.844-.189.79-.823-.058-.675-.009-1.361-.014-2.041a1.478,1.478,0,0,1,.824-1.439,1.393,1.393,0,0,1,1.64.2c2.952,2.449,5.906,4.895,8.834,7.37a1.413,1.413,0,0,1,.016,2.326c-2.927,2.479-5.882,4.923-8.832,7.373a1.407,1.407,0,0,1-1.639.223,1.47,1.47,0,0,1-.843-1.427c0-.743-.016-1.486.007-2.228.012-.426-.028-.654-.578-.652-6.56.022-5.737.02-12.3,0-.463,0-.573.15-.556.58.032.773.01,1.547.008,2.32a1.462,1.462,0,0,1-.866,1.414,1.42,1.42,0,0,1-1.636-.249c-2.927-2.432-5.855-4.859-8.763-7.311a1.44,1.44,0,0,1-.012-2.391c2.907-2.453,5.837-4.881,8.761-7.313a1.431,1.431,0,0,1,1.634-.269,1.494,1.494,0,0,1,.885,1.5c-.008.711.045,1.427-.015,2.134-.052.607.18.7.726.7,3.249-.025,8.739-.035,11.926.005M42.382,57.676c.016-.27.027-.382.031-.494.047-1.918.377-2.24,2.3-2.24,7.3,0,7.219.024,14.52-.016,1.864-.01,2.671.228,2.556,2.483,0,.038.067.08.143.167q1.7-1.411,3.4-2.824c1.565-1.3,1.566-1.294.012-2.58-1.15-.951-2.3-1.9-3.513-2.91-.191,2.6-.306,2.71-2.771,2.71H47.6c-1.175,0-2.351.014-3.527,0A1.519,1.519,0,0,1,42.407,50.3c-.014-.311.115-.656-.129-.98-1.534,1.276-3.032,2.52-4.522,3.769-.188.157-.555.287-.155.617,1.561,1.29,3.115,2.586,4.781,3.97" transform="translate(3.108 4.134)" fill="#fff"/>
    <path id="Trazado_241281" data-name="Trazado 241281" d="M18.627,69.952c0-1.579-.019-3.158.01-4.735.009-.516-.045-.752-.676-.749-1.988.011-2.3-.344-2.3-2.312v-7.8a7.261,7.261,0,0,1,3.764-6.678c.546-.321.367-.5.139-.87a5.814,5.814,0,0,1,.5-6.98A5.937,5.937,0,0,1,30.5,43.965a5.723,5.723,0,0,1-.981,2.952c-.18.27-.364.429.075.681,2.839,1.624,3.982,4.144,3.9,7.354-.064,2.536-.01,5.075-.014,7.614,0,1.4-.509,1.994-1.877,1.894-1-.073-1.129.3-1.113,1.168.054,2.908.022,5.818.02,8.727,0,1.531-.474,2.015-1.97,2.017q-3.993,0-7.985,0c-1.445,0-1.927-.5-1.93-1.964,0-1.485,0-2.971,0-4.457M21.6,67.978c0,1.578.032,3.157-.016,4.735-.019.6.17.715.725.7,1.485-.039,2.972-.054,4.457,0,.676.026.8-.195.792-.823-.034-3.095,0-6.19-.023-9.285a1.556,1.556,0,0,1,1.18-1.751,3.538,3.538,0,0,1,1.2-.035c.5.049.612-.152.608-.623-.024-2.289.014-4.581-.02-6.871a4.428,4.428,0,0,0-4.459-4.4c-.929-.015-1.858-.009-2.786,0a4.45,4.45,0,0,0-4.628,4.608c-.012,2.073.055,4.149-.028,6.22-.037.925.239,1.123,1.11,1.076,1.381-.073,1.882.488,1.886,1.892,0,1.516,0,3.033,0,4.549m5.937-24.287a2.968,2.968,0,1,0-3.019,2.962,2.982,2.982,0,0,0,3.019-2.962" transform="translate(1.453 3.504)" fill="#fff"/>
    <path id="Trazado_241282" data-name="Trazado 241282" d="M72.89,47.344a5.947,5.947,0,0,1,8.931-7.825,5.787,5.787,0,0,1,.837,7.165c-.381.605-.282.768.283,1.117a7.106,7.106,0,0,1,3.548,6.238c.051,2.847.015,5.695.01,8.543,0,1.4-.509,1.961-1.894,1.883-.888-.05-1.121.18-1.1,1.086.067,2.97.028,5.943.024,8.914,0,1.4-.506,1.9-1.894,1.907q-4.039.007-8.078,0c-1.4,0-1.91-.5-1.912-1.887,0-3.064-.02-6.129.014-9.192.007-.627-.113-.839-.791-.824-1.826.04-2.2-.375-2.2-2.236,0-2.569.012-5.138,0-7.708a7.388,7.388,0,0,1,4.017-7,1.273,1.273,0,0,0,.2-.181m1.726,20.578c0,1.61.022,3.219-.012,4.828-.012.529.142.674.666.662,1.484-.035,2.973-.056,4.455.007.709.031.859-.178.85-.861-.04-3.095-.024-6.19-.014-9.285,0-1.212.545-1.737,1.759-1.757a4.435,4.435,0,0,1,.649,0c.448.059.574-.115.569-.562-.023-2.352.026-4.7-.026-7.056a4.412,4.412,0,0,0-4.3-4.263c-.958-.028-1.919-.011-2.877-.007a4.454,4.454,0,0,0-4.684,4.647c-.011,2.073.045,4.148-.025,6.22-.028.857.22,1.074,1.051,1.037,1.45-.066,1.939.472,1.942,1.93,0,1.486,0,2.971,0,4.457m2.969-27.2a2.968,2.968,0,1,0,2.968,3.015,2.973,2.973,0,0,0-2.968-3.015" transform="translate(6.375 3.505)" fill="#fff"/>
    <path id="Trazado_241283" data-name="Trazado 241283" d="M51.641,18.723A13.37,13.37,0,1,1,38.279,32.216,13.387,13.387,0,0,1,51.641,18.723m.017,2.969A10.4,10.4,0,1,0,62.047,31.985,10.409,10.409,0,0,0,51.659,21.692" transform="translate(3.553 1.738)" fill="#fff"/>
    <path id="Trazado_241284" data-name="Trazado 241284" d="M53.844,28.744c-.714-.031-1.471.248-1.805-.854-.193-.637-.984-.794-1.679-.515a1.38,1.38,0,0,0-.93,1.54,1.424,1.424,0,0,0,1.26,1.3c.454.085.93.071,1.369.2a4.218,4.218,0,0,1,3.235,3.658A4.1,4.1,0,0,1,53.252,38.4c-.666.4-1.031.775-.875,1.555.1.493-.064.752-.626.68a7.93,7.93,0,0,0-1.02-.008c-1.248,0-1.278,0-1.3-1.279-.01-.433-.219-.568-.538-.729a4.457,4.457,0,0,1-2.413-3.315c-.091-.463.016-.687.545-.629a10.81,10.81,0,0,0,1.205.009c.622,0,1.2-.134,1.468.782a1.208,1.208,0,0,0,1.65.62,1.382,1.382,0,0,0,1.022-1.483A1.421,1.421,0,0,0,51.1,33.219c-.452-.087-.93-.071-1.369-.2a4.307,4.307,0,0,1-3.248-3.653,4.235,4.235,0,0,1,2.127-4.391c.658-.348.922-.723.8-1.41s.2-.862.814-.775a5.908,5.908,0,0,0,.835.007c1.252,0,1.282,0,1.308,1.275.009.431.214.568.534.731a4.5,4.5,0,0,1,2.358,3.039c.21.788-.022,1-.763.9a4.763,4.763,0,0,0-.649,0" transform="translate(4.31 2.114)" fill="#fff"/>
  </g>
</svg>
