<svg id="Grupo_176116" data-name="Grupo 176116" xmlns="http://www.w3.org/2000/svg" xmlns:xlink="http://www.w3.org/1999/xlink" width="190" height="189.811" viewBox="0 0 190 189.811">
  <defs>
    <clipPath id="clip-path">
      <rect id="Rectángulo_101099" data-name="Rectángulo 101099" width="190" height="189.811" fill="none"/>
    </clipPath>
    <clipPath id="clip-path-3">
      <rect id="Rectángulo_101035" data-name="Rectángulo 101035" width="188.09" height="188.97" fill="none"/>
    </clipPath>
    <clipPath id="clip-path-4">
      <rect id="Rectángulo_101038" data-name="Rectángulo 101038" width="82.806" height="2.187" transform="translate(0 58.553) rotate(-45)" fill="none"/>
    </clipPath>
    <linearGradient id="linear-gradient" x1="-0.988" y1="2.15" x2="-0.982" y2="2.15" gradientUnits="objectBoundingBox">
      <stop offset="0" stop-color="#09005d"/>
      <stop offset="1" stop-color="#1a0f91"/>
    </linearGradient>
    <clipPath id="clip-path-5">
      <path id="Trazado_236967" data-name="Trazado 236967" d="M183.52,164.461l-12.194,15.511a.616.616,0,0,0,.865.865L187.7,168.643c.8-.8-2.546-4.305-3.847-4.3a.454.454,0,0,0-.335.123" transform="translate(-171.188 -164.338)" fill="none"/>
    </clipPath>
    <linearGradient id="linear-gradient-2" x1="-3.191" y1="4.741" x2="-3.172" y2="4.741" xlink:href="#linear-gradient"/>
    <clipPath id="clip-path-7">
      <rect id="Rectángulo_101040" data-name="Rectángulo 101040" width="38.554" height="21.429" fill="none"/>
    </clipPath>
    <clipPath id="clip-path-8">
      <rect id="Rectángulo_101041" data-name="Rectángulo 101041" width="40.01" height="22.453" fill="none"/>
    </clipPath>
    <clipPath id="clip-path-9">
      <rect id="Rectángulo_101042" data-name="Rectángulo 101042" width="25.635" height="8.276" fill="none"/>
    </clipPath>
    <clipPath id="clip-path-10">
      <rect id="Rectángulo_101043" data-name="Rectángulo 101043" width="18.525" height="14.961" fill="none"/>
    </clipPath>
    <clipPath id="clip-path-11">
      <path id="Trazado_236985" data-name="Trazado 236985" d="M49.985,389.83a1.437,1.437,0,0,0,1.359,1.569c2.774.142,8.707.423,10.838.348a.467.467,0,0,0,.417-.636,1.048,1.048,0,0,0-.53-.569l-9.761-4.6-1.728-.3s-.392,2.1-.594,4.183" transform="translate(-49.978 -385.647)" fill="none"/>
    </clipPath>
    <linearGradient id="linear-gradient-3" x1="-1.772" y1="0.726" x2="-1.736" y2="0.726" xlink:href="#linear-gradient"/>
    <clipPath id="clip-path-12">
      <path id="Trazado_236986" data-name="Trazado 236986" d="M50.625,382.642l.275,2.52a3.125,3.125,0,0,0,2.891-.073l-.684-2.813Z" transform="translate(-50.625 -382.277)" fill="none"/>
    </clipPath>
    <linearGradient id="linear-gradient-4" x1="-6.386" y1="2.334" x2="-6.258" y2="2.334" gradientUnits="objectBoundingBox">
      <stop offset="0" stop-color="#febbba"/>
      <stop offset="1" stop-color="#ff928e"/>
    </linearGradient>
    <clipPath id="clip-path-13">
      <path id="Trazado_236987" data-name="Trazado 236987" d="M35.857,294.557s-.521-17.277-.005.609c.461,16.007,5.009,32.8,5.96,36.154a.843.843,0,0,0,.83.613,8.51,8.51,0,0,0,2.8-.542.489.489,0,0,0,.292-.566c-3.3-14.442-2.429-46.589-2.294-47.246l-7.079-.069Z" transform="translate(-35.623 -283.509)" fill="none"/>
    </clipPath>
    <linearGradient id="linear-gradient-5" x1="0.062" y1="1.317" x2="0.071" y2="1.317" xlink:href="#linear-gradient"/>
    <clipPath id="clip-path-14">
      <path id="Trazado_236988" data-name="Trazado 236988" d="M24.99,391.6a.876.876,0,0,0,.761,1.057c.916.1,2.325.228,3.455.231h0a.873.873,0,0,0,.872-.966,7.369,7.369,0,0,0-1.681-4.056l-2.206-.14a15.145,15.145,0,0,0-1.2,3.875" transform="translate(-24.971 -387.727)" fill="none"/>
    </clipPath>
    <linearGradient id="linear-gradient-6" x1="-1.461" y1="0.85" x2="-1.396" y2="0.85" xlink:href="#linear-gradient"/>
    <clipPath id="clip-path-15">
      <path id="Trazado_236989" data-name="Trazado 236989" d="M26.51,380.779l.661,3.814a2.462,2.462,0,0,0,2.054.161l-.294-4.1Z" transform="translate(-26.51 -380.654)" fill="none"/>
    </clipPath>
    <linearGradient id="linear-gradient-7" x1="-2.618" y1="2.777" x2="-2.512" y2="2.777" xlink:href="#linear-gradient-4"/>
    <clipPath id="clip-path-16">
      <path id="Trazado_236990" data-name="Trazado 236990" d="M22.1,283.642c-2.973,16.938.21,41.935,1.317,46.832a.761.761,0,0,0,.61.584,5.12,5.12,0,0,0,2.2-.067.7.7,0,0,0,.508-.638c.192-3.949.145-28.2,2.856-37.761a2.178,2.178,0,0,1,.851-1.193l5.118-3.566.445-5.838Z" transform="translate(-20.865 -281.995)" fill="none"/>
    </clipPath>
    <linearGradient id="linear-gradient-8" x1="0.164" y1="1.218" x2="0.173" y2="1.218" xlink:href="#linear-gradient"/>
    <clipPath id="clip-path-18">
      <path id="Trazado_236992" data-name="Trazado 236992" d="M94.309,191.5c-1.29,5.225-7.83,9.408-14.528,11.42a18.063,18.063,0,0,0,3.5,7.5c11.142-6.126,12.9-18.377,12.9-18.377a1.616,1.616,0,0,0-1.287-.651,1.584,1.584,0,0,0-.582.106" transform="translate(-79.781 -191.394)" fill="none"/>
    </clipPath>
    <linearGradient id="linear-gradient-9" x1="-1.908" y1="5.878" x2="-1.883" y2="5.878" xlink:href="#linear-gradient-4"/>
    <clipPath id="clip-path-19">
      <path id="Trazado_236993" data-name="Trazado 236993" d="M110.477,179.694c-.327.437-.021,2.751-.005,3.291.58,1.132,1.586.721,1.5.446a2.236,2.236,0,0,0,1.689-.975c.371-.516.763-1.177,1.052-1.684a2.259,2.259,0,0,0,.241-1.663,7.787,7.787,0,0,0-.925-1.873l1.632-1.667a.793.793,0,0,0-.089-1.1,43.061,43.061,0,0,0-5.1,5.228" transform="translate(-110.327 -174.466)" fill="none"/>
    </clipPath>
    <linearGradient id="linear-gradient-10" x1="-4.418" y1="11.319" x2="-4.376" y2="11.319" xlink:href="#linear-gradient-4"/>
    <clipPath id="clip-path-20">
      <path id="Trazado_236994" data-name="Trazado 236994" d="M112.962,183.791l-.474,1.238,1.3,1.469a16.947,16.947,0,0,1,.8-2.991c.333-.531.166-.79-.138-.949Z" transform="translate(-112.488 -182.558)" fill="none"/>
    </clipPath>
    <linearGradient id="linear-gradient-11" x1="-11.342" y1="24.505" x2="-11.239" y2="24.505" xlink:href="#linear-gradient-4"/>
    <clipPath id="clip-path-22">
      <path id="Trazado_236996" data-name="Trazado 236996" d="M5.721,254.3c5.13,9.6,19.427-.342,19.427-.342L24,251.772s-8.882,4.909-11.822.617a3.348,3.348,0,0,1-.59-2.609,18.624,18.624,0,0,0-6.823-1.9,9.357,9.357,0,0,0,.956,6.423" transform="translate(-4.567 -247.881)" fill="none"/>
    </clipPath>
    <linearGradient id="linear-gradient-12" x1="-0.262" y1="3.541" x2="-0.233" y2="3.541" xlink:href="#linear-gradient-4"/>
    <clipPath id="clip-path-23">
      <path id="Trazado_236997" data-name="Trazado 236997" d="M38.133,211.51a.28.28,0,0,0,.124.338,6.3,6.3,0,0,0,6.539-.377,1.316,1.316,0,0,0,.615-.933l.932-6.7-5.456-.052Z" transform="translate(-38.117 -203.784)" fill="none"/>
    </clipPath>
    <linearGradient id="linear-gradient-13" x1="-1.298" y1="7.973" x2="-1.26" y2="7.973" xlink:href="#linear-gradient-4"/>
    <clipPath id="clip-path-24">
      <path id="Trazado_236998" data-name="Trazado 236998" d="M41.857,190.819l2.169,6c3.168,1.848,6.814,2.044,7.213-.19s-2.492-7.8-2.492-7.8Z" transform="translate(-41.857 -188.829)" fill="none"/>
    </clipPath>
    <linearGradient id="linear-gradient-14" x1="-1.313" y1="7.473" x2="-1.278" y2="7.473" xlink:href="#linear-gradient-4"/>
    <clipPath id="clip-path-25">
      <path id="Trazado_236999" data-name="Trazado 236999" d="M42.347,181.523a.229.229,0,0,1-.362,0,2.354,2.354,0,0,0-2.859-.959,2.159,2.159,0,0,0-1.5,2.072.227.227,0,0,1-.271.23,2.634,2.634,0,0,0-3.089,1.4c-.641,1.373-.24,2.158.128,2.544a.228.228,0,0,1-.1.377,1.37,1.37,0,0,0-.982,1.554c.066,1.449,1.686,1.337,2.148,1.275a.23.23,0,0,1,.2.074c.391.441,2.154,2.315,4.079,2.557a.23.23,0,0,0,.244-.3l-.811-2.433a.23.23,0,0,1,.127-.283l.415-.179a.229.229,0,0,0,.1-.333,5.962,5.962,0,0,1-.8-1.746s-.526-.344,1.354-.775,4.684-1.1,5.287-2.693c.43-1.134-.24-3.54-1.583-3.54-.493,0-1.077.324-1.731,1.157" transform="translate(-33.31 -180.366)" fill="none"/>
    </clipPath>
    <linearGradient id="linear-gradient-15" x1="-0.737" y1="5.948" x2="-0.711" y2="5.948" xlink:href="#linear-gradient"/>
    <clipPath id="clip-path-26">
      <path id="Trazado_237000" data-name="Trazado 237000" d="M42.735,199.128c-.164,1.209,1.871,1.772,2.885,1.33l-.639-1.082a4.172,4.172,0,0,0-1.708-.728.493.493,0,0,0-.539.48" transform="translate(-42.725 -198.648)" fill="none"/>
    </clipPath>
    <linearGradient id="linear-gradient-16" x1="-5.662" y1="25.393" x2="-5.527" y2="25.393" xlink:href="#linear-gradient-4"/>
    <clipPath id="clip-path-27">
      <path id="Trazado_237001" data-name="Trazado 237001" d="M53.143,234.325c-2.933.248-5.473.535-6.35.637a.493.493,0,0,0-.416.355l-4.839,16.9a.5.5,0,0,0,.471.631l11.225.1a.5.5,0,0,0,.4-.2c2.871-3.758,8.606-15.23,10-18.051a.494.494,0,0,0-.4-.711c-.636-.053-1.383-.077-2.2-.077-2.339,0-5.269.19-7.885.411" transform="translate(-41.518 -233.914)" fill="none"/>
    </clipPath>
    <linearGradient id="linear-gradient-17" x1="-0.68" y1="3.404" x2="-0.662" y2="3.404" xlink:href="#linear-gradient"/>
    <clipPath id="clip-path-28">
      <path id="Trazado_237002" data-name="Trazado 237002" d="M43.1,253.678c-.272.983.4,3.755.4,3.755a2.548,2.548,0,0,0,2.305-.805c.53-.519.843-1.038,1.273-.759a.9.9,0,0,0,1.313-.3l-.769-.849c1.127.548,1.245-.478,1.245-.478l-.827-.64a1,1,0,0,0,1.439-.868,25.739,25.739,0,0,0-3.827-1.021,3.053,3.053,0,0,0-.474-.04c-1.381,0-1.834,1.118-2.08,2.006" transform="translate(-43.033 -251.672)" fill="none"/>
    </clipPath>
    <linearGradient id="linear-gradient-18" x1="-3.049" y1="11.812" x2="-2.977" y2="11.812" xlink:href="#linear-gradient-4"/>
    <clipPath id="clip-path-30">
      <path id="Trazado_237005" data-name="Trazado 237005" d="M316.362,194.382c-1.956,3.74,2.447,5.517,2.447,5.517s-3.827,7.494,1.946,12.644,10.736,1.488,10.736,1.488l3.215-10.194s-6.478,8.546-11.079,5.587-3.419-7.012-2.631-10.075a2.026,2.026,0,0,0-.434-2.282,2.108,2.108,0,0,1-.687-1.357s-.818.945-.365,1.638a.741.741,0,0,1,.091.67c-.067-.032-.137-.065-.21-.1-1.457-.64-2.152-2.442-2.439-3.475a.32.32,0,0,0-.591-.063" transform="translate(-315.861 -194.211)" fill="none"/>
    </clipPath>
    <linearGradient id="linear-gradient-19" x1="-4.866" y1="3.291" x2="-4.85" y2="3.291" xlink:href="#linear-gradient-4"/>
    <clipPath id="clip-path-31">
      <path id="Trazado_237006" data-name="Trazado 237006" d="M354.742,177.847s4.046,1.822-.218,6.916-.2,7.716-.2,7.716c-.175,6.164,8.553,5.011,8.553,5.011,3.067,2.987,8.26,1.256,9.285-1.2a2.663,2.663,0,0,0-1.141-3.544,5.037,5.037,0,0,0,3.65-4.991v-.062a10.1,10.1,0,0,0-1.2-4.4c-2.775-5.582-9.143-3.122-9.143-3.122,1.569-2.715-.573-4.127-.573-4.127-.17-3.137-3.493-2.595-3.493-2.595a9.327,9.327,0,0,0-2.082-.267c-4.473,0-3.434,4.663-3.434,4.663" transform="translate(-352.575 -173.184)" fill="none"/>
    </clipPath>
    <linearGradient id="linear-gradient-20" x1="-4.494" y1="3.072" x2="-4.481" y2="3.072" xlink:href="#linear-gradient"/>
    <clipPath id="clip-path-33">
      <path id="Trazado_237008" data-name="Trazado 237008" d="M358.593,197.164a63.909,63.909,0,0,1,.544,6.779,4.353,4.353,0,0,0,4.369.7c-.153-2.54-2.188-8.3-2.188-8.3Z" transform="translate(-358.593 -196.35)" fill="none"/>
    </clipPath>
    <linearGradient id="linear-gradient-21" x1="-15.975" y1="11.533" x2="-15.93" y2="11.533" xlink:href="#linear-gradient-4"/>
    <clipPath id="clip-path-34">
      <path id="Trazado_237009" data-name="Trazado 237009" d="M354.908,179.823s-5.323,7.449-2.141,9.613,6.971-3.13,6.971-3.13,1.235-4.077-.056-5.46c-.849-.909-2.644-1.065-3.775-1.065-.59,0-1,.042-1,.042" transform="translate(-351.753 -179.781)" fill="none"/>
    </clipPath>
    <linearGradient id="linear-gradient-22" x1="-10.683" y1="6.837" x2="-10.652" y2="6.837" xlink:href="#linear-gradient-4"/>
    <clipPath id="clip-path-35">
      <path id="Trazado_237010" data-name="Trazado 237010" d="M360.461,176.023s-2.445.579-2.788,1.686,3.468,2.132,4.536,2.183l.86,4.465s2.544-4.2,1.536-6.626a3.13,3.13,0,0,0-3.113-1.807,5.1,5.1,0,0,0-1.031.1" transform="translate(-357.651 -175.923)" fill="none"/>
    </clipPath>
    <linearGradient id="linear-gradient-23" x1="-14.553" y1="9.269" x2="-14.512" y2="9.269" xlink:href="#linear-gradient"/>
    <clipPath id="clip-path-36">
      <path id="Trazado_237011" data-name="Trazado 237011" d="M366.354,190.831l.1,1.135c.931.768,3.62-.406,2.8-1.971a.858.858,0,0,0-.784-.53c-.933,0-2.111,1.365-2.111,1.365" transform="translate(-366.354 -189.466)" fill="none"/>
    </clipPath>
    <linearGradient id="linear-gradient-24" x1="-36.641" y1="22.138" x2="-36.541" y2="22.138" xlink:href="#linear-gradient-4"/>
    <clipPath id="clip-path-37">
      <path id="Trazado_237012" data-name="Trazado 237012" d="M342.394,309.783a2.815,2.815,0,0,0,.3,2.02l13.375,22.511a3.081,3.081,0,0,1,.351.875,19.314,19.314,0,0,1,.488,6l-.692,1.437,2.993-.68.651-8.036-.847-.516a4.031,4.031,0,0,1-1.628-1.906c-1.209-2.938-4.212-10.415-4.987-14.06-.88-4.142-5.479-7.506-5.479-7.506l.808-1.91-4.256-3.55c.016.4-.694,3.61-1.08,5.32" transform="translate(-342.324 -304.463)" fill="none"/>
    </clipPath>
    <linearGradient id="linear-gradient-25" x1="-4.565" y1="1.114" x2="-4.551" y2="1.114" xlink:href="#linear-gradient-4"/>
    <clipPath id="clip-path-38">
      <path id="Trazado_237013" data-name="Trazado 237013" d="M373.306,365.107a58.4,58.4,0,0,0-.307,6.737c.161,1.893-2.14,1.832-2.14,1.832a2.149,2.149,0,0,0-1.1.554.539.539,0,0,0,.361.906,12.929,12.929,0,0,0,3.206-.181.98.98,0,0,0,.791-.9l.331-5.575,2.039,2.574.34-.154a18.271,18.271,0,0,1-1.806-3.559c-.166-.871-.591-2.325-1.36-2.325a.753.753,0,0,0-.356.1" transform="translate(-369.61 -365.009)" fill="none"/>
    </clipPath>
    <linearGradient id="linear-gradient-26" x1="-17.004" y1="1.954" x2="-16.958" y2="1.954" xlink:href="#linear-gradient"/>
    <clipPath id="clip-path-39">
      <path id="Trazado_237014" data-name="Trazado 237014" d="M358.455,311.395s.472,20.136.536,23-.452,9.2-3.318,11.091l1.247.923A16.663,16.663,0,0,0,360,342.53a23.618,23.618,0,0,1,2.228-3.388l-.568-1.163a2.554,2.554,0,0,1-.207-1.64c.618-3,2.685-12.971,3.249-15.119a9.676,9.676,0,0,0-1.6-8.755,3.73,3.73,0,0,0-2.9-1.613,3.14,3.14,0,0,0-1.75.542" transform="translate(-355.672 -310.853)" fill="none"/>
    </clipPath>
    <linearGradient id="linear-gradient-27" x1="-4.233" y1="1.676" x2="-4.22" y2="1.676" xlink:href="#linear-gradient-4"/>
    <clipPath id="clip-path-40">
      <path id="Trazado_237015" data-name="Trazado 237015" d="M355.841,375.792a1.486,1.486,0,0,1-1.715.272,2.858,2.858,0,0,0-1.3.931.523.523,0,0,0,.412.841l2.661.025a1.872,1.872,0,0,0,1.755-1.18,10,10,0,0,1,2.211-3.647l-.487,4.666a.177.177,0,0,0,.352.045,26.018,26.018,0,0,1,.817-4.059c.372-.8,1.588-4.157,0-4.442,0,0-3.95,5.772-4.709,6.55" transform="translate(-352.72 -369.242)" fill="none"/>
    </clipPath>
    <linearGradient id="linear-gradient-28" x1="-19.241" y1="1.498" x2="-19.186" y2="1.498" xlink:href="#linear-gradient"/>
    <clipPath id="clip-path-41">
      <path id="Trazado_237016" data-name="Trazado 237016" d="M347.911,259.2a9.446,9.446,0,0,1-.321,5.059l-5.714,19.955a.617.617,0,0,0,.386.751,38.1,38.1,0,0,0,15,1.819.87.87,0,0,0,.793-.678c.506-2.275,2.23-10.037,2.585-11.632,1.353-6.076,2.864-12.63-3.781-16.592-3.063,1.312-5.919,2.085-8.946,1.318" transform="translate(-341.851 -257.886)" fill="none"/>
    </clipPath>
    <linearGradient id="linear-gradient-29" x1="-4.44" y1="1.929" x2="-4.426" y2="1.929" xlink:href="#linear-gradient"/>
    <clipPath id="clip-path-42">
      <path id="Trazado_237017" data-name="Trazado 237017" d="M368.486,222.509a3.338,3.338,0,0,0,.973,1.325c7.369,6.133,5.583,10.179,2.7,11.487-2.965,1.343-1.994-.314-4.089-.324a3.009,3.009,0,0,0-2.324,1.5c-.564.877-.6,1.754.367,1.431,1.791-.6,3.3,1.084,3.3,1.084s11.114-.785,9.5-8.168-8.115-12.786-8.115-12.786a2.94,2.94,0,0,0-1.438-.466c-1.529,0-2,2.072-.869,4.917" transform="translate(-365.345 -217.592)" fill="none"/>
    </clipPath>
    <linearGradient id="linear-gradient-30" x1="-6.839" y1="3.364" x2="-6.82" y2="3.364" xlink:href="#linear-gradient-4"/>
    <clipPath id="clip-path-44">
      <path id="Trazado_237019" data-name="Trazado 237019" d="M237.964,370.423s-7.5,3.229-7.068,6.609c0,0,7.75-1.486,9.137-3.7s.623-3.5.623-3.5Z" transform="translate(-230.879 -369.832)" fill="none"/>
    </clipPath>
    <linearGradient id="linear-gradient-31" x1="-8.772" y1="1.538" x2="-8.734" y2="1.538" xlink:href="#linear-gradient"/>
    <clipPath id="clip-path-45">
      <path id="Trazado_237020" data-name="Trazado 237020" d="M242.837,364.328l.737,2.662a1.268,1.268,0,0,0,1.232.924,2.85,2.85,0,0,0,.95-.145,1.088,1.088,0,0,0,.689-1.156l-.381-3.29Z" transform="translate(-242.837 -363.323)" fill="none"/>
    </clipPath>
    <linearGradient id="linear-gradient-32" x1="-21.762" y1="3.666" x2="-21.672" y2="3.666" xlink:href="#linear-gradient-4"/>
    <clipPath id="clip-path-46">
      <path id="Trazado_237021" data-name="Trazado 237021" d="M237.382,313.661c-6.862,4,.348,23.207.348,23.207a6.972,6.972,0,0,0,4.373-.994s-3.683-14.059,2.715-16.505a36.833,36.833,0,0,1,14.633-2.081l-1.379-6.556-.039-.434s-.806-.037-2.125-.037c-4.137,0-13.323.367-18.526,3.4" transform="translate(-234.42 -310.261)" fill="none"/>
    </clipPath>
    <linearGradient id="linear-gradient-33" x1="-2.786" y1="1.289" x2="-2.774" y2="1.289" xlink:href="#linear-gradient"/>
    <clipPath id="clip-path-47">
      <path id="Trazado_237022" data-name="Trazado 237022" d="M231.026,379.367a6.137,6.137,0,0,0-2.776,1.494,5.035,5.035,0,0,0,4.295,1.592,13.012,13.012,0,0,0,6.779-2.837,1.878,1.878,0,0,0,.333-1.409s-1-1.058-1.707-1.084h-.015c-.753,0-5.351,1.9-6.909,2.245" transform="translate(-228.25 -377.122)" fill="none"/>
    </clipPath>
    <linearGradient id="linear-gradient-34" x1="-8.441" y1="1.26" x2="-8.404" y2="1.26" xlink:href="#linear-gradient"/>
    <clipPath id="clip-path-48">
      <path id="Trazado_237023" data-name="Trazado 237023" d="M231.807,385.194a5.035,5.035,0,0,1-4.295-1.592c-.727.708-.973,1.451-.178,1.76.994.386,6.005.635,9.037-1.078a5.849,5.849,0,0,0,2.214-1.928,13.013,13.013,0,0,1-6.779,2.837" transform="translate(-226.841 -382.357)" fill="none"/>
    </clipPath>
    <linearGradient id="linear-gradient-35" x1="-17.97" y1="0.969" x2="-17.893" y2="0.969" gradientUnits="objectBoundingBox">
      <stop offset="0" stop-color="#4f52ff"/>
      <stop offset="1" stop-color="#4042e2"/>
    </linearGradient>
    <clipPath id="clip-path-49">
      <path id="Trazado_237024" data-name="Trazado 237024" d="M246.848,375.006a.811.811,0,0,0,.314,1.1,3.215,3.215,0,0,0,.831.292,1.251,1.251,0,0,0,1.162-.35,11.192,11.192,0,0,0,1.836-2.2l-2.537-1.761Z" transform="translate(-246.746 -372.085)" fill="none"/>
    </clipPath>
    <linearGradient id="linear-gradient-36" x1="-22.297" y1="2.501" x2="-22.206" y2="2.501" xlink:href="#linear-gradient-4"/>
    <clipPath id="clip-path-50">
      <path id="Trazado_237025" data-name="Trazado 237025" d="M264.174,308.787l.352,2.168c.193,1.19.107,2.353-.989,2.856-3.828,1.759-6.523,5.825-8.366,8.648-2.127,3.259-7.228,16.668-7.228,16.668.718,1.207,3.172,2,3.172,2,4.3-2.5,9.019-11.191,11.648-15.62s10.263-5.571,13.743-7.317,2.276-10.284,2.276-10.284Z" transform="translate(-247.942 -307.911)" fill="none"/>
    </clipPath>
    <linearGradient id="linear-gradient-37" x1="-2.971" y1="1.205" x2="-2.959" y2="1.205" xlink:href="#linear-gradient"/>
    <clipPath id="clip-path-52">
      <path id="Trazado_237027" data-name="Trazado 237027" d="M221.163,277.878c-2.126.874-4.394,4.649-4.394,4.649a1.4,1.4,0,0,0,1.761.39c.951-.6,3.395-2.167,3.395-2.167a13.188,13.188,0,0,0-.821,2.088c.006.329,1.066.276,1.123-.614.029-.452.494-.784.944-1a.913.913,0,0,1,1.2.408,10.875,10.875,0,0,0,4.793,4.854,6.991,6.991,0,0,0,1.03-4.112c-1.327-.379-3-1.467-5.105-3.625a4.316,4.316,0,0,0-2.7-1.115,3.2,3.2,0,0,0-1.228.245" transform="translate(-216.769 -277.633)" fill="none"/>
    </clipPath>
    <linearGradient id="linear-gradient-38" x1="-9.015" y1="4.021" x2="-8.974" y2="4.021" xlink:href="#linear-gradient-4"/>
    <clipPath id="clip-path-54">
      <path id="Trazado_237029" data-name="Trazado 237029" d="M269.24,237.774l1.342,5.667a2.229,2.229,0,0,0,1.517,1.615,4.124,4.124,0,0,0,4.745-1.322,1.443,1.443,0,0,0,.15-1.557L274.4,237.1Z" transform="translate(-269.24 -237.101)" fill="none"/>
    </clipPath>
    <linearGradient id="linear-gradient-39" x1="-12.395" y1="7.968" x2="-12.348" y2="7.968" xlink:href="#linear-gradient-4"/>
    <clipPath id="clip-path-56">
      <path id="Trazado_237031" data-name="Trazado 237031" d="M298.588,286.964c-1.914,2.808-11.14.231-11.14.231-6.024-.631-6.916,6.487-6.916,6.487,1.084.583,1.947-.428,2.7-1.439.607-.819,1.14-1.637,1.655-1.609a11.066,11.066,0,0,0,3.019-.607,1.622,1.622,0,0,1,1.215.1c2.295,1.158,10.741,5.021,15.121,1.575a10.136,10.136,0,0,0-5.413-5.365,1.458,1.458,0,0,1-.238.625" transform="translate(-280.532 -286.339)" fill="none"/>
    </clipPath>
    <linearGradient id="linear-gradient-40" x1="-5.458" y1="2.841" x2="-5.438" y2="2.841" xlink:href="#linear-gradient-4"/>
    <clipPath id="clip-path-57">
      <path id="Trazado_237032" data-name="Trazado 237032" d="M267.086,219.441c-.082.071-3.5,6.04-5.24,9.083a1.789,1.789,0,0,0,.85,2.534l.754.323c1.03.441,3.244.812,4.116.107l5.495-5.8s-3.4-6.462-5.409-6.462a.841.841,0,0,0-.566.215" transform="translate(-261.609 -219.226)" fill="none"/>
    </clipPath>
    <linearGradient id="linear-gradient-41" x1="-8.103" y1="6.062" x2="-8.071" y2="6.062" xlink:href="#linear-gradient-4"/>
    <clipPath id="clip-path-58">
      <path id="Trazado_237033" data-name="Trazado 237033" d="M269.476,214.231c-.544,1.6,1.8,2.843,3.3,3.1,1.138.193,1.694,1.506,1.895,2.124a.678.678,0,0,1-.081.581l-1.671,2.538c.46.578.867,1.189,1.268,1.806.15-.161.282-.3.385-.391.725-.664,2.015-.321,2.547-.139a.671.671,0,0,0,.527-.039,1.769,1.769,0,0,0,.79-2.728.683.683,0,0,1,.251-.951,1.771,1.771,0,0,0,.853-2.5,2.5,2.5,0,0,0-2.724-1.41.682.682,0,0,1-.724-.492.54.54,0,0,0-.478-.386.672.672,0,0,1-.531-.841,2.037,2.037,0,0,0-1.017-2.441,2.723,2.723,0,0,0-1.424-.422,3.72,3.72,0,0,0-3.167,2.594" transform="translate(-269.395 -211.637)" fill="none"/>
    </clipPath>
    <linearGradient id="linear-gradient-42" x1="-7.426" y1="5.365" x2="-7.398" y2="5.365" xlink:href="#linear-gradient"/>
    <clipPath id="clip-path-59">
      <path id="Trazado_237034" data-name="Trazado 237034" d="M278.179,237.811s.889,1.734,2.837.116c1.567-1.3.659-2.555-.555-2.708a.761.761,0,0,0-.1-.006c-1.173,0-2.184,2.6-2.184,2.6" transform="translate(-278.179 -235.213)" fill="none"/>
    </clipPath>
    <linearGradient id="linear-gradient-43" x1="-28.217" y1="16.408" x2="-28.115" y2="16.408" xlink:href="#linear-gradient-4"/>
    <clipPath id="clip-path-60">
      <path id="Trazado_237035" data-name="Trazado 237035" d="M222.933,297.337a.964.964,0,0,0,.963.966l21.553.023h.05a.965.965,0,0,0-.048-1.928l-21.554-.023h-.017a.961.961,0,0,0-.948.964" transform="translate(-222.933 -296.373)" fill="none"/>
    </clipPath>
    <linearGradient id="linear-gradient-44" x1="-4.644" y1="5.698" x2="-4.623" y2="5.698" xlink:href="#linear-gradient"/>
    <clipPath id="clip-path-61">
      <path id="Trazado_237036" data-name="Trazado 237036" d="M182.693,259.38a1.433,1.433,0,0,0-1.333,1.961l6.434,16.282a2.08,2.08,0,0,0,1.934,1.315h22.307l-8.3-17.6a3.422,3.422,0,0,0-3.094-1.962Z" transform="translate(-181.258 -259.38)" fill="none"/>
    </clipPath>
    <linearGradient id="linear-gradient-45" x1="-2.358" y1="2.07" x2="-2.344" y2="2.07" xlink:href="#linear-gradient"/>
  </defs>
  <g id="Grupo_176115" data-name="Grupo 176115" clip-path="url(#clip-path)">
    <g id="Grupo_175992" data-name="Grupo 175992">
      <g id="Grupo_175991" data-name="Grupo 175991" clip-path="url(#clip-path)">
        <g id="Grupo_175990" data-name="Grupo 175990" opacity="0.15" style="isolation: isolate">
          <g id="Grupo_175989" data-name="Grupo 175989">
            <g id="Grupo_175988" data-name="Grupo 175988" clip-path="url(#clip-path-3)">
              <path id="Trazado_236959" data-name="Trazado 236959" d="M166.288,162.389a67.988,67.988,0,0,1-10.4,8.76c-33.94,24.352-74.1,17.254-82.635,15.52-12.6-2.56-36.966-7.508-54.58-28.221-26.648-31.338-22.5-80.709-1.828-113.3C20.622,39.186,40.594,6.1,81.186.793c24.566-3.211,53.2,3.266,73.94,20.639,43.53,36.469,40.431,110.144,11.163,140.957" transform="translate(0 0)" fill="#8c6df2"/>
            </g>
          </g>
        </g>
        <path id="Trazado_236960" data-name="Trazado 236960" d="M164.553,114.9A72.826,72.826,0,1,1,91.728,42.078,72.826,72.826,0,0,1,164.553,114.9" transform="translate(-9.9 -22.039)" fill="#bdd0fb"/>
        <path id="Trazado_236961" data-name="Trazado 236961" d="M165.619,126.641a62.154,62.154,0,1,1-62.154-62.154,62.154,62.154,0,0,1,62.154,62.154" transform="translate(-21.637 -33.776)" fill="#5038a1"/>
        <path id="Trazado_236962" data-name="Trazado 236962" d="M100.041,188.484a65.267,65.267,0,1,1,65.267-65.267,65.341,65.341,0,0,1-65.267,65.267m0-127.421a62.154,62.154,0,1,0,62.154,62.154,62.224,62.224,0,0,0-62.154-62.154" transform="translate(-18.213 -30.352)" fill="#fff"/>
        <path id="Trazado_236963" data-name="Trazado 236963" d="M168.04,153.324a37.892,37.892,0,1,1-37.892-37.892,37.892,37.892,0,0,1,37.892,37.892" transform="translate(-48.321 -60.459)" fill="#5038a1"/>
        <path id="Trazado_236964" data-name="Trazado 236964" d="M126.724,190.906A41,41,0,1,1,167.729,149.9a41.052,41.052,0,0,1-41.005,41.005m0-75.784A34.779,34.779,0,1,0,161.5,149.9a34.818,34.818,0,0,0-34.779-34.779" transform="translate(-44.897 -57.036)" fill="#fff"/>
        <path id="Trazado_236965" data-name="Trazado 236965" d="M170.357,178.852a14.68,14.68,0,1,1-14.68-14.68,14.68,14.68,0,0,1,14.68,14.68" transform="translate(-73.849 -85.988)" fill="#fedc72"/>
        <path id="Trazado_236966" data-name="Trazado 236966" d="M152.253,193.222a17.794,17.794,0,1,1,17.794-17.794,17.814,17.814,0,0,1-17.794,17.794m0-29.361a11.568,11.568,0,1,0,11.568,11.568,11.58,11.58,0,0,0-11.568-11.568" transform="translate(-70.425 -82.564)" fill="#fff"/>
      </g>
    </g>
    <g id="Grupo_175994" data-name="Grupo 175994" transform="translate(92.763 23.564)">
      <g id="Grupo_175993" data-name="Grupo 175993" transform="translate(0 0)" clip-path="url(#clip-path-4)">
        <rect id="Rectángulo_101037" data-name="Rectángulo 101037" width="82.53" height="82.53" transform="translate(-26.616 16.101) rotate(-31.171)" fill="url(#linear-gradient)"/>
      </g>
    </g>
    <g id="Grupo_175996" data-name="Grupo 175996" transform="translate(81.525 78.263)">
      <g id="Grupo_175995" data-name="Grupo 175995" clip-path="url(#clip-path-5)">
        <rect id="Rectángulo_101039" data-name="Rectángulo 101039" width="24.39" height="24.301" transform="translate(-8.641 6.908) rotate(-39.674)" fill="url(#linear-gradient-2)"/>
      </g>
    </g>
    <g id="Grupo_176010" data-name="Grupo 176010">
      <g id="Grupo_176009" data-name="Grupo 176009" clip-path="url(#clip-path)">
        <path id="Trazado_236968" data-name="Trazado 236968" d="M302.862,52.8l7.878.783L299.926,64.393a16.719,16.719,0,0,1-13.475,4.815Z" transform="translate(-150.033 -27.653)" fill="#8c6df2"/>
        <path id="Trazado_236969" data-name="Trazado 236969" d="M299.524,40.886l-.783-7.877L287.928,43.823A16.719,16.719,0,0,0,283.113,57.3Z" transform="translate(-148.242 -17.289)" fill="#8c6df2"/>
        <g id="Grupo_175999" data-name="Grupo 175999" transform="translate(4.792 5.291)" opacity="0.3">
          <g id="Grupo_175998" data-name="Grupo 175998">
            <g id="Grupo_175997" data-name="Grupo 175997" clip-path="url(#clip-path-7)">
              <path id="Trazado_236970" data-name="Trazado 236970" d="M49.163,18.513a.563.563,0,0,1-.8,0c-.428-.428-.881-.843-1.345-1.235a.563.563,0,0,1-.074-.786l.007-.009a.564.564,0,0,1,.794-.068c.49.412.966.85,1.415,1.3a.563.563,0,0,1,.04.752c-.012.015-.026.03-.04.044m-4.535-2.986c-.513-.325-1.046-.63-1.583-.909a.564.564,0,0,1,.52-1c.565.293,1.125.614,1.666.956a.564.564,0,0,1,.175.778c-.012.019-.026.037-.039.054a.564.564,0,0,1-.739.121m-4.3-2.087c-.571-.2-1.158-.381-1.746-.532a.564.564,0,0,1,.282-1.091c.618.16,1.237.349,1.838.561a.564.564,0,0,1,.344.719.587.587,0,0,1-.093.168.563.563,0,0,1-.625.176m-4.661-1.072c-.6-.069-1.215-.112-1.821-.129a.564.564,0,0,1,.031-1.127c.638.018,1.283.064,1.917.136a.564.564,0,0,1-.128,1.12m-4.783-.008c-.6.067-1.209.16-1.8.278a.564.564,0,1,1-.218-1.106c.627-.124,1.266-.222,1.9-.292a.563.563,0,1,1,.124,1.12M26.215,13.41c-.572.2-1.144.423-1.7.67a.563.563,0,0,1-.458-1.03c.583-.259,1.185-.5,1.787-.7a.563.563,0,1,1,.368,1.065M11.842,28.618a.565.565,0,0,1-.4-.688c.161-.617.351-1.235.565-1.837a.563.563,0,1,1,1.062.377c-.2.572-.383,1.159-.535,1.745a.573.573,0,0,1-.108.213.564.564,0,0,1-.58.19M21.9,15.468c-.514.321-1.02.667-1.5,1.031a.563.563,0,0,1-.676-.9c.511-.382,1.043-.748,1.585-1.085a.563.563,0,1,1,.6.956M13.489,23.99a.563.563,0,0,1-.239-.76c.294-.565.618-1.125.96-1.664a.563.563,0,1,1,.951.6c-.324.512-.632,1.045-.912,1.582a.57.57,0,0,1-.063.094.563.563,0,0,1-.7.144m4.667-5.552c-.43.427-.845.878-1.237,1.342a.564.564,0,0,1-.868-.719l.008-.009c.412-.488.85-.963,1.3-1.413a.564.564,0,0,1,.836.754.5.5,0,0,1-.04.045" transform="translate(-10.774 -11.111)" fill="#91b3fa"/>
              <path id="Trazado_236971" data-name="Trazado 236971" d="M11.064,53.673a.558.558,0,0,0,.124-.313c.021-.29.05-.584.082-.874a.563.563,0,0,0-1.12-.129c-.035.306-.064.615-.087.92a.563.563,0,0,0,1,.4" transform="translate(-10.063 -32.453)" fill="#91b3fa"/>
            </g>
          </g>
        </g>
        <g id="Grupo_176002" data-name="Grupo 176002" transform="translate(9.731 27.845)" opacity="0.3">
          <g id="Grupo_176001" data-name="Grupo 176001">
            <g id="Grupo_176000" data-name="Grupo 176000" clip-path="url(#clip-path-8)">
              <path id="Trazado_236972" data-name="Trazado 236972" d="M22.023,88.064A.563.563,0,0,0,22,87.333c-.194-.216-.387-.44-.572-.666a.563.563,0,0,0-.87.717c.2.238.4.473.6.7a.561.561,0,0,0,.858-.022" transform="translate(-20.434 -73.132)" fill="#91b3fa"/>
              <path id="Trazado_236973" data-name="Trazado 236973" d="M57.7,77.719a.564.564,0,1,1-.84-.752c.4-.441.778-.906,1.142-1.387a.563.563,0,1,1,.9.68q-.236.312-.481.615c-.233.287-.475.571-.72.844m2.116-3.813a.563.563,0,0,1-.215-.767c.293-.521.567-1.06.814-1.6A.563.563,0,0,1,61.437,72c-.26.571-.549,1.138-.857,1.686a.6.6,0,0,1-.054.08.563.563,0,0,1-.713.136M55.5,79.861c-.478.405-.981.8-1.493,1.161a.564.564,0,1,1-.654-.918c.487-.346.963-.717,1.417-1.1a.563.563,0,0,1,.8.784.579.579,0,0,1-.073.076m6.319-10.353a.564.564,0,0,1-.379-.7c.171-.571.32-1.157.441-1.741a.563.563,0,1,1,1.1.23c-.129.614-.285,1.231-.465,1.833a.563.563,0,0,1-.7.379M51.389,82.626c-.555.29-1.131.561-1.711.8a.563.563,0,1,1-.436-1.039c.551-.231,1.1-.488,1.624-.763a.563.563,0,0,1,.7.854.554.554,0,0,1-.177.144m-4.615,1.8c-.607.162-1.228.3-1.845.411a.563.563,0,1,1-.2-1.109c.586-.105,1.176-.237,1.753-.391a.563.563,0,1,1,.291,1.089m-4.9.748c-.628.027-1.264.026-1.891,0a.564.564,0,0,1,.047-1.126c.6.025,1.2.025,1.8,0a.563.563,0,1,1,.047,1.126m-4.944-.338c-.618-.111-1.239-.251-1.845-.414a.563.563,0,1,1,.293-1.088c.576.155,1.165.288,1.753.394a.563.563,0,1,1-.2,1.109m-4.751-1.416c-.577-.245-1.152-.517-1.707-.811a.563.563,0,1,1,.525-1c.528.279,1.074.537,1.622.77a.564.564,0,0,1-.44,1.038m-4.319-2.423c-.376-.269-.748-.552-1.106-.842q-.2-.158-.385-.319a.557.557,0,0,1-.065-.794.563.563,0,0,1,.794-.066q.181.153.366.3c.341.276.694.545,1.052.8a.563.563,0,0,1,.131.786l-.021.028a.563.563,0,0,1-.765.1" transform="translate(-23.438 -62.737)" fill="#91b3fa"/>
              <path id="Trazado_236974" data-name="Trazado 236974" d="M102.992,60.288a.564.564,0,0,0,.124-.316c.021-.3.036-.615.044-.923a.564.564,0,1,0-1.127-.031c-.008.292-.022.588-.042.876a.563.563,0,0,0,1,.393" transform="translate(-63.15 -58.47)" fill="#91b3fa"/>
            </g>
          </g>
        </g>
        <path id="Trazado_236975" data-name="Trazado 236975" d="M54.422,34.217a.263.263,0,0,0-.224-.208l-3.18-.406a13.963,13.963,0,0,0-2.545-3.74l.787-3.105a.264.264,0,0,0-.11-.285l-3.216-2.108a.263.263,0,0,0-.306.012l-2.534,1.96a13.953,13.953,0,0,0-4.445-.842L37.01,22.74a.264.264,0,0,0-.28-.123l-3.764.783a.264.264,0,0,0-.208.225L32.352,26.8a13.954,13.954,0,0,0-3.74,2.545l-3.105-.787a.263.263,0,0,0-.285.111l-2.108,3.215a.263.263,0,0,0,.012.306l1.96,2.534a13.956,13.956,0,0,0-.842,4.445l-2.754,1.64a.264.264,0,0,0-.123.28l.783,3.764a.264.264,0,0,0,.225.208l3.179.406A13.951,13.951,0,0,0,28.1,49.21l-.787,3.106a.263.263,0,0,0,.111.285l3.215,2.108a.264.264,0,0,0,.306-.012l2.534-1.96a13.97,13.97,0,0,0,4.445.842l1.64,2.754a.264.264,0,0,0,.28.123l3.764-.783a.263.263,0,0,0,.208-.224l.406-3.18a13.961,13.961,0,0,0,3.74-2.545l3.106.787a.264.264,0,0,0,.285-.111l2.108-3.216a.264.264,0,0,0-.012-.306l-1.96-2.534a13.967,13.967,0,0,0,.842-4.445l2.754-1.64a.264.264,0,0,0,.123-.28Z" transform="translate(-11.188 -11.843)" fill="#fedc72"/>
        <path id="Trazado_236976" data-name="Trazado 236976" d="M55.264,56.748a3.863,3.863,0,1,1,.389-.413,3.912,3.912,0,0,1-.389.413m-5.576-2.971a2.963,2.963,0,1,0,.955-2.057,3.029,3.029,0,0,0-.3.321,2.941,2.941,0,0,0-.654,1.736" transform="translate(-25.551 -26.209)" fill="#bdd0fb"/>
        <path id="Trazado_236977" data-name="Trazado 236977" d="M53.645,53.722a9.528,9.528,0,0,0,.576-.789c.057-.086.112-.173.166-.261a9.619,9.619,0,0,0,.688-1.359l.008-.019.022-.054c.014-.036.028-.07.042-.107a.225.225,0,0,0-.068-.256.259.259,0,0,0-.061-.036.226.226,0,0,0-.291.13,9.06,9.06,0,0,1-8.582,5.8,9,9,0,0,1-4.833-1.478,9.232,9.232,0,0,1-.752-.55A9.053,9.053,0,0,1,51.237,40.153q.386.254.742.542a9.033,9.033,0,0,1,2.441,3.079.235.235,0,0,0,.061.078.226.226,0,0,0,.345-.274,9.472,9.472,0,0,0-2.563-3.232q-.374-.3-.78-.57a9.5,9.5,0,1,0,2.161,13.946" transform="translate(-19.258 -20.02)" fill="#bdd0fb"/>
        <g id="Grupo_176005" data-name="Grupo 176005" transform="translate(41.308 0.156)" opacity="0.3">
          <g id="Grupo_176004" data-name="Grupo 176004">
            <g id="Grupo_176003" data-name="Grupo 176003" clip-path="url(#clip-path-9)">
              <path id="Trazado_236978" data-name="Trazado 236978" d="M139.158,13.44a.348.348,0,0,0,.016-.417c-.168-.243-.345-.485-.527-.718a.348.348,0,0,0-.548.429c.173.222.343.452.5.684a.348.348,0,0,0,.484.089.353.353,0,0,0,.073-.068" transform="translate(-113.6 -6.532)" fill="#91b3fa"/>
              <path id="Trazado_236979" data-name="Trazado 236979" d="M110.556,5.208a.348.348,0,0,1-.492,0,14.441,14.441,0,0,0-1.086-.976q-.119-.1-.241-.191a.348.348,0,0,1-.061-.488.361.361,0,0,1,.489-.061q.128.1.252.2a14.951,14.951,0,0,1,1.139,1.023.348.348,0,0,1,.025.465.25.25,0,0,1-.024.027m-3.279-2.163a14.4,14.4,0,0,0-1.57-.812.348.348,0,0,1,.281-.637,15.149,15.149,0,0,1,1.646.851.349.349,0,0,1,.12.477.33.33,0,0,1-.029.041.348.348,0,0,1-.448.08m-3.229-1.423a14.183,14.183,0,0,0-1.721-.4.348.348,0,0,1,.115-.687,14.974,14.974,0,0,1,1.805.421.348.348,0,1,1-.2.667m-3.479-.586A14.384,14.384,0,0,0,98.8,1.07a.348.348,0,0,1-.056-.694A15.031,15.031,0,0,1,100.6.342a.348.348,0,0,1-.03.7m-3.517.281a14.518,14.518,0,0,0-1.706.461.348.348,0,1,1-.222-.66A15.187,15.187,0,0,1,96.913.636a.348.348,0,0,1,.14.682M93.711,2.445a14.214,14.214,0,0,0-1.541.862.348.348,0,0,1-.377-.585,14.946,14.946,0,0,1,1.616-.9.348.348,0,0,1,.421.533.343.343,0,0,1-.119.094M90.748,4.354a14.231,14.231,0,0,0-1.283,1.215.348.348,0,0,1-.509-.475A15.158,15.158,0,0,1,90.3,3.82a.348.348,0,0,1,.494.486.345.345,0,0,1-.047.048M86.919,8.56a.348.348,0,0,1-.136-.473,15.023,15.023,0,0,1,.853-1.364c.047-.067.094-.133.142-.2a.344.344,0,0,1,.486-.076.348.348,0,0,1,.077.486c-.045.061-.09.124-.134.188a14.328,14.328,0,0,0-.816,1.3.341.341,0,0,1-.034.051.348.348,0,0,1-.439.085" transform="translate(-86.739 -0.328)" fill="#91b3fa"/>
            </g>
          </g>
        </g>
        <g id="Grupo_176008" data-name="Grupo 176008" transform="translate(51.009 15.254)" opacity="0.3">
          <g id="Grupo_176007" data-name="Grupo 176007">
            <g id="Grupo_176006" data-name="Grupo 176006" clip-path="url(#clip-path-10)">
              <path id="Trazado_236980" data-name="Trazado 236980" d="M122.151,44.5a15.159,15.159,0,0,1-1.248,1.327.348.348,0,0,1-.477-.507,14.464,14.464,0,0,0,1.191-1.266.348.348,0,0,1,.538.442l0,0m.6-1.366a.348.348,0,0,1-.1-.481,14.61,14.61,0,0,0,.855-1.514.348.348,0,0,1,.626.305,15.243,15.243,0,0,1-.9,1.587c-.007.01-.014.02-.022.03a.348.348,0,0,1-.459.072M119.5,47a15.081,15.081,0,0,1-1.533.986.348.348,0,1,1-.341-.607,14.446,14.446,0,0,0,1.462-.941.348.348,0,0,1,.476.5A.362.362,0,0,1,119.5,47m4.881-7.018a.348.348,0,0,1-.216-.442,14.312,14.312,0,0,0,.464-1.675.348.348,0,1,1,.681.144,14.891,14.891,0,0,1-.487,1.757.359.359,0,0,1-.059.106.349.349,0,0,1-.384.11m-8.054,8.8a15.2,15.2,0,0,1-1.724.589.348.348,0,1,1-.185-.671,14.26,14.26,0,0,0,1.644-.561.348.348,0,0,1,.4.541.343.343,0,0,1-.138.1m-3.507.966a15.294,15.294,0,0,1-1.816.16.348.348,0,1,1-.019-.7,14.485,14.485,0,0,0,1.732-.152.348.348,0,0,1,.1.689m-3.638.1a15.076,15.076,0,0,1-1.8-.281.348.348,0,0,1,.149-.68,14.173,14.173,0,0,0,1.718.268.348.348,0,0,1,.314.379.349.349,0,0,1-.379.314" transform="translate(-107.11 -34.94)" fill="#91b3fa"/>
              <path id="Trazado_236981" data-name="Trazado 236981" d="M145.063,33.466a.345.345,0,0,0,.076-.189c.026-.3.043-.6.051-.888a.348.348,0,1,0-.7-.019c-.008.279-.024.564-.048.847a.348.348,0,0,0,.617.249" transform="translate(-126.664 -32.031)" fill="#91b3fa"/>
            </g>
          </g>
        </g>
        <path id="Trazado_236982" data-name="Trazado 236982" d="M112.6,15.74a.176.176,0,0,0-.15-.139l-2.128-.271a9.337,9.337,0,0,0-1.7-2.5l.527-2.078a.175.175,0,0,0-.074-.19l-2.151-1.411a.176.176,0,0,0-.2.008l-1.7,1.312a9.343,9.343,0,0,0-2.974-.564l-1.1-1.843a.175.175,0,0,0-.187-.082L98.238,8.5a.176.176,0,0,0-.139.15l-.271,2.128a9.345,9.345,0,0,0-2.5,1.7l-2.078-.527a.177.177,0,0,0-.19.074l-1.411,2.152a.175.175,0,0,0,.008.2l1.312,1.7a9.343,9.343,0,0,0-.564,2.974l-1.843,1.1a.176.176,0,0,0-.082.188L91,22.86a.176.176,0,0,0,.15.139l2.128.272a9.332,9.332,0,0,0,1.7,2.5l-.527,2.078a.177.177,0,0,0,.074.191l2.152,1.411a.176.176,0,0,0,.2-.008l1.7-1.312a9.349,9.349,0,0,0,2.975.564l1.1,1.843a.176.176,0,0,0,.187.082l2.519-.524a.176.176,0,0,0,.139-.15l.272-2.128a9.344,9.344,0,0,0,2.5-1.7l2.078.527a.176.176,0,0,0,.191-.074l1.411-2.152a.177.177,0,0,0-.008-.2l-1.312-1.7a9.329,9.329,0,0,0,.563-2.974l1.843-1.1a.176.176,0,0,0,.082-.187Z" transform="translate(-47.387 -4.177)" fill="#fedc72"/>
        <path id="Trazado_236983" data-name="Trazado 236983" d="M113.141,30.8a2.625,2.625,0,1,1,.267-.284,2.679,2.679,0,0,1-.267.284m-3.207-.628a1.937,1.937,0,1,0,.116-2.736,1.99,1.99,0,0,0-.195.207,1.94,1.94,0,0,0,.079,2.529" transform="translate(-56.948 -13.739)" fill="#bdd0fb"/>
        <path id="Trazado_236984" data-name="Trazado 236984" d="M112.016,28.69a6.6,6.6,0,0,0,1.01-1.724l.021-.056a.349.349,0,0,0-.1-.4.334.334,0,0,0-.095-.055.348.348,0,0,0-.45.2,5.9,5.9,0,0,1-.571,1.11h0l-.038.057a5.8,5.8,0,0,1-2.134,1.919,5.865,5.865,0,0,1-1.483.537l-.012,0-.039.009a5.823,5.823,0,0,1-4.407-.837,5.892,5.892,0,0,1-.488-.356,5.86,5.86,0,0,1,6.913-9.446,5.677,5.677,0,0,1,.481.351A5.843,5.843,0,0,1,112.2,22a.348.348,0,0,0,.627-.3,6.541,6.541,0,0,0-1.768-2.23,6.611,6.611,0,0,0-.538-.393,6.556,6.556,0,0,0-7.734,10.568q.26.211.544.4a6.566,6.566,0,0,0,8.685-1.35" transform="translate(-52.569 -9.427)" fill="#bdd0fb"/>
      </g>
    </g>
    <g id="Grupo_176012" data-name="Grupo 176012" transform="translate(23.801 183.658)">
      <g id="Grupo_176011" data-name="Grupo 176011" clip-path="url(#clip-path-11)">
        <rect id="Rectángulo_101045" data-name="Rectángulo 101045" width="13.263" height="13.568" transform="translate(-3.153 3.288) rotate(-46.862)" fill="url(#linear-gradient-3)"/>
      </g>
    </g>
    <g id="Grupo_176014" data-name="Grupo 176014" transform="translate(24.109 182.053)">
      <g id="Grupo_176013" data-name="Grupo 176013" clip-path="url(#clip-path-12)">
        <rect id="Rectángulo_101046" data-name="Rectángulo 101046" width="3.731" height="3.201" transform="matrix(0.009, -1, 1, 0.009, -0.035, 3.701)" fill="url(#linear-gradient-4)"/>
      </g>
    </g>
    <g id="Grupo_176016" data-name="Grupo 176016" transform="translate(16.965 135.016)">
      <g id="Grupo_176015" data-name="Grupo 176015" clip-path="url(#clip-path-13)">
        <rect id="Rectángulo_101047" data-name="Rectángulo 101047" width="49.962" height="41.223" transform="translate(-26.55 28.668) rotate(-53.036)" fill="url(#linear-gradient-5)"/>
      </g>
    </g>
    <g id="Grupo_176018" data-name="Grupo 176018" transform="translate(11.892 184.649)">
      <g id="Grupo_176017" data-name="Grupo 176017" clip-path="url(#clip-path-14)">
        <rect id="Rectángulo_101048" data-name="Rectángulo 101048" width="7.36" height="7.365" transform="translate(-2.664 2.749) rotate(-46.862)" fill="url(#linear-gradient-6)"/>
      </g>
    </g>
    <g id="Grupo_176020" data-name="Grupo 176020" transform="translate(12.625 181.28)">
      <g id="Grupo_176019" data-name="Grupo 176019" clip-path="url(#clip-path-15)">
        <rect id="Rectángulo_101049" data-name="Rectángulo 101049" width="4.485" height="2.758" transform="matrix(0.009, -1, 1, 0.009, -0.042, 4.459)" fill="url(#linear-gradient-7)"/>
      </g>
    </g>
    <g id="Grupo_176022" data-name="Grupo 176022" transform="translate(9.937 134.295)">
      <g id="Grupo_176021" data-name="Grupo 176021" clip-path="url(#clip-path-16)">
        <rect id="Rectángulo_101050" data-name="Rectángulo 101050" width="49.485" height="43.089" transform="matrix(0.601, -0.799, 0.799, 0.601, -25.39, 31.43)" fill="url(#linear-gradient-8)"/>
      </g>
    </g>
    <g id="Grupo_176024" data-name="Grupo 176024">
      <g id="Grupo_176023" data-name="Grupo 176023" clip-path="url(#clip-path)">
        <path id="Trazado_236991" data-name="Trazado 236991" d="M40.658,216.891a79.185,79.185,0,0,0-17.74,2.043c-2.651,14.628-.74,31.547-.74,31.547,6.505,1.773,13.888-.913,13.888-.913,1.142-6.113,6.364-23.3,6.364-23.3a27.756,27.756,0,0,0,10.33-3.17,18.061,18.061,0,0,1-3.5-7.5,28.269,28.269,0,0,1-8.6,1.3" transform="translate(-11.267 -112.922)" fill="#fedc72"/>
      </g>
    </g>
    <g id="Grupo_176026" data-name="Grupo 176026" transform="translate(37.994 91.148)">
      <g id="Grupo_176025" data-name="Grupo 176025" clip-path="url(#clip-path-18)">
        <rect id="Rectángulo_101052" data-name="Rectángulo 101052" width="19.182" height="16.577" transform="matrix(0.009, -1, 1, 0.009, -0.181, 19.026)" fill="url(#linear-gradient-9)"/>
      </g>
    </g>
    <g id="Grupo_176028" data-name="Grupo 176028" transform="translate(52.541 83.087)">
      <g id="Grupo_176027" data-name="Grupo 176027" clip-path="url(#clip-path-19)">
        <rect id="Rectángulo_101053" data-name="Rectángulo 101053" width="11.256" height="9.418" transform="translate(-3.793 8.02) rotate(-65.729)" fill="url(#linear-gradient-10)"/>
      </g>
    </g>
    <g id="Grupo_176030" data-name="Grupo 176030" transform="translate(53.571 86.94)">
      <g id="Grupo_176029" data-name="Grupo 176029" clip-path="url(#clip-path-20)">
        <rect id="Rectángulo_101054" data-name="Rectángulo 101054" width="4.626" height="4.204" transform="matrix(0.553, -0.833, 0.833, 0.553, -1.816, 2.734)" fill="url(#linear-gradient-11)"/>
      </g>
    </g>
    <g id="Grupo_176032" data-name="Grupo 176032">
      <g id="Grupo_176031" data-name="Grupo 176031" clip-path="url(#clip-path)">
        <path id="Trazado_236995" data-name="Trazado 236995" d="M17.414,230.793l-3.153-8.187s-7.919,5.271-9.278,12.037a18.625,18.625,0,0,1,6.823,1.9c.612-3.2,5.609-5.748,5.609-5.748" transform="translate(-2.61 -116.594)" fill="#fedc72"/>
      </g>
    </g>
    <g id="Grupo_176034" data-name="Grupo 176034" transform="translate(2.175 118.049)">
      <g id="Grupo_176033" data-name="Grupo 176033" clip-path="url(#clip-path-22)">
        <rect id="Rectángulo_101056" data-name="Rectángulo 101056" width="16.221" height="20.944" transform="matrix(0.009, -1, 1, 0.009, -0.364, 16.023)" fill="url(#linear-gradient-12)"/>
      </g>
    </g>
    <g id="Grupo_176036" data-name="Grupo 176036" transform="translate(18.152 97.049)">
      <g id="Grupo_176035" data-name="Grupo 176035" clip-path="url(#clip-path-23)">
        <rect id="Rectángulo_101057" data-name="Rectángulo 101057" width="12.375" height="11.766" transform="matrix(0.458, -0.889, 0.889, 0.458, -3.965, 7.64)" fill="url(#linear-gradient-13)"/>
      </g>
    </g>
    <g id="Grupo_176038" data-name="Grupo 176038" transform="translate(19.934 89.927)">
      <g id="Grupo_176037" data-name="Grupo 176037" clip-path="url(#clip-path-24)">
        <rect id="Rectángulo_101058" data-name="Rectángulo 101058" width="13.691" height="13.609" transform="matrix(0.529, -0.849, 0.849, 0.529, -4.505, 7.23)" fill="url(#linear-gradient-14)"/>
      </g>
    </g>
    <g id="Grupo_176040" data-name="Grupo 176040" transform="translate(15.863 85.896)">
      <g id="Grupo_176039" data-name="Grupo 176039" clip-path="url(#clip-path-25)">
        <rect id="Rectángulo_101059" data-name="Rectángulo 101059" width="17.967" height="17.98" transform="matrix(0.627, -0.779, 0.779, 0.627, -6.269, 7.293)" fill="url(#linear-gradient-15)"/>
      </g>
    </g>
    <g id="Grupo_176042" data-name="Grupo 176042" transform="translate(20.347 94.603)">
      <g id="Grupo_176041" data-name="Grupo 176041" clip-path="url(#clip-path-26)">
        <rect id="Rectángulo_101060" data-name="Rectángulo 101060" width="3.524" height="3.779" transform="matrix(0.529, -0.849, 0.849, 0.529, -1.166, 1.622)" fill="url(#linear-gradient-16)"/>
      </g>
    </g>
    <g id="Grupo_176044" data-name="Grupo 176044" transform="translate(19.772 111.398)">
      <g id="Grupo_176043" data-name="Grupo 176043" clip-path="url(#clip-path-27)">
        <rect id="Rectángulo_101061" data-name="Rectángulo 101061" width="26.166" height="23.724" transform="matrix(0.972, -0.233, 0.233, 0.972, -4.391, 1.037)" fill="url(#linear-gradient-17)"/>
      </g>
    </g>
    <g id="Grupo_176046" data-name="Grupo 176046" transform="translate(20.494 119.855)">
      <g id="Grupo_176045" data-name="Grupo 176045" clip-path="url(#clip-path-28)">
        <rect id="Rectángulo_101062" data-name="Rectángulo 101062" width="6.653" height="5.922" transform="translate(-0.207 0)" fill="url(#linear-gradient-18)"/>
      </g>
    </g>
    <g id="Grupo_176048" data-name="Grupo 176048">
      <g id="Grupo_176047" data-name="Grupo 176047" clip-path="url(#clip-path)">
        <path id="Trazado_237003" data-name="Trazado 237003" d="M65.249,243.807a1.42,1.42,0,1,0,1.42-1.42,1.42,1.42,0,0,0-1.42,1.42" transform="translate(-34.175 -126.954)" fill="#91b3fa"/>
        <path id="Trazado_237004" data-name="Trazado 237004" d="M52.469,241.5l.985-3.342a1.146,1.146,0,0,1,.861-.8c3.087-.644,11.538-.781,11.623-.782l-.006-.377c-.349.005-8.572.139-11.695.79a1.523,1.523,0,0,0-1.146,1.067l-.985,3.342Z" transform="translate(-27.292 -123.711)" fill="#fedc72"/>
      </g>
    </g>
    <g id="Grupo_176050" data-name="Grupo 176050" transform="translate(150.424 92.49)">
      <g id="Grupo_176049" data-name="Grupo 176049" clip-path="url(#clip-path-30)">
        <rect id="Rectángulo_101064" data-name="Rectángulo 101064" width="29.653" height="30.668" transform="matrix(0.848, -0.529, 0.529, 0.848, -12.001, 6.58)" fill="url(#linear-gradient-19)"/>
      </g>
    </g>
    <g id="Grupo_176052" data-name="Grupo 176052" transform="translate(167.908 82.476)">
      <g id="Grupo_176051" data-name="Grupo 176051" clip-path="url(#clip-path-31)">
        <rect id="Rectángulo_101065" data-name="Rectángulo 101065" width="35.6" height="36.478" transform="translate(-15.039 8.208) rotate(-33.693)" fill="url(#linear-gradient-20)"/>
      </g>
    </g>
    <g id="Grupo_176054" data-name="Grupo 176054">
      <g id="Grupo_176053" data-name="Grupo 176053" clip-path="url(#clip-path)">
        <path id="Trazado_237007" data-name="Trazado 237007" d="M350.457,211.668a9.394,9.394,0,0,1,9.194,2.343,2.361,2.361,0,0,1,.68,2.352c-1.024,3.768-3.724,14.9-1.356,19.72,0,0-4.173,4.6-8.726.892,0,0-2.043-8.9-4.718-12.811-1.847-2.7,2.946-10.132,4.158-11.929a1.424,1.424,0,0,1,.769-.567" transform="translate(-180.758 -110.672)" fill="#fdb74d"/>
      </g>
    </g>
    <g id="Grupo_176056" data-name="Grupo 176056" transform="translate(170.774 93.508)">
      <g id="Grupo_176055" data-name="Grupo 176055" clip-path="url(#clip-path-33)">
        <rect id="Rectángulo_101067" data-name="Rectángulo 101067" width="10.515" height="8.306" transform="matrix(0.411, -0.912, 0.912, 0.411, -3.489, 7.748)" fill="url(#linear-gradient-21)"/>
      </g>
    </g>
    <g id="Grupo_176058" data-name="Grupo 176058" transform="translate(167.516 85.618)">
      <g id="Grupo_176057" data-name="Grupo 176057" clip-path="url(#clip-path-34)">
        <rect id="Rectángulo_101068" data-name="Rectángulo 101068" width="15.295" height="15.505" transform="translate(-6.667 2.078) rotate(-24.792)" fill="url(#linear-gradient-22)"/>
      </g>
    </g>
    <g id="Grupo_176060" data-name="Grupo 176060" transform="translate(170.326 83.78)">
      <g id="Grupo_176059" data-name="Grupo 176059" clip-path="url(#clip-path-35)">
        <rect id="Rectángulo_101069" data-name="Rectángulo 101069" width="11.569" height="11.61" transform="translate(-4.213 2.595) rotate(-33.693)" fill="url(#linear-gradient-23)"/>
      </g>
    </g>
    <g id="Grupo_176062" data-name="Grupo 176062" transform="translate(174.47 90.23)">
      <g id="Grupo_176061" data-name="Grupo 176061" clip-path="url(#clip-path-36)">
        <rect id="Rectángulo_101070" data-name="Rectángulo 101070" width="4.748" height="4.527" transform="matrix(0.908, -0.419, 0.419, 0.908, -1.244, 0.575)" fill="url(#linear-gradient-24)"/>
      </g>
    </g>
    <g id="Grupo_176064" data-name="Grupo 176064" transform="translate(163.026 144.995)">
      <g id="Grupo_176063" data-name="Grupo 176063" clip-path="url(#clip-path-37)">
        <rect id="Rectángulo_101071" data-name="Rectángulo 101071" width="33.911" height="41.923" transform="translate(-16.264 8.963) rotate(-28.987)" fill="url(#linear-gradient-25)"/>
      </g>
    </g>
    <g id="Grupo_176066" data-name="Grupo 176066" transform="translate(176.021 173.829)">
      <g id="Grupo_176065" data-name="Grupo 176065" clip-path="url(#clip-path-38)">
        <rect id="Rectángulo_101072" data-name="Rectángulo 101072" width="10.257" height="7.485" transform="matrix(0.009, -1, 1, 0.009, -0.268, 10.187)" fill="url(#linear-gradient-26)"/>
      </g>
    </g>
    <g id="Grupo_176068" data-name="Grupo 176068" transform="translate(169.383 148.039)">
      <g id="Grupo_176067" data-name="Grupo 176067" clip-path="url(#clip-path-39)">
        <rect id="Rectángulo_101073" data-name="Rectángulo 101073" width="36.814" height="20.402" transform="translate(-10.587 32.055) rotate(-71.723)" fill="url(#linear-gradient-27)"/>
      </g>
    </g>
    <g id="Grupo_176070" data-name="Grupo 176070" transform="translate(167.977 175.845)">
      <g id="Grupo_176069" data-name="Grupo 176069" clip-path="url(#clip-path-40)">
        <rect id="Rectángulo_101074" data-name="Rectángulo 101074" width="8.744" height="9.656" transform="translate(-0.238 8.652) rotate(-89.456)" fill="url(#linear-gradient-28)"/>
      </g>
    </g>
    <g id="Grupo_176072" data-name="Grupo 176072" transform="translate(162.801 122.814)">
      <g id="Grupo_176071" data-name="Grupo 176071" clip-path="url(#clip-path-41)">
        <rect id="Rectángulo_101075" data-name="Rectángulo 101075" width="35.141" height="36.57" transform="translate(-14.277 10.895) rotate(-37.476)" fill="url(#linear-gradient-29)"/>
      </g>
    </g>
    <g id="Grupo_176074" data-name="Grupo 176074" transform="translate(173.989 103.625)">
      <g id="Grupo_176073" data-name="Grupo 176073" clip-path="url(#clip-path-42)">
        <rect id="Rectángulo_101076" data-name="Rectángulo 101076" width="24.727" height="26.358" transform="matrix(0.829, -0.559, 0.559, 0.829, -10.131, 6.697)" fill="url(#linear-gradient-30)"/>
      </g>
    </g>
    <g id="Grupo_176076" data-name="Grupo 176076">
      <g id="Grupo_176075" data-name="Grupo 176075" clip-path="url(#clip-path)">
        <rect id="Rectángulo_101077" data-name="Rectángulo 101077" width="2.319" height="25.079" transform="translate(136.435 159.254)" fill="#7d97f4"/>
        <path id="Trazado_237018" data-name="Trazado 237018" d="M287.909,386.421H267.6v-1.342a.168.168,0,0,1,.168-.168h19.976a.168.168,0,0,1,.168.168Z" transform="translate(-140.159 -201.604)" fill="#7d97f4"/>
        <path id="Rectángulo_101078" data-name="Rectángulo 101078" d="M3.848,0H23.292a3.848,3.848,0,0,1,3.848,3.848v0A3.849,3.849,0,0,1,23.292,7.7H3.848A3.848,3.848,0,0,1,0,3.849v0A3.848,3.848,0,0,1,3.848,0Z" transform="translate(124.451 153.282)" fill="#7d97f4"/>
      </g>
    </g>
    <g id="Grupo_176078" data-name="Grupo 176078" transform="translate(109.952 176.126)">
      <g id="Grupo_176077" data-name="Grupo 176077" clip-path="url(#clip-path-44)">
        <rect id="Rectángulo_101080" data-name="Rectángulo 101080" width="12.405" height="9.709" transform="translate(-2.154 0.45) rotate(-14.472)" fill="url(#linear-gradient-31)"/>
      </g>
    </g>
    <g id="Grupo_176080" data-name="Grupo 176080" transform="translate(115.647 173.027)">
      <g id="Grupo_176079" data-name="Grupo 176079" clip-path="url(#clip-path-45)">
        <rect id="Rectángulo_101081" data-name="Rectángulo 101081" width="5.277" height="4.571" transform="translate(-0.969 4.379) rotate(-77.52)" fill="url(#linear-gradient-32)"/>
      </g>
    </g>
    <g id="Grupo_176082" data-name="Grupo 176082" transform="translate(111.638 147.757)">
      <g id="Grupo_176081" data-name="Grupo 176081" clip-path="url(#clip-path-46)">
        <rect id="Rectángulo_101082" data-name="Rectángulo 101082" width="37.184" height="36.158" transform="translate(-13.617 4.13) rotate(-23.027)" fill="url(#linear-gradient-33)"/>
      </g>
    </g>
    <g id="Grupo_176084" data-name="Grupo 176084" transform="translate(108.7 179.598)">
      <g id="Grupo_176083" data-name="Grupo 176083" clip-path="url(#clip-path-47)">
        <rect id="Rectángulo_101083" data-name="Rectángulo 101083" width="12.805" height="9.839" transform="translate(-2.09 0.971) rotate(-24.926)" fill="url(#linear-gradient-34)"/>
      </g>
    </g>
    <g id="Grupo_176086" data-name="Grupo 176086" transform="translate(108.029 182.091)">
      <g id="Grupo_176085" data-name="Grupo 176085" clip-path="url(#clip-path-48)">
        <rect id="Rectángulo_101084" data-name="Rectángulo 101084" width="6.159" height="12.549" transform="translate(-1.071 3.471) rotate(-77.52)" fill="url(#linear-gradient-35)"/>
      </g>
    </g>
    <g id="Grupo_176088" data-name="Grupo 176088" transform="translate(117.509 177.199)">
      <g id="Grupo_176087" data-name="Grupo 176087" clip-path="url(#clip-path-49)">
        <rect id="Rectángulo_101085" data-name="Rectángulo 101085" width="5.245" height="5.207" transform="translate(-1.043 4.202) rotate(-77.52)" fill="url(#linear-gradient-36)"/>
      </g>
    </g>
    <g id="Grupo_176090" data-name="Grupo 176090" transform="translate(118.078 146.638)">
      <g id="Grupo_176089" data-name="Grupo 176089" clip-path="url(#clip-path-50)">
        <rect id="Rectángulo_101086" data-name="Rectángulo 101086" width="38.634" height="37.698" transform="translate(-6.112 32.055) rotate(-79.205)" fill="url(#linear-gradient-37)"/>
      </g>
    </g>
    <g id="Grupo_176092" data-name="Grupo 176092">
      <g id="Grupo_176091" data-name="Grupo 176091" clip-path="url(#clip-path)">
        <path id="Trazado_237026" data-name="Trazado 237026" d="M243.835,273.647c4.879,1.393,7.063-12.339,7.044-12.673l7.481,8.747s-4.457,7.843-11.188,8.678a7.939,7.939,0,0,1-4.366-.64,6.991,6.991,0,0,0,1.03-4.112" transform="translate(-127.173 -136.689)" fill="#8c6df2"/>
      </g>
    </g>
    <g id="Grupo_176094" data-name="Grupo 176094" transform="translate(103.233 132.218)">
      <g id="Grupo_176093" data-name="Grupo 176093" clip-path="url(#clip-path-52)">
        <rect id="Rectángulo_101088" data-name="Rectángulo 101088" width="11.559" height="15.093" transform="translate(-1.868 8.438) rotate(-77.52)" fill="url(#linear-gradient-38)"/>
      </g>
    </g>
    <g id="Grupo_176096" data-name="Grupo 176096">
      <g id="Grupo_176095" data-name="Grupo 176095" clip-path="url(#clip-path)">
        <path id="Trazado_237028" data-name="Trazado 237028" d="M282.947,247.753s-6.557-4.473-22.392,3.617a5.153,5.153,0,0,0-.867,4.4c.764,2.331,10.166,14.943,10.531,20.865a16.838,16.838,0,0,0,14.771.032s2.8-15.635-2.043-28.912" transform="translate(-135.909 -129.119)" fill="#8c6df2"/>
      </g>
    </g>
    <g id="Grupo_176098" data-name="Grupo 176098" transform="translate(128.221 112.915)">
      <g id="Grupo_176097" data-name="Grupo 176097" clip-path="url(#clip-path-54)">
        <rect id="Rectángulo_101090" data-name="Rectángulo 101090" width="10.254" height="9.709" transform="translate(-1.842 8.322) rotate(-77.52)" fill="url(#linear-gradient-39)"/>
      </g>
    </g>
    <g id="Grupo_176100" data-name="Grupo 176100">
      <g id="Grupo_176099" data-name="Grupo 176099" clip-path="url(#clip-path)">
        <path id="Trazado_237030" data-name="Trazado 237030" d="M310.466,266.84c.444-3.086-7.712-9.068-7.712-9.068l2.856-8.661s15.563,11.106,12.29,20.176a6.334,6.334,0,0,1-2.022,2.919,10.137,10.137,0,0,0-5.412-5.365" transform="translate(-158.572 -130.475)" fill="#8c6df2"/>
      </g>
    </g>
    <g id="Grupo_176102" data-name="Grupo 176102" transform="translate(133.599 136.364)">
      <g id="Grupo_176101" data-name="Grupo 176101" clip-path="url(#clip-path-56)">
        <rect id="Rectángulo_101092" data-name="Rectángulo 101092" width="24.414" height="20.948" transform="translate(-4.167 2.976) rotate(-35.532)" fill="url(#linear-gradient-40)"/>
      </g>
    </g>
    <g id="Grupo_176104" data-name="Grupo 176104" transform="translate(124.587 104.403)">
      <g id="Grupo_176103" data-name="Grupo 176103" clip-path="url(#clip-path-57)">
        <rect id="Rectángulo_101093" data-name="Rectángulo 101093" width="15.13" height="14.192" transform="translate(-2.939 12.403) rotate(-77.966)" fill="url(#linear-gradient-41)"/>
      </g>
    </g>
    <g id="Grupo_176106" data-name="Grupo 176106" transform="translate(128.295 100.789)">
      <g id="Grupo_176105" data-name="Grupo 176105" clip-path="url(#clip-path-58)">
        <rect id="Rectángulo_101094" data-name="Rectángulo 101094" width="16.836" height="16.989" transform="translate(-6.769 5.457) rotate(-40.88)" fill="url(#linear-gradient-42)"/>
      </g>
    </g>
    <g id="Grupo_176108" data-name="Grupo 176108" transform="translate(132.478 112.016)">
      <g id="Grupo_176107" data-name="Grupo 176107" clip-path="url(#clip-path-59)">
        <rect id="Rectángulo_101095" data-name="Rectángulo 101095" width="4.69" height="4.755" transform="translate(-0.365 4.302) rotate(-85.146)" fill="url(#linear-gradient-43)"/>
      </g>
    </g>
    <g id="Grupo_176110" data-name="Grupo 176110" transform="translate(106.168 141.143)">
      <g id="Grupo_176109" data-name="Grupo 176109" clip-path="url(#clip-path-60)">
        <rect id="Rectángulo_101096" data-name="Rectángulo 101096" width="22.924" height="9.175" transform="translate(-0.579 0.19) rotate(-18.158)" fill="url(#linear-gradient-44)"/>
      </g>
    </g>
    <g id="Grupo_176112" data-name="Grupo 176112" transform="translate(86.321 123.525)">
      <g id="Grupo_176111" data-name="Grupo 176111" clip-path="url(#clip-path-61)">
        <rect id="Rectángulo_101097" data-name="Rectángulo 101097" width="35.545" height="35.995" transform="matrix(0.687, -0.726, 0.726, 0.687, -10.034, 10.32)" fill="url(#linear-gradient-45)"/>
      </g>
    </g>
    <g id="Grupo_176114" data-name="Grupo 176114">
      <g id="Grupo_176113" data-name="Grupo 176113" clip-path="url(#clip-path)">
        <path id="Trazado_237037" data-name="Trazado 237037" d="M207.673,276.348c.389,1.209.1,2.382-.642,2.622s-1.661-.547-2.05-1.755-.1-2.383.641-2.622,1.662.546,2.051,1.755" transform="translate(-107.271 -143.8)" fill="#91b3fa"/>
        <path id="Trazado_237038" data-name="Trazado 237038" d="M189.385,348.6a.94.94,0,0,1-.358-.071.867.867,0,0,1-.474-1.152l19-42.751a.918.918,0,0,1,1.19-.459.866.866,0,0,1,.474,1.152l-19,42.751a.908.908,0,0,1-.832.531" transform="translate(-98.719 -159.272)" fill="#91b3fa"/>
        <path id="Trazado_237039" data-name="Trazado 237039" d="M213.428,348.6a.907.907,0,0,1-.832-.531l-19-42.751a.867.867,0,0,1,.474-1.152.917.917,0,0,1,1.19.459l19,42.751a.867.867,0,0,1-.474,1.152.939.939,0,0,1-.358.071" transform="translate(-101.362 -159.272)" fill="#91b3fa"/>
        <path id="Trazado_237040" data-name="Trazado 237040" d="M312.853,348.6a.94.94,0,0,1-.358-.071.867.867,0,0,1-.474-1.152l19-42.751a.918.918,0,0,1,1.19-.459.866.866,0,0,1,.474,1.152l-19,42.751a.908.908,0,0,1-.832.531" transform="translate(-163.388 -159.272)" fill="#91b3fa"/>
        <path id="Trazado_237041" data-name="Trazado 237041" d="M336.895,348.6a.908.908,0,0,1-.833-.531l-19-42.751a.867.867,0,0,1,.474-1.152.917.917,0,0,1,1.19.459l19,42.751a.867.867,0,0,1-.474,1.152.938.938,0,0,1-.358.071" transform="translate(-166.03 -159.272)" fill="#91b3fa"/>
        <path id="Trazado_237042" data-name="Trazado 237042" d="M266.416,301.181a1.041,1.041,0,0,0-.18-.791.821.821,0,0,0-.659-.348H179.161a.962.962,0,0,0-.828.508,1.214,1.214,0,0,0-.064,1.055l.936,2.269a1.311,1.311,0,0,0,1.19.852h84.589a1.029,1.029,0,0,0,.975-.9Z" transform="translate(-93.323 -157.152)" fill="#91b3fa"/>
      </g>
    </g>
  </g>
</svg>
